<?xml version="1.0" standalone="no"?>
<!DOCTYPE svg PUBLIC "-//W3C//DTD SVG 1.1//EN" "http://www.w3.org/Graphics/SVG/1.1/DTD/svg11.dtd" >
<svg xmlns="http://www.w3.org/2000/svg" xmlns:xlink="http://www.w3.org/1999/xlink" version="1.1">
<metadata>
Created by FontForge 20161013 at Wed Sep 30 23:28:45 2015
 By ,,,
Traced from the Dover book: Brushstroke and Free-Style Alphabets-100 Complete Fonts. This font is free for non-commercial use and donationware for commercial use. Make a donation through PayPal my account there is: turoturom@yahoo.es
</metadata>
<defs>
<font id="HaloHandletter" horiz-adv-x="400" >
  <font-face 
    font-family="HaloHandletter"
    font-weight="400"
    font-stretch="normal"
    units-per-em="1000"
    panose-1="0 0 0 0 0 0 0 0 0 0"
    ascent="800"
    descent="-200"
    x-height="242"
    cap-height="654"
    bbox="-220.136 -434.035 1378 812.522"
    underline-thickness="20"
    underline-position="-173"
    unicode-range="U+0009-FB02"
  />
<missing-glyph horiz-adv-x="140" 
 />
    <glyph glyph-name="v_e" unicode="ve" horiz-adv-x="425" 
d="M307 180q6 9 10.5 23t2.5 27.5t-14 15.5q-13 2 -31 -36t-20 -77q32 11 52 47zM254 99q8 -45 57 -45q15 0 29 4.5t26.5 14.5t21.5 18.5t20 24.5t16 23.5t14.5 24.5t11.5 20q7 12 11 0q6 -17 -10 -47q-7 -13 -14.5 -26t-26 -38t-43.5 -40t-51 -15q-78 1 -95 72
q-46 -7 -85 9q-11 -25 -20 -39q-1 -2 -7.5 -11.5t-8.5 -12.5t-7.5 -9.5t-9.5 -9t-10 -5t-12 -2.5q-24 0 -39.5 26.5t-18.5 59.5t-4.5 64t1.5 40q0 15 18 17.5t20 -12.5q1 -3 0 -8q-6 -12 -0.5 -80t26.5 -71q23 -4 49 80q-11 28 -3 78q4 22 13 41t16 18q23 -1 21 -63
q-2 -38 -14 -72q24 -17 71 -8q-1 13 0 25q2 48 35 97.5t70 29.5q24 -12 27 -40t-9.5 -55.5t-36.5 -50.5t-49 -27z" />
    <glyph glyph-name="v_l" unicode="vl" horiz-adv-x="479" 
d="M277 105q11 -26 33 -42t50 -16q23 0 44.5 11.5t40.5 35.5t30.5 41.5t27.5 46.5q6 11 11 1q8 -17 -8 -48q-5 -10 -10 -18.5t-20.5 -29.5t-31.5 -35t-42 -24.5t-53 -9.5q-71 4 -101 76q-59 -18 -112 5q-11 -25 -20 -39q-1 -2 -7.5 -11.5t-8.5 -12.5t-7.5 -9.5t-9.5 -9
t-10 -5t-12 -2.5q-24 0 -39.5 26.5t-18.5 59.5t-4.5 64t1.5 40q0 15 18 17.5t20 -12.5q1 -3 0 -8q-6 -12 -0.5 -80t26.5 -71q23 -4 49 80q-11 28 -3 78q4 22 13 41t16 18q23 -1 21 -63q-2 -38 -14 -72q34 -23 92 -6q-28 104 4 241q22 96 59.5 144.5t71.5 40.5
q48 -12 49 -106t-41 -198t-104 -139zM267 135q30 21 54.5 65.5t37.5 94t18.5 97t1 80.5t-16.5 37q-20 5 -45 -38.5t-42 -119.5q-31 -129 -8 -216z" />
    <glyph glyph-name="w_e" unicode="we" horiz-adv-x="549" 
d="M345 90q-48 -7 -86 11q-32 -76 -75 -76q-18 0 -32 11.5t-20 23.5l-5 11q-1 -2 -3 -5.5t-8.5 -12t-13.5 -15t-18 -12t-22 -5.5q-31 0 -47 30t-15 64t2 59q3 28 10 41.5t14 13t15 -2.5q6 -3 6 -9t-2.5 -11t-3.5 -5q-5 -37 -6 -59q-4 -86 32 -93q20 -4 37.5 34t15.5 80
q-2 49 24 47q18 -2 21 -33q0 -30 -8 -51q-3 -10 1 -42.5t22 -33.5q26 0 58 75q-13 28 -11 63q1 23 13 51t23 27q19 -1 22.5 -33t-2.5 -64.5t-13 -40.5q24 -17 71 -8q-1 13 0 25q2 48 35 97.5t70 29.5q24 -12 27 -40t-9.5 -55.5t-36.5 -50.5t-49 -27q8 -45 57 -45
q15 0 29 4.5t26.5 14.5t21.5 18.5t20 24.5t16 23.5t14.5 24.5t11.5 20q7 12 11 0q6 -17 -10 -47q-7 -13 -14.5 -26t-26 -38t-43.5 -40t-51 -15q-78 1 -95 72zM431 180q6 9 10.5 23t2.5 27.5t-14 15.5q-13 2 -31 -36t-20 -77q32 11 52 47z" />
    <glyph glyph-name="w_l" unicode="wl" horiz-adv-x="602" 
d="M270 128q33 -23 90 -6q-28 104 4 241q22 96 59.5 144.5t71.5 40.5q48 -12 49 -106t-41 -198t-104 -139q11 -26 33 -42t50 -16q23 0 44.5 11.5t40.5 35.5t30.5 41.5t27.5 46.5q6 11 11 1q8 -17 -8 -48q-5 -10 -10 -18.5t-20.5 -29.5t-31.5 -35t-42 -24.5t-53 -9.5
q-71 4 -101 76q-59 -18 -112 5q-31 -74 -74 -74q-18 0 -32 11.5t-20 23.5l-5 11q-1 -2 -3 -5.5t-8.5 -12t-13.5 -15t-18 -12t-22 -5.5q-31 0 -47 30t-15 64t2 59q3 28 10 41.5t14 13t15 -2.5q6 -3 6 -9t-2.5 -11t-3.5 -5q-5 -37 -6 -59q-4 -86 32 -93q20 -4 37.5 34t15.5 80
q-2 49 24 47q18 -2 21 -33q0 -30 -8 -51q-3 -10 1 -42.5t22 -33.5q26 0 58 75q-13 28 -11 63q1 23 13 51t23 27q19 -1 22.5 -33t-2.5 -64.5t-13 -40.5zM389 135q30 21 54.5 65.5t37.5 94t18.5 97t1 80.5t-16.5 37q-20 5 -45 -38.5t-42 -119.5q-31 -129 -8 -216z" />
    <glyph glyph-name="o_e" unicode="oe" horiz-adv-x="440" 
d="M326 178q21 34 10 58q-9 20 -27 2q-13 -12 -24 -41q-13 -36 -14 -65q34 12 55 46zM120 143q3 38 -3.5 63t-20.5 24q-13 -1 -16 -22t11 -39q12 -15 29 -26zM55 177q-2 -1 -7 -8t-12 -24.5t-10 -39.5q-2 -20 4.5 -40.5t28.5 -22.5q16 -1 33.5 19.5t22.5 44.5q-43 22 -60 71
zM236 93q-53 -8 -92 3q-9 -35 -35.5 -61t-58.5 -22q-23 2 -37.5 19.5t-18.5 37t-2 38.5q6 68 37 106q8 10 19 12q2 15 14 26t31 12q10 1 21.5 -5t22.5 -21.5t15 -42t-1 -66.5q37 -12 81 -7v23q2 41 28 87q23 39 51.5 44t44.5 -19.5t7 -61.5q-15 -72 -92 -95q9 -46 55 -46
q15 0 29 4.5t26.5 14.5t21.5 18.5t20 24.5t16 23.5t14.5 24.5t11.5 20q7 12 11 0q6 -17 -9 -47l-3 -7q-4 -6 -7 -11t-8.5 -14t-11 -16.5t-13 -16.5t-15 -16.5t-17 -15t-19 -12t-20.5 -7.5t-22 -3q-80 1 -95 75z" />
    <glyph glyph-name="o_l" unicode="ol" horiz-adv-x="492" 
d="M119 143q3 38 -3 63t-20 24q-13 -1 -16 -22t11 -39q13 -17 28 -26zM55 177q-2 -1 -7 -8t-12 -24.5t-10 -39.5q-2 -20 4.5 -40.5t28.5 -22.5q16 -1 33 18.5t22 43.5v1q-42 24 -59 72zM289 105q10 -26 32.5 -42t50.5 -16q23 0 44.5 11.5t40.5 35.5t30.5 41.5t27.5 46.5
q7 12 12 0q6 -17 -9 -47q-5 -10 -10 -18.5t-20.5 -29.5t-31.5 -35t-42 -24.5t-53 -9.5q-69 4 -101 76q-62 -17 -117 -1q-9 -34 -35 -59t-58 -21q-23 2 -37.5 19.5t-18.5 37t-2 38.5q6 68 37 106q8 10 19 12q2 15 14 26t31 12q10 1 21.5 -5t23 -21.5t15 -42.5t-2.5 -68
q48 -17 101 -6q-28 101 4 242q22 95 59 144t71 41q48 -12 49 -106t-41 -198t-104 -139zM280 135q30 21 54.5 65.5t37 94t18.5 97t1.5 80.5t-17.5 37q-19 6 -44.5 -38t-42.5 -120q-31 -129 -7 -216z" />
    <glyph glyph-name="g_e" unicode="ge" horiz-adv-x="433" 
d="M133 -77q-26 -33 -43 -64q-28 -50 -45 -101.5t-17 -82.5q0 -2 -0.5 -14.5t-0.5 -21.5t1.5 -20t6.5 -18t13 -9q29 -6 52.5 47t28.5 123q4 56 4 161zM260 99q32 39 46 74q28 66 3 70q-16 2 -36.5 -50.5t-12.5 -93.5zM142 169q-9 -4 -10 1q-1 1 -1.5 14.5t-5 24.5t-14.5 13
q-19 4 -41 -30t-28 -65q-15 -90 12 -90q22 0 44 33t33 66zM317 54q13 0 26 4.5t23 9.5t21 16.5t18 18.5t17 22t13.5 20.5t12.5 21t10 17.5q7 12 11 0q6 -17 -10 -47q-7 -13 -14.5 -26t-26 -38t-43.5 -40t-51 -15q-17 0 -38.5 7t-32.5 18q-12 -12 -42.5 -39t-47.5 -45
q5 -142 3 -182q-1 -31 -8 -64.5t-20 -67t-37 -56t-54 -23.5q-25 -1 -41 26.5t-11 79.5q12 109 76 212q25 41 61 83l-5 98q-1 -3 -3.5 -7t-11 -15t-17 -18.5t-21 -12.5t-24.5 -2q-41 10 -50 50t9 85q17 50 42 79.5t57 24.5q16 -2 27.5 -10.5t14.5 -15.5l4 -7l12 23q6 12 24 6
q11 -6 7 -16q-6 -12 -30 -103q-7 -28 -5 -127l37 37l35 35q-11 25 -11 74q2 49 36 100t71 27q19 -12 21.5 -34.5t-2 -35.5t-16.5 -41q-23 -56 -57 -93q16 -14 41 -14z" />
    <glyph glyph-name="g_s" unicode="gs" horiz-adv-x="482" 
d="M142 169q-9 -4 -9 1q-1 1 -2 14.5t-5.5 24.5t-13.5 13q-20 4 -42 -30t-27 -65q-17 -90 12 -90q21 0 43 33t33 66zM133 -74q-23 -32 -43 -67q-28 -50 -45 -101.5t-17 -82.5q0 -3 -0.5 -19t0 -27.5t5.5 -23t15 -13.5q29 -6 52.5 47t28.5 123q4 57 4 164zM301 56h3
q24 -1 34 24t3 60.5t-30 61.5q0 -10 -11 -38q-15 -36 -32 -69l3 -10q10 -17 30 -29zM346 16q-64 6 -100 45q-12 -17 -24.5 -32t-31 -34t-27.5 -30q5 -147 3 -188q-1 -31 -8 -64.5t-20 -67t-37 -56t-54 -23.5q-25 -1 -41 26.5t-11 79.5q12 109 76 212q22 37 61 86l-5 95
q-1 -3 -3.5 -7t-10.5 -15t-16.5 -18.5t-21.5 -12.5t-25 -2q-40 10 -49 50t9 85q16 49 41 79t57 25q16 -2 27.5 -10.5t14.5 -15.5l4 -7l12 23q7 12 24 6q11 -6 7 -16q-6 -12 -30 -103q-7 -27 -5 -120q63 72 71 84q0 15 7 20q3 3 9 3q19 32 29 62q3 11 10 30.5t8 24.5
q1 3 3.5 11.5t4 12t4 8.5t6.5 6.5t9 1.5q6 0 10.5 -2t8 -4.5t5.5 -7.5t3 -8.5t1.5 -9.5t0.5 -8.5v-8.5v-7q0 -11 8.5 -34.5t15.5 -44t4 -45.5t-21 -44q12 0 23.5 3t22 9.5t19 12.5t18.5 18t15.5 18t14.5 20.5t11.5 19t11 19t8.5 15.5q7 12 12 0q6 -17 -9 -47
q-39 -69 -81 -96q-38 -25 -79 -22z" />
    <glyph glyph-name="c_l" unicode="cl" horiz-adv-x="505" 
d="M404 372q4 19 7.5 49t-1 62.5t-21.5 33.5q-19 1 -41 -34t-40 -95.5t-24 -125.5q-3 -32 1.5 -76t13.5 -70q39 56 58 102t47 154zM385 47q11 0 21.5 3t19 6.5t18.5 12t16.5 14t15 17t13 17t12.5 18.5t10.5 16.5t10 16.5t7.5 14q7 12 11 1q7 -17 -9 -47q-7 -14 -15 -26.5
t-28.5 -38.5t-50 -41t-63.5 -13q-59 3 -88 48q-53 -44 -118.5 -56t-114.5 15t-53 89q-3 54 32.5 108t87.5 52q25 -1 39 -15t14 -36q0 -30 -27 -57q-15 -15 -27 -6q-4 3 -2.5 12t6.5 15q8 10 12 22.5t0.5 22.5t-16.5 11q-29 2 -54 -32t-25 -79q0 -52 36.5 -78t91.5 -16
t105 55q-21 54 -19 172q1 52 18 119t49.5 120t68.5 51q74 -5 52 -161q-13 -88 -54.5 -175.5t-74.5 -125.5q29 -45 72 -45z" />
    <glyph glyph-name="c_e" unicode="ce" horiz-adv-x="447" 
d="M323 243q-16 2 -36.5 -54t-11.5 -96q27 19 51 80t-3 70zM331 54q66 0 127 106q4 6 9 16l5 8q7 12 12 0q5 -16 -10 -47q-6 -13 -14.5 -26t-27 -38t-43.5 -40t-51 -15q-50 1 -75 30q-53 -35 -113 -41.5t-103.5 21.5t-46.5 85q-3 54 32.5 108t87.5 52q25 -1 39 -15t14 -36
q0 -30 -27 -57q-15 -15 -27 -6q-4 3 -2.5 12t6.5 15q8 10 12 22.5t0.5 22.5t-16.5 11q-29 2 -54 -32t-25 -79q0 -48 31.5 -74t80.5 -22t96 38q-12 30 -10 72q2 48 35 98.5t70 27.5q31 -22 26 -61.5t-28.5 -78.5t-51.5 -63q16 -14 42 -14z" />
    <glyph glyph-name="c_eacute" unicode="c&#xe9;" horiz-adv-x="447" 
d="M323 243q27 -9 3 -70t-51 -80q-9 40 11.5 96t36.5 54zM331 54q-26 0 -42 14q28 24 51.5 63t28.5 78.5t-26 61.5q-37 23 -70 -27.5t-35 -98.5q-2 -42 10 -72q-47 -34 -96 -38t-80.5 22t-31.5 74q0 45 25 79t54 32q13 -1 16.5 -11t-0.5 -22.5t-12 -22.5q-5 -6 -6.5 -15
t2.5 -12q12 -9 27 6q27 27 27 57q0 22 -14 36t-39 15q-52 2 -87.5 -52t-32.5 -108q3 -57 46.5 -85t103.5 -21.5t113 41.5q25 -29 75 -30q26 0 51 15t43.5 40t27 38t14.5 26q18 36 8 50q-4 6 -10 -3q-42 -73 -70 -99q-34 -31 -71 -31zM356 331q25 62 36 80q8 13 13 13.5
t14 -10.5q6 -7 6 -14.5t-3 -11.5l-3 -3q-20 -38 -29 -58q-13 -30 -27 -20q-5 4 -6.5 12.5t-0.5 11.5z" />
    <glyph glyph-name="c_egrave" unicode="c&#xe8;" horiz-adv-x="447" 
d="M323 243q-16 2 -36.5 -54t-11.5 -96q27 19 51 80t-3 70zM331 54q66 0 127 106q4 6 9 16l5 8q7 12 12 0q5 -16 -10 -47q-6 -13 -14.5 -26t-27 -38t-43.5 -40t-51 -15q-50 1 -75 30q-53 -35 -113 -41.5t-103.5 21.5t-46.5 85q-3 54 32.5 108t87.5 52q25 -1 39 -15t14 -36
q0 -30 -27 -57q-15 -15 -27 -6q-4 3 -2.5 12t6.5 15q8 10 12 22.5t0.5 22.5t-16.5 11q-29 2 -54 -32t-25 -79q0 -48 31.5 -74t80.5 -22t96 38q-12 30 -10 72q2 48 35 98.5t70 27.5q31 -22 26 -61.5t-28.5 -78.5t-51.5 -63q16 -14 42 -14zM356 331q1 -4 -0.5 -12t-6.5 -12
q-13 -10 -27 20l-29 58q-12 13 0 29q10 11 14.5 10.5t12.5 -13.5q11 -18 36 -80z" />
    <glyph glyph-name="c_ecircumflex" unicode="c&#xea;" horiz-adv-x="447" 
d="M323 243q27 -9 3 -70t-51 -80q-9 40 11.5 96t36.5 54zM331 54q-26 0 -42 14q28 24 51.5 63t28.5 78.5t-26 61.5q-37 23 -70 -27.5t-35 -98.5q-2 -42 10 -72q-47 -34 -96 -38t-80.5 22t-31.5 74q0 45 25 79t54 32q13 -1 16.5 -11t-0.5 -22.5t-12 -22.5q-5 -6 -6.5 -15
t2.5 -12q12 -9 27 6q27 27 27 57q0 22 -14 36t-39 15q-52 2 -87.5 -52t-32.5 -108q3 -57 46.5 -85t103.5 -21.5t113 41.5q25 -29 75 -30q26 0 51 15t43.5 40t27 38t14.5 26q18 36 8 50q-4 6 -10 -3q-42 -73 -70 -99q-34 -31 -71 -31zM292 323q31 35 48 49q16 17 26 1
q6 -9 24 -45q6 -10 -7 -23t-25 8q-7 12 -16 25q-3 -3 -16 -15.5t-18 -17.5q-4 -3 -10 -0.5t-8 7.5t2 11z" />
    <glyph glyph-name="c_edieresis" unicode="c&#xeb;" horiz-adv-x="447" 
d="M323 243q27 -9 3 -70t-51 -80q-9 40 11.5 96t36.5 54zM331 54q-26 0 -42 14q28 24 51.5 63t28.5 78.5t-26 61.5q-37 23 -70 -27.5t-35 -98.5q-2 -42 10 -72q-47 -34 -96 -38t-80.5 22t-31.5 74q0 45 25 79t54 32q13 -1 16.5 -11t-0.5 -22.5t-12 -22.5q-5 -6 -6.5 -15
t2.5 -12q12 -9 27 6q27 27 27 57q0 22 -14 36t-39 15q-52 2 -87.5 -52t-32.5 -108q3 -57 46.5 -85t103.5 -21.5t113 41.5q25 -29 75 -30q26 0 51 15t43.5 40t27 38t14.5 26q18 36 8 50q-4 6 -10 -3q-42 -73 -70 -99q-34 -31 -71 -31zM315 364q23 -3 21 -38q-2 -11 -10.5 -17
t-19.5 -5q-25 4 -22 29q0 10 8.5 21.5t22.5 9.5zM407 364q23 -2 23 -32q-1 -15 -12.5 -23t-21.5 -7q-21 4 -21 27q1 10 10 23t22 12z" />
    <glyph glyph-name="v_eacute" unicode="v&#xe9;" horiz-adv-x="425" 
d="M307 180q6 9 10.5 23t2.5 27.5t-14 15.5q-13 2 -31 -36t-20 -77q32 11 52 47zM254 99q8 -45 57 -45q15 0 29 4.5t26.5 14.5t21.5 18.5t20 24.5t16 23.5t14.5 24.5t11.5 20q7 12 11 0q6 -17 -10 -47q-7 -13 -14.5 -26t-26 -38t-43.5 -40t-51 -15q-78 1 -95 72
q-46 -7 -85 9q-11 -25 -20 -39q-1 -2 -7.5 -11.5t-8.5 -12.5t-7.5 -9.5t-9.5 -9t-10 -5t-12 -2.5q-24 0 -39.5 26.5t-18.5 59.5t-4.5 64t1.5 40q0 15 18 17.5t20 -12.5q1 -3 0 -8q-6 -12 -0.5 -80t26.5 -71q23 -4 49 80q-11 28 -3 78q4 22 13 41t16 18q23 -1 21 -63
q-2 -38 -14 -72q24 -17 71 -8q-1 13 0 25q2 48 35 97.5t70 29.5q24 -12 27 -40t-9.5 -55.5t-36.5 -50.5t-49 -27zM336 331q25 62 36 80q8 13 13 13.5t14 -10.5q6 -7 6 -14.5t-3 -11.5l-3 -3q-20 -38 -29 -58q-13 -30 -27 -20q-5 4 -6.5 12.5t-0.5 11.5z" />
    <glyph glyph-name="v_egrave" unicode="v&#xe8;" horiz-adv-x="425" 
d="M307 180q6 9 10.5 23t2.5 27.5t-14 15.5q-13 2 -31 -36t-20 -77q32 11 52 47zM254 99q8 -45 57 -45q15 0 29 4.5t26.5 14.5t21.5 18.5t20 24.5t16 23.5t14.5 24.5t11.5 20q7 12 11 0q6 -17 -10 -47q-7 -13 -14.5 -26t-26 -38t-43.5 -40t-51 -15q-78 1 -95 72
q-46 -7 -85 9q-11 -25 -20 -39q-1 -2 -7.5 -11.5t-8.5 -12.5t-7.5 -9.5t-9.5 -9t-10 -5t-12 -2.5q-24 0 -39.5 26.5t-18.5 59.5t-4.5 64t1.5 40q0 15 18 17.5t20 -12.5q1 -3 0 -8q-6 -12 -0.5 -80t26.5 -71q23 -4 49 80q-11 28 -3 78q4 22 13 41t16 18q23 -1 21 -63
q-2 -38 -14 -72q24 -17 71 -8q-1 13 0 25q2 48 35 97.5t70 29.5q24 -12 27 -40t-9.5 -55.5t-36.5 -50.5t-49 -27zM336 331q1 -4 -0.5 -12t-6.5 -12q-13 -10 -27 20l-29 58q-12 13 0 29q10 11 14.5 10.5t12.5 -13.5q11 -18 36 -80z" />
    <glyph glyph-name="v_ecircumflex" unicode="v&#xea;" horiz-adv-x="425" 
d="M307 180q6 9 10.5 23t2.5 27.5t-14 15.5q-13 2 -31 -36t-20 -77q32 11 52 47zM254 99q8 -45 57 -45q15 0 29 4.5t26.5 14.5t21.5 18.5t20 24.5t16 23.5t14.5 24.5t11.5 20q7 12 11 0q6 -17 -10 -47q-7 -13 -14.5 -26t-26 -38t-43.5 -40t-51 -15q-78 1 -95 72
q-46 -7 -85 9q-11 -25 -20 -39q-1 -2 -7.5 -11.5t-8.5 -12.5t-7.5 -9.5t-9.5 -9t-10 -5t-12 -2.5q-24 0 -39.5 26.5t-18.5 59.5t-4.5 64t1.5 40q0 15 18 17.5t20 -12.5q1 -3 0 -8q-6 -12 -0.5 -80t26.5 -71q23 -4 49 80q-11 28 -3 78q4 22 13 41t16 18q23 -1 21 -63
q-2 -38 -14 -72q24 -17 71 -8q-1 13 0 25q2 48 35 97.5t70 29.5q24 -12 27 -40t-9.5 -55.5t-36.5 -50.5t-49 -27zM272 323q31 35 48 49q16 17 26 1q6 -9 24 -45q6 -10 -7 -23t-25 8q-7 12 -16 25q-3 -3 -16 -15.5t-18 -17.5q-4 -3 -10 -0.5t-8 7.5t2 11z" />
    <glyph glyph-name="v_edieresis" unicode="v&#xeb;" horiz-adv-x="425" 
d="M307 180q6 9 10.5 23t2.5 27.5t-14 15.5q-13 2 -31 -36t-20 -77q32 11 52 47zM254 99q8 -45 57 -45q15 0 29 4.5t26.5 14.5t21.5 18.5t20 24.5t16 23.5t14.5 24.5t11.5 20q7 12 11 0q6 -17 -10 -47q-7 -13 -14.5 -26t-26 -38t-43.5 -40t-51 -15q-78 1 -95 72
q-46 -7 -85 9q-11 -25 -20 -39q-1 -2 -7.5 -11.5t-8.5 -12.5t-7.5 -9.5t-9.5 -9t-10 -5t-12 -2.5q-24 0 -39.5 26.5t-18.5 59.5t-4.5 64t1.5 40q0 15 18 17.5t20 -12.5q1 -3 0 -8q-6 -12 -0.5 -80t26.5 -71q23 -4 49 80q-11 28 -3 78q4 22 13 41t16 18q23 -1 21 -63
q-2 -38 -14 -72q24 -17 71 -8q-1 13 0 25q2 48 35 97.5t70 29.5q24 -12 27 -40t-9.5 -55.5t-36.5 -50.5t-49 -27zM295 364q23 -3 21 -38q-2 -11 -10.5 -17t-19.5 -5q-25 4 -22 29q0 10 8.5 21.5t22.5 9.5zM387 364q23 -2 23 -32q-1 -15 -12.5 -23t-21.5 -7q-21 4 -21 27
q1 10 10 23t22 12z" />
    <glyph glyph-name="w_eacute" unicode="w&#xe9;" horiz-adv-x="549" 
d="M345 90q-48 -7 -86 11q-32 -76 -75 -76q-18 0 -32 11.5t-20 23.5l-5 11q-1 -2 -3 -5.5t-8.5 -12t-13.5 -15t-18 -12t-22 -5.5q-31 0 -47 30t-15 64t2 59q3 28 10 41.5t14 13t15 -2.5q6 -3 6 -9t-2.5 -11t-3.5 -5q-5 -37 -6 -59q-4 -86 32 -93q20 -4 37.5 34t15.5 80
q-2 49 24 47q18 -2 21 -33q0 -30 -8 -51q-3 -10 1 -42.5t22 -33.5q26 0 58 75q-13 28 -11 63q1 23 13 51t23 27q19 -1 22.5 -33t-2.5 -64.5t-13 -40.5q24 -17 71 -8q-1 13 0 25q2 48 35 97.5t70 29.5q24 -12 27 -40t-9.5 -55.5t-36.5 -50.5t-49 -27q8 -45 57 -45
q15 0 29 4.5t26.5 14.5t21.5 18.5t20 24.5t16 23.5t14.5 24.5t11.5 20q7 12 11 0q6 -17 -10 -47q-7 -13 -14.5 -26t-26 -38t-43.5 -40t-51 -15q-78 1 -95 72zM431 180q6 9 10.5 23t2.5 27.5t-14 15.5q-13 2 -31 -36t-20 -77q32 11 52 47zM460 331q25 62 36 80q8 13 13 13.5
t14 -10.5q6 -7 6 -14.5t-3 -11.5l-3 -3q-20 -38 -29 -58q-13 -30 -27 -20q-5 4 -6.5 12.5t-0.5 11.5z" />
    <glyph glyph-name="w_egrave" unicode="w&#xe8;" horiz-adv-x="549" 
d="M345 90q-48 -7 -86 11q-32 -76 -75 -76q-18 0 -32 11.5t-20 23.5l-5 11q-1 -2 -3 -5.5t-8.5 -12t-13.5 -15t-18 -12t-22 -5.5q-31 0 -47 30t-15 64t2 59q3 28 10 41.5t14 13t15 -2.5q6 -3 6 -9t-2.5 -11t-3.5 -5q-5 -37 -6 -59q-4 -86 32 -93q20 -4 37.5 34t15.5 80
q-2 49 24 47q18 -2 21 -33q0 -30 -8 -51q-3 -10 1 -42.5t22 -33.5q26 0 58 75q-13 28 -11 63q1 23 13 51t23 27q19 -1 22.5 -33t-2.5 -64.5t-13 -40.5q24 -17 71 -8q-1 13 0 25q2 48 35 97.5t70 29.5q24 -12 27 -40t-9.5 -55.5t-36.5 -50.5t-49 -27q8 -45 57 -45
q15 0 29 4.5t26.5 14.5t21.5 18.5t20 24.5t16 23.5t14.5 24.5t11.5 20q7 12 11 0q6 -17 -10 -47q-7 -13 -14.5 -26t-26 -38t-43.5 -40t-51 -15q-78 1 -95 72zM431 180q6 9 10.5 23t2.5 27.5t-14 15.5q-13 2 -31 -36t-20 -77q32 11 52 47zM460 331q1 -4 -0.5 -12t-6.5 -12
q-13 -10 -27 20l-29 58q-12 13 0 29q10 11 14.5 10.5t12.5 -13.5q11 -18 36 -80z" />
    <glyph glyph-name="w_ecircumflex" unicode="w&#xea;" horiz-adv-x="549" 
d="M345 90q-48 -7 -86 11q-32 -76 -75 -76q-18 0 -32 11.5t-20 23.5l-5 11q-1 -2 -3 -5.5t-8.5 -12t-13.5 -15t-18 -12t-22 -5.5q-31 0 -47 30t-15 64t2 59q3 28 10 41.5t14 13t15 -2.5q6 -3 6 -9t-2.5 -11t-3.5 -5q-5 -37 -6 -59q-4 -86 32 -93q20 -4 37.5 34t15.5 80
q-2 49 24 47q18 -2 21 -33q0 -30 -8 -51q-3 -10 1 -42.5t22 -33.5q26 0 58 75q-13 28 -11 63q1 23 13 51t23 27q19 -1 22.5 -33t-2.5 -64.5t-13 -40.5q24 -17 71 -8q-1 13 0 25q2 48 35 97.5t70 29.5q24 -12 27 -40t-9.5 -55.5t-36.5 -50.5t-49 -27q8 -45 57 -45
q15 0 29 4.5t26.5 14.5t21.5 18.5t20 24.5t16 23.5t14.5 24.5t11.5 20q7 12 11 0q6 -17 -10 -47q-7 -13 -14.5 -26t-26 -38t-43.5 -40t-51 -15q-78 1 -95 72zM431 180q6 9 10.5 23t2.5 27.5t-14 15.5q-13 2 -31 -36t-20 -77q32 11 52 47zM396 323q31 35 48 49q16 17 26 1
q6 -9 24 -45q6 -10 -7 -23t-25 8q-7 12 -16 25q-3 -3 -16 -15.5t-18 -17.5q-4 -3 -10 -0.5t-8 7.5t2 11z" />
    <glyph glyph-name="w_edieresis" unicode="w&#xeb;" horiz-adv-x="549" 
d="M345 90q-48 -7 -86 11q-32 -76 -75 -76q-18 0 -32 11.5t-20 23.5l-5 11q-1 -2 -3 -5.5t-8.5 -12t-13.5 -15t-18 -12t-22 -5.5q-31 0 -47 30t-15 64t2 59q3 28 10 41.5t14 13t15 -2.5q6 -3 6 -9t-2.5 -11t-3.5 -5q-5 -37 -6 -59q-4 -86 32 -93q20 -4 37.5 34t15.5 80
q-2 49 24 47q18 -2 21 -33q0 -30 -8 -51q-3 -10 1 -42.5t22 -33.5q26 0 58 75q-13 28 -11 63q1 23 13 51t23 27q19 -1 22.5 -33t-2.5 -64.5t-13 -40.5q24 -17 71 -8q-1 13 0 25q2 48 35 97.5t70 29.5q24 -12 27 -40t-9.5 -55.5t-36.5 -50.5t-49 -27q8 -45 57 -45
q15 0 29 4.5t26.5 14.5t21.5 18.5t20 24.5t16 23.5t14.5 24.5t11.5 20q7 12 11 0q6 -17 -10 -47q-7 -13 -14.5 -26t-26 -38t-43.5 -40t-51 -15q-78 1 -95 72zM431 180q6 9 10.5 23t2.5 27.5t-14 15.5q-13 2 -31 -36t-20 -77q32 11 52 47zM419 364q23 -3 21 -38
q-2 -11 -10.5 -17t-19.5 -5q-25 4 -22 29q0 10 8.5 21.5t22.5 9.5zM511 364q23 -2 23 -32q-1 -15 -12.5 -23t-21.5 -7q-21 4 -21 27q1 10 10 23t22 12z" />
    <glyph glyph-name=".notdef" horiz-adv-x="140" 
 />
    <glyph glyph-name=".null" horiz-adv-x="0" 
 />
    <glyph glyph-name="nonmarkingreturn" horiz-adv-x="333" 
 />
    <glyph glyph-name="HT" unicode="&#x9;" horiz-adv-x="0" 
 />
    <glyph glyph-name="LF" unicode="&#xa;" horiz-adv-x="0" 
 />
    <glyph glyph-name="CR" unicode="&#xd;" horiz-adv-x="0" 
 />
    <glyph glyph-name="DLE" horiz-adv-x="0" 
 />
    <glyph glyph-name="DC1" horiz-adv-x="0" 
 />
    <glyph glyph-name="DC2" horiz-adv-x="0" 
 />
    <glyph glyph-name="DC3" horiz-adv-x="0" 
 />
    <glyph glyph-name="DC4" horiz-adv-x="0" 
 />
    <glyph glyph-name="RS" horiz-adv-x="0" 
 />
    <glyph glyph-name="US" horiz-adv-x="0" 
 />
    <glyph glyph-name="space" unicode=" " horiz-adv-x="140" 
 />
    <glyph glyph-name="exclam" unicode="!" horiz-adv-x="115" 
d="M40 62l-1 -1q13 -1 21 -10.5t8 -19.5q-1 -9 -9 -18t-20 -8q-15 1 -22 6t-6 20q1 11 9 21.5t20 9.5zM56 154v-1v-5.5v-7.5t-0.5 -7.5t-2.5 -6.5t-5 -3.5t-8 -0.5q-20 5 -18 27q1 19 12 212q3 66 25 206q4 29 14 40t20 10q7 -1 10 -15.5t1 -32.5q0 -3 -12 -76.5t-17 -119.5
q-19 -161 -19 -219z" />
    <glyph glyph-name="quotedbl" unicode="&#x22;" horiz-adv-x="143" 
d="M91 462q-6 36 -10 88q-1 16 3 18.5t18 -3.5q17 -6 17 -27q-2 -37 -1 -66q1 -16 -1.5 -19t-14.5 -5q-11 -1 -11 14zM41 468q0 2 -2 19.5t-4 37.5t-2 25q-2 16 1 18t19 -3q17 -4 17 -22v-20v-29.5v-25.5q1 -10 -1 -13.5t-4.5 -4.5t-11.5 -2q-7 -1 -12 20z" />
    <glyph glyph-name="numbersign" unicode="#" horiz-adv-x="373" 
d="M192 137v1q-8 60 -37.5 91.5t-60.5 33.5q-27 2 -47 -11t-22 -37q-4 -41 46 -64.5t121 -13.5zM252 277l1 -1q10 22 25 17q9 -3 9.5 -14.5t-4.5 -20.5q-29 -56 -46 -113q65 12 103 13q34 0 42 -14q3 -6 -4 -11q-5 -2 -7.5 -2t-10 1.5t-12.5 1.5q-24 -1 -117 -15
q-7 -29 -16 -99q-1 -7 -1.5 -9t-2.5 -7t-5 -7t-7 -1q-12 1 -12 26t4 45q0 4 1.5 20t1.5 24q-30 -3 -61 -2q-52 1 -97 27t-44 76q0 33 31.5 55t60.5 19q109 -8 129 -115q11 44 39 106z" />
    <glyph glyph-name="dollar" unicode="$" horiz-adv-x="250" 
d="M116 645q1 10 5 14.5t10 3.5q9 0 10 -10q2 -14 -1 -48q-2 -30 0 -49q36 9 68 8q11 0 20 -4t7 -11q-5 -13 -21 -10q-43 5 -98.5 -14.5t-61.5 -50.5q-2 -9 2.5 -16t18 -12t20 -6.5t23.5 -5.5q21 -5 26.5 -6.5t22.5 -6.5t22.5 -9.5t14.5 -11.5t11.5 -16t1.5 -21
q-2 -27 -23 -43t-51 -19q0 -2 1 -4q-4 -13 -4 -80v-6.5t-2.5 -4.5t-7.5 1q-10 3 -13 30q-1 7 -1 62q-62 0 -97 24q-6 5 2 11q6 6 16 2q41 -15 86 -16q24 -1 45 11.5t23 30.5q2 20 -24.5 32.5t-59 17.5t-59 20.5t-23.5 40.5q5 48 87 74q0 8 1 31.5t2 42.5t1 24z" />
    <glyph glyph-name="percent" unicode="%" horiz-adv-x="359" 
d="M310 509q10 -11 -14 -48q-27 -41 -107 -172t-122 -193q-2 -3 -9 0t-11.5 9t-1.5 12q33 59 107 176t104 167q-42 -25 -81 -29q-1 -2 -2 -5.5t-1 -5.5q-8 -31 -30.5 -56t-48.5 -22q-37 4 -45 45.5t7.5 82.5t36.5 46q1 12 11 21t26 10q20 1 37.5 -18.5t12.5 -70.5
q28 5 60 21t44 27q6 10 11 13t7 2t5 -6t4 -6zM314 171q-7 -41 -29.5 -67t-50.5 -23q-32 3 -42.5 38t2.5 80q8 30 28 60t47 28q13 -1 25 -10.5t20.5 -35t-0.5 -70.5zM154 456q2 28 -4.5 46t-18.5 17q-11 -1 -13 -18t9 -32q9 -11 27 -13zM149 432q-35 5 -52 44q-2 -1 -6 -6.5
t-9.5 -20t-7.5 -32.5q-2 -16 3.5 -33.5t23.5 -18.5q16 -1 30 23t18 44zM291 177q7 30 1 56t-20 26q-17 1 -29.5 -18t-21.5 -54q-9 -30 -4 -55.5t24 -26.5q14 -2 28.5 19.5t21.5 52.5z" />
    <glyph glyph-name="ampersand" unicode="&#x26;" horiz-adv-x="613" 
d="M277 125h1q-1 0 -6 -2.5t-8 -3t-5 0.5q-4 5 -1 16t8 13q27 13 70 26q-92 70 -129 117q-166 -78 -172 -172q-1 -30 12.5 -51t40 -32t51.5 -15.5t60 -7.5q42 -3 106.5 9t118.5 37q15 6 39 20q-17 12 -97 71q-26 -5 -55 -15t-34 -11zM218 333h-1q20 10 54 25.5t53 24.5
t44 23t39 26t24.5 28t12.5 34q3 28 -20.5 46.5t-59.5 20.5q-65 4 -116 -33.5t-56 -92.5q-5 -54 26 -102zM499 101h-1q26 17 43 30.5t16 19.5q-4 18 -53 14q-45 -1 -96 -7q35 -24 91 -57zM596 43h-1q15 -9 4 -21q-14 -12 -40 1q-41 21 -66 38q-62 -37 -138.5 -60.5
t-141.5 -20.5q-38 2 -70 8.5t-67 21t-55 45.5t-19 74q2 94 185 190q-33 54 -30 109q5 75 74.5 121t138.5 39q45 -5 77 -31.5t30 -63.5q-1 -13 -5.5 -25.5t-10.5 -23t-18 -22t-21 -19.5t-26.5 -18.5t-28 -17t-31.5 -16.5t-32 -15t-34 -16t-33 -15q10 -11 23.5 -24t23 -21.5
t28.5 -24.5t26 -22q18 -17 36 -30q46 7 112 11q96 7 98 -36q2 -32 -57 -74q62 -37 69 -41z" />
    <glyph glyph-name="quotesingle" unicode="'" horiz-adv-x="94" 
d="M61 584q9 12 11.5 12.5t13.5 -9.5q6 -7 6 -14.5t-2 -10.5l-3 -4q-40 -84 -49 -104q-14 -30 -27 -20q-10 8 -7 24q45 111 56 126h1z" />
    <glyph glyph-name="parenleft" unicode="(" horiz-adv-x="142" 
d="M102 667q5 10 18 6q7 -1 11 -18.5t0 -24.5q-27 -59 -55.5 -170t-29.5 -171q-2 -109 10 -181t51 -158q4 -7 -7 -15q-7 -5 -15.5 0t-13.5 13q-67 117 -62 343q2 105 31.5 214.5t61.5 161.5z" />
    <glyph glyph-name="parenright" unicode=")" horiz-adv-x="119" 
d="M18 648q-6 19 4 27q8 7 19.5 1t13.5 -17q5 -20 15 -62t12.5 -54.5t9 -43t8 -43t4.5 -37t3 -42v-41.5t-2 -52q-13 -201 -77 -331q-13 -26 -21 -11q-7 11 -1 24q52 125 61 310q9 195 -49 372z" />
    <glyph glyph-name="asterisk" unicode="*" horiz-adv-x="190" 
d="M154 358q-4 2 -37 23q2 -40 -1 -50q-2 -6 -9 -7.5t-13 0.5t-6 6q0 31 -1 54q-31 -26 -35 -27q-2 -1 -4.5 -3t-4 -3t-3.5 -1.5t-5 0t-7 1.5q-14 5 -5 13q18 18 50 46q-34 23 -48 31q-5 4 -4 8.5t5 8t6 2.5l8 -4q8 -4 20.5 -10.5t24.5 -12.5q-2 54 -2 58q0 3 2.5 5t5.5 2
t6.5 -1t6 -2t2.5 -2t1 -7.5t2.5 -20t2.5 -23.5q25 19 42 29q8 5 13 -0.5t5 -12.5t-1 -9q-9 -6 -47 -36q6 -3 45 -32q9 -6 2 -16.5t-17 -6.5z" />
    <glyph glyph-name="plus" unicode="+" horiz-adv-x="260" 
d="M160 131q-2 -8 -6.5 -13t-6.5 -6t-9 -3q-8 -2 -11.5 2.5t-2.5 18.5q1 9 -1 69q-72 -4 -77 -3h-6h-5.5t-4.5 0.5t-4.5 2t-4 3.5t-5.5 6q-5 6 -4 10t3.5 5.5t5.5 1.5q62 12 100 14q-4 67 -3 71v6v5.5t0.5 4.5t2 4.5t3.5 4t6 5.5q6 5 10 4t5.5 -3.5t1.5 -5.5q12 -59 15 -94
q54 0 63 -3q8 -2 13 -6.5t6 -6.5t3 -9q2 -8 -2.5 -11.5t-18.5 -2.5q-8 1 -64 -1q2 -57 -2 -70z" />
    <glyph glyph-name="comma" unicode="," horiz-adv-x="78" 
d="M38 58q11 15 24 -7q1 -1 1 -2q6 -10 -6 -29q-2 -4 -35.5 -48t-37.5 -50q-13 -21 -30 -7q-7 6 -5.5 16t8.5 18q4 5 23 31t38 51.5t19 26.5h1z" />
    <glyph glyph-name="hyphen" unicode="-" horiz-adv-x="255" 
d="M225 238q16 -5 22 -23q2 -7 -2.5 -10.5t-18.5 -2.5q-14 2 -95.5 -2t-85.5 -4q-6 -1 -10.5 -1t-9 3t-9.5 10q-11 15 6 18q94 19 203 12z" />
    <glyph glyph-name="period" unicode="." horiz-adv-x="76" 
d="M41 62q26 -2 26 -27q0 -12 -10.5 -19.5t-23.5 -6.5q-10 0 -16.5 7.5t-6.5 18.5q0 12 9.5 20.5t21.5 7.5v-1z" />
    <glyph glyph-name="slash" unicode="/" horiz-adv-x="420" 
d="M92 11q-17 -29 -39 -33q-11 -2 -9 10q2 11 14 35q13 26 136 320.5t128 304.5q3 5 6.5 13.5t5.5 12t5.5 8.5t8 9t11.5 8q13 9 14.5 -1t-3.5 -18q-20 -48 -86 -215t-112 -277t-80 -178v1z" />
    <glyph glyph-name="zero" unicode="0" horiz-adv-x="548" 
d="M241 -16q-47 2 -91 22t-79.5 56t-54.5 94.5t-13 131.5q11 141 91.5 231t193.5 113q8 2 18 -2t9 -13q0 -3 -2 -5.5t-5.5 -4t-7 -2l-7 -1t-4.5 -0.5q-95 -15 -170 -115t-74 -210q4 -232 198 -258q39 -5 82.5 11t83 49.5t67.5 93t33 132.5q3 41 -5 86.5t-26 87t-52 68.5
t-77 27q-29 0 -56 -11t-42 -23t-44 -37q-7 -7 -18.5 -4t-1.5 18q59 83 155 87q64 2 113.5 -43.5t72.5 -116.5t17 -147q-10 -146 -102 -232.5t-202 -82.5z" />
    <glyph glyph-name="one" unicode="1" horiz-adv-x="124" 
d="M63 569q4 12 15 17t20 1.5t10 -10.5q-25 -119 -40 -313q-4 -50 -5 -112t1 -99l1 -37q0 -7 -13 -6q-17 3 -16 22q0 5 0.5 74t4.5 158t13 187q-2 1 -8 4.5t-8.5 5.5t-4 7t-0.5 11z" />
    <glyph glyph-name="two" unicode="2" horiz-adv-x="472" 
d="M5 26h1q-1 17 6.5 27.5t38 17.5t87.5 6q6 1 35 22t71 61.5t82.5 89.5t70.5 114.5t34 128.5q1 25 -28.5 58t-74.5 32q-51 -1 -93 -17t-66.5 -38t-41.5 -49t-23.5 -46.5t-7.5 -32.5q-3 -46 45 -47q21 0 44.5 17.5t36.5 35.5l13 17q6 10 16 6q12 -4 3 -23q-1 -1 -5 -8
t-6.5 -11t-8.5 -12t-11 -13.5t-12.5 -12.5t-15.5 -12t-17.5 -9t-20.5 -6t-23 -2q-37 1 -55.5 27.5t-16.5 55.5q2 31 24.5 69t56.5 71.5t83.5 55t99.5 18.5q42 -3 71.5 -18t42.5 -31t20 -40t7.5 -31t0.5 -17q-3 -62 -36 -129t-81.5 -121.5t-89.5 -91.5t-76 -63
q54 3 121.5 -15t107.5 -38l41 -19q11 -17 3.5 -25t-20.5 -1q-129 51 -186 60q-50 8 -114 8q-112 -55 -130 -27q-3 3 -3 8z" />
    <glyph glyph-name="three" unicode="3" horiz-adv-x="468" 
d="M251 331q-45 0 -58 -17q-9 -11 13 -14q12 -2 31 1q44 6 77 21q-31 9 -63 9zM84 415q-1 -20 -13 -20t-14 15q-1 4 0 8q7 48 30.5 84.5t50.5 56t62 33t56.5 17t42.5 5.5q71 6 119.5 -30t47.5 -105q0 -79 -88 -147q49 -27 73.5 -70t21.5 -85q-6 -89 -82.5 -141.5
t-175.5 -47.5q-24 1 -47 4.5t-40.5 7.5t-34 9.5t-28.5 11t-22 11t-17 10t-12 8.5t-8 6l-2 2q-7 11 -1.5 23t12.5 12q3 0 3.5 -1.5t2 -5.5t5.5 -8q8 -6 21.5 -15t58 -24t89.5 -15q57 -1 102.5 12.5t71 33t42.5 43t22.5 39.5t5.5 25q2 92 -93 133q-79 -48 -140 -46
q-37 1 -53.5 19t-6.5 38q23 41 115 40q44 0 90 -16q39 30 56.5 67.5t18.5 61.5q4 62 -31.5 84.5t-98.5 17.5q-80 -5 -139.5 -45.5t-72.5 -115.5z" />
    <glyph glyph-name="four" unicode="4" horiz-adv-x="453" 
d="M365 547q2 13 -2.5 15.5t-10 -0.5t-5.5 -4q-63 -41 -102 -78t-95 -105q-20 -25 -46 -64.5t-41 -59.5q-19 -30 -13 -40t32 -13q44 -4 223 -11q5 37 28.5 172t31.5 188zM431 180q21 -2 39.5 -11t16.5 -20q-1 -9 -14.5 -10t-35.5 2q-45 6 -95 9q-9 -82 1 -156q1 -12 -15 -6
q-22 11 -24 29l-2 136q-40 2 -117 3.5t-100 3.5q-45 4 -64 30t-6 55q50 83 96 139q73 87 206 204q40 33 72 13.5t25 -53.5q-4 -21 -18.5 -87t-24.5 -118.5t-17 -102.5q-1 -10 -7 -54q37 -2 84 -6z" />
    <glyph glyph-name="five" unicode="5" horiz-adv-x="451" 
d="M143 591q9 3 36 6.5t81 5.5t111 0q11 0 16 -3t4.5 -7t-0.5 -8q-2 -6 -10 -11.5t-17 -6.5q-5 -1 -102 -4t-106 -5q-8 -1 -12.5 -2t-7.5 -4t-4 -4.5t-2.5 -7t-2.5 -8.5q-9 -23 -20 -81q-18 -97 -10 -101q6 0 17 9q70 47 145 44q54 -2 92.5 -25.5t54.5 -56.5t22 -60t4 -46
q-7 -60 -31.5 -105.5t-55 -70t-67 -39.5t-63.5 -19t-50 -3q-112 4 -155 42q-3 4 -3 11.5t5 12.5t12 1q52 -31 136 -30q33 0 68 9.5t72.5 30t64 62.5t32.5 99q1 12 -2 32t-13.5 49.5t-42 50.5t-78.5 22q-86 2 -153 -55q-11 -11 -32.5 -5t-20.5 29t6 57.5t10 62t10.5 54.5
t6.5 30q3 16 5 23.5t7 12t7.5 5t14.5 3t21 4.5z" />
    <glyph glyph-name="six" unicode="6" horiz-adv-x="496" 
d="M214 17q87 -4 152.5 63t67.5 156q2 58 -30 97t-96 43q-90 5 -167 -56t-81 -140q0 -8 -7 -13q9 -65 48.5 -105.5t112.5 -44.5zM446 596q4 -1 7 -2.5t4.5 -3.5t2.5 -3.5t1 -4v-4t-2 -5t-2 -4t-3 -4.5l-2 -4q-13 -22 -33 -11q-13 7 -36 8t-54 -5t-71.5 -26t-80.5 -51
q-53 -41 -84 -102.5t-39 -121.5q32 68 103.5 116.5t140.5 44.5q86 -6 132 -60t43 -117q-7 -103 -90.5 -178.5t-176.5 -68.5q-92 7 -144.5 69.5t-49.5 151.5q7 205 175 322q46 31 121 55.5t138 8.5z" />
    <glyph glyph-name="seven" unicode="7" horiz-adv-x="424" 
d="M217 599h1q29 0 78.5 -2t72 -3t47.5 2q3 0 8.5 2t8.5 2.5t7 -2t6 -8.5q3 -7 -0.5 -15t-11 -16.5t-7.5 -9.5q-10 -12 -21.5 -27t-20.5 -27.5t-22.5 -33.5t-21 -32.5t-23.5 -37.5t-22 -36t-25 -40.5t-24 -39.5q-84 -142 -112 -266q4 -9 -9 -11q-20 -1 -26 18q-5 23 30 111
t82 173q76 138 154 243q12 16 -10 14q-2 0 -25 1t-54 2t-54 1q-86 -1 -121.5 -11t-62.5 -51q-1 -3 -2 -8.5t-1.5 -7.5t-2 -6t-2.5 -5.5t-2.5 -4t-3.5 -3.5t-4.5 -1.5t-6.5 -0.5q-8 0 -11.5 6.5t-2.5 17.5t3.5 24t7 27t8.5 25t8 20.5t4 10.5q4 13 11 -1q5 -12 6 -34
q62 41 169 41z" />
    <glyph glyph-name="eight" unicode="8" horiz-adv-x="513" 
d="M437 555v-1q-37 35 -69.5 46t-94.5 15q-55 4 -110 -27t-57 -66q-1 -33 27.5 -56.5t80.5 -46.5q114 82 223 136zM209 371q-65 -48 -116 -109.5t-53 -117.5q-3 -65 46.5 -95.5t121.5 -33.5q78 -3 147 45.5t73 107.5q4 54 -44 102.5t-118 76.5zM459 173q-1 -51 -32 -92
t-75 -63t-87 -32.5t-73 -7.5q-98 10 -147 55.5t-49 114.5q-1 104 177 241q-115 62 -110 120q7 63 73 104t143 37q119 -7 190 -82q63 28 98 33q19 3 22 -12q2 -16 -21 -25q-42 -15 -72 -27q8 -14 11 -21v-1q0 -13 -13 -21q-17 -7 -25 1q-3 3 1 10t-2 17l-2 3
q-37 -16 -66.5 -31.5t-45 -25.5t-48.5 -32t-53 -35q48 -24 78 -42t63 -46t49 -63t16 -77z" />
    <glyph glyph-name="nine" unicode="9" horiz-adv-x="463" 
d="M352 294v-1q2 14 2 21q15 88 49 229q-36 34 -118 40q-11 3 -31.5 0.5t-44 -4.5t-49.5 -16.5t-48 -34.5t-39.5 -57.5t-24.5 -87.5q-8 -59 20.5 -105.5t99.5 -47.5q109 -1 184 64zM416 598l1 6h1q0 2 1 4.5t6.5 6.5t15.5 -2q16 -7 17.5 -13t-3.5 -16q-10 -27 -15.5 -44.5
t-10.5 -41t-7.5 -39t-9 -60t-12.5 -83.5q-34 -209 -21 -310q2 -17 -7.5 -19t-17.5 4q-17 8 -18 32q0 126 11 224q-96 -55 -175 -50q-43 3 -82.5 23t-66.5 62.5t-22 97.5q11 115 85.5 179t195.5 60q87 -4 134 -21z" />
    <glyph glyph-name="colon" unicode=":" horiz-adv-x="80" 
d="M45 71q25 -2 25 -33q-1 -7 -10.5 -14.5t-20.5 -6.5q-10 0 -17 7.5t-8 14.5q0 9 8.5 21t22.5 11zM40 225h1q12 0 18.5 -8.5t6.5 -17.5t-8 -18.5t-20 -9.5q-13 1 -19.5 9t-6.5 17q1 9 8.5 18.5t19.5 9.5z" />
    <glyph glyph-name="semicolon" unicode=";" horiz-adv-x="83" 
d="M39 235h-1q14 -1 22 -10t8 -19q-1 -7 -11 -15.5t-20 -8.5q-10 -1 -19.5 7t-9.5 17q8 31 31 29zM37 50q3 3 5.5 4t5 0t3.5 -2.5t4 -4.5l4 -4q6 -7 -2 -24q-3 -8 -34.5 -52.5t-37.5 -51.5q-10 -9 -23 2q-11 10 2 31q2 5 34 50.5t39 51.5z" />
    <glyph glyph-name="less" unicode="&#x3c;" horiz-adv-x="327" 
d="M275 141q15 -8 17 -27q2 -17 -24 -8q-10 4 -57 12.5t-94 16.5t-51 9q-22 4 -30 8q-16 7 -4 19q79 64 196 118q15 3 30 -10q12 -12 -12 -21q-15 -6 -144 -83q79 -7 173 -34z" />
    <glyph glyph-name="equal" unicode="=" horiz-adv-x="260" 
d="M226 238h-1q16 -5 22 -23q2 -7 -2.5 -10.5t-18.5 -2.5q-14 2 -95.5 -2t-85.5 -4q-6 -1 -10.5 -1t-9 3t-9.5 10q-11 15 6 18q62 12 100 14q84 3 104 -2zM227 148h-1q18 -5 21 -15q3 -8 -3 -13.5t-20 -4.5q-15 1 -89.5 -4t-76.5 -5q-3 0 -7.5 0.5t-6 1t-5 1.5t-6 4t-5.5 7
q-10 16 7 19q1 0 13 2t33 4.5t41 3.5q89 3 105 -1z" />
    <glyph glyph-name="greater" unicode="&#x3e;" horiz-adv-x="327" 
d="M48 269q-13 10 -11 30q0 16 24 4q10 -5 54.5 -21.5t90.5 -32.5t48 -17q24 -10 29 -13q13 -9 0 -19q-88 -51 -212 -84q-17 -1 -28 14q-10 14 15 19q12 3 156 58q-74 19 -166 62z" />
    <glyph glyph-name="question" unicode="?" horiz-adv-x="449" 
d="M8 459v-1q121 141 300 148q55 2 95 -34t39 -91q0 -32 -15.5 -59.5t-44.5 -49t-49.5 -33t-51.5 -26.5q-11 -5 -32 -14.5t-32 -15t-27 -15.5t-24.5 -19.5t-16 -24t-10.5 -31.5q-2 -16 5 -25.5t6 -11.5q-6 -10 -23 -3q-19 10 -17 55q2 30 26.5 56.5t50 40.5t72.5 35
q58 26 103.5 66t46.5 87q1 38 -27.5 57.5t-67.5 18.5q-49 -1 -88.5 -11t-73 -30.5t-55 -38t-54.5 -48.5q-4 -4 -12.5 -15t-14.5 -16t-11 -3q-12 6 -10 22.5t13 29.5zM139 69q26 -7 24 -32q-3 -23 -26 -23q-10 0 -19 9t-8 23q1 9 12 16.5t17 6.5z" />
    <glyph glyph-name="at" unicode="@" horiz-adv-x="659" 
d="M435 134q-27 1 -41.5 29.5t-12.5 57.5q-44 -81 -90 -76q-13 1 -24.5 10t-21.5 35t2 71q14 63 52.5 96t67.5 29q26 -4 38 -19t10 -27t-1 -16q-7 -17 -15 -18.5t-12 4.5q0 2 0.5 4.5t0.5 10t-2 13.5t-7.5 11.5t-15.5 6.5q-21 2 -42.5 -22.5t-33.5 -59.5q-12 -34 -9 -63.5
t20 -31.5q24 -2 49.5 42t34.5 76q3 4 11.5 3.5t17 -7t7.5 -13.5q-4 -11 -6 -29.5t0 -38.5t12 -34t26 -14q40 0 78 64q48 79 39 161q-11 106 -122 131q-31 7 -69 7q-131 0 -225 -101.5t-78 -230.5q11 -87 79.5 -131t153.5 -44q96 0 183 47.5t121 132.5q8 20 20 -2
q13 -25 6 -39q-24 -57 -85.5 -97.5t-126 -57t-123.5 -16.5q-110 0 -184.5 51.5t-88.5 157.5q-12 94 36.5 177.5t132.5 131.5t177 48q164 0 212 -111q35 -82 -5 -183q-34 -84 -94 -115q-26 -13 -52 -11z" />
    <glyph glyph-name="A" unicode="A" horiz-adv-x="735" 
d="M576 235q-16 70 -31 149t-23 124l-7 44l-182 -331q49 7 79 8q151 6 164 6zM74 36q81 1 178 138q-19 -3 -41 -7t-31.5 -5.5t-10.5 -1.5q-27 -4 -31 9q-4 4 -1 8t2 5.5t3.5 4t5 2.5t6.5 1l5 2q57 11 121 21q11 17 29 45.5t23 36.5q28 44 66.5 119t63.5 128l24 52l3 13
q3 13 11 17.5t28 4.5q30 -1 36 -10t7 -46v-10q3 -154 49 -327q47 0 57 -1q28 -2 9 -20q-15 -13 -29 -15l-26 -2q44 -151 93 -237q7 -7 -11 -15q-25 -9 -38 6q-42 47 -91 246q-34 -1 -148 -5q-44 -1 -127 -11q-20 -29 -42 -56t-54 -59t-68.5 -51t-69.5 -17q-31 2 -55 15
t-36.5 31t-20.5 36t-10 30l-2 12q-1 18 13 18q7 0 11.5 -3t5.5 -6l1 -3q0 -4 1.5 -10t7.5 -22.5t15 -28.5t27 -22t41 -10z" />
    <glyph glyph-name="B" unicode="B" horiz-adv-x="693" 
d="M122 24q132 0 220 20q51 12 86 21.5t77.5 25.5t68.5 33t46 42t23 55q4 36 -41.5 62.5t-115 39.5t-154.5 16q-99 -22 -171 -25q-13 -1 -35 -1q-12 -143 -4 -289zM689 213q5 -61 -82.5 -116.5t-228 -88t-287.5 -31.5q-35 0 -58.5 7.5t-32 16.5t-7.5 18q0 6 4 11.5t8 7.5
l4 2q0 -9 9 -12q6 -2 55 -4q0 153 9 290q-31 3 -29 10q2 14 32 28q5 70 13.5 142t8.5 86q-120 -18 -214 -56q-6 -2 -8 -5.5t-1 -5.5l2 -2h-4.5t-7.5 5t-7 15t3 17t10 10l6 2q17 8 49.5 19.5t140.5 34.5t226 29q94 5 164.5 -5t107 -30t53 -42.5t15.5 -46.5q-3 -53 -69 -93.5
t-141 -60.5q12 0 46 -7t82.5 -21.5t86.5 -47.5t42 -76zM603 516q-6 40 -91 64.5t-198 19.5q-81 -4 -146 -12q-23 -89 -38 -222q12 2 33 4q94 9 181 4q41 12 80 25.5t84.5 32.5t71.5 41.5t23 42.5z" />
    <glyph glyph-name="C" unicode="C" horiz-adv-x="707" 
d="M456 346q-2 4 -3 6.5t0 5t1.5 3.5t3.5 2.5l5 2.5t7 2.5t8 2.5q12 5 29 14t49 29t54 49.5t23 61.5q0 2 0.5 3.5t0 5.5t-2 8t-5 9t-9 9t-14.5 9t-21 8t-29 5.5t-37 3.5q-117 4 -229 -51.5t-180 -144.5t-71 -181q0 -52 4 -72q24 -127 158 -150q22 -4 46 -5q65 -2 133 12.5
t118.5 37.5t92 46t62.5 40l22 16q9 8 14 -2q0 -21 -32 -48q-6 -5 -26 -19t-61 -36t-87 -40.5t-106.5 -31t-116.5 -10.5q-121 5 -193.5 69.5t-67.5 193.5q3 75 48.5 152t116 135t165 93.5t188.5 31.5q12 0 30 -2t51 -10t55 -29.5t22 -53.5t-21 -65t-53.5 -58t-51 -37.5
t-31.5 -19.5q-8 -5 -19 -9t-23 -3t-17 11z" />
    <glyph glyph-name="D" unicode="D" horiz-adv-x="648" 
d="M115 35q-20 82 -4 234q14 129 40 298q-43 -14 -79 -29t-51.5 -23.5t-20.5 -12.5q-4 -3 -9.5 -8.5l-8 -8t-6.5 -3.5t-8 3t-9 13q-5 5 -2 12t6 11t10.5 9.5t12.5 8t11.5 6t7.5 3.5l3 1q154 81 336 93q40 2 79 1q72 -3 123.5 -19.5t76.5 -37t39 -50t16 -48t2 -40.5
q-1 -56 -25 -110.5t-61 -96t-63 -65t-52 -42.5q-159 -117 -401 -133q-10 -1 -16.5 3t-8.5 8.5t-1 4.5l-1 -1q-6 6 -1 13q4 6 15 5q26 -2 50 1zM158 353q-21 -238 0 -313q58 11 120.5 33.5t126.5 60t115.5 84t85.5 109t38 130.5q4 71 -57.5 109.5t-166.5 40.5
q-112 3 -226 -26q-20 -49 -36 -228z" />
    <glyph glyph-name="E" unicode="E" horiz-adv-x="740" 
d="M594 652q39 -2 67 -10t41.5 -19t18.5 -21t5 -19q-2 -48 -115 -86q-24 -7 -39 16q-3 5 6 8.5t23 6.5q26 7 46.5 18.5t29 20t8.5 13.5q0 30 -108 34q-106 4 -225.5 -27.5t-196 -75.5t-77.5 -78q-1 -33 49.5 -48t130.5 -19q99 38 201 51q130 19 129 -8q-1 -18 -55 -35
t-83 -19q-106 -10 -160 -11q-67 -20 -119 -51.5t-78 -62.5t-39 -55.5t-13 -39.5q0 -16 8.5 -34.5t31.5 -42.5t75 -40t126 -18q105 -3 210 20t148 41t54 25q22 14 22 6q0 -4 -9 -13q-6 -5 -17.5 -14t-52.5 -30.5t-87 -37.5t-120 -28t-154 -9q-43 2 -87 11t-89 27.5t-73 53.5
t-26 81q2 58 58 113.5t148 98.5q-165 9 -162 87q2 58 96 112t221.5 83t231.5 25z" />
    <glyph glyph-name="F" unicode="F" horiz-adv-x="456" 
d="M216 567q-93 -7 -138 -11q-43 -4 -71 -2.5t-41.5 7t-12.5 14.5q1 5 2.5 8t5.5 4t6.5 1.5t9 0t8.5 -0.5q63 2 238 18q3 11 8 17t11 5q11 -1 13 -20q130 12 176 13.5t198 -2.5q20 -1 33 -9t12 -19q0 -6 -12 -8.5t-24 -1.5l-11 1h-150q-32 0 -219 -11q0 -18 -8.5 -118.5
t-10.5 -139.5q15 1 30 1h28.5h26h23t20 -0.5t16.5 -1t12 -1t8 -0.5h3h5.5t12 -1t15.5 -3t12 -6t5 -10q-1 -12 -43 -12q-115 -2 -175 -4q-4 -75 -5 -95q-5 -76 6 -150q1 -3 3 -10t2 -8.5t-2 -6.5q-3 -2 -9 -2.5t-15 4t-16.5 15t-12.5 33.5t-4 55q2 41 5 163q-73 -5 -129 -11
q-4 0 -14 -1.5t-14 -1.5t-10 0.5t-8.5 3t-3.5 7.5q-4 17 17 19q20 3 44 7t35.5 6t33.5 4t52 4q9 85 23 257z" />
    <glyph glyph-name="G" unicode="G" horiz-adv-x="734" 
d="M681 280q-5 -57 -58.5 -123t-144.5 -113.5t-186 -44.5q-124 5 -206.5 67t-78.5 172q3 81 62.5 163t145.5 140t186.5 93.5t184.5 32.5q66 -2 92 -28t25 -53q-1 -34 -20 -62t-44.5 -44t-51 -27.5t-43.5 -15.5l-17 -4q-1 0 -3 -0.5t-6.5 -1t-8 0t-6 3.5t-2.5 7q0 6 6.5 10.5
t12.5 5.5l6 1q6 2 15.5 5.5t34 15t43.5 24t35 31.5t17 39q2 53 -81 57q-48 2 -115.5 -15t-140.5 -52.5t-136 -82t-105 -111.5t-45 -134q-4 -99 48 -150t183 -48q79 1 143.5 21t103.5 47.5t65.5 61t37 60t10.5 46.5q-153 -22 -164 -23q-8 -1 -34.5 -3.5t-38.5 -3.5t-37 -3
t-39 -2.5t-35 -1.5t-34.5 -1t-28.5 0.5t-25.5 2t-17.5 4.5q-12 5 -15.5 11t2.5 9.5t18 2.5q54 -1 91 2q41 3 153 17.5t156 18.5t82.5 5t55.5 1l16 -1h3t7.5 -0.5t9.5 -1.5t7 -3.5t3 -6.5q-1 -9 -13.5 -11.5t-44.5 -2.5q-14 0 -35 -3z" />
    <glyph glyph-name="H" unicode="H" horiz-adv-x="539" 
d="M420 316q-42 -1 -84 -4t-105.5 -10t-103.5 -21.5t-42 -34.5q-2 -18 36 -64.5t88 -80.5q54 -37 105.5 -52.5t77.5 -1.5q24 13 28.5 120t-0.5 149zM54 602q6 67 49 34q9 -6 1 -27q-4 -9 -18 -97t-21 -153q-3 -29 -6 -76q37 29 152 46t209 19q2 56 12 148t16 114
q7 31 20 47.5t28 7.5q9 -4 10.5 -10.5t-0.5 -11.5l-3 -5q-9 -25 -21 -85q-11 -60 -18 -204q6 0 25.5 -1t39.5 -2q21 0 23 -10v-5q0 -6 -2 -9t-4 -3.5t-7 -0.5h-1.5h-1.5q-30 -1 -46.5 -1.5t-26.5 -0.5q0 -97 -4 -156q-4 -71 -30.5 -109t-57.5 -40q-85 -2 -184 61
q-98 62 -131 148q-2 -28 -3.5 -58t-2.5 -52t-1 -27q0 -13 2 -24.5t4.5 -19.5t2.5 -11q0 -15 -27 -3q-8 4 -12 10t-4 10v4q-10 166 6 297q26 228 33 256z" />
    <glyph glyph-name="I" unicode="I" horiz-adv-x="612" 
d="M628 424q-4 -112 -64 -211.5t-161 -159t-216 -55.5q-55 2 -96.5 14.5t-63 27.5t-35 35t-16.5 33t-3 25q0 8 2.5 16t5.5 14t6 10.5t5 6.5l3 3q1 2 3 3.5t8.5 4.5t12.5 -2q4 -2 5.5 -4.5t0.5 -5.5t-2 -5t-3.5 -5t-2.5 -4q-2 -5 -3.5 -9.5t-3.5 -18.5t0.5 -25t13 -26
t29 -25.5t53 -18.5t81.5 -10q86 -3 162.5 31.5t127.5 92.5t81 128t33 139q2 44 -10.5 78.5t-32.5 55t-45.5 34.5t-47.5 19t-41 6q-68 3 -138.5 -24t-119.5 -66.5t-81 -80.5t-33 -68q-2 -51 45 -77.5t138 -29.5q52 -2 103 6.5t76 17.5l24 9q7 3 13 2t5 -7t-10 -13
q-11 -8 -28.5 -17.5t-70 -21.5t-113.5 -10q-92 3 -152.5 40.5t-57.5 101.5q1 34 36 82t88.5 92t129.5 74t149 28q94 -4 154.5 -69.5t56.5 -160.5z" />
    <glyph glyph-name="J" unicode="J" horiz-adv-x="564" 
d="M428 117q12 100 14 188l21 209l-14 -16q-8 -17 -16 -9q-7 8 -3 25l42 108q0 3 1.5 6t9.5 9t24 -1q23 -7 24 -22.5t-6 -24.5q-4 -10 -15.5 -73.5t-24.5 -170.5t-15 -194q0 -17 -3 -45q13 -4 24 -8.5t18 -7.5t12.5 -6t8.5 -4l2 -2l2.5 -2.5t4 -8t-1.5 -13.5q-3 -3 -7 -2.5
t-8 2.5l-3 2q-9 10 -56 23q-6 -46 -16.5 -91.5t-30.5 -99t-46 -92.5t-66 -64.5t-87 -23.5q-29 1 -59.5 8t-66.5 24t-63.5 43t-45.5 69t-18 97q0 29 19.5 60.5t58 61.5t109.5 47t161 13q56 -2 116 -14zM324 99q-86 8 -159 -11t-119.5 -64.5t-51.5 -110.5q-4 -45 53.5 -102
t159.5 -65q52 -4 95 31.5t68.5 91t39.5 112.5t15 105q-35 7 -101 13z" />
    <glyph glyph-name="K" unicode="K" horiz-adv-x="481" 
d="M525 609h-1q2 2 5.5 3.5t12 4.5t10.5 -2q3 -4 3.5 -8.5t-1.5 -7.5l-1 -3q-106 -111 -238 -206q-118 -86 -221 -141q126 -55 215 -109.5t115 -81.5l27 -26q2 -2 4.5 -5t7 -10.5t-1.5 -10.5q-6 -4 -12.5 -1t-12.5 8l-6 5q-24 18 -64 45t-139 81.5t-167 74.5q-3 -90 1 -193
q1 -16 -4.5 -19.5t-16.5 1.5q-20 6 -20 20q-1 5 -2 13.5t-2 37t-1 59.5q2 57 5 88q-34 0 -47 6.5t-10 25.5q2 12 19.5 18.5t42.5 0.5l2 30q4 57 16 128.5t21.5 113.5t11.5 47q1 14 7 14t14 -7q2 -1 3 -2q4 -2 6.5 -5t3.5 -5.5t1 -5.5t-0.5 -4.5t-0.5 -2.5l-1 -2
q-34 -150 -45 -299q104 52 219 135t179 140z" />
    <glyph glyph-name="L" unicode="L" horiz-adv-x="687" 
d="M307 98q-5 2 -20.5 8t-21 8t-19 7t-22.5 6.5t-24 4.5t-30.5 4t-33.5 2q-27 1 -48 -3.5t-32 -11.5t-17.5 -16t-8.5 -15t-2 -11q-1 -9 0.5 -16.5t9 -21.5t30 -23t57.5 -10q60 -2 107 23.5t75 64.5zM548 683q61 -2 93.5 -47.5t30.5 -99.5q-1 -25 -6 -48t-12.5 -41.5
t-16.5 -35.5t-19.5 -30t-20.5 -24t-18.5 -18.5t-15.5 -13t-11 -7.5l-4 -3q-18 -11 -24 3q-2 5 -0.5 9t4.5 5l2 2q4 3 11.5 8t26.5 23t33.5 37.5t27 50t13.5 62.5q0 19 -2.5 37.5t-11.5 41t-30.5 37t-53.5 15.5q-45 2 -76 -20t-45 -58.5t-22.5 -82t-6.5 -91.5t2 -88
q2 -44 -8 -98t-27 -93q32 -12 90 -36.5t76 -30.5q103 -35 178 -45q1 0 7.5 0.5t5.5 -1.5t-3 -10q-1 -2 -3.5 -4.5t-10.5 -6t-17 -2.5q-128 22 -340 105q-29 -44 -86 -75.5t-134 -28.5q-39 2 -67 14t-40 29t-16.5 30.5t-4.5 24.5q1 35 35.5 65.5t108.5 27.5q75 -3 186 -43
q16 36 24.5 98t10 112.5t1.5 138.5q0 100 57 154t129 52z" />
    <glyph glyph-name="M" unicode="M" horiz-adv-x="937" 
d="M349 356q2 6 4.5 17.5t12.5 43t21 60.5t28.5 64.5t35.5 60.5t42 41.5t49 15.5q34 -1 56 -29t29 -67.5t9.5 -78.5t-0.5 -66l-2 -28q3 11 8 28.5t23 63t38 80t52.5 62t66.5 26.5q37 -1 60.5 -30t30 -59.5t4.5 -55.5q-1 -19 -20 -164t-22 -173q-4 -45 1.5 -77t12 -42.5
t8.5 -10.5h1q1 -1 2.5 -3t2 -4t0 -4.5t-3.5 -5.5t-8 -2t-9 3l-5 2q-4 1 -10 6t-17 30t-14 64q-6 88 12 199q50 297 -29 300q-34 1 -67.5 -42t-56 -103.5t-37.5 -112.5t-19 -82q-4 -29 -7 -75.5t-5 -81t-2 -35.5l-1 -3q-1 -3 -1.5 -5t-2 -5.5t-3 -5t-3.5 -4.5t-4.5 -3.5
t-5.5 -1.5t-7 1q-7 3 -11.5 7t-6 8.5t-2 8t0.5 6.5v2q11 119 13 213q0 8 1.5 46t1.5 59t-0.5 58t-4 59.5t-9 47t-16.5 36.5t-25 12q-34 1 -74.5 -61.5t-72.5 -164.5t-41 -205q-3 -31 -5.5 -64.5t-3.5 -53t0 -19.5q-1 -1 0 -9.5t-4 -17.5t-16 -8q-23 2 -27 7t-1 20
q4 23 11 100t6 120q-2 136 -11 193q-26 167 -112 170q-36 1 -74 -18.5t-66.5 -48.5t-51.5 -58t-35 -49l-12 -21q0 -2 -1 -4t-5.5 -6.5t-11.5 0.5q-5 3 -5 10.5t2 13.5l3 6q4 9 11.5 23t32.5 50t52 63.5t69 49t85 20.5q48 -2 83.5 -34.5t51 -77.5t24 -90t8.5 -76z" />
    <glyph glyph-name="N" unicode="N" horiz-adv-x="678" 
d="M123 663q61 -2 100.5 -45.5t52.5 -103.5t17.5 -119.5t0.5 -100.5l-4 -42q2 9 5 23.5t14.5 57.5t25 81.5t36 86t46.5 81t58 55.5t70 21q39 -1 64 -33t33 -72t3 -79q-33 -264 -36 -305q-4 -58 7 -95.5t24 -46.5l13 -9q1 0 2.5 -1.5t4.5 -5.5t-1 -10q-3 -2 -12.5 -3
t-24.5 5.5t-25 18.5q-18 23 -24 84t4 147q2 15 8.5 54.5t10 67t7.5 68t2 68t-7 54.5t-19 42t-35 16q-41 3 -81 -39t-68.5 -105t-46 -113t-25.5 -83q-36 -154 -38 -215q-3 -19 -9.5 -26t-13.5 -4q-27 8 -27 28q7 41 21 172q3 31 3.5 73.5t-5 98.5t-17.5 102.5t-38 80.5
t-62 37q-37 3 -76.5 -14t-66 -40t-53.5 -55t-35.5 -45.5t-15.5 -24.5q-3 -4 -6.5 -9.5t-6.5 -8.5q-12 -6 -5 22l9 25q6 11 25 34.5t53 61t79 63t85 24.5z" />
    <glyph glyph-name="O" unicode="O" horiz-adv-x="714" 
d="M731 387q-3 -73 -41.5 -144t-100.5 -124t-146.5 -84.5t-173.5 -28.5q-69 3 -122.5 23.5t-83 49t-47.5 66t-23.5 68t-4.5 60.5q3 70 45 143t103.5 127t134.5 87.5t135 30.5q7 0 11.5 -2.5t6.5 -5t1 -4.5q0 -12 -22 -11q-37 1 -98 -26t-123 -72.5t-108 -116t-49 -143.5
q-2 -61 17 -106.5t46 -69t66 -38t64.5 -18t52.5 -4.5q102 -4 197.5 40t158 124.5t65.5 175.5q2 67 -17.5 114.5t-52.5 69t-60.5 30t-55.5 9.5q-45 2 -85 -4.5t-65.5 -16.5t-44.5 -20t-27 -18l-8 -7q-1 -1 -3.5 -3t-8 -5t-7.5 0q-5 5 -4 11t5 11l3 5q4 3 11.5 9t32.5 20
t52 24.5t67.5 18t80.5 6.5q106 -4 168 -75.5t58 -175.5z" />
    <glyph glyph-name="P" unicode="P" horiz-adv-x="335" 
d="M74 261q35 -4 83.5 0t108 20.5t111.5 44t93 76.5t53 111q7 36 -9.5 61.5t-48.5 36.5t-58 15.5t-54 5.5q-112 5 -241 -38q-5 -24 -10.5 -64t-11.5 -94t-10 -86q-4 -38 -6 -89zM-131 471q-5 -6 -3 -15t-3 -11q-8 -6 -13.5 9t-5.5 26q0 14 10.5 26t19 17.5t27.5 16.5
q90 51 177 79q1 6 2.5 14.5t1.5 11.5q3 23 11.5 26.5t19.5 -4.5q1 0 5.5 -1.5t5.5 -3t2.5 -4.5t1 -9.5t-3.5 -16.5q70 20 114 26.5t114 5.5q83 -2 153.5 -51.5t57.5 -109.5q-14 -66 -61.5 -119t-106 -82.5t-124 -48t-116 -24t-81.5 -2.5q0 -34 1 -77t2.5 -72.5t1.5 -31.5
t1 -7.5t1 -8t-1.5 -5t-7.5 -2t-15 3.5q-6 2 -11 6t-7.5 8.5t-4.5 10t-2.5 11t-1 10.5t-0.5 9v7l1 3q0 3 1 24.5t3 58.5t3 63q-29 15 -29 33q0 6 2.5 9t7.5 -1q8 -8 21 -11q3 50 3 89q1 69 29 224q-66 -22 -126 -54.5t-77 -55.5z" />
    <glyph glyph-name="Q" unicode="Q" horiz-adv-x="727" 
d="M499 634q94 -5 158.5 -65t65.5 -178q1 -101 -69 -195.5t-180 -149t-221 -50.5q-130 5 -202 82t-68 186q3 77 48.5 152.5t109 127t131.5 82.5t117 30q7 0 11.5 -0.5t9 -3.5t4.5 -9q-2 -15 -28 -15q-22 0 -62 -14t-90 -43.5t-95.5 -69t-79 -98t-38.5 -122.5
q-9 -111 48.5 -173t175.5 -72q66 -5 140.5 16.5t140 64t110 112t47.5 150.5q2 63 -14.5 108.5t-37.5 67.5t-54 34t-48.5 13.5t-37.5 2.5q-56 2 -112 -15.5t-84 -35.5l-28 -18l-2.5 -2.5t-6 -5t-6.5 -3t-3 3.5q-2 16 32.5 41.5t96 46t121.5 17.5zM312 124q74 -5 133 -25
q15 -7 -9 -19q-5 -3 -10 -4q-6 -1 -12 -0.5t-10 1.5l-5 1q-17 9 -94 17q-16 2 -31 2.5t-26 0t-20.5 -2t-17 -3t-12 -3t-8.5 -2.5l-3 -1q-5 -4 -13.5 -6.5t-14.5 1.5q-3 4 -2 7t3 6l3 2l2 1q2 1 5 3t8 5t11.5 5.5t15.5 5t20 4.5t24.5 3.5t29 1.5t33.5 -1zM559 57
q121 -40 130 -43q4 -1 9.5 -2t10 -1.5t8.5 -1.5t6 -2.5t2 -4.5q-2 -15 -34 -13q-47 0 -82 14q-83 33 -97 35q-11 2 -2 12q7 6 22 12q9 2 12 2t8.5 -3.5t6.5 -3.5z" />
    <glyph glyph-name="R" unicode="R" horiz-adv-x="599" 
d="M113 606q3 12 3 14q4 13 8 18.5t10 1.5t9 -7.5t10 -12.5l-1 -5q105 22 207 22q108 1 168 -44t53 -93q-8 -56 -51 -102.5t-97.5 -73t-108.5 -45.5t-91 -25l-36 -7q88 -70 183.5 -134.5t146 -94t52.5 -29.5q11 -4 -4 -16q-13 -11 -23 -6q-241 121 -441 302q-5 11 -0.5 13
t10.5 1h1q45 -8 114 6t136 43t116 79t52 107q2 35 -42 57.5t-120 22.5q-122 0 -233 -24q-16 -87 -40 -249q-6 -45 -10.5 -86.5t-6.5 -71.5t-3 -55t-0.5 -42.5t1 -29t1.5 -18.5v-6q0 -17 -23 -6q-20 9 -21 20q-6 115 14 264q16 119 49 271q-28 -7 -54 -15t-46 -16
t-37.5 -15.5t-30 -14t-21.5 -11.5t-14 -7l-4 -3q-12 -7 -12 2v27q1 9 11 14q102 51 216 80z" />
    <glyph glyph-name="S" unicode="S" horiz-adv-x="670" 
d="M481 648q82 0 149 -30t64 -90q-3 -50 -65.5 -85.5t-102.5 -26.5q-21 2 -16 19q3 14 13 12q2 0 3 -1q24 -5 72 17t53 63q1 7 -1.5 15.5t-14 21t-31 22t-58 17t-90.5 8.5q-102 2 -208.5 -25.5t-171.5 -65.5t-66 -68q-1 -29 27 -57t78.5 -52t99.5 -42.5t113 -40.5
q26 -9 39 -13q18 -6 71 -22.5t79 -26.5t61.5 -26.5t50.5 -35t14 -39.5q-1 -14 -16.5 -32t-45 -36.5t-85 -30t-124.5 -9.5q-60 2 -116 15t-92.5 31t-64.5 35.5t-41 29.5l-12 12q0 1 0.5 2t2.5 3.5t5 4t8 0.5t11 -5q5 -3 14.5 -9t41 -21.5t64.5 -27.5t82.5 -22.5t97.5 -12.5
q62 -2 141 19t80 58q1 16 -16 30.5t-50 28t-64.5 23.5t-77.5 23.5t-72 22.5q-161 57 -204 76q-142 66 -138 145q2 46 55 85t131.5 63t163.5 37.5t158 13.5h1z" />
    <glyph glyph-name="T" unicode="T" horiz-adv-x="407" 
d="M477 616l127 -7l3 -6t5.5 -11.5t1.5 -12.5t-10 -5q-130 7 -291 -8q-11 -83 -24 -228q-16 -180 -2 -343q1 -10 -19 -5q-25 6 -30 25q-4 12 -2 107t9 175q6 77 28 266q-30 -3 -81.5 -9t-77 -9t-69.5 -7t-59.5 -3.5t-45.5 1.5q-13 2 -20 16q-6 15 11 16q90 8 126 12
q1 0 62 7.5t116 14t126.5 11.5t115.5 3z" />
    <glyph glyph-name="U" unicode="U" horiz-adv-x="424" 
d="M45 581q1 2 3 4.5t10 5.5t16 1q8 -3 13 -9.5t6 -12.5l1 -5q-4 -10 -11 -30t-21 -94t-18 -162q-2 -36 1 -73t13 -82t37.5 -74t69.5 -31q51 -2 92 41.5t64 104.5t38.5 133t21 118.5t5.5 69.5q2 50 -4 130q-2 24 26 -8q13 -16 13 -20q7 -32 -2 -148q-16 -198 -89.5 -330.5
t-176.5 -122.5q-30 3 -53 14t-38.5 25t-26.5 38.5t-17 45t-9.5 53.5t-4.5 55t-2 59q-1 61 9.5 137t22.5 122z" />
    <glyph glyph-name="V" unicode="V" horiz-adv-x="379" 
d="M156 31q51 149 101.5 262t84 169t68 93t46 43.5t25.5 11.5q1 1 2 1q7 2 9 -5.5t1 -16.5l-1 -9q-2 0 -6.5 -2t-19 -15.5t-32.5 -36.5t-48.5 -72t-64.5 -115q-53 -103 -88.5 -205.5t-42.5 -142.5q-3 -19 -21 -19t-29 8q-55 39 -103 275t-48 327q0 18 23 9q24 -10 31 -31
q1 -5 1 -9q-4 -56 27 -249t85 -271z" />
    <glyph glyph-name="W" unicode="W" horiz-adv-x="690" 
d="M338 317q20 133 10 135q-3 0 -10.5 -18.5t-16.5 -49t-14 -59.5q-13 -73 -8 -151q26 66 39 143zM147 17q74 -1 131 111q-22 91 -7 189q10 72 32.5 144t46.5 67q54 -12 21 -186q-25 -129 -66 -218q20 -96 86 -96q56 0 105 55t79.5 133.5t52 163t29.5 147t5 82.5q2 3 12 3
t20 -7.5t9 -18.5q-5 -35 -10 -67t-18.5 -96t-28.5 -115.5t-40 -113t-52.5 -104t-66.5 -71.5t-82 -30q-80 -1 -117 104q-62 -111 -138 -105q-66 6 -105.5 62t-49 133.5t-5.5 159.5t16.5 143.5t24.5 82.5q4 4 15 2t21.5 -10t5.5 -15q-19 -29 -30.5 -114t-10 -177.5t31 -164.5
t83.5 -73z" />
    <glyph glyph-name="X" unicode="X" horiz-adv-x="426" 
d="M220 356q115 143 250 269q3 3 11 -0.5t12 -9.5t0 -13q-121 -117 -253 -285q119 -231 212 -317q19 -12 6.5 -21t-40.5 -1q-18 7 -81 96t-127 205q-119 -157 -192 -297q-3 0 -8 1.5t-12.5 8t-6.5 16.5q5 14 25.5 52t68 110.5t104.5 146.5q-75 141 -116 262q-6 18 17 19
q21 0 28 -9q-2 -7 29 -77.5t73 -155.5z" />
    <glyph glyph-name="Y" unicode="Y" horiz-adv-x="425" 
d="M138 -16q-61 2 -96 50t-41 120.5t3.5 155t32 157.5t50.5 125l6 7q14 9 35 -31q-36 -65 -60 -158.5t-29.5 -181t19.5 -150t80 -64.5q42 -1 80 28.5t65.5 79t44.5 90.5t30 84q7 83 16 135q0 1 3 18t4.5 25t5.5 25t8 26.5t9.5 20.5t12.5 16t15 4q31 -4 2 -114
q-30 -108 -49 -166q-1 -46 -1.5 -159.5t-1.5 -168.5q-2 -130 -70 -207.5t-160 -73.5q-53 2 -93 21.5t-53 34t-15 20.5q-5 7 1.5 13.5t15 9.5t9.5 1q1 -3 4 -8t14.5 -17.5t25.5 -22.5t38.5 -18t52.5 -8q21 0 36 1.5t43.5 14.5t47.5 36.5t37 72t23 116.5q3 37 13 255
q-91 -219 -214 -215z" />
    <glyph glyph-name="Z" unicode="Z" horiz-adv-x="501" 
d="M509 587q17 -5 34.5 -31.5t-0.5 -45.5q-43 -25 -78 -48t-70.5 -49.5t-57 -43t-66 -53t-68.5 -55.5q-75 -60 -135 -138t-49 -99q6 -10 19.5 -12t37 2t50 10t66.5 11.5t78 7.5q43 2 98.5 -2.5t88.5 -9.5l33 -5q6 -6 1.5 -18.5t-7.5 -15.5q-4 1 -13 3.5t-52 5t-104 0.5
q-73 -2 -124.5 -7t-95.5 -12.5t-61 -9.5q-9 -1 -21 14.5t-19 31.5l-7 15q-6 44 46 117t150 158q55 48 139 105.5t136 91t50 39.5q-5 15 -223.5 -14t-242.5 -55q-6 -1 -8.5 19t2.5 22q227 76 473 71z" />
    <glyph glyph-name="bracketleft" unicode="[" horiz-adv-x="370" 
 />
    <glyph glyph-name="backslash" unicode="\" horiz-adv-x="420" 
d="M316 11l1 -1q-34 68 -79.5 176t-114.5 281.5t-85 212.5q-5 8 -3 18t14 1q7 -4 11.5 -7.5t8.5 -9.5t5.5 -8.5t6 -12t6.5 -13.5q3 -7 126 -302.5t137 -322.5q23 -45 8 -45h-3q-22 4 -39 33z" />
    <glyph glyph-name="bracketright" unicode="]" horiz-adv-x="289" 
 />
    <glyph glyph-name="asciicircum" unicode="^" horiz-adv-x="231" 
d="M60 272q4 4 24.5 25.5t23.5 24.5q16 16 26 0q19 -28 24 -44q5 -11 -7 -23q-12 -14 -25 8q-6 12 -16 24q-16 -16 -34 -32q-3 -3 -9 -0.5t-8 7.5t1 10z" />
    <glyph glyph-name="underscore" unicode="_" horiz-adv-x="501" 
d="M51 -53q-34 4 -46 22q-8 11 14 14q10 1 29 0q30 -1 198 3t179 4h15t13 -0.5t10 -1.5t12 -4t12 -7q10 -10 4.5 -13.5t-17.5 -4.5q-122 -12 -207 -14q-177 -3 -217 2h1z" />
    <glyph glyph-name="grave" unicode="`" horiz-adv-x="215" 
d="M134 330q1 -4 -0.5 -12t-6.5 -12q-13 -10 -27 20l-29 58q-13 13 0 29q9 11 14 10.5t13 -13.5q11 -18 36 -80z" />
    <glyph glyph-name="a" unicode="a" horiz-adv-x="297" 
d="M323 137q-12 -23 -27 -45t-43.5 -46.5t-55.5 -24.5t-44 15t-21 30l-4 15q-4 -7 -11 -18t-25.5 -29t-34.5 -18q-9 0 -18.5 4.5t-20.5 15.5t-15.5 34.5t-0.5 56.5q8 64 42.5 100t64.5 35q26 -1 39 -15t13.5 -24.5t-0.5 -17.5q-7 -24 -25 -16q-1 2 0.5 11t-6 20.5
t-22.5 11.5q-21 1 -40.5 -26t-27.5 -62q-9 -34 -3 -63.5t23 -29.5q24 0 45.5 47t26.5 78q2 4 11 4.5t18 -5.5t8 -13q-1 0 -4 -11t-5 -27t-1 -31.5t11 -26.5t29 -11q52 0 122 128q7 12 11 1q7 -17 -9 -47z" />
    <glyph glyph-name="b" unicode="b" horiz-adv-x="228" 
d="M91 7q-11 0 -23 4.5t-18.5 8.5t-6.5 5q0 -1 -2.5 -3t-6.5 -4.5t-8.5 -2.5t-10 5t-9.5 15q-7 17 -7.5 48.5t3.5 54.5l3 22q22 134 45 378q12 24 32.5 10.5t15.5 -32.5l-5 -20q-5 -21 -13 -59.5t-16 -85t-15 -108t-10 -118.5q0 7 11 38.5t39.5 66.5t64.5 31q61 -8 42 -130
q-9 -61 -44.5 -93t-60.5 -31zM143 227q-26 -1 -49 -41t-32 -79l-10 -39q0 -2 2.5 -8t11.5 -13t22 -7q40 2 67 65q27 60 15 101q-7 22 -27 21z" />
    <glyph glyph-name="c" unicode="c" horiz-adv-x="249" 
d="M275 138q-3 -6 -8 -15.5t-20 -30t-32.5 -36.5t-46.5 -29t-60 -14q-48 -2 -79 28.5t-29 79.5q2 55 35.5 104.5t84.5 47.5q25 -1 39 -15t14 -36q0 -30 -27 -57q-15 -15 -27 -6q-4 3 -2.5 12t6.5 15q8 10 12 22.5t0.5 22.5t-16.5 11q-29 2 -53.5 -32t-25.5 -79
q-2 -46 14.5 -66.5t58.5 -21.5q19 0 36 4.5t32 15.5t25.5 20t22.5 26.5t17 25.5t15 26.5t11 20.5q6 12 11 2q8 -15 -8 -46z" />
    <glyph glyph-name="d" unicode="d" horiz-adv-x="322" 
d="M102 219q-22 2 -47 -37.5t-28 -78.5q-3 -53 25 -54q33 -1 74 71q-9 42 -7 91q-7 7 -17 8zM215 338q11 38 19.5 101.5t2.5 64.5q-5 1 -14.5 -9.5t-25 -49.5t-30.5 -101q-23 -100 -17 -179q43 91 65 173zM216 54q20 -2 39.5 10t38 37.5t27.5 40t23 39.5q7 12 12 2
q7 -14 -8 -45q-7 -13 -15 -26t-26.5 -38.5t-43 -40.5t-49.5 -14q-51 3 -76 60q-47 -64 -89 -61q-14 1 -26.5 5.5t-23.5 24t-9 51.5q5 74 48 115.5t73 38.5q7 0 12 -3q13 122 47.5 212.5t74.5 85.5q83 -11 -43 -346q-19 -49 -41 -87q18 -57 55 -61z" />
    <glyph glyph-name="e" unicode="e" horiz-adv-x="138" 
d="M11 172q26 66 3 71q-16 2 -36.5 -54t-11.5 -96q9 11 16 19.5t12 18t6.5 13t5.5 15t5 13.5zM22 54q13 0 26 4.5t23 9.5t21 16.5t18 18.5t17 22t13.5 20.5t12.5 21t10 17.5q7 12 11 0q6 -17 -10 -47q-7 -13 -14.5 -26t-26 -38t-43.5 -40t-51 -15q-105 2 -100 127
q2 49 35 99t70 27q6 -4 10.5 -9t7.5 -9.5t3.5 -11t1.5 -10.5t-0.5 -12.5t-2 -11.5t-3.5 -12.5t-4 -11.5t-5 -12t-4 -11q-16 -41 -58 -92q16 -14 42 -14z" />
    <glyph glyph-name="f" unicode="f" horiz-adv-x="228" 
d="M74 -367v1q72 -3 88 192q12 146 -50 194q-55 0 -80 28q-7 -55 -11.5 -91t-9 -90.5t-3 -90t7 -71t20.5 -53.5t38 -19zM253 185q6 12 10 1q7 -17 -9 -48q-47 -94 -108 -112q56 -77 47 -215q-2 -43 -13.5 -88.5t-39 -84.5t-64.5 -38q-56 2 -85.5 71.5t-19.5 175.5
q17 186 51.5 373.5t72.5 304.5q8 23 28 7q19 -15 15 -31q-7 -17 -19 -49t-39 -141.5t-44 -231.5q22 4 46.5 -3.5t41.5 -24.5q13 2 26 8.5t25 17.5t21.5 21.5t19.5 25.5t15.5 23.5t13 22.5t8.5 15z" />
    <glyph glyph-name="g" unicode="g" horiz-adv-x="210" 
d="M141 169q-9 -4 -10 0q-1 1 -1.5 15t-5 24.5t-14.5 12.5q-20 4 -41.5 -29.5t-26.5 -64.5q-17 -90 11 -90q22 0 44 33t33 66zM132 -74q-44 -58 -74.5 -133.5t-30.5 -116.5q0 -2 -0.5 -14.5t-0.5 -21.5t1.5 -20.5t6.5 -18.5t13 -9q29 -6 52.5 47t27.5 122q5 71 5 165z
M126 64q-1 -3 -3.5 -7t-11 -14.5t-17 -18t-21 -12.5t-25.5 -2q-40 9 -48.5 49.5t9.5 86.5q16 49 41 78.5t56 24.5q16 -2 27.5 -10.5t15.5 -15.5l4 -7l12 23q6 11 22 6q13 -5 9 -16q-6 -12 -30 -103q-7 -28 -5 -128q23 19 39 20q3 2 5 -5q6 -16 -1 -17q-19 -11 -42 -34
q5 -158 4 -185q-1 -31 -8 -64.5t-20.5 -67t-37.5 -56t-54 -23.5q-25 -1 -40.5 26.5t-10.5 79.5q8 79 48 160.5t88 134.5z" />
    <glyph glyph-name="h" unicode="h" horiz-adv-x="298" 
d="M321 137q-63 -126 -136 -128q-39 -1 -57.5 24t-17.5 55.5t4 57t0 26.5q-7 1 -25.5 -33t-33.5 -69t-15 -40q0 -22 -19 -17t-24 23q-2 9 -2.5 22.5t0.5 28t2.5 29.5t4 28.5t4 24l2.5 17.5l2 6q1 62 13 181q9 90 30.5 142t49.5 51q16 0 34 -16t12 -51q-5 -33 -32 -112.5
t-51 -142.5l-24 -63l-7 -100q2 6 5.5 15t14 32.5t20.5 41.5t24 32.5t25 14.5q19 0 27 -8t7 -17t-5.5 -26.5t-5.5 -26.5q-7 -94 41 -94q19 0 38 12.5t38 39t27 39.5t23 41q2 2 2.5 4t1.5 3q7 12 12 0q6 -17 -9 -47zM105 529q-16 3 -29.5 -56.5t-19.5 -120.5l-6 -60q3 7 7 18
t15 41.5t19.5 57.5t15.5 55t7 46t-9 19z" />
    <glyph glyph-name="i" unicode="i" horiz-adv-x="193" 
d="M218 138q-6 -12 -14.5 -26t-27 -38.5t-42.5 -40.5t-49 -16q-27 0 -46 14t-26.5 34.5t-10 36.5t-1.5 25l10 67q5 13 21.5 12.5t16.5 -14.5l-3 -12q-2 -13 -4 -28t-2 -34t4 -34t15.5 -25t29.5 -9q54 2 126 134q7 12 11 1q8 -16 -8 -47zM34 306q26 -4 21 -38
q-2 -11 -10.5 -17t-19.5 -5q-25 4 -22 29q0 10 8.5 21.5t22.5 9.5z" />
    <glyph glyph-name="j" unicode="j" horiz-adv-x="123" 
d="M54 313q24 -2 24 -34q-1 -16 -13 -24.5t-22 -6.5q-24 4 -22 28q0 10 9.5 24t23.5 13zM1 -67q-70 -28 -129 -79.5t-60 -97.5q-4 -62 66 -70q32 -3 59 25.5t40.5 64t18.5 68.5q5 35 5 89zM58 193q-9 -22 -14.5 -50t-6.5 -45l-1 -18q1 -50 1 -108q21 4 36 3l15 -12
q8 -9 1 -14q-19 4 -52 -4q-2 -96 -8 -128q-8 -39 -23.5 -68.5t-31.5 -45t-35 -25.5t-33 -12.5t-28 -2.5q-45 1 -72.5 27.5t-25.5 67.5q4 61 73.5 118.5t147.5 85.5v36.5v39.5t0.5 35.5t2 37.5t4 33t6.5 34.5t9 29.5q3 4 12 4t17.5 -6t5.5 -13z" />
    <glyph glyph-name="k" unicode="k" horiz-adv-x="353" 
d="M380 140q-60 -120 -186 -122q-82 -1 -107 70q-2 7 -2.5 12.5t0.5 9t2.5 6t4.5 4t5 2t5 1.5l4 1q32 7 56.5 32t27.5 48q3 32 -22 31t-68 -64t-59 -127q-4 -17 -9 -26t-7.5 -9.5t-6.5 -0.5q-24 0 -18 105q4 62 60 399q1 5 2 12.5t1.5 9.5t1.5 5t4 3t6.5 -0.5t10.5 -2.5
q10 -3 13 -14t1 -21l-2 -10q-50 -202 -59 -380q2 2 24.5 44t51 76t56.5 32q29 -2 40.5 -20.5t6.5 -42.5q-7 -33 -32.5 -60t-47.5 -37l-22 -10q2 -5 7 -12.5t26 -19.5t50 -12q21 0 40.5 4.5t33.5 10t28 17t22 19.5t18.5 22.5t14.5 21.5t12.5 21.5t9.5 17.5q6 12 11 1
q6 -17 -9 -47z" />
    <glyph glyph-name="l" unicode="l" horiz-adv-x="188" 
d="M86 372q5 18 8.5 49t-1.5 63t-22 33q-19 1 -41 -34t-40 -95.5t-24 -125.5q-6 -85 16 -146q39 56 58 103t46 153zM67 47q26 0 49 13.5t43 40.5t28.5 40.5t23.5 40.5q8 12 12 0q5 -18 -10 -46q-7 -14 -15 -26.5t-28.5 -38.5t-50 -41t-63.5 -13t-58 18.5t-36 38.5t-18 58.5
t-7 63t-1 68.5q1 52 18 119t49.5 120t68.5 51t49.5 -44.5t2.5 -116.5q-13 -88 -54.5 -175.5t-74.5 -125.5q29 -45 72 -45z" />
    <glyph glyph-name="m" unicode="m" horiz-adv-x="474" 
d="M499 135l-4 -7q-4 -8 -7.5 -14t-10.5 -16.5t-13.5 -19t-15.5 -19t-18.5 -18t-20.5 -14t-23 -9.5t-25 -3q-30 1 -47 19t-20.5 43.5t-2.5 51t3.5 43t0.5 17.5t-10.5 -25.5t-18.5 -56t-27 -56t-34 -25.5q-18 1 -24 22.5t-3.5 47t2 47t-8.5 21.5q-4 0 -19 -38t-36.5 -76
t-41.5 -36q-23 2 -26 42t3.5 73t-5.5 39q-3 0 -20 -31q-7 -8 -14 5q-6 9 0 21q8 14 22 37q9 16 22.5 12.5t22.5 -27.5q5 -13 3.5 -44.5t-4 -50.5t2.5 -26q4 -2 12.5 10t18 32.5t18 40t16 37t8.5 20.5q11 22 34 15.5t24 -38.5q0 -2 -2 -33.5t-1.5 -55t4.5 -24.5t17 29
t28.5 73t16.5 45q7 17 23.5 16t29.5 -16q2 -5 0.5 -31t-5.5 -55t6.5 -53t37.5 -26q20 -1 40 11.5t39.5 39.5t27.5 40.5t23 40.5q7 12 11 0q6 -16 -9 -47z" />
    <glyph glyph-name="n" unicode="n" horiz-adv-x="346" 
d="M54 141q3 36 -5 36q-1 0 -23 -40q-7 -8 -14 5q-6 9 0 21q8 14 22 37q9 16 23 16.5t25 -22.5q7 -18 4.5 -49t-5 -46.5t7.5 -23.5q4 -1 12 11.5t16.5 32t16.5 39t15.5 38t9.5 23.5q7 16 21 16t26 -15q4 -5 -4 -46t-3.5 -78.5t39.5 -40.5q21 -2 41 9.5t39.5 38.5t27 39
t22.5 40q7 12 11 0q6 -17 -9 -47q-6 -12 -14 -24.5t-25.5 -36t-42 -37.5t-50.5 -13q-35 1 -53 21t-18.5 43.5t-2 44t-3.5 21.5t-12.5 -29.5t-29 -61t-40.5 -29.5q-25 2 -28 39.5t3 67.5z" />
    <glyph glyph-name="o" unicode="o" horiz-adv-x="236" 
d="M26 105q-3 -61 33 -63q17 -1 32.5 18.5t23.5 45.5q-43 25 -60 71q-8 -6 -18 -31.5t-11 -40.5zM121 143q0 16 -0.5 29.5t-2.5 28t-8 22.5t-14 7q-12 -1 -15 -15t2 -27q8 -26 38 -45zM249 165l10 17q6 11 12 1q5 -9 0 -26q-10 -31 -43 -51.5t-84 -9.5q-12 -38 -35.5 -61.5
t-58.5 -21.5q-33 2 -47 32t-11 63q3 35 18.5 75t37.5 43q7 35 45 38q24 2 45 -28t16 -89q0 -6 -2 -18q24 -12 52.5 -3.5t44.5 39.5z" />
    <glyph glyph-name="p" unicode="p" horiz-adv-x="291" 
d="M268 167q-1 -48 -36 -100.5t-75 -49.5q-30 3 -44 22q6 -56 0 -191q-2 -35 -6.5 -67t-14 -71t-29 -62t-45.5 -21q-68 5 -59 105q5 64 37 167.5t59 163.5q15 35 22 49q-3 19 -5 29q-9 41 -20 41q-2 0 -26 -45q-7 -8 -14 5q-6 9 0 21q29 52 36 55q17 6 29.5 -12.5
t20.5 -50.5q52 98 102 96q19 -1 33.5 -10t20.5 -19.5t9.5 -24.5t4 -19.5t0.5 -10.5zM234 163q7 54 -34 59q-44 4 -95 -112q3 -18 3 -36q8 8 13 8l11 -15q10 -15 26 -16q25 -1 42.5 22t24 45.5t9.5 44.5zM79 -150q7 93 -1 201q-11 -31 -15 -39q-61 -141 -72 -275
q-6 -78 19 -79q17 -1 30.5 19t21 54t11.5 61t6 58z" />
    <glyph glyph-name="q" unicode="q" horiz-adv-x="328" 
d="M352 135q-49 -98 -148 -143q40 -74 40 -172q0 -31 -5.5 -62t-25 -60.5t-51.5 -29.5q-69 0 -66 158q1 31 17.5 126.5t26.5 141.5q-5 -7 -13 -17t-30 -26t-41 -15q-60 4 -57 72q1 47 41.5 101t105.5 55q21 0 38 -24q3 4 12 1.5t14 -8.5q3 -12 3 -16t-6 -17t-8 -18
q-35 -98 -36 -143q-1 -11 3 -17t11 -5q85 5 172 164q7 12 11 1q7 -17 -8 -47zM163 214q4 17 -14 18q-29 1 -64.5 -35.5t-40.5 -92.5q-2 -36 21 -38q29 -3 57.5 34t38.5 74zM184 -19h-21q-8 -10 -17 -74.5t-10 -101.5q-2 -42 5 -74.5t27 -32.5q25 -1 40.5 39t16.5 78
q1 37 -11 86t-30 80z" />
    <glyph glyph-name="r" unicode="r" horiz-adv-x="276" 
d="M80 187q-4 0 -11 1t-10.5 0.5t-5.5 -4.5q-2 -5 -28 -49q-5 -8 -11.5 3.5t-0.5 24.5l7 13q6 12 12 22q2 3 2 24q0 26 7.5 46.5t20.5 19.5q10 -1 16.5 -13t5.5 -19q0 -4 -2.5 -9.5t-3.5 -8t1 -6.5q4 -4 14 -1l4 2q4 2 6.5 3.5t8 3.5t10 2t10.5 -1t11 -4q4 -2 6.5 -6.5t3 -9
t0.5 -8.5t-1 -8v-4q-1 -8 -8 -24t-7 -41q-1 -38 8 -58t36 -20q22 0 47.5 25t38 44.5t31.5 53.5q6 12 11 1q6 -17 -8 -47l-3 -7q-4 -6 -6.5 -10.5t-8 -13t-10.5 -15.5t-12 -15.5t-14 -15.5t-16 -13.5t-17.5 -11t-18.5 -7t-20 -1.5q-26 1 -43.5 13.5t-24.5 31.5t-9 31t-2 24
q-1 20 2 36t5.5 23.5t0.5 9.5q-6 5 -12 -1t-12 -6z" />
    <glyph glyph-name="s" unicode="s" horiz-adv-x="242" 
d="M8 140q12 4 18 -14q5 -18 18 -39q2 1 6 1q46 4 46 58q0 20 -3.5 36t-7.5 23.5t-11 18t-9 14.5q-3 -40 -34 -92q-3 -3 -8 -2t-9 7t-1 12q0 1 6.5 13t10.5 21t10 29t9 41q5 40 27 40q10 0 16 -4t9 -12t4 -13t1 -15.5v-11.5q0 -10 14.5 -54.5t13.5 -56.5q-4 -36 -26 -57
t-45 -17q23 -21 55 -21q11 0 21.5 3t19.5 7t18.5 12t16.5 13.5t15.5 17t13 17.5t12.5 18.5t10.5 17t9.5 16.5t8 14q7 12 12 0q6 -17 -9 -47q-39 -69 -81 -96q-38 -25 -79 -22q-88 5 -112 106q0 14 14 18z" />
    <glyph glyph-name="t" unicode="t" horiz-adv-x="193" 
d="M218 135q-52 -105 -129 -101q-26 1 -43.5 16.5t-24.5 40t-9 46t-1 44.5q1 33 27 189h-155q-29 1 -29 15q0 7 5.5 10.5t10.5 4t12 -0.5l8 -1l153 1q2 10 4 20.5t3 15.5l1 5q2 11 3.5 14.5t6.5 7t12 -0.5q6 -2 10.5 -13.5t3.5 -19.5l-3 -30l158 1q24 4 24 -12
q0 -8 -8.5 -12t-16.5 -5h-8h-154q-1 -10 -4 -31t-4 -29q-1 -6 -7 -35.5t-11 -59t-6 -41.5q-2 -32 8 -69.5t37 -39.5q20 -2 38.5 7t34.5 30t24 33t21 37q3 6 5 9q7 12 11 1q7 -17 -8 -47z" />
    <glyph glyph-name="u" unicode="u" horiz-adv-x="299" 
d="M324 135q-21 -37 -52.5 -68.5t-65.5 -32.5q-29 0 -48.5 18.5t-23.5 37.5l-5 19q-1 -3 -3 -8t-9 -18.5t-15 -23t-21 -17t-27 -6.5q-29 3 -43 35.5t-9 66.5q4 31 22 89q4 22 27 15q5 -1 7.5 -3.5t2.5 -7.5t-1 -8l-3.5 -10.5t-3.5 -11.5q-7 -23 -11.5 -48.5t-1 -53
t20.5 -29.5t36 31t25 59q2 8 5.5 23.5t5.5 23.5q6 25 25 20q8 -2 11 -5.5t3 -6t-2.5 -10l-3.5 -10.5q0 -1 -4 -70q0 -58 34 -62q14 -1 26.5 1.5t23.5 12t19 16.5t18 22.5t14 22t13.5 24t10.5 19.5q7 12 12 1q8 -17 -9 -47z" />
    <glyph glyph-name="v" unicode="v" horiz-adv-x="241" 
d="M160 200q-2 -38 -14 -72q68 -28 108 38l9 15q6 11 13 1q7 -9 2 -26q-16 -42 -62 -62.5t-80 5.5q-11 -25 -20 -39q-1 -2 -7.5 -11.5t-8.5 -12.5t-7.5 -9.5t-9.5 -9t-10 -5t-12 -2.5q-24 0 -39.5 26.5t-18.5 59.5t-4.5 64t1.5 40q0 15 18 17.5t20 -12.5q1 -3 0 -8
q-6 -12 -0.5 -80t26.5 -71q23 -4 49 80q-11 28 -3 78q4 22 13 41t16 18q23 -1 21 -63z" />
    <glyph glyph-name="w" unicode="w" horiz-adv-x="365" 
d="M260 99q-31 -74 -76 -74q-18 0 -32 11.5t-20 23.5l-5 11q-1 -2 -3 -5.5t-8.5 -12t-13.5 -15t-18 -12t-22 -5.5q-31 0 -47 30t-15 64t2 59q3 28 10 41.5t14 13t15 -2.5q6 -3 6 -9t-2.5 -11t-3.5 -5q-5 -37 -6 -59q-4 -86 32 -93q20 -4 37.5 34t15.5 80q-2 49 24 47
q18 -2 21 -33q0 -30 -8 -51q-3 -10 1 -42.5t22 -33.5q26 0 58 75q-13 28 -11 63q1 23 13 51t23 27q15 0 20 -26t0.5 -58t-13.5 -54q68 -28 108 38l9 15q6 11 13 1q7 -9 2 -26q-16 -42 -62 -62.5t-80 5.5z" />
    <glyph glyph-name="x" unicode="x" horiz-adv-x="290" 
d="M198 55q44 0 113 126q7 12 11 1q7 -17 -8 -47q-5 -10 -14 -24t-25 -35.5t-37.5 -36t-41.5 -14.5q-54 -1 -92 68q-14 -30 -34 -76t-24 -53q-5 -10 -14 2q-8 10 -4 17q34 75 63 137q-4 9 -8.5 29t-9 30t-12.5 10q-9 0 -32 -47q-4 -6 -13 1q-10 9 -2 24q7 12 13.5 25.5
t10.5 21t8.5 14.5t9 10t10.5 2q14 -1 24 -13t14.5 -25t10.5 -35q64 124 71 131q8 8 18 4q5 -2 6 -7t0 -8t-2 -4t-11.5 -18.5t-30 -52.5t-41.5 -77q8 -32 26.5 -56t46.5 -24z" />
    <glyph glyph-name="y" unicode="y" horiz-adv-x="214" 
d="M3 -235q-4 -76 33 -76q14 0 25 7.5t18 17.5t12.5 25.5t8 25.5t4.5 24l3 14q5 19 8 41.5t4 38.5t2.5 43t2.5 40q-117 -89 -121 -201zM159 49q0 -11 -3 -28q13 5 27 -9q3 -4 0.5 -7t-7.5 -5l-4 -3q-8 -4 -20 -13q-2 -12 -2 -18q-2 -19 -2.5 -58.5t-1.5 -51.5
q-1 -32 -6.5 -63.5t-17 -65.5t-33.5 -54.5t-52 -19.5q-35 1 -53 33t-14 65q7 49 25.5 92t43.5 74.5t45.5 51t42.5 34.5q3 38 8 99q-20 -38 -38.5 -58t-41.5 -19q-28 1 -43 26.5t-11 67.5q3 30 9 54t14.5 37.5t17.5 10.5q8 -3 10 -11t0.5 -14.5t-2.5 -6.5q-15 -55 -15 -84
q0 -13 0.5 -21.5t2 -17.5t5 -13t8.5 -4q44 2 89 122q4 28 11.5 46.5t15.5 25t16 3.5q24 -8 11 -44q-34 -129 -35 -153z" />
    <glyph glyph-name="z" unicode="z" horiz-adv-x="177" 
d="M114 -65q-35 -32 -66 -80.5t-41 -86.5q-30 -120 22 -125q21 -2 39.5 26t26.5 54.5t12 51.5q16 95 7 160zM98 252q61 -8 55 -85q-7 -79 -48 -131q21 -17 33 -55q19 11 34 14q14 2 22 -15q5 -13 -3 -12q-21 3 -46 -14q13 -69 -3 -187q-13 -82 -46.5 -122.5t-60.5 -36.5
q-11 2 -20.5 5.5t-23 17.5t-18.5 35t-0.5 61.5t23.5 93.5q13 35 46 74.5t71 67.5q-10 39 -30 55q-14 -14 -35 -4q-13 8 -10 18t15 17q13 8 29 4q11 14 22.5 47t13.5 58q3 56 -26 59q-22 2 -53 -56q-1 -2 -3 -5.5t-5 -9t-5 -9.5q-7 -8 -14 5q-6 9 0 21q23 41 29 51
q3 7 8 14.5t19 16.5t30 7z" />
    <glyph glyph-name="braceleft" unicode="{" 
 />
    <glyph glyph-name="bar" unicode="|" horiz-adv-x="161" 
d="M102 693v1q3 -136 2 -213.5t-6.5 -262.5t-6.5 -250q0 -11 -4 -17.5t-14 4.5q-5 7 -7.5 12t-4 12t-2 10t-0.5 13.5v14.5q-1 12 4 330.5t3 347.5q-3 45 7 45q3 0 6 -2q18 -10 23 -45z" />
    <glyph glyph-name="braceright" unicode="}" 
 />
    <glyph glyph-name="asciitilde" unicode="~" horiz-adv-x="231" 
d="M38 287q14 19 41 19q14 -1 32.5 -9t23.5 -9q17 -3 37 17q6 5 10.5 1t7 -11t0.5 -8q-31 -31 -60 -23q-2 0 -19 7.5t-27.5 9t-24.5 -4.5q-7 -5 -11.5 -2.5t-7.5 7.5t-2 6z" />
    <glyph glyph-name="DEL" horiz-adv-x="0" 
 />
    <glyph glyph-name="nbspace" unicode="&#xa0;" horiz-adv-x="197" 
 />
    <glyph glyph-name="exclamdown" unicode="&#xa1;" horiz-adv-x="111" 
d="M66 526l1 1q-13 1 -21 10.5t-8 19.5q1 9 9 18t20 8q15 -1 22 -6t6 -20q-1 -11 -9 -21.5t-20 -9.5zM50 434v1v5.5v7.5t0.5 7.5t2.5 6.5t5 3.5t8 0.5q20 -5 18 -27q-1 -19 -12 -212q-3 -66 -25 -206q-4 -29 -14 -40t-20 -10q-7 1 -10 15.5t-1 32.5q0 3 12 76.5t17 119.5
q19 161 19 219z" />
    <glyph glyph-name="cent" unicode="&#xa2;" horiz-adv-x="269" 
d="M129 305h1q-4 -42 -8 -67q-3 -27 -6 -29q-3 -1 -5.5 0t-5.5 6t-3 14q0 3 1.5 35t1.5 43q-52 8 -79 37t-26 74q1 55 44 95.5t89 50.5q6 64 9 80q1 11 4.5 15t11.5 2q11 -2 11 -21q-10 -43 -12 -74q72 0 76 -57q2 -15 -8 -36q-3 -5 -10.5 -8t-10.5 1t3 19q3 10 5 23.5
t-12.5 23.5t-44.5 8q-57 -4 -89.5 -35t-37.5 -82q-9 -87 86 -92q57 -4 106 26q6 3 7 -5q1 -9 -6 -16q-7 -8 -35.5 -19t-56.5 -12z" />
    <glyph glyph-name="sterling" unicode="&#xa3;" horiz-adv-x="513" 
d="M328 520q-9 -27 -2.5 -25.5t14.5 24.5q6 17 6 38q-12 -18 -18 -37zM241 157v1q-90 30 -132 32q-41 1 -62 -15t-20 -34q1 -24 86 -29q26 -1 66 11.5t62 33.5zM377 615q13 7 16 -1q1 -3 -1 -4.5t-5.5 -3t-5.5 -3.5l-9 -10q8 -18 9 -39q2 -37 -17 -70t-47 -35
q-15 -1 -24 18.5t-5 36.5q15 58 53 89q-12 35 -45 36q-35 1 -57 -29t-24 -70q-1 -18 1.5 -34.5t10 -34.5t13 -29t18 -32.5t18.5 -32.5q34 0 80.5 -0.5t49.5 -0.5q13 0 17.5 -4.5t3.5 -7t-5 -9.5q-1 -2 -1 -3q-7 -11 -29 -10q-22 2 -100 2q30 -79 2 -157q64 -30 110 -76
l6.5 -6.5l7 -7t4.5 -6t1.5 -6.5t-3.5 -6t-6 -3.5t-6.5 2t-6.5 5.5t-6.5 7t-6.5 6q-37 30 -110 58q-22 -26 -65 -44.5t-89 -18.5q-119 -2 -120 63q0 34 39.5 57.5t81.5 20.5q73 -4 134 -29q20 77 1 136l-2 6q-48 2 -64 3q-70 6 -96 -5q-5 -3 -9.5 0t-1.5 10q6 21 67 24
q15 1 91 1q-8 18 -29 56t-30 65t-6 55q5 49 39 80t75 29q48 -3 71 -44z" />
    <glyph glyph-name="currency" unicode="&#xa4;" 
 />
    <glyph glyph-name="yen" unicode="&#xa5;" horiz-adv-x="284" 
 />
    <glyph glyph-name="brokenbar" unicode="&#xa6;" horiz-adv-x="0" 
 />
    <glyph glyph-name="dieresis" unicode="&#xa8;" horiz-adv-x="323" 
d="M60 303q11 -1 18 -8.5t7 -17.5q-1 -11 -11 -18.5t-22 -6.5q-21 2 -21 26q0 11 9 19t20 6zM173 303h-1q10 -1 17 -8.5t7 -17.5q0 -11 -10 -18.5t-22 -6.5q-22 2 -22 26q1 11 10.5 19t20.5 6zM61 303q11 -1 18 -8.5t7 -17.5q-1 -11 -11 -18.5t-22 -6.5q-21 2 -21 26
q0 11 9 19t20 6zM174 303h-1q10 -1 17 -8.5t7 -17.5q0 -11 -10 -18.5t-22 -6.5q-22 2 -22 26q1 11 10.5 19t20.5 6z" />
    <glyph glyph-name="copyright" unicode="&#xa9;" horiz-adv-x="741" 
d="M334 66q-102 0 -167.5 55.5t-72.5 157.5q-9 114 78 212.5t200 106.5q17 2 35 -17q32 2 36 2q87 0 140 -48.5t59 -135.5q9 -134 -83 -233.5t-225 -99.5zM442 561q-55 0 -91 -18q-25 -13 -47 -33q-18 -15 -24 -15q-7 0 -14 25q-139 -107 -131 -240q5 -81 60.5 -130.5
t137.5 -50.5q119 -1 198 88.5t74 209.5q-3 76 -45.5 119.5t-117.5 44.5zM480 273q5 5 4 -3q-1 -19 -12 -31q-43 -50 -114 -50q-67 0 -100 33t-29 91q5 72 59 117t123 45q33 0 61 -11t28 -38q0 -26 -24.5 -41.5t-52.5 -15.5q-22 0 -14 13q1 2 28.5 11t27.5 28q0 29 -54 29
q-57 0 -98 -37.5t-45 -97.5q-4 -50 23 -75.5t77 -25.5q26 0 48 9.5t33.5 19.5t30.5 30z" />
    <glyph glyph-name="ordfeminine" unicode="&#xaa;" 
 />
    <glyph glyph-name="guillemotleft" unicode="&#xab;" horiz-adv-x="313" 
d="M284 94q14 -8 6 -31q-3 -12 -24 0q-70 34 -98 50q-2 2 -11.5 7.5t-14.5 10.5q-11 11 1 20q36 22 74 41.5t45 23.5q16 3 30 -11q10 -10 -13 -21q-5 -2 -38 -19t-53 -26q27 -14 53 -25t43 -20zM146 94q12 -13 8 -31q-4 -16 -25 -1q-20 14 -92 50q-43 24 -30 33q22 16 38 26
t24.5 14.5t29 14.5t35.5 18q17 2 29 -12q6 -7 -13.5 -19.5t-48.5 -27t-35 -19.5q68 -39 80 -46z" />
    <glyph glyph-name="registered" unicode="&#xae;" horiz-adv-x="694" 
d="M303 340l-2 -10h2l1 -1q40 -6 98.5 20.5t63.5 65.5q1 14 -17 20t-44.5 5t-47.5 -3t-33 -5q-15 -62 -21 -92zM407 465q46 1 70 -16t19 -42q-15 -71 -152 -99q31 -25 64.5 -47.5t51.5 -33t19 -10.5q12 -5 -2 -14q-11 -7 -18 -4q-81 41 -162 115q-9 -53 -9 -92
q-1 -14 -16 -7q-11 4 -11 12q0 45 12 102q8 39 24 97q-15 -4 -51 -18q-11 -4 -11 10q1 11 8 15q83 32 164 32zM637 399q9 -135 -81 -234t-222 -99q-102 0 -165 55.5t-70 157.5q-9 114 76 212.5t197 106.5q17 2 35 -17q32 2 36 2q87 0 137.5 -48.5t56.5 -135.5zM605 397
q-3 75 -46 119t-117 45q-55 0 -91 -18q-25 -13 -47 -33q-18 -15 -24 -15q-7 0 -14 25q-139 -107 -131 -240q5 -81 60.5 -130.5t137.5 -50.5q119 -1 198 88.5t74 209.5z" />
    <glyph glyph-name="macron" unicode="&#xaf;" 
 />
    <glyph glyph-name="degree" unicode="&#xb0;" horiz-adv-x="144" 
d="M79 581q-7 1 -11.5 -5t-5.5 -12q0 -15 13 -16q6 -1 10.5 2.5t5.5 9.5q3 19 -12 21zM85 604q29 -4 29 -41q-1 -20 -13.5 -30t-29.5 -8t-25.5 15.5t-5.5 28.5q3 14 15 25t30 10z" />
    <glyph glyph-name="plusminus" unicode="&#xb1;" 
 />
    <glyph glyph-name="twosuperior" unicode="&#xb2;" horiz-adv-x="0" 
 />
    <glyph glyph-name="threesuperior" unicode="&#xb3;" horiz-adv-x="0" 
 />
    <glyph glyph-name="acute" unicode="&#xb4;" horiz-adv-x="215" 
d="M106 330q25 62 36 80q8 13 13 13.5t14 -10.5q6 -7 6 -14.5t-3 -10.5l-3 -4q-20 -38 -29 -58q-14 -30 -27 -20q-5 4 -6.5 12t-0.5 12z" />
    <glyph glyph-name="mu" unicode="&#xb5;" 
 />
    <glyph glyph-name="periodcentered" unicode="&#xb7;" horiz-adv-x="141" 
 />
    <glyph glyph-name="cedilla" unicode="&#xb8;" 
 />
    <glyph glyph-name="onesuperior" unicode="&#xb9;" horiz-adv-x="0" 
 />
    <glyph glyph-name="ordmasculine" unicode="&#xba;" 
 />
    <glyph glyph-name="guillemotright" unicode="&#xbb;" horiz-adv-x="313" 
d="M20 94q17 9 43 20t53 25q-12 5 -101 50q-3 2 -1 9t7.5 13.5t9.5 5.5q81 -36 130 -66q4 -3 5.5 -6t0 -6.5t-3.5 -6.5t-7 -6t-7.5 -5t-7.5 -5t-6 -3q-13 -8 -104 -49q-8 -4 -12.5 2.5t-3.5 15.5t5 12zM147 86q21 13 33 20t28.5 16.5t35.5 20.5q-7 4 -45 24t-55 32
q-8 5 3 15q7 6 18 5q92 -48 132 -74q3 -5 3 -8t-8.5 -9.5t-13 -9t-11.5 -6.5q-5 -2 -46 -23t-53 -27q-10 -6 -18 6.5t-3 17.5z" />
    <glyph glyph-name="onequarter" unicode="&#xbc;" horiz-adv-x="0" 
 />
    <glyph glyph-name="threequarters" unicode="&#xbe;" horiz-adv-x="0" 
 />
    <glyph glyph-name="questiondown" unicode="&#xbf;" horiz-adv-x="402" 
d="M422 -60q-123 -142 -300 -148q-55 -2 -95 34.5t-39 91.5q0 32 15.5 59.5t44.5 49t49.5 33t51.5 26.5q11 5 32 14.5t32 15t27 15.5t24.5 19.5t16 24t10.5 31.5q2 16 -5 25t-6 11q6 10 23 3q19 -9 17 -54q-2 -30 -26.5 -56.5t-50 -40.5t-72.5 -35q-58 -26 -103.5 -66
t-46.5 -87q-1 -38 27.5 -57.5t67.5 -18.5q92 1 149.5 32.5t121.5 94.5q5 5 13.5 15t14 15t10.5 4q12 -6 10 -22t-13 -29zM291 331q-11 2 -18 11t-6 20q3 24 26 24q10 -1 19 -10.5t8 -23.5q-1 -8 -12 -15t-17 -6z" />
    <glyph glyph-name="Agrave" unicode="&#xc0;" horiz-adv-x="735" 
d="M576 235q-16 70 -31 149t-23 124l-7 44l-182 -331q49 7 79 8q151 6 164 6zM74 36q81 1 178 138q-19 -3 -41 -7t-31.5 -5.5t-10.5 -1.5q-27 -4 -31 9q-4 4 -1 8t2 5.5t3.5 4t5 2.5t6.5 1l5 2q57 11 121 21q11 17 29 45.5t23 36.5q28 44 66.5 119t63.5 128l24 52l3 13
q3 13 11 17.5t28 4.5q30 -1 36 -10t7 -46v-10q3 -154 49 -327q47 0 57 -1q28 -2 9 -20q-15 -13 -29 -15l-26 -2q44 -151 93 -237q7 -7 -11 -15q-25 -9 -38 6q-42 47 -91 246q-34 -1 -148 -5q-44 -1 -127 -11q-20 -29 -42 -56t-54 -59t-68.5 -51t-69.5 -17q-31 2 -55 15
t-36.5 31t-20.5 36t-10 30l-2 12q-1 18 13 18q7 0 11.5 -3t5.5 -6l1 -3q0 -4 1.5 -10t7.5 -22.5t15 -28.5t27 -22t41 -10zM522 714q1 -3 -0.5 -11t-6.5 -13q-14 -9 -27 20l-29 58q-13 14 0 29q9 12 14 11.5t13 -14.5q3 -5 18.5 -39.5t17.5 -40.5z" />
    <glyph glyph-name="Aacute" unicode="&#xc1;" horiz-adv-x="735" 
d="M546 711q25 62 36 80q8 13 13 13.5t14 -10.5q6 -7 6 -14.5t-3 -11.5l-3 -3q-20 -38 -29 -58q-14 -30 -27 -20q-5 4 -6.5 12t-0.5 12zM576 235q-16 70 -31 149t-23 124l-7 44l-182 -331q49 7 79 8q151 6 164 6zM74 36q81 1 178 138q-19 -3 -41 -7t-31.5 -5.5t-10.5 -1.5
q-27 -4 -31 9q-4 4 -1 8t2 5.5t3.5 4t5 2.5t6.5 1l5 2q57 11 121 21q11 17 29 45.5t23 36.5q28 44 66.5 119t63.5 128l24 52l3 13q3 13 11 17.5t28 4.5q30 -1 36 -10t7 -46v-10q3 -154 49 -327q47 0 57 -1q28 -2 9 -20q-15 -13 -29 -15l-26 -2q44 -151 93 -237q7 -7 -11 -15
q-25 -9 -38 6q-42 47 -91 246q-34 -1 -148 -5q-44 -1 -127 -11q-20 -29 -42 -56t-54 -59t-68.5 -51t-69.5 -17q-31 2 -55 15t-36.5 31t-20.5 36t-10 30l-2 12q-1 18 13 18q7 0 11.5 -3t5.5 -6l1 -3q0 -4 1.5 -10t7.5 -22.5t15 -28.5t27 -22t41 -10z" />
    <glyph glyph-name="Acircumflex" unicode="&#xc2;" horiz-adv-x="735" 
d="M576 235q-16 70 -31 149t-23 124l-7 44l-182 -331q49 7 79 8q151 6 164 6zM74 36q81 1 178 138q-19 -3 -41 -7t-31.5 -5.5t-10.5 -1.5q-27 -4 -31 9q-4 4 -1 8t2 5.5t3.5 4t5 2.5t6.5 1l5 2q57 11 121 21q11 17 29 45.5t23 36.5q28 44 66.5 119t63.5 128l24 52l3 13
q3 13 11 17.5t28 4.5q30 -1 36 -10t7 -46v-10q3 -154 49 -327q47 0 57 -1q28 -2 9 -20q-15 -13 -29 -15l-26 -2q44 -151 93 -237q7 -7 -11 -15q-25 -9 -38 6q-42 47 -91 246q-34 -1 -148 -5q-44 -1 -127 -11q-20 -29 -42 -56t-54 -59t-68.5 -51t-69.5 -17q-31 2 -55 15
t-36.5 31t-20.5 36t-10 30l-2 12q-1 18 13 18q7 0 11.5 -3t5.5 -6l1 -3q0 -4 1.5 -10t7.5 -22.5t15 -28.5t27 -22t41 -10zM494 684q16 18 47 49q17 18 27 0q2 -3 12.5 -22.5t11.5 -21.5q5 -10 -7 -23q-13 -13 -25 8q-2 4 -5 8.5t-6.5 9t-4.5 6.5q-4 -3 -17 -15.5t-17 -16.5
q-4 -3 -10 -0.5t-8 7.5t2 11z" />
    <glyph glyph-name="Atilde" unicode="&#xc3;" horiz-adv-x="735" 
d="M576 235q-16 70 -31 149t-23 124l-7 44l-182 -331q49 7 79 8q151 6 164 6zM74 36q81 1 178 138q-19 -3 -41 -7t-31.5 -5.5t-10.5 -1.5q-27 -4 -31 9q-4 4 -1 8t2 5.5t3.5 4t5 2.5t6.5 1l5 2q57 11 121 21q11 17 29 45.5t23 36.5q28 44 66.5 119t63.5 128l24 52l3 13
q3 13 11 17.5t28 4.5q30 -1 36 -10t7 -46v-10q3 -154 49 -327q47 0 57 -1q28 -2 9 -20q-15 -13 -29 -15l-26 -2q44 -151 93 -237q7 -7 -11 -15q-25 -9 -38 6q-42 47 -91 246q-34 -1 -148 -5q-44 -1 -127 -11q-20 -29 -42 -56t-54 -59t-68.5 -51t-69.5 -17q-31 2 -55 15
t-36.5 31t-20.5 36t-10 30l-2 12q-1 18 13 18q7 0 11.5 -3t5.5 -6l1 -3q0 -4 1.5 -10t7.5 -22.5t15 -28.5t27 -22t41 -10zM467 695q14 19 41 19q14 -1 32.5 -9t23.5 -9q17 -3 37 17q6 5 10.5 1t7 -11t0.5 -8q-32 -32 -60 -26q-2 1 -13 5.5t-19.5 7t-20.5 4t-18 -5.5
q-7 -5 -11.5 -1.5t-7.5 9.5t-2 7z" />
    <glyph glyph-name="Adieresis" unicode="&#xc4;" horiz-adv-x="735" 
d="M576 235q-16 70 -31 149t-23 124l-7 44l-182 -331q49 7 79 8q151 6 164 6zM74 36q81 1 178 138q-19 -3 -41 -7t-31.5 -5.5t-10.5 -1.5q-27 -4 -31 9q-4 4 -1 8t2 5.5t3.5 4t5 2.5t6.5 1l5 2q57 11 121 21q11 17 29 45.5t23 36.5q28 44 66.5 119t63.5 128l24 52l3 13
q3 13 11 17.5t28 4.5q30 -1 36 -10t7 -46v-10q3 -154 49 -327q47 0 57 -1q28 -2 9 -20q-15 -13 -29 -15l-26 -2q44 -151 93 -237q7 -7 -11 -15q-25 -9 -38 6q-42 47 -91 246q-34 -1 -148 -5q-44 -1 -127 -11q-20 -29 -42 -56t-54 -59t-68.5 -51t-69.5 -17q-31 2 -55 15
t-36.5 31t-20.5 36t-10 30l-2 12q-1 18 13 18q7 0 11.5 -3t5.5 -6l1 -3q0 -4 1.5 -10t7.5 -22.5t15 -28.5t27 -22t41 -10zM495 728q26 -4 21 -38q-2 -11 -10.5 -17t-19.5 -5q-22 3 -22 29q1 11 9 22.5t22 8.5zM587 729q25 -3 23 -33q0 -15 -12 -23t-21 -6q-23 4 -21 27
q0 9 9 22.5t22 12.5z" />
    <glyph glyph-name="Aring" unicode="&#xc5;" horiz-adv-x="735" 
d="M576 235q-16 70 -31 149t-23 124l-7 44l-182 -331q49 7 79 8q151 6 164 6zM74 36q81 1 178 138q-19 -3 -41 -7t-31.5 -5.5t-10.5 -1.5q-27 -4 -31 9q-4 4 -1 8t2 5.5t3.5 4t5 2.5t6.5 1l5 2q57 11 121 21q11 17 29 45.5t23 36.5q28 44 66.5 119t63.5 128l24 52l3 13
q3 13 11 17.5t28 4.5q30 -1 36 -10t7 -46v-10q3 -154 49 -327q47 0 57 -1q28 -2 9 -20q-15 -13 -29 -15l-26 -2q44 -151 93 -237q7 -7 -11 -15q-25 -9 -38 6q-42 47 -91 246q-34 -1 -148 -5q-44 -1 -127 -11q-20 -29 -42 -56t-54 -59t-68.5 -51t-69.5 -17q-31 2 -55 15
t-36.5 31t-20.5 36t-10 30l-2 12q-1 18 13 18q7 0 11.5 -3t5.5 -6l1 -3q0 -4 1.5 -10t7.5 -22.5t15 -28.5t27 -22t41 -10zM550 726q-8 1 -12.5 -5.5t-4.5 -11.5q-3 -13 12 -16q14 -2 16 12q2 19 -11 21zM555 749q31 -3 29 -41q-1 -20 -13 -29.5t-29 -7.5t-26 15.5t-6 28.5
q4 14 16 25t29 9z" />
    <glyph glyph-name="AE" unicode="&#xc6;" horiz-adv-x="1223" 
d="M529 235q-6 70 -9.5 149t-3.5 124l-1 44l-182 -331q74 10 196 14zM570 254q39 55 117 91q-84 5 -124 27q4 -77 7 -118zM1074 652q39 -2 67 -10t41.5 -19t18.5 -21t5 -19q-2 -48 -115 -86q-24 -7 -39 16q-3 5 6 8.5t23 6.5q26 7 46.5 18.5t29 20t8.5 13.5q0 30 -108 34
q-149 6 -309.5 -53.5t-186.5 -114.5l1 -30q23 -44 176 -50q99 38 201 51q130 19 129 -8q-1 -18 -55 -35t-83 -19q-106 -10 -160 -11q-165 -50 -193 -165q5 -54 12 -96q54 -79 223 -83q66 -2 129 7t101.5 19.5t75 27t45 21.5t16.5 11q22 14 22 6q0 -4 -9 -13q-4 -5 -12.5 -14
t-41.5 -30.5t-73 -37.5t-109.5 -28t-149.5 -9q-124 4 -203 53q7 -28 17 -52q6 -8 -10 -15q-20 -9 -31 6q-24 33 -44 220q-1 5 -1 8.5t-1 8.5t-1 9q-118 -3 -223 -16q-20 -29 -42 -56t-54 -59t-68.5 -51t-69.5 -17q-31 2 -55 15t-36.5 31t-20.5 36t-10 30l-2 12q-1 18 13 18
q7 0 11.5 -3t5.5 -6l1 -3q0 -4 1.5 -10t7.5 -22.5t15 -28.5t27 -22t41 -10q81 1 178 138q-19 -3 -41 -7t-31.5 -5.5t-10.5 -1.5q-27 -4 -31 9q0 8 -0.5 11.5t5 6.5t8 3.5t8.5 1.5q57 11 121 21q11 17 29 45.5t23 36.5q28 44 66.5 119t63.5 128l24 52l3 13q3 13 11 17.5
t28 4.5q30 -1 33.5 -12t-0.5 -54v-63q67 67 225.5 112t287.5 40z" />
    <glyph glyph-name="Ccedilla" unicode="&#xc7;" horiz-adv-x="707" 
d="M270 -53l-4 -11q11 2 20.5 -5t8.5 -19q-2 -19 -19.5 -26t-45.5 3q-5 2 2 8q4 3 7 2q28 -8 36 6q7 11 -8 16q-8 2 -20 -1h-2q-1 0 0 2l10 25q-120 6 -192 70.5t-67 192.5q3 75 48.5 152t116 135t165 93.5t188.5 31.5q12 0 30 -2t51 -10t55 -29.5t22 -53.5t-21 -65
t-53.5 -58t-51 -37.5t-31.5 -19.5q-8 -5 -19 -9t-23 -3t-17 11q-3 14 -1 16.5t18 6.5q3 1 5 2v-1q6 3 16.5 7.5t36.5 20.5t46.5 33t37.5 42.5t18 51.5q3 3 1 15t-31 28t-87 18q-117 4 -228.5 -51.5t-180 -144.5t-71.5 -181v-11q-1 -11 0 -22.5t3 -29.5t8 -35t15 -35.5
t25 -34t37 -29t52 -21.5t68 -9q65 -2 133 12.5t118.5 37.5t92 46t62.5 40l22 16q10 8 14 -2q1 0 0 -5.5t-9 -17.5t-23 -25q-6 -5 -25.5 -18.5t-59 -34.5t-83.5 -39.5t-103 -32t-113 -12.5z" />
    <glyph glyph-name="Egrave" unicode="&#xc8;" horiz-adv-x="740" 
d="M594 652q39 -2 67 -10t41.5 -19t18.5 -21t5 -19q-2 -48 -115 -86q-24 -7 -39 16q-3 5 6 8.5t23 6.5q26 7 46.5 18.5t29 20t8.5 13.5q0 30 -108 34q-106 4 -225.5 -27.5t-196 -75.5t-77.5 -78q-1 -33 49.5 -48t130.5 -19q99 38 201 51q130 19 129 -8q-1 -18 -55 -35
t-83 -19q-106 -10 -160 -11q-67 -20 -119 -51.5t-78 -62.5t-39 -55.5t-13 -39.5q0 -16 8.5 -34.5t31.5 -42.5t75 -40t126 -18q105 -3 210 20t148 41t54 25q22 14 22 6q0 -4 -9 -13q-6 -5 -17.5 -14t-52.5 -30.5t-87 -37.5t-120 -28t-154 -9q-43 2 -87 11t-89 27.5t-73 53.5
t-26 81q2 58 58 113.5t148 98.5q-165 9 -162 87q2 58 96 112t221.5 83t231.5 25zM522 714q1 -3 -0.5 -11t-6.5 -13q-14 -9 -27 20l-29 58q-13 14 0 29q9 12 14 11.5t13 -14.5q3 -5 18.5 -39.5t17.5 -40.5z" />
    <glyph glyph-name="Eacute" unicode="&#xc9;" horiz-adv-x="740" 
d="M442 708q25 62 36 80q8 13 13 13.5t14 -10.5q6 -7 6 -14.5t-3 -10.5l-3 -4q-20 -38 -29 -58q-14 -30 -27 -20q-5 4 -6.5 12t-0.5 12zM594 652q39 -2 67 -10t41.5 -19t18.5 -21t5 -19q-2 -48 -115 -86q-24 -7 -39 16q-3 5 6 8.5t23 6.5q26 7 46.5 18.5t29 20t8.5 13.5
q0 30 -108 34q-106 4 -225.5 -27.5t-196 -75.5t-77.5 -78q-1 -33 49.5 -48t130.5 -19q99 38 201 51q130 19 129 -8q-1 -18 -55 -35t-83 -19q-106 -10 -160 -11q-67 -20 -119 -51.5t-78 -62.5t-39 -55.5t-13 -39.5q0 -16 8.5 -34.5t31.5 -42.5t75 -40t126 -18q105 -3 210 20
t148 41t54 25q22 14 22 6q0 -4 -9 -13q-6 -5 -17.5 -14t-52.5 -30.5t-87 -37.5t-120 -28t-154 -9q-43 2 -87 11t-89 27.5t-73 53.5t-26 81q2 58 58 113.5t148 98.5q-165 9 -162 87q2 58 96 112t221.5 83t231.5 25z" />
    <glyph glyph-name="Ecircumflex" unicode="&#xca;" horiz-adv-x="740" 
d="M594 652q39 -2 67 -10t41.5 -19t18.5 -21t5 -19q-2 -48 -115 -86q-24 -7 -39 16q-3 5 6 8.5t23 6.5q26 7 46.5 18.5t29 20t8.5 13.5q0 30 -108 34q-106 4 -225.5 -27.5t-196 -75.5t-77.5 -78q-1 -33 49.5 -48t130.5 -19q99 38 201 51q130 19 129 -8q-1 -18 -55 -35
t-83 -19q-106 -10 -160 -11q-67 -20 -119 -51.5t-78 -62.5t-39 -55.5t-13 -39.5q0 -16 8.5 -34.5t31.5 -42.5t75 -40t126 -18q105 -3 210 20t148 41t54 25q22 14 22 6q0 -4 -9 -13q-6 -5 -17.5 -14t-52.5 -30.5t-87 -37.5t-120 -28t-154 -9q-43 2 -87 11t-89 27.5t-73 53.5
t-26 81q2 58 58 113.5t148 98.5q-165 9 -162 87q2 58 96 112t221.5 83t231.5 25zM468 705q4 4 24.5 25.5t23.5 24.5q16 16 26 0q19 -28 24 -44q5 -11 -7 -23q-13 -13 -25 8q-12 19 -16 24q-16 -16 -34 -32q-3 -3 -9 -0.5t-8.5 7.5t1.5 10z" />
    <glyph glyph-name="Edieresis" unicode="&#xcb;" horiz-adv-x="740" 
d="M594 652q39 -2 67 -10t41.5 -19t18.5 -21t5 -19q-2 -48 -115 -86q-24 -7 -39 16q-3 5 6 8.5t23 6.5q26 7 46.5 18.5t29 20t8.5 13.5q0 30 -108 34q-106 4 -225.5 -27.5t-196 -75.5t-77.5 -78q-1 -33 49.5 -48t130.5 -19q99 38 201 51q130 19 129 -8q-1 -18 -55 -35
t-83 -19q-106 -10 -160 -11q-67 -20 -119 -51.5t-78 -62.5t-39 -55.5t-13 -39.5q0 -16 8.5 -34.5t31.5 -42.5t75 -40t126 -18q105 -3 210 20t148 41t54 25q22 14 22 6q0 -4 -9 -13q-6 -5 -17.5 -14t-52.5 -30.5t-87 -37.5t-120 -28t-154 -9q-43 2 -87 11t-89 27.5t-73 53.5
t-26 81q2 58 58 113.5t148 98.5q-165 9 -162 87q2 58 96 112t221.5 83t231.5 25zM517 758q23 -4 21 -38q-1 -11 -10 -17.5t-20 -4.5q-25 4 -22 29q0 10 8.5 21.5t22.5 9.5zM609 758q23 -2 23 -32q-1 -15 -12.5 -23t-21.5 -7q-21 4 -21 27q1 10 10 23t22 12z" />
    <glyph glyph-name="Igrave" unicode="&#xcc;" horiz-adv-x="612" 
d="M628 424q-4 -112 -64 -211.5t-161 -159t-216 -55.5q-55 2 -96.5 14.5t-63 27.5t-35 35t-16.5 33t-3 25q0 8 2.5 16t5.5 14t6 10.5t5 6.5l3 3q1 2 3 3.5t8.5 4.5t12.5 -2q4 -2 5.5 -4.5t0.5 -5.5t-2 -5t-3.5 -5t-2.5 -4q-2 -5 -3.5 -9.5t-3.5 -18.5t0.5 -25t13 -26
t29 -25.5t53 -18.5t81.5 -10q86 -3 162.5 31.5t127.5 92.5t81 128t33 139q2 44 -10.5 78.5t-32.5 55t-45.5 34.5t-47.5 19t-41 6q-68 3 -138.5 -24t-119.5 -66.5t-81 -80.5t-33 -68q-2 -51 45 -77.5t138 -29.5q52 -2 103 6.5t76 17.5l24 9q7 3 13 2t5 -7t-10 -13
q-11 -8 -28.5 -17.5t-70 -21.5t-113.5 -10q-92 3 -152.5 40.5t-57.5 101.5q1 34 36 82t88.5 92t129.5 74t149 28q94 -4 154.5 -69.5t56.5 -160.5zM417 714q1 -3 -0.5 -11t-6.5 -13q-14 -9 -27 20l-29 58q-13 14 0 29q9 12 14 11.5t13 -14.5q3 -5 18.5 -39.5t17.5 -40.5z" />
    <glyph glyph-name="Iacute" unicode="&#xcd;" horiz-adv-x="612" 
d="M462 711q25 62 36 80q8 13 13 13.5t14 -10.5q6 -7 6 -14.5t-3 -11.5l-3 -3q-20 -38 -29 -58q-14 -30 -27 -20q-5 4 -6.5 12t-0.5 12zM628 424q-4 -112 -64 -211.5t-161 -159t-216 -55.5q-55 2 -96.5 14.5t-63 27.5t-35 35t-16.5 33t-3 25q0 8 2.5 16t5.5 14t6 10.5t5 6.5
l3 3q1 2 3 3.5t8.5 4.5t12.5 -2q4 -2 5.5 -4.5t0.5 -5.5t-2 -5t-3.5 -5t-2.5 -4q-2 -5 -3.5 -9.5t-3.5 -18.5t0.5 -25t13 -26t29 -25.5t53 -18.5t81.5 -10q86 -3 162.5 31.5t127.5 92.5t81 128t33 139q2 44 -10.5 78.5t-32.5 55t-45.5 34.5t-47.5 19t-41 6q-68 3 -138.5 -24
t-119.5 -66.5t-81 -80.5t-33 -68q-2 -51 45 -77.5t138 -29.5q52 -2 103 6.5t76 17.5l24 9q7 3 13 2t5 -7t-10 -13q-11 -8 -28.5 -17.5t-70 -21.5t-113.5 -10q-92 3 -152.5 40.5t-57.5 101.5q1 34 36 82t88.5 92t129.5 74t149 28q94 -4 154.5 -69.5t56.5 -160.5z" />
    <glyph glyph-name="Icircumflex" unicode="&#xce;" horiz-adv-x="612" 
d="M628 424q-4 -112 -64 -211.5t-161 -159t-216 -55.5q-55 2 -96.5 14.5t-63 27.5t-35 35t-16.5 33t-3 25q0 8 2.5 16t5.5 14t6 10.5t5 6.5l3 3q1 2 3 3.5t8.5 4.5t12.5 -2q4 -2 5.5 -4.5t0.5 -5.5t-2 -5t-3.5 -5t-2.5 -4q-2 -5 -3.5 -9.5t-3.5 -18.5t0.5 -25t13 -26
t29 -25.5t53 -18.5t81.5 -10q86 -3 162.5 31.5t127.5 92.5t81 128t33 139q2 44 -10.5 78.5t-32.5 55t-45.5 34.5t-47.5 19t-41 6q-68 3 -138.5 -24t-119.5 -66.5t-81 -80.5t-33 -68q-2 -51 45 -77.5t138 -29.5q52 -2 103 6.5t76 17.5l24 9q7 3 13 2t5 -7t-10 -13
q-11 -8 -28.5 -17.5t-70 -21.5t-113.5 -10q-92 3 -152.5 40.5t-57.5 101.5q1 34 36 82t88.5 92t129.5 74t149 28q94 -4 154.5 -69.5t56.5 -160.5zM383 705q4 4 24.5 25.5t23.5 24.5q16 16 26 0q19 -28 24 -44q5 -11 -7 -23q-13 -13 -25 8q-12 19 -16 24q-16 -16 -34 -32
q-3 -3 -9 -0.5t-8.5 7.5t1.5 10z" />
    <glyph glyph-name="Idieresis" unicode="&#xcf;" horiz-adv-x="612" 
d="M628 424q-4 -112 -64 -211.5t-161 -159t-216 -55.5q-55 2 -96.5 14.5t-63 27.5t-35 35t-16.5 33t-3 25q0 8 2.5 16t5.5 14t6 10.5t5 6.5l3 3q1 2 3 3.5t8.5 4.5t12.5 -2q4 -2 5.5 -4.5t0.5 -5.5t-2 -5t-3.5 -5t-2.5 -4q-2 -5 -3.5 -9.5t-3.5 -18.5t0.5 -25t13 -26
t29 -25.5t53 -18.5t81.5 -10q86 -3 162.5 31.5t127.5 92.5t81 128t33 139q2 44 -10.5 78.5t-32.5 55t-45.5 34.5t-47.5 19t-41 6q-68 3 -138.5 -24t-119.5 -66.5t-81 -80.5t-33 -68q-2 -51 45 -77.5t138 -29.5q52 -2 103 6.5t76 17.5l24 9q7 3 13 2t5 -7t-10 -13
q-11 -8 -28.5 -17.5t-70 -21.5t-113.5 -10q-92 3 -152.5 40.5t-57.5 101.5q1 34 36 82t88.5 92t129.5 74t149 28q94 -4 154.5 -69.5t56.5 -160.5zM402 748q23 -4 21 -38q-1 -11 -10 -17.5t-20 -4.5q-25 4 -22 29q0 10 8.5 21.5t22.5 9.5zM494 748q23 -2 23 -32
q-1 -15 -12.5 -23t-21.5 -7q-21 4 -21 27q1 10 10 23t22 12z" />
    <glyph glyph-name="Eth" unicode="&#xd0;" horiz-adv-x="0" 
 />
    <glyph glyph-name="Ntilde" unicode="&#xd1;" horiz-adv-x="649" 
d="M123 663q61 -2 100.5 -45.5t52.5 -103.5t17.5 -119.5t0.5 -100.5l-4 -42q2 9 5 23.5t14.5 57.5t25 81.5t36 86t46.5 81t58 55.5t70 21q57 -2 83.5 -62t16.5 -122q-3 -19 -36 -305q-4 -39 -1 -66t10 -43.5t15 -26t14 -12.5l6 -3q1 0 2.5 -1.5t4.5 -5.5t-1 -10
q-3 -2 -12.5 -3t-24.5 5.5t-25 18.5q-18 23 -24 84t4 147q2 15 8.5 54.5t10 67t7.5 68t2 68t-7 54.5t-19 42t-35 16q-41 3 -81 -39t-68.5 -105t-46 -113t-25.5 -83q-36 -154 -38 -215q-3 -19 -9.5 -26t-13.5 -4q-27 8 -27 28q7 41 21 172q3 31 3.5 73.5t-5 98.5t-17.5 102.5
t-38 80.5t-62 37q-37 3 -76.5 -14t-66 -40t-53.5 -55t-35.5 -45.5t-15.5 -24.5q-3 -4 -6.5 -9.5t-6.5 -8.5q-12 -6 -5 22l9 25q6 11 25 34.5t53 61t79 63t85 24.5zM262 685q14 19 41 19q14 -1 32.5 -9t23.5 -9q17 -3 37 17q6 5 10.5 1t7 -11t0.5 -8q-32 -32 -60 -26
q-2 1 -13 5.5t-19.5 7t-20.5 4t-18 -5.5q-7 -5 -11.5 -1.5t-7.5 9.5t-2 7z" />
    <glyph glyph-name="Ograve" unicode="&#xd2;" horiz-adv-x="714" 
d="M731 387q-3 -73 -41.5 -144t-100.5 -124t-146.5 -84.5t-173.5 -28.5q-69 3 -122.5 23.5t-83 49t-47.5 66t-23.5 68t-4.5 60.5q3 70 45 143t103.5 127t134.5 87.5t135 30.5q7 0 11.5 -2.5t6.5 -5t1 -4.5q0 -12 -22 -11q-37 1 -98 -26t-123 -72.5t-108 -116t-49 -143.5
q-2 -61 17 -106.5t46 -69t66 -38t64.5 -18t52.5 -4.5q102 -4 197.5 40t158 124.5t65.5 175.5q2 67 -17.5 114.5t-52.5 69t-60.5 30t-55.5 9.5q-45 2 -85 -4.5t-65.5 -16.5t-44.5 -20t-27 -18l-8 -7q-1 -1 -3.5 -3t-8 -5t-7.5 0q-5 5 -4 11t5 11l3 5q4 3 11.5 9t32.5 20
t52 24.5t67.5 18t80.5 6.5q106 -4 168 -75.5t58 -175.5zM482 714q1 -3 -0.5 -11t-6.5 -13q-14 -9 -27 20l-29 58q-13 14 0 29q9 12 14 11.5t13 -14.5q3 -5 18.5 -39.5t17.5 -40.5z" />
    <glyph glyph-name="Oacute" unicode="&#xd3;" horiz-adv-x="714" 
d="M509 719q25 62 36 80q8 13 13 13.5t14 -10.5q6 -7 6 -14.5t-3 -11.5l-3 -3q-20 -38 -29 -58q-14 -30 -27 -20q-5 4 -6.5 12t-0.5 12zM731 387q-3 -73 -41.5 -144t-100.5 -124t-146.5 -84.5t-173.5 -28.5q-69 3 -122.5 23.5t-83 49t-47.5 66t-23.5 68t-4.5 60.5
q3 70 45 143t103.5 127t134.5 87.5t135 30.5q7 0 11.5 -2.5t6.5 -5t1 -4.5q0 -12 -22 -11q-37 1 -98 -26t-123 -72.5t-108 -116t-49 -143.5q-2 -61 17 -106.5t46 -69t66 -38t64.5 -18t52.5 -4.5q102 -4 197.5 40t158 124.5t65.5 175.5q2 67 -17.5 114.5t-52.5 69t-60.5 30
t-55.5 9.5q-45 2 -85 -4.5t-65.5 -16.5t-44.5 -20t-27 -18l-8 -7q-1 -1 -3.5 -3t-8 -5t-7.5 0q-5 5 -4 11t5 11l3 5q4 3 11.5 9t32.5 20t52 24.5t67.5 18t80.5 6.5q106 -4 168 -75.5t58 -175.5z" />
    <glyph glyph-name="Ocircumflex" unicode="&#xd4;" horiz-adv-x="714" 
d="M731 387q-3 -73 -41.5 -144t-100.5 -124t-146.5 -84.5t-173.5 -28.5q-69 3 -122.5 23.5t-83 49t-47.5 66t-23.5 68t-4.5 60.5q3 70 45 143t103.5 127t134.5 87.5t135 30.5q7 0 11.5 -2.5t6.5 -5t1 -4.5q0 -12 -22 -11q-37 1 -98 -26t-123 -72.5t-108 -116t-49 -143.5
q-2 -61 17 -106.5t46 -69t66 -38t64.5 -18t52.5 -4.5q102 -4 197.5 40t158 124.5t65.5 175.5q2 67 -17.5 114.5t-52.5 69t-60.5 30t-55.5 9.5q-45 2 -85 -4.5t-65.5 -16.5t-44.5 -20t-27 -18l-8 -7q-1 -1 -3.5 -3t-8 -5t-7.5 0q-5 5 -4 11t5 11l3 5q4 3 11.5 9t32.5 20
t52 24.5t67.5 18t80.5 6.5q106 -4 168 -75.5t58 -175.5zM468 705q4 4 24.5 25.5t23.5 24.5q16 16 26 0q19 -28 24 -44q5 -11 -7 -23q-13 -13 -25 8q-12 19 -16 24q-16 -16 -34 -32q-3 -3 -9 -0.5t-8.5 7.5t1.5 10z" />
    <glyph glyph-name="Otilde" unicode="&#xd5;" horiz-adv-x="714" 
d="M731 387q-3 -73 -41.5 -144t-100.5 -124t-146.5 -84.5t-173.5 -28.5q-69 3 -122.5 23.5t-83 49t-47.5 66t-23.5 68t-4.5 60.5q3 70 45 143t103.5 127t134.5 87.5t135 30.5q7 0 11.5 -2.5t6.5 -5t1 -4.5q0 -12 -22 -11q-37 1 -98 -26t-123 -72.5t-108 -116t-49 -143.5
q-2 -61 17 -106.5t46 -69t66 -38t64.5 -18t52.5 -4.5q102 -4 197.5 40t158 124.5t65.5 175.5q2 67 -17.5 114.5t-52.5 69t-60.5 30t-55.5 9.5q-45 2 -85 -4.5t-65.5 -16.5t-44.5 -20t-27 -18l-8 -7q-1 -1 -3.5 -3t-8 -5t-7.5 0q-5 5 -4 11t5 11l3 5q4 3 11.5 9t32.5 20
t52 24.5t67.5 18t80.5 6.5q106 -4 168 -75.5t58 -175.5zM446 710q14 19 41 19q14 -1 32.5 -9t23.5 -9q17 -3 37 17q6 5 10.5 1t7 -11t0.5 -8q-32 -32 -60 -26q-2 1 -13 5.5t-19.5 7t-20.5 4t-18 -5.5q-7 -5 -11.5 -1.5t-7.5 9.5t-2 7z" />
    <glyph glyph-name="Odieresis" unicode="&#xd6;" horiz-adv-x="714" 
d="M731 387q-3 -73 -41.5 -144t-100.5 -124t-146.5 -84.5t-173.5 -28.5q-69 3 -122.5 23.5t-83 49t-47.5 66t-23.5 68t-4.5 60.5q3 70 45 143t103.5 127t134.5 87.5t135 30.5q7 0 11.5 -2.5t6.5 -5t1 -4.5q0 -12 -22 -11q-37 1 -98 -26t-123 -72.5t-108 -116t-49 -143.5
q-2 -61 17 -106.5t46 -69t66 -38t64.5 -18t52.5 -4.5q102 -4 197.5 40t158 124.5t65.5 175.5q2 67 -17.5 114.5t-52.5 69t-60.5 30t-55.5 9.5q-45 2 -85 -4.5t-65.5 -16.5t-44.5 -20t-27 -18l-8 -7q-1 -1 -3.5 -3t-8 -5t-7.5 0q-5 5 -4 11t5 11l3 5q4 3 11.5 9t32.5 20
t52 24.5t67.5 18t80.5 6.5q106 -4 168 -75.5t58 -175.5zM457 753q26 -4 21 -38q-2 -11 -10.5 -17t-19.5 -5q-25 4 -22 29q0 10 8.5 21.5t22.5 9.5zM549 753q23 -2 23 -32q-1 -15 -12 -23t-21 -7q-24 4 -21 27q0 10 9 23t22 12z" />
    <glyph glyph-name="multiply" unicode="&#xd7;" horiz-adv-x="260" 
d="M216 170q8 -14 0 -31t-24 5q-10 12 -50 48q-48 -54 -52 -57l-5 -5l-4 -4t-5 -3t-6.5 -1t-9.5 1q-20 3 -8 15q27 45 61 81q-47 40 -53 48q-1 1 -4.5 4t-4 4t-2.5 4t-1.5 4t-1 5.5t0.5 8.5q4 20 16 8q1 0 9 -5.5t18 -12.5t24 -17.5t26 -20.5q34 36 47 43q15 8 31 0
q15 -9 -5 -25q-6 -5 -45 -46q40 -36 48 -51z" />
    <glyph glyph-name="Oslash" unicode="&#xd8;" horiz-adv-x="714" 
d="M621 568q-389 -394 -492 -491q59 -30 142 -33q102 -4 197.5 40t158 124.5t65.5 175.5q5 126 -71 184zM689 636l-46 -46q44 -34 67 -87.5t21 -115.5q-3 -73 -41.5 -144t-100.5 -124t-146.5 -84.5t-173.5 -28.5q-101 4 -168 45q-7 -6 -18 -16t-13 -12v1q-28 -21 -48 -15
q-20 3 22 39q1 1 9.5 9t16.5 16q-47 41 -65.5 95.5t-16.5 104.5q3 70 45 143t103.5 127t134.5 87.5t135 30.5q7 0 11.5 -2.5t6.5 -5t1 -4.5q0 -12 -22 -11q-37 1 -98 -26t-123 -72.5t-108 -116t-49 -143.5q-4 -121 71 -182q57 56 250 246t246 242q-37 19 -86 21
q-45 2 -85 -4.5t-65.5 -16.5t-44.5 -20t-27 -18l-8 -7q-1 -1 -3.5 -3t-8 -5t-7.5 0q-5 5 -4 11t5 11l3 5q4 3 11.5 9t32.5 20t52 24.5t67.5 18t80.5 6.5q60 -1 110 -29l11 11l6 5q4 3 11 9.5t10 9t8.5 6t11 5.5t13.5 3t11 -1t1.5 -6t-4 -8t-5.5 -7z" />
    <glyph glyph-name="Ugrave" unicode="&#xd9;" horiz-adv-x="424" 
d="M45 581q1 2 3 4.5t10 5.5t16 1q8 -3 13 -9.5t6 -12.5l1 -5q-4 -10 -11 -30t-21 -94t-18 -162q-2 -36 1 -73t13 -82t37.5 -74t69.5 -31q51 -2 92 41.5t64 104.5t38.5 133t21 118.5t5.5 69.5q2 50 -4 130q-2 24 26 -8q13 -16 13 -20q7 -32 -2 -148q-16 -198 -89.5 -330.5
t-176.5 -122.5q-30 3 -53 14t-38.5 25t-26.5 38.5t-17 45t-9.5 53.5t-4.5 55t-2 59q-1 61 9.5 137t22.5 122zM242 714q1 -3 -0.5 -11t-6.5 -13q-14 -9 -27 20l-29 58q-13 14 0 29q9 12 14 11.5t13 -14.5q3 -5 18.5 -39.5t17.5 -40.5z" />
    <glyph glyph-name="Uacute" unicode="&#xda;" horiz-adv-x="424" 
d="M243 662q25 62 36 80q8 13 13 13.5t14 -10.5q6 -7 6 -14.5t-3 -10.5l-3 -4q-20 -38 -29 -58q-14 -30 -27 -20q-5 4 -6.5 12t-0.5 12zM45 581q1 2 3 4.5t10 5.5t16 1q8 -3 13 -9.5t6 -12.5l1 -5q-4 -10 -11 -30t-21 -94t-18 -162q-2 -36 1 -73t13 -82t37.5 -74t69.5 -31
q51 -2 92 41.5t64 104.5t38.5 133t21 118.5t5.5 69.5q2 50 -4 130q-2 24 26 -8q13 -16 13 -20q7 -32 -2 -148q-16 -198 -89.5 -330.5t-176.5 -122.5q-30 3 -53 14t-38.5 25t-26.5 38.5t-17 45t-9.5 53.5t-4.5 55t-2 59q-1 61 9.5 137t22.5 122z" />
    <glyph glyph-name="Ucircumflex" unicode="&#xdb;" horiz-adv-x="424" 
d="M45 581q1 2 3 4.5t10 5.5t16 1q8 -3 13 -9.5t6 -12.5l1 -5q-4 -10 -11 -30t-21 -94t-18 -162q-2 -36 1 -73t13 -82t37.5 -74t69.5 -31q51 -2 92 41.5t64 104.5t38.5 133t21 118.5t5.5 69.5q2 50 -4 130q-2 24 26 -8q13 -16 13 -20q7 -32 -2 -148q-16 -198 -89.5 -330.5
t-176.5 -122.5q-30 3 -53 14t-38.5 25t-26.5 38.5t-17 45t-9.5 53.5t-4.5 55t-2 59q-1 61 9.5 137t22.5 122zM208 680q8 9 48 49q16 17 26 1q10 -15 25 -45q4 -11 -8 -23q-12 -14 -25 8q-3 7 -16 25q-3 -4 -17 -17t-17 -16t-9 -0.5t-8 8t1 10.5z" />
    <glyph glyph-name="Udieresis" unicode="&#xdc;" horiz-adv-x="424" 
d="M45 581q1 2 3 4.5t10 5.5t16 1q8 -3 13 -9.5t6 -12.5l1 -5q-4 -10 -11 -30t-21 -94t-18 -162q-2 -36 1 -73t13 -82t37.5 -74t69.5 -31q51 -2 92 41.5t64 104.5t38.5 133t21 118.5t5.5 69.5q2 50 -4 130q-2 24 26 -8q13 -16 13 -20q7 -32 -2 -148q-16 -198 -89.5 -330.5
t-176.5 -122.5q-30 3 -53 14t-38.5 25t-26.5 38.5t-17 45t-9.5 53.5t-4.5 55t-2 59q-1 61 9.5 137t22.5 122zM197 719q26 -4 21 -38q-2 -11 -10.5 -17t-19.5 -5q-25 4 -22 29q0 10 8.5 22t22.5 9zM289 719q23 -1 23 -32q-1 -15 -12.5 -23t-21.5 -6q-21 4 -21 26q1 10 10 23
t22 12z" />
    <glyph glyph-name="Yacute" unicode="&#xdd;" horiz-adv-x="425" 
d="M138 -16q-61 2 -96 50t-41 120.5t3.5 155t32 157.5t50.5 125l6 7q14 9 35 -31q-36 -65 -60 -158.5t-29.5 -181t19.5 -150t80 -64.5q42 -1 80 28.5t65.5 79t44.5 90.5t30 84q7 83 16 135q0 1 3 18t4.5 25t5.5 25t8 26.5t9.5 20.5t12.5 16t15 4q31 -4 2 -114
q-30 -108 -49 -166q-1 -46 -1.5 -159.5t-1.5 -168.5q-2 -130 -70 -207.5t-160 -73.5q-53 2 -93 21.5t-53 34t-15 20.5q-5 7 1.5 13.5t15 9.5t9.5 1q1 -3 4 -8t14.5 -17.5t25.5 -22.5t38.5 -18t52.5 -8q21 0 36 1.5t43.5 14.5t47.5 36.5t37 72t23 116.5q3 37 13 255
q-91 -219 -214 -215zM273 657q25 62 36 80q8 13 12.5 13.5t14.5 -10.5q5 -7 5 -14.5t-3 -11.5l-2 -3q-20 -38 -29 -58q-14 -30 -27 -20q-5 4 -6.5 12t-0.5 12z" />
    <glyph glyph-name="Thorn" unicode="&#xde;" horiz-adv-x="0" 
 />
    <glyph glyph-name="germandbls" unicode="&#xdf;" horiz-adv-x="267" 
d="M-5 12q3 32 9 119.5t10.5 146t14 129t20.5 110.5q6 23 48.5 25t84 -21.5t44.5 -64.5q4 -51 -24.5 -79.5t-84.5 -48.5q71 -9 106.5 -59t28.5 -109q-11 -86 -64.5 -130t-85.5 -29q-7 3 -2.5 17.5t11.5 16.5q30 5 62.5 41t37.5 86q3 33 -5 59.5t-17.5 40.5t-30 26.5
t-29 15.5t-27.5 9q-18 7 -17 12t19 16q38 23 56.5 43t19.5 49q2 34 -26.5 53t-62.5 13q-14 -2 -23 -79.5t-18 -225t-12 -185.5q-1 -6 -12 -11t-21.5 -2t-9.5 16z" />
    <glyph glyph-name="agrave" unicode="&#xe0;" horiz-adv-x="297" 
d="M127 331q1 -4 -0.5 -12t-6.5 -12q-13 -10 -27 20l-29 58q-13 13 0 29q9 11 14 10.5t13 -13.5q11 -18 36 -80zM323 137q-12 -23 -27 -45t-43.5 -46.5t-55.5 -24.5t-44 15t-21 30l-4 15q-4 -7 -11 -18t-25.5 -29t-34.5 -18q-9 0 -18.5 4.5t-20.5 15.5t-15.5 34.5t-0.5 56.5
q8 64 42.5 100t64.5 35q26 -1 39 -15t13.5 -24.5t-0.5 -17.5q-7 -24 -25 -16q-1 2 0.5 11t-6 20.5t-22.5 11.5q-21 1 -40.5 -26t-27.5 -62q-9 -34 -3 -63.5t23 -29.5q24 0 45.5 47t26.5 78q2 4 11 4.5t18 -5.5t8 -13q-1 0 -4 -11t-5 -27t-1 -31.5t11 -26.5t29 -11
q52 0 122 128q7 12 11 1q7 -17 -9 -47z" />
    <glyph glyph-name="aacute" unicode="&#xe1;" horiz-adv-x="297" 
d="M136 331q25 62 36 80q8 13 13 13.5t14 -10.5q6 -7 6 -14.5t-3 -11.5l-3 -3q-20 -38 -29 -58q-14 -30 -27 -20q-5 4 -6.5 12t-0.5 12zM323 137q-12 -23 -27 -45t-43.5 -46.5t-55.5 -24.5t-44 15t-21 30l-4 15q-4 -7 -11 -18t-25.5 -29t-34.5 -18q-9 0 -18.5 4.5
t-20.5 15.5t-15.5 34.5t-0.5 56.5q8 64 42.5 100t64.5 35q26 -1 39 -15t13.5 -24.5t-0.5 -17.5q-7 -24 -25 -16q-1 2 0.5 11t-6 20.5t-22.5 11.5q-21 1 -40.5 -26t-27.5 -62q-9 -34 -3 -63.5t23 -29.5q24 0 45.5 47t26.5 78q2 4 11 4.5t18 -5.5t8 -13q-1 0 -4 -11t-5 -27
t-1 -31.5t11 -26.5t29 -11q52 0 122 128q7 12 11 1q7 -17 -9 -47z" />
    <glyph glyph-name="acircumflex" unicode="&#xe2;" horiz-adv-x="297" 
d="M87 323q8 9 48 49q17 18 26 1q10 -15 25 -45q6 -9 -8 -23q-13 -14 -24 8q-3 5 -8.5 13.5t-7.5 11.5q-1 -1 -15 -14.5t-19 -18.5q-6 -5 -14.5 2.5t-2.5 15.5zM323 137q-12 -23 -27 -45t-43.5 -46.5t-55.5 -24.5t-44 15t-21 30l-4 15q-4 -7 -11 -18t-25.5 -29t-34.5 -18
q-9 0 -18.5 4.5t-20.5 15.5t-15.5 34.5t-0.5 56.5q8 64 42.5 100t64.5 35q26 -1 39 -15t13.5 -24.5t-0.5 -17.5q-7 -24 -25 -16q-1 2 0.5 11t-6 20.5t-22.5 11.5q-21 1 -40.5 -26t-27.5 -62q-9 -34 -3 -63.5t23 -29.5q24 0 45.5 47t26.5 78q2 4 11 4.5t18 -5.5t8 -13
q-1 0 -4 -11t-5 -27t-1 -31.5t11 -26.5t29 -11q52 0 122 128q7 12 11 1q7 -17 -9 -47z" />
    <glyph glyph-name="atilde" unicode="&#xe3;" horiz-adv-x="297" 
d="M44 329q14 19 41 19q14 -1 32.5 -9t23.5 -9q17 -3 37 17q6 5 10.5 1t7 -11t0.5 -8q-32 -32 -60 -26q-2 1 -13 5.5t-19.5 7t-20.5 4t-18 -5.5q-7 -5 -11.5 -1.5t-7.5 9.5t-2 7zM323 137q-12 -23 -27 -45t-43.5 -46.5t-55.5 -24.5t-44 15t-21 30l-4 15q-4 -7 -11 -18
t-25.5 -29t-34.5 -18q-9 0 -18.5 4.5t-20.5 15.5t-15.5 34.5t-0.5 56.5q8 64 42.5 100t64.5 35q26 -1 39 -15t13.5 -24.5t-0.5 -17.5q-7 -24 -25 -16q-1 2 0.5 11t-6 20.5t-22.5 11.5q-21 1 -40.5 -26t-27.5 -62q-9 -34 -3 -63.5t23 -29.5q24 0 45.5 47t26.5 78q2 4 11 4.5
t18 -5.5t8 -13q-1 0 -4 -11t-5 -27t-1 -31.5t11 -26.5t29 -11q52 0 122 128q7 12 11 1q7 -17 -9 -47z" />
    <glyph glyph-name="adieresis" unicode="&#xe4;" horiz-adv-x="297" 
d="M79 364q26 -4 21 -38q-2 -11 -10.5 -17t-19.5 -5q-22 3 -22 29q1 10 9 21.5t22 9.5zM171 364q25 -3 23 -32q0 -15 -11.5 -23t-21.5 -7q-24 4 -21 27q0 10 9 23t22 12zM323 137q-12 -23 -27 -45t-43.5 -46.5t-55.5 -24.5t-44 15t-21 30l-4 15q-4 -7 -11 -18t-25.5 -29
t-34.5 -18q-9 0 -18.5 4.5t-20.5 15.5t-15.5 34.5t-0.5 56.5q8 64 42.5 100t64.5 35q26 -1 39 -15t13.5 -24.5t-0.5 -17.5q-7 -24 -25 -16q-1 2 0.5 11t-6 20.5t-22.5 11.5q-21 1 -40.5 -26t-27.5 -62q-9 -34 -3 -63.5t23 -29.5q24 0 45.5 47t26.5 78q2 4 11 4.5t18 -5.5
t8 -13q-1 0 -4 -11t-5 -27t-1 -31.5t11 -26.5t29 -11q52 0 122 128q7 12 11 1q7 -17 -9 -47z" />
    <glyph glyph-name="aring" unicode="&#xe5;" horiz-adv-x="297" 
d="M146 360q-8 1 -12.5 -5.5t-4.5 -11.5q0 -14 12 -16q14 -2 16 12q2 19 -11 21zM151 383q31 -3 29 -41q-1 -20 -13 -29.5t-29 -7.5t-26 15.5t-6 28.5q4 14 16 25t29 9zM323 137q-12 -23 -27 -45t-43.5 -46.5t-55.5 -24.5t-44 15t-21 30l-4 15q-4 -7 -11 -18t-25.5 -29
t-34.5 -18q-9 0 -18.5 4.5t-20.5 15.5t-15.5 34.5t-0.5 56.5q8 64 42.5 100t64.5 35q26 -1 39 -15t13.5 -24.5t-0.5 -17.5q-7 -24 -25 -16q-1 2 0.5 11t-6 20.5t-22.5 11.5q-21 1 -40.5 -26t-27.5 -62q-9 -34 -3 -63.5t23 -29.5q24 0 45.5 47t26.5 78q2 4 11 4.5t18 -5.5
t8 -13q-1 0 -4 -11t-5 -27t-1 -31.5t11 -26.5t29 -11q52 0 122 128q7 12 11 1q7 -17 -9 -47z" />
    <glyph glyph-name="ae" unicode="&#xe6;" horiz-adv-x="337" 
d="M211 172q26 66 3 71q-16 2 -36.5 -54t-11.5 -96q9 11 16 19.5t12 18t6.5 13t5.5 15t5 13.5zM135 179l3 12q1 6 -0.5 14t-8.5 17.5t-21 9.5q-21 1 -40.5 -26t-27.5 -62q-9 -34 -3 -63.5t23 -29.5q24 0 45.5 47t26.5 78q0 3 3 3zM133 92l-5 -11q-4 -7 -11 -18t-25.5 -29
t-34.5 -18q-9 0 -18.5 4.5t-20.5 15.5t-15.5 34.5t-0.5 56.5q8 64 42.5 100t64.5 35q37 -1 49 -27q37 60 76 36q7 -4 12 -9.5t7 -11.5t4 -11.5t0.5 -13.5t-1.5 -12.5t-3.5 -14t-4.5 -13t-5 -13.5t-5 -12q-16 -41 -58 -92q16 -14 42 -14q15 0 28.5 4.5t26.5 15t22 18
t20.5 24.5t16 23t15.5 25t11 20q7 12 11 0q6 -17 -10 -47q-7 -13 -14.5 -26t-26 -38t-43.5 -40t-51 -15q-78 1 -95 74z" />
    <glyph glyph-name="ccedilla" unicode="&#xe7;" horiz-adv-x="249" 
d="M275 138l-7.5 -15t-19 -29t-31.5 -35.5t-44.5 -29t-57.5 -16.5l-4 -10q12 2 21 -5t8 -19q-1 -19 -18.5 -25.5t-45.5 3.5q-5 2 2 7q3 4 6 3q29 -9 37 5q7 12 -8 16q-8 3 -20 0q0 2 -3 1l10 24q-45 2 -73 31.5t-27 76.5q2 55 35.5 104.5t84.5 47.5q25 -1 39 -15t14 -36
q0 -30 -27 -57q-15 -15 -27 -6q-4 3 -2.5 12t6.5 15q8 10 12 22.5t0.5 22.5t-16.5 11q-29 2 -53.5 -32t-25.5 -79q-2 -46 14.5 -66.5t58.5 -21.5q19 0 36 4.5t32 15.5t25.5 20t22.5 26.5t17 25.5t15 26.5t11 20.5q6 12 11 2q8 -15 -8 -46z" />
    <glyph glyph-name="egrave" unicode="&#xe8;" horiz-adv-x="138" 
d="M47 331q1 -4 -0.5 -12t-6.5 -12q-13 -10 -27 20l-29 58q-13 13 0 29q9 11 14 10.5t13 -13.5q11 -18 36 -80zM11 172q26 66 3 71q-16 2 -36.5 -54t-11.5 -96q9 11 16 19.5t12 18t6.5 13t5.5 15t5 13.5zM22 54q13 0 26 4.5t23 9.5t21 16.5t18 18.5t17 22t13.5 20.5t12.5 21
t10 17.5q7 12 11 0q6 -17 -10 -47q-7 -13 -14.5 -26t-26 -38t-43.5 -40t-51 -15q-105 2 -100 127q2 49 35 99t70 27q6 -4 10.5 -9t7.5 -9.5t3.5 -11t1.5 -10.5t-0.5 -12.5t-2 -11.5t-3.5 -12.5t-4 -11.5t-5 -12t-4 -11q-16 -41 -58 -92q16 -14 42 -14z" />
    <glyph glyph-name="eacute" unicode="&#xe9;" horiz-adv-x="138" 
d="M46 331q25 62 36 80q8 13 13 13.5t14 -10.5q6 -7 6 -14.5t-3 -11.5l-3 -3q-20 -38 -29 -58q-14 -30 -27 -20q-5 4 -6.5 12t-0.5 12zM11 172q26 66 3 71q-16 2 -36.5 -54t-11.5 -96q9 11 16 19.5t12 18t6.5 13t5.5 15t5 13.5zM22 54q13 0 26 4.5t23 9.5t21 16.5t18 18.5
t17 22t13.5 20.5t12.5 21t10 17.5q7 12 11 0q6 -17 -10 -47q-7 -13 -14.5 -26t-26 -38t-43.5 -40t-51 -15q-105 2 -100 127q2 49 35 99t70 27q6 -4 10.5 -9t7.5 -9.5t3.5 -11t1.5 -10.5t-0.5 -12.5t-2 -11.5t-3.5 -12.5t-4 -11.5t-5 -12t-4 -11q-16 -41 -58 -92
q16 -14 42 -14z" />
    <glyph glyph-name="ecircumflex" unicode="&#xea;" horiz-adv-x="138" 
d="M-18 323q8 9 48 49q17 18 26 1q10 -15 25 -45q6 -9 -8 -23q-13 -14 -24 8q-3 5 -8.5 13.5t-7.5 11.5q-1 -1 -15 -14.5t-19 -18.5q-6 -5 -14.5 2.5t-2.5 15.5zM11 172q26 66 3 71q-16 2 -36.5 -54t-11.5 -96q9 11 16 19.5t12 18t6.5 13t5.5 15t5 13.5zM22 54q13 0 26 4.5
t23 9.5t21 16.5t18 18.5t17 22t13.5 20.5t12.5 21t10 17.5q7 12 11 0q6 -17 -10 -47q-7 -13 -14.5 -26t-26 -38t-43.5 -40t-51 -15q-105 2 -100 127q2 49 35 99t70 27q6 -4 10.5 -9t7.5 -9.5t3.5 -11t1.5 -10.5t-0.5 -12.5t-2 -11.5t-3.5 -12.5t-4 -11.5t-5 -12t-4 -11
q-16 -41 -58 -92q16 -14 42 -14z" />
    <glyph glyph-name="edieresis" unicode="&#xeb;" horiz-adv-x="138" 
d="M4 364q26 -4 21 -38q-2 -11 -10.5 -17t-19.5 -5q-22 3 -22 29q1 10 9 21.5t22 9.5zM96 364q25 -3 23 -32q0 -15 -11.5 -23t-21.5 -7q-24 4 -21 27q0 10 9 23t22 12zM11 172q26 66 3 71q-16 2 -36.5 -54t-11.5 -96q9 11 16 19.5t12 18t6.5 13t5.5 15t5 13.5zM22 54
q13 0 26 4.5t23 9.5t21 16.5t18 18.5t17 22t13.5 20.5t12.5 21t10 17.5q7 12 11 0q6 -17 -10 -47q-7 -13 -14.5 -26t-26 -38t-43.5 -40t-51 -15q-105 2 -100 127q2 49 35 99t70 27q6 -4 10.5 -9t7.5 -9.5t3.5 -11t1.5 -10.5t-0.5 -12.5t-2 -11.5t-3.5 -12.5t-4 -11.5t-5 -12
t-4 -11q-16 -41 -58 -92q16 -14 42 -14z" />
    <glyph glyph-name="igrave" unicode="&#xec;" horiz-adv-x="193" 
d="M69 272q1 -4 -0.5 -12t-6.5 -12q-13 -10 -27 20l-29 58q-13 13 0 29q9 11 14 10.5t13 -13.5q11 -18 36 -80zM238 138q-6 -12 -14.5 -26t-27 -38.5t-42.5 -40.5t-49 -16q-27 0 -46 14t-26.5 34.5t-10 36.5t-1.5 25l10 67q5 13 21.5 12.5t16.5 -14.5l-3 -12q-2 -13 -4 -28
t-2 -34t4 -34t15.5 -25t29.5 -9q54 2 126 134q7 12 11 1q8 -16 -8 -47z" />
    <glyph glyph-name="iacute" unicode="&#xed;" horiz-adv-x="193" 
d="M46 270q25 62 36 80q8 13 13 13.5t14 -10.5q6 -7 6 -14.5t-3 -10.5l-3 -4q-20 -38 -29 -58q-14 -30 -27 -20q-5 4 -6.5 12t-0.5 12zM218 138q-6 -12 -14.5 -26t-27 -38.5t-42.5 -40.5t-49 -16q-27 0 -46 14t-26.5 34.5t-10 36.5t-1.5 25l10 67q5 13 21.5 12.5t16.5 -14.5
l-3 -12q-2 -13 -4 -28t-2 -34t4 -34t15.5 -25t29.5 -9q54 2 126 134q7 12 11 1q8 -16 -8 -47z" />
    <glyph glyph-name="icircumflex" unicode="&#xee;" horiz-adv-x="193" 
d="M3 263q8 9 48 49q17 18 26 1q10 -15 25 -45q6 -9 -8 -23q-13 -14 -24 8q-3 5 -8.5 13.5t-7.5 11.5q-1 -1 -15 -14.5t-19 -18.5q-6 -5 -14.5 2.5t-2.5 15.5zM239 138q-6 -12 -14.5 -26t-27 -38.5t-42.5 -40.5t-49 -16q-27 0 -46 14t-26.5 34.5t-10 36.5t-1.5 25l10 67
q5 13 21.5 12.5t16.5 -14.5l-2 -12q-3 -13 -5 -28t-2 -34t4 -34t15.5 -25t29.5 -9q54 2 126 134q7 12 11 1q8 -16 -8 -47z" />
    <glyph glyph-name="idieresis" unicode="&#xef;" horiz-adv-x="193" 
d="M31 306q26 -4 21 -38q-2 -11 -10.5 -17t-19.5 -5q-22 3 -22 29q1 11 9 22.5t22 8.5zM123 307q25 -3 23 -33q0 -15 -12 -23t-21 -6q-23 4 -21 26q0 10 9 23.5t22 12.5zM251 138q-6 -12 -14.5 -26t-27 -38.5t-42.5 -40.5t-49 -16q-27 0 -46 14t-26.5 34.5t-10 36.5t-1.5 25
l10 67q5 13 21.5 12.5t16.5 -14.5l-2 -12q-3 -13 -5 -28t-2 -34t4 -34t15.5 -25t29.5 -9q54 2 126 134q7 12 11 1q8 -16 -8 -47z" />
    <glyph glyph-name="eth" unicode="&#xf0;" horiz-adv-x="0" 
 />
    <glyph glyph-name="ntilde" unicode="&#xf1;" horiz-adv-x="342" 
d="M54 141q3 36 -5 36q-1 0 -23 -40q-7 -8 -14 5q-6 9 0 21q8 14 22 37q9 16 23 16.5t25 -22.5q7 -18 4.5 -49t-5 -46.5t7.5 -23.5q4 -1 12 11.5t16.5 32t16.5 39t15.5 38t9.5 23.5q7 16 21 16t26 -15q4 -5 -4 -46t-3.5 -78.5t39.5 -40.5q21 -2 41 9.5t39.5 38.5t27 39
t22.5 40q7 12 11 0q6 -17 -9 -47q-6 -12 -14 -24.5t-25.5 -36t-42 -37.5t-50.5 -13q-35 1 -53 21t-18.5 43.5t-2 44t-3.5 21.5t-12.5 -29.5t-29 -61t-40.5 -29.5q-25 2 -28 39.5t3 67.5zM38 288q14 19 41 19q14 -1 32.5 -9t23.5 -9q17 -3 37 17q6 5 10.5 1t7 -11t0.5 -8
q-32 -32 -60 -26q-2 1 -13 5.5t-19.5 7t-20.5 4t-18 -5.5q-7 -5 -11.5 -1.5t-7.5 9.5t-2 7z" />
    <glyph glyph-name="ograve" unicode="&#xf2;" horiz-adv-x="236" 
d="M92 331q1 -4 -0.5 -12t-6.5 -12q-13 -10 -27 20l-29 58q-13 13 0 29q9 11 14 10.5t13 -13.5q11 -18 36 -80zM26 105q-3 -61 33 -63q17 -1 32.5 18.5t23.5 45.5q-43 25 -60 71q-8 -6 -18 -31.5t-11 -40.5zM121 143q0 16 -0.5 29.5t-2.5 28t-8 22.5t-14 7q-12 -1 -15 -15
t2 -27q8 -26 38 -45zM249 165l10 17q6 11 12 1q5 -9 0 -26q-10 -31 -43 -51.5t-84 -9.5q-12 -38 -35.5 -61.5t-58.5 -21.5q-33 2 -47 32t-11 63q3 35 18.5 75t37.5 43q7 35 45 38q24 2 45 -28t16 -89q0 -6 -2 -18q24 -12 52.5 -3.5t44.5 39.5z" />
    <glyph glyph-name="oacute" unicode="&#xf3;" horiz-adv-x="236" 
d="M116 330q25 62 36 80q8 13 13 13.5t14 -10.5q6 -7 6 -14.5t-3 -10.5l-3 -4q-20 -38 -29 -58q-14 -30 -27 -20q-5 4 -6.5 12t-0.5 12zM26 105q-3 -61 33 -63q17 -1 32.5 18.5t23.5 45.5q-43 25 -60 71q-8 -6 -18 -31.5t-11 -40.5zM121 143q0 16 -0.5 29.5t-2.5 28t-8 22.5
t-14 7q-12 -1 -15 -15t2 -27q8 -26 38 -45zM249 165l10 17q6 11 12 1q5 -9 0 -26q-10 -31 -43 -51.5t-84 -9.5q-12 -38 -35.5 -61.5t-58.5 -21.5q-33 2 -47 32t-11 63q3 35 18.5 75t37.5 43q7 35 45 38q24 2 45 -28t16 -89q0 -6 -2 -18q24 -12 52.5 -3.5t44.5 39.5z" />
    <glyph glyph-name="ocircumflex" unicode="&#xf4;" horiz-adv-x="236" 
d="M62 323q8 9 48 49q17 18 26 1q10 -15 25 -45q6 -9 -8 -23q-13 -14 -24 8q-3 5 -8.5 13.5t-7.5 11.5q-1 -1 -15 -14.5t-19 -18.5q-6 -5 -14.5 2.5t-2.5 15.5zM26 105q-3 -61 33 -63q17 -1 32.5 18.5t23.5 45.5q-43 25 -60 71q-8 -6 -18 -31.5t-11 -40.5zM121 143
q0 16 -0.5 29.5t-2.5 28t-8 22.5t-14 7q-12 -1 -15 -15t2 -27q8 -26 38 -45zM249 165l10 17q6 11 12 1q5 -9 0 -26q-10 -31 -43 -51.5t-84 -9.5q-12 -38 -35.5 -61.5t-58.5 -21.5q-33 2 -47 32t-11 63q3 35 18.5 75t37.5 43q7 35 45 38q24 2 45 -28t16 -89q0 -6 -2 -18
q24 -12 52.5 -3.5t44.5 39.5z" />
    <glyph glyph-name="otilde" unicode="&#xf5;" horiz-adv-x="236" 
d="M26 105q-3 -61 33 -63q17 -1 32.5 18.5t23.5 45.5q-43 25 -60 71q-8 -6 -18 -31.5t-11 -40.5zM121 143q0 16 -0.5 29.5t-2.5 28t-8 22.5t-14 7q-12 -1 -15 -15t2 -27q8 -26 38 -45zM249 165l10 17q6 11 12 1q5 -9 0 -26q-10 -31 -43 -51.5t-84 -9.5q-12 -38 -35.5 -61.5
t-58.5 -21.5q-33 2 -47 32t-11 63q3 35 18.5 75t37.5 43q7 35 45 38q24 2 45 -28t16 -89q0 -6 -2 -18q24 -12 52.5 -3.5t44.5 39.5zM38 320q14 19 41 19q14 -1 32.5 -9t23.5 -9q17 -3 37 17q6 5 10.5 1t7 -11t0.5 -8q-32 -32 -60 -26q-2 1 -13 5.5t-19.5 7t-20.5 4t-18 -5.5
q-7 -5 -11.5 -1.5t-7.5 9.5t-2 7z" />
    <glyph glyph-name="odieresis" unicode="&#xf6;" horiz-adv-x="236" 
d="M79 364q26 -4 21 -38q-2 -11 -10.5 -17t-19.5 -5q-22 3 -22 29q1 10 9 21.5t22 9.5zM171 364q25 -3 23 -32q0 -15 -11.5 -23t-21.5 -7q-24 4 -21 27q0 10 9 23t22 12zM26 105q-3 -61 33 -63q17 -1 32.5 18.5t23.5 45.5q-43 25 -60 71q-8 -6 -18 -31.5t-11 -40.5zM121 143
q0 16 -0.5 29.5t-2.5 28t-8 22.5t-14 7q-12 -1 -15 -15t2 -27q8 -26 38 -45zM249 165l10 17q6 11 12 1q5 -9 0 -26q-10 -31 -43 -51.5t-84 -9.5q-12 -38 -35.5 -61.5t-58.5 -21.5q-33 2 -47 32t-11 63q3 35 18.5 75t37.5 43q7 35 45 38q24 2 45 -28t16 -89q0 -6 -2 -18
q24 -12 52.5 -3.5t44.5 39.5z" />
    <glyph glyph-name="divide" unicode="&#xf7;" horiz-adv-x="255" 
d="M225 238q16 -5 22 -23q2 -7 -2.5 -10.5t-18.5 -2.5q-14 2 -95.5 -2t-85.5 -4q-6 -1 -10.5 -1t-9 3t-9.5 10q-11 15 6 18q94 19 203 12zM95 290q-2 11 4.5 20.5t17.5 10.5q10 1 18.5 -4.5t9.5 -14.5q2 -12 -5 -23t-17 -12t-18 5.5t-10 17.5zM102 138v-1q-2 11 5 21.5
t18 11.5q10 2 18 -4t9 -16q2 -12 -4.5 -22.5t-17.5 -11.5q-10 -1 -18 5.5t-10 16.5z" />
    <glyph glyph-name="oslash" unicode="&#xf8;" horiz-adv-x="179" 
d="M97 229q-38 -4 -60 -88q-12 -43 -8 -68q44 103 68 156zM55 42h2q17 -2 35.5 24t28.5 63q11 42 1 74q-53 -131 -67 -161zM40 13l-1 -2q-7 -14 -15 -22t-11 -8.5t-12 -2.5q-11 -2 -9 10q1 11 13 35q3 3 5 10q-30 41 -7 123q11 36 36.5 72.5t59.5 35.5q1 0 2.5 -0.5l3 -1
l3 -1t3.5 -0.5l6 12l5.5 11t5 8t8 9t10.5 8q13 8 14.5 -1.5t-2.5 -17.5l-20 -49q27 -36 10 -119q-10 -50 -38.5 -81t-62.5 -29q-4 0 -7 1z" />
    <glyph glyph-name="ugrave" unicode="&#xf9;" horiz-adv-x="299" 
d="M115 316q1 -4 -0.5 -12t-6.5 -12q-13 -10 -27 20l-29 58q-13 13 0 29q9 11 14 10.5t13 -13.5q11 -18 36 -80zM324 135q-21 -37 -52.5 -68.5t-65.5 -32.5q-29 0 -48.5 18.5t-23.5 37.5l-5 19q-1 -3 -3 -8t-9 -18.5t-15 -23t-21 -17t-27 -6.5q-29 3 -43 35.5t-9 66.5
q4 31 22 89q4 22 27 15q5 -1 7.5 -3.5t2.5 -7.5t-1 -8l-3.5 -10.5t-3.5 -11.5q-7 -23 -11.5 -48.5t-1 -53t20.5 -29.5t36 31t25 59q2 8 5.5 23.5t5.5 23.5q6 25 25 20q8 -2 11 -5.5t3 -6t-2.5 -10l-3.5 -10.5q0 -1 -4 -70q0 -58 34 -62q14 -1 26.5 1.5t23.5 12t19 16.5
t18 22.5t14 22t13.5 24t10.5 19.5q7 12 12 1q8 -17 -9 -47z" />
    <glyph glyph-name="uacute" unicode="&#xfa;" horiz-adv-x="299" 
d="M100 310q25 62 36 80q8 13 13 13.5t14 -10.5q6 -7 6 -14.5t-3 -10.5l-3 -4q-20 -38 -29 -58q-14 -30 -27 -20q-5 4 -6.5 12t-0.5 12zM324 135q-21 -37 -52.5 -68.5t-65.5 -32.5q-29 0 -48.5 18.5t-23.5 37.5l-5 19q-1 -3 -3 -8t-9 -18.5t-15 -23t-21 -17t-27 -6.5
q-29 3 -43 35.5t-9 66.5q4 31 22 89q4 22 27 15q5 -1 7.5 -3.5t2.5 -7.5t-1 -8l-3.5 -10.5t-3.5 -11.5q-7 -23 -11.5 -48.5t-1 -53t20.5 -29.5t36 31t25 59q2 8 5.5 23.5t5.5 23.5q6 25 25 20q8 -2 11 -5.5t3 -6t-2.5 -10l-3.5 -10.5q0 -1 -4 -70q0 -58 34 -62
q14 -1 26.5 1.5t23.5 12t19 16.5t18 22.5t14 22t13.5 24t10.5 19.5q7 12 12 1q8 -17 -9 -47z" />
    <glyph glyph-name="ucircumflex" unicode="&#xfb;" horiz-adv-x="299" 
d="M65 323q8 9 48 49q17 18 26 1q10 -15 25 -45q6 -9 -8 -23q-13 -14 -24 8q-3 5 -8.5 13.5t-7.5 11.5q-1 -1 -15 -14.5t-19 -18.5q-6 -5 -14.5 2.5t-2.5 15.5zM324 135q-21 -37 -52.5 -68.5t-65.5 -32.5q-29 0 -48.5 18.5t-23.5 37.5l-5 19q-1 -3 -3 -8t-9 -18.5t-15 -23
t-21 -17t-27 -6.5q-29 3 -43 35.5t-9 66.5q4 31 22 89q4 22 27 15q5 -1 7.5 -3.5t2.5 -7.5t-1 -8l-3.5 -10.5t-3.5 -11.5q-7 -23 -11.5 -48.5t-1 -53t20.5 -29.5t36 31t25 59q2 8 5.5 23.5t5.5 23.5q6 25 25 20q8 -2 11 -5.5t3 -6t-2.5 -10l-3.5 -10.5q0 -1 -4 -70
q0 -58 34 -62q14 -1 26.5 1.5t23.5 12t19 16.5t18 22.5t14 22t13.5 24t10.5 19.5q7 12 12 1q8 -17 -9 -47z" />
    <glyph glyph-name="udieresis" unicode="&#xfc;" horiz-adv-x="299" 
d="M324 135q-21 -37 -52.5 -68.5t-65.5 -32.5q-29 0 -48.5 18.5t-23.5 37.5l-5 19q-1 -3 -3 -8t-9 -18.5t-15 -23t-21 -17t-27 -6.5q-29 3 -43 35.5t-9 66.5q4 31 22 89q4 22 27 15q5 -1 7.5 -3.5t2.5 -7.5t-1 -8l-3.5 -10.5t-3.5 -11.5q-7 -23 -11.5 -48.5t-1 -53
t20.5 -29.5t36 31t25 59q2 8 5.5 23.5t5.5 23.5q6 25 25 20q8 -2 11 -5.5t3 -6t-2.5 -10l-3.5 -10.5q0 -1 -4 -70q0 -58 34 -62q14 -1 26.5 1.5t23.5 12t19 16.5t18 22.5t14 22t13.5 24t10.5 19.5q7 12 12 1q8 -17 -9 -47zM77 344q26 -4 21 -38q-2 -11 -10.5 -17t-19.5 -5
q-22 3 -22 29q1 10 9 21.5t22 9.5zM169 344q25 -3 23 -32q0 -15 -11.5 -23t-21.5 -7q-24 4 -21 27q0 10 9 23t22 12z" />
    <glyph glyph-name="yacute" unicode="&#xfd;" horiz-adv-x="214" 
d="M3 -235q-4 -76 33 -76q14 0 25 7.5t18 17.5t12.5 25.5t8 25.5t4.5 24l3 14q5 19 8 41.5t4 38.5t2.5 43t2.5 40q-117 -89 -121 -201zM159 49q0 -11 -3 -28q13 5 27 -9q3 -4 0.5 -7t-7.5 -5l-4 -3q-8 -4 -20 -13q-2 -12 -2 -18q-2 -19 -2.5 -58.5t-1.5 -51.5
q-1 -32 -6.5 -63.5t-17 -65.5t-33.5 -54.5t-52 -19.5q-35 1 -53 33t-14 65q7 49 25.5 92t43.5 74.5t45.5 51t42.5 34.5q3 38 8 99q-20 -38 -38.5 -58t-41.5 -19q-28 1 -43 26.5t-11 67.5q3 30 9 54t14.5 37.5t17.5 10.5q8 -3 10 -11t0.5 -14.5t-2.5 -6.5q-15 -55 -15 -84
q0 -13 0.5 -21.5t2 -17.5t5 -13t8.5 -4q44 2 89 122q4 28 11.5 46.5t15.5 25t16 3.5q24 -8 11 -44q-34 -129 -35 -153zM97 305q25 62 36 80q8 13 13 13.5t14 -10.5q6 -7 6 -14.5t-3 -11.5l-3 -3q-20 -38 -29 -58q-14 -30 -27 -20q-5 4 -6.5 12t-0.5 12z" />
    <glyph glyph-name="thorn" unicode="&#xfe;" horiz-adv-x="0" 
 />
    <glyph glyph-name="ydieresis" unicode="&#xff;" horiz-adv-x="214" 
d="M3 -235q-4 -76 33 -76q14 0 25 7.5t18 17.5t12.5 25.5t8 25.5t4.5 24l3 14q5 19 8 41.5t4 38.5t2.5 43t2.5 40q-117 -89 -121 -201zM159 49q0 -11 -3 -28q13 5 27 -9q3 -4 0.5 -7t-7.5 -5l-4 -3q-8 -4 -20 -13q-2 -12 -2 -18q-2 -19 -2.5 -58.5t-1.5 -51.5
q-1 -32 -6.5 -63.5t-17 -65.5t-33.5 -54.5t-52 -19.5q-35 1 -53 33t-14 65q7 49 25.5 92t43.5 74.5t45.5 51t42.5 34.5q3 38 8 99q-20 -38 -38.5 -58t-41.5 -19q-28 1 -43 26.5t-11 67.5q3 30 9 54t14.5 37.5t17.5 10.5q8 -3 10 -11t0.5 -14.5t-2.5 -6.5q-15 -55 -15 -84
q0 -13 0.5 -21.5t2 -17.5t5 -13t8.5 -4q44 2 89 122q4 28 11.5 46.5t15.5 25t16 3.5q24 -8 11 -44q-34 -129 -35 -153zM74 344q26 -4 21 -38q-2 -11 -10.5 -17t-19.5 -5q-22 3 -22 29q1 10 9 21.5t22 9.5zM166 344q25 -3 23 -32q0 -15 -11.5 -23t-21.5 -7q-24 4 -21 27
q0 10 9 23t22 12z" />
    <glyph glyph-name="dotlessi" unicode="&#x131;" horiz-adv-x="196" 
 />
    <glyph glyph-name="Lslash" unicode="&#x141;" horiz-adv-x="0" 
 />
    <glyph glyph-name="lslash" unicode="&#x142;" horiz-adv-x="0" 
 />
    <glyph glyph-name="OE" unicode="&#x152;" horiz-adv-x="1390" 
d="M709 283q44 34 105 62q-57 3 -85 17q-4 -38 -20 -79zM1246 652q39 -2 67 -10t41.5 -19t18.5 -21t5 -19q-2 -48 -115 -86q-24 -7 -39 16q-3 5 6 8.5t23 6.5q26 7 46.5 18.5t29 20t8.5 13.5q0 30 -108 34q-100 4 -215.5 -24.5t-193.5 -70t-92 -75.5q3 -36 3 -37
q21 -36 134 -41q99 38 201 51q130 19 129 -8q-1 -18 -55 -35t-83 -19q-106 -10 -160 -11q-67 -20 -119 -51.5t-78 -62.5t-39 -55.5t-13 -39.5q0 -16 8.5 -34.5t31.5 -42.5t75 -40t126 -18q105 -3 210 20t148 41t54 25q22 14 22 6q0 -4 -9 -13q-6 -5 -17.5 -14t-52.5 -30.5
t-87 -37.5t-120 -28t-154 -9q-43 2 -87 11t-89.5 27.5t-73 53.5t-25.5 81v4q-66 -64 -154.5 -99.5t-184.5 -31.5q-69 3 -122.5 23.5t-83 49t-47.5 66t-23.5 68t-4.5 60.5q3 70 45 143t103.5 127t134.5 87.5t135 30.5q7 0 11.5 -2.5t6.5 -5t1 -4.5q0 -12 -22 -11
q-37 1 -98 -26t-123 -72.5t-108 -116t-49 -143.5q-2 -61 17 -106.5t46 -69t66 -38t64.5 -18t52.5 -4.5q102 -4 197.5 40t158 124.5t65.5 175.5q2 67 -17.5 114.5t-52.5 69t-60.5 30t-55.5 9.5q-45 2 -85 -4.5t-65.5 -16.5t-44.5 -20t-27 -18l-8 -7q-1 -1 -3.5 -3t-8 -5
t-7.5 0q-5 5 -4 11t5 11l3 5q4 3 11.5 9t32.5 20t52 24.5t67.5 18t80.5 6.5q78 -3 133 -44t78 -107q60 71 227 120.5t303 44.5z" />
    <glyph glyph-name="oe" unicode="&#x153;" horiz-adv-x="335" 
d="M215 178q22 35 10 59q-10 20 -28 -1q-12 -13 -22 -39q-12 -29 -15 -65q34 12 55 46zM118 131q3 29 2 52t-7.5 37t-16.5 13q-11 -1 -14 -22.5t6.5 -46t29.5 -33.5zM55 180q-3 -1 -8 -8t-11.5 -24.5t-9.5 -39.5q-3 -18 4 -39.5t29 -23.5q15 -1 31.5 17t22.5 41
q-52 19 -58 77zM133 71q-14 -26 -36 -42t-47 -13q-23 2 -37.5 19.5t-18.5 37t-3 38.5q6 66 38 106q8 10 19 12q1 15 13 26t32 12q13 1 28 -10t24 -34q1 1 2.5 4l2.5 5q23 39 51.5 44t44.5 -19.5t7 -61.5q-17 -72 -93 -95q9 -46 56 -46q15 0 29 4.5t26.5 14.5t21.5 18.5
t20 24.5t16 23.5t14.5 24.5t11.5 20q7 12 11 0q6 -17 -10 -47q-7 -13 -14.5 -26t-26 -38t-43.5 -40t-51 -15q-67 1 -88 53z" />
    <glyph glyph-name="Scaron" unicode="&#x160;" horiz-adv-x="670" 
d="M480 648h1q82 0 149 -30t64 -90q-3 -50 -65.5 -85.5t-102.5 -26.5q-21 2 -16 19q3 14 13 12q2 0 3 -1q24 -5 72 17t53 63q1 7 -1.5 15.5t-14 21t-31 22t-58 17t-90.5 8.5q-102 2 -208.5 -25.5t-171.5 -65.5t-66 -68q-1 -29 27 -57t78.5 -52t99.5 -42.5t113 -40.5
q26 -9 39 -13q18 -6 71 -22.5t79 -26.5t61.5 -26.5t50.5 -35t14 -39.5q-1 -14 -16.5 -32t-45 -36.5t-85 -30t-124.5 -9.5q-60 2 -116 15t-92.5 31t-64.5 35.5t-41 29.5l-12 12q0 1 0.5 2t2.5 3.5t5 4t8 0.5t11 -5q5 -3 14.5 -9t41 -21.5t64.5 -27.5t82.5 -22.5t97.5 -12.5
q62 -2 141 19t80 58q1 16 -16 30.5t-50 28t-64.5 23.5t-77.5 23.5t-72 22.5q-161 57 -204 76q-142 66 -138 145q2 46 55 85t131.5 63t163.5 37.5t158 13.5zM541 746q-31 -35 -48 -49q-16 -17 -26 -1q-6 9 -24 45q-6 10 7 23t25 -8q6 -12 16 -25q16 16 34 32q4 4 10 1.5t8 -8
t-2 -10.5z" />
    <glyph glyph-name="scaron" unicode="&#x161;" horiz-adv-x="235" 
d="M136 400q-4 -4 -24.5 -25.5t-23.5 -24.5q-16 -16 -26 0q-10 15 -25 45q-4 11 8 23q12 14 25 -8q3 -7 16 -25q16 16 34 32q3 4 9 1.5t8 -8t-1 -10.5zM8 140q12 4 18 -14q5 -18 18 -39q2 1 6 1q46 4 46 58q0 20 -3.5 36t-7.5 23.5t-11 18t-9 14.5q-3 -15 -14.5 -45.5
t-19.5 -44.5q-3 -3 -8 -2t-9 6.5t-1 11.5q0 1 6.5 12.5t10.5 21t10 29t9 40.5q5 40 27 40q10 0 16 -4t9 -12t4 -13t1 -15.5v-11.5q0 -10 14.5 -54.5t13.5 -56.5q-4 -36 -26 -57t-45 -17q23 -21 55 -21q11 0 21.5 3t19.5 7t18.5 12t16.5 13.5t15.5 17t13 17.5t12.5 18.5
t10.5 17t9.5 16.5t8 14q7 12 12 0q6 -17 -9 -47q-39 -69 -81 -96q-38 -25 -79 -22q-88 5 -112 106q0 14 14 18z" />
    <glyph glyph-name="Ydieresis" unicode="&#x178;" horiz-adv-x="425" 
d="M138 -16q-61 2 -96 50t-41 120.5t3.5 155t32 157.5t50.5 125l6 7q14 9 35 -31q-36 -65 -60 -158.5t-29.5 -181t19.5 -150t80 -64.5q42 -1 80 28.5t65.5 79t44.5 90.5t30 84q7 83 16 135q0 1 3 18t4.5 25t5.5 25t8 26.5t9.5 20.5t12.5 16t15 4q31 -4 2 -114
q-30 -108 -49 -166q-1 -46 -1.5 -159.5t-1.5 -168.5q-2 -130 -70 -207.5t-160 -73.5q-53 2 -93 21.5t-53 34t-15 20.5q-5 7 1.5 13.5t15 9.5t9.5 1q1 -3 4 -8t14.5 -17.5t25.5 -22.5t38.5 -18t52.5 -8q21 0 36 1.5t43.5 14.5t47.5 36.5t37 72t23 116.5q3 37 13 255
q-91 -219 -214 -215zM241 656q26 -5 21 -38q-1 -11 -10 -17.5t-20 -4.5q-25 4 -22 29q0 10 8.5 21.5t22.5 9.5zM333 656q23 -2 23 -32q-1 -15 -12.5 -23.5t-20.5 -6.5q-23 4 -21 27q0 9 9 22.5t22 12.5z" />
    <glyph glyph-name="Zcaron" unicode="&#x17d;" horiz-adv-x="0" 
 />
    <glyph glyph-name="zcaron" unicode="&#x17e;" horiz-adv-x="0" 
 />
    <glyph glyph-name="florin" unicode="&#x192;" horiz-adv-x="226" 
 />
    <glyph glyph-name="circumflex" unicode="&#x2c6;" horiz-adv-x="290" 
 />
    <glyph glyph-name="caron" unicode="&#x2c7;" 
 />
    <glyph glyph-name="breve" unicode="&#x2d8;" 
 />
    <glyph glyph-name="dotaccent" unicode="&#x2d9;" 
 />
    <glyph glyph-name="ring" unicode="&#x2da;" horiz-adv-x="195" 
 />
    <glyph glyph-name="ogonek" unicode="&#x2db;" 
 />
    <glyph glyph-name="tilde" unicode="&#x2dc;" horiz-adv-x="334" 
 />
    <glyph glyph-name="hungarumlaut" unicode="&#x2dd;" 
 />
    <glyph glyph-name="pi" unicode="&#x3c0;" horiz-adv-x="1000" 
 />
    <glyph glyph-name="endash" unicode="&#x2013;" horiz-adv-x="255" 
d="M225 238q16 -5 22 -23q2 -7 -2.5 -10.5t-18.5 -2.5q-14 2 -95.5 -2t-85.5 -4q-6 -1 -10.5 -1t-9 3t-9.5 10q-11 15 6 18q94 19 203 12z" />
    <glyph glyph-name="emdash" unicode="&#x2014;" horiz-adv-x="501" 
d="M51 202q-34 4 -46 22q-8 11 14 14q10 1 29 0q30 -1 198 3t179 4h15t13 -0.5t10 -1.5t12 -4t12 -7q10 -10 4.5 -13.5t-17.5 -4.5q-122 -12 -207 -14q-177 -3 -217 2h1z" />
    <glyph glyph-name="quoteleft" unicode="&#x2018;" horiz-adv-x="84" 
d="M50 576q14 -137 15 -152q2 -23 -14 -25q-15 0 -21 28q-2 13 -7 75t-5 73q1 11 4 15.5t11 1.5q4 -2 8 -6t6 -8l2 -3z" />
    <glyph glyph-name="quoteright" unicode="&#x2019;" horiz-adv-x="105" 
d="M56 593q4 14 23 4q8 -5 8 -20q-1 -7 -14 -87.5t-14 -82.5q-1 -3 -6.5 -8.5t-9.5 -4.5q-16 6 -16 23q1 10 13.5 88t15.5 88z" />
    <glyph glyph-name="quotesinglbase" unicode="&#x201a;" 
 />
    <glyph glyph-name="quotedblleft" unicode="&#x201c;" horiz-adv-x="183" 
d="M49 575l1 1q14 -137 15 -152q2 -23 -14 -25q-15 0 -21 28q-2 13 -7 75t-5 73q1 11 4 15.5t11 1.5q4 -2 8 -6t6 -8zM75 573h-1q-1 9 4.5 12t16.5 4q5 1 8 -2t3.5 -5.5t2.5 -8.5q0 -1 2.5 -26t5.5 -52t6.5 -52t4.5 -30q2 -6 -1.5 -14t-10.5 -9q-15 -1 -21 13q-3 8 -11 80.5
t-9 89.5z" />
    <glyph glyph-name="quotedblright" unicode="&#x201d;" horiz-adv-x="183" 
d="M36 593q4 14 23 4q8 -5 8 -20q-1 -7 -14 -87.5t-14 -82.5q-1 -3 -6.5 -8.5t-9.5 -4.5q-16 6 -16 23q1 10 13.5 88t15.5 88zM100 586v-1q4 11 17 8q15 -2 13 -20q-1 -10 -12.5 -74.5t-14.5 -75.5q-3 -10 -5 -15.5t-7 -10t-12 -1.5q-10 4 -12 8t-1 15q28 149 34 167z" />
    <glyph glyph-name="quotedblbase" unicode="&#x201e;" horiz-adv-x="250" 
 />
    <glyph glyph-name="dagger" unicode="&#x2020;" 
 />
    <glyph glyph-name="daggerdbl" unicode="&#x2021;" 
 />
    <glyph glyph-name="ellipsis" unicode="&#x2026;" horiz-adv-x="870" 
 />
    <glyph glyph-name="perthousand" unicode="&#x2030;" horiz-adv-x="599" 
 />
    <glyph glyph-name="guilsinglleft" unicode="&#x2039;" horiz-adv-x="220" 
 />
    <glyph glyph-name="guilsinglright" unicode="&#x203a;" horiz-adv-x="207" 
 />
    <glyph glyph-name="fraction" unicode="&#x2044;" horiz-adv-x="205" 
 />
    <glyph glyph-name="Euro" unicode="&#x20ac;" horiz-adv-x="592" 
d="M337 270q15 0 8 -17q-1 -4 -3 -6.5t-3.5 -3.5t-5 -2t-5 -1t-5.5 -0.5t-6 -0.5q-9 -1 -214 -10q11 -53 33.5 -94t47.5 -64t55.5 -38t52.5 -19.5t42 -5.5q72 -3 126.5 14.5t73.5 35.5l19 19q4 5 6.5 6.5t3 2t2.5 -1t3 -2.5q6 -4 6.5 -12t-5.5 -15q-3 -3 -9.5 -9t-28.5 -20
t-46.5 -24.5t-63 -18t-79.5 -6.5q-106 4 -183.5 75.5t-95.5 174.5q-56 -4 -57 -4q-13 -3 -14.5 3.5t1.5 14.5q3 7 66 14q-2 25 -1 37q-42 -2 -50 -3q-5 -3 -8 -1t-5 1t-3 2.5t-1 4t-0.5 4.5t-0.5 5q-1 12 20 15q10 1 51 3q18 111 110.5 189.5t226.5 88.5q67 5 117 -13
q13 -5 10 -15q0 -12 -16 -7q-78 24 -167 -2t-155.5 -91t-83.5 -147q206 9 241 6h4q4 -1 5 -1.5t1 -3.5t-3 -8q-8 -15 -29 -15q-22 0 -224 -9q0 -24 1 -35q184 16 238 10z" />
    <glyph glyph-name="Omega" unicode="&#x2126;" 
 />
    <glyph glyph-name="partialdiff" unicode="&#x2202;" 
 />
    <glyph glyph-name="Delta" unicode="&#x2206;" 
 />
    <glyph glyph-name="product" unicode="&#x220f;" horiz-adv-x="1000" 
 />
    <glyph glyph-name="summation" unicode="&#x2211;" 
 />
    <glyph glyph-name="minus" unicode="&#x2212;" horiz-adv-x="0" 
 />
    <glyph glyph-name="radical" unicode="&#x221a;" 
 />
    <glyph glyph-name="infinity" unicode="&#x221e;" 
 />
    <glyph glyph-name="integral" unicode="&#x222b;" horiz-adv-x="1000" 
 />
    <glyph glyph-name="approxequal" unicode="&#x2248;" 
 />
    <glyph glyph-name="notequal" unicode="&#x2260;" 
 />
    <glyph glyph-name="lessequal" unicode="&#x2264;" 
 />
    <glyph glyph-name="greaterequal" unicode="&#x2265;" 
 />
    <glyph glyph-name="lozenge" unicode="&#x25ca;" 
 />
    <glyph glyph-name="apple" unicode="&#xf8ff;" 
 />
    <glyph glyph-name="fi" unicode="&#xfb01;" horiz-adv-x="451" 
 />
    <glyph glyph-name="fl" unicode="&#xfb02;" horiz-adv-x="540" 
 />
    <glyph glyph-name="NUL" horiz-adv-x="0" 
 />
    <glyph glyph-name="z.alt" horiz-adv-x="252" 
d="M87 63q14 -1 40 -12.5t47 -7.5t53 31q6 6 14 0t-3 -16q-6 -5 -11.5 -10.5t-10.5 -9.5t-14 -9q-29 -17 -51.5 -17.5t-34.5 7.5t-31.5 10t-42.5 -11q-17 -10 -25 1t6 24q2 2 38 37t58.5 61t37.5 51q-25 -4 -52 10t-42 2q-5 -3 -17.5 8t-0.5 19q22 16 43 14.5t35.5 -11
t36.5 -8t45 21.5q6 5 12.5 6.5t10.5 -0.5t6.5 -6t1.5 -9.5t-6 -11.5q-67 -97 -143 -164z" />
    </font>
</defs>
</svg>
