<?xml version="1.0" standalone="no"?>
<!DOCTYPE svg PUBLIC "-//W3C//DTD SVG 1.1//EN" "http://www.w3.org/Graphics/SVG/1.1/DTD/svg11.dtd" >
<svg xmlns="http://www.w3.org/2000/svg" xmlns:xlink="http://www.w3.org/1999/xlink" version="1.1">
<metadata>
Created by FontForge 20161013 at Wed Jan 28 06:32:10 2015
 By ,,,
Copyright (c) 2011 by Brittney Murphy. All rights reserved.
</metadata>
<defs>
<font id="SweetlyBroken" horiz-adv-x="199" >
  <font-face 
    font-family="Sweetly Broken"
    font-weight="400"
    font-stretch="normal"
    units-per-em="1000"
    panose-1="0 0 0 0 0 0 0 0 0 0"
    ascent="750"
    descent="-250"
    x-height="109"
    cap-height="562"
    bbox="-369 -370 1035 741"
    underline-thickness="50"
    underline-position="-150"
    unicode-range="U+0020-2212"
  />
<missing-glyph horiz-adv-x="128" 
 />
    <glyph glyph-name=".notdef" horiz-adv-x="128" 
 />
    <glyph glyph-name=".null" horiz-adv-x="0" 
 />
    <glyph glyph-name="nonmarkingreturn" horiz-adv-x="333" 
 />
    <glyph glyph-name="space" unicode=" " horiz-adv-x="128" 
 />
    <glyph glyph-name="exclam" unicode="!" horiz-adv-x="79" 
d="M26 321q0 6 5 6q3 0 5.5 -10.5t4.5 -24t3 -26.5t1 -18q1 -23 1.5 -45.5t0.5 -44.5v-22t-0.5 -28t-2 -24.5t-4.5 -10.5q-5 0 -5 6q-1 17 -2.5 40.5t-3 50t-3 54.5t-1.5 55v21.5t1 20.5zM45 33q5 0 5 -5q0 -3 -4 -5q-2 -1 -3 -2v-2q4 -2 4 -5q0 -5 -6 -7.5t-7 -2.5
q-5 0 -7 3.5t-2 8.5q0 6 3.5 11.5t11.5 5.5h3h2z" />
    <glyph glyph-name="quotedbl" unicode="&#x22;" horiz-adv-x="86" 
d="M11 420q0 5 5 5q3 0 5.5 -7.5t4 -18t2 -21t0.5 -15.5q0 -8 -1 -21t-6 -13q-3 0 -5.5 8t-4 18t-2 20t-0.5 15q0 7 0.5 14.5t1.5 15.5zM58 420q0 5 5 5q3 0 4.5 -5t2.5 -11.5t1.5 -13t0.5 -10.5t-1 -11.5t-2.5 -15t-4 -13t-6.5 -5.5q-5 0 -5 6q2 27 1.5 41.5t3.5 32.5z" />
    <glyph glyph-name="numbersign" unicode="#" horiz-adv-x="251" 
d="M41 142q0 6 4 6q2 0 3.5 -2t2.5 -2q2 0 7 3t11 5q-3 24 -3 51q-10 -1 -19.5 -1.5t-19.5 -0.5q-5 0 -11.5 0.5t-6.5 5.5q0 2 6.5 4t15.5 3l18 2t15 2q-1 17 -1.5 33.5t-0.5 33.5v20.5t5 12.5t6 -4l7 -92q23 4 46 7.5t46 6.5q0 5 0.5 15.5t1 20.5t2.5 17.5t5 7.5t5 -6
l1 -53h40q5 0 5 -5q0 -2 -4 -3.5t-10 -2l-12 -1t-10 -0.5q1 0 5.5 0.5t5.5 0.5l-20 -4v-47q8 1 17 1h19q4 -1 4 -6q0 -4 -13 -5.5t-28 -5.5q0 -8 -0.5 -23.5t-1.5 -31t-3 -27t-5 -11.5t-4.5 11t-2 26t-0.5 30v23q-19 -5 -41 -9.5t-42 -8.5v-33v-10.5v-13t-1.5 -11t-4.5 -4.5
q-4 0 -4 4l-6 65q-3 0 -7 -0.5t-7 -0.5q-13 0 -15 6v1zM82 206q1 -14 1.5 -26t1.5 -23q22 5 42.5 10t41.5 7q0 11 0.5 22.5t1.5 22.5q-23 -5 -44.5 -8.5t-44.5 -4.5zM85 156v-1l1 1h-1z" />
    <glyph glyph-name="dollar" unicode="$" horiz-adv-x="235" 
d="M87 341q3 5 6 5q4 0 4 -6v-3q0 -6 2 -18t3 -14q8 2 16.5 2.5t15.5 0.5q10 0 21.5 -3t11.5 -11q0 -5 -4 -4t-6 -1q-4 0 -4 5v2q-3 1 -5.5 1.5t-6.5 0.5q-8 0 -17.5 -2.5t-19.5 -4.5q2 -23 4 -45t2 -31q7 -5 24 -13t33.5 -19t29.5 -24t13 -27q0 -16 -25.5 -37t-70.5 -30
v-18.5t-1 -23t-2.5 -20t-4.5 -8.5q-5 0 -6 11.5t-1 18.5v-24q-1 18 -1.5 29.5t-1.5 29.5q-17 -3 -34 -3q-21 0 -34.5 7.5t-13.5 19.5q0 5 3 5t5 -2q8 -11 14.5 -14t23.5 -3q14 0 36 5q0 12 -0.5 28.5t-1.5 33.5t-1.5 33.5t-0.5 28.5q-12 4 -26 9.5t-26.5 13t-20.5 16.5
t-8 20q0 12 22.5 23t53.5 20q0 5 -0.5 11.5t-0.5 11.5t0.5 9t0.5 8zM114 78q40 7 57.5 19.5t17.5 27.5q0 18 -21.5 36.5t-55.5 31.5q0 -11 0.5 -26t1 -31t0.5 -31v-27zM30 257q2 -6 10 -12.5t17.5 -12t19 -8.5t15.5 -3q-2 16 -1.5 32t-1.5 34q-11 -4 -21 -7.5t-16 -7.5l2 1
h1q-8 -3 -14 -7t-11 -9z" />
    <glyph glyph-name="percent" unicode="%" horiz-adv-x="309" 
d="M81 333q17 -7 31 -16.5t14 -28.5q0 -11 -7 -20t-17.5 -15t-24.5 -9.5t-27 -3.5q-19 0 -32.5 7.5t-13.5 25.5q0 16 7 30t17 23.5t21.5 15t20.5 5.5q13 0 13 -11zM255 418q2 4 4 4q6 0 6 -5q0 -6 -3.5 -12.5t-8.5 -13l-10 -13t-8 -10.5q-56 -92 -94.5 -196t-69.5 -210
q-1 -3 -5 -3q-5 0 -5 6q13 53 28 106.5t34.5 105t44 101.5t56.5 97q5 8 16 20.5t15 22.5zM225 181q5 0 5 -5t-4 -5q-20 -4 -29.5 -13t-9.5 -26q0 -13 8 -22t25 -9q6 0 16.5 2t21 5.5t18.5 9t8 13.5q0 6 -6.5 12t-14 12t-13.5 11.5t-6 9.5q0 5 5 5h1l2 -1q6 -5 14.5 -10.5
t16.5 -12t13.5 -14t5.5 -17.5q0 -11 -9.5 -19t-23 -13t-28.5 -8t-26 -3q-23 0 -33.5 16t-10.5 33q0 14 7.5 28.5t21.5 16.5l23 4h2zM75 326q-2 0 -3 1t-1 2q0 2 2 4v3q-5 -2 -9.5 -2.5t-9.5 -2.5q-9 -5 -20.5 -22t-11.5 -32q0 -8 4.5 -13.5t15.5 -5.5q36 0 52.5 12.5
t16.5 18.5q0 8 -10 17.5t-26 19.5z" />
    <glyph glyph-name="ampersand" unicode="&#x26;" horiz-adv-x="243" 
d="M256 -18q3 -2 3 -6t-5 -4q-4 1 -15 8t-25 16.5t-28.5 20t-25.5 18.5q-23 -8 -51 -17.5t-56 -9.5q-24 0 -34 4.5t-10 12.5t8.5 18.5t20.5 21.5t24.5 21t20.5 16l-20 21q-17 18 -32 44.5t-16 58.5q0 10 6 24.5t16.5 27t24.5 21.5t31 9t34 -9t30 -23t21 -31.5t8 -33.5
t-8 -31.5t-20 -29.5t-26 -27t-27 -24q28 -28 61 -52q10 4 22.5 9.5t20.5 5.5q6 0 6 -5q0 -3 -5 -5l-34 -13q22 -13 40 -28.5t40 -28.5zM48 175q9 -18 20 -33.5t25 -30.5q27 23 49 47.5t22 52.5q0 14 -5 27.5t-14 24.5t-21 18t-27 7q-16 0 -27.5 -7t-19 -17.5t-11.5 -22
t-4 -20.5q0 -23 13 -46zM25 25q8 -1 15 -2t15 -1q23 0 47.5 6t47.5 14q-12 10 -20.5 17t-14.5 12t-11 9.5t-10 9.5q-16 -17 -35.5 -29.5t-33.5 -35.5z" />
    <glyph glyph-name="quotesingle" unicode="'" horiz-adv-x="45" 
d="M11 420q0 5 5 5q3 0 5.5 -7.5t4 -18t2 -21t0.5 -15.5q0 -8 -1 -21t-6 -13q-3 0 -5.5 8t-4 18t-2 20t-0.5 15q0 7 0.5 14.5t1.5 15.5z" />
    <glyph glyph-name="parenleft" unicode="(" horiz-adv-x="185" 
d="M160 464q-20 -15 -38.5 -41t-33.5 -55.5t-25.5 -59t-14.5 -51.5q-7 -31 -7 -66q0 -40 9.5 -70.5t25.5 -54.5t38 -43.5t46 -37.5q3 -2 3 -6t-5 -4h-2q-38 26 -68 52.5t-48 70.5q-6 15 -9.5 28t-6 26t-3 27t-0.5 31q0 27 11.5 65.5t30 76.5t42.5 70.5t49 48.5q0 1 3 1
q4 0 4 -5q0 -2 -1 -3z" />
    <glyph glyph-name="parenright" unicode=")" horiz-adv-x="178" 
d="M23 464q-2 2 -2 3q0 5 5 5q2 0 3 -1q25 -16 48.5 -48.5t42 -70.5t30 -76.5t11.5 -65.5q0 -17 -0.5 -31t-2.5 -27t-5.5 -26t-9.5 -28q-18 -44 -48 -70.5t-68 -52.5h-2q-5 0 -5 4t3 6q24 18 45.5 37.5t37.5 43.5t25.5 54.5t9.5 70.5q0 33 -6 66q-5 22 -15 51.5t-25 59
t-33.5 55.5t-38.5 41z" />
    <glyph glyph-name="asterisk" unicode="*" horiz-adv-x="194" 
d="M96 -8q-14 5 -30.5 20t-30.5 34.5t-23.5 39.5t-9.5 36q0 22 37 37q4 2 8 2q13 0 23.5 -7.5t18.5 -19t14.5 -24.5l11.5 -23q8 9 22 23.5t28 14.5q7 0 14 -7t7 -21q0 -15 -9 -29t-21.5 -26.5t-25 -24t-19.5 -23.5l1 -2q0 1 -1.5 -2.5t-3.5 -7.5t-4.5 -7.5t-5.5 -3.5
q-4 0 -4 5zM21 126q-1 -1 -1 -6q0 -15 7.5 -32.5t19.5 -34.5t26.5 -31t27.5 -21l6 10q4 7 14.5 17t20.5 21t18 23t8 23q0 3 -2 11q-9 0 -16.5 -7t-14 -15t-12.5 -15t-11 -7q-4 0 -7 4q-8 10 -13.5 23t-12 24.5t-16 19.5t-25.5 8t-17 -15z" />
    <glyph glyph-name="plus" unicode="+" horiz-adv-x="190" 
d="M21 145q3 -1 5.5 -1t5.5 -1q12 1 22 1.5t19 2.5v25.5t1 32.5t2 27.5t4 11.5q4 0 6 -5l7 -88q17 5 34.5 8t46.5 3q5 -2 5 -5q0 -2 -25 -10.5t-59 -14.5v-7q0 -15 -1.5 -29t-1.5 -37v-9q0 -5 -5 -5q-4 0 -6.5 9.5t-4 22.5t-2.5 27t-1 24q-5 -1 -9.5 -1.5t-9.5 -0.5
q-6 0 -13.5 1t-14.5 3t-12 5t-5 6q0 6 6 6h2z" />
    <glyph glyph-name="comma" unicode="," horiz-adv-x="77" 
d="M25 10q-4 1 -4 5q0 5 4 5q16 0 22.5 -5.5t6.5 -13.5q0 -7 -4.5 -18.5t-10 -22t-10.5 -18t-6 -7.5q-5 0 -5 6q1 14 9 29t8 26q0 10 -10 14z" />
    <glyph glyph-name="hyphen" unicode="-" horiz-adv-x="148" 
d="M14 95q-3 1 -3 4q0 6 4 6q5 0 10 -1.5t10 -1.5q17 0 38 3.5t44 3.5q12 0 12 -5q0 -2 -7 -5t-18 -6t-24.5 -5t-26.5 -2q-11 0 -21 2t-18 7z" />
    <glyph glyph-name="period" unicode="." horiz-adv-x="73" 
d="M36 25l2 1q4 0 4 -5q1 0 2.5 2.5t3.5 2.5q4 0 5.5 -5t1.5 -7q0 -8 -5 -11.5t-10 -3.5q-7 0 -13 4t-6 9q0 8 14 13h1z" />
    <glyph glyph-name="slash" unicode="/" horiz-adv-x="201" 
d="M200 418q4 4 6 4q4 0 4 -5q0 -6 -3.5 -12.5t-8 -13t-9.5 -13t-8 -10.5q-56 -92 -94.5 -196t-69.5 -210q-1 -3 -5 -3q-5 0 -5 6q13 53 28.5 106.5t34.5 105t43.5 101.5t56.5 97q2 4 6.5 9t9.5 11t9 12t5 11z" />
    <glyph glyph-name="zero" unicode="0" horiz-adv-x="294" 
d="M199 410q0 -4 -4 -4q-3 0 -5 2l-3 6h-5q-17 0 -34.5 -9t-32.5 -22.5t-26.5 -29.5t-18.5 -29q-20 -36 -30.5 -76.5t-10.5 -81.5q0 -34 9.5 -61.5t25.5 -46.5t37 -29.5t43 -10.5q18 0 38 7.5t37 21.5t28 34t11 46t-8.5 49.5t-17.5 45.5q-15 35 -33 68t-35 67v1q0 6 4 6
q3 0 6 -4q15 -28 30 -55t28.5 -54.5t24.5 -56.5t17 -60q1 -5 1 -9v-9q0 -24 -12 -45t-31 -37t-43 -25.5t-48 -9.5q-35 0 -59.5 15.5t-40.5 40.5t-23 54.5t-7 58.5q0 57 19.5 111t50.5 88q5 6 16.5 15.5t25.5 19.5t28.5 17t26.5 7q17 0 21 -14v-2z" />
    <glyph glyph-name="one" unicode="1" horiz-adv-x="81" 
d="M25 407q0 6 5 6t5 -4q2 -56 4 -98.5t2 -80.5q0 -26 -0.5 -51t-2 -51t-3 -55t-2.5 -63q-1 -5 -6 -5q-3 0 -4 15t-1.5 34t0 37t0.5 25q0 36 0.5 69.5t1 68t1 72t0.5 81.5z" />
    <glyph glyph-name="two" unicode="2" horiz-adv-x="261" 
d="M82 409q-10 -1 -20.5 -1.5t-20.5 -2.5q0 -6 -6 -6q-4 2 -8 1.5t-4 4.5q0 4 2 4v1q11 8 26 9t26 3q8 1 17.5 1.5t19.5 0.5q19 0 39.5 -3.5t37 -11.5t27 -23t10.5 -37q0 -23 -12 -46.5t-30 -47.5t-39 -48.5t-39 -49.5t-30 -50.5t-12 -50.5q0 -11 3.5 -15t7.5 -11
q8 -1 14.5 -1h13.5q20 0 36.5 1.5t31.5 4t31 5t34 5.5q4 0 4 -5t-20.5 -9.5t-46.5 -9t-50.5 -7t-32.5 -2.5q-28 0 -39.5 14t-11.5 30q0 19 10 41.5t22.5 43t25 36.5t17.5 22q13 16 29.5 37.5t31 43t24 40t9.5 27.5q0 21 -9.5 33.5t-24 19t-31.5 9t-33 2.5q-10 0 -18.5 -0.5
t-16.5 -1.5h5v0z" />
    <glyph glyph-name="three" unicode="3" horiz-adv-x="251" 
d="M56 409q-4 0 -4 5q0 8 19.5 12.5t37.5 4.5q23 0 42 -8t19 -28q0 -14 -17 -37t-38 -46.5t-39.5 -41.5t-21.5 -22l14 -1.5t34 -5t43.5 -9.5t43 -14.5t33 -21t13.5 -29.5q0 -22 -24.5 -47.5t-57.5 -47.5t-67.5 -36.5t-54.5 -14.5q-5 0 -9 1t-4 4t3 6q9 0 27 6t39.5 16
t44.5 23t41.5 27.5t30.5 29.5t12 29q0 10 -8 18q-17 19 -48 28t-62 13t-54 6t-23 6q0 3 21 22t46 44.5t46 52t21 43.5q0 12 -14.5 17.5t-33.5 5.5q-15 0 -29 -2.5t-19 -7.5h-3z" />
    <glyph glyph-name="four" unicode="4" horiz-adv-x="224" 
d="M172 429q0 5 5 5q3 0 4.5 -19t2 -44.5t0.5 -50.5v-36v-48q29 -3 52 -10.5t23 -22.5q0 -5 -4 -5q-3 0 -4 1q-8 13 -25 17t-42 5q-1 -48 -2 -105t-3 -105q-2 -6 -5 -6q-5 0 -5 6q-1 37 -1.5 78t-0.5 82v51q-19 0 -38.5 -1.5t-37.5 -3.5t-33 -5t-25 -6q-9 0 -12.5 6.5
t-3.5 17.5q0 14 3 28t5 22q2 18 6 48t4 57q0 17 -2.5 29.5t-7.5 17.5v-1q-7 0 -7 6q0 3 3.5 4t6.5 1q6 0 10 -7.5t6.5 -18.5t3.5 -24t1 -23q0 -19 -1.5 -39.5t-3.5 -39t-3.5 -35t-1.5 -28.5q15 5 42 8t57 3h15t14 -1q1 48 2 95.5t3 96.5z" />
    <glyph glyph-name="five" unicode="5" horiz-adv-x="263" 
d="M214 449q5 -2 5 -6t-5 -4q-14 -1 -24 -1.5t-20 -2t-22 -3.5t-29 -5l-7 -1.5t-16 -3t-17.5 -3t-12.5 -1.5q-1 -10 -4.5 -27t-5.5 -25v1q-5 -25 -8 -49.5t-4 -49.5q17 7 37 10.5t38 3.5q27 0 50 -9t39 -24.5t25 -35.5t9 -41q0 -31 -15 -61.5t-39.5 -54.5t-55 -39t-61.5 -15
q-17 0 -32.5 5t-29.5 17q-1 1 -1 2q0 6 6 6l2 -1q14 -11 25.5 -15.5t25.5 -4.5q28 0 56 14.5t50 38t35.5 51.5t13.5 55q0 24 -10.5 42t-27 29.5t-36 17.5t-36.5 6q-37 0 -69 -19q-2 -1 -5 -1q-10 0 -11.5 13t-1.5 21q0 17 3.5 33.5t6.5 33.5l12 53q3 13 4 19.5t3 9.5t7 3.5
t17 1.5h-1q32 9 68 12.5t69 3.5zM76 433h1h-1z" />
    <glyph glyph-name="six" unicode="6" horiz-adv-x="277" 
d="M190 454q6 0 6 -5q0 -2 -3 -6t-5 -9l-50 -87q-7 -12 -12.5 -22t-11.5 -21t-13.5 -24.5t-16.5 -32.5h7q28 0 58 -9t55 -25t41 -38t16 -49t-15.5 -50.5t-39.5 -40.5t-53 -26.5t-56 -9.5q-36 0 -62 19t-26 62q0 37 15 77t32 75q0 -1 -2 -1q-6 0 -6 5t5 5.5t10 2.5
q15 29 31.5 56t32.5 54l8.5 15.5t19.5 33.5t20.5 33.5t12.5 17.5h2zM176 40q37 20 52.5 41t15.5 43t-14 42.5t-36.5 36t-49.5 24.5t-54 9q-3 0 -6 -0.5t-6 -0.5q-8 -18 -17 -38.5t-16 -41t-11.5 -40.5t-4.5 -38q0 -26 13.5 -43t46.5 -17q18 0 42 6t45 17z" />
    <glyph glyph-name="seven" unicode="7" horiz-adv-x="243" 
d="M13 399q35 5 66.5 11.5t63.5 6.5q48 0 66 -18.5t18 -56.5q0 -22 -5 -46t-12 -46.5t-13.5 -41t-10.5 -28.5q-11 -26 -19.5 -48t-16.5 -42t-15.5 -41t-15.5 -45v2q0 2 -1 2q1 0 -2 -3q-1 -1 -1 -2q-1 0 -1 1q7 37 18.5 71.5t24 69t24 70t19.5 74.5q2 11 4.5 23.5t2.5 26.5
q0 29 -15 47t-57 18q-24 0 -50.5 -4t-49.5 -8q0 -2 -4 -2h-20v2v3q0 4 2 4z" />
    <glyph glyph-name="eight" unicode="8" horiz-adv-x="258" 
d="M226 406q-6 0 -6 3v2h-4q-8 0 -15.5 -1t-14.5 -1h3l-45 -7.5t-52 -12.5t-42.5 -21t-17.5 -35q0 -19 11.5 -37.5t28.5 -35t37 -31.5t38 -27q17 19 34 38.5t33 39.5q3 3 4 3q5 0 5 -5v-1q0 -1 -0.5 -1t-0.5 -1q-17 -20 -33 -40.5t-32 -40.5q20 -15 37 -33t29 -42q2 -3 2 -8
q0 -11 -8.5 -24t-14.5 -18q-10 -8 -27 -20t-37.5 -23t-42 -19t-39.5 -8q-20 0 -29 8t-9 18q0 8 3.5 17t9 17.5t10.5 15.5t8 12q20 26 41 51.5t44 49.5q-19 15 -35.5 28t-31 27t-27 30.5t-22.5 37.5q-4 9 -4 20q0 18 11.5 32t24.5 25q8 6 26.5 12t41.5 11t47 8t42 3
q12 0 21.5 -1.5t9.5 -5.5q0 -5 -3.5 -6t-8.5 -3zM169 66q18 13 25.5 24t7.5 22q0 18 -17.5 34t-40.5 33l-16 -18q-12 -15 -26 -30.5t-26.5 -32.5t-22.5 -35.5t-16 -37.5l6 -7q33 0 66.5 14.5t59.5 33.5z" />
    <glyph glyph-name="nine" unicode="9" horiz-adv-x="286" 
d="M244 415q0 -1 1 -2v-1q0 -5 -5 -5q-3 0 -5 2q-16 11 -35 11q-26 0 -53 -15.5t-50.5 -37.5t-41.5 -46.5t-24 -42.5q-2 -4 -2 -6q0 -9 9.5 -12.5t24.5 -3.5q21 0 49.5 6.5t54 16.5t44 22.5t20.5 24.5l3 2q1 6 4 12.5t6 12.5t5.5 10.5t2.5 5.5v-1q6 4 8 5q9 -1 9 -10v-3
q-3 -10 -4 -15t-2.5 -9t-4.5 -7.5l-9 -10.5q-14 -47 -24.5 -95.5t-21.5 -96.5q0 3 1 7l2 8q-7 -33 -13 -67.5t-6 -68.5v-9q0 -4 -5 -4t-5 6.5v11.5q0 68 13.5 135t30.5 132l4 19q-10 -11 -29 -22.5t-41.5 -20.5t-46.5 -15t-44 -6q-23 0 -37.5 9t-14.5 29q0 3 0.5 5.5
t1.5 5.5q3 16 23.5 42t49 51t61 43t58.5 18q12 0 21.5 -4.5t16.5 -15.5z" />
    <glyph glyph-name="colon" unicode=":" horiz-adv-x="72" 
d="M35 117q0 2 3 2q4 0 4 -5q1 0 2.5 2.5t3.5 2.5q4 0 5.5 -5.5t1.5 -7.5q0 -8 -5 -11.5t-10 -3.5q-7 0 -13 4t-6 10q0 2 3 6t11 6zM36 25l2 1q4 0 4 -5q1 0 2.5 2.5t3.5 2.5q4 0 5.5 -5t1.5 -7q0 -8 -5 -11.5t-10 -3.5q-7 0 -13 4t-6 9q0 8 14 13h1z" />
    <glyph glyph-name="semicolon" unicode=";" horiz-adv-x="71" 
d="M25 10q-4 1 -4 5q0 5 4 5q16 0 22.5 -5.5t6.5 -13.5q0 -7 -4.5 -18.5t-10 -22t-10.5 -18t-6 -7.5q-5 0 -5 6q1 14 9 29t8 26q0 10 -10 14zM35 117q0 2 3 2q4 0 4 -5q1 0 2.5 2.5t3.5 2.5q4 0 5.5 -5.5t1.5 -7.5q0 -8 -5 -11.5t-10 -3.5q-7 0 -13 4t-6 10q0 2 3 6t11 6z
" />
    <glyph glyph-name="less" unicode="&#x3c;" horiz-adv-x="156" 
d="M95 186q2 2 4 2q6 0 6 -5q0 -2 -10 -13t-22 -25.5t-23 -28t-13 -19.5q5 -8 17 -17.5t27 -19t30.5 -19.5t27.5 -18q2 -2 2 -5q0 -4 -5 -4q-2 0 -3 1q-16 9 -36 19.5t-37.5 21t-29.5 21t-12 19.5q0 7 8 17.5t19.5 23t25 25t24.5 24.5z" />
    <glyph glyph-name="equal" unicode="=" horiz-adv-x="175" 
d="M18 179q-4 2 -4 6q0 3 13 5.5t29.5 4t32 2t20.5 0.5h11t14 -0.5t12 -2t5 -4.5t-13.5 -5.5t-30.5 -4t-33 -2t-21 -0.5h-16.5t-18.5 1zM28 122q-4 1 -4 5q0 3 15.5 5t36 3t40.5 1.5t29 1.5h2q4 0 4 -4q0 -5 -8.5 -8t-19.5 -5.5t-22 -3.5t-16 -1q-14 0 -28 2t-29 4z" />
    <glyph glyph-name="greater" unicode="&#x3e;" horiz-adv-x="156" 
d="M56 186q11 -12 24.5 -24.5t25.5 -25t20 -23t8 -17.5q0 -9 -12 -19.5t-30 -21t-38 -21t-36 -19.5q-1 -1 -3 -1q-6 0 -6 4q0 2 3 5q12 8 27.5 18t30.5 19.5t27.5 19t17.5 17.5q-3 6 -14 19.5t-23 28t-21.5 25.5t-9.5 13q0 5 5 5q4 0 4 -2z" />
    <glyph glyph-name="question" unicode="?" horiz-adv-x="183" 
d="M8 306q0 5 5 5q3 0 4 -3q16 2 36.5 5t42.5 3q9 0 21.5 -1t24 -3.5t19 -7t7.5 -11.5q-3 -26 -23.5 -46t-44 -36.5t-42 -32t-18.5 -33.5q0 -15 19 -26l2 -4q0 -5 -5 -5q-2 0 -3 1q-27 14 -27 35q0 15 13 32t30 32t34 27.5t25 20.5q7 7 13 14.5t8 16.5q-10 7 -27.5 9
t-36.5 2q-17 0 -33.5 -1t-27.5 -1q-14 0 -14 2.5t-2 5.5zM61 32q5 -2 6 0.5t5 2.5t4 -5q0 -8 -6 -14t-14 -6q-14 0 -14 10q0 7 4 7v-1q1 3 3 6q4 6 7 6t5 -4v-2z" />
    <glyph glyph-name="at" unicode="@" horiz-adv-x="379" 
d="M214 109q0 -4 -5 -4t-10.5 7t-16.5 7t-23 -5t-23 -13t-18 -17.5t-7 -17.5q0 -7 2.5 -8t7.5 -1q9 0 18.5 3.5t17.5 5.5q11 2 19 3t14 1q13 0 17.5 -5t6 -13t1.5 -17.5t4 -19.5q24 2 47.5 12.5t42 24.5t29.5 31t11 33q0 24 -19 44t-47.5 35t-63.5 23.5t-66 8.5
q-33 0 -57 -11.5t-39.5 -29.5t-23.5 -41.5t-8 -47.5q0 -41 18.5 -70t45.5 -48t58 -28t56 -9q10 0 21 0.5t27 1.5q6 0 6 -5q0 -2 -7 -4t-17 -3t-20 -1.5t-16 -0.5q-33 1 -66.5 11t-60.5 30t-44 50t-17 71q0 28 8.5 56.5t25 50.5t40.5 36t54 14q45 0 86.5 -12.5t73 -32
t50 -43.5t18.5 -48q0 -30 -32.5 -59t-110.5 -49q-2 -2 -5 -2q-6 0 -8 8.5t-3.5 18t-4.5 18t-10 8.5q-6 0 -15.5 -3t-20 -6t-20.5 -6t-19 -3q-10 0 -18 5.5t-8 19.5q0 13 8.5 25.5t21.5 22.5t28.5 16t29.5 6q26 0 36 -23v-1z" />
    <glyph glyph-name="A" unicode="A" horiz-adv-x="473" 
d="M-35 -57q-3 1 -3 5q0 5 4 5h1q7 0 19.5 12t27.5 31t30.5 41t29 42.5t22.5 35.5l12 20q21 41 41 82q-37 20 -76.5 39.5t-77.5 34.5t-72.5 24.5t-61.5 10.5q-11 0 -20.5 -4t-18.5 -6q-6 0 -6 5q0 3 5.5 6t13 5t15 3.5t12.5 1.5q27 0 62.5 -9t74.5 -24t79.5 -34t78.5 -38
l72 152q17 35 34 71t40 68q5 5 7 5q11 0 19.5 -9.5t15 -22.5t10.5 -26.5t7 -21.5q25 -72 39 -145.5t23 -148.5l16 -119q6 -13 13 -36t12.5 -49t9 -50t3.5 -39q0 -5 -3 -7t-6 -2q-7 0 -15.5 23.5t-16 54.5t-13 61t-6.5 44q-11 19 -27 34.5t-34.5 28.5t-38.5 24t-39 22
q-23 14 -53 31.5t-65 36.5l-42 -82q-2 -4 -11.5 -19.5t-23 -36.5t-30 -44t-32.5 -42.5t-30.5 -32t-24.5 -12.5h-2zM168 225q37 -20 68.5 -37t54.5 -31q33 -19 65.5 -39t58.5 -48q-12 94 -27 185t-42 182q-1 3 -5 13.5t-8.5 23t-9.5 22.5t-9 12q-22 -29 -38 -63.5t-32 -66.5z
M345 441l1 -1z" />
    <glyph glyph-name="B" unicode="B" horiz-adv-x="407" 
d="M12 467q2 2 4 2t4 -1q3 1 5.5 1.5t5.5 0.5q-1 6 -1 11.5v10.5v14t2 13l2 2h1q3 0 5 -3l1 -3q0 -11 0.5 -21t1.5 -21q23 4 51 4q40 0 78.5 -8t72.5 -20q6 -3 15 -9t17.5 -13.5t14.5 -17t6 -18.5q0 -2 -2 -10q-11 -23 -28 -40t-38 -30t-44.5 -23.5t-46.5 -21.5q23 3 48 5.5
t50 2.5q31 0 59 -6t49 -18t33 -30t12 -43q0 -39 -32 -93q-25 -41 -61 -71t-78 -51.5t-88.5 -35.5t-93.5 -24v-10.5t-0.5 -12.5t-1.5 -10t-4 -4q-6 0 -6 6v28q-22 -4 -42.5 -6t-42.5 -2q-7 0 -29 1.5t-45 4t-41.5 6.5t-18.5 10q0 4 5 4h1q70 -14 123 -14q49 0 90 10
q1 44 1.5 98t1 110.5t1.5 110.5t2 99v127q-3 -1 -7 -1q-13 0 -13 6q0 3 1 4zM48 327v-19q0 -43 -0.5 -94.5t-2 -104t-3.5 -103t-4 -92.5q27 6 62.5 17.5t73 28t73.5 39t64.5 50.5t46 62.5t17.5 74.5q0 24 -19.5 37.5t-44.5 20t-49.5 8.5t-34.5 2q-36 0 -68.5 -5.5
t-72.5 -10.5q-10 0 -10 9q0 4 4 9q23 14 57 29.5t65.5 32t54 34.5t22.5 38q0 18 -18.5 32t-46.5 23.5t-60 14t-60 4.5q-14 0 -24 -1t-25 -3z" />
    <glyph glyph-name="C" unicode="C" horiz-adv-x="437" 
d="M444 470q0 1 -8 3.5t-22.5 5.5t-34.5 5t-44 2q-30 0 -64.5 -4.5t-69 -16t-66.5 -30t-56.5 -47t-39.5 -67.5t-15 -90q0 -37 7 -75.5t21.5 -72.5t35 -61.5t47.5 -42.5q20 -11 43.5 -16t47.5 -5q52 0 103.5 17.5t90.5 39.5h1q4 0 4 -5t-3 -5q-41 -22 -96.5 -40.5
t-109.5 -18.5q-30 0 -58.5 7t-51.5 25q-23 16 -42 46t-33 66t-21.5 76t-7.5 78q0 35 7.5 66.5t24.5 52.5q12 16 21.5 28t19.5 22t22 19t30 19q51 29 104 39.5t100 10.5q39 0 69.5 -5t46.5 -13z" />
    <glyph glyph-name="D" unicode="D" horiz-adv-x="427" 
d="M62 438q-23 -52 -31.5 -111.5t-8.5 -120.5q0 -58 4.5 -112.5t8.5 -102.5q2 -4 2 -3q0 -3 -4 -3q-2 0 -8 2q-1 25 -4 56.5t-6.5 66t-6.5 71t-3 72.5q0 55 8.5 105t31.5 88q8 11 14.5 24t16.5 23q42 42 97 42q15 0 30 -3.5t29 -11.5q37 -22 71.5 -56.5t60.5 -76.5
t41.5 -88.5t15.5 -91.5q0 -53 -23.5 -98t-61.5 -80.5t-85 -61.5t-93 -40q-14 -5 -29.5 -9t-31.5 -4h-40.5t-19.5 2t-18 6.5t-35 14.5q-2 2 -2 5q0 5 4 5h1q21 -8 39 -15.5t45 -7.5q46 0 99 19.5t99.5 51.5t81 73t45.5 83q2 12 4 24.5t2 25.5q0 48 -20.5 103.5t-53.5 102.5
t-74 78t-83 31q-35 0 -64 -21.5t-45 -56.5z" />
    <glyph glyph-name="E" unicode="E" horiz-adv-x="395" 
d="M422 491q-24 -5 -63.5 -10.5t-84.5 -15t-90.5 -24t-82 -37t-59.5 -53.5t-23 -73q0 -27 11.5 -43t29.5 -24.5t41 -11.5t47 -3q48 0 94 7t91 7q14 0 28.5 -3t17.5 -11q-28 -33 -62 -62.5t-64 -57t-50 -55t-20 -55.5q0 -23 28 -32t64 -9q20 0 40.5 2t37 6t28 9t14.5 10
q4 0 4 -4q0 -9 -10.5 -16t-29 -12.5t-42.5 -8.5t-51 -3q-19 0 -37 2.5t-31.5 9t-21.5 17.5t-8 27q0 27 19.5 55t48 56.5t60.5 56.5t57 54q-23 6 -50 6q-41 0 -84 -7t-85 -7q-21 0 -44 3.5t-42.5 13t-32 27t-12.5 46.5q0 16 3.5 33t9 32.5t13 28t15.5 19.5q40 37 85.5 57.5
t93.5 31.5t97.5 17t99.5 15q2 -2 2 -4v-7v0z" />
    <glyph glyph-name="F" unicode="F" horiz-adv-x="479" 
d="M-176 147q-1 1 -1 3q0 6 5 6q1 0 3 -1q25 -20 49 -41t53 -38q80 -48 171 -58q-5 32 -7.5 58.5t-2.5 55.5q0 22 1.5 47.5t6.5 57.5q9 60 22.5 107.5t34.5 86.5t51 71.5t71 61.5q20 14 46.5 21t54.5 7q50 0 86 -16.5t59 -42.5t34 -59t11 -67q0 -45 -14 -89t-33 -86
q-24 -53 -61.5 -95.5t-85 -72t-103 -45.5t-114.5 -16h-20.5t-19.5 1q2 -15 4.5 -29.5t6.5 -30.5q19 8 37 12.5t38 8.5l20 10q56 22 109.5 45.5t107.5 50.5h2q5 0 5 -5q-1 -1 -1 -2t-1 -2q-48 -23 -94.5 -45t-95.5 -42h9q56 10 115 10q27 0 57 -2.5t55 -11.5t41 -26.5
t16 -46.5q0 -44 -19.5 -79.5t-50 -60.5t-69 -38.5t-76.5 -13.5q-57 0 -103 29.5t-77 95.5q-11 23 -20.5 46t-17.5 46l-8 -1q-7 0 -7 5q0 1 0.5 4t2.5 3h1l4 2t4 1l-3 15l-8 53q-51 6 -98.5 21t-81.5 41q-25 21 -50 40.5t-51 39.5zM154 366q-20 -52 -30.5 -117.5
t-10.5 -134.5q0 -50 6 -98q10 -1 20.5 -1h19.5q81 0 157.5 31.5t132.5 94.5q17 19 35 49.5t33 66.5t24.5 75.5t9.5 76.5q0 42 -14 77.5t-48 58.5q-25 17 -50 23.5t-48 6.5q-40 0 -77 -18t-68 -47.5t-54.5 -67t-37.5 -76.5zM212 -46q-19 -8 -37 -15t-38 -12q11 -39 29.5 -76
t43.5 -66t56.5 -46.5t69.5 -17.5q36 0 71.5 14t64 38t46 56t17.5 67q0 31 -21.5 46.5t-50 21.5t-56.5 6h-40q-38 0 -77.5 -4t-77.5 -12z" />
    <glyph glyph-name="G" unicode="G" horiz-adv-x="652" 
d="M610 427q1 -1 1 -3q0 -4 -5 -4q-3 0 -6.5 5t-7.5 11t-8.5 12t-8.5 9q-29 18 -70 25.5t-85 7.5q-71 0 -142.5 -16t-129.5 -50.5t-94.5 -89t-36.5 -131.5q0 -76 26 -130t68 -88.5t95.5 -50.5t109.5 -16q71 0 136 20q24 7 49 17.5t47.5 25t40 33t27.5 42.5q2 11 3 22.5
t1 23.5q-8 26 -46.5 41t-109.5 15q-22 0 -44 -1t-42 -6q-11 -3 -19 -7t-16 -7q-10 -3 -24.5 -9t-27.5 -6q-10 0 -10 8q0 6 8.5 11.5t21.5 10t28.5 8.5t30.5 7l27 11q40 18 76 27.5t79 14.5h5q10 0 21.5 -4t21.5 -11t17 -16.5t9 -19.5q5 -26 6 -49q9 -20 9 -39
q0 -16 -5.5 -31t-13.5 -29q-10 -53 -24.5 -106t-14.5 -112q0 -19 6.5 -37t27.5 -18h12q8 0 8 -6q0 -4 -5 -4h-3q-4 0 -7.5 -0.5t-7.5 -0.5q-12 0 -20.5 7t-13 17.5t-6.5 23t-2 22.5q0 53 11.5 98.5t22.5 94.5q-11 -12 -24.5 -22.5t-27.5 -16.5q-32 -14 -49.5 -22.5
t-28.5 -13.5t-19 -7t-20.5 -4t-33 -5t-56.5 -9q-11 -2 -22.5 -3t-23.5 -1q-19 0 -38.5 3t-37.5 11q-30 13 -56.5 22.5t-50 22.5t-43 33t-36.5 53q-39 81 -39 156q0 84 46 152.5t136 108.5q57 24 115 33t134 9q42 0 81 -7t69 -27q11 -7 16.5 -18t12.5 -21zM587 158
q8 -5 16 -9t15 -10q-5 29 -20.5 48t-52.5 19q-26 0 -55.5 -9.5t-58.5 -20.5q12 1 23.5 1h22.5q35 0 64 -4.5t46 -14.5z" />
    <glyph glyph-name="H" unicode="H" horiz-adv-x="604" 
d="M682 551q0 -5 -7 -5q-3 0 -3 3q-8 -3 -17 -29t-18 -59t-17 -65.5t-12 -49.5q-5 -22 -8.5 -41t-6.5 -37t-6 -36.5t-7 -40.5q23 6 45.5 12t45.5 13h1q6 0 6 -6q0 -4 -5 -4l-95 -28l-6 -37q-8 -44 -12.5 -88t-4.5 -89q0 -17 1 -34.5t3 -34.5v8q3 -17 4.5 -23.5t3 -10.5
t3.5 -10t7 -23v-3q0 -3 -2.5 -6t-6.5 -3q-2 0 -6 2q-9 10 -12.5 16t-5 11.5t-2.5 12t-4 18.5q-5 17 -9 30.5t-8.5 26.5t-10 26t-14.5 29q-21 38 -50.5 72t-63.5 58l-5 5h-3q-38 -7 -76.5 -11t-76.5 -4q-18 0 -37.5 1t-37.5 5v-13v13q0 3 1 4q0 -5 -0.5 -24.5t-1 -46.5
t-1 -59.5t-1 -64t-1 -59.5t-0.5 -46q0 -9 0.5 -15t0.5 -8q0 -6 -6 -6q-3 0 -4 4v23q0 32 -1.5 58.5t-3 52.5t-2.5 54t-1 63q0 16 0.5 34t0.5 39q-17 4 -33.5 8.5t-30 9.5t-21.5 11.5t-8 14.5q0 13 10 23.5t24.5 18.5t30.5 13t29 6q-1 45 -1.5 102t-0.5 108v24.5t1 22.5v3
q1 3 5 3q2 0 4 -3q1 -1 1 -2q0 -28 1 -61t2.5 -67t3 -67t2.5 -61h6q26 0 57 -6.5t63 -17.5t63 -26.5t58 -34.5q44 8 86.5 18t84.5 22q6 27 11 56.5t10 55.5q5 22 12.5 53.5t15 62.5t14.5 57t10 38q10 18 21.5 34.5t18.5 16.5q5 0 6 -9v-1zM538 -48q0 55 6.5 110t16.5 112
q-38 -11 -77 -20.5t-79 -17.5q42 -34 77.5 -83t55.5 -101zM146 214q1 -20 1 -38v-38q35 -5 54.5 -5.5t30.5 -0.5q33 0 65 2.5t64 7.5q-18 12 -42 24.5t-51 23t-56.5 17.5t-57.5 7h-8zM126 141q1 18 1 35.5v36.5q-20 -4 -43.5 -13t-32.5 -26q5 -13 27 -20.5t48 -12.5z
M559 -97q-1 0 -1 1v1z" />
    <glyph glyph-name="I" unicode="I" horiz-adv-x="109" 
d="M-53 480q0 1 -0.5 1.5t-0.5 1.5q0 6 6 6q5 0 10.5 -3.5t12.5 -3.5q17 0 36.5 8.5t37.5 20.5t32.5 25.5t21.5 23.5q2 2 6 2q7 0 7 -7v-5q-6 -9 -10 -31t-7 -47t-5.5 -48.5t-4.5 -36.5q-13 -88 -28.5 -174.5t-20.5 -175.5q0 -2 -0.5 -4.5t-0.5 -7.5q0 -11 1 -28t4 -34.5
t7.5 -34t10.5 -27.5q-2 6 -4 11.5t-2 12.5q0 4 1 9.5t6 5.5q4 0 4 -6q0 -2 -0.5 -4.5t-0.5 -4.5q0 -11 5 -21t6 -21q-2 -6 -6 -6q-8 0 -15 13t-11 20q-14 26 -18.5 55t-4.5 59q0 32 3.5 65.5t7.5 63.5q7 53 16.5 110t20.5 126q2 10 3.5 26.5t4 35.5t5.5 38.5t7 36.5
q-11 -10 -25.5 -19.5t-30 -17.5t-31 -13t-28.5 -5q-8 0 -15.5 2t-12.5 7z" />
    <glyph glyph-name="J" unicode="J" horiz-adv-x="611" 
d="M295 550q-4 1 -4 5q0 5 5 5h1q16 -3 36.5 -17.5t41 -36t41 -46.5t37.5 -48t29.5 -41.5t18.5 -26.5q19 -27 37.5 -61.5t32.5 -73t23 -79t9 -79.5q0 -50 -16 -92q-17 -45 -43.5 -77.5t-58.5 -54t-69.5 -31.5t-77.5 -10q-63 0 -126.5 23.5t-117.5 66.5q-16 14 -29.5 29
t-27.5 30q-14 14 -23 38t-9 48q0 22 9.5 38.5t24.5 28t33 19.5t35 13q35 10 71.5 15.5t73.5 7.5t74 3t73 3q6 -2 6 -5q0 -5 -6 -5q-36 -2 -72 -3.5t-72.5 -4.5t-72.5 -8.5t-70 -16.5q-14 -4 -29.5 -10.5t-29.5 -16t-23 -23.5t-9 -33q0 -21 9 -41.5t20 -34.5q22 -32 54.5 -58
t70 -45.5t78 -30t79.5 -10.5q58 0 108 24q79 40 111 98.5t32 127.5q0 47 -13 96.5t-34 97t-48 91.5t-55 80q-7 9 -23 29t-36 42t-41.5 40t-37.5 21z" />
    <glyph glyph-name="K" unicode="K" horiz-adv-x="518" 
d="M69 424q0 17 0.5 33.5t0.5 32.5q0 14 -2 26.5t-2 26.5q3 3 2.5 5t3.5 2q6 0 8.5 -26.5t3.5 -61t1.5 -67.5t0.5 -46l4 -104q7 0 13.5 0.5t12.5 0.5q29 0 57.5 -2.5t54.5 -8.5q42 29 79.5 62t66.5 71q7 8 17 24t19 36t15.5 41t6.5 40q0 28 -17 45q-6 0 -6 5v2v1q4 4 6 4
q1 0 1.5 -0.5t1.5 -0.5q22 -34 22 -70q0 -40 -21 -79.5t-51 -75t-63 -64t-57 -46.5q33 -9 69 -22.5t69 -32t59.5 -41.5t40.5 -51q31 -64 31 -125q0 -39 -13 -76.5t-40 -70.5q-3 0 -5 1l-5 4l-1 2v1q0 5 6 5h2l3 -2q19 26 30.5 62t11.5 75q0 57 -24.5 101t-64 75.5t-89.5 51
t-101 29.5l-31 -20q-24 -16 -48.5 -31.5t-51.5 -27.5q5 -61 9 -121.5t11 -121.5v-1q0 -5 -6 -5q-3 0 -6.5 15.5t-6.5 39t-6 52t-5.5 55.5t-4.5 48.5t-3 31.5l-78 -32t-83 -16q-27 0 -46.5 11.5t-19.5 42.5q0 6 0.5 11t1.5 11q3 19 19.5 33t40 23.5t50.5 15.5t50 9t39.5 4
t18.5 1q0 5 -0.5 26.5t-0.5 48.5t-0.5 56t-0.5 49zM77 149q-2 19 -3 37.5t-2 38.5q-7 -1 -24 -2.5t-39.5 -4t-46.5 -8t-44.5 -14.5t-33.5 -22.5t-13 -32.5t11.5 -30.5t31.5 -11.5q19 0 41.5 5t44.5 12.5t42 16.5t35 16zM92 226q0 -17 1.5 -34t2.5 -35q27 14 54 29.5t55 32.5
q-24 4 -47 5.5t-45 1.5h-21z" />
    <glyph glyph-name="L" unicode="L" horiz-adv-x="570" 
d="M309 561q-4 0 -4 5q0 3 4 5q26 0 51.5 1t49.5 9q23 7 42.5 19.5t42.5 15.5q5 0 5 -4v-3q-3 -8 -6 -12.5t-5 -9.5t-3.5 -13t-1.5 -22q0 -44 13.5 -89t22.5 -84q8 -38 14 -76t6 -76q0 -42 -8.5 -83t-31.5 -81q32 -30 64.5 -61t70.5 -54q55 -34 113.5 -48.5t119.5 -14.5
q40 0 80 5.5t79 14.5h2q6 0 6 -5t-5 -5q-90 -21 -166 -21q-59 0 -115.5 14.5t-119.5 46.5q-42 23 -74.5 52.5t-64.5 59.5q-25 -39 -58 -70.5t-71.5 -54.5t-79.5 -35.5t-81 -12.5q-33 0 -68 8t-63 23.5t-46 37.5t-18 49q0 25 16 50t36 50q12 15 37 30t55 26.5t62 18.5t58 7
q20 0 32 -4q24 -7 39 -10.5t27 -7t23.5 -9t28.5 -15.5q17 -11 33.5 -24.5t32.5 -27.5q20 39 29 79.5t9 82.5q0 34 -4.5 68.5t-12.5 69.5q-10 39 -23 84t-13 90q0 14 2 26t11 26q-18 -5 -31 -14.5t-37 -17.5q-26 -8 -52.5 -8.5t-53.5 -0.5zM466 44q3 4 5.5 8.5t4.5 8.5
q-20 18 -41.5 35t-46.5 29.5t-54.5 20.5t-65.5 8q-53 0 -105 -19.5t-91 -54.5q-17 -14 -32.5 -36t-15.5 -48q0 -7 1 -11q31 -51 74 -72t92 -21q39 0 78.5 12t76 32.5t67.5 48t53 59.5z" />
    <glyph glyph-name="M" unicode="M" horiz-adv-x="518" 
d="M-66 122q-6 0 -6 4q0 5 10 7t22.5 3.5t25.5 3t19 4.5q38 18 75 42t68 54.5t54 67t34 80.5l2 4q0 33 -5 59t-14.5 49t-22.5 46t-28 50l-1 2q3 5 7 5q3 0 4 -1q46 -54 60 -119t14 -137q0 -25 -1 -46t-2.5 -44t-2.5 -51t-1 -66q0 -35 4.5 -66.5t19.5 -47.5q7 2 13 3t11 5
q10 9 18.5 23.5t15.5 29.5t13 30t10 26q14 42 25.5 82.5t22.5 82.5q16 67 26.5 117.5t19 84t16 50t16.5 16.5q6 0 11 -12.5t8.5 -34t5.5 -49t2 -57.5q0 -80 -7.5 -153t-7.5 -150q0 -21 0.5 -46.5t3.5 -52.5t9 -53t17 -47q8 -15 22.5 -27t26.5 -25q0 -2 0.5 -2t0.5 -1
q0 -4 -6 -4h-2q-14 14 -29 25.5t-23 28.5q-22 48 -29.5 102t-7.5 108q0 42 2.5 80l5 76t5 76.5t2.5 82.5q0 37 -2.5 65t-7.5 28q-4 0 -10.5 -20t-14 -53.5t-17 -75.5t-20 -86.5t-22.5 -87t-24 -76.5q-3 -7 -10 -23.5t-16 -35.5t-19 -35t-19 -22q-7 -4 -18 -7.5t-19 -3.5
q-5 0 -12.5 7.5t-12.5 14.5q-9 18 -12 44t-3 54q0 37 1.5 65.5t3.5 53.5t4 48.5t2 50.5l-3 -9q-14 -35 -37.5 -68t-53 -60t-64.5 -47.5t-71 -30.5q-18 -5 -37.5 -3t-37.5 -5z" />
    <glyph glyph-name="N" unicode="N" horiz-adv-x="476" 
d="M-92 -92q-5 2 -5 6t10 4h9q10 0 21.5 7.5t22 18.5t19.5 22.5t15 19.5q16 23 35.5 61.5t39 84t38 92t32.5 85t22.5 63.5t9.5 28q0 10 -0.5 20t-0.5 20q0 12 -0.5 29t1 33.5t6 28t14.5 11.5q4 0 6.5 -3t2.5 -18q0 -26 -1.5 -43t-3.5 -29.5t-4 -22t-4 -19.5q1 -50 5.5 -98
t11.5 -96q3 -20 7 -44t10 -48.5t14 -48.5t18 -42q7 -11 17.5 -19.5t20.5 -18.5q11 2 23 3t23 7q23 12 44 39t32 49q14 29 20.5 58.5t6.5 61.5q0 71 -26.5 140t-60.5 129q-1 3 -8 16.5t-16 29.5t-17 30t-11 17q0 1 -0.5 1.5t-0.5 1.5q0 5 5 5q7 0 11.5 -12t7.5 -18
q23 -40 46.5 -79t42 -81t30.5 -89.5t12 -103.5q0 -32 -7 -62.5t-23 -55.5q-10 -17 -21.5 -35.5t-26.5 -34.5t-33.5 -26.5t-42.5 -10.5q-20 0 -37 11.5t-27 37.5q-8 20 -17.5 41t-13.5 43q-8 38 -13 61.5t-8.5 44t-6 44.5t-4.5 64l-2 35q-7 -21 -19 -52.5t-27 -68t-31.5 -75
t-33 -73t-31.5 -63t-26 -43.5q-4 -5 -12.5 -15.5t-19 -21.5t-21.5 -20t-20 -12q-7 -2 -14.5 -1.5t-14.5 -0.5z" />
    <glyph glyph-name="O" unicode="O" horiz-adv-x="691" 
d="M490 434q34 -24 69 -52t63.5 -60t46.5 -68t18 -77q0 -22 -7.5 -43t-24.5 -41q-30 -35 -68 -59t-81 -39t-88.5 -21.5t-90.5 -6.5q-57 0 -113.5 11.5t-101.5 37.5t-73.5 67t-28.5 101q0 14 2 28t4 31q5 22 24 45t43.5 44t50 38t44.5 27q32 17 67 30t70 19q20 4 48.5 10.5
t57.5 8.5q-38 23 -74.5 37.5t-62.5 14.5q-5 0 -11 -0.5t-14 -0.5q-4 2 -4 5q0 5 4.5 4.5t8.5 -0.5q51 0 91 -16.5t80 -42.5q7 0 17 -1t19.5 -2.5t16 -5t6.5 -7.5v-1zM629 292q-14 16 -34.5 37t-46 42.5t-54 43.5t-57.5 40q-31 -2 -74 -10.5t-89.5 -24t-91.5 -38t-80.5 -52.5
t-57.5 -67.5t-22 -83.5q0 -47 26.5 -83.5t69.5 -61.5t96.5 -38.5t107.5 -13.5q65 0 126 15t112 41q19 10 39 24t36 32t26 39.5t10 45.5q0 29 -11.5 59.5t-30.5 53.5zM481 437l6 12q-11 5 -34 7z" />
    <glyph glyph-name="P" unicode="P" horiz-adv-x="430" 
d="M38 308q-5 7 -15 20t-22 27.5t-24.5 28t-22.5 21.5q-2 -1 -2.5 -2t-2.5 -1t-5 3l-5 10v2q0 5 5 5q11 -4 26.5 -18t31 -31.5t29 -34.5t19.5 -26q8 -11 16.5 -22.5t16.5 -24.5q14 52 38 105.5t57 97t75 71t92 27.5q35 0 68 -15t50 -47q17 -29 33.5 -60t16.5 -66
q0 -21 -1 -41t-1 -40q-2 -45 -33 -91.5t-74.5 -89.5t-92 -79.5t-84.5 -63.5q8 -33 10 -64t2 -63v-10t-1 -10q-1 -13 -5 -41.5t-12 -57.5t-20.5 -51t-29.5 -22h-10h-4q-11 0 -21 17t-19 38.5t-15 42t-7 27.5q-17 60 -28 127t-11 140q0 51 5.5 102t17.5 100zM144 375
q-14 -33 -26 -66t-20 -68q38 -58 73.5 -124.5t53.5 -132.5q43 32 91.5 69t89 80.5t67 94t26.5 110.5q0 34 -9 71t-27.5 68t-46.5 51.5t-65 21.5q-37 0 -69 -16t-58 -41t-46.5 -56t-33.5 -62zM209 -27q-16 68 -46 130t-68 121q-9 -45 -14 -89.5t-5 -89.5q0 -53 6 -104
t17 -102q5 -21 10 -43.5t11.5 -44t16.5 -42t25 -37.5q17 2 20 7.5t11 19.5q5 10 10.5 30t9.5 44.5t6.5 51t2.5 49.5t-3 44.5t-7 43.5q-2 -1 -3 -1q-4 0 -4 4q0 2 2 6z" />
    <glyph glyph-name="Q" unicode="Q" horiz-adv-x="658" 
d="M296 34q2 -1 2 -6q0 -4 -10 -4q-36 0 -73.5 15.5t-72 40.5t-63 56t-45.5 62q-13 22 -21 49t-8 53q0 20 5 38.5t18 35.5q29 39 72.5 69t94 50.5t105 31t105.5 10.5q63 0 123.5 -19.5t107.5 -53t75.5 -78t28.5 -95.5q0 -31 -12 -63.5t-37 -64.5q-13 -15 -28 -27.5
t-29 -26.5q-31 -28 -68 -44q6 -11 9 -23.5t8 -24.5q11 -29 21.5 -58.5t25.5 -55.5t37 -46.5t56 -30.5q7 -2 22 -4t30.5 -4t27 -4.5t11.5 -5.5q0 -4 -6 -4q-26 3 -45 4.5t-36 5.5t-34 11.5t-37 24.5q-25 20 -39.5 47.5t-25.5 56.5q-10 25 -17.5 52.5t-21.5 53.5
q-29 -11 -62.5 -21t-67.5 -10q-22 0 -40 5t-31.5 13t-21 16.5t-7.5 16.5q0 15 15 27.5t36 21.5t42.5 14.5t34.5 5.5q38 0 61 -19.5t44 -48.5q31 17 61 40t54 50t38.5 58t14.5 64q0 53 -41 104q-26 32 -59.5 55t-71 37.5t-77 21.5t-76.5 7q-57 0 -112.5 -13t-109.5 -36
q-27 -12 -55 -28t-51 -37t-37.5 -48.5t-14.5 -62.5q0 -31 13 -62t34.5 -59.5t50 -52.5t59.5 -42.5t62 -29t59 -11.5zM340 80q8 -19 29.5 -27t49.5 -8q35 0 70.5 9t54.5 19q-34 57 -101 57q-30 0 -58 -12.5t-45 -37.5z" />
    <glyph glyph-name="R" unicode="R" horiz-adv-x="357" 
d="M-96 506q1 -2 2 -3t1 -3q0 -4 -5 -4l-19 2q-5 0 -5 4q0 7 6.5 12t15 8t17.5 4.5t14 3.5q65 19 137.5 30.5t147.5 11.5q55 0 108.5 -7.5t104.5 -23.5q18 -6 41 -15t43 -22.5t34 -31.5t14 -42q0 -16 -7 -31t-17.5 -28.5t-23 -25.5t-23.5 -21q-51 -43 -105 -82.5t-109 -78.5
q-17 -12 -41 -28t-46 -32t-37.5 -30.5t-15.5 -21.5q0 -6 6 -12t14 -11t15.5 -9t10.5 -5q9 -5 18 -8.5t17 -7.5l45 -17q38 -16 77.5 -29t76.5 -33l2 -4q0 -5 -6 -5h-1q-23 12 -54 23.5t-63 22.5t-63 22t-55 22.5t-39 23.5t-15 26q0 10 7 20t18 19.5t24 19t26 18.5l182 131v1
l-2 -2q-3 -3 -5 -4q-4 -3 -7 -5q16 13 46 35t58.5 47t50 51.5t21.5 48.5q0 26 -23 45.5t-54 33t-62.5 21.5t-49.5 11q-45 8 -88.5 13.5t-88.5 5.5q-71 0 -141 -13t-139 -41h9zM67 496q-5 -23 -5 -37q0 -15 2.5 -31.5t5.5 -39.5q5 -59 10.5 -118t5.5 -138q0 -78 -6 -153.5
t-17 -152.5q-2 -5 -6 -5t-4 5q8 71 10.5 141.5t2.5 140.5v68.5t-2 68.5q-1 26 -3.5 54t-4.5 55t-4 51.5t-2 44.5q0 4 0.5 13.5t2.5 19t4.5 16.5t7.5 7q4 0 4 -6h1z" />
    <glyph glyph-name="S" unicode="S" horiz-adv-x="685" 
d="M602 506q-6 0 -6 5q0 1 3 4q36 12 36 17q0 3 -18.5 6t-42 5t-44.5 3t-27 1q-26 0 -71.5 -2t-99.5 -10t-109.5 -23t-101 -40t-74 -62.5t-28.5 -90.5q0 -35 16.5 -61t43 -45.5t59 -33t65.5 -22.5q38 -10 77 -16.5t78 -12.5t77.5 -12.5t76.5 -16.5q23 -6 47.5 -14.5
t47 -20.5t41 -29t29.5 -41q4 -9 4 -19q0 -17 -10 -34.5t-24 -34t-29.5 -29t-26.5 -18.5q-70 -40 -132 -61t-131 -21q-27 0 -54.5 3.5t-57.5 9.5q-25 9 -47.5 25t-22.5 39q0 16 11 30q6 6 21.5 10t33.5 6.5t35 4.5t27 3q66 6 133 6q51 0 101 -4t101 -12q1 0 3 -2
q18 16 33.5 37t15.5 42q0 24 -17.5 41.5t-42.5 30t-51 20.5t-42 13q-25 7 -50 11.5t-50 8.5q-30 5 -71.5 11t-86.5 15t-88.5 23t-78.5 36.5t-56.5 54.5t-21.5 78q0 50 23 87.5t61 64.5t87.5 44.5t103.5 27.5t108.5 14t101.5 4q12 0 38 -1.5t52 -4.5t46 -7t20 -9t-5.5 -10
t-13 -9.5t-15 -8t-10.5 -4.5zM581 -125q5 2 10 6t11 7q-46 8 -91 11t-91 3q-38 0 -76.5 -2t-77.5 -6q2 0 9.5 0.5t8.5 0.5q-12 -2 -33.5 -4t-42.5 -6t-36.5 -10.5t-15.5 -17.5q0 -16 18 -28t44 -19.5t55 -11t52 -3.5q43 0 85 8t76 21q26 10 49 23.5t46 27.5z" />
    <glyph glyph-name="T" unicode="T" horiz-adv-x="742" 
d="M930 480q18 -3 26.5 -8t8.5 -9q0 -3 -7 -3q-9 0 -30 10l-84 16q-130 26 -265.5 47.5t-270.5 21.5h-28.5t-56.5 -3t-69.5 -11t-67.5 -25t-51.5 -44t-20.5 -67q0 -26 12 -41t30 -22.5t39.5 -10t41.5 -2.5q91 0 180.5 22.5t175.5 50.5q7 3 21.5 7t30.5 9.5t30 11t22 11.5
q0 7 3 10t6 3q6 0 8.5 -5t2.5 -8t-1 -4q5 -16 11.5 -33t9.5 -26q20 -62 35 -126t17 -133l96 14q-9 -10 -30.5 -14.5t-65.5 -11.5q0 -65 -15.5 -128t-53.5 -118q-17 -26 -45 -51.5t-60.5 -46.5t-67 -35t-65.5 -15q-10 -1 -18.5 -1.5t-18.5 -0.5q-32 0 -54.5 10.5t-37 27.5
t-21 38.5t-6.5 43.5q0 24 6.5 48t18.5 46t28.5 40t37.5 30q17 10 34.5 20.5t36.5 19.5q65 31 136.5 50.5t143.5 30.5q-1 51 -10 101t-24 101q-2 6 -6.5 17.5t-10 26t-10.5 30t-8 28.5q-12 -7 -28 -13.5t-31 -11t-26.5 -7.5t-14.5 -4q-10 -3 -20.5 -6.5t-20.5 -7.5l-63 -17
q-20 -5 -39.5 -9.5t-39.5 -9.5l-37.5 -7.5t-48 -8.5t-52 -7t-49.5 -3q-17 0 -30 1.5t-23 6.5q-16 7 -30.5 12t-25.5 14t-17.5 23.5t-6.5 41.5q0 41 19 69t49 46.5t67 28t73 14t67.5 5.5t49.5 1q78 0 156 -9t154.5 -22.5t151.5 -29.5t147 -30zM656 -12q13 56 13 117
q-72 -13 -141 -32t-133 -50q-29 -14 -57 -31t-50 -39t-35 -49t-13 -61q0 -33 9.5 -55t24.5 -35.5t35 -19t41 -5.5t41 4t39 10q42 15 79 39t66.5 55.5t50.5 69.5t30 82z" />
    <glyph glyph-name="U" unicode="U" horiz-adv-x="647" 
d="M-158 470q-1 -1 -2 -1h-1q-6 0 -6 4t3 6q33 22 71 36t75 25q15 4 32 7.5t33.5 6.5t31 5t25.5 2h8.5t9.5 -1q19 -3 27.5 -4.5t14.5 -3.5t13 -6t23 -13q24 -12 33 -35t9 -52q0 -25 -5 -52t-12.5 -52t-15.5 -46.5t-13 -36.5q-10 -23 -20 -45.5t-19 -45.5q-13 -32 -26.5 -68
t-13.5 -65q0 -42 26.5 -60t67.5 -18q45 0 100 17t105.5 43.5t88.5 58t50 60.5q7 42 10.5 84.5t8.5 84.5q1 10 4 34.5t7 50t9 45t10 19.5q3 0 5 -1q18 -18 25.5 -52t7.5 -72q0 -41 -6 -75.5t-14 -48.5q-6 -19 -17.5 -35t-23.5 -31q-8 -11 -12.5 -27t-6.5 -35t-2.5 -39
t-0.5 -39q0 -48 7 -96.5t25 -91.5v-2q0 -5 -4 -5q-2 0 -5 3q-23 49 -31.5 92.5t-8.5 89.5q0 27 2 54.5t6 58.5q-33 -35 -74.5 -64.5t-86.5 -51.5t-91 -34t-88 -12q-47 0 -79 20.5t-32 70.5q0 25 10 58q13 43 33 87.5t38.5 88.5t32 88t13.5 86q0 51 -29 80t-92 29
q-29 0 -60 -5.5t-60 -13.5q-36 -11 -73.5 -24t-69.5 -35zM588 305q-5 -35 -6.5 -72t-7.5 -72q26 34 39 75t13 83q0 56 -19 101q-2 -13 -5 -31t-6 -35.5t-5 -31t-3 -17.5z" />
    <glyph glyph-name="V" unicode="V" horiz-adv-x="200" 
d="M-15 335q1 4 6 4q4 0 4 -6v-1q0 -1 5 -10.5t12 -22.5t15 -27.5t14 -26.5q21 -48 36 -96.5t30 -98.5q12 98 37 180t63.5 153.5t90 134t115.5 121.5q2 0 2.5 0.5t1.5 0.5q4 0 4 -5q0 -1 -0.5 -1.5t-0.5 -1.5q-55 -53 -98 -106t-77 -110t-58.5 -120t-41.5 -137
q0 -1 -0.5 -2.5t-0.5 -3.5q-1 -3 -1 -5v1l2 10q-8 -33 -13 -67.5t-10 -68.5q0 -2 -0.5 -3t-0.5 -3q0 -4 0.5 -8t0.5 -7q0 -13 -10 -16q-13 5 -15 22t-5 27q-15 60 -32 117.5t-43 114.5q-2 4 -7.5 13t-11 18.5t-9.5 19t-4 14.5v3v0z" />
    <glyph glyph-name="W" unicode="W" horiz-adv-x="574" 
d="M83 353q3 4 5 4q5 0 5 -6v-1q-12 -41 -22 -74t-17.5 -63.5t-13.5 -62t-11 -68.5q-6 -33 -6 -71q0 -13 1.5 -25.5t5.5 -23.5q2 -7 8 -11t10 -9h5h11h5.5t5.5 1q20 7 39 22t34 34t25.5 41t12.5 43q-4 17 -4 36v7q-1 2 -1 8l3 -1q2 3 8 3q7 0 8 -7l3 -37q5 -31 19.5 -64
t35.5 -60.5t48 -45.5t57 -18q40 0 73.5 25t57.5 61.5t37.5 78t13.5 74.5q0 43 -14.5 84.5t-38.5 80t-54.5 73.5t-61.5 66l-33.5 33.5t-36.5 33.5t-39.5 28.5t-42.5 18.5q-4 1 -4 6q0 4 5 4h1q27 -8 57 -28t58.5 -44.5t54 -51t42.5 -45.5q23 -26 45 -56t39.5 -63t28.5 -67
t11 -67q0 -17 -2.5 -33.5t-6.5 -42.5q-4 -29 -22.5 -62t-45.5 -61t-60 -46.5t-66 -18.5q-28 0 -53 14t-46.5 36.5t-37.5 51t-26 58.5q-13 -28 -35 -53t-38 -40q-26 -28 -60 -28q-23 0 -40 18t-17 60q0 17 2.5 33.5t4.5 30.5q9 75 28 145.5t42 141.5z" />
    <glyph glyph-name="X" unicode="X" horiz-adv-x="530" 
d="M552 494q-2 -4 -4 -4t-4 2q-55 -40 -110.5 -72t-115.5 -75q50 -56 84.5 -109.5t58 -110.5t38 -120t25.5 -137v-1q0 -4 -5 -4q-4 0 -5 3q-12 66 -27.5 130.5t-42.5 126.5q-26 58 -62 110t-78 100q-50 -39 -100.5 -86t-90.5 -99.5t-65 -110.5t-25 -120q0 -17 1.5 -33
t6.5 -33v-1q0 -5 -6 -5q-4 0 -7 11t-4.5 25t-2 28t-0.5 19q0 60 24.5 119t64 113.5t90 102t101.5 85.5q-28 31 -58 60.5t-62 57.5q-23 22 -47.5 43t-51.5 37q-1 0 -2 -1q-4 0 -4 6q0 4 1 5q42 -19 78.5 -48.5t71.5 -60.5q23 -21 45.5 -43.5t44.5 -45.5q24 17 48 33t50 31
q35 21 70.5 40.5t69.5 43.5l2 1h1q7 0 7 -5v-2l-3 -6v0z" />
    <glyph glyph-name="Y" unicode="Y" horiz-adv-x="542" 
d="M-361 464q51 13 98.5 23.5t101.5 10.5q42 0 86 -8.5t80 -29t59.5 -54.5t23.5 -85q0 -24 -0.5 -42t-2 -35t-4.5 -35t-8 -42q-3 -13 -8.5 -31.5t-11.5 -39.5t-10 -43t-4 -43q0 -19 4.5 -30.5t29.5 -13.5q42 0 83 20t76 39q64 34 127 75t114 93q-8 28 -18.5 56.5t-20 57.5
t-16 58.5t-6.5 58.5q0 18 3.5 36.5t12 33.5t21.5 24.5t32 9.5q5 0 9.5 -0.5t9.5 -2.5q26 -6 43.5 -19t28 -30t15 -38t4.5 -43q0 -61 -24 -110.5t-72 -97.5q9 -34 13 -66.5t4 -64.5q0 -15 -1 -29t-1 -28q4 -2 9.5 -6.5t10.5 -10t8.5 -10t3.5 -5.5q0 -4 -5 -4t-14 11t-15 14
q-4 -17 -12 -35t-17 -35t-18.5 -32.5t-17.5 -26.5q-22 -30 -57 -66.5t-78.5 -68t-93 -52.5t-99.5 -21q-56 0 -104 32q-27 23 -39.5 44t-12.5 41q0 31 24 58.5t58 50t72 39.5t66 28q27 10 60.5 21t69 19.5t71.5 14t70 5.5q22 0 40 -3q6 33 6 67q0 29 -4.5 53t-12.5 51
q-28 -26 -59 -49.5t-62.5 -44t-61.5 -38.5t-55 -31q-13 -7 -33 -17.5t-43 -20t-46.5 -16.5t-44.5 -7q-22 0 -37.5 9t-15.5 37q0 18 6.5 47.5t15 64t16.5 70.5t12 69q2 12 3 25.5t1 27.5q0 55 -19 91.5t-50.5 58t-72 30t-83.5 8.5q-58 0 -114.5 -10.5t-98.5 -24.5q-6 0 -6 6
q0 2 3 4h-1zM470 -60q7 14 11 26.5t8 25.5q-6 1 -12 1.5t-13 0.5q-20 0 -42.5 -2.5t-44 -6.5t-40 -8t-30.5 -7q-36 -9 -80 -22t-86.5 -31t-81 -42t-63.5 -55q-18 -24 -18 -48q0 -22 11.5 -41t29.5 -33.5t41 -22.5t47 -8q53 0 107.5 23t103.5 61.5t88.5 87.5t63.5 101z
M434 405q5 -51 22.5 -99t32.5 -98q16 18 31.5 38.5t28 44t20 48.5t7.5 51q0 19 -6.5 39.5t-18.5 38t-30 29t-40 11.5q-15 0 -24 -7.5t-14.5 -19t-7.5 -26t-2 -27.5q0 -6 0.5 -12t0.5 -11z" />
    <glyph glyph-name="Z" unicode="Z" horiz-adv-x="490" 
d="M-2 518q-5 0 -5 4q0 7 16.5 11t38 6.5t42.5 3.5t29 1q19 0 38.5 -1t39.5 -3t51.5 -6t67 -11.5t72 -19t65.5 -27.5t47 -38t18 -50q0 -14 -6.5 -32t-17.5 -37t-25 -38.5t-29 -36.5q-40 -48 -86.5 -89t-93 -81.5t-90 -84t-76.5 -95.5l3 -9q7 -1 13 -2t11 -1q33 0 67 10
t65 19q52 15 103 31.5t102 32.5h1q5 0 5 -4q0 -5 -4 -6q-67 -23 -134 -46.5t-138 -40.5q-16 -3 -34 -8t-35 -5q-12 0 -26.5 3.5t-14.5 14.5q0 12 13.5 33t34.5 45.5t45.5 50t46.5 46.5t38 36t20 18q20 18 39.5 35.5t39.5 36.5l44 44t44.5 50.5t34.5 54t14 54.5q0 33 -24 57
t-69 40q-27 10 -60 19t-69 15.5t-74 10t-74 3.5q-35 0 -66 -3t-58 -11z" />
    <glyph glyph-name="bracketleft" unicode="[" horiz-adv-x="143" 
d="M120 438q0 -6 -5 -6q-16 0 -35.5 5.5t-37.5 5.5q-5 -23 -6 -47t-1 -50q0 -53 1 -99t1 -95v-163h8q14 0 27.5 2t26.5 4q6 -2 6 -6q0 -2 -7 -4.5t-16.5 -4.5t-19.5 -3.5t-17 -1.5q-6 0 -13.5 1.5t-7.5 9.5q0 68 -3.5 138t-3.5 140v21t1 21v27.5t1 46t4 46t9 26.5q2 4 6.5 5
t9.5 1q15 0 33.5 -7t30.5 -7q1 0 1.5 0.5t1.5 0.5q2 0 5 -4v-1v-2z" />
    <glyph glyph-name="backslash" unicode="\" horiz-adv-x="230" 
d="M18 418q4 -10 15 -22.5t16 -20.5q32 -47 56.5 -97t44 -101.5t34.5 -105t28 -106.5q0 -6 -5 -6q-4 0 -5 3q-31 106 -69.5 210t-94.5 196q-3 4 -8 10.5l-10 13t-8.5 13t-3.5 12.5q0 5 6 5q2 0 4 -4z" />
    <glyph glyph-name="bracketright" unicode="]" horiz-adv-x="134" 
d="M1 440v1q3 4 5 4q1 0 1.5 -0.5t1.5 -0.5q12 0 30.5 7t33.5 7q11 0 16 -6q6 -5 9 -26.5t4 -46t1 -46v-27.5q1 -11 1 -21v-21q0 -70 -3.5 -140t-3.5 -138q0 -8 -7.5 -9.5t-14.5 -1.5q-6 0 -16 1.5t-19.5 3.5t-16.5 4.5t-7 4.5q0 4 5 6q14 -2 27.5 -4t27.5 -2h8
q0 40 -0.5 80.5t-0.5 82.5q0 49 1.5 95t1.5 99q0 26 -1 50t-6 47q-17 0 -37.5 -5.5t-35.5 -5.5q-5 0 -5 6v2z" />
    <glyph glyph-name="asciicircum" unicode="^" horiz-adv-x="148" 
d="M87 535q1 1 3 1q6 0 13 -9.5t13 -21t9.5 -22.5t3.5 -14q0 -5 -4 -5q-5 0 -6 3q-2 14 -10.5 25t-16.5 23q-18 -14 -32.5 -33.5t-34.5 -31.5q-1 -1 -4 -1q-10 0 -10 9q0 3 3 6l21 18q10 12 21 25.5t31 27.5z" />
    <glyph glyph-name="underscore" unicode="_" horiz-adv-x="299" 
d="M24 -15q-6 2 -6 6q0 3 24.5 7t57.5 8t67 6.5t52 2.5q9 0 20.5 -0.5t22 -1.5t17.5 -3.5t7 -6.5q0 -5 -6 -5q-15 3 -30 3q-22 0 -44 -3.5t-43 -5.5q-32 -3 -64 -5t-64 -2h-11v0z" />
    <glyph glyph-name="grave" unicode="`" horiz-adv-x="99" 
d="M7 539q-1 1 -1 3q0 5 5 5q2 0 4 -2q11 -10 19.5 -16.5t16 -13.5t15 -17t16.5 -26q1 -1 1 -2q0 -6 -6 -6l-8 7t-19 18t-23 24t-20 26z" />
    <glyph glyph-name="a" unicode="a" horiz-adv-x="146" 
d="M129 94q0 -5 -4 -5q-5 0 -11 7.5t-17 7.5t-23.5 -5t-23.5 -13t-18 -17.5t-7 -18.5q0 -6 3 -7t7 -1q10 0 19.5 3t17.5 5q21 6 34 6t17.5 -5.5t5.5 -14.5t1.5 -20t5.5 -21q1 -1 1 -3q0 -6 -4 -6q-6 0 -8.5 8.5t-4 19t-4.5 19t-10 8.5t-16 -3t-19 -6t-20.5 -6t-19.5 -3
q-10 0 -18 5t-8 20q0 13 8.5 25.5t21.5 22t29 15.5t30 6q11 0 20.5 -5t14.5 -17v-1z" />
    <glyph glyph-name="b" unicode="b" horiz-adv-x="193" 
d="M29 400q2 15 6.5 40.5t11 50t16.5 42.5t24 18q17 0 32.5 -22.5t27.5 -54.5t19.5 -67.5t7.5 -61.5q0 -72 -33.5 -129.5t-105.5 -96.5q0 -7 1 -11t1.5 -7t1.5 -7t1 -10v-9q12 9 33.5 15t44.5 6q9 0 19.5 -1.5t20 -5t15.5 -8t6 -10.5l-2 -4q-8 -11 -23.5 -22.5t-33 -21.5
t-35.5 -16t-32 -6q-10 0 -10 5t5 5h2q10 0 27 6.5t34.5 16t32.5 20t20 17.5q-8 12 -39 12q-25 0 -50.5 -6t-33.5 -14q-3 -5 -3 -18q0 -3 0.5 -8.5t0.5 -11.5q0 -13 -2.5 -29.5t-12.5 -16.5q-6 0 -8.5 5t-3.5 12t-0.5 14.5t0.5 11.5q0 22 2.5 38t2.5 41v10q-5 -3 -12 -3
q-1 0 -3.5 2t-2.5 5q0 2 2.5 4.5t4.5 2.5q3 0 5 -3q4 0 5 2q0 12 -0.5 24.5t-0.5 24.5q0 56 3.5 114t10.5 116zM52 147q54 37 81 94t27 119q0 51 -17.5 98t-52.5 83q-27 -30 -33.5 -66t-11.5 -76q-5 -53 -7.5 -105t-2.5 -105v-40v-5v-9z" />
    <glyph glyph-name="c" unicode="c" horiz-adv-x="154" 
d="M90 100q6 -2 6 -5q0 -2 -4 -5q-24 -4 -43.5 -11.5t-19.5 -25.5q0 -11 16 -19t40 -8q12 0 24 2t27 4q5 -2 5 -6q0 -1 -4 -4q-14 -3 -22.5 -5t-14 -3.5t-10 -2t-10.5 -0.5h-14t-25 4t-23.5 12.5t-10.5 25.5q0 8 7 15q16 21 33 25.5t43 6.5z" />
    <glyph glyph-name="d" unicode="d" 
d="M74 105q5 1 9.5 1.5t9.5 1.5q-7 46 -12.5 91.5t-7.5 92.5q-2 12 -4 41t-2 59q0 14 1 28t3 25t6 18t10 7q8 0 15 -10t13 -24t11 -28.5t8 -21.5q23 -49 41 -99.5t18 -100.5q0 -36 -12.5 -70t-41.5 -66l-19 -20q10 -59 32 -105t73 -83q2 -2 2 -4q0 -5 -6 -5h-4
q-26 19 -44 39.5t-30 44t-20 49t-14 54.5q-11 -9 -24.5 -15t-28.5 -6q-18 0 -32.5 10.5t-14.5 27.5q0 13 6 24t15.5 19.5t21 15t22.5 9.5zM132 83q0 -5 -6 -5q-3 0 -7 8.5t-9 10.5l6 -49l12 12q25 29 35.5 60t10.5 64q0 49 -18 99t-40 96q-6 12 -11 28.5t-13 30.5
q-3 -21 -4 -41t-1 -40q0 -54 6 -106.5t12 -106.5l4 -37q15 -2 23 -22v-2zM99 70q-2 7 -2.5 13.5t-1.5 13.5q-11 -1 -23.5 -5.5t-23 -11.5t-17.5 -17t-7 -21q0 -13 9 -21t23 -8q13 0 26 7.5t24 16.5z" />
    <glyph glyph-name="e" unicode="e" horiz-adv-x="186" 
d="M-24 49q-1 1 -1 4q0 5 5 5q4 0 10 -3t14 -3t18 2.5t21 5.5q15 28 34 47t38 19q6 0 13 -4t7 -13q0 -20 -24.5 -35t-56.5 -26q-6 -9 -6 -20q0 -20 28 -20q15 0 31.5 4.5t23.5 6.5l40 14h1q5 0 5 -5q0 -4 -12.5 -10t-29 -11.5t-33 -9.5t-25.5 -4q-26 0 -36 7.5t-10 21.5
q0 5 1 10t3 11q-15 -3 -27 -3q-19 0 -32 9zM96 98q-13 -10 -29 -29l19 9q13 9 16.5 13.5t12.5 15.5h-1q-1 0 -1 0.5t-1 0.5q-6 0 -16 -10zM118 105l-1 1z" />
    <glyph glyph-name="f" unicode="f" horiz-adv-x="230" 
d="M-48 105q0 4 4 4q3 0 5 -2q3 -5 13.5 -5t14.5 -2q3 -1 9 -1q29 0 65 22q2 24 3.5 48t4.5 48q1 12 2.5 35t3 50t3.5 56t5.5 52t8 38t11.5 15q8 0 15.5 -7.5t13.5 -17.5t11.5 -20.5t8.5 -16.5q18 -36 27.5 -64.5t9.5 -54.5q0 -38 -26.5 -79.5t-83.5 -85.5q-2 -17 -3 -35
t-2 -37q13 2 21 3t28 8q22 8 41.5 20t39.5 23h1q5 0 5 -4q0 -3 -2 -5q-17 -10 -30 -17t-24 -12.5t-21.5 -9.5t-22.5 -8q72 -4 108.5 -44.5t36.5 -96.5q0 -23 -7 -50t-20 -50t-31.5 -38.5t-40.5 -15.5q-5 0 -14 4.5t-18.5 11t-18 15t-12.5 17.5q-7 14 -14.5 28t-10.5 29
q-7 38 -11 65.5t-4 63.5q0 12 0.5 25t0.5 26v4q0 17 1.5 34.5t3.5 34.5q-29 -17 -61 -17q-10 0 -26 2t-22 11v3zM182 11q-26 16 -52 18t-55 2v-32q0 -35 2 -71t12 -70q13 -45 34 -67.5t39 -22.5q16 0 30.5 13.5t25 34t16.5 45t6 45.5q0 32 -13.5 59.5t-44.5 45.5zM90 216
q-2 -21 -3.5 -41t-3.5 -40q48 40 70.5 74.5t22.5 69.5q0 25 -10 53t-29 63q-6 12 -12 25t-17 21q-3 -11 -3 -25t-2 -24q-5 -45 -7 -88.5t-6 -87.5z" />
    <glyph glyph-name="g" unicode="g" horiz-adv-x="190" 
d="M141 105q0 -6 -5 -6t-9.5 9.5t-14.5 9.5q-11 0 -23.5 -7.5t-24 -19.5t-19 -27t-7.5 -29q0 -8 1.5 -14.5t12.5 -6.5q18 0 36 8.5t36 8.5q14 0 28 -12.5t26.5 -32t21.5 -44.5t13 -50h14q5 0 19 -1.5t29 -4.5t27 -8.5t12 -12.5q-2 -7 -5 -11q-2 -4 -6.5 -7t-9.5 -3t-5 5
t5.5 7.5t8.5 6.5q-1 5 -9 8.5t-19 5.5t-24 2.5t-23 0.5h-11v-17q0 -15 -3 -29t-10 -24q-15 -22 -36.5 -42t-46.5 -35.5t-52 -24.5t-54 -9q-14 0 -32 3t-33.5 10.5t-26 19.5t-10.5 29q0 11 9 22.5t21 21.5t24 17.5t18 10.5q49 28 102 42.5t109 16.5q-3 19 -10 40.5t-16.5 40
t-20.5 30.5t-22 12q-13 0 -35 -8.5t-41 -8.5q-12 0 -19 7t-7 26q0 17 8 34.5t20.5 31.5t28.5 23t31 9q22 0 29 -23v-1zM197 -137v8t-1 8q-45 -3 -98 -16.5t-106 -43.5q-6 -4 -16.5 -10t-20.5 -14t-17 -17.5t-7 -18.5q0 -10 6.5 -17.5t16.5 -13t22 -8t23 -2.5q22 0 46 6.5
t46.5 17t41.5 22.5t31 24q9 9 14 16.5t8.5 14.5t5.5 15.5t5 20.5v8z" />
    <glyph glyph-name="h" unicode="h" horiz-adv-x="184" 
d="M-8 106q-6 0 -6 4q0 3 4.5 6.5t11 6.5l13 6t9.5 5q1 45 3 89t10 88q8 48 23.5 91.5t38.5 86.5l14 22q14 20 27 28.5t24 8.5q15 0 27 -13t21 -33t15 -44t10 -45t6 -37t2 -20q-1 -42 -20 -75t-57 -69q-12 -12 -28 -24.5t-33 -24t-34 -20.5t-32 -13v-6v8v-7q0 -8 -1 -30.5
t-1 -48.5v-15q3 8 9 18t13 18.5t15 14.5t17 6t17 -9t15 -21t12.5 -23.5t9.5 -16.5q3 -4 9 -9t6 -8q0 -5 -5 -5q-2 0 -3 1q-10 9 -18.5 22t-16 25.5t-14 21.5t-13.5 9q-6 0 -13.5 -7t-14.5 -17.5t-11.5 -22.5t-4.5 -22q0 -5 0.5 -10.5t0.5 -10.5q0 -8 -1.5 -14.5t-8.5 -6.5
q-5 0 -8.5 10t-5.5 25.5t-2.5 34t-0.5 35.5q0 22 1 38t1 19v-14v11q-8 -3 -15 -7t-15 -10h-2zM94 433q-29 -70 -39.5 -143.5t-12.5 -148.5q5 2 10.5 5t10.5 6q26 16 55 36t53.5 44.5t40.5 53.5t17 63q0 23 -6 48.5t-13 48.5q-6 23 -15 48t-31 37q-14 -5 -25 -16t-19 -25
t-14.5 -29.5t-11.5 -27.5z" />
    <glyph glyph-name="i" unicode="i" horiz-adv-x="63" 
d="M21 98q-2 2 -2 4q0 5 6 5q5 0 8.5 -5t5.5 -11.5t3 -14t1 -13.5q0 -14 -2 -29.5t-5 -29.5t-6 -23t-6 -9q-5 0 -5.5 9t-0.5 16q0 19 2 37.5t4 37.5v-5q1 4 1 15q0 5 -1 9.5t-3 6.5zM35 139q-3 -3 -4 -3q-6 0 -6 6v2q-7 3 -7 8q0 4 3 8t8 4q2 0 7 -3.5t5 -6.5q0 -2 -5 -7
q1 0 1 -2t-1 -4z" />
    <glyph glyph-name="j" unicode="j" horiz-adv-x="120" 
d="M45 134q5 0 5 -6q0 -3 -5 -3q8 -29 24.5 -53.5t27.5 -50.5q21 -45 30 -90.5t9 -96.5q0 -11 -0.5 -21.5t-3.5 -19.5q-6 -25 -15 -56t-31 -50q-31 -27 -60.5 -42t-60.5 -15q-44 0 -96 31q-22 15 -32 47t-10 68q1 38 10.5 73.5t26.5 52.5q25 24 34.5 34t17.5 15t21.5 9.5
t47.5 18.5h1q6 0 6 -4q0 -5 -4 -6q-21 -9 -36.5 -15t-28 -13t-24 -18t-25.5 -30q-16 -23 -23.5 -52t-7.5 -59q0 -27 7.5 -51.5t22 -43.5t36 -30t48.5 -11q33 0 65 15.5t53 39.5q26 31 35 71.5t9 77.5q0 48 -9 87.5t-24 77.5q-12 28 -29.5 55t-21.5 58q0 6 4 6h6zM25 194
q-5 0 -5 4q0 3 3 6q3 6 4 6t2.5 -1.5t3.5 -1.5q1 0 2 1q6 0 6 -4q0 -5 -3 -8.5t-5 -3.5t-8 2z" />
    <glyph glyph-name="k" unicode="k" horiz-adv-x="248" 
d="M-46 154q6 0 6 -5l-2 -4l-1 -1q17 2 35 4.5t37 8.5q4 37 11.5 83t18.5 91t27.5 83.5t38.5 59.5q1 2 5 2h4q16 -6 30.5 -24.5t26 -41.5t18.5 -46t7 -38q0 -21 -6.5 -42.5t-20.5 -38.5q-30 -35 -64.5 -56t-76.5 -40l-5 -2q-1 -11 -1.5 -21t-0.5 -20q0 -14 1 -27t3 -26
q2 -11 6.5 -21t7.5 -21q4 6 5 13t3 13q8 16 22 29t28.5 22.5t28 15t20.5 5.5q12 0 12 -11q0 -14 -23 -40h3q13 0 28 -8.5t29 -19l26 -19.5t20 -10q6 0 6 -5q0 -4 -6 -4q-15 3 -28 11.5t-26.5 17.5t-29 16t-34.5 7q-9 0 -9 5q0 4 4.5 10t10 12t10.5 12.5t7 12.5h-4
q-8 0 -17.5 -6.5t-14.5 -9.5q-14 -10 -25.5 -21.5t-20.5 -25.5q-3 -3 -5 -10.5t-4.5 -15t-6 -13t-8.5 -5.5q-10 0 -17 12t-11 29t-5.5 36t-1.5 33v17l2 27q-14 -4 -33 -6.5t-33 -2.5q-21 0 -21 7q0 5 2 6zM85 343q-13 -42 -24 -88t-16 -94q27 9 54 24.5t48.5 35.5t35 44.5
t13.5 52.5q0 23 -8 45.5t-20 45.5q-3 5 -6 12.5t-7 15t-9.5 13t-11.5 7.5q-10 -10 -17.5 -24t-13 -30t-10 -31.5t-8.5 -28.5z" />
    <glyph glyph-name="l" unicode="l" horiz-adv-x="115" 
d="M4 48q-5 0 -5 5q0 6 10.5 8.5t15.5 6.5l6 6q-9 45 -13 92.5t-4 85.5v15t1 14q0 8 1 33t3 53.5t6 54t11 35.5q7 9 16.5 22.5t15.5 13.5q7 0 18.5 -11t18.5 -18q18 -24 27.5 -61t9.5 -67q0 -34 -8.5 -68.5t-22 -68t-31 -65.5t-35.5 -62q9 -50 30 -93q8 -15 19 -27t22 -26
v-2q0 -5 -4 -5q-3 0 -10 6.5t-14 15.5t-13.5 18.5t-9.5 14.5q-11 16 -18.5 38.5t-13.5 49.5l-2 -2q-5 -4 -12 -6t-15 -6zM33 279q-1 -11 -1 -23v-24q0 -35 2 -72.5t9 -73.5q14 27 28.5 58t26.5 64t19.5 66.5t7.5 65.5q0 37 -13 70t-42 60q-14 -20 -21.5 -43.5t-10.5 -48.5
t-4 -50.5t-1 -48.5z" />
    <glyph glyph-name="m" unicode="m" horiz-adv-x="207" 
d="M-11 118q0 1 -0.5 1.5t-0.5 2.5q0 4 6 4q2 0 3 -1q15 -17 24 -35t14 -38q3 8 10 18.5t15.5 20t18 16t18.5 6.5q12 0 17.5 -7.5t8 -18.5t2.5 -23t2 -21q21 16 32 24.5t18 8.5q5 0 9.5 -13.5t4.5 -44.5q0 -4 -5 -4q-3 0 -5 6t-2.5 14t-1.5 16t-3 13q-5 -4 -12.5 -11.5
t-11.5 -10.5q-11 -10 -17 -13.5t-11 -3.5q-8 0 -10 9t-3 20.5t-3 22.5t-8 16q-14 -1 -23.5 -11.5t-16.5 -25t-11.5 -30t-6.5 -26.5v-3h-2q-3 -4 -7 -4q-7 0 -8 7v2q0 33 -5.5 62t-28.5 55z" />
    <glyph glyph-name="n" unicode="n" horiz-adv-x="194" 
d="M13 107q-2 2 -2 3q0 6 5 6q9 0 15 -12.5t10 -28t6 -30.5t4 -21q9 7 15.5 18t13.5 21.5t14.5 18.5t19.5 8q25 0 35 -17.5t17 -35.5q2 -7 7 -18t5 -10q0 -4 -4 -4h-4q-8 7 -12.5 18t-9 21.5t-11.5 18t-20 7.5q-9 0 -16.5 -7.5t-14.5 -18.5t-15 -23t-18 -20h-5
q-12 0 -15.5 14t-5 32t-3.5 35.5t-11 24.5z" />
    <glyph glyph-name="o" unicode="o" 
d="M160 97q1 -1 1 -2q0 -6 -4 -6q-3 0 -6 3q-8 11 -32 11q-14 0 -31 -4.5t-32 -11.5t-25 -15.5t-10 -17.5t5.5 -15t14 -9t18 -4.5t18.5 -1.5q24 0 48.5 7.5t40.5 18.5q0 6 -12 12t-27 11.5t-27 10.5t-12 8q0 4 5 4q4 0 16.5 -3t26.5 -7.5t26 -10t16 -9.5q2 -3 2.5 -10.5
t0.5 -9.5q-2 -8 -13.5 -15.5t-28 -13t-36 -8.5t-38.5 -3q-28 0 -46 12.5t-18 29.5q0 19 13 32t31.5 20.5t38.5 11t35 3.5q13 0 23 -3.5t18 -14.5z" />
    <glyph glyph-name="p" unicode="p" horiz-adv-x="260" 
d="M5 92q-2 2 -2 4q0 5 4 5q7 0 13 -8t10.5 -21t8 -28t6.5 -28q5 30 20 59q7 12 18.5 25t26 23.5t31 17.5t32.5 7q6 0 22 -1.5t23 -8.5q7 -6 15.5 -15t8.5 -19q0 -5 -7.5 -20.5t-17.5 -21.5q-10 -7 -21 -13.5t-22 -13.5q-17 -11 -36 -16t-39 -13q-5 0 -5 5q0 3 2 5
q5 2 26 10t44 19.5t41.5 26t18.5 29.5q0 16 -12.5 22.5t-25.5 6.5q-12 0 -24.5 -3.5t-23.5 -8.5t-20.5 -11t-14.5 -11q-16 -15 -25.5 -34t-15 -40t-7 -43.5t-1.5 -45.5q0 -19 0.5 -36t0.5 -34v-21l1 -13q-3 3 -6 3h-4q-6 0 -7 4l-1 2q-1 27 -2 57t-2.5 58.5t-4 54t-6.5 42.5
v-1q-1 0 -2 5.5t-3 13t-5.5 14.5t-9.5 10z" />
    <glyph glyph-name="q" unicode="q" horiz-adv-x="217" 
d="M195 152q5 -2 5 -5t-7.5 -5t-17.5 -3t-20.5 -2.5t-16.5 -2.5q-12 -4 -31 -13.5t-36.5 -23t-30 -29.5t-12.5 -33q0 -20 22 -20q6 0 18.5 4t28 10.5t31.5 14.5t29 17q4 11 10.5 18.5t15.5 7.5q5 0 9 -2t4 -7q0 -7 -8.5 -14t-16.5 -12q-5 -15 -7 -30.5t-4 -31.5l-5 -57
q29 -1 58.5 -4.5t61.5 -9.5q31 -6 43.5 -22.5t12.5 -39.5q0 -27 -13 -53.5t-33 -48t-43.5 -34.5t-43.5 -13q-21 0 -34 10.5t-20.5 27.5t-10.5 39t-3 46t2 47t4 43q-54 -3 -108 -14t-97 -24q-6 0 -6 4q0 3 3 6q56 18 106.5 28t101.5 12l3 21q0 23 1 41t9 44
q-20 -11 -46.5 -25.5t-53.5 -14.5q-17 0 -28 7t-11 19q0 13 9.5 29t22 30t25 24.5t18.5 13.5q24 11 34 15.5t17.5 7t19.5 3.5t39 4zM269 -96q-26 10 -54.5 13.5t-60.5 3.5q-2 -20 -3 -40.5t-1 -40.5q0 -56 10.5 -84t39.5 -28q13 0 25.5 5t22.5 12q13 9 34 34.5t31 59.5
q1 3 1 7q0 21 -13 35.5t-32 22.5z" />
    <glyph glyph-name="r" unicode="r" horiz-adv-x="123" 
d="M5 112q0 5 4 5t8.5 -6t8 -14t6 -16t3.5 -13q15 46 67 82l2 1h1q4 0 4 -4q0 -3 -2 -5q-32 -27 -44.5 -56t-12.5 -59q0 -9 1.5 -19t1.5 -20q0 -11 -10 -11q-2 0 -5 1.5t-4 5.5q-6 34 -10 68.5t-19 57.5v2z" />
    <glyph glyph-name="s" unicode="s" horiz-adv-x="108" 
d="M88 122q0 -1 0.5 -1.5t0.5 -1.5q0 -4 -5 -4q-4 0 -4 1q-4 0 -12 -2t-15.5 -5t-13.5 -7.5t-6 -10.5q0 -9 9 -13.5t20 -9t20 -12.5t9 -24q0 -11 -8 -19.5t-20 -14.5t-26.5 -9t-28.5 -4q-4 1 -4 6q0 4 4 4q13 1 25 5.5t21 10t14.5 11.5t5.5 10q0 7 -9 13t-20.5 12t-20.5 13
t-9 16t5.5 16.5t14 13.5t18.5 9.5t18 3.5q12 0 17 -7z" />
    <glyph glyph-name="t" unicode="t" horiz-adv-x="126" 
d="M35 205q3 3 6 3q4 0 4 -4q0 -9 -2 -26t-5 -39q18 5 40 11t36 6q5 0 5 -5q0 -3 -10 -9t-24 -11t-28 -9t-21 -4q-1 -11 -1.5 -22t-0.5 -22q0 -31 6.5 -55t25.5 -29q4 -2 11 -2h14t11.5 -1t4.5 -5q0 -3 -5 -4t-12 -1.5t-14.5 -0.5h-11.5q-28 0 -38 25t-10 57q0 15 2 30.5
t4 29.5q-5 0 -8.5 -1t-7.5 -1h-2q-5 2 -5 6q0 3 7.5 6.5t18.5 7.5q3 19 5 29t2.5 16t1 10.5z" />
    <glyph glyph-name="u" unicode="u" horiz-adv-x="106" 
d="M38 -8q-22 19 -26.5 41.5t-4.5 49.5v2q0 5 6 5q3 0 5 -5q2 -19 6 -40t21 -35q9 4 14 21.5t8 36.5t5.5 34t6.5 15q5 0 5.5 -12.5t0.5 -23.5q0 -14 -1.5 -28t-5.5 -27t-11.5 -23t-19.5 -14h-2q-3 0 -7 3z" />
    <glyph glyph-name="v" unicode="v" horiz-adv-x="102" 
d="M16 80q-1 8 -2 13t-3 10q-2 4 -3 9q0 5 5 5q7 0 11.5 -12t8.5 -27t6.5 -30t5.5 -21q3 6 8.5 16t11.5 20t11.5 17t7.5 7q4 0 4 -5q0 -8 -6 -22.5t-14 -28.5t-15.5 -25t-10.5 -11q-7 0 -11 10.5t-7 24.5t-5 28t-3 22z" />
    <glyph glyph-name="w" unicode="w" horiz-adv-x="207" 
d="M35 167q3 3 6 3q4 0 4 -5v-1q-9 -21 -14.5 -53t-5.5 -61q0 -20 3 -32q6 3 11 9.5t8.5 14t7 13t8.5 5.5t8 -6q1 -11 6.5 -24.5t13 -25.5t17.5 -20.5t21 -8.5q9 0 17.5 6.5t15.5 16.5t11 22.5t4 24.5q0 30 -13.5 57.5t-27.5 53.5v1q0 6 3 6t5 -2q15 -24 32.5 -54.5
t17.5 -61.5q0 -22 -7 -38.5t-17 -27t-21.5 -15.5t-20.5 -5q-20 0 -39.5 17t-30.5 49q-20 -25 -33 -25q-14 0 -14 30q0 15 1 33t3.5 37t7 36t12.5 31z" />
    <glyph glyph-name="x" unicode="x" horiz-adv-x="146" 
d="M125 154q2 2 3 2q5 0 5 -5q0 -4 -2 -4q-18 -17 -30 -37t-23 -42q17 -28 31.5 -57.5t25.5 -50.5q1 -1 1 -3q0 -5 -5 -5q-3 0 -5 2q-15 23 -30 45t-29 45q-2 -6 -5.5 -16t-7.5 -19t-8 -16t-7 -7q-4 0 -4 6l10 36t12 35q-10 18 -21 37.5t-29 32.5q-1 0 -1 2v1q0 5 5 5
q6 0 14 -6t15.5 -14t14.5 -18t12 -17q11 20 24.5 37t33.5 31z" />
    <glyph glyph-name="y" unicode="y" horiz-adv-x="162" 
d="M16 103q0 6 5 6q4 0 4 -4q2 -36 8.5 -49.5t17.5 -13.5q12 0 28 10.5t36 22.5q7 -2 13 -9.5t10.5 -16.5t7.5 -18t5 -14q5 -17 7.5 -34.5t2.5 -37.5q0 -32 -7.5 -65t-22.5 -59t-37 -42.5t-51 -16.5q-40 0 -67 32q-1 2 -1 4q0 5 5 5q2 0 2.5 -0.5t1.5 -0.5q11 -14 25 -19.5
t29 -5.5q25 0 44.5 14t32.5 38t19.5 55.5t6.5 65.5q0 31 -7.5 59.5t-24.5 48.5q-10 -5 -19.5 -12t-18 -14t-15.5 -11.5t-12 -4.5q-9 0 -14.5 8t-8.5 20t-4 26t-1 25v8v0z" />
    <glyph glyph-name="z" unicode="z" horiz-adv-x="112" 
d="M12 129q-5 2 -5 6t5 4q53 -2 71 -4t18 -12q0 -3 -1 -6l-2 -6q-5 -16 -11.5 -26.5t-14.5 -19.5t-16 -18.5t-15 -22.5l5 -9l84 -21q4 -2 4 -5q0 -5 -6 -5q-38 2 -62.5 8t-41.5 26l-1.5 3t-0.5 3q1 0 1 1l1 2q5 11 7.5 16t5.5 9t7 8.5t12 14.5l4 5q0 -1 -0.5 -1.5t-0.5 -1.5
q6 8 11.5 16t8.5 18q-3 3 -5.5 6t-7.5 5q-14 3 -27 4t-27 3zM56 75l3 2q-1 0 -3 -2z" />
    <glyph glyph-name="braceleft" unicode="{" horiz-adv-x="174" 
d="M121 476q5 0 5 -5t-16 -10.5t-34.5 -14.5t-34.5 -21.5t-16 -30.5t13.5 -34t22.5 -32q8 -15 11.5 -25t3.5 -19q0 -12 -5.5 -22.5t-14.5 -23.5q0 -4 7.5 -9.5t10.5 -8.5q14 -14 14 -39q0 -7 -2 -17q-5 -17 -11.5 -34t-13.5 -32.5t-11.5 -30.5t-4.5 -28q0 -20 15 -35.5
t55 -25.5q5 -1 13 -2t15.5 -2t13 -3t5.5 -5q0 -4 -5 -4q-11 0 -29 2.5t-36.5 7t-33.5 12.5t-20 20q-7 20 -7 39t6 36t12.5 33.5t12.5 34.5t6 38q0 9 -5 15t-11.5 11.5t-11.5 11t-5 14.5q0 6 3.5 10t7 8.5t7 10.5t3.5 15q0 10 -9 33q-4 9 -10.5 18l-13 18t-11.5 18.5t-5 20.5
q0 21 12 35t29.5 23.5t36.5 16t34 12.5h2z" />
    <glyph glyph-name="bar" unicode="|" horiz-adv-x="66" 
d="M25 511q0 7 5 7t5 -5q2 -55 4 -120t2 -133q0 -91 -2.5 -179t-5.5 -157q-2 -5 -6 -5q-3 0 -4 16.5t-1.5 39t0 46.5t0.5 39q0 56 0.5 117.5t1 121t1 114t0.5 98.5z" />
    <glyph glyph-name="braceright" unicode="}" horiz-adv-x="182" 
d="M51 476q15 -6 34 -12.5t36.5 -16t29.5 -23.5t12 -35q0 -11 -4.5 -20.5t-11 -18.5l-13 -18t-10.5 -18q-5 -11 -7 -19t-2 -14q0 -9 3.5 -15t7 -10.5t7 -8.5t3.5 -10q0 -9 -5.5 -14.5t-11.5 -11t-11.5 -11.5t-5.5 -15q0 -20 6 -38t12.5 -34.5t12.5 -33.5t6 -36t-7 -39
q-5 -12 -20 -20t-33.5 -12.5t-36.5 -7t-28 -2.5q-6 0 -6 4q0 3 5.5 5t13 3t16 2t13.5 2q40 10 55 25.5t15 35.5q0 13 -4.5 28t-11.5 30.5t-14 32.5t-11 34q-3 7 -3 17q0 25 15 39q3 3 10.5 8.5t7.5 9.5q-10 13 -15 23.5t-5 22.5q0 16 14 44q10 16 24 32t14 34t-16 30.5
t-35 21.5t-35 14.5t-16 10.5t5 5h1z" />
    <glyph glyph-name="asciitilde" unicode="~" horiz-adv-x="186" 
d="M19 111q-1 -1 -3 -1q-5 0 -5 5q0 1 3 4q12 13 24.5 25.5t23.5 12.5q9 0 16 -7.5t13.5 -16.5t13 -16.5t14.5 -7.5q12 0 23 8.5t22 13.5h1q5 0 5 -5q0 -3 -7 -8t-17 -10.5t-20 -9.5t-17 -4q-9 0 -14.5 5t-10 12t-8.5 14.5t-11 11.5q-13 -2 -24 -10z" />
    <glyph glyph-name="exclamdown" unicode="&#xa1;" horiz-adv-x="75" 
d="M26 -4q-1 11 -1 21v21q0 27 1.5 55.5t3 55t3 49.5t2.5 40q0 6 5 6q3 0 4.5 -10.5t2 -24.5t0.5 -28.5v-21.5q0 -23 -0.5 -44.5t-1.5 -44.5q0 -5 -1 -18t-3 -26.5t-4.5 -24t-5.5 -10.5q-5 0 -5 5zM43 285h-3q-8 0 -11.5 5t-3.5 11q0 13 9 13q1 0 7 -3.5t6 -6.5q0 -6 -4 -6
v-1q1 -1 3 -2q4 -2 4 -6t-5 -4h-2z" />
    <glyph glyph-name="cent" unicode="&#xa2;" horiz-adv-x="183" 
d="M92 224q0 6 5 6t5 -5l4 -46q7 1 15.5 1t23.5 2q5 -2 5 -5t-5.5 -5t-13 -3t-14.5 -2t-10 -1l4 -48l4 -48q11 1 23 3t23 3q6 -2 6 -6q0 -2 -6 -4t-14.5 -4.5t-17.5 -4.5t-14 -3q0 -9 0.5 -17.5t0.5 -18.5q0 -9 -0.5 -24t-6.5 -15q-3 0 -4 4l-6 69q-2 0 -2.5 0.5t-1.5 0.5
q-19 1 -28 1t-15 1.5t-13 6t-20 13.5q-11 7 -11 21q0 10 5 20.5t12 20t14.5 16t13.5 8.5q17 8 25 11t14 5v47zM94 68q1 23 0 47t-2 47q-29 -11 -45 -28.5t-16 -29.5q0 -16 17 -26t46 -10z" />
    <glyph glyph-name="sterling" unicode="&#xa3;" horiz-adv-x="332" 
d="M63 188q-5 2 -5 6q0 3 8 4.5t19.5 2.5l23 2t17.5 1q-3 12 -5 23t-2 21q0 15 7 30.5t28 34.5q17 15 38.5 21t42.5 6q11 0 23.5 -2t23 -4.5t17.5 -6t7 -6.5q0 -5 -6 -5q-17 4 -32.5 8.5t-32.5 4.5q-14 0 -31 -5.5t-32 -17t-25.5 -28t-10.5 -37.5q0 -9 1 -18t3 -17h28h14
t18 -0.5t15.5 -2.5t6.5 -5t-10 -4.5t-23 -3t-26 -2t-19 -0.5q3 -21 3 -41q0 -25 -9 -46.5t-24 -39.5q14 7 28 12t29 5t30 -12t26 -20q23 -14 34.5 -21.5t26.5 -7.5q7 0 15.5 1.5t20.5 6.5h2q4 0 4 -4q0 -9 -15.5 -13.5t-25.5 -4.5q-20 0 -39 8.5t-31 22.5q-5 3 -11 7.5
t-12.5 9.5t-13 8.5t-12.5 3.5q-13 0 -26 -5t-25 -11.5t-24 -14t-24 -12.5q-10 -5 -19.5 -8t-19.5 -7l-17 -6h-4l-5 2l-2 3v3q0 6 4 10l6 1q23 9 44 21.5t36.5 30.5t25 41.5t9.5 52.5v12.5t-1 10.5h-17h-24t-24 1z" />
    <glyph glyph-name="currency" unicode="&#xa4;" horiz-adv-x="396" 
d="M294 43l-4 2q-19 -9 -43 -18t-62 -9q-27 0 -52 6t-38 21q-6 -8 -18.5 -19t-26 -21t-25 -16.5t-13.5 -6.5q-6 0 -6 4q0 1 2 5q13 13 25.5 26.5t29.5 22.5q3 2 12.5 5.5t11.5 7.5l-20 27q-4 5 -5 14.5t-1 17.5v7v6q0 18 14 38.5t32 39.5q-8 13 -16.5 22t-18.5 30v3q0 4 4 4
t10.5 -5.5t13 -13.5t11.5 -16.5t6 -14.5q18 16 36.5 28.5t32.5 18.5q11 6 32.5 15.5t40.5 9.5q8 0 19 -3.5t11 -11.5q0 -7 -11 -7q-4 0 -4 6v1q-3 3 -10 3q-17 0 -39 -9.5t-33 -14.5q-14 -8 -33.5 -23t-37.5 -34t-31 -40t-13 -42q0 -29 30 -48.5t82 -19.5q27 0 55 6t50 17.5
t36 29t14 40.5q0 21 -8 36.5t-20 28t-26.5 23t-27.5 22.5q0 1 -0.5 2t-0.5 2q0 4 6 4h2q11 -10 19.5 -16t15.5 -11q17 5 32 15t32 16h1q5 0 5 -5q0 -2 -2 -4q-14 -13 -26.5 -21.5t-29.5 -10.5q8 -6 12.5 -10.5t8.5 -11t8.5 -17.5t13.5 -30q1 -4 1.5 -7t0.5 -6
q0 -11 -5 -22.5t-12.5 -22.5t-16 -19.5t-15.5 -11.5l-9 -4q8 -3 18 -11t19 -16.5t15 -16t6 -9.5q0 -5 -5 -5q-2 0 -3 1q-8 5 -18 13t-19 15.5t-15.5 13z" />
    <glyph glyph-name="yen" unicode="&#xa5;" horiz-adv-x="262" 
d="M76 89q-4 2 -4 6q0 2 4 4l44 5v5q0 8 1 13.5t1 13.5q-6 0 -17 1t-22 3t-19 5.5t-8 8.5q0 3 5 5h4q4 0 10 -1t13 -1h16t16 1q0 5 -0.5 7t-0.5 3q0 5 1.5 7.5t4.5 8.5q-1 3 -9.5 12t-21 23.5t-28.5 35t-33 46.5l2 -3q-10 15 -16 21.5t-14 11.5q2 2 3 2h3q21 -8 35 -25
t26.5 -36.5t25.5 -38.5t32 -30q1 0 2 1q1 0 2 -1q12 20 23 37t23 31.5t27 27.5t35 25l2 1q1 0 1 1q4 0 4 -5q0 -3 -1 -5q-8 -6 -12.5 -10t-8 -8t-7.5 -9t-11 -12q-8 -8 -20 -22.5t-23.5 -29.5t-20 -27t-8.5 -14q0 -1 1 -1q-1 -8 -1.5 -8.5t-0.5 -2.5q0 -4 0.5 -6.5t0.5 -6.5
q17 2 33 3t29 1t22 -2t9 -7t-4 -5q-1 0 -1.5 0.5t-2.5 0.5q-4 0 -10 -0.5t-9 -2.5q1 0 2 0.5t2 0.5h2q-13 -2 -31.5 -5.5t-38.5 -5.5l2 -31q11 1 21 1h21h21t13 -6q0 -3 -9 -5t-21.5 -3.5t-25 -2.5t-19.5 -1q2 -15 2.5 -27t0.5 -24q0 -4 -0.5 -12.5t-1.5 -17t-3 -15t-5 -6.5
q-5 0 -5 7q1 3 1 11q0 17 -3.5 36t-5.5 46h-23t-23 2z" />
    <glyph glyph-name="dieresis" unicode="&#xa8;" horiz-adv-x="133" 
d="M37 523q6 0 6 -11q0 -10 -12 -10q-6 0 -9.5 3.5t-3.5 8.5q0 10 11 10q5 0 8 -1zM29 514q1 0 3 3q-1 -2 -2.5 -2t-1.5 -1h1zM33 511q-2 0 -5 -3zM99 523q7 0 7 -11q0 -10 -12 -10q-7 0 -10 3.5t-3 8.5q0 10 11 10q4 0 7 -1zM92 514q1 0 3 3q-4 -4 -4 -3h1zM96 511
q-4 0 -5 -3z" />
    <glyph glyph-name="copyright" unicode="&#xa9;" horiz-adv-x="453" 
d="M307 279q-6 0 -6 5q0 4 4 5t6 3q-48 0 -93 -19t-84 -43q-54 -33 -80 -65.5t-26 -58.5q0 -36 44 -60t116 -24q37 0 78.5 10.5t76.5 30t58 47t23 62.5q0 20 -11 37.5t-34 30.5q-6 3 -17 7l-22 8t-19 7.5t-8 6.5q0 5 5 5q17 -5 35.5 -8.5t32.5 -15.5q19 -17 36.5 -33.5
t17.5 -42.5q0 -25 -14 -49t-28 -42q-10 -13 -23.5 -21t-25.5 -17q-15 -11 -32 -16.5t-34 -10.5q-20 -6 -50.5 -10.5t-62.5 -4.5q-26 0 -51 4.5t-42 16.5q-25 16 -38 29t-19 22.5t-8 16.5t-4 13q-2 4 -2 10q0 18 15 38t35 38.5t40 32.5t30 20q30 17 60 29t62 23q8 2 23.5 5.5
t29.5 3.5q10 0 17.5 -3t7.5 -8t-6.5 -8.5t-11.5 -6.5h-1zM258 202q4 -2 4 -5q0 -4 -4 -5q-23 -5 -42.5 -12.5t-19.5 -25.5q0 -11 15.5 -18.5t40.5 -7.5q12 0 24 2t27 4q5 -1 5 -6q0 -3 -4 -4q-14 -3 -22.5 -5.5t-14 -4t-9.5 -2t-10 -0.5h-15t-25 4t-23.5 13t-10.5 26
q0 7 6 15q17 20 34.5 25t43.5 7z" />
    <glyph glyph-name="registered" unicode="&#xae;" horiz-adv-x="457" 
d="M307 279q-6 0 -6 5q0 4 4 5t6 3q-48 0 -93 -19t-84 -43q-54 -33 -80 -65.5t-26 -58.5q0 -36 44 -60t116 -24q37 0 78.5 10.5t76.5 30t58 47t23 62.5q0 20 -11 37.5t-34 30.5q-6 3 -17 7l-22 8t-19 7.5t-8 6.5q0 5 5 5q17 -5 35.5 -8t32.5 -16q23 -19 40 -38t17 -45
t-18 -50.5t-43.5 -44.5t-53 -34t-45.5 -20q-20 -6 -50.5 -10.5t-62.5 -4.5q-26 0 -51 4.5t-42 16.5q-25 16 -38 29t-19 22.5t-8 16.5t-4 13q-2 4 -2 10q0 18 15 38t35 38.5t40 32.5t30 20q30 17 60 29t62 23q8 2 23.5 5.5t29.5 3.5q10 0 17.5 -3t7.5 -8t-6.5 -8.5
t-11.5 -6.5h-1zM204 88q0 -5 -6 -5q-3 0 -4.5 8.5t-2 20t-0.5 23.5v18q0 25 14.5 40.5t39.5 15.5q11 0 19 -5.5t8 -16.5q0 -21 -27 -51q5 -4 15 -10.5t19.5 -13.5t17 -13.5t7.5 -10.5t-6 -4q-1 0 -3 1q-6 5 -18 11.5t-23.5 13t-20 13.5t-8.5 13q4 12 15.5 21.5t11.5 24.5
q0 9 -9 9q-8 0 -19 -7.5t-15 -14.5q-4 -8 -5 -25t-1 -32q0 -8 0.5 -14.5t0.5 -9.5z" />
    <glyph glyph-name="macron" unicode="&#xaf;" horiz-adv-x="141" 
d="M15 479q-3 1 -3 4q0 5 4 5h2q9 -3 19 -3q17 0 37.5 3.5t44.5 3.5h6q5 -2 5 -5q0 -2 -7 -5t-18 -6t-24.5 -5t-26.5 -2q-10 0 -20.5 2t-18.5 8z" />
    <glyph glyph-name="degree" unicode="&#xb0;" horiz-adv-x="155" 
d="M45 444q-22 0 -31 8t-9 19q0 14 13 31.5t31 25.5q-1 0 -1 2t5 4q10 0 25.5 -1.5t29.5 -6t24.5 -13t10.5 -21.5q0 -10 -9.5 -18.5t-23.5 -15t-30 -10t-30 -4.5h-5zM65 518l-2 3q-13 -3 -27 -17.5t-14 -28.5q0 -10 9 -10.5t15 -0.5q30 0 53.5 10.5t23.5 21.5q0 5 -7 11
t-26 11h-25z" />
    <glyph glyph-name="plusminus" unicode="&#xb1;" horiz-adv-x="220" 
d="M19 22q-4 1 -4 5q0 3 19 5.5t43 3.5t46.5 1.5t29.5 0.5q4 0 13 0.5t18 0t16 -2t7 -4.5t-18 -5.5t-40.5 -4t-43.5 -2t-28 -0.5q-13 0 -27 0.5t-31 1.5zM33 157q2 -1 5 -1t5 -1q26 2 41 3v26.5t1 32.5t2.5 27.5t4.5 11.5q4 0 5 -5l8 -87q16 3 34 6.5t47 3.5q5 0 5 -6
q0 -2 -25.5 -10t-59.5 -14v-8q0 -15 -1.5 -28.5t-1.5 -36.5v-9q0 -5 -5 -5q-4 0 -6.5 9.5t-4 22.5t-2 27.5t-0.5 23.5q-6 -1 -10.5 -1h-8.5q-12 0 -28.5 3.5t-16.5 11.5q0 4 4 4h3z" />
    <glyph glyph-name="acute" unicode="&#xb4;" horiz-adv-x="127" 
d="M111 542q-2 -8 -17.5 -21t-33.5 -25.5t-33 -21.5t-18 -9q-4 0 -4 4q0 2 1 3q8 12 20.5 21.5t26 18.5t26.5 18t24 19q2 1 4 1q5 0 5 -5q0 -1 -0.5 -1t-0.5 -1v-1z" />
    <glyph glyph-name="mu" unicode="&#xb5;" horiz-adv-x="178" 
d="M14 104q0 5 4 5l6 -6q2 -4 5.5 -10t5.5 -17q1 -4 2 -12.5t3 -16.5t5 -14.5t8 -6.5q7 0 15.5 7t11.5 10q36 32 45 77v1q1 4 4 5t6 1q8 0 9 -8q-2 -10 -3 -20t-1 -21q0 -22 4.5 -43.5t15.5 -39.5q1 -1 1 -3q0 -6 -4 -6q-3 0 -6 3q-13 18 -18 37.5t-7 39.5q-6 -9 -13 -20
t-14.5 -20t-15.5 -15t-17 -6q-16 0 -26.5 11.5t-12.5 25.5q1 -3 1 -11q0 -9 -1.5 -23t-3 -30t-2.5 -32t-1 -31q0 -17 2.5 -30.5t9.5 -18.5q0 -1 0.5 -1t0.5 -1t1 -1q0 -5 -6 -5t-10 9.5t-6.5 24.5t-3.5 33.5t-1 37.5q0 22 1 44t2 41t2.5 34t1.5 22z" />
    <glyph glyph-name="mu" unicode="&#x3bc;" horiz-adv-x="178" 
d="M14 104q0 5 4 5l6 -6q2 -4 5.5 -10t5.5 -17q1 -4 2 -12.5t3 -16.5t5 -14.5t8 -6.5q7 0 15.5 7t11.5 10q36 32 45 77v1q1 4 4 5t6 1q8 0 9 -8q-2 -10 -3 -20t-1 -21q0 -22 4.5 -43.5t15.5 -39.5q1 -1 1 -3q0 -6 -4 -6q-3 0 -6 3q-13 18 -18 37.5t-7 39.5q-6 -9 -13 -20
t-14.5 -20t-15.5 -15t-17 -6q-16 0 -26.5 11.5t-12.5 25.5q1 -3 1 -11q0 -9 -1.5 -23t-3 -30t-2.5 -32t-1 -31q0 -17 2.5 -30.5t9.5 -18.5q0 -1 0.5 -1t0.5 -1t1 -1q0 -5 -6 -5t-10 9.5t-6.5 24.5t-3.5 33.5t-1 37.5q0 22 1 44t2 41t2.5 34t1.5 22z" />
    <glyph glyph-name="cedilla" unicode="&#xb8;" horiz-adv-x="66" 
d="M24 11v-26q13 -1 24.5 -4.5t11.5 -18.5q0 -11 -5 -16.5t-12.5 -8.5t-16 -5t-16.5 -4q-5 0 -5 5q0 4 5 6.5t12 5.5t12.5 7t7.5 9l-1 -2q-2 6 -7.5 7.5t-11.5 2t-11 3.5t-5 12q0 6 2.5 13.5l4.5 13.5h11z" />
    <glyph glyph-name="questiondown" unicode="&#xbf;" horiz-adv-x="191" 
d="M8 27q2 3 2 5t14 2q11 0 27.5 -0.5t33.5 -0.5q19 0 36.5 2t27.5 9q-2 9 -8 16.5t-13 14.5q-8 7 -25 20t-34 28t-30 32t-13 32q0 21 27 35q1 1 3 1q5 0 5 -6l-1 -1q0 -1 -0.5 -1t-0.5 -1q-19 -11 -19 -26q0 -18 18.5 -33.5t42 -32t44 -36.5t23.5 -46q0 -7 -7.5 -11.5
t-19 -7.5t-24 -4t-21.5 -1q-22 0 -42.5 3t-36.5 5q-2 -3 -4 -3q-5 0 -5 6zM61 301v-3q-3 -3 -5 -3q-4 0 -7 5q-2 3 -3 6q-4 0 -4 7q0 9 14 9q8 0 14 -5.5t6 -13.5q0 -5 -4 -5t-5 2.5t-6 0.5z" />
    <glyph glyph-name="Agrave" unicode="&#xc0;" horiz-adv-x="473" 
d="M-35 -57q-3 1 -3 5q0 5 4 5h1q7 0 19.5 12t27.5 31t30.5 41t29 42.5t22.5 35.5l12 20q21 41 41 82q-37 20 -76.5 39.5t-77.5 34.5t-72.5 24.5t-61.5 10.5q-11 0 -20.5 -4t-18.5 -6q-6 0 -6 5q0 3 5.5 6t13 5t15 3.5t12.5 1.5q27 0 62.5 -9t74.5 -24t79.5 -34t78.5 -38
l72 152q17 35 34 71t40 68q5 5 7 5q11 0 19.5 -9.5t15 -22.5t10.5 -26.5t7 -21.5q25 -72 39 -145.5t23 -148.5l16 -119q6 -13 13 -36t12.5 -49t9 -50t3.5 -39q0 -5 -3 -7t-6 -2q-7 0 -15.5 23.5t-16 54.5t-13 61t-6.5 44q-11 19 -27 34.5t-34.5 28.5t-38.5 24t-39 22
q-23 14 -53 31.5t-65 36.5l-42 -82q-2 -4 -11.5 -19.5t-23 -36.5t-30 -44t-32.5 -42.5t-30.5 -32t-24.5 -12.5h-2zM168 225q37 -20 68.5 -37t54.5 -31q33 -19 65.5 -39t58.5 -48q-12 94 -27 185t-42 182q-1 3 -5 13.5t-8.5 23t-9.5 22.5t-9 12q-22 -29 -38 -63.5t-32 -66.5z
M345 441l1 -1zM286 632q-2 2 -2 4q0 5 5 5q1 0 5 -2q10 -10 18.5 -16.5t16 -14t15 -17t16.5 -25.5v-3q0 -5 -4 -5q-1 0 -9 7t-18.5 17.5t-22.5 24t-20 25.5z" />
    <glyph glyph-name="Aacute" unicode="&#xc1;" horiz-adv-x="473" 
d="M-35 -57h2q10 0 24.5 12.5t30.5 32t32.5 42.5t30 44t23 36.5t11.5 19.5l42 82q35 -19 65 -36.5t53 -31.5q19 -11 39 -22t38.5 -24t34.5 -28.5t27 -34.5q1 -14 6.5 -44t13 -61t16 -54.5t15.5 -23.5q3 0 6 2t3 7q0 15 -3.5 39t-9 50t-12.5 49t-13 36l-16 119
q-9 75 -23 148.5t-39 145.5q-3 8 -7 21.5t-10.5 26.5t-15 22.5t-19.5 9.5q-2 0 -7 -5q-23 -32 -40 -68t-34 -71l-72 -152q-38 19 -78.5 38t-79.5 34t-74.5 24t-62.5 9q-5 0 -12.5 -1.5t-15 -3.5t-13 -5t-5.5 -6q0 -5 6 -5q9 2 18.5 6t20.5 4q27 -1 61.5 -10.5t72.5 -24.5
t77.5 -34.5t76.5 -39.5q-20 -41 -41 -82l-12 -20t-22.5 -35.5t-29 -42.5t-30.5 -41t-27.5 -31t-19.5 -12h-1q-4 0 -4 -5q0 -4 3 -5zM244 378q16 32 32 66.5t38 63.5q4 -2 9 -12t9.5 -22.5t8.5 -23t5 -13.5q27 -91 42 -182t27 -185q-26 28 -58.5 48t-65.5 39q-23 14 -54.5 31
t-68.5 37zM345 441l1 -1zM365 629q-3 -8 -18 -21t-33 -26t-33.5 -22t-17.5 -9q-5 0 -5 4q0 2 0.5 2t0.5 2q9 12 21.5 21.5t26 18.5t26.5 17.5t24 18.5q1 1 3 1q5 0 5 -5v-2z" />
    <glyph glyph-name="Acircumflex" unicode="&#xc2;" horiz-adv-x="473" 
d="M-35 -57q-3 1 -3 5q0 5 4 5h1q7 0 19.5 12t27.5 31t30.5 41t29 42.5t22.5 35.5l12 20q21 41 41 82q-37 20 -76.5 39.5t-77.5 34.5t-72.5 24.5t-61.5 10.5q-11 0 -20.5 -4t-18.5 -6q-6 0 -6 5q0 3 5.5 6t13 5t15 3.5t12.5 1.5q27 0 62.5 -9t74.5 -24t79.5 -34t78.5 -38
l72 152q17 35 34 71t40 68q5 5 7 5q11 0 19.5 -9.5t15 -22.5t10.5 -26.5t7 -21.5q25 -72 39 -145.5t23 -148.5l16 -119q6 -13 13 -36t12.5 -49t9 -50t3.5 -39q0 -5 -3 -7t-6 -2q-7 0 -15.5 23.5t-16 54.5t-13 61t-6.5 44q-11 19 -27 34.5t-34.5 28.5t-38.5 24t-39 22
q-23 14 -53 31.5t-65 36.5l-42 -82q-2 -4 -11.5 -19.5t-23 -36.5t-30 -44t-32.5 -42.5t-30.5 -32t-24.5 -12.5h-2zM168 225q37 -20 68.5 -37t54.5 -31q33 -19 65.5 -39t58.5 -48q-12 94 -27 185t-42 182q-1 3 -5 13.5t-8.5 23t-9.5 22.5t-9 12q-22 -29 -38 -63.5t-32 -66.5z
M345 441l1 -1zM324 642q2 1 4 1q6 0 13 -9.5t13 -21.5t9.5 -23t3.5 -14q0 -4 -6 -4q-3 0 -4 3q-3 14 -11.5 25t-16.5 23q-17 -15 -32 -34.5t-35 -30.5q-1 -1 -4 -1q-10 0 -10 8q0 5 3 7l21 19q11 11 21.5 24.5t30.5 27.5z" />
    <glyph glyph-name="Atilde" unicode="&#xc3;" horiz-adv-x="473" 
d="M-35 -57q-3 1 -3 5q0 5 4 5h1q7 0 19.5 12t27.5 31t30.5 41t29 42.5t22.5 35.5l12 20q21 41 41 82q-37 20 -76.5 39.5t-77.5 34.5t-72.5 24.5t-61.5 10.5q-11 0 -20.5 -4t-18.5 -6q-6 0 -6 5q0 3 5.5 6t13 5t15 3.5t12.5 1.5q27 0 62.5 -9t74.5 -24t79.5 -34t78.5 -38
l72 152q17 35 34 71t40 68q5 5 7 5q11 0 19.5 -9.5t15 -22.5t10.5 -26.5t7 -21.5q25 -72 39 -145.5t23 -148.5l16 -119q6 -13 13 -36t12.5 -49t9 -50t3.5 -39q0 -5 -3 -7t-6 -2q-7 0 -15.5 23.5t-16 54.5t-13 61t-6.5 44q-11 19 -27 34.5t-34.5 28.5t-38.5 24t-39 22
q-23 14 -53 31.5t-65 36.5l-42 -82q-2 -4 -11.5 -19.5t-23 -36.5t-30 -44t-32.5 -42.5t-30.5 -32t-24.5 -12.5h-2zM168 225q37 -20 68.5 -37t54.5 -31q33 -19 65.5 -39t58.5 -48q-12 94 -27 185t-42 182q-1 3 -5 13.5t-8.5 23t-9.5 22.5t-9 12q-22 -29 -38 -63.5t-32 -66.5z
M345 441l1 -1zM249 580q-5 0 -5 4q0 2 2 4l25 25t23 13t17 -7.5t13.5 -16.5t12.5 -16.5t14 -7.5q13 0 23.5 8.5t21.5 13.5h2q4 0 4 -5q0 -3 -7 -8.5t-16.5 -11t-19.5 -9.5t-17 -4q-9 0 -14.5 5t-10 12.5t-9 14.5t-11.5 12q-13 -3 -23.5 -10.5t-21.5 -15.5h-3z" />
    <glyph glyph-name="Adieresis" unicode="&#xc4;" horiz-adv-x="473" 
d="M-35 -57q-3 1 -3 5q0 5 4 5h1q7 0 19.5 12t27.5 31t30.5 41t29 42.5t22.5 35.5l12 20q21 41 41 82q-37 20 -76.5 39.5t-77.5 34.5t-72.5 24.5t-61.5 10.5q-11 0 -20.5 -4t-18.5 -6q-6 0 -6 5q0 3 5.5 6t13 5t15 3.5t12.5 1.5q27 0 62.5 -9t74.5 -24t79.5 -34t78.5 -38
l72 152q17 35 34 71t40 68q5 5 7 5q11 0 19.5 -9.5t15 -22.5t10.5 -26.5t7 -21.5q25 -72 39 -145.5t23 -148.5l16 -119q6 -13 13 -36t12.5 -49t9 -50t3.5 -39q0 -5 -3 -7t-6 -2q-7 0 -15.5 23.5t-16 54.5t-13 61t-6.5 44q-11 19 -27 34.5t-34.5 28.5t-38.5 24t-39 22
q-23 14 -53 31.5t-65 36.5l-42 -82q-2 -4 -11.5 -19.5t-23 -36.5t-30 -44t-32.5 -42.5t-30.5 -32t-24.5 -12.5h-2zM168 225q37 -20 68.5 -37t54.5 -31q33 -19 65.5 -39t58.5 -48q-12 94 -27 185t-42 182q-1 3 -5 13.5t-8.5 23t-9.5 22.5t-9 12q-22 -29 -38 -63.5t-32 -66.5z
M345 441l1 -1zM287 575q4 0 4 -4v-2q0 -2 0.5 -2.5t0.5 -2.5q0 -9 -12 -9q-6 0 -9.5 3.5t-3.5 8.5q0 10 11 10q5 0 9 -2zM278 567l3 3q-2 -3 -3 -3zM278 561q1 0 1.5 0.5t2.5 0.5v1q-1 -1 -2 -1t-2 -1zM349 575q3 0 5 -4v-2q0 -2 0.5 -2.5t0.5 -2.5q0 -9 -12 -9
q-7 0 -10.5 3.5t-3.5 8.5q0 10 11 10q6 0 9 -2zM340 567q3 0 3 3l-2 -2zM340 561q1 0 2 0.5t2 0.5l1 1q-2 -1 -3 -1t-2 -1z" />
    <glyph glyph-name="Aring" unicode="&#xc5;" horiz-adv-x="473" 
d="M-35 -57q-3 1 -3 5q0 5 4 5h1q7 0 19.5 12t27.5 31t30.5 41t29 42.5t22.5 35.5l12 20q21 41 41 82q-37 20 -76.5 39.5t-77.5 34.5t-72.5 24.5t-61.5 10.5q-11 0 -20.5 -4t-18.5 -6q-6 0 -6 5q0 3 5.5 6t13 5t15 3.5t12.5 1.5q27 0 62.5 -9t74.5 -24t79.5 -34t78.5 -38
l72 152q17 35 34 71t40 68q5 5 7 5q11 0 19.5 -9.5t15 -22.5t10.5 -26.5t7 -21.5q25 -72 39 -145.5t23 -148.5l16 -119q6 -13 13 -36t12.5 -49t9 -50t3.5 -39q0 -5 -3 -7t-6 -2q-7 0 -15.5 23.5t-16 54.5t-13 61t-6.5 44q-11 19 -27 34.5t-34.5 28.5t-38.5 24t-39 22
q-23 14 -53 31.5t-65 36.5l-42 -82q-2 -4 -11.5 -19.5t-23 -36.5t-30 -44t-32.5 -42.5t-30.5 -32t-24.5 -12.5h-2zM168 225q37 -20 68.5 -37t54.5 -31q33 -19 65.5 -39t58.5 -48q-12 94 -27 185t-42 182q-1 3 -5 13.5t-8.5 23t-9.5 22.5t-9 12q-22 -29 -38 -63.5t-32 -66.5z
M345 441l1 -1zM294 542q-19 0 -27 6.5t-8 16.5q0 12 11.5 26t27.5 21v1q0 4 3 5q9 0 22 -1.5t25.5 -5.5t21.5 -11t9 -18q0 -8 -8 -15t-20 -12t-26.5 -8.5t-26.5 -4.5h-4zM311 604l-2 2q-10 -2 -22.5 -14t-12.5 -23q0 -8 8 -8.5t13 -0.5q26 0 46.5 8t20.5 18q0 11 -29 18h-22
z" />
    <glyph glyph-name="AE" unicode="&#xc6;" horiz-adv-x="633" 
d="M356 147q29 -23 40.5 -33t11.5 -12l-1 -1q-7 0 -23.5 8.5t-40.5 22.5t-53.5 32t-63.5 36l-43 -81q-3 -6 -14 -26.5t-26 -42t-31.5 -38.5t-30.5 -17q-7 0 -7 6q0 5 4 5h2q10 0 24.5 16t28.5 36t25.5 39.5t14.5 26.5q11 20 20.5 40.5t20.5 42.5q-37 19 -76.5 38.5
t-77.5 34.5t-72.5 24.5t-62.5 10.5q-10 0 -19.5 -4t-20.5 -6q-4 0 -4 4q0 3 5.5 6t12.5 5.5t14.5 4t12.5 1.5q27 0 62.5 -9.5t74 -24.5t79 -34t78.5 -38l74 153q17 35 34 71t40 67q2 5 7 5q8 0 8 -12q0 -5 -0.5 -8.5t-2.5 -3.5q-1 0 -2 4q-22 -28 -38 -63t-32 -67l-76 -152
q38 -20 69.5 -37t54.5 -30zM383 493q0 2 -0.5 2.5t-0.5 1.5v1l-2 -1v1q0 1 -0.5 1t-0.5 2l-1 2q-4 1 -4 5q0 2 3.5 5t5.5 3q4 0 6 -3v-2q1 -1 7 -1q11 1 22 2.5t22 2.5q19 0 37.5 1t35.5 1h26t34 -1t29.5 -2.5t12.5 -5.5q0 -5 -5 -5q-11 -1 -30.5 -2t-42 -2t-47 -2t-46.5 -1
q-17 0 -30.5 0.5t-23.5 2.5q4 -31 8 -56.5t6.5 -50t4 -50t1.5 -56.5q27 2 53 4t52 2q9 0 18 -0.5t18 -0.5h1q1 0 2 -1q3 -3 3 -4q0 -2 -1.5 -4t-4.5 -2q-29 -2 -58.5 -5t-58.5 -3h-11t-13 1q0 -14 0.5 -26.5t0.5 -24.5q0 -55 -2 -104t-4 -108q26 2 50 5t49 3q17 0 36.5 -2
t37.5 -2h9t7 1q3 3 5 3q6 0 6 -7q0 -4 -4.5 -6t-11 -3t-13.5 -1.5t-12 -0.5h-20q-35 0 -71 -1t-78 -3v15z" />
    <glyph glyph-name="Ccedilla" unicode="&#xc7;" horiz-adv-x="427" 
d="M510 425q-2 -5 -6 -5t-4 6q0 4 1.5 8.5t1.5 8.5q0 14 -11 21.5t-26 11.5t-30 5t-24 2q-15 1 -30.5 1.5t-31.5 0.5q-57 0 -115.5 -12.5t-105 -41.5t-76 -75.5t-29.5 -113.5q0 -32 7 -65t21.5 -62t35 -53t47.5 -39q30 -17 61 -23.5t63 -6.5q38 0 75.5 7t74.5 16h2q6 0 6 -5
q0 -6 -19.5 -11t-45.5 -9.5t-51 -7.5t-36 -4q-3 -6 -3 -22q0 -11 1 -14.5t6 -3.5q7 0 14 1.5t15 1.5q18 0 26.5 -13.5t8.5 -21.5q0 -13 -10 -25.5t-24 -23t-28.5 -19t-23.5 -12.5q-2 -1 -3 -1q-5 0 -5 6q0 2 3 4q8 5 19.5 12t22.5 16t18.5 19.5t7.5 21.5q0 19 -16 19
q-6 0 -12.5 -1.5t-13.5 -1.5q-8 0 -13.5 4.5t-5.5 18.5q0 6 0.5 16.5t4.5 18.5q-40 0 -77.5 9t-70.5 33q-23 17 -42 43t-33 57.5t-21.5 66t-7.5 67.5q0 31 7.5 59t24.5 49q12 16 21.5 28t19.5 22t22 19t30 19q46 27 102 38t110 11q20 0 38.5 -0.5t37.5 -3.5q6 -1 22 -3.5
t33 -7.5t30 -13.5t13 -20.5v-2l-3 -24v0z" />
    <glyph glyph-name="Egrave" unicode="&#xc8;" horiz-adv-x="395" 
d="M422 491q-24 -5 -63.5 -10.5t-84.5 -15t-90.5 -24t-82 -37t-59.5 -53.5t-23 -73q0 -27 11.5 -43t29.5 -24.5t41 -11.5t47 -3q48 0 94 7t91 7q14 0 28.5 -3t17.5 -11q-28 -33 -62 -62.5t-64 -57t-50 -55t-20 -55.5q0 -23 28 -32t64 -9q20 0 40.5 2t37 6t28 9t14.5 10
q4 0 4 -4q0 -9 -10.5 -16t-29 -12.5t-42.5 -8.5t-51 -3q-19 0 -37 2.5t-31.5 9t-21.5 17.5t-8 27q0 27 19.5 55t48 56.5t60.5 56.5t57 54q-23 6 -50 6q-41 0 -84 -7t-85 -7q-21 0 -44 3.5t-42.5 13t-32 27t-12.5 46.5q0 16 3.5 33t9 32.5t13 28t15.5 19.5q40 37 85.5 57.5
t93.5 31.5t97.5 17t99.5 15q2 -2 2 -4v-7zM206 596q0 1 -0.5 1.5t-0.5 1.5q0 5 5 5q2 0 4 -2q10 -10 19 -16.5t16.5 -13.5t15 -16.5t15.5 -25.5q1 -2 1 -3q0 -6 -4 -6q-1 0 -9.5 7t-19.5 18t-22.5 24t-19.5 26z" />
    <glyph glyph-name="Eacute" unicode="&#xc9;" horiz-adv-x="395" 
d="M422 491v7q0 2 -2 4q-50 -9 -99.5 -15t-97.5 -17t-93.5 -31.5t-85.5 -57.5q-8 -7 -15.5 -19.5t-13 -28t-9 -32.5t-3.5 -33q0 -29 12.5 -46.5t32 -27t42.5 -13t44 -3.5q42 0 85 7t84 7q27 0 50 -6q-25 -26 -57 -54t-60.5 -56.5t-48 -56.5t-19.5 -55q0 -16 8 -27
t21.5 -17.5t31.5 -9t37 -2.5q27 0 51 3t42.5 8.5t29 12.5t10.5 16q0 4 -4 4q-3 -5 -14.5 -10t-28 -9t-37 -6t-40.5 -2q-36 0 -64 9t-28 32q0 28 20 55.5t50 55t64 57t62 62.5q-3 8 -17.5 11t-28.5 3q-45 0 -91 -7t-94 -7q-24 0 -47 3t-41 11.5t-29.5 24.5t-11.5 43
q0 42 23 73t59.5 53.5t82 37t90.5 24t84.5 15t63.5 10.5zM284 608q-3 -8 -18 -21t-33 -25.5t-33.5 -21.5t-17.5 -9q-5 0 -5 4q0 1 0.5 1.5t0.5 1.5q8 12 20.5 21.5t26 18.5t27 17.5t24.5 18.5q1 2 3 2q5 0 5 -5v-3z" />
    <glyph glyph-name="Ecircumflex" unicode="&#xca;" horiz-adv-x="395" 
d="M422 491q-24 -5 -63.5 -10.5t-84.5 -15t-90.5 -24t-82 -37t-59.5 -53.5t-23 -73q0 -27 11.5 -43t29.5 -24.5t41 -11.5t47 -3q48 0 94 7t91 7q14 0 28.5 -3t17.5 -11q-28 -33 -62 -62.5t-64 -57t-50 -55t-20 -55.5q0 -23 28 -32t64 -9q20 0 40.5 2t37 6t28 9t14.5 10
q4 0 4 -4q0 -9 -10.5 -16t-29 -12.5t-42.5 -8.5t-51 -3q-19 0 -37 2.5t-31.5 9t-21.5 17.5t-8 27q0 27 19.5 55t48 56.5t60.5 56.5t57 54q-23 6 -50 6q-41 0 -84 -7t-85 -7q-21 0 -44 3.5t-42.5 13t-32 27t-12.5 46.5q0 16 3.5 33t9 32.5t13 28t15.5 19.5q40 37 85.5 57.5
t93.5 31.5t97.5 17t99.5 15q2 -2 2 -4v-7zM248 601q1 1 4 1q6 0 13 -9.5t13 -21.5t9.5 -23.5t3.5 -14.5q0 -4 -5 -4q-4 0 -5 3q-2 14 -11 25t-17 23q-17 -14 -31.5 -33.5t-34.5 -31.5q-1 -1 -5 -1q-9 0 -9 9q0 4 3 7l20 18q11 11 21.5 24.5t30.5 28.5z" />
    <glyph glyph-name="Edieresis" unicode="&#xcb;" horiz-adv-x="395" 
d="M422 491q-24 -5 -63.5 -10.5t-84.5 -15t-90.5 -24t-82 -37t-59.5 -53.5t-23 -73q0 -27 11.5 -43t29.5 -24.5t41 -11.5t47 -3q48 0 94 7t91 7q14 0 28.5 -3t17.5 -11q-28 -33 -62 -62.5t-64 -57t-50 -55t-20 -55.5q0 -23 28 -32t64 -9q20 0 40.5 2t37 6t28 9t14.5 10
q4 0 4 -4q0 -9 -10.5 -16t-29 -12.5t-42.5 -8.5t-51 -3q-19 0 -37 2.5t-31.5 9t-21.5 17.5t-8 27q0 27 19.5 55t48 56.5t60.5 56.5t57 54q-23 6 -50 6q-41 0 -84 -7t-85 -7q-21 0 -44 3.5t-42.5 13t-32 27t-12.5 46.5q0 16 3.5 33t9 32.5t13 28t15.5 19.5q40 37 85.5 57.5
t93.5 31.5t97.5 17t99.5 15q2 -2 2 -4v-7zM240 554q4 0 6 -4v-2q0 -2 0.5 -3t0.5 -3q0 -3 -2.5 -6t-9.5 -3t-10.5 4t-3.5 8q0 10 11 10q6 0 8 -1zM232 545q3 0 3 3zM232 540q1 0 2 0.5t2 0.5l1 1q-2 -1 -3 -1t-2 -1zM303 554q5 0 5 -4v-2v-6q0 -3 -1.5 -6t-9.5 -3
q-7 0 -10 4t-3 8q0 10 11 10q4 0 8 -1zM295 545q2 0 2 1t1 2q-1 -1 -2.5 -1.5t-1.5 -1.5h1zM294 540q2 0 2.5 0.5t1.5 0.5v1z" />
    <glyph glyph-name="Igrave" unicode="&#xcc;" horiz-adv-x="109" 
d="M-53 480q0 1 -0.5 1.5t-0.5 1.5q0 6 6 6q5 0 10.5 -3.5t12.5 -3.5q17 0 36.5 8.5t37.5 20.5t32.5 25.5t21.5 23.5q2 2 6 2q7 0 7 -7v-5q-6 -9 -10 -31t-7 -47t-5.5 -48.5t-4.5 -36.5q-13 -88 -28.5 -174.5t-20.5 -175.5q0 -2 -0.5 -4.5t-0.5 -7.5q0 -11 1 -28t4 -34.5
t7.5 -34t10.5 -27.5q-2 6 -4 11.5t-2 12.5q0 4 1 9.5t6 5.5q4 0 4 -6q0 -2 -0.5 -4.5t-0.5 -4.5q0 -11 5 -21t6 -21q-2 -6 -6 -6q-8 0 -15 13t-11 20q-14 26 -18.5 55t-4.5 59q0 32 3.5 65.5t7.5 63.5q7 53 16.5 110t20.5 126q2 10 3.5 26.5t4 35.5t5.5 38.5t7 36.5
q-11 -10 -25.5 -19.5t-30 -17.5t-31 -13t-28.5 -5q-8 0 -15.5 2t-12.5 7zM53 660q0 1 -0.5 1.5t-0.5 1.5q0 5 5 5q2 0 4 -2q11 -10 19.5 -16.5t16 -13.5t15 -17t15.5 -26l1 -2q0 -6 -4 -6q-1 0 -9 7t-19 18t-23 24t-20 26z" />
    <glyph glyph-name="Iacute" unicode="&#xcd;" horiz-adv-x="109" 
d="M-53 480q5 -5 12.5 -7t15.5 -2q13 0 28.5 5t31 13t30 17.5t25.5 19.5q-4 -17 -7 -36.5t-5.5 -38.5t-4 -35.5t-3.5 -26.5q-11 -69 -20.5 -126t-16.5 -110q-4 -30 -7.5 -63.5t-3.5 -65.5q0 -30 4.5 -59t18.5 -55q4 -7 11 -20t15 -13q4 0 6 6q-1 11 -6 21t-5 21q0 2 0.5 4.5
t0.5 4.5q0 6 -4 6q-5 0 -6 -5.5t-1 -9.5q0 -7 2 -12.5t4 -11.5q-6 11 -10.5 27.5t-7.5 34t-4 34.5t-1 28q0 5 0.5 7.5t0.5 4.5q5 89 20.5 175.5t28.5 174.5q2 13 4.5 36.5t5.5 48.5t7 47t10 31v5q0 7 -7 7q-4 0 -6 -2q-7 -10 -21.5 -23.5t-32.5 -25.5t-37.5 -20.5
t-36.5 -8.5q-7 0 -12.5 3.5t-10.5 3.5q-6 0 -6 -6q0 -1 0.5 -1.5t0.5 -1.5zM136 641q-3 -8 -18 -20.5t-33 -25.5t-33 -22t-17 -9q-5 0 -5 4q0 2 0.5 2t0.5 1q8 12 20 21.5t25.5 18.5l27 18t24.5 19q1 1 4 1q4 0 4 -6v-2z" />
    <glyph glyph-name="Icircumflex" unicode="&#xce;" horiz-adv-x="109" 
d="M-53 480q0 1 -0.5 1.5t-0.5 1.5q0 6 6 6q5 0 10.5 -3.5t12.5 -3.5q17 0 36.5 8.5t37.5 20.5t32.5 25.5t21.5 23.5q2 2 6 2q7 0 7 -7v-5q-6 -9 -10 -31t-7 -47t-5.5 -48.5t-4.5 -36.5q-13 -88 -28.5 -174.5t-20.5 -175.5q0 -2 -0.5 -4.5t-0.5 -7.5q0 -11 1 -28t4 -34.5
t7.5 -34t10.5 -27.5q-2 6 -4 11.5t-2 12.5q0 4 1 9.5t6 5.5q4 0 4 -6q0 -2 -0.5 -4.5t-0.5 -4.5q0 -11 5 -21t6 -21q-2 -6 -6 -6q-8 0 -15 13t-11 20q-14 26 -18.5 55t-4.5 59q0 32 3.5 65.5t7.5 63.5q7 53 16.5 110t20.5 126q2 10 3.5 26.5t4 35.5t5.5 38.5t7 36.5
q-11 -10 -25.5 -19.5t-30 -17.5t-31 -13t-28.5 -5q-8 0 -15.5 2t-12.5 7zM108 656q1 1 4 1q6 0 13 -9.5t13 -21t9.5 -22.5t3.5 -14q0 -6 -5 -6t-5 4q-3 14 -11.5 25t-16.5 23q-17 -15 -32 -34t-35 -31q-1 -1 -4 -1q-9 0 -9 9q0 4 2 6l21 18q11 12 21.5 25.5t30.5 27.5z" />
    <glyph glyph-name="Idieresis" unicode="&#xcf;" horiz-adv-x="109" 
d="M-53 480q0 1 -0.5 1.5t-0.5 1.5q0 6 6 6q5 0 10.5 -3.5t12.5 -3.5q17 0 36.5 8.5t37.5 20.5t32.5 25.5t21.5 23.5q2 2 6 2q7 0 7 -7v-5q-6 -9 -10 -31t-7 -47t-5.5 -48.5t-4.5 -36.5q-13 -88 -28.5 -174.5t-20.5 -175.5q0 -2 -0.5 -4.5t-0.5 -7.5q0 -11 1 -28t4 -34.5
t7.5 -34t10.5 -27.5q-2 6 -4 11.5t-2 12.5q0 4 1 9.5t6 5.5q4 0 4 -6q0 -2 -0.5 -4.5t-0.5 -4.5q0 -11 5 -21t6 -21q-2 -6 -6 -6q-8 0 -15 13t-11 20q-14 26 -18.5 55t-4.5 59q0 32 3.5 65.5t7.5 63.5q7 53 16.5 110t20.5 126q2 10 3.5 26.5t4 35.5t5.5 38.5t7 36.5
q-11 -10 -25.5 -19.5t-30 -17.5t-31 -13t-28.5 -5q-8 0 -15.5 2t-12.5 7zM87 603q5 0 5 -4v-2q0 -2 0.5 -3t0.5 -3q0 -3 -2.5 -6t-9.5 -3q-6 0 -10 4.5t-4 7.5q0 10 12 10q5 0 8 -1zM79 594l3 3q-4 -2 -4 -3h1zM78 589q2 1 5 1v1q-1 0 -5 -2zM149 603q5 0 6 -4v-2
q0 -2 0.5 -3t0.5 -3q0 -3 -2.5 -6t-9.5 -3t-10.5 4.5t-3.5 7.5q0 10 11 10q6 0 8 -1zM141 594q3 0 3 3zM141 589q1 1 4 1l1 1q-3 0 -5 -2z" />
    <glyph glyph-name="Eth" unicode="&#xd0;" horiz-adv-x="489" 
d="M4 210q-5 0 -5 6q0 2 7.5 4t18 3t21.5 2t17 2q0 6 -0.5 11.5t-0.5 11.5q0 56 8.5 106.5t32.5 89.5q8 11 14 24t17 23q20 21 45 31.5t51 10.5q14 0 29 -3.5t30 -11.5q37 -22 71.5 -56.5t61 -76.5t42 -88.5t15.5 -91.5q0 -53 -24 -98t-61.5 -80.5t-84.5 -61.5t-93 -40
q-15 -5 -30 -9t-31 -4h-41.5t-20 2t-17.5 6.5t-35 14.5q-3 3 -3 5q0 5 5 5h2q21 -8 38.5 -15.5t44.5 -7.5q46 0 99 19.5t99.5 51.5t81 73t45.5 83q6 24 6 50q0 48 -20.5 103.5t-53.5 102.5t-74.5 78t-83.5 31q-43 0 -71 -27.5t-44.5 -69.5t-24 -93t-8.5 -98q21 3 36.5 5.5
t29 5t26.5 3.5t30 1h9h12t10.5 -1.5t4.5 -4.5v-2q-26 -5 -45.5 -8.5t-37 -6t-35.5 -4.5t-40 -4q0 -59 4 -115.5t9 -105.5l3 -3q0 -3 -5 -3q-3 0 -7 2q-2 43 -9.5 101.5t-9.5 122.5q-15 -1 -30 -1h-30z" />
    <glyph glyph-name="Ntilde" unicode="&#xd1;" horiz-adv-x="476" 
d="M-92 -92q-5 2 -5 6t10 4h9q10 0 21.5 7.5t22 18.5t19.5 22.5t15 19.5q16 23 35.5 61.5t39 84t38 92t32.5 85t22.5 63.5t9.5 28q0 10 -0.5 20t-0.5 20q0 12 -0.5 29t1 33.5t6 28t14.5 11.5q4 0 6.5 -3t2.5 -18q0 -26 -1.5 -43t-3.5 -29.5t-4 -22t-4 -19.5q1 -50 5.5 -98
t11.5 -96q3 -20 7 -44t10 -48.5t14 -48.5t18 -42q7 -11 17.5 -19.5t20.5 -18.5q11 2 23 3t23 7q23 12 44 39t32 49q14 29 20.5 58.5t6.5 61.5q0 71 -26.5 140t-60.5 129q-1 3 -8 16.5t-16 29.5t-17 30t-11 17q0 1 -0.5 1.5t-0.5 1.5q0 5 5 5q7 0 11.5 -12t7.5 -18
q23 -40 46.5 -79t42 -81t30.5 -89.5t12 -103.5q0 -32 -7 -62.5t-23 -55.5q-10 -17 -21.5 -35.5t-26.5 -34.5t-33.5 -26.5t-42.5 -10.5q-20 0 -37 11.5t-27 37.5q-8 20 -17.5 41t-13.5 43q-8 38 -13 61.5t-8.5 44t-6 44.5t-4.5 64l-2 35q-7 -21 -19 -52.5t-27 -68t-31.5 -75
t-33 -73t-31.5 -63t-26 -43.5q-4 -5 -12.5 -15.5t-19 -21.5t-21.5 -20t-20 -12q-7 -2 -14.5 -1.5t-14.5 -0.5zM170 606q-1 -1 -3 -1q-5 0 -5 5q0 2 0.5 2t1.5 2l25.5 25.5t23.5 12.5q9 0 16 -7.5t13.5 -16.5t12.5 -16.5t14 -7.5q13 0 23.5 8.5t21.5 13.5h2q5 0 5 -4
q0 -3 -7 -8.5t-17 -11t-20 -9.5t-17 -4q-9 0 -14.5 5t-10 12t-8.5 14.5t-11 11.5q-14 -2 -24.5 -10t-21.5 -16z" />
    <glyph glyph-name="Ograve" unicode="&#xd2;" horiz-adv-x="759" 
d="M539 477q37 -26 75.5 -56.5t70 -66t51 -75t19.5 -84.5q0 -24 -8 -47t-27 -46q-33 -38 -75 -64.5t-89 -43t-97.5 -23.5t-99.5 -7q-62 0 -124.5 12.5t-112 41t-80.5 73.5t-31 111q0 15 2 31t5 34q6 24 26.5 49.5t47.5 48.5t55 41.5t49 29.5q35 19 73.5 33t76.5 21
q22 5 53.5 12t63.5 9q-18 6 -18 14q0 3 4 3q8 0 33 -16q7 0 18.5 -1t21.5 -3t17.5 -5t7.5 -8v-2zM691 321q-15 18 -37.5 40.5t-50.5 46.5t-59.5 48t-63.5 44q-35 -3 -82 -12t-97.5 -26t-100 -41.5t-89 -57.5t-63.5 -74.5t-24 -91.5q0 -51 29.5 -91.5t76.5 -68.5t106 -42.5
t118 -14.5q71 0 138.5 16.5t122.5 45.5q21 11 42.5 26.5t39.5 35t29 43t11 50.5q0 32 -12.5 65t-33.5 59zM529 480l6 13q-7 4 -16.5 5.5t-20.5 2.5zM387 626q-2 2 -2 3q0 4 5 4q3 0 5 -1q21 -20 42 -34.5t44 -39.5q2 -2 2 -3q0 -4 -5 -4q-4 0 -5 1q-5 5 -16 13t-24.5 17.5
t-26 21t-19.5 22.5z" />
    <glyph glyph-name="Oacute" unicode="&#xd3;" horiz-adv-x="759" 
d="M539 477l8 16v2q0 5 -7.5 8t-17.5 5t-21.5 3t-18.5 1q-25 16 -33 16q-4 0 -4 -3q0 -8 18 -14q-32 -2 -63.5 -9t-53.5 -12q-38 -7 -76.5 -21t-73.5 -33q-21 -11 -49 -29.5t-55 -41.5t-47.5 -48.5t-26.5 -49.5q-3 -18 -5 -34t-2 -31q0 -66 31 -111t80.5 -73.5t112 -41
t124.5 -12.5q49 0 99.5 7t97.5 23.5t89 43t75 64.5q19 23 27 46t8 47q0 45 -19.5 84.5t-51 75t-70 66t-75.5 56.5zM691 321q21 -26 33.5 -59t12.5 -65q0 -27 -11 -50.5t-29 -43t-39.5 -35t-42.5 -26.5q-55 -29 -122.5 -45.5t-138.5 -16.5q-59 0 -118 14.5t-106 42.5
t-76.5 68.5t-29.5 91.5q0 50 24 91.5t63.5 74.5t89 57.5t100 41.5t97.5 26t82 12q32 -20 63.5 -44t59.5 -48t50.5 -46.5t37.5 -40.5zM498 501q11 -1 20.5 -2.5t16.5 -5.5l-6 -13zM443 629q-2 -8 -17 -21t-33 -26t-33.5 -22t-18.5 -9q-4 0 -4 4q0 2 0.5 2t1.5 2q8 12 20 21.5
t25.5 18.5t26.5 17.5t24 18.5q2 1 5 1q4 0 4 -5z" />
    <glyph glyph-name="Ocircumflex" unicode="&#xd4;" horiz-adv-x="759" 
d="M539 477q37 -26 75.5 -56.5t70 -66t51 -75t19.5 -84.5q0 -24 -8 -47t-27 -46q-33 -38 -75 -64.5t-89 -43t-97.5 -23.5t-99.5 -7q-62 0 -124.5 12.5t-112 41t-80.5 73.5t-31 111q0 15 2 31t5 34q6 24 26.5 49.5t47.5 48.5t55 41.5t49 29.5q35 19 73.5 33t76.5 21
q22 5 53.5 12t63.5 9q-18 6 -18 14q0 3 4 3q8 0 33 -16q7 0 18.5 -1t21.5 -3t17.5 -5t7.5 -8v-2zM691 321q-15 18 -37.5 40.5t-50.5 46.5t-59.5 48t-63.5 44q-35 -3 -82 -12t-97.5 -26t-100 -41.5t-89 -57.5t-63.5 -74.5t-24 -91.5q0 -51 29.5 -91.5t76.5 -68.5t106 -42.5
t118 -14.5q71 0 138.5 16.5t122.5 45.5q21 11 42.5 26.5t39.5 35t29 43t11 50.5q0 32 -12.5 65t-33.5 59zM529 480l6 13q-7 4 -16.5 5.5t-20.5 2.5zM427 642q1 0 1 0.5t1 0.5h1q7 0 14 -9.5t13 -21.5t9.5 -23t3.5 -14q0 -4 -6 -4q-4 0 -4 3q-2 14 -11.5 25t-17.5 23
q-17 -15 -31.5 -34.5t-34.5 -30.5q-1 -1 -5 -1q-3 0 -6 2.5t-3 5.5q0 5 3 7l21 19q11 11 21.5 24.5t30.5 27.5z" />
    <glyph glyph-name="Otilde" unicode="&#xd5;" horiz-adv-x="759" 
d="M539 477q37 -26 75.5 -56.5t70 -66t51 -75t19.5 -84.5q0 -24 -8 -47t-27 -46q-33 -38 -75 -64.5t-89 -43t-97.5 -23.5t-99.5 -7q-62 0 -124.5 12.5t-112 41t-80.5 73.5t-31 111q0 15 2 31t5 34q6 24 26.5 49.5t47.5 48.5t55 41.5t49 29.5q35 19 73.5 33t76.5 21
q22 5 53.5 12t63.5 9q-18 6 -18 14q0 3 4 3q8 0 33 -16q7 0 18.5 -1t21.5 -3t17.5 -5t7.5 -8v-2zM691 321q-15 18 -37.5 40.5t-50.5 46.5t-59.5 48t-63.5 44q-35 -3 -82 -12t-97.5 -26t-100 -41.5t-89 -57.5t-63.5 -74.5t-24 -91.5q0 -51 29.5 -91.5t76.5 -68.5t106 -42.5
t118 -14.5q71 0 138.5 16.5t122.5 45.5q21 11 42.5 26.5t39.5 35t29 43t11 50.5q0 32 -12.5 65t-33.5 59zM529 480l6 13q-7 4 -16.5 5.5t-20.5 2.5zM327 570q-6 0 -6 4q0 2 3 4l25 25t23 13t17 -7.5t13.5 -16.5t13 -16.5t14.5 -7.5q11 0 21.5 8.5t21.5 13.5h2q5 0 5 -5
q0 -3 -7 -8.5t-16.5 -11t-19.5 -9.5t-17 -4q-9 0 -15 5t-10.5 12.5t-8.5 15t-11 12.5q-13 -4 -24 -11.5t-22 -15.5h-2z" />
    <glyph glyph-name="Odieresis" unicode="&#xd6;" horiz-adv-x="759" 
d="M539 477q37 -26 75.5 -56.5t70 -66t51 -75t19.5 -84.5q0 -24 -8 -47t-27 -46q-33 -38 -75 -64.5t-89 -43t-97.5 -23.5t-99.5 -7q-62 0 -124.5 12.5t-112 41t-80.5 73.5t-31 111q0 15 2 31t5 34q6 24 26.5 49.5t47.5 48.5t55 41.5t49 29.5q35 19 73.5 33t76.5 21
q22 5 53.5 12t63.5 9q-18 6 -18 14q0 3 4 3q8 0 33 -16q7 0 18.5 -1t21.5 -3t17.5 -5t7.5 -8v-2zM691 321q-15 18 -37.5 40.5t-50.5 46.5t-59.5 48t-63.5 44q-35 -3 -82 -12t-97.5 -26t-100 -41.5t-89 -57.5t-63.5 -74.5t-24 -91.5q0 -51 29.5 -91.5t76.5 -68.5t106 -42.5
t118 -14.5q71 0 138.5 16.5t122.5 45.5q21 11 42.5 26.5t39.5 35t29 43t11 50.5q0 32 -12.5 65t-33.5 59zM529 480l6 13q-7 4 -16.5 5.5t-20.5 2.5zM407 587q3 0 5 -5v-1v-5q0 -9 -12 -9q-6 0 -9 3.5t-3 8.5q0 10 11 10q4 0 8 -2zM399 579h-1l3 2zM398 572q2 2 4 2v1
q-1 -1 -2 -1t-2 -2zM469 587q3 0 5 -5v-1q0 -1 0.5 -2t0.5 -3q0 -9 -12 -9q-7 0 -10 3.5t-3 8.5q0 10 11 10q5 0 8 -2zM461 579q1 0 3 2l-4 -2h1zM460 572q2 2 4 2l1 1q-1 -1 -2.5 -1t-2.5 -2z" />
    <glyph glyph-name="multiply" unicode="&#xd7;" horiz-adv-x="197" 
d="M151 216q2 1 4 1q4 0 4 -4q0 -3 -6 -9.5t-14.5 -14.5t-18 -16t-15.5 -15q12 -8 25 -17.5t24 -19t18.5 -19.5t7.5 -17q0 -5 -4 -5t-5 3q-5 10 -29.5 27.5t-51.5 35.5q-24 -23 -45 -46t-29 -43q-2 -2 -5 -2q-5 0 -5 5q7 28 26 51.5t42 43.5q-21 12 -37.5 20.5t-22.5 10.5
h-1q-5 2 -5 7q0 3 6 5q13 0 33.5 -9t41.5 -21q16 14 32 25t30 23z" />
    <glyph glyph-name="Oslash" unicode="&#xd8;" horiz-adv-x="763" 
d="M539 477q37 -26 75.5 -56.5t70 -66t51 -75t19.5 -84.5q0 -24 -8 -47t-27 -46q-33 -38 -75 -64.5t-89 -43t-97.5 -23.5t-99.5 -7q-62 0 -124.5 12.5t-112 41t-80.5 73.5t-31 111q0 15 2 31t5 34q6 24 26.5 49.5t47.5 48.5t55 41.5t49 29.5q35 19 73.5 33t76.5 21
q22 5 53.5 12t63.5 9q-18 6 -18 14q0 3 4 3q8 0 33 -16q7 0 18.5 -1t21.5 -3t17.5 -5t7.5 -8v-2zM691 321q-15 18 -37.5 40.5t-50.5 46.5t-59.5 48t-63.5 44q-35 -3 -82 -12t-97.5 -26t-100 -41.5t-89 -57.5t-63.5 -74.5t-24 -91.5q0 -51 29.5 -91.5t76.5 -68.5t106 -42.5
t118 -14.5q71 0 138.5 16.5t122.5 45.5q21 11 42.5 26.5t39.5 35t29 43t11 50.5q0 32 -12.5 65t-33.5 59zM529 480l6 13q-7 4 -16.5 5.5t-20.5 2.5zM602 512q1 4 5 4q5 0 5 -5v-1q-26 -30 -69 -78t-94 -105t-104.5 -119.5t-99.5 -123t-80 -114t-46 -93.5q-2 -3 -4 -3
q-6 0 -6 6q3 27 23.5 66.5t53.5 86t74.5 97.5t85 101t86.5 96.5t78 84.5t59.5 64t32.5 36z" />
    <glyph glyph-name="Ugrave" unicode="&#xd9;" horiz-adv-x="647" 
d="M-158 470q-1 -1 -2 -1h-1q-6 0 -6 4t3 6q33 22 71 36t75 25q15 4 32 7.5t33.5 6.5t31 5t25.5 2h8.5t9.5 -1q19 -3 27.5 -4.5t14.5 -3.5t13 -6t23 -13q24 -12 33 -35t9 -52q0 -25 -5 -52t-12.5 -52t-15.5 -46.5t-13 -36.5q-10 -23 -20 -45.5t-19 -45.5q-13 -32 -26.5 -68
t-13.5 -65q0 -42 26.5 -60t67.5 -18q45 0 100 17t105.5 43.5t88.5 58t50 60.5q7 42 10.5 84.5t8.5 84.5q1 10 4 34.5t7 50t9 45t10 19.5q3 0 5 -1q18 -18 25.5 -52t7.5 -72q0 -41 -6 -75.5t-14 -48.5q-6 -19 -17.5 -35t-23.5 -31q-8 -11 -12.5 -27t-6.5 -35t-2.5 -39
t-0.5 -39q0 -48 7 -96.5t25 -91.5v-2q0 -5 -4 -5q-2 0 -5 3q-23 49 -31.5 92.5t-8.5 89.5q0 27 2 54.5t6 58.5q-33 -35 -74.5 -64.5t-86.5 -51.5t-91 -34t-88 -12q-47 0 -79 20.5t-32 70.5q0 25 10 58q13 43 33 87.5t38.5 88.5t32 88t13.5 86q0 51 -29 80t-92 29
q-29 0 -60 -5.5t-60 -13.5q-36 -11 -73.5 -24t-69.5 -35zM588 305q-5 -35 -6.5 -72t-7.5 -72q26 34 39 75t13 83q0 56 -19 101q-2 -13 -5 -31t-6 -35.5t-5 -31t-3 -17.5zM343 632q-2 2 -2 4q0 5 6 5q1 0 3 -2q11 -10 19.5 -16.5t16 -14t15 -17t16.5 -25.5q1 -2 1 -3
q0 -5 -5 -5q-1 0 -9 7t-18.5 17.5t-22.5 24t-20 25.5z" />
    <glyph glyph-name="Uacute" unicode="&#xda;" horiz-adv-x="647" 
d="M-158 470q32 22 69.5 35t73.5 24q29 8 60 13.5t60 5.5q63 0 92 -29t29 -80q0 -42 -13.5 -86t-32 -88t-38.5 -88.5t-33 -87.5q-10 -33 -10 -58q0 -50 32 -70.5t79 -20.5q42 0 88 12t91 34t86.5 51.5t74.5 64.5q-4 -31 -6 -58.5t-2 -54.5q0 -46 8.5 -89.5t31.5 -92.5
q3 -3 5 -3q4 0 4 5v2q-18 43 -25 91.5t-7 96.5q0 19 0.5 39t2.5 39t6.5 35t12.5 27q12 15 23.5 31t17.5 35q8 14 14 48.5t6 75.5q0 38 -7.5 72t-25.5 52q-2 1 -5 1q-5 0 -10 -19.5t-9 -45t-7 -50t-4 -34.5q-5 -42 -8.5 -84.5t-10.5 -84.5q-12 -29 -50 -60.5t-88.5 -58
t-105.5 -43.5t-100 -17q-41 0 -67.5 18t-26.5 60q0 29 13.5 65t26.5 68q9 23 19 45.5t20 45.5q5 15 13 36.5t15.5 46.5t12.5 52t5 52q0 29 -9 52t-33 35q-16 9 -23 13t-13 6t-14.5 3.5t-27.5 4.5q-5 1 -9.5 1h-8.5q-11 0 -25.5 -2t-31 -5t-33.5 -6.5t-32 -7.5
q-37 -11 -75 -25t-71 -36q-3 -2 -3 -6t6 -4h1q1 0 2 1zM588 305q1 4 3 17.5t5 31t6 35.5t5 31q19 -45 19 -101q0 -42 -13 -83t-39 -75q6 35 7.5 72t6.5 72zM473 629q-3 -8 -18 -21t-33 -26t-33 -22t-18 -9q-4 0 -4 4q0 2 0.5 2t0.5 2q8 12 20.5 21.5t26 18.5t26.5 17.5
t24 18.5q1 1 4 1q4 0 4 -5v-2z" />
    <glyph glyph-name="Ucircumflex" unicode="&#xdb;" horiz-adv-x="647" 
d="M-158 470q-1 -1 -2 -1h-1q-6 0 -6 4t3 6q33 22 71 36t75 25q15 4 32 7.5t33.5 6.5t31 5t25.5 2h8.5t9.5 -1q19 -3 27.5 -4.5t14.5 -3.5t13 -6t23 -13q24 -12 33 -35t9 -52q0 -25 -5 -52t-12.5 -52t-15.5 -46.5t-13 -36.5q-10 -23 -20 -45.5t-19 -45.5q-13 -32 -26.5 -68
t-13.5 -65q0 -42 26.5 -60t67.5 -18q45 0 100 17t105.5 43.5t88.5 58t50 60.5q7 42 10.5 84.5t8.5 84.5q1 10 4 34.5t7 50t9 45t10 19.5q3 0 5 -1q18 -18 25.5 -52t7.5 -72q0 -41 -6 -75.5t-14 -48.5q-6 -19 -17.5 -35t-23.5 -31q-8 -11 -12.5 -27t-6.5 -35t-2.5 -39
t-0.5 -39q0 -48 7 -96.5t25 -91.5v-2q0 -5 -4 -5q-2 0 -5 3q-23 49 -31.5 92.5t-8.5 89.5q0 27 2 54.5t6 58.5q-33 -35 -74.5 -64.5t-86.5 -51.5t-91 -34t-88 -12q-47 0 -79 20.5t-32 70.5q0 25 10 58q13 43 33 87.5t38.5 88.5t32 88t13.5 86q0 51 -29 80t-92 29
q-29 0 -60 -5.5t-60 -13.5q-36 -11 -73.5 -24t-69.5 -35zM588 305q-5 -35 -6.5 -72t-7.5 -72q26 34 39 75t13 83q0 56 -19 101q-2 -13 -5 -31t-6 -35.5t-5 -31t-3 -17.5zM438 642q2 1 3 1q7 0 14 -9.5t12.5 -21.5t9 -23t3.5 -14q0 -4 -5 -4q-4 0 -5 3q-2 14 -11 25t-17 23
q-17 -15 -31.5 -34.5t-34.5 -30.5q-1 -1 -5 -1q-9 0 -9 8q0 5 3 7l20 19q11 11 22 24.5t31 27.5z" />
    <glyph glyph-name="Udieresis" unicode="&#xdc;" horiz-adv-x="647" 
d="M-158 470q-1 -1 -2 -1h-1q-6 0 -6 4t3 6q33 22 71 36t75 25q15 4 32 7.5t33.5 6.5t31 5t25.5 2h8.5t9.5 -1q19 -3 27.5 -4.5t14.5 -3.5t13 -6t23 -13q24 -12 33 -35t9 -52q0 -25 -5 -52t-12.5 -52t-15.5 -46.5t-13 -36.5q-10 -23 -20 -45.5t-19 -45.5q-13 -32 -26.5 -68
t-13.5 -65q0 -42 26.5 -60t67.5 -18q45 0 100 17t105.5 43.5t88.5 58t50 60.5q7 42 10.5 84.5t8.5 84.5q1 10 4 34.5t7 50t9 45t10 19.5q3 0 5 -1q18 -18 25.5 -52t7.5 -72q0 -41 -6 -75.5t-14 -48.5q-6 -19 -17.5 -35t-23.5 -31q-8 -11 -12.5 -27t-6.5 -35t-2.5 -39
t-0.5 -39q0 -48 7 -96.5t25 -91.5v-2q0 -5 -4 -5q-2 0 -5 3q-23 49 -31.5 92.5t-8.5 89.5q0 27 2 54.5t6 58.5q-33 -35 -74.5 -64.5t-86.5 -51.5t-91 -34t-88 -12q-47 0 -79 20.5t-32 70.5q0 25 10 58q13 43 33 87.5t38.5 88.5t32 88t13.5 86q0 51 -29 80t-92 29
q-29 0 -60 -5.5t-60 -13.5q-36 -11 -73.5 -24t-69.5 -35zM588 305q-5 -35 -6.5 -72t-7.5 -72q26 34 39 75t13 83q0 56 -19 101q-2 -13 -5 -31t-6 -35.5t-5 -31t-3 -17.5zM395 575q3 0 5 -4v-2q0 -2 0.5 -2.5t0.5 -2.5q0 -4 -2 -6.5t-10 -2.5q-7 0 -10 3.5t-3 8.5q0 10 12 10
q4 0 7 -2zM388 567l2 3l-2 -2l-1 -1h1zM387 561q1 0 1.5 0.5t1.5 0.5l1 1q-1 -1 -2 -1t-2 -1zM458 575q3 0 5 -4v-2q0 -2 0.5 -2.5t0.5 -2.5q0 -9 -13 -9q-6 0 -9 3.5t-3 8.5q0 10 11 10q4 0 8 -2zM450 567l2 3l-2 -2l-1 -1h1zM449 561q1 0 1.5 0.5t2.5 0.5l1 1q-2 -1 -3 -1
t-2 -1z" />
    <glyph glyph-name="Yacute" unicode="&#xdd;" horiz-adv-x="606" 
d="M-361 464l-6 -3h1q-3 -2 -3 -4q0 -6 6 -6q42 14 98.5 24.5t114.5 10.5q43 0 83.5 -8.5t72 -30t50.5 -58t19 -91.5q0 -14 -1 -27.5t-3 -25.5q-4 -33 -12 -69t-16.5 -70.5t-15 -64t-6.5 -47.5q0 -28 15.5 -37t37.5 -9q21 0 44.5 7t46.5 16.5t43 20t33 17.5q25 13 55 31
t61.5 38.5t62.5 44t59 49.5q8 -27 12.5 -51t4.5 -53q0 -34 -6 -67q-18 3 -40 3q-34 0 -70 -5.5t-71.5 -14t-69 -19.5t-60.5 -21q-28 -11 -66 -28t-72 -39.5t-58 -50t-24 -58.5q0 -20 12.5 -41t39.5 -44q48 -32 104 -32q50 0 99.5 21t93 52.5t78.5 68t57 66.5q8 11 17.5 26.5
t18.5 32.5t17 35t12 35q6 -3 15 -14t14 -11t5 4q0 1 -3.5 5.5t-8.5 10t-10.5 10t-9.5 6.5q0 14 1 28t1 29q0 32 -4 64.5t-13 66.5q48 48 72 97.5t24 110.5q0 22 -4.5 43t-15 38t-28 30t-43.5 19q-5 2 -9.5 2.5t-9.5 0.5q-19 0 -32 -9.5t-21.5 -24.5t-12 -33.5t-3.5 -36.5
q0 -29 6.5 -58.5t16 -58.5t20 -57.5t18.5 -56.5q-51 -52 -114 -93t-127 -75q-35 -19 -76 -39t-83 -20q-25 2 -29.5 13.5t-4.5 30.5q0 21 4 43t10 43t11.5 39.5t8.5 31.5q5 24 8 42t4.5 35t2 35t0.5 42q0 51 -23.5 85t-59.5 54.5t-80 29t-86 8.5q-54 0 -101.5 -10.5
t-98.5 -23.5zM470 -60q-24 -52 -63.5 -101t-88.5 -87.5t-103.5 -61.5t-107.5 -23q-24 0 -47 8t-41 22.5t-29.5 33.5t-11.5 41q0 24 18 48q25 31 63.5 55t81 42t86.5 31t80 22q12 3 30.5 7t40 8t44 6.5t42.5 2.5q7 0 13 -0.5t12 -1.5q-4 -13 -8 -25.5t-11 -26.5zM434 405
q0 5 -0.5 11t-0.5 12q0 13 2 27.5t7.5 26t14.5 19t24 7.5q22 0 40 -11.5t30 -29t18.5 -38t6.5 -39.5q0 -26 -7.5 -51t-20 -48.5t-28 -44t-31.5 -38.5q-15 50 -32.5 98t-22.5 99zM270 574q-2 -8 -17 -21t-33 -25.5t-33.5 -21.5t-18.5 -9q-4 0 -4 3q0 2 2 4q8 12 20 21.5
t25.5 18.5t26.5 18t24 19h5q4 0 4 -4q0 -1 -0.5 -1t-0.5 -1v-1z" />
    <glyph glyph-name="Thorn" unicode="&#xde;" horiz-adv-x="195" 
d="M25 461q0 6 5 6q4 0 6.5 -22.5t3.5 -53t1 -62.5v-51q77 0 109.5 -16t32.5 -35q0 -14 -13.5 -29t-33.5 -30t-43 -28.5t-42 -24.5q-1 -1 -3 -1q-4 0 -4 4q0 2 2 6q11 8 31 20t39.5 26.5t34 29t14.5 27.5q0 9 -9.5 15.5t-26.5 11t-39.5 7.5t-48.5 7q-1 -88 -3 -157.5
t-5 -135.5q-2 -5 -6 -5q-3 0 -4 15.5t-1.5 36.5t0 42t0.5 32q0 91 1 184t2 181z" />
    <glyph glyph-name="germandbls" unicode="&#xdf;" horiz-adv-x="291" 
d="M58 -175q0 -5 -5 -5q-3 0 -5 4q-2 32 -10 61t-14 59q-5 26 -7 53t-2 53q0 39 4 77t11 73q2 10 6 27.5t10 36.5t13.5 35.5t16.5 24.5q19 17 35.5 30.5t43.5 13.5q9 0 20.5 -4t21.5 -11t16.5 -18t6.5 -24q0 -14 -8.5 -31t-19 -33.5t-19.5 -32t-10 -25.5q12 -10 31.5 -19.5
t37.5 -21t31.5 -26.5t13.5 -36q0 -20 -12 -39t-29.5 -35t-37.5 -29.5t-36 -22.5q-8 -5 -23 -15.5t-29 -10.5q-3 0 -8 1.5t-5 6.5t5 5q2 0 4 -2l1 -1q14 2 35.5 15t43 30.5t39.5 35t26 28.5q10 14 10 30q0 19 -13 32.5t-31.5 24t-38 19.5t-31.5 20l-2 4t-1 4q3 16 11.5 31
t18 30.5t17 30.5t7.5 31q0 21 -13 28.5t-31 7.5q-29 0 -47.5 -15.5t-30.5 -38.5t-18.5 -49t-10.5 -46q-9 -40 -12.5 -81t-3.5 -83q0 -35 3 -68q3 -36 13 -69.5t11 -70.5z" />
    <glyph glyph-name="agrave" unicode="&#xe0;" horiz-adv-x="146" 
d="M129 94q0 -5 -4 -5q-5 0 -11 7.5t-17 7.5t-23.5 -5t-23.5 -13t-18 -17.5t-7 -18.5q0 -6 3 -7t7 -1q10 0 19.5 3t17.5 5q21 6 34 6t17.5 -5.5t5.5 -14.5t1.5 -20t5.5 -21q1 -1 1 -3q0 -6 -4 -6q-6 0 -8.5 8.5t-4 19t-4.5 19t-10 8.5t-16 -3t-19 -6t-20.5 -6t-19.5 -3
q-10 0 -18 5t-8 20q0 13 8.5 25.5t21.5 22t29 15.5t30 6q11 0 20.5 -5t14.5 -17v-1zM45 220q0 5 5 5q2 0 4 -2q11 -10 19.5 -16.5t16 -13.5t14.5 -17t16 -26q1 -1 1 -3q0 -5 -5 -5l-8 7t-19.5 18t-23.5 24t-20 26v3z" />
    <glyph glyph-name="aacute" unicode="&#xe1;" horiz-adv-x="146" 
d="M129 95q-5 12 -14.5 17t-20.5 5q-14 0 -30 -6t-29 -15.5t-21.5 -22t-8.5 -25.5q0 -15 8 -20t18 -5q9 0 19.5 3t20.5 6t19 6t16 3t10 -8.5t4.5 -19t4 -19t8.5 -8.5q4 0 4 6q0 2 -1 3q-5 10 -5.5 21t-1.5 20t-5.5 14.5t-17.5 5.5t-34 -6q-8 -2 -17.5 -5t-19.5 -3q-4 0 -7 1
t-3 7q0 9 7 18.5t18 17.5t23.5 13t23.5 5t17 -7.5t11 -7.5q4 0 4 5v1zM136 217q-3 -8 -18 -20.5t-33 -25.5t-33 -22t-18 -9q-5 0 -5 4q0 3 2 3q8 12 20 21.5t25.5 18.5t26.5 18t24 19q2 1 5 1q4 0 4 -5v-3z" />
    <glyph glyph-name="acircumflex" unicode="&#xe2;" horiz-adv-x="146" 
d="M129 94q0 -5 -4 -5q-5 0 -11 7.5t-17 7.5t-23.5 -5t-23.5 -13t-18 -17.5t-7 -18.5q0 -6 3 -7t7 -1q10 0 19.5 3t17.5 5q21 6 34 6t17.5 -5.5t5.5 -14.5t1.5 -20t5.5 -21q1 -1 1 -3q0 -6 -4 -6q-6 0 -8.5 8.5t-4 19t-4.5 19t-10 8.5t-16 -3t-19 -6t-20.5 -6t-19.5 -3
q-10 0 -18 5t-8 20q0 13 8.5 25.5t21.5 22t29 15.5t30 6q11 0 20.5 -5t14.5 -17v-1zM97 232q7 0 14 -9t12.5 -21t9 -23t3.5 -14q0 -5 -5 -5t-5 4q-2 14 -11.5 25t-17.5 23q-17 -14 -33.5 -33t-36.5 -31q-2 -1 -4 -1q-7 0 -7 6q0 1 5 8l20 17q11 12 22 26t31 28h3z" />
    <glyph glyph-name="atilde" unicode="&#xe3;" horiz-adv-x="175" 
d="M129 94q0 -5 -4 -5q-5 0 -11 7.5t-17 7.5t-23.5 -5t-23.5 -13t-18 -17.5t-7 -18.5q0 -6 3 -7t7 -1q10 0 19.5 3t17.5 5q21 6 34 6t17.5 -5.5t5.5 -14.5t1.5 -20t5.5 -21q1 -1 1 -3q0 -6 -4 -6q-6 0 -8.5 8.5t-4 19t-4.5 19t-10 8.5t-16 -3t-19 -6t-20.5 -6t-19.5 -3
q-10 0 -18 5t-8 20q0 13 8.5 25.5t21.5 22t29 15.5t30 6q11 0 20.5 -5t14.5 -17v-1zM14 164q-1 -1 -2 -1h-1q-6 0 -6 4q0 2 2 4l26 26t23 13t17 -7.5t13.5 -17t12.5 -17t14 -7.5q12 0 22.5 8.5t21.5 13.5h1q6 0 6 -5q0 -3 -7 -8t-16.5 -10t-19.5 -9t-17 -4q-9 0 -15 5
t-10.5 12l-9 14t-11.5 12q-12 -3 -23 -10.5t-21 -15.5z" />
    <glyph glyph-name="adieresis" unicode="&#xe4;" horiz-adv-x="146" 
d="M129 94q0 -5 -4 -5q-5 0 -11 7.5t-17 7.5t-23.5 -5t-23.5 -13t-18 -17.5t-7 -18.5q0 -6 3 -7t7 -1q10 0 19.5 3t17.5 5q21 6 34 6t17.5 -5.5t5.5 -14.5t1.5 -20t5.5 -21q1 -1 1 -3q0 -6 -4 -6q-6 0 -8.5 8.5t-4 19t-4.5 19t-10 8.5t-16 -3t-19 -6t-20.5 -6t-19.5 -3
q-10 0 -18 5t-8 20q0 13 8.5 25.5t21.5 22t29 15.5t30 6q11 0 20.5 -5t14.5 -17v-1zM54 171q3 0 5 -4v-2q0 -1 0.5 -2t0.5 -3q0 -9 -12 -9q-7 0 -10 3.5t-3 8.5q0 10 10 10q5 0 9 -2zM45 163q3 0 3 3q-1 -2 -2 -2t-1 -1zM45 157q1 0 2 0.5t2 0.5l1 1q-2 -1 -3 -1t-2 -1z
M116 171q4 0 6 -4v-2v-5q0 -9 -12 -9q-6 0 -9.5 3.5t-3.5 8.5q0 10 11 10q5 0 8 -2zM108 163q1 0 3 3q-4 -4 -4 -3h1zM107 157q2 0 2.5 0.5t2.5 0.5v1q-1 -1 -2 -1t-3 -1z" />
    <glyph glyph-name="aring" unicode="&#xe5;" horiz-adv-x="161" 
d="M129 94q0 -5 -4 -5q-5 0 -11 7.5t-17 7.5t-23.5 -5t-23.5 -13t-18 -17.5t-7 -18.5q0 -6 3 -7t7 -1q10 0 19.5 3t17.5 5q21 6 34 6t17.5 -5.5t5.5 -14.5t1.5 -20t5.5 -21q1 -1 1 -3q0 -6 -4 -6q-6 0 -8.5 8.5t-4 19t-4.5 19t-10 8.5t-16 -3t-19 -6t-20.5 -6t-19.5 -3
q-10 0 -18 5t-8 20q0 13 8.5 25.5t21.5 22t29 15.5t30 6q11 0 20.5 -5t14.5 -17v-1zM57 134q-19 0 -27 6.5t-8 16.5q0 12 11 25.5t27 20.5v1q0 2 5 4q8 0 21 -1.5t25.5 -5.5t21.5 -10.5t9 -16.5q0 -9 -8 -16t-20 -12t-26 -8t-26 -4h-5zM74 195l-1 2q-11 -2 -23.5 -13.5
t-12.5 -24.5q0 -8 8 -8.5t13 -0.5q26 0 46.5 8.5t20.5 18.5q0 9 -29 18h-22z" />
    <glyph glyph-name="ae" unicode="&#xe6;" horiz-adv-x="260" 
d="M133 89q0 -4 -5 -4q-3 0 -4 1q-12 18 -33 18q-12 0 -23.5 -5t-21.5 -13t-16 -17.5t-6 -18.5q0 -8 9 -8q8 0 14 3t14 5q22 6 34 6q14 0 18.5 -5.5t5.5 -14.5t1 -20t6 -21v-3q0 -6 -4 -6q-6 0 -8 8.5t-4 19t-5 19t-10 8.5q-13 0 -32.5 -9t-36.5 -9q-8 0 -15 5t-7 20
q0 13 8 25t20 21.5t27 15.5t30 6q14 0 25.5 -6t18.5 -20v-1zM118 74q14 29 33.5 47t38.5 18q6 0 13 -3.5t7 -11.5q0 -21 -24.5 -36t-56.5 -25q-5 -12 -5 -20q0 -12 7 -16t20 -4q15 0 31.5 4t23.5 6l40 14h2q4 0 4 -4t-12.5 -10t-29 -12t-33 -10.5t-25.5 -4.5q-26 0 -36 8
t-10 21t4 22zM171 112q-5 -5 -13 -12.5t-16 -16.5l19 9q13 9 16.5 13.5t12.5 16.5h-3q-3 0 -7 -3t-9 -7z" />
    <glyph glyph-name="ccedilla" unicode="&#xe7;" horiz-adv-x="154" 
d="M90 100q6 -2 6 -5q0 -2 -4 -5q-24 -4 -43.5 -11.5t-19.5 -25.5q0 -11 16 -19t40 -8q12 0 24 2t27 4q5 -2 5 -6q0 -1 -4 -4q-26 -6 -35 -8.5t-19 -2.5h-6v-13t1 -13q14 -1 25.5 -4.5t11.5 -18.5q0 -11 -5 -16.5t-12.5 -8.5t-16.5 -5t-16 -4q-6 0 -6 5q0 4 5.5 6.5t12 5.5
t12.5 7t7 9l-1 -2q-2 6 -7.5 7.5t-11.5 2t-10.5 3.5t-4.5 12q0 6 2.5 13.5t3.5 13.5l-17 1q-13 2 -28 13.5t-15 27.5q0 8 7 15q16 21 33 25.5t43 6.5z" />
    <glyph glyph-name="egrave" unicode="&#xe8;" horiz-adv-x="186" 
d="M-24 49q-1 1 -1 4q0 5 5 5q4 0 10 -3t14 -3t18 2.5t21 5.5q15 28 34 47t38 19q6 0 13 -4t7 -13q0 -20 -24.5 -35t-56.5 -26q-6 -9 -6 -20q0 -20 28 -20q15 0 31.5 4.5t23.5 6.5l40 14h1q5 0 5 -5q0 -4 -12.5 -10t-29 -11.5t-33 -9.5t-25.5 -4q-26 0 -36 7.5t-10 21.5
q0 5 1 10t3 11q-15 -3 -27 -3q-19 0 -32 9zM96 98q-13 -10 -29 -29l19 9q13 9 16.5 13.5t12.5 15.5h-1q-1 0 -1 0.5t-1 0.5q-6 0 -16 -10zM118 105l-1 1zM45 220q0 5 5 5q2 0 4 -2q11 -10 19.5 -16.5t16 -13.5t14.5 -17t16 -26q1 -1 1 -3q0 -5 -5 -5l-8 7t-19.5 18t-23.5 24
t-20 26v3z" />
    <glyph glyph-name="eacute" unicode="&#xe9;" horiz-adv-x="186" 
d="M-24 49q13 -9 32 -9q12 0 27 3q-2 -6 -3 -11t-1 -10q0 -14 10 -21.5t36 -7.5q9 0 25.5 4t33 9.5t29 11.5t12.5 10q0 5 -5 5h-1l-40 -14q-7 -2 -23.5 -6.5t-31.5 -4.5q-28 0 -28 20q0 11 6 20q32 11 56.5 26t24.5 35q0 9 -7 13t-13 4q-19 0 -38 -19t-34 -47
q-11 -3 -21 -5.5t-18 -2.5t-14 3t-10 3q-5 0 -5 -5q0 -3 1 -4zM96 98q10 10 16 10q1 0 1 -0.5t1 -0.5h1q-9 -11 -12.5 -15.5t-16.5 -13.5l-19 -9q16 19 29 29zM118 105l-1 1zM140 217q-2 -8 -17.5 -20.5t-33.5 -25.5t-33 -22t-18 -9q-4 0 -4 4v2l1 1q8 12 20.5 21.5t26 18.5
t26.5 18t24 19q2 1 4 1q5 0 5 -5q0 -1 -0.5 -1t-0.5 -1v-1z" />
    <glyph glyph-name="ecircumflex" unicode="&#xea;" horiz-adv-x="186" 
d="M-24 49q-1 1 -1 4q0 5 5 5q4 0 10 -3t14 -3t18 2.5t21 5.5q15 28 34 47t38 19q6 0 13 -4t7 -13q0 -20 -24.5 -35t-56.5 -26q-6 -9 -6 -20q0 -20 28 -20q15 0 31.5 4.5t23.5 6.5l40 14h1q5 0 5 -5q0 -4 -12.5 -10t-29 -11.5t-33 -9.5t-25.5 -4q-26 0 -36 7.5t-10 21.5
q0 5 1 10t3 11q-15 -3 -27 -3q-19 0 -32 9zM96 98q-13 -10 -29 -29l19 9q13 9 16.5 13.5t12.5 15.5h-1q-1 0 -1 0.5t-1 0.5q-6 0 -16 -10zM118 105l-1 1zM112 232q6 0 13 -9t13 -21t9.5 -23t3.5 -14q0 -5 -4 -5q-5 0 -6 4q-2 14 -11.5 25t-17.5 23q-17 -14 -33 -33t-36 -31
q-2 -1 -5 -1q-6 0 -6 6q0 2 3 8l21 17q11 12 22 26t31 28h3z" />
    <glyph glyph-name="edieresis" unicode="&#xeb;" horiz-adv-x="186" 
d="M-24 49q-1 1 -1 4q0 5 5 5q4 0 10 -3t14 -3t18 2.5t21 5.5q15 28 34 47t38 19q6 0 13 -4t7 -13q0 -20 -24.5 -35t-56.5 -26q-6 -9 -6 -20q0 -20 28 -20q15 0 31.5 4.5t23.5 6.5l40 14h1q5 0 5 -5q0 -4 -12.5 -10t-29 -11.5t-33 -9.5t-25.5 -4q-26 0 -36 7.5t-10 21.5
q0 5 1 10t3 11q-15 -3 -27 -3q-19 0 -32 9zM96 98q-13 -10 -29 -29l19 9q13 9 16.5 13.5t12.5 15.5h-1q-1 0 -1 0.5t-1 0.5q-6 0 -16 -10zM118 105l-1 1zM72 171q3 0 5 -4v-2v-5q0 -9 -11 -9q-7 0 -10 3.5t-3 8.5q0 10 11 10q4 0 8 -2zM64 163q2 0 2 3q0 -2 -1.5 -2t-1.5 -1
h1zM63 157q2 0 2.5 0.5t1.5 0.5v1zM134 171q5 0 5 -4v-2q0 -1 0.5 -2t0.5 -3q0 -9 -12 -9q-7 0 -10 3.5t-3 8.5q0 10 11 10q5 0 8 -2zM126 163l3 3q-2 -3 -3 -3zM127 157q1 0 1 0.5t1 0.5l1 1q-1 -1 -2.5 -1t-1.5 -1h1z" />
    <glyph glyph-name="igrave" unicode="&#xec;" horiz-adv-x="78" 
d="M21 108q0 1 -0.5 2t-0.5 2q0 4 5 4q10 0 14 -16.5t4 -30.5q0 -15 -2 -32t-5 -31.5t-6 -24t-5 -9.5q-5 0 -5.5 9t-0.5 17q0 20 1.5 42.5t4.5 41.5v-5v15q0 5 -0.5 9.5t-3.5 6.5zM4 189q0 2 -0.5 2t-0.5 2q0 4 5 4q3 0 4 -1q11 -10 16.5 -12.5t9.5 -5t8.5 -8t13.5 -21.5
l1 -2q0 -6 -5 -6q-10 5 -19 12q-8 6 -16.5 15t-16.5 21z" />
    <glyph glyph-name="iacute" unicode="&#xed;" horiz-adv-x="96" 
d="M38 111q5 -7 5 -16q0 -7 -2 -15v5q-2 -19 -4 -42.5t-2 -43.5q0 -8 0.5 -17.5t5.5 -9.5q3 0 6 10t6 24.5t5 31.5t2 32t-3.5 32t-14.5 17q-6 0 -6 -4q0 -2 2 -4zM77 200q-2 -5 -10 -14t-18 -17.5t-20 -15t-15 -6.5q-6 0 -6 4q0 2 2 4q8 12 14.5 17.5t13 10t13.5 9.5t18 15
h4q4 0 4 -4v-3z" />
    <glyph glyph-name="icircumflex" unicode="&#xee;" horiz-adv-x="86" 
d="M28 115q-2 2 -2 3q0 6 6 6q10 0 14 -18t4 -33q0 -16 -2 -33.5t-5 -32.5t-6 -25t-6 -10q-5 0 -5.5 9.5t-0.5 17.5q0 22 2 46.5t4 42.5v-4q2 6 2 14q0 10 -5 17zM43 210q1 0 1.5 0.5t2.5 0.5q6 0 11 -7t9.5 -16t7 -18t2.5 -13t-5 -4t-5 4q-2 14 -8 17.5t-14 15.5
q-8 -7 -10 -9.5t-3 -5t-4 -5.5t-14 -12q-2 0 -2.5 -0.5t-2.5 -0.5q-5 0 -5 7q0 2 3 7q13 13 18 19.5t7.5 9.5t3.5 5t7 5z" />
    <glyph glyph-name="idieresis" unicode="&#xef;" horiz-adv-x="83" 
d="M28 116q0 2 -0.5 2.5t-0.5 1.5q0 6 6 6q9 0 13 -18t4 -33q0 -16 -2 -34t-5 -33.5t-6 -25.5t-5 -10q-5 0 -5.5 9.5t-0.5 17.5q0 23 1.5 48t4.5 43v-4q1 4 1 14q0 12 -5 16zM22 178q4 0 5 -4v-2q0 -1 0.5 -2t0.5 -3q0 -9 -12 -9q-7 0 -10 4t-3 8q0 10 11 10q4 0 8 -2z
M14 170q0 -1 2 3q0 -3 -2 -3zM14 164q1 1 4 3l-1 -1q-1 0 -3 -2zM66 178q5 0 6 -4v-2q0 -1 0.5 -2t0.5 -3q0 -9 -13 -9q-6 0 -9.5 4t-3.5 8q0 10 11 10q5 0 8 -2zM58 170q0 1 1 1t2 2q-2 -3 -3 -3zM58 164q2 2 4 2l1 1q-5 -2 -5 -3z" />
    <glyph glyph-name="eth" unicode="&#xf0;" horiz-adv-x="203" 
d="M109 20q-11 -9 -24.5 -15t-28.5 -6q-18 0 -32.5 10.5t-14.5 27.5q0 15 8 27.5t20 22t27 15t29 6.5l16 -1q5 -1 14 -7t9 -17q0 -5 -6 -5q-3 0 -7 8.5t-9 10.5h-15q-11 -1 -23.5 -5.5t-23 -11.5t-17.5 -17t-7 -21q0 -13 9 -21t23 -8q13 0 26 7.5t24 16.5l22 23
q25 29 35.5 60t10.5 63q0 45 -15 90.5t-34 87.5q-3 6 -3 8q0 1 4 1h5q22 -48 40.5 -97t18.5 -97q0 -32 -11.5 -64t-39.5 -62l-19 -20zM104 179q-3 3 -3 5q0 4 5 4t10 -1t10 -1q17 0 37.5 3.5t43.5 3.5q12 0 12 -5q0 -1 -7 -4t-18 -6t-24.5 -5.5t-26.5 -2.5q-21 0 -39 9z" />
    <glyph glyph-name="ntilde" unicode="&#xf1;" horiz-adv-x="194" 
d="M13 107q-2 2 -2 3q0 6 5 6q9 0 15 -12.5t10 -28t6 -30.5t4 -21q9 7 15.5 18t13.5 21.5t14.5 18.5t19.5 8q25 0 35 -17.5t17 -35.5q2 -7 7 -18t5 -10q0 -4 -4 -4h-4q-8 7 -12.5 18t-9 21.5t-11.5 18t-20 7.5q-9 0 -16.5 -7.5t-14.5 -18.5t-15 -23t-18 -20h-5
q-12 0 -15.5 14t-5 32t-3.5 35.5t-11 24.5zM24 166q-1 -1 -2 -1h-1q-6 0 -6 4q0 1 2 5q13 12 26 25t23 13t17 -7.5t13.5 -16.5t12.5 -16.5t14 -7.5q12 0 22.5 8.5t21.5 13.5h1q6 0 6 -5q0 -3 -7 -8.5t-16.5 -11t-19.5 -9.5t-17 -4q-9 0 -15 5t-10.5 12.5t-9 14.5t-11.5 12
q-12 -3 -23 -10.5t-21 -15.5z" />
    <glyph glyph-name="ograve" unicode="&#xf2;" 
d="M160 97q1 -1 1 -2q0 -6 -4 -6q-3 0 -6 3q-8 11 -32 11q-14 0 -31 -4.5t-32 -11.5t-25 -15.5t-10 -17.5t5.5 -15t14 -9t18 -4.5t18.5 -1.5q24 0 48.5 7.5t40.5 18.5q0 6 -12 12t-27 11.5t-27 10.5t-12 8q0 4 5 4q4 0 16.5 -3t26.5 -7.5t26 -10t16 -9.5q2 -3 2.5 -10.5
t0.5 -9.5q-2 -8 -13.5 -15.5t-28 -13t-36 -8.5t-38.5 -3q-28 0 -46 12.5t-18 29.5q0 19 13 32t31.5 20.5t38.5 11t35 3.5q13 0 23 -3.5t18 -14.5zM52 217q-2 0 -2 3q0 5 6 5l4 -2q10 -10 18.5 -16.5t16 -13.5t15 -17t16.5 -26v-3q0 -5 -4 -5q-1 0 -9 7t-18.5 18t-22.5 24
t-20 26z" />
    <glyph glyph-name="oacute" unicode="&#xf3;" 
d="M160 97q-8 11 -18 14.5t-23 3.5q-15 0 -35 -3.5t-38.5 -11t-31.5 -20.5t-13 -32q0 -17 18 -29.5t46 -12.5q19 0 38.5 3t36 8.5t28 13t13.5 15.5q0 2 -0.5 9.5t-2.5 10.5q-4 4 -16 9.5t-26 10t-26.5 7.5t-16.5 3q-5 0 -5 -4q0 -3 12 -8t27 -10.5t27 -11.5t12 -12
q-16 -11 -40.5 -18.5t-48.5 -7.5q-9 0 -18.5 1.5t-18 4.5t-14 9t-5.5 15t10 17.5t25 15.5t32 11.5t31 4.5q24 0 32 -11q3 -3 6 -3q4 0 4 6q0 1 -1 2zM145 217q-3 -8 -18 -20.5t-33 -25.5t-33 -22t-18 -9q-5 0 -5 4q0 3 2 3q8 12 20 21.5t25.5 18.5t26.5 18t24 19q2 1 5 1
q5 0 5 -5q0 -1 -0.5 -1t-0.5 -1v-1z" />
    <glyph glyph-name="ocircumflex" unicode="&#xf4;" 
d="M160 97q1 -1 1 -2q0 -6 -4 -6q-3 0 -6 3q-8 11 -32 11q-14 0 -31 -4.5t-32 -11.5t-25 -15.5t-10 -17.5t5.5 -15t14 -9t18 -4.5t18.5 -1.5q24 0 48.5 7.5t40.5 18.5q0 6 -12 12t-27 11.5t-27 10.5t-12 8q0 4 5 4q4 0 16.5 -3t26.5 -7.5t26 -10t16 -9.5q2 -3 2.5 -10.5
t0.5 -9.5q-2 -8 -13.5 -15.5t-28 -13t-36 -8.5t-38.5 -3q-28 0 -46 12.5t-18 29.5q0 19 13 32t31.5 20.5t38.5 11t35 3.5q13 0 23 -3.5t18 -14.5zM107 232q7 0 14 -9t13 -21t9.5 -23t3.5 -14q0 -5 -6 -5q-5 0 -5 4q-2 14 -12 25t-17 23q-17 -14 -33.5 -33t-36.5 -31
q-2 -1 -4 -1q-7 0 -7 6q0 1 5 8l20 17q11 12 22 26t31 28h3z" />
    <glyph glyph-name="otilde" unicode="&#xf5;" 
d="M160 97q1 -1 1 -2q0 -6 -4 -6q-3 0 -6 3q-8 11 -32 11q-14 0 -31 -4.5t-32 -11.5t-25 -15.5t-10 -17.5t5.5 -15t14 -9t18 -4.5t18.5 -1.5q24 0 48.5 7.5t40.5 18.5q0 6 -12 12t-27 11.5t-27 10.5t-12 8q0 4 5 4q4 0 16.5 -3t26.5 -7.5t26 -10t16 -9.5q2 -3 2.5 -10.5
t0.5 -9.5q-2 -8 -13.5 -15.5t-28 -13t-36 -8.5t-38.5 -3q-28 0 -46 12.5t-18 29.5q0 19 13 32t31.5 20.5t38.5 11t35 3.5q13 0 23 -3.5t18 -14.5zM24 166q-1 -1 -2 -1h-1q-6 0 -6 4q0 1 2 5q13 12 26 25t23 13t17 -7.5t13.5 -16.5t12.5 -16.5t14 -7.5q12 0 22.5 8.5
t21.5 13.5h1q6 0 6 -5q0 -3 -7 -8.5t-16.5 -11t-19.5 -9.5t-17 -4q-9 0 -15 5t-10.5 12.5t-9 14.5t-11.5 12q-12 -3 -23 -10.5t-21 -15.5z" />
    <glyph glyph-name="odieresis" unicode="&#xf6;" 
d="M160 97q1 -1 1 -2q0 -6 -4 -6q-3 0 -6 3q-8 11 -32 11q-14 0 -31 -4.5t-32 -11.5t-25 -15.5t-10 -17.5t5.5 -15t14 -9t18 -4.5t18.5 -1.5q24 0 48.5 7.5t40.5 18.5q0 6 -12 12t-27 11.5t-27 10.5t-12 8q0 4 5 4q4 0 16.5 -3t26.5 -7.5t26 -10t16 -9.5q2 -3 2.5 -10.5
t0.5 -9.5q-2 -8 -13.5 -15.5t-28 -13t-36 -8.5t-38.5 -3q-28 0 -46 12.5t-18 29.5q0 19 13 32t31.5 20.5t38.5 11t35 3.5q13 0 23 -3.5t18 -14.5zM65 171q3 0 5 -4v-2v-5q0 -9 -12 -9q-6 0 -9.5 3.5t-3.5 8.5q0 10 11 10q5 0 9 -2zM56 163q0 1 1 1t2 2q-2 -3 -3 -3zM56 157
q1 0 1.5 0.5t2.5 0.5v1q-1 -1 -2 -1t-2 -1zM126 171q6 0 6 -4v-2q0 -1 0.5 -2t0.5 -3q0 -9 -12 -9q-7 0 -10.5 3.5t-3.5 8.5q0 10 12 10q5 0 7 -2zM119 163q1 0 3 3q-4 -4 -4 -3h1zM118 157q1 0 2 0.5t2 0.5l1 1q-1 -1 -2.5 -1t-2.5 -1z" />
    <glyph glyph-name="divide" unicode="&#xf7;" horiz-adv-x="248" 
d="M19 133q-4 1 -4 5q0 3 21 5.5t48.5 3.5t54 1.5t37.5 0.5h15.5h19.5t17 -1.5t7 -4.5q0 -4 -20 -6t-45.5 -3.5t-51 -2t-35.5 -0.5q-16 0 -31.5 0.5t-32.5 1.5zM148 94l2 -4q0 -5 -5 -5q-2 0 -3 0.5t-3 0.5q-1 -12 -14 -12q-5 0 -11.5 2.5t-6.5 9.5q0 8 7 12t15 4
q13 0 19 -8zM114 213q4 4 10 4q5 0 10 -3.5t5 -6.5q0 -6 -4.5 -8.5t-10.5 -2.5q-16 0 -16 9q0 3 6 8z" />
    <glyph glyph-name="oslash" unicode="&#xf8;" 
d="M160 97q1 -1 1 -2q0 -6 -4 -6q-3 0 -6 3q-8 11 -32 11q-14 0 -31 -4.5t-32 -11.5t-25 -15.5t-10 -17.5t5.5 -15t14 -9t18 -4.5t18.5 -1.5q24 0 48.5 7.5t40.5 18.5q0 6 -12 12t-27 11.5t-27 10.5t-12 8q0 4 5 4q4 0 16.5 -3t26.5 -7.5t26 -10t16 -9.5q2 -3 2.5 -10.5
t0.5 -9.5q-2 -8 -13.5 -15.5t-28 -13t-36 -8.5t-38.5 -3q-28 0 -46 12.5t-18 29.5q0 19 13 32t31.5 20.5t38.5 11t35 3.5q13 0 23 -3.5t18 -14.5zM146 164q1 3 5 3q5 0 5 -4v-2q-20 -30 -33 -62.5t-22.5 -62.5t-17 -56t-16.5 -44q-1 -2 -5 -2q-5 0 -5 5q4 30 14 64t23 65.5
t27 57t25 38.5z" />
    <glyph glyph-name="ugrave" unicode="&#xf9;" horiz-adv-x="106" 
d="M38 -8q-22 19 -26.5 41.5t-4.5 49.5v2q0 5 6 5q3 0 5 -5q2 -19 6 -40t21 -35q9 4 14 21.5t8 36.5t5.5 34t6.5 15q5 0 5.5 -12.5t0.5 -23.5q0 -14 -1.5 -28t-5.5 -27t-11.5 -23t-19.5 -14h-2q-3 0 -7 3zM5 217q-1 0 -1 1v2q0 5 5 5q1 0 5 -2q10 -10 18.5 -16.5t16 -13.5
t15 -17t16.5 -26v-3q0 -5 -4 -5q-1 0 -9 7t-19 18t-23 24t-20 26z" />
    <glyph glyph-name="uacute" unicode="&#xfa;" horiz-adv-x="106" 
d="M38 -8q4 -3 7 -3h2q12 4 19.5 14t11.5 23t5.5 27t1.5 28q0 11 -0.5 23.5t-5.5 12.5q-4 0 -6.5 -15t-5.5 -34t-8 -36.5t-14 -21.5q-17 14 -21 35t-6 40q-2 5 -5 5q-6 0 -6 -5v-2q0 -27 4.5 -49.5t26.5 -41.5zM91 203q-2 -6 -13 -17t-23.5 -21t-24.5 -17.5t-16 -7.5
q-5 0 -5 4q0 3 2 3q8 12 16.5 19.5t17.5 13.5t18 12.5t20 16.5q2 1 4 1q5 0 5 -4q0 -1 -0.5 -1t-0.5 -1v-1z" />
    <glyph glyph-name="ucircumflex" unicode="&#xfb;" horiz-adv-x="106" 
d="M38 -8q-22 19 -26.5 41.5t-4.5 49.5v2q0 5 6 5q3 0 5 -5q2 -19 6 -40t21 -35q9 4 14 21.5t8 36.5t5.5 34t6.5 15q5 0 5.5 -12.5t0.5 -23.5q0 -14 -1.5 -28t-5.5 -27t-11.5 -23t-19.5 -14h-2q-3 0 -7 3zM66 232q6 0 13 -9t13 -21t9.5 -23t3.5 -14q0 -5 -6 -5q-4 0 -4 4
q-3 14 -12.5 25t-16.5 23q-18 -14 -34.5 -33t-36.5 -31q-1 -1 -4 -1q-6 0 -6 6q0 3 4 8l20 17q11 12 22 26t31 28h4z" />
    <glyph glyph-name="udieresis" unicode="&#xfc;" horiz-adv-x="106" 
d="M38 -8q-22 19 -26.5 41.5t-4.5 49.5v2q0 5 6 5q3 0 5 -5q2 -19 6 -40t21 -35q9 4 14 21.5t8 36.5t5.5 34t6.5 15q5 0 5.5 -12.5t0.5 -23.5q0 -14 -1.5 -28t-5.5 -27t-11.5 -23t-19.5 -14h-2q-3 0 -7 3zM19 171q4 0 6 -4v-2v-5q0 -9 -11 -9q-7 0 -10.5 3.5t-3.5 8.5
q0 10 11 10q5 0 8 -2zM11 163q3 0 3 3q-1 -2 -2 -2t-1 -1zM11 157q1 0 2 0.5t2 0.5v1q-1 -1 -2 -1t-2 -1zM82 171q3 0 5 -4v-2v-5q0 -9 -11 -9q-7 0 -10 3.5t-3 8.5q0 10 11 10q4 0 8 -2zM74 163q2 0 2 3q-1 -2 -2 -2t-1 -1h1zM73 157q2 0 2.5 0.5t1.5 0.5v1z" />
    <glyph glyph-name="yacute" unicode="&#xfd;" horiz-adv-x="183" 
d="M16 103v-8q0 -11 1 -25t4 -26t8.5 -20t14.5 -8q5 0 12 4.5t15.5 11.5t18 14t19.5 12q17 -20 24.5 -48.5t7.5 -59.5q0 -34 -6.5 -65.5t-19.5 -55.5t-32.5 -38t-44.5 -14q-15 0 -29 5.5t-25 19.5q-1 0 -1.5 0.5t-2.5 0.5q-5 0 -5 -5q0 -2 1 -4q27 -32 67 -32q29 0 51 16.5
t37 42.5t22.5 59t7.5 65q0 20 -2.5 37.5t-7.5 34.5q-2 5 -5 14t-7.5 18t-10.5 16.5t-13 9.5q-20 -12 -36 -22.5t-28 -10.5q-11 0 -17.5 13.5t-8.5 49.5q0 4 -4 4q-5 0 -5 -6zM139 223q-2 -8 -17 -20.5t-33 -25t-33 -21.5t-18 -9q-5 0 -5 3l2 4q16 22 45.5 39t51.5 37
q1 1 4 1q4 0 4 -5q0 -1 -0.5 -1.5t-0.5 -1.5z" />
    <glyph glyph-name="thorn" unicode="&#xfe;" horiz-adv-x="161" 
d="M25 375q0 6 5 6q4 0 6.5 -22.5t3.5 -52t1 -57.5v-39q7 4 18 4q18 0 34 -12.5t28 -32t19 -42.5t7 -44q0 -19 -7 -32.5t-18 -22.5t-25 -13t-28 -4q-8 0 -18.5 1t-10.5 9q0 2 1.5 6t4.5 4q5 0 5 -6v-1h-1q4 -2 13 -2q5 0 15.5 1.5t21 7.5t18.5 17.5t8 31.5q0 21 -6.5 43
t-16 40t-22 29.5t-24.5 11.5q-9 0 -16 -5q0 -33 -1 -75t-2 -85.5t-2.5 -85t-2.5 -72.5q-2 -6 -6 -6q-3 0 -4 15.5t-1.5 36.5t0 42.5t0.5 32.5q0 94 1 189.5t2 183.5z" />
    <glyph glyph-name="ydieresis" unicode="&#xff;" horiz-adv-x="178" 
d="M16 103q0 6 5 6q4 0 4 -4q2 -36 8.5 -49.5t17.5 -13.5q12 0 28 10.5t36 22.5q7 -2 13 -9.5t10.5 -16.5t7.5 -18t5 -14q5 -17 7.5 -34.5t2.5 -37.5q0 -32 -7.5 -65t-22.5 -59t-37 -42.5t-51 -16.5q-40 0 -67 32q-1 2 -1 4q0 5 5 5q2 0 2.5 -0.5t1.5 -0.5q11 -14 25 -19.5
t29 -5.5q25 0 44.5 14t32.5 38t19.5 55.5t6.5 65.5q0 31 -7.5 59.5t-24.5 48.5q-10 -5 -19.5 -12t-18 -14t-15.5 -11.5t-12 -4.5q-9 0 -14.5 8t-8.5 20t-4 26t-1 25v8zM53 167q5 0 5 -4v-2q0 -2 0.5 -2.5t0.5 -1.5q0 -10 -12 -10q-7 0 -10 4t-3 7q0 10 11 10q5 0 8 -1z
M45 158q0 1 3 3zM45 153q0 1 3 1l1 2q-1 -1 -2.5 -1.5t-1.5 -1.5zM116 167q4 0 5 -4v-2q0 -2 0.5 -2.5t0.5 -1.5q0 -10 -13 -10q-6 0 -9.5 4t-3.5 7q0 10 11 10q5 0 9 -1zM107 158q2 0 2 1t1 2zM107 153q1 1 4 1l1 2q-4 -2 -5 -3z" />
    <glyph glyph-name="Amacron" unicode="&#x100;" horiz-adv-x="473" 
d="M259 580q-1 1 -1 4q0 6 4 6h1q5 -2 9.5 -2.5t9.5 -0.5q17 0 37.5 3.5t44.5 3.5h6q5 -2 5 -5q0 -2 -7 -5t-18 -6t-25 -5t-27 -2q-9 0 -19 2t-20 7zM-35 -57q-3 1 -3 5q0 5 4 5h1q7 0 19.5 12t27.5 31t30.5 41t29 42.5t22.5 35.5l12 20q21 41 41 82q-37 20 -76.5 39.5
t-77.5 34.5t-72.5 24.5t-61.5 10.5q-11 0 -20.5 -4t-18.5 -6q-6 0 -6 5q0 3 5.5 6t13 5t15 3.5t12.5 1.5q27 0 62.5 -9t74.5 -24t79.5 -34t78.5 -38l72 152q17 35 34 71t40 68q5 5 7 5q11 0 19.5 -9.5t15 -22.5t10.5 -26.5t7 -21.5q25 -72 39 -145.5t23 -148.5l16 -119
q6 -13 13 -36t12.5 -49t9 -50t3.5 -39q0 -5 -3 -7t-6 -2q-7 0 -15.5 23.5t-16 54.5t-13 61t-6.5 44q-11 19 -27 34.5t-34.5 28.5t-38.5 24t-39 22q-23 14 -53 31.5t-65 36.5l-42 -82q-2 -4 -11.5 -19.5t-23 -36.5t-30 -44t-32.5 -42.5t-30.5 -32t-24.5 -12.5h-2zM168 225
q37 -20 68.5 -37t54.5 -31q33 -19 65.5 -39t58.5 -48q-12 94 -27 185t-42 182q-1 3 -5 13.5t-8.5 23t-9.5 22.5t-9 12q-22 -29 -38 -63.5t-32 -66.5zM345 441l1 -1z" />
    <glyph glyph-name="amacron" unicode="&#x101;" horiz-adv-x="146" 
d="M129 94q0 -5 -4 -5q-5 0 -11 7.5t-17 7.5t-23.5 -5t-23.5 -13t-18 -17.5t-7 -18.5q0 -6 3 -7t7 -1q10 0 19.5 3t17.5 5q21 6 34 6t17.5 -5.5t5.5 -14.5t1.5 -20t5.5 -21q1 -1 1 -3q0 -6 -4 -6q-6 0 -8.5 8.5t-4 19t-4.5 19t-10 8.5t-16 -3t-19 -6t-20.5 -6t-19.5 -3
q-10 0 -18 5t-8 20q0 13 8.5 25.5t21.5 22t29 15.5t30 6q11 0 20.5 -5t14.5 -17v-1zM10 163q-3 1 -3 4q0 5 4 5h2q9 -3 19 -3q17 0 37.5 3.5t44.5 3.5h6q5 -2 5 -5q0 -2 -7 -5t-18 -6t-24.5 -5t-26.5 -2q-10 0 -20.5 2t-18.5 8z" />
    <glyph glyph-name="Abreve" unicode="&#x102;" horiz-adv-x="473" 
d="M-35 -57q-3 1 -3 5q0 5 4 5h1q7 0 19.5 12t27.5 31t30.5 41t29 42.5t22.5 35.5l12 20q21 41 41 82q-37 20 -76.5 39.5t-77.5 34.5t-72.5 24.5t-61.5 10.5q-11 0 -20.5 -4t-18.5 -6q-6 0 -6 5q0 3 5.5 6t13 5t15 3.5t12.5 1.5q27 0 62.5 -9t74.5 -24t79.5 -34t78.5 -38
l72 152q17 35 34 71t40 68q5 5 7 5q11 0 19.5 -9.5t15 -22.5t10.5 -26.5t7 -21.5q25 -72 39 -145.5t23 -148.5l16 -119q6 -13 13 -36t12.5 -49t9 -50t3.5 -39q0 -5 -3 -7t-6 -2q-7 0 -15.5 23.5t-16 54.5t-13 61t-6.5 44q-11 19 -27 34.5t-34.5 28.5t-38.5 24t-39 22
q-23 14 -53 31.5t-65 36.5l-42 -82q-2 -4 -11.5 -19.5t-23 -36.5t-30 -44t-32.5 -42.5t-30.5 -32t-24.5 -12.5h-2zM168 225q37 -20 68.5 -37t54.5 -31q33 -19 65.5 -39t58.5 -48q-12 94 -27 185t-42 182q-1 3 -5 13.5t-8.5 23t-9.5 22.5t-9 12q-22 -29 -38 -63.5t-32 -66.5z
M345 441l1 -1zM246 647q0 6 6 6q3 0 4 -4q0 -26 15 -39.5t35 -13.5q15 0 30 11t20 32q-2 4 -2 5q0 2 4 4q8 0 8 -6q0 -7 0.5 -15t-4.5 -14q-10 -14 -28 -25t-36 -11q-14 0 -23.5 6.5t-15.5 16.5t-9 22.5t-4 24.5z" />
    <glyph glyph-name="abreve" unicode="&#x103;" horiz-adv-x="146" 
d="M129 94q0 -5 -4 -5q-5 0 -11 7.5t-17 7.5t-23.5 -5t-23.5 -13t-18 -17.5t-7 -18.5q0 -6 3 -7t7 -1q10 0 19.5 3t17.5 5q21 6 34 6t17.5 -5.5t5.5 -14.5t1.5 -20t5.5 -21q1 -1 1 -3q0 -6 -4 -6q-6 0 -8.5 8.5t-4 19t-4.5 19t-10 8.5t-16 -3t-19 -6t-20.5 -6t-19.5 -3
q-10 0 -18 5t-8 20q0 13 8.5 25.5t21.5 22t29 15.5t30 6q11 0 20.5 -5t14.5 -17v-1zM13 221q0 6 6 6q3 0 4 -4q0 -26 15 -39.5t35 -13.5q15 0 30 11t20 32q-2 4 -2 5q0 2 4 4q8 0 8 -6q0 -7 0.5 -15t-4.5 -14q-10 -14 -28 -25t-36 -11q-14 0 -23.5 6.5t-15.5 16.5t-9 22.5
t-4 24.5z" />
    <glyph glyph-name="Aogonek" unicode="&#x104;" horiz-adv-x="473" 
d="M-35 -57q-3 1 -3 5q0 5 4 5h1q7 0 19.5 12t27.5 31t30.5 41t29 42.5t22.5 35.5l12 20q21 41 41 82q-37 20 -76.5 39.5t-77.5 34.5t-72.5 24.5t-61.5 10.5q-11 0 -20.5 -4t-18.5 -6q-6 0 -6 5q0 3 5.5 6t13 5t15 3.5t12.5 1.5q27 0 62.5 -9t74.5 -24t79.5 -34t78.5 -38
l72 152q17 35 34 71t40 68q5 5 7 5q11 0 19.5 -9.5t15 -22.5t10.5 -26.5t7 -21.5q25 -72 39 -145.5t23 -148.5l16 -119q6 -13 13 -36t12.5 -49t9 -50t3.5 -39q0 -5 -3 -7t-6 -2q-7 0 -15.5 23.5t-16 54.5t-13 61t-6.5 44q-11 19 -27 34.5t-34.5 28.5t-38.5 24t-39 22
q-23 14 -53 31.5t-65 36.5l-42 -82q-2 -4 -11.5 -19.5t-23 -36.5t-30 -44t-32.5 -42.5t-30.5 -32t-24.5 -12.5h-2zM168 225q37 -20 68.5 -37t54.5 -31q33 -19 65.5 -39t58.5 -48q-12 94 -27 185t-42 182q-1 3 -5 13.5t-8.5 23t-9.5 22.5t-9 12q-22 -29 -38 -63.5t-32 -66.5z
M345 441l1 -1zM468 -132q2 4 5 4t5 -4q-1 -11 -5.5 -23.5t-4.5 -24.5q0 -16 14.5 -21t36.5 -5q10 0 18.5 1.5t13.5 1.5q6 0 6 -5q0 -3 -6 -5.5t-14.5 -4.5t-18 -3t-17.5 -1q-18 0 -35 8t-17 28q0 14 7.5 27t11.5 27z" />
    <glyph glyph-name="aogonek" unicode="&#x105;" horiz-adv-x="146" 
d="M129 94q0 -5 -4 -5q-5 0 -11 7.5t-17 7.5t-23.5 -5t-23.5 -13t-18 -17.5t-7 -18.5q0 -6 3 -7t7 -1q10 0 19.5 3t17.5 5q21 6 34 6t17.5 -5.5t5.5 -14.5t1.5 -20t5.5 -21q1 -1 1 -3q0 -6 -4 -6q-6 0 -8.5 8.5t-4 19t-4.5 19t-10 8.5t-16 -3t-19 -6t-20.5 -6t-19.5 -3
q-10 0 -18 5t-8 20q0 13 8.5 25.5t21.5 22t29 15.5t30 6q11 0 20.5 -5t14.5 -17v-1zM127.56 -0.148438q1.58789 3.43262 3.9707 3.43262t3.9707 -3.43262q-0.793945 -9.43848 -4.36816 -20.1631q-3.57324 -10.7256 -3.57324 -21.0225q0 -13.7285 11.5146 -18.0186
q11.5156 -4.29004 28.9863 -4.29004q7.94141 0 14.6914 1.28711t10.7207 1.28711q4.76465 0 4.76465 -4.29004q0 -2.57422 -4.76465 -4.71973q-4.76562 -2.14453 -11.5156 -3.86133q-6.75 -1.71582 -14.2939 -2.57324q-7.54395 -0.858398 -13.8975 -0.858398
q-14.2939 0 -27.7939 6.86426q-13.501 6.86426 -13.501 24.0244q0 12.0127 5.95605 23.167q5.95605 11.1553 9.13281 23.167z" />
    <glyph glyph-name="Cacute" unicode="&#x106;" horiz-adv-x="437" 
d="M444 470q0 1 -8 3.5t-22.5 5.5t-34.5 5t-44 2q-30 0 -64.5 -4.5t-69 -16t-66.5 -30t-56.5 -47t-39.5 -67.5t-15 -90q0 -37 7 -75.5t21.5 -72.5t35 -61.5t47.5 -42.5q20 -11 43.5 -16t47.5 -5q52 0 103.5 17.5t90.5 39.5h1q4 0 4 -5t-3 -5q-41 -22 -96.5 -40.5
t-109.5 -18.5q-30 0 -58.5 7t-51.5 25q-23 16 -42 46t-33 66t-21.5 76t-7.5 78q0 35 7.5 66.5t24.5 52.5q12 16 21.5 28t19.5 22t22 19t30 19q51 29 104 39.5t100 10.5q39 0 69.5 -5t46.5 -13zM341 609q-2 -8 -17.5 -21t-33.5 -25.5t-33 -21.5t-18 -9q-4 0 -4 4q0 2 1 3
q8 12 20.5 21.5t26 18.5t26.5 18t24 19q2 1 4 1q5 0 5 -5q0 -1 -0.5 -1t-0.5 -1v-1z" />
    <glyph glyph-name="cacute" unicode="&#x107;" horiz-adv-x="154" 
d="M90 100q6 -2 6 -5q0 -2 -4 -5q-24 -4 -43.5 -11.5t-19.5 -25.5q0 -11 16 -19t40 -8q12 0 24 2t27 4q5 -2 5 -6q0 -1 -4 -4q-14 -3 -22.5 -5t-14 -3.5t-10 -2t-10.5 -0.5h-14t-25 4t-23.5 12.5t-10.5 25.5q0 8 7 15q16 21 33 25.5t43 6.5zM115 196q-2 -8 -17.5 -21
t-33.5 -25.5t-33 -21.5t-18 -9q-4 0 -4 4q0 2 1 3q8 12 20.5 21.5t26 18.5t26.5 18t24 19q2 1 4 1q5 0 5 -5q0 -1 -0.5 -1t-0.5 -1v-1z" />
    <glyph glyph-name="Ccircumflex" unicode="&#x108;" horiz-adv-x="437" 
d="M444 470q0 1 -8 3.5t-22.5 5.5t-34.5 5t-44 2q-30 0 -64.5 -4.5t-69 -16t-66.5 -30t-56.5 -47t-39.5 -67.5t-15 -90q0 -37 7 -75.5t21.5 -72.5t35 -61.5t47.5 -42.5q20 -11 43.5 -16t47.5 -5q52 0 103.5 17.5t90.5 39.5h1q4 0 4 -5t-3 -5q-41 -22 -96.5 -40.5
t-109.5 -18.5q-30 0 -58.5 7t-51.5 25q-23 16 -42 46t-33 66t-21.5 76t-7.5 78q0 35 7.5 66.5t24.5 52.5q12 16 21.5 28t19.5 22t22 19t30 19q51 29 104 39.5t100 10.5q39 0 69.5 -5t46.5 -13zM270 619q2 1 4 1q6 0 13 -9.5t13 -21.5t9.5 -23.5t3.5 -14.5q0 -4 -6 -4
q-3 0 -4 3q-3 15 -11.5 25.5t-16.5 22.5q-17 -14 -31.5 -33.5t-35.5 -31.5q-1 -1 -4 -1q-5 0 -7 3t-2 6q0 5 2 7l21 18q11 11 21.5 25t30.5 28z" />
    <glyph glyph-name="ccircumflex" unicode="&#x109;" horiz-adv-x="154" 
d="M90 100q6 -2 6 -5q0 -2 -4 -5q-24 -4 -43.5 -11.5t-19.5 -25.5q0 -11 16 -19t40 -8q12 0 24 2t27 4q5 -2 5 -6q0 -1 -4 -4q-14 -3 -22.5 -5t-14 -3.5t-10 -2t-10.5 -0.5h-14t-25 4t-23.5 12.5t-10.5 25.5q0 8 7 15q16 21 33 25.5t43 6.5zM79 213q2 1 4 1q6 0 13 -9.5
t13 -21.5t9.5 -23.5t3.5 -14.5q0 -4 -6 -4q-3 0 -4 3q-3 15 -11.5 25.5t-16.5 22.5q-17 -14 -31.5 -33.5t-35.5 -31.5q-1 -1 -4 -1q-5 0 -7 3t-2 6q0 5 2 7l21 18q11 11 21.5 25t30.5 28z" />
    <glyph glyph-name="Cdotaccent" unicode="&#x10a;" horiz-adv-x="437" 
d="M444 470q0 1 -8 3.5t-22.5 5.5t-34.5 5t-44 2q-30 0 -64.5 -4.5t-69 -16t-66.5 -30t-56.5 -47t-39.5 -67.5t-15 -90q0 -37 7 -75.5t21.5 -72.5t35 -61.5t47.5 -42.5q20 -11 43.5 -16t47.5 -5q52 0 103.5 17.5t90.5 39.5h1q4 0 4 -5t-3 -5q-41 -22 -96.5 -40.5
t-109.5 -18.5q-30 0 -58.5 7t-51.5 25q-23 16 -42 46t-33 66t-21.5 76t-7.5 78q0 35 7.5 66.5t24.5 52.5q12 16 21.5 28t19.5 22t22 19t30 19q51 29 104 39.5t100 10.5q39 0 69.5 -5t46.5 -13zM274 564q6 0 6 -11q0 -10 -12 -10q-6 0 -9.5 3.5t-3.5 8.5q0 10 11 10q5 0 8 -1
zM266 555q1 0 3 3q-1 -2 -2.5 -2t-1.5 -1h1zM270 552q-2 0 -5 -3z" />
    <glyph glyph-name="cdotaccent" unicode="&#x10b;" horiz-adv-x="154" 
d="M90 100q6 -2 6 -5q0 -2 -4 -5q-24 -4 -43.5 -11.5t-19.5 -25.5q0 -11 16 -19t40 -8q12 0 24 2t27 4q5 -2 5 -6q0 -1 -4 -4q-14 -3 -22.5 -5t-14 -3.5t-10 -2t-10.5 -0.5h-14t-25 4t-23.5 12.5t-10.5 25.5q0 8 7 15q16 21 33 25.5t43 6.5zM78 164q6 0 6 -11q0 -10 -12 -10
q-6 0 -9.5 3.5t-3.5 8.5q0 10 11 10q5 0 8 -1zM70 155q1 0 3 3q-1 -2 -2.5 -2t-1.5 -1h1zM74 152q-2 0 -5 -3z" />
    <glyph glyph-name="Ccaron" unicode="&#x10c;" horiz-adv-x="437" 
d="M444 470q0 1 -8 3.5t-22.5 5.5t-34.5 5t-44 2q-30 0 -64.5 -4.5t-69 -16t-66.5 -30t-56.5 -47t-39.5 -67.5t-15 -90q0 -37 7 -75.5t21.5 -72.5t35 -61.5t47.5 -42.5q20 -11 43.5 -16t47.5 -5q52 0 103.5 17.5t90.5 39.5h1q4 0 4 -5t-3 -5q-41 -22 -96.5 -40.5
t-109.5 -18.5q-30 0 -58.5 7t-51.5 25q-23 16 -42 46t-33 66t-21.5 76t-7.5 78q0 35 7.5 66.5t24.5 52.5q12 16 21.5 28t19.5 22t22 19t30 19q51 29 104 39.5t100 10.5q39 0 69.5 -5t46.5 -13zM208 613q0 5 4 5q2 0 6 -2q1 -8 5.5 -17t10.5 -16.5t13 -12.5t14 -5
q11 0 25.5 9.5t28 21t24.5 21t15 9.5q5 0 5 -5q0 -1 -0.5 -1.5t-0.5 -2.5q-9 -8 -20 -20.5t-22.5 -23.5t-23.5 -19t-23 -8q-26 0 -43 20.5t-18 46.5z" />
    <glyph glyph-name="ccaron" unicode="&#x10d;" horiz-adv-x="154" 
d="M90 100q6 -2 6 -5q0 -2 -4 -5q-24 -4 -43.5 -11.5t-19.5 -25.5q0 -11 16 -19t40 -8q12 0 24 2t27 4q5 -2 5 -6q0 -1 -4 -4q-14 -3 -22.5 -5t-14 -3.5t-10 -2t-10.5 -0.5h-14t-25 4t-23.5 12.5t-10.5 25.5q0 8 7 15q16 21 33 25.5t43 6.5zM1 195q0 5 4 5q2 0 6 -2
q1 -8 5.5 -17t10.5 -16.5t13 -12.5t14 -5q11 0 25.5 9.5t28 21t24.5 21t15 9.5q5 0 5 -5q0 -1 -0.5 -1.5t-0.5 -2.5q-9 -8 -20 -20.5t-22.5 -23.5t-23.5 -19t-23 -8q-26 0 -43 20.5t-18 46.5z" />
    <glyph glyph-name="Dcaron" unicode="&#x10e;" horiz-adv-x="427" 
d="M62 438q-23 -52 -31.5 -111.5t-8.5 -120.5q0 -58 4.5 -112.5t8.5 -102.5q2 -4 2 -3q0 -3 -4 -3q-2 0 -8 2q-1 25 -4 56.5t-6.5 66t-6.5 71t-3 72.5q0 55 8.5 105t31.5 88q8 11 14.5 24t16.5 23q42 42 97 42q15 0 30 -3.5t29 -11.5q37 -22 71.5 -56.5t60.5 -76.5
t41.5 -88.5t15.5 -91.5q0 -53 -23.5 -98t-61.5 -80.5t-85 -61.5t-93 -40q-14 -5 -29.5 -9t-31.5 -4h-40.5t-19.5 2t-18 6.5t-35 14.5q-2 2 -2 5q0 5 4 5h1q21 -8 39 -15.5t45 -7.5q46 0 99 19.5t99.5 51.5t81 73t45.5 83q2 12 4 24.5t2 25.5q0 48 -20.5 103.5t-53.5 102.5
t-74 78t-83 31q-35 0 -64 -21.5t-45 -56.5zM107 646q0 5 4 5q2 0 6 -2q1 -8 5.5 -17t10.5 -16.5t13 -12.5t14 -5q11 0 25.5 9.5t28 21t24.5 21t15 9.5q5 0 5 -5q0 -1 -0.5 -1.5t-0.5 -2.5q-9 -8 -20 -20.5t-22.5 -23.5t-23.5 -19t-23 -8q-26 0 -43 20.5t-18 46.5z" />
    <glyph glyph-name="dcaron" unicode="&#x10f;" 
d="M74 105q5 1 9.5 1.5t9.5 1.5q-7 46 -12.5 91.5t-7.5 92.5q-2 12 -4 41t-2 59q0 14 1 28t3 25t6 18t10 7q8 0 15 -10t13 -24t11 -28.5t8 -21.5q23 -49 41 -99.5t18 -100.5q0 -36 -12.5 -70t-41.5 -66l-19 -20q10 -59 32 -105t73 -83q2 -2 2 -4q0 -5 -6 -5h-4
q-26 19 -44 39.5t-30 44t-20 49t-14 54.5q-11 -9 -24.5 -15t-28.5 -6q-18 0 -32.5 10.5t-14.5 27.5q0 13 6 24t15.5 19.5t21 15t22.5 9.5zM132 83q0 -5 -6 -5q-3 0 -7 8.5t-9 10.5l6 -49l12 12q25 29 35.5 60t10.5 64q0 49 -18 99t-40 96q-6 12 -11 28.5t-13 30.5
q-3 -21 -4 -41t-1 -40q0 -54 6 -106.5t12 -106.5l4 -37q15 -2 23 -22v-2zM99 70q-2 7 -2.5 13.5t-1.5 13.5q-11 -1 -23.5 -5.5t-23 -11.5t-17.5 -17t-7 -21q0 -13 9 -21t23 -8q13 0 26 7.5t24 16.5zM180 409q-4 1 -4 5q0 5 4 5q16 0 22.5 -5.5t6.5 -13.5q0 -7 -4.5 -18.5
t-10 -22t-10.5 -18t-6 -7.5q-5 0 -5 6q1 14 9 29t8 26q0 10 -10 14z" />
    <glyph glyph-name="Dcroat" unicode="&#x110;" horiz-adv-x="427" 
d="M62 438q-23 -52 -31.5 -111.5t-8.5 -120.5q0 -58 4.5 -112.5t8.5 -102.5q2 -4 2 -3q0 -3 -4 -3q-2 0 -8 2q-1 25 -4 56.5t-6.5 66t-6.5 71t-3 72.5q0 55 8.5 105t31.5 88q8 11 14.5 24t16.5 23q42 42 97 42q15 0 30 -3.5t29 -11.5q37 -22 71.5 -56.5t60.5 -76.5
t41.5 -88.5t15.5 -91.5q0 -53 -23.5 -98t-61.5 -80.5t-85 -61.5t-93 -40q-14 -5 -29.5 -9t-31.5 -4h-40.5t-19.5 2t-18 6.5t-35 14.5q-2 2 -2 5q0 5 4 5h1q21 -8 39 -15.5t45 -7.5q46 0 99 19.5t99.5 51.5t81 73t45.5 83q2 12 4 24.5t2 25.5q0 48 -20.5 103.5t-53.5 102.5
t-74 78t-83 31q-35 0 -64 -21.5t-45 -56.5zM-35 157q-3 1 -3 4q0 5 4 5h2q9 -3 19 -3q17 0 37.5 3.5t44.5 3.5h6q5 -2 5 -5q0 -2 -7 -5t-18 -6t-24.5 -5t-26.5 -2q-10 0 -20.5 2t-18.5 8z" />
    <glyph glyph-name="dcroat" unicode="&#x111;" 
d="M32 177q-3 1 -3 4q0 6 4 6q5 0 10 -1.5t10 -1.5q17 0 38 3.5t44 3.5q12 0 12 -5q0 -2 -7 -5t-18 -6t-24.5 -5t-26.5 -2q-11 0 -21 2t-18 7zM74 105q5 1 9.5 1.5t9.5 1.5q-7 46 -12.5 91.5t-7.5 92.5q-2 12 -4 41t-2 59q0 14 1 28t3 25t6 18t10 7q8 0 15 -10t13 -24
t11 -28.5t8 -21.5q23 -49 41 -99.5t18 -100.5q0 -36 -12.5 -70t-41.5 -66l-19 -20q10 -59 32 -105t73 -83q2 -2 2 -4q0 -5 -6 -5h-4q-26 19 -44 39.5t-30 44t-20 49t-14 54.5q-11 -9 -24.5 -15t-28.5 -6q-18 0 -32.5 10.5t-14.5 27.5q0 13 6 24t15.5 19.5t21 15t22.5 9.5z
M132 83q0 -5 -6 -5q-3 0 -7 8.5t-9 10.5l6 -49l12 12q25 29 35.5 60t10.5 64q0 49 -18 99t-40 96q-6 12 -11 28.5t-13 30.5q-3 -21 -4 -41t-1 -40q0 -54 6 -106.5t12 -106.5l4 -37q15 -2 23 -22v-2zM99 70q-2 7 -2.5 13.5t-1.5 13.5q-11 -1 -23.5 -5.5t-23 -11.5t-17.5 -17
t-7 -21q0 -13 9 -21t23 -8q13 0 26 7.5t24 16.5z" />
    <glyph glyph-name="Emacron" unicode="&#x112;" horiz-adv-x="395" 
d="M422 491q-24 -5 -63.5 -10.5t-84.5 -15t-90.5 -24t-82 -37t-59.5 -53.5t-23 -73q0 -27 11.5 -43t29.5 -24.5t41 -11.5t47 -3q48 0 94 7t91 7q14 0 28.5 -3t17.5 -11q-28 -33 -62 -62.5t-64 -57t-50 -55t-20 -55.5q0 -23 28 -32t64 -9q20 0 40.5 2t37 6t28 9t14.5 10
q4 0 4 -4q0 -9 -10.5 -16t-29 -12.5t-42.5 -8.5t-51 -3q-19 0 -37 2.5t-31.5 9t-21.5 17.5t-8 27q0 27 19.5 55t48 56.5t60.5 56.5t57 54q-23 6 -50 6q-41 0 -84 -7t-85 -7q-21 0 -44 3.5t-42.5 13t-32 27t-12.5 46.5q0 16 3.5 33t9 32.5t13 28t15.5 19.5q40 37 85.5 57.5
t93.5 31.5t97.5 17t99.5 15q2 -2 2 -4v-7v0zM176 559q-3 1 -3 4q0 5 4 5h2q9 -3 19 -3q17 0 37.5 3.5t44.5 3.5h6q5 -2 5 -5q0 -2 -7 -5t-18 -6t-24.5 -5t-26.5 -2q-10 0 -20.5 2t-18.5 8z" />
    <glyph glyph-name="emacron" unicode="&#x113;" horiz-adv-x="186" 
d="M-24 49q-1 1 -1 4q0 5 5 5q4 0 10 -3t14 -3t18 2.5t21 5.5q15 28 34 47t38 19q6 0 13 -4t7 -13q0 -20 -24.5 -35t-56.5 -26q-6 -9 -6 -20q0 -20 28 -20q15 0 31.5 4.5t23.5 6.5l40 14h1q5 0 5 -5q0 -4 -12.5 -10t-29 -11.5t-33 -9.5t-25.5 -4q-26 0 -36 7.5t-10 21.5
q0 5 1 10t3 11q-15 -3 -27 -3q-19 0 -32 9zM96 98q-13 -10 -29 -29l19 9q13 9 16.5 13.5t12.5 15.5h-1q-1 0 -1 0.5t-1 0.5q-6 0 -16 -10zM118 105l-1 1zM159.001 166.029q3 -1 3 -4q0 -5 -4 -5h-2q-8.99902 3 -18.999 3q-16.999 0 -37.4971 -3.49902
q-20.499 -3.5 -44.498 -3.5h-5.99902q-5 2 -5 4.99902q0 2 7 5q6.99902 3 17.999 6q10.999 3 24.498 4.99902q13.499 2 26.498 2q10 0 20.499 -2q10.499 -1.99902 18.499 -7.99902z" />
    <glyph glyph-name="Ebreve" unicode="&#x114;" horiz-adv-x="395" 
d="M422 491q-24 -5 -63.5 -10.5t-84.5 -15t-90.5 -24t-82 -37t-59.5 -53.5t-23 -73q0 -27 11.5 -43t29.5 -24.5t41 -11.5t47 -3q48 0 94 7t91 7q14 0 28.5 -3t17.5 -11q-28 -33 -62 -62.5t-64 -57t-50 -55t-20 -55.5q0 -23 28 -32t64 -9q20 0 40.5 2t37 6t28 9t14.5 10
q4 0 4 -4q0 -9 -10.5 -16t-29 -12.5t-42.5 -8.5t-51 -3q-19 0 -37 2.5t-31.5 9t-21.5 17.5t-8 27q0 27 19.5 55t48 56.5t60.5 56.5t57 54q-23 6 -50 6q-41 0 -84 -7t-85 -7q-21 0 -44 3.5t-42.5 13t-32 27t-12.5 46.5q0 16 3.5 33t9 32.5t13 28t15.5 19.5q40 37 85.5 57.5
t93.5 31.5t97.5 17t99.5 15q2 -2 2 -4v-7v0zM184 600q0 6 6 6q3 0 4 -4q0 -26 15 -39.5t35 -13.5q15 0 30 11t20 32q-2 4 -2 5q0 2 4 4q8 0 8 -6q0 -7 0.5 -15t-4.5 -14q-10 -14 -28 -25t-36 -11q-14 0 -23.5 6.5t-15.5 16.5t-9 22.5t-4 24.5z" />
    <glyph glyph-name="ebreve" unicode="&#x115;" horiz-adv-x="186" 
d="M-24 49q-1 1 -1 4q0 5 5 5q4 0 10 -3t14 -3t18 2.5t21 5.5q15 28 34 47t38 19q6 0 13 -4t7 -13q0 -20 -24.5 -35t-56.5 -26q-6 -9 -6 -20q0 -20 28 -20q15 0 31.5 4.5t23.5 6.5l40 14h1q5 0 5 -5q0 -4 -12.5 -10t-29 -11.5t-33 -9.5t-25.5 -4q-26 0 -36 7.5t-10 21.5
q0 5 1 10t3 11q-15 -3 -27 -3q-19 0 -32 9zM96 98q-13 -10 -29 -29l19 9q13 9 16.5 13.5t12.5 15.5h-1q-1 0 -1 0.5t-1 0.5q-6 0 -16 -10zM118 105l-1 1zM27 218q0 6 6 6q3 0 4 -4q0 -26 15 -39.5t35 -13.5q15 0 30 11t20 32q-2 4 -2 5q0 2 4 4q8 0 8 -6q0 -7 0.5 -15
t-4.5 -14q-10 -14 -28 -25t-36 -11q-14 0 -23.5 6.5t-15.5 16.5t-9 22.5t-4 24.5z" />
    <glyph glyph-name="Edotaccent" unicode="&#x116;" horiz-adv-x="395" 
d="M422 491q-24 -5 -63.5 -10.5t-84.5 -15t-90.5 -24t-82 -37t-59.5 -53.5t-23 -73q0 -27 11.5 -43t29.5 -24.5t41 -11.5t47 -3q48 0 94 7t91 7q14 0 28.5 -3t17.5 -11q-28 -33 -62 -62.5t-64 -57t-50 -55t-20 -55.5q0 -23 28 -32t64 -9q20 0 40.5 2t37 6t28 9t14.5 10
q4 0 4 -4q0 -9 -10.5 -16t-29 -12.5t-42.5 -8.5t-51 -3q-19 0 -37 2.5t-31.5 9t-21.5 17.5t-8 27q0 27 19.5 55t48 56.5t60.5 56.5t57 54q-23 6 -50 6q-41 0 -84 -7t-85 -7q-21 0 -44 3.5t-42.5 13t-32 27t-12.5 46.5q0 16 3.5 33t9 32.5t13 28t15.5 19.5q40 37 85.5 57.5
t93.5 31.5t97.5 17t99.5 15q2 -2 2 -4v-7v0zM243 554q6 0 6 -11q0 -10 -12 -10q-6 0 -9.5 3.5t-3.5 8.5q0 10 11 10q5 0 8 -1zM235 545q1 0 3 3q-1 -2 -2.5 -2t-1.5 -1h1zM239 542q-2 0 -5 -3z" />
    <glyph glyph-name="edotaccent" unicode="&#x117;" horiz-adv-x="186" 
d="M-24 49q-1 1 -1 4q0 5 5 5q4 0 10 -3t14 -3t18 2.5t21 5.5q15 28 34 47t38 19q6 0 13 -4t7 -13q0 -20 -24.5 -35t-56.5 -26q-6 -9 -6 -20q0 -20 28 -20q15 0 31.5 4.5t23.5 6.5l40 14h1q5 0 5 -5q0 -4 -12.5 -10t-29 -11.5t-33 -9.5t-25.5 -4q-26 0 -36 7.5t-10 21.5
q0 5 1 10t3 11q-15 -3 -27 -3q-19 0 -32 9zM96 98q-13 -10 -29 -29l19 9q13 9 16.5 13.5t12.5 15.5h-1q-1 0 -1 0.5t-1 0.5q-6 0 -16 -10zM118 105l-1 1zM93 183q6 0 6 -11q0 -10 -12 -10q-6 0 -9.5 3.5t-3.5 8.5q0 10 11 10q5 0 8 -1zM85 174q1 0 3 3q-1 -2 -2.5 -2
t-1.5 -1h1zM89 171q-2 0 -5 -3z" />
    <glyph glyph-name="Eogonek" unicode="&#x118;" horiz-adv-x="395" 
d="M422 491q-24 -5 -63.5 -10.5t-84.5 -15t-90.5 -24t-82 -37t-59.5 -53.5t-23 -73q0 -27 11.5 -43t29.5 -24.5t41 -11.5t47 -3q48 0 94 7t91 7q14 0 28.5 -3t17.5 -11q-28 -33 -62 -62.5t-64 -57t-50 -55t-20 -55.5q0 -23 28 -32t64 -9q20 0 40.5 2t37 6t28 9t14.5 10
q4 0 4 -4q0 -9 -10.5 -16t-29 -12.5t-42.5 -8.5t-51 -3q-19 0 -37 2.5t-31.5 9t-21.5 17.5t-8 27q0 27 19.5 55t48 56.5t60.5 56.5t57 54q-23 6 -50 6q-41 0 -84 -7t-85 -7q-21 0 -44 3.5t-42.5 13t-32 27t-12.5 46.5q0 16 3.5 33t9 32.5t13 28t15.5 19.5q40 37 85.5 57.5
t93.5 31.5t97.5 17t99.5 15q2 -2 2 -4v-7v0zM311 -79q2 4 5 4t5 -4q-1 -11 -5.5 -23.5t-4.5 -24.5q0 -16 14.5 -21t36.5 -5q10 0 18.5 1.5t13.5 1.5q6 0 6 -5q0 -3 -6 -5.5t-14.5 -4.5t-18 -3t-17.5 -1q-18 0 -35 8t-17 28q0 14 7.5 27t11.5 27z" />
    <glyph glyph-name="eogonek" unicode="&#x119;" horiz-adv-x="186" 
d="M-24 49q-1 1 -1 4q0 5 5 5q4 0 10 -3t14 -3t18 2.5t21 5.5q15 28 34 47t38 19q6 0 13 -4t7 -13q0 -20 -24.5 -35t-56.5 -26q-6 -9 -6 -20q0 -20 28 -20q15 0 31.5 4.5t23.5 6.5l40 14h1q5 0 5 -5q0 -4 -12.5 -10t-29 -11.5t-33 -9.5t-25.5 -4q-26 0 -36 7.5t-10 21.5
q0 5 1 10t3 11q-15 -3 -27 -3q-19 0 -32 9zM96 98q-13 -10 -29 -29l19 9q13 9 16.5 13.5t12.5 15.5h-1q-1 0 -1 0.5t-1 0.5q-6 0 -16 -10zM118 105l-1 1zM95 2q2 4 5 4t5 -4q-1 -11 -5.5 -23.5t-4.5 -24.5q0 -16 14.5 -21t36.5 -5q10 0 18.5 1.5t13.5 1.5q6 0 6 -5
q0 -3 -6 -5.5t-14.5 -4.5t-18 -3t-17.5 -1q-18 0 -35 8t-17 28q0 14 7.5 27t11.5 27z" />
    <glyph glyph-name="Ecaron" unicode="&#x11a;" horiz-adv-x="395" 
d="M422 491q-24 -5 -63.5 -10.5t-84.5 -15t-90.5 -24t-82 -37t-59.5 -53.5t-23 -73q0 -27 11.5 -43t29.5 -24.5t41 -11.5t47 -3q48 0 94 7t91 7q14 0 28.5 -3t17.5 -11q-28 -33 -62 -62.5t-64 -57t-50 -55t-20 -55.5q0 -23 28 -32t64 -9q20 0 40.5 2t37 6t28 9t14.5 10
q4 0 4 -4q0 -9 -10.5 -16t-29 -12.5t-42.5 -8.5t-51 -3q-19 0 -37 2.5t-31.5 9t-21.5 17.5t-8 27q0 27 19.5 55t48 56.5t60.5 56.5t57 54q-23 6 -50 6q-41 0 -84 -7t-85 -7q-21 0 -44 3.5t-42.5 13t-32 27t-12.5 46.5q0 16 3.5 33t9 32.5t13 28t15.5 19.5q40 37 85.5 57.5
t93.5 31.5t97.5 17t99.5 15q2 -2 2 -4v-7v0zM161 601q0 5 4 5q2 0 6 -2q1 -8 5.5 -17t10.5 -16.5t13 -12.5t14 -5q11 0 25.5 9.5t28 21t24.5 21t15 9.5q5 0 5 -5q0 -1 -0.5 -1.5t-0.5 -2.5q-9 -8 -20 -20.5t-22.5 -23.5t-23.5 -19t-23 -8q-26 0 -43 20.5t-18 46.5z" />
    <glyph glyph-name="ecaron" unicode="&#x11b;" horiz-adv-x="186" 
d="M-24 49q-1 1 -1 4q0 5 5 5q4 0 10 -3t14 -3t18 2.5t21 5.5q15 28 34 47t38 19q6 0 13 -4t7 -13q0 -20 -24.5 -35t-56.5 -26q-6 -9 -6 -20q0 -20 28 -20q15 0 31.5 4.5t23.5 6.5l40 14h1q5 0 5 -5q0 -4 -12.5 -10t-29 -11.5t-33 -9.5t-25.5 -4q-26 0 -36 7.5t-10 21.5
q0 5 1 10t3 11q-15 -3 -27 -3q-19 0 -32 9zM96 98q-13 -10 -29 -29l19 9q13 9 16.5 13.5t12.5 15.5h-1q-1 0 -1 0.5t-1 0.5q-6 0 -16 -10zM118 105l-1 1zM24 209q0 5 4 5q2 0 6 -2q1 -8 5.5 -17t10.5 -16.5t13 -12.5t14 -5q11 0 25.5 9.5t28 21t24.5 21t15 9.5q5 0 5 -5
q0 -1 -0.5 -1.5t-0.5 -2.5q-9 -8 -20 -20.5t-22.5 -23.5t-23.5 -19t-23 -8q-26 0 -43 20.5t-18 46.5z" />
    <glyph glyph-name="Gcircumflex" unicode="&#x11c;" horiz-adv-x="652" 
d="M610 427q1 -1 1 -3q0 -4 -5 -4q-3 0 -6.5 5t-7.5 11t-8.5 12t-8.5 9q-29 18 -70 25.5t-85 7.5q-71 0 -142.5 -16t-129.5 -50.5t-94.5 -89t-36.5 -131.5q0 -76 26 -130t68 -88.5t95.5 -50.5t109.5 -16q71 0 136 20q24 7 49 17.5t47.5 25t40 33t27.5 42.5q2 11 3 22.5
t1 23.5q-8 26 -46.5 41t-109.5 15q-22 0 -44 -1t-42 -6q-11 -3 -19 -7t-16 -7q-10 -3 -24.5 -9t-27.5 -6q-10 0 -10 8q0 6 8.5 11.5t21.5 10t28.5 8.5t30.5 7l27 11q40 18 76 27.5t79 14.5h5q10 0 21.5 -4t21.5 -11t17 -16.5t9 -19.5q5 -26 6 -49q9 -20 9 -39
q0 -16 -5.5 -31t-13.5 -29q-10 -53 -24.5 -106t-14.5 -112q0 -19 6.5 -37t27.5 -18h12q8 0 8 -6q0 -4 -5 -4h-3q-4 0 -7.5 -0.5t-7.5 -0.5q-12 0 -20.5 7t-13 17.5t-6.5 23t-2 22.5q0 53 11.5 98.5t22.5 94.5q-11 -12 -24.5 -22.5t-27.5 -16.5q-32 -14 -49.5 -22.5
t-28.5 -13.5t-19 -7t-20.5 -4t-33 -5t-56.5 -9q-11 -2 -22.5 -3t-23.5 -1q-19 0 -38.5 3t-37.5 11q-30 13 -56.5 22.5t-50 22.5t-43 33t-36.5 53q-39 81 -39 156q0 84 46 152.5t136 108.5q57 24 115 33t134 9q42 0 81 -7t69 -27q11 -7 16.5 -18t12.5 -21zM587 158
q8 -5 16 -9t15 -10q-5 29 -20.5 48t-52.5 19q-26 0 -55.5 -9.5t-58.5 -20.5q12 1 23.5 1h22.5q35 0 64 -4.5t46 -14.5zM378 630q2 1 4 1q6 0 13 -9.5t13 -21.5t9.5 -23.5t3.5 -14.5q0 -4 -6 -4q-3 0 -4 3q-3 15 -11.5 25.5t-16.5 22.5q-17 -14 -31.5 -33.5t-35.5 -31.5
q-1 -1 -4 -1q-5 0 -7 3t-2 6q0 5 2 7l21 18q11 11 21.5 25t30.5 28z" />
    <glyph glyph-name="gcircumflex" unicode="&#x11d;" horiz-adv-x="190" 
d="M141 105q0 -6 -5 -6t-9.5 9.5t-14.5 9.5q-11 0 -23.5 -7.5t-24 -19.5t-19 -27t-7.5 -29q0 -8 1.5 -14.5t12.5 -6.5q18 0 36 8.5t36 8.5q14 0 28 -12.5t26.5 -32t21.5 -44.5t13 -50h14q5 0 19 -1.5t29 -4.5t27 -8.5t12 -12.5q-2 -7 -5 -11q-2 -4 -6.5 -7t-9.5 -3t-5 5
t5.5 7.5t8.5 6.5q-1 5 -9 8.5t-19 5.5t-24 2.5t-23 0.5h-11v-17q0 -15 -3 -29t-10 -24q-15 -22 -36.5 -42t-46.5 -35.5t-52 -24.5t-54 -9q-14 0 -32 3t-33.5 10.5t-26 19.5t-10.5 29q0 11 9 22.5t21 21.5t24 17.5t18 10.5q49 28 102 42.5t109 16.5q-3 19 -10 40.5t-16.5 40
t-20.5 30.5t-22 12q-13 0 -35 -8.5t-41 -8.5q-12 0 -19 7t-7 26q0 17 8 34.5t20.5 31.5t28.5 23t31 9q22 0 29 -23v-1zM197 -137v8t-1 8q-45 -3 -98 -16.5t-106 -43.5q-6 -4 -16.5 -10t-20.5 -14t-17 -17.5t-7 -18.5q0 -10 6.5 -17.5t16.5 -13t22 -8t23 -2.5q22 0 46 6.5
t46.5 17t41.5 22.5t31 24q9 9 14 16.5t8.5 14.5t5.5 15.5t5 20.5v8zM100 241q2 1 4 1q6 0 13 -9.5t13 -21.5t9.5 -23.5t3.5 -14.5q0 -4 -6 -4q-3 0 -4 3q-3 15 -11.5 25.5t-16.5 22.5q-17 -14 -31.5 -33.5t-35.5 -31.5q-1 -1 -4 -1q-5 0 -7 3t-2 6q0 5 2 7l21 18
q11 11 21.5 25t30.5 28z" />
    <glyph glyph-name="Gbreve" unicode="&#x11e;" horiz-adv-x="652" 
d="M610 427q1 -1 1 -3q0 -4 -5 -4q-3 0 -6.5 5t-7.5 11t-8.5 12t-8.5 9q-29 18 -70 25.5t-85 7.5q-71 0 -142.5 -16t-129.5 -50.5t-94.5 -89t-36.5 -131.5q0 -76 26 -130t68 -88.5t95.5 -50.5t109.5 -16q71 0 136 20q24 7 49 17.5t47.5 25t40 33t27.5 42.5q2 11 3 22.5
t1 23.5q-8 26 -46.5 41t-109.5 15q-22 0 -44 -1t-42 -6q-11 -3 -19 -7t-16 -7q-10 -3 -24.5 -9t-27.5 -6q-10 0 -10 8q0 6 8.5 11.5t21.5 10t28.5 8.5t30.5 7l27 11q40 18 76 27.5t79 14.5h5q10 0 21.5 -4t21.5 -11t17 -16.5t9 -19.5q5 -26 6 -49q9 -20 9 -39
q0 -16 -5.5 -31t-13.5 -29q-10 -53 -24.5 -106t-14.5 -112q0 -19 6.5 -37t27.5 -18h12q8 0 8 -6q0 -4 -5 -4h-3q-4 0 -7.5 -0.5t-7.5 -0.5q-12 0 -20.5 7t-13 17.5t-6.5 23t-2 22.5q0 53 11.5 98.5t22.5 94.5q-11 -12 -24.5 -22.5t-27.5 -16.5q-32 -14 -49.5 -22.5
t-28.5 -13.5t-19 -7t-20.5 -4t-33 -5t-56.5 -9q-11 -2 -22.5 -3t-23.5 -1q-19 0 -38.5 3t-37.5 11q-30 13 -56.5 22.5t-50 22.5t-43 33t-36.5 53q-39 81 -39 156q0 84 46 152.5t136 108.5q57 24 115 33t134 9q42 0 81 -7t69 -27q11 -7 16.5 -18t12.5 -21zM587 158
q8 -5 16 -9t15 -10q-5 29 -20.5 48t-52.5 19q-26 0 -55.5 -9.5t-58.5 -20.5q12 1 23.5 1h22.5q35 0 64 -4.5t46 -14.5zM269 630q0 6 6 6q3 0 4 -4q0 -26 15 -39.5t35 -13.5q15 0 30 11t20 32q-2 4 -2 5q0 2 4 4q8 0 8 -6q0 -7 0.5 -15t-4.5 -14q-10 -14 -28 -25t-36 -11
q-14 0 -23.5 6.5t-15.5 16.5t-9 22.5t-4 24.5z" />
    <glyph glyph-name="gbreve" unicode="&#x11f;" horiz-adv-x="190" 
d="M141 105q0 -6 -5 -6t-9.5 9.5t-14.5 9.5q-11 0 -23.5 -7.5t-24 -19.5t-19 -27t-7.5 -29q0 -8 1.5 -14.5t12.5 -6.5q18 0 36 8.5t36 8.5q14 0 28 -12.5t26.5 -32t21.5 -44.5t13 -50h14q5 0 19 -1.5t29 -4.5t27 -8.5t12 -12.5q-2 -7 -5 -11q-2 -4 -6.5 -7t-9.5 -3t-5 5
t5.5 7.5t8.5 6.5q-1 5 -9 8.5t-19 5.5t-24 2.5t-23 0.5h-11v-17q0 -15 -3 -29t-10 -24q-15 -22 -36.5 -42t-46.5 -35.5t-52 -24.5t-54 -9q-14 0 -32 3t-33.5 10.5t-26 19.5t-10.5 29q0 11 9 22.5t21 21.5t24 17.5t18 10.5q49 28 102 42.5t109 16.5q-3 19 -10 40.5t-16.5 40
t-20.5 30.5t-22 12q-13 0 -35 -8.5t-41 -8.5q-12 0 -19 7t-7 26q0 17 8 34.5t20.5 31.5t28.5 23t31 9q22 0 29 -23v-1zM197 -137v8t-1 8q-45 -3 -98 -16.5t-106 -43.5q-6 -4 -16.5 -10t-20.5 -14t-17 -17.5t-7 -18.5q0 -10 6.5 -17.5t16.5 -13t22 -8t23 -2.5q22 0 46 6.5
t46.5 17t41.5 22.5t31 24q9 9 14 16.5t8.5 14.5t5.5 15.5t5 20.5v8zM39 232q0 6 6 6q3 0 4 -4q0 -26 15 -39.5t35 -13.5q15 0 30 11t20 32q-2 4 -2 5q0 2 4 4q8 0 8 -6q0 -7 0.5 -15t-4.5 -14q-10 -14 -28 -25t-36 -11q-14 0 -23.5 6.5t-15.5 16.5t-9 22.5t-4 24.5z" />
    <glyph glyph-name="Gdotaccent" unicode="&#x120;" horiz-adv-x="652" 
d="M610 427q1 -1 1 -3q0 -4 -5 -4q-3 0 -6.5 5t-7.5 11t-8.5 12t-8.5 9q-29 18 -70 25.5t-85 7.5q-71 0 -142.5 -16t-129.5 -50.5t-94.5 -89t-36.5 -131.5q0 -76 26 -130t68 -88.5t95.5 -50.5t109.5 -16q71 0 136 20q24 7 49 17.5t47.5 25t40 33t27.5 42.5q2 11 3 22.5
t1 23.5q-8 26 -46.5 41t-109.5 15q-22 0 -44 -1t-42 -6q-11 -3 -19 -7t-16 -7q-10 -3 -24.5 -9t-27.5 -6q-10 0 -10 8q0 6 8.5 11.5t21.5 10t28.5 8.5t30.5 7l27 11q40 18 76 27.5t79 14.5h5q10 0 21.5 -4t21.5 -11t17 -16.5t9 -19.5q5 -26 6 -49q9 -20 9 -39
q0 -16 -5.5 -31t-13.5 -29q-10 -53 -24.5 -106t-14.5 -112q0 -19 6.5 -37t27.5 -18h12q8 0 8 -6q0 -4 -5 -4h-3q-4 0 -7.5 -0.5t-7.5 -0.5q-12 0 -20.5 7t-13 17.5t-6.5 23t-2 22.5q0 53 11.5 98.5t22.5 94.5q-11 -12 -24.5 -22.5t-27.5 -16.5q-32 -14 -49.5 -22.5
t-28.5 -13.5t-19 -7t-20.5 -4t-33 -5t-56.5 -9q-11 -2 -22.5 -3t-23.5 -1q-19 0 -38.5 3t-37.5 11q-30 13 -56.5 22.5t-50 22.5t-43 33t-36.5 53q-39 81 -39 156q0 84 46 152.5t136 108.5q57 24 115 33t134 9q42 0 81 -7t69 -27q11 -7 16.5 -18t12.5 -21zM587 158
q8 -5 16 -9t15 -10q-5 29 -20.5 48t-52.5 19q-26 0 -55.5 -9.5t-58.5 -20.5q12 1 23.5 1h22.5q35 0 64 -4.5t46 -14.5zM335 595q6 0 6 -11q0 -10 -12 -10q-6 0 -9.5 3.5t-3.5 8.5q0 10 11 10q5 0 8 -1zM327 586q1 0 3 3q-1 -2 -2.5 -2t-1.5 -1h1zM331 583q-2 0 -5 -3z" />
    <glyph glyph-name="gdotaccent" unicode="&#x121;" horiz-adv-x="190" 
d="M141 105q0 -6 -5 -6t-9.5 9.5t-14.5 9.5q-11 0 -23.5 -7.5t-24 -19.5t-19 -27t-7.5 -29q0 -8 1.5 -14.5t12.5 -6.5q18 0 36 8.5t36 8.5q14 0 28 -12.5t26.5 -32t21.5 -44.5t13 -50h14q5 0 19 -1.5t29 -4.5t27 -8.5t12 -12.5q-2 -7 -5 -11q-2 -4 -6.5 -7t-9.5 -3t-5 5
t5.5 7.5t8.5 6.5q-1 5 -9 8.5t-19 5.5t-24 2.5t-23 0.5h-11v-17q0 -15 -3 -29t-10 -24q-15 -22 -36.5 -42t-46.5 -35.5t-52 -24.5t-54 -9q-14 0 -32 3t-33.5 10.5t-26 19.5t-10.5 29q0 11 9 22.5t21 21.5t24 17.5t18 10.5q49 28 102 42.5t109 16.5q-3 19 -10 40.5t-16.5 40
t-20.5 30.5t-22 12q-13 0 -35 -8.5t-41 -8.5q-12 0 -19 7t-7 26q0 17 8 34.5t20.5 31.5t28.5 23t31 9q22 0 29 -23v-1zM197 -137v8t-1 8q-45 -3 -98 -16.5t-106 -43.5q-6 -4 -16.5 -10t-20.5 -14t-17 -17.5t-7 -18.5q0 -10 6.5 -17.5t16.5 -13t22 -8t23 -2.5q22 0 46 6.5
t46.5 17t41.5 22.5t31 24q9 9 14 16.5t8.5 14.5t5.5 15.5t5 20.5v8zM103 184q6 0 6 -11q0 -10 -12 -10q-6 0 -9.5 3.5t-3.5 8.5q0 10 11 10q5 0 8 -1zM95 175q1 0 3 3q-1 -2 -2.5 -2t-1.5 -1h1zM99 172q-2 0 -5 -3z" />
    <glyph glyph-name="Gcommaaccent" unicode="&#x122;" horiz-adv-x="652" 
d="M610 427q1 -1 1 -3q0 -4 -5 -4q-3 0 -6.5 5t-7.5 11t-8.5 12t-8.5 9q-29 18 -70 25.5t-85 7.5q-71 0 -142.5 -16t-129.5 -50.5t-94.5 -89t-36.5 -131.5q0 -76 26 -130t68 -88.5t95.5 -50.5t109.5 -16q71 0 136 20q24 7 49 17.5t47.5 25t40 33t27.5 42.5q2 11 3 22.5
t1 23.5q-8 26 -46.5 41t-109.5 15q-22 0 -44 -1t-42 -6q-11 -3 -19 -7t-16 -7q-10 -3 -24.5 -9t-27.5 -6q-10 0 -10 8q0 6 8.5 11.5t21.5 10t28.5 8.5t30.5 7l27 11q40 18 76 27.5t79 14.5h5q10 0 21.5 -4t21.5 -11t17 -16.5t9 -19.5q5 -26 6 -49q9 -20 9 -39
q0 -16 -5.5 -31t-13.5 -29q-10 -53 -24.5 -106t-14.5 -112q0 -19 6.5 -37t27.5 -18h12q8 0 8 -6q0 -4 -5 -4h-3q-4 0 -7.5 -0.5t-7.5 -0.5q-12 0 -20.5 7t-13 17.5t-6.5 23t-2 22.5q0 53 11.5 98.5t22.5 94.5q-11 -12 -24.5 -22.5t-27.5 -16.5q-32 -14 -49.5 -22.5
t-28.5 -13.5t-19 -7t-20.5 -4t-33 -5t-56.5 -9q-11 -2 -22.5 -3t-23.5 -1q-19 0 -38.5 3t-37.5 11q-30 13 -56.5 22.5t-50 22.5t-43 33t-36.5 53q-39 81 -39 156q0 84 46 152.5t136 108.5q57 24 115 33t134 9q42 0 81 -7t69 -27q11 -7 16.5 -18t12.5 -21zM587 158
q8 -5 16 -9t15 -10q-5 29 -20.5 48t-52.5 19q-26 0 -55.5 -9.5t-58.5 -20.5q12 1 23.5 1h22.5q35 0 64 -4.5t46 -14.5zM350 -147q-4 1 -4 5q0 5 4 5q16 0 22.5 -5.5t6.5 -13.5q0 -7 -4.5 -18.5t-10 -22t-10.5 -18t-6 -7.5q-5 0 -5 6q1 14 9 29t8 26q0 10 -10 14z" />
    <glyph glyph-name="gcommaaccent" unicode="&#x123;" horiz-adv-x="190" 
d="M141 105q0 -6 -5 -6t-9.5 9.5t-14.5 9.5q-11 0 -23.5 -7.5t-24 -19.5t-19 -27t-7.5 -29q0 -8 1.5 -14.5t12.5 -6.5q18 0 36 8.5t36 8.5q14 0 28 -12.5t26.5 -32t21.5 -44.5t13 -50h14q5 0 19 -1.5t29 -4.5t27 -8.5t12 -12.5q-2 -7 -5 -11q-2 -4 -6.5 -7t-9.5 -3t-5 5
t5.5 7.5t8.5 6.5q-1 5 -9 8.5t-19 5.5t-24 2.5t-23 0.5h-11v-17q0 -15 -3 -29t-10 -24q-15 -22 -36.5 -42t-46.5 -35.5t-52 -24.5t-54 -9q-14 0 -32 3t-33.5 10.5t-26 19.5t-10.5 29q0 11 9 22.5t21 21.5t24 17.5t18 10.5q49 28 102 42.5t109 16.5q-3 19 -10 40.5t-16.5 40
t-20.5 30.5t-22 12q-13 0 -35 -8.5t-41 -8.5q-12 0 -19 7t-7 26q0 17 8 34.5t20.5 31.5t28.5 23t31 9q22 0 29 -23v-1zM197 -137v8t-1 8q-45 -3 -98 -16.5t-106 -43.5q-6 -4 -16.5 -10t-20.5 -14t-17 -17.5t-7 -18.5q0 -10 6.5 -17.5t16.5 -13t22 -8t23 -2.5q22 0 46 6.5
t46.5 17t41.5 22.5t31 24q9 9 14 16.5t8.5 14.5t5.5 15.5t5 20.5v8zM101.002 171.001q3.99902 -1 3.99902 -5q0 -5 -3.99902 -5q-15.999 0 -22.499 5.5t-6.5 13.499q0 7 4.5 18.499t9.99902 21.999q5.5 10.499 10.5 17.998q5 7.5 5.99902 7.5q5 0 5 -6
q-1 -13.999 -8.99902 -28.998q-8 -14.999 -8 -25.998q0 -10 10 -13.999z" />
    <glyph glyph-name="Hcircumflex" unicode="&#x124;" horiz-adv-x="604" 
d="M682 551q0 -5 -7 -5q-3 0 -3 3q-8 -3 -17 -29t-18 -59t-17 -65.5t-12 -49.5q-5 -22 -8.5 -41t-6.5 -37t-6 -36.5t-7 -40.5q23 6 45.5 12t45.5 13h1q6 0 6 -6q0 -4 -5 -4l-95 -28l-6 -37q-8 -44 -12.5 -88t-4.5 -89q0 -17 1 -34.5t3 -34.5v8q3 -17 4.5 -23.5t3 -10.5
t3.5 -10t7 -23v-3q0 -3 -2.5 -6t-6.5 -3q-2 0 -6 2q-9 10 -12.5 16t-5 11.5t-2.5 12t-4 18.5q-5 17 -9 30.5t-8.5 26.5t-10 26t-14.5 29q-21 38 -50.5 72t-63.5 58l-5 5h-3q-38 -7 -76.5 -11t-76.5 -4q-18 0 -37.5 1t-37.5 5v-13v13q0 3 1 4q0 -5 -0.5 -24.5t-1 -46.5
t-1 -59.5t-1 -64t-1 -59.5t-0.5 -46q0 -9 0.5 -15t0.5 -8q0 -6 -6 -6q-3 0 -4 4v23q0 32 -1.5 58.5t-3 52.5t-2.5 54t-1 63q0 16 0.5 34t0.5 39q-17 4 -33.5 8.5t-30 9.5t-21.5 11.5t-8 14.5q0 13 10 23.5t24.5 18.5t30.5 13t29 6q-1 45 -1.5 102t-0.5 108v24.5t1 22.5v3
q1 3 5 3q2 0 4 -3q1 -1 1 -2q0 -28 1 -61t2.5 -67t3 -67t2.5 -61h6q26 0 57 -6.5t63 -17.5t63 -26.5t58 -34.5q44 8 86.5 18t84.5 22q6 27 11 56.5t10 55.5q5 22 12.5 53.5t15 62.5t14.5 57t10 38q10 18 21.5 34.5t18.5 16.5q5 0 6 -9v-1zM538 -48q0 55 6.5 110t16.5 112
q-38 -11 -77 -20.5t-79 -17.5q42 -34 77.5 -83t55.5 -101zM146 214q1 -20 1 -38v-38q35 -5 54.5 -5.5t30.5 -0.5q33 0 65 2.5t64 7.5q-18 12 -42 24.5t-51 23t-56.5 17.5t-57.5 7h-8zM126 141q1 18 1 35.5v36.5q-20 -4 -43.5 -13t-32.5 -26q5 -13 27 -20.5t48 -12.5z
M559 -97q-1 0 -1 1v1zM400 626q2 1 4 1q6 0 13 -9.5t13 -21.5t9.5 -23.5t3.5 -14.5q0 -4 -6 -4q-3 0 -4 3q-3 15 -11.5 25.5t-16.5 22.5q-17 -14 -31.5 -33.5t-35.5 -31.5q-1 -1 -4 -1q-5 0 -7 3t-2 6q0 5 2 7l21 18q11 11 21.5 25t30.5 28z" />
    <glyph glyph-name="hcircumflex" unicode="&#x125;" horiz-adv-x="184" 
d="M-8 106q-6 0 -6 4q0 3 4.5 6.5t11 6.5l13 6t9.5 5q1 45 3 89t10 88q8 48 23.5 91.5t38.5 86.5l14 22q14 20 27 28.5t24 8.5q15 0 27 -13t21 -33t15 -44t10 -45t6 -37t2 -20q-1 -42 -20 -75t-57 -69q-12 -12 -28 -24.5t-33 -24t-34 -20.5t-32 -13v-6v8v-7q0 -8 -1 -30.5
t-1 -48.5v-15q3 8 9 18t13 18.5t15 14.5t17 6t17 -9t15 -21t12.5 -23.5t9.5 -16.5q3 -4 9 -9t6 -8q0 -5 -5 -5q-2 0 -3 1q-10 9 -18.5 22t-16 25.5t-14 21.5t-13.5 9q-6 0 -13.5 -7t-14.5 -17.5t-11.5 -22.5t-4.5 -22q0 -5 0.5 -10.5t0.5 -10.5q0 -8 -1.5 -14.5t-8.5 -6.5
q-5 0 -8.5 10t-5.5 25.5t-2.5 34t-0.5 35.5q0 22 1 38t1 19v-14v11q-8 -3 -15 -7t-15 -10h-2zM94 433q-29 -70 -39.5 -143.5t-12.5 -148.5q5 2 10.5 5t10.5 6q26 16 55 36t53.5 44.5t40.5 53.5t17 63q0 23 -6 48.5t-13 48.5q-6 23 -15 48t-31 37q-14 -5 -25 -16t-19 -25
t-14.5 -29.5t-11.5 -27.5zM167 637q2 1 4 1q6 0 13 -9.5t13 -21.5t9.5 -23.5t3.5 -14.5q0 -4 -6 -4q-3 0 -4 3q-3 15 -11.5 25.5t-16.5 22.5q-17 -14 -31.5 -33.5t-35.5 -31.5q-1 -1 -4 -1q-5 0 -7 3t-2 6q0 5 2 7l21 18q11 11 21.5 25t30.5 28z" />
    <glyph glyph-name="Hbar" unicode="&#x126;" horiz-adv-x="604" 
d="M41 267q-10 0 -13 0.5t-3 1.5q0 3 26 5l8 1q114 2 258 15t327 24l35 2h12q19 0 19 -2q0 -1 -30.5 -4.5t-81.5 -9t-117 -11.5t-136.5 -11t-140 -8.5t-127.5 -3.5q-9 0 -18 0.5t-18 0.5zM682 551q0 -5 -7 -5q-3 0 -3 3q-8 -3 -17 -29t-18 -59t-17 -65.5t-12 -49.5
q-5 -22 -8.5 -41t-6.5 -37t-6 -36.5t-7 -40.5q23 6 45.5 12t45.5 13h1q6 0 6 -6q0 -4 -5 -4l-95 -28l-6 -37q-8 -44 -12.5 -88t-4.5 -89q0 -17 1 -34.5t3 -34.5v8q3 -17 4.5 -23.5t3 -10.5t3.5 -10t7 -23v-3q0 -3 -2.5 -6t-6.5 -3q-2 0 -6 2q-9 10 -12.5 16t-5 11.5t-2.5 12
t-4 18.5q-5 17 -9 30.5t-8.5 26.5t-10 26t-14.5 29q-21 38 -50.5 72t-63.5 58l-5 5h-3q-38 -7 -76.5 -11t-76.5 -4q-18 0 -37.5 1t-37.5 5v-13v13q0 3 1 4q0 -5 -0.5 -24.5t-1 -46.5t-1 -59.5t-1 -64t-1 -59.5t-0.5 -46q0 -9 0.5 -15t0.5 -8q0 -6 -6 -6q-3 0 -4 4v23
q0 32 -1.5 58.5t-3 52.5t-2.5 54t-1 63q0 16 0.5 34t0.5 39q-17 4 -33.5 8.5t-30 9.5t-21.5 11.5t-8 14.5q0 13 10 23.5t24.5 18.5t30.5 13t29 6q-1 45 -1.5 102t-0.5 108v24.5t1 22.5v3q1 3 5 3q2 0 4 -3q1 -1 1 -2q0 -28 1 -61t2.5 -67t3 -67t2.5 -61h6q26 0 57 -6.5
t63 -17.5t63 -26.5t58 -34.5q44 8 86.5 18t84.5 22q6 27 11 56.5t10 55.5q5 22 12.5 53.5t15 62.5t14.5 57t10 38q10 18 21.5 34.5t18.5 16.5q5 0 6 -9v-1zM538 -48q0 55 6.5 110t16.5 112q-38 -11 -77 -20.5t-79 -17.5q42 -34 77.5 -83t55.5 -101zM146 214q1 -20 1 -38v-38
q35 -5 54.5 -5.5t30.5 -0.5q33 0 65 2.5t64 7.5q-18 12 -42 24.5t-51 23t-56.5 17.5t-57.5 7h-8zM126 141q1 18 1 35.5v36.5q-20 -4 -43.5 -13t-32.5 -26q5 -13 27 -20.5t48 -12.5zM559 -97q-1 0 -1 1v1z" />
    <glyph glyph-name="hbar" unicode="&#x127;" horiz-adv-x="184" 
d="M-8 106q-6 0 -6 4q0 3 4.5 6.5t11 6.5l13 6t9.5 5q1 45 3 89t10 88q8 48 23.5 91.5t38.5 86.5l14 22q14 20 27 28.5t24 8.5q15 0 27 -13t21 -33t15 -44t10 -45t6 -37t2 -20q-1 -42 -20 -75t-57 -69q-12 -12 -28 -24.5t-33 -24t-34 -20.5t-32 -13v-6v8v-7q0 -8 -1 -30.5
t-1 -48.5v-15q3 8 9 18t13 18.5t15 14.5t17 6t17 -9t15 -21t12.5 -23.5t9.5 -16.5q3 -4 9 -9t6 -8q0 -5 -5 -5q-2 0 -3 1q-10 9 -18.5 22t-16 25.5t-14 21.5t-13.5 9q-6 0 -13.5 -7t-14.5 -17.5t-11.5 -22.5t-4.5 -22q0 -5 0.5 -10.5t0.5 -10.5q0 -8 -1.5 -14.5t-8.5 -6.5
q-5 0 -8.5 10t-5.5 25.5t-2.5 34t-0.5 35.5q0 22 1 38t1 19v-14v11q-8 -3 -15 -7t-15 -10h-2zM94 433q-29 -70 -39.5 -143.5t-12.5 -148.5q5 2 10.5 5t10.5 6q26 16 55 36t53.5 44.5t40.5 53.5t17 63q0 23 -6 48.5t-13 48.5q-6 23 -15 48t-31 37q-14 -5 -25 -16t-19 -25
t-14.5 -29.5t-11.5 -27.5zM90.001 209.029q3 -1 3 -4q0 -5 -4 -5h-2q-8.99902 3 -18.999 3q-16.999 0 -37.4971 -3.49902q-20.499 -3.5 -44.498 -3.5h-5.99902q-5 2 -5 4.99902q0 2 7 5q6.99902 3 17.999 6q10.999 3 24.498 4.99902q13.499 2 26.498 2q10 0 20.499 -2
q10.499 -1.99902 18.499 -7.99902z" />
    <glyph glyph-name="Itilde" unicode="&#x128;" horiz-adv-x="109" 
d="M8 557q-3 -3 -4 -3q-3 0 -3 3t1 4q11 27 20.5 47.5t20.5 20.5q5 0 10 -4t10 -8.5t9.5 -8t8.5 -3.5q5 0 11 8t12.5 17.5t12 17.5t9.5 8l1 -1q0 -1 0.5 -1.5t0.5 -1.5q0 -4 -1 -5q-5 -8 -11 -19t-13 -20.5t-14.5 -16.5t-14.5 -7q-5 0 -9 3.5t-7.5 7.5t-7.5 8t-9 4
q-11 -10 -18 -23.5t-15 -26.5zM-53 480q0 1 -0.5 1.5t-0.5 1.5q0 6 6 6q5 0 10.5 -3.5t12.5 -3.5q17 0 36.5 8.5t37.5 20.5t32.5 25.5t21.5 23.5q2 2 6 2q7 0 7 -7v-5q-6 -9 -10 -31t-7 -47t-5.5 -48.5t-4.5 -36.5q-13 -88 -28.5 -174.5t-20.5 -175.5q0 -2 -0.5 -4.5
t-0.5 -7.5q0 -11 1 -28t4 -34.5t7.5 -34t10.5 -27.5q-2 6 -4 11.5t-2 12.5q0 4 1 9.5t6 5.5q4 0 4 -6q0 -2 -0.5 -4.5t-0.5 -4.5q0 -11 5 -21t6 -21q-2 -6 -6 -6q-8 0 -15 13t-11 20q-14 26 -18.5 55t-4.5 59q0 32 3.5 65.5t7.5 63.5q7 53 16.5 110t20.5 126q2 10 3.5 26.5
t4 35.5t5.5 38.5t7 36.5q-11 -10 -25.5 -19.5t-30 -17.5t-31 -13t-28.5 -5q-8 0 -15.5 2t-12.5 7z" />
    <glyph glyph-name="itilde" unicode="&#x129;" horiz-adv-x="63" 
d="M21 98q-2 2 -2 4q0 5 6 5q5 0 8.5 -5t5.5 -11.5t3 -14t1 -13.5q0 -14 -2 -29.5t-5 -29.5t-6 -23t-6 -9q-5 0 -5.5 9t-0.5 16q0 19 2 37.5t4 37.5v-5q1 4 1 15q0 5 -1 9.5t-3 6.5zM-9.18457 145.082q0 -1.01855 -1.26465 -1.01855q-3.7959 0 -3.7959 5.0918
q0.632812 0 0.632812 1.01855q0 1.01758 0.631836 2.03613q7.5918 14.2568 16.1328 26.9854q8.54004 12.7285 14.2334 12.7285q6.32715 0 11.0713 -7.63672q4.74512 -7.6377 8.85742 -17.3115q4.11133 -9.67383 7.90723 -17.3115q3.7959 -7.63672 8.85742 -7.63672
q7.59082 0 14.2334 9.16406q6.64258 9.16504 13.6016 13.2383h1.26562q3.16309 0 3.16309 -4.07324q0 -3.05469 -4.42871 -8.65527q-4.42773 -5.60059 -10.4385 -10.6924q-6.00977 -5.0918 -12.3359 -9.16504t-10.7549 -4.07324q-5.69336 0 -9.48926 5.0918
t-6.64258 12.2197t-5.69336 14.7656q-2.84668 7.63672 -7.27539 11.7109q-7.5918 -3.05566 -14.5508 -10.6924q-6.95898 -7.6377 -13.918 -15.7842z" />
    <glyph glyph-name="Imacron" unicode="&#x12a;" horiz-adv-x="109" 
d="M-53 480q0 1 -0.5 1.5t-0.5 1.5q0 6 6 6q5 0 10.5 -3.5t12.5 -3.5q17 0 36.5 8.5t37.5 20.5t32.5 25.5t21.5 23.5q2 2 6 2q7 0 7 -7v-5q-6 -9 -10 -31t-7 -47t-5.5 -48.5t-4.5 -36.5q-13 -88 -28.5 -174.5t-20.5 -175.5q0 -2 -0.5 -4.5t-0.5 -7.5q0 -11 1 -28t4 -34.5
t7.5 -34t10.5 -27.5q-2 6 -4 11.5t-2 12.5q0 4 1 9.5t6 5.5q4 0 4 -6q0 -2 -0.5 -4.5t-0.5 -4.5q0 -11 5 -21t6 -21q-2 -6 -6 -6q-8 0 -15 13t-11 20q-14 26 -18.5 55t-4.5 59q0 32 3.5 65.5t7.5 63.5q7 53 16.5 110t20.5 126q2 10 3.5 26.5t4 35.5t5.5 38.5t7 36.5
q-11 -10 -25.5 -19.5t-30 -17.5t-31 -13t-28.5 -5q-8 0 -15.5 2t-12.5 7zM-12 586q-3 1 -3 4q0 5 4 5h2q9 -3 19 -3q17 0 37.5 3.5t44.5 3.5h6q5 -2 5 -5q0 -2 -7 -5t-18 -6t-24.5 -5t-26.5 -2q-10 0 -20.5 2t-18.5 8z" />
    <glyph glyph-name="imacron" unicode="&#x12b;" horiz-adv-x="63" 
d="M21 98q-2 2 -2 4q0 5 6 5q5 0 8.5 -5t5.5 -11.5t3 -14t1 -13.5q0 -14 -2 -29.5t-5 -29.5t-6 -23t-6 -9q-5 0 -5.5 9t-0.5 16q0 19 2 37.5t4 37.5v-5q1 4 1 15q0 5 -1 9.5t-3 6.5zM-25 150q-3 1 -3 4q0 5 4 5h2q9 -3 19 -3q17 0 37.5 3.5t44.5 3.5h6q5 -2 5 -5q0 -2 -7 -5
t-18 -6t-24.5 -5t-26.5 -2q-10 0 -20.5 2t-18.5 8z" />
    <glyph glyph-name="Ibreve" unicode="&#x12c;" horiz-adv-x="109" 
d="M-53 480q0 1 -0.5 1.5t-0.5 1.5q0 6 6 6q5 0 10.5 -3.5t12.5 -3.5q17 0 36.5 8.5t37.5 20.5t32.5 25.5t21.5 23.5q2 2 6 2q7 0 7 -7v-5q-6 -9 -10 -31t-7 -47t-5.5 -48.5t-4.5 -36.5q-13 -88 -28.5 -174.5t-20.5 -175.5q0 -2 -0.5 -4.5t-0.5 -7.5q0 -11 1 -28t4 -34.5
t7.5 -34t10.5 -27.5q-2 6 -4 11.5t-2 12.5q0 4 1 9.5t6 5.5q4 0 4 -6q0 -2 -0.5 -4.5t-0.5 -4.5q0 -11 5 -21t6 -21q-2 -6 -6 -6q-8 0 -15 13t-11 20q-14 26 -18.5 55t-4.5 59q0 32 3.5 65.5t7.5 63.5q7 53 16.5 110t20.5 126q2 10 3.5 26.5t4 35.5t5.5 38.5t7 36.5
q-11 -10 -25.5 -19.5t-30 -17.5t-31 -13t-28.5 -5q-8 0 -15.5 2t-12.5 7zM-11 646q0 6 6 6q3 0 4 -4q0 -26 15 -39.5t35 -13.5q15 0 30 11t20 32q-2 4 -2 5q0 2 4 4q8 0 8 -6q0 -7 0.5 -15t-4.5 -14q-10 -14 -28 -25t-36 -11q-14 0 -23.5 6.5t-15.5 16.5t-9 22.5t-4 24.5z
" />
    <glyph glyph-name="ibreve" unicode="&#x12d;" horiz-adv-x="63" 
d="M21 98q-2 2 -2 4q0 5 6 5q5 0 8.5 -5t5.5 -11.5t3 -14t1 -13.5q0 -14 -2 -29.5t-5 -29.5t-6 -23t-6 -9q-5 0 -5.5 9t-0.5 16q0 19 2 37.5t4 37.5v-5q1 4 1 15q0 5 -1 9.5t-3 6.5zM-25 210q0 6 6 6q3 0 4 -4q0 -26 15 -39.5t35 -13.5q15 0 30 11t20 32q-2 4 -2 5q0 2 4 4
q8 0 8 -6q0 -7 0.5 -15t-4.5 -14q-10 -14 -28 -25t-36 -11q-14 0 -23.5 6.5t-15.5 16.5t-9 22.5t-4 24.5z" />
    <glyph glyph-name="Iogonek" unicode="&#x12e;" horiz-adv-x="109" 
d="M-53 480q0 1 -0.5 1.5t-0.5 1.5q0 6 6 6q5 0 10.5 -3.5t12.5 -3.5q17 0 36.5 8.5t37.5 20.5t32.5 25.5t21.5 23.5q2 2 6 2q7 0 7 -7v-5q-6 -9 -10 -31t-7 -47t-5.5 -48.5t-4.5 -36.5q-13 -88 -28.5 -174.5t-20.5 -175.5q0 -2 -0.5 -4.5t-0.5 -7.5q0 -11 1 -28t4 -34.5
t7.5 -34t10.5 -27.5q-2 6 -4 11.5t-2 12.5q0 4 1 9.5t6 5.5q4 0 4 -6q0 -2 -0.5 -4.5t-0.5 -4.5q0 -11 5 -21t6 -21q-2 -6 -6 -6q-8 0 -15 13t-11 20q-14 26 -18.5 55t-4.5 59q0 32 3.5 65.5t7.5 63.5q7 53 16.5 110t20.5 126q2 10 3.5 26.5t4 35.5t5.5 38.5t7 36.5
q-11 -10 -25.5 -19.5t-30 -17.5t-31 -13t-28.5 -5q-8 0 -15.5 2t-12.5 7zM48 -89q2 4 5 4t5 -4q-1 -11 -5.5 -23.5t-4.5 -24.5q0 -16 14.5 -21t36.5 -5q10 0 18.5 1.5t13.5 1.5q6 0 6 -5q0 -3 -6 -5.5t-14.5 -4.5t-18 -3t-17.5 -1q-18 0 -35 8t-17 28q0 14 7.5 27t11.5 27z
" />
    <glyph glyph-name="iogonek" unicode="&#x12f;" horiz-adv-x="63" 
d="M21 98q-2 2 -2 4q0 5 6 5q5 0 8.5 -5t5.5 -11.5t3 -14t1 -13.5q0 -14 -2 -29.5t-5 -29.5t-6 -23t-6 -9q-5 0 -5.5 9t-0.5 16q0 19 2 37.5t4 37.5v-5q1 4 1 15q0 5 -1 9.5t-3 6.5zM35 139q-3 -3 -4 -3q-6 0 -6 6v2q-7 3 -7 8q0 4 3 8t8 4q2 0 7 -3.5t5 -6.5q0 -2 -5 -7
q1 0 1 -2t-1 -4zM19 -21q2 4 5 4t5 -4q-1 -11 -5.5 -23.5t-4.5 -24.5q0 -16 14.5 -21t36.5 -5q10 0 18.5 1.5t13.5 1.5q6 0 6 -5q0 -3 -6 -5.5t-14.5 -4.5t-18 -3t-17.5 -1q-18 0 -35 8t-17 28q0 14 7.5 27t11.5 27z" />
    <glyph glyph-name="Idotaccent" unicode="&#x130;" horiz-adv-x="109" 
d="M-53 480q0 1 -0.5 1.5t-0.5 1.5q0 6 6 6q5 0 10.5 -3.5t12.5 -3.5q17 0 36.5 8.5t37.5 20.5t32.5 25.5t21.5 23.5q2 2 6 2q7 0 7 -7v-5q-6 -9 -10 -31t-7 -47t-5.5 -48.5t-4.5 -36.5q-13 -88 -28.5 -174.5t-20.5 -175.5q0 -2 -0.5 -4.5t-0.5 -7.5q0 -11 1 -28t4 -34.5
t7.5 -34t10.5 -27.5q-2 6 -4 11.5t-2 12.5q0 4 1 9.5t6 5.5q4 0 4 -6q0 -2 -0.5 -4.5t-0.5 -4.5q0 -11 5 -21t6 -21q-2 -6 -6 -6q-8 0 -15 13t-11 20q-14 26 -18.5 55t-4.5 59q0 32 3.5 65.5t7.5 63.5q7 53 16.5 110t20.5 126q2 10 3.5 26.5t4 35.5t5.5 38.5t7 36.5
q-11 -10 -25.5 -19.5t-30 -17.5t-31 -13t-28.5 -5q-8 0 -15.5 2t-12.5 7zM61 607q6 0 6 -11q0 -10 -12 -10q-6 0 -9.5 3.5t-3.5 8.5q0 10 11 10q5 0 8 -1zM53 598q1 0 3 3q-1 -2 -2.5 -2t-1.5 -1h1zM57 595q-2 0 -5 -3z" />
    <glyph glyph-name="dotlessi" unicode="&#x131;" horiz-adv-x="63" 
d="M21 98q-2 2 -2 4q0 5 6 5q5 0 8.5 -5t5.5 -11.5t3 -14t1 -13.5q0 -14 -2 -29.5t-5 -29.5t-6 -23t-6 -9q-5 0 -5.5 9t-0.5 16q0 19 2 37.5t4 37.5v-5q1 4 1 15q0 5 -1 9.5t-3 6.5z" />
    <glyph glyph-name="Jcircumflex" unicode="&#x134;" horiz-adv-x="611" 
d="M295 550q-4 1 -4 5q0 5 5 5h1q16 -3 36.5 -17.5t41 -36t41 -46.5t37.5 -48t29.5 -41.5t18.5 -26.5q19 -27 37.5 -61.5t32.5 -73t23 -79t9 -79.5q0 -50 -16 -92q-17 -45 -43.5 -77.5t-58.5 -54t-69.5 -31.5t-77.5 -10q-63 0 -126.5 23.5t-117.5 66.5q-16 14 -29.5 29
t-27.5 30q-14 14 -23 38t-9 48q0 22 9.5 38.5t24.5 28t33 19.5t35 13q35 10 71.5 15.5t73.5 7.5t74 3t73 3q6 -2 6 -5q0 -5 -6 -5q-36 -2 -72 -3.5t-72.5 -4.5t-72.5 -8.5t-70 -16.5q-14 -4 -29.5 -10.5t-29.5 -16t-23 -23.5t-9 -33q0 -21 9 -41.5t20 -34.5q22 -32 54.5 -58
t70 -45.5t78 -30t79.5 -10.5q58 0 108 24q79 40 111 98.5t32 127.5q0 47 -13 96.5t-34 97t-48 91.5t-55 80q-7 9 -23 29t-36 42t-41.5 40t-37.5 21zM300 696q2 1 4 1q6 0 13 -9.5t13 -21.5t9.5 -23.5t3.5 -14.5q0 -4 -6 -4q-3 0 -4 3q-3 15 -11.5 25.5t-16.5 22.5
q-17 -14 -31.5 -33.5t-35.5 -31.5q-1 -1 -4 -1q-5 0 -7 3t-2 6q0 5 2 7l21 18q11 11 21.5 25t30.5 28z" />
    <glyph glyph-name="jcircumflex" unicode="&#x135;" horiz-adv-x="120" 
d="M45 134q5 0 5 -6q0 -3 -5 -3q8 -29 24.5 -53.5t27.5 -50.5q21 -45 30 -90.5t9 -96.5q0 -11 -0.5 -21.5t-3.5 -19.5q-6 -25 -15 -56t-31 -50q-31 -27 -60.5 -42t-60.5 -15q-44 0 -96 31q-22 15 -32 47t-10 68q1 38 10.5 73.5t26.5 52.5q25 24 34.5 34t17.5 15t21.5 9.5
t47.5 18.5h1q6 0 6 -4q0 -5 -4 -6q-21 -9 -36.5 -15t-28 -13t-24 -18t-25.5 -30q-16 -23 -23.5 -52t-7.5 -59q0 -27 7.5 -51.5t22 -43.5t36 -30t48.5 -11q33 0 65 15.5t53 39.5q26 31 35 71.5t9 77.5q0 48 -9 87.5t-24 77.5q-12 28 -29.5 55t-21.5 58q0 6 4 6h6v0zM40 225
q2 1 4 1q6 0 13 -9.5t13 -21.5t9.5 -23.5t3.5 -14.5q0 -4 -6 -4q-3 0 -4 3q-3 15 -11.5 25.5t-16.5 22.5q-17 -14 -31.5 -33.5t-35.5 -31.5q-1 -1 -4 -1q-5 0 -7 3t-2 6q0 5 2 7l21 18q11 11 21.5 25t30.5 28z" />
    <glyph glyph-name="Kcommaaccent" unicode="&#x136;" horiz-adv-x="518" 
d="M69 424q0 17 0.5 33.5t0.5 32.5q0 14 -2 26.5t-2 26.5q3 3 2.5 5t3.5 2q6 0 8.5 -26.5t3.5 -61t1.5 -67.5t0.5 -46l4 -104q7 0 13.5 0.5t12.5 0.5q29 0 57.5 -2.5t54.5 -8.5q42 29 79.5 62t66.5 71q7 8 17 24t19 36t15.5 41t6.5 40q0 28 -17 45q-6 0 -6 5v2v1q4 4 6 4
q1 0 1.5 -0.5t1.5 -0.5q22 -34 22 -70q0 -40 -21 -79.5t-51 -75t-63 -64t-57 -46.5q33 -9 69 -22.5t69 -32t59.5 -41.5t40.5 -51q31 -64 31 -125q0 -39 -13 -76.5t-40 -70.5q-3 0 -5 1l-5 4l-1 2v1q0 5 6 5h2l3 -2q19 26 30.5 62t11.5 75q0 57 -24.5 101t-64 75.5t-89.5 51
t-101 29.5l-31 -20q-24 -16 -48.5 -31.5t-51.5 -27.5q5 -61 9 -121.5t11 -121.5v-1q0 -5 -6 -5q-3 0 -6.5 15.5t-6.5 39t-6 52t-5.5 55.5t-4.5 48.5t-3 31.5l-78 -32t-83 -16q-27 0 -46.5 11.5t-19.5 42.5q0 6 0.5 11t1.5 11q3 19 19.5 33t40 23.5t50.5 15.5t50 9t39.5 4
t18.5 1q0 5 -0.5 26.5t-0.5 48.5t-0.5 56t-0.5 49zM77 149q-2 19 -3 37.5t-2 38.5q-7 -1 -24 -2.5t-39.5 -4t-46.5 -8t-44.5 -14.5t-33.5 -22.5t-13 -32.5t11.5 -30.5t31.5 -11.5q19 0 41.5 5t44.5 12.5t42 16.5t35 16zM92 226q0 -17 1.5 -34t2.5 -35q27 14 54 29.5t55 32.5
q-24 4 -47 5.5t-45 1.5h-21zM278 -111q-4 1 -4 5q0 5 4 5q16 0 22.5 -5.5t6.5 -13.5q0 -7 -4.5 -18.5t-10 -22t-10.5 -18t-6 -7.5q-5 0 -5 6q1 14 9 29t8 26q0 10 -10 14z" />
    <glyph glyph-name="kcommaaccent" unicode="&#x137;" horiz-adv-x="248" 
d="M-46 154q6 0 6 -5l-2 -4l-1 -1q17 2 35 4.5t37 8.5q4 37 11.5 83t18.5 91t27.5 83.5t38.5 59.5q1 2 5 2h4q16 -6 30.5 -24.5t26 -41.5t18.5 -46t7 -38q0 -21 -6.5 -42.5t-20.5 -38.5q-30 -35 -64.5 -56t-76.5 -40l-5 -2q-1 -11 -1.5 -21t-0.5 -20q0 -14 1 -27t3 -26
q2 -11 6.5 -21t7.5 -21q4 6 5 13t3 13q8 16 22 29t28.5 22.5t28 15t20.5 5.5q12 0 12 -11q0 -14 -23 -40h3q13 0 28 -8.5t29 -19l26 -19.5t20 -10q6 0 6 -5q0 -4 -6 -4q-15 3 -28 11.5t-26.5 17.5t-29 16t-34.5 7q-9 0 -9 5q0 4 4.5 10t10 12t10.5 12.5t7 12.5h-4
q-8 0 -17.5 -6.5t-14.5 -9.5q-14 -10 -25.5 -21.5t-20.5 -25.5q-3 -3 -5 -10.5t-4.5 -15t-6 -13t-8.5 -5.5q-10 0 -17 12t-11 29t-5.5 36t-1.5 33v17l2 27q-14 -4 -33 -6.5t-33 -2.5q-21 0 -21 7q0 5 2 6zM85 343q-13 -42 -24 -88t-16 -94q27 9 54 24.5t48.5 35.5t35 44.5
t13.5 52.5q0 23 -8 45.5t-20 45.5q-3 5 -6 12.5t-7 15t-9.5 13t-11.5 7.5q-10 -10 -17.5 -24t-13 -30t-10 -31.5t-8.5 -28.5zM122 -15q-4 1 -4 5q0 5 4 5q16 0 22.5 -5.5t6.5 -13.5q0 -7 -4.5 -18.5t-10 -22t-10.5 -18t-6 -7.5q-5 0 -5 6q1 14 9 29t8 26q0 10 -10 14z" />
    <glyph glyph-name="kgreenlandic" unicode="&#x138;" horiz-adv-x="248" 
d="M58 15l1 -4q4 6 5 13t3 13q8 16 22 29t28.5 22.5t28 15t20.5 5.5q12 0 12 -11q0 -14 -23 -40h3q13 0 28 -8.5t29 -19l26 -19.5t20 -10q6 0 6 -5q0 -4 -6 -4q-15 3 -28 11.5t-26.5 17.5t-29 16t-34.5 7q-9 0 -9 5q0 4 4.5 10t10 12t10.5 12.5t7 12.5h-4q-8 0 -17.5 -6.5
t-14.5 -9.5q-27 -20 -46 -47q-3 -3 -5 -10.5l-4 -15t-5.5 -13t-9.5 -5.5q-4 0 -6 2zM55 -1q-2 9 -2 18v16v22l3 25q-16 -3 -34.5 -6t-32.5 -3q-22 0 -22 8q0 3 3 6l12 7h1q5 0 5 -5q0 -2 -2 -4l-1 -1q16 1 34.5 4t37.5 9q8 74 27.5 135.5t66.5 103.5q13 12 27 12
q21 0 34.5 -25t13.5 -58q0 -21 -7 -42t-22 -38q-17 -20 -48 -48.5t-73 -48.5l-5 -1q-1 -11 -1.5 -21.5t-0.5 -20.5q0 -8 0.5 -15t0.5 -15zM96 226q-6 -21 -9.5 -35t-6 -26.5t-4 -27.5t-3.5 -38q28 11 53 30.5t44 42t30 47t11 46.5q0 25 -10.5 42t-24.5 17q-7 0 -17 -7
q-4 -1 -13 -10.5t-18.5 -23t-18.5 -29t-13 -28.5z" />
    <glyph glyph-name="Lacute" unicode="&#x139;" horiz-adv-x="570" 
d="M309 561q-4 0 -4 5q0 3 4 5q26 0 51.5 1t49.5 9q23 7 42.5 19.5t42.5 15.5q5 0 5 -4v-3q-3 -8 -6 -12.5t-5 -9.5t-3.5 -13t-1.5 -22q0 -44 13.5 -89t22.5 -84q8 -38 14 -76t6 -76q0 -42 -8.5 -83t-31.5 -81q32 -30 64.5 -61t70.5 -54q55 -34 113.5 -48.5t119.5 -14.5
q40 0 80 5.5t79 14.5h2q6 0 6 -5t-5 -5q-90 -21 -166 -21q-59 0 -115.5 14.5t-119.5 46.5q-42 23 -74.5 52.5t-64.5 59.5q-25 -39 -58 -70.5t-71.5 -54.5t-79.5 -35.5t-81 -12.5q-33 0 -68 8t-63 23.5t-46 37.5t-18 49q0 25 16 50t36 50q12 15 37 30t55 26.5t62 18.5t58 7
q20 0 32 -4q24 -7 39 -10.5t27 -7t23.5 -9t28.5 -15.5q17 -11 33.5 -24.5t32.5 -27.5q20 39 29 79.5t9 82.5q0 34 -4.5 68.5t-12.5 69.5q-10 39 -23 84t-13 90q0 14 2 26t11 26q-18 -5 -31 -14.5t-37 -17.5q-26 -8 -52.5 -8.5t-53.5 -0.5zM466 44q3 4 5.5 8.5t4.5 8.5
q-20 18 -41.5 35t-46.5 29.5t-54.5 20.5t-65.5 8q-53 0 -105 -19.5t-91 -54.5q-17 -14 -32.5 -36t-15.5 -48q0 -7 1 -11q31 -51 74 -72t92 -21q39 0 78.5 12t76 32.5t67.5 48t53 59.5zM466 733q-2 -8 -17.5 -21t-33.5 -25.5t-33 -21.5t-18 -9q-4 0 -4 4q0 2 1 3
q8 12 20.5 21.5t26 18.5t26.5 18t24 19q2 1 4 1q5 0 5 -5q0 -1 -0.5 -1t-0.5 -1v-1z" />
    <glyph glyph-name="lacute" unicode="&#x13a;" horiz-adv-x="115" 
d="M4 48q-5 0 -5 5q0 6 10.5 8.5t15.5 6.5l6 6q-9 45 -13 92.5t-4 85.5v15t1 14q0 8 1 33t3 53.5t6 54t11 35.5q7 9 16.5 22.5t15.5 13.5q7 0 18.5 -11t18.5 -18q18 -24 27.5 -61t9.5 -67q0 -34 -8.5 -68.5t-22 -68t-31 -65.5t-35.5 -62q9 -50 30 -93q8 -15 19 -27t22 -26
v-2q0 -5 -4 -5q-3 0 -10 6.5t-14 15.5t-13.5 18.5t-9.5 14.5q-11 16 -18.5 38.5t-13.5 49.5l-2 -2q-5 -4 -12 -6t-15 -6zM33 279q-1 -11 -1 -23v-24q0 -35 2 -72.5t9 -73.5q14 27 28.5 58t26.5 64t19.5 66.5t7.5 65.5q0 37 -13 70t-42 60q-14 -20 -21.5 -43.5t-10.5 -48.5
t-4 -50.5t-1 -48.5zM122 566q-2 -8 -17.5 -21t-33.5 -25.5t-33 -21.5t-18 -9q-4 0 -4 4q0 2 1 3q8 12 20.5 21.5t26 18.5t26.5 18t24 19q2 1 4 1q5 0 5 -5q0 -1 -0.5 -1t-0.5 -1v-1z" />
    <glyph glyph-name="Lcommaaccent" unicode="&#x13b;" horiz-adv-x="570" 
d="M309 561q-4 0 -4 5q0 3 4 5q26 0 51.5 1t49.5 9q23 7 42.5 19.5t42.5 15.5q5 0 5 -4v-3q-3 -8 -6 -12.5t-5 -9.5t-3.5 -13t-1.5 -22q0 -44 13.5 -89t22.5 -84q8 -38 14 -76t6 -76q0 -42 -8.5 -83t-31.5 -81q32 -30 64.5 -61t70.5 -54q55 -34 113.5 -48.5t119.5 -14.5
q40 0 80 5.5t79 14.5h2q6 0 6 -5t-5 -5q-90 -21 -166 -21q-59 0 -115.5 14.5t-119.5 46.5q-42 23 -74.5 52.5t-64.5 59.5q-25 -39 -58 -70.5t-71.5 -54.5t-79.5 -35.5t-81 -12.5q-33 0 -68 8t-63 23.5t-46 37.5t-18 49q0 25 16 50t36 50q12 15 37 30t55 26.5t62 18.5t58 7
q20 0 32 -4q24 -7 39 -10.5t27 -7t23.5 -9t28.5 -15.5q17 -11 33.5 -24.5t32.5 -27.5q20 39 29 79.5t9 82.5q0 34 -4.5 68.5t-12.5 69.5q-10 39 -23 84t-13 90q0 14 2 26t11 26q-18 -5 -31 -14.5t-37 -17.5q-26 -8 -52.5 -8.5t-53.5 -0.5zM466 44q3 4 5.5 8.5t4.5 8.5
q-20 18 -41.5 35t-46.5 29.5t-54.5 20.5t-65.5 8q-53 0 -105 -19.5t-91 -54.5q-17 -14 -32.5 -36t-15.5 -48q0 -7 1 -11q31 -51 74 -72t92 -21q39 0 78.5 12t76 32.5t67.5 48t53 59.5zM446 -122q-4 1 -4 5q0 5 4 5q16 0 22.5 -5.5t6.5 -13.5q0 -7 -4.5 -18.5t-10 -22
t-10.5 -18t-6 -7.5q-5 0 -5 6q1 14 9 29t8 26q0 10 -10 14z" />
    <glyph glyph-name="lcommaaccent" unicode="&#x13c;" horiz-adv-x="115" 
d="M4 48q-5 0 -5 5q0 6 10.5 8.5t15.5 6.5l6 6q-9 45 -13 92.5t-4 85.5v15t1 14q0 8 1 33t3 53.5t6 54t11 35.5q7 9 16.5 22.5t15.5 13.5q7 0 18.5 -11t18.5 -18q18 -24 27.5 -61t9.5 -67q0 -34 -8.5 -68.5t-22 -68t-31 -65.5t-35.5 -62q9 -50 30 -93q8 -15 19 -27t22 -26
v-2q0 -5 -4 -5q-3 0 -10 6.5t-14 15.5t-13.5 18.5t-9.5 14.5q-11 16 -18.5 38.5t-13.5 49.5l-2 -2q-5 -4 -12 -6t-15 -6zM33 279q-1 -11 -1 -23v-24q0 -35 2 -72.5t9 -73.5q14 27 28.5 58t26.5 64t19.5 66.5t7.5 65.5q0 37 -13 70t-42 60q-14 -20 -21.5 -43.5t-10.5 -48.5
t-4 -50.5t-1 -48.5zM43 -66q-4 1 -4 5q0 5 4 5q16 0 22.5 -5.5t6.5 -13.5q0 -7 -4.5 -18.5t-10 -22t-10.5 -18t-6 -7.5q-5 0 -5 6q1 14 9 29t8 26q0 10 -10 14z" />
    <glyph glyph-name="Lcaron" unicode="&#x13d;" horiz-adv-x="570" 
d="M309 561q-4 0 -4 5q0 3 4 5q26 0 51.5 1t49.5 9q23 7 42.5 19.5t42.5 15.5q5 0 5 -4v-3q-3 -8 -6 -12.5t-5 -9.5t-3.5 -13t-1.5 -22q0 -44 13.5 -89t22.5 -84q8 -38 14 -76t6 -76q0 -42 -8.5 -83t-31.5 -81q32 -30 64.5 -61t70.5 -54q55 -34 113.5 -48.5t119.5 -14.5
q40 0 80 5.5t79 14.5h2q6 0 6 -5t-5 -5q-90 -21 -166 -21q-59 0 -115.5 14.5t-119.5 46.5q-42 23 -74.5 52.5t-64.5 59.5q-25 -39 -58 -70.5t-71.5 -54.5t-79.5 -35.5t-81 -12.5q-33 0 -68 8t-63 23.5t-46 37.5t-18 49q0 25 16 50t36 50q12 15 37 30t55 26.5t62 18.5t58 7
q20 0 32 -4q24 -7 39 -10.5t27 -7t23.5 -9t28.5 -15.5q17 -11 33.5 -24.5t32.5 -27.5q20 39 29 79.5t9 82.5q0 34 -4.5 68.5t-12.5 69.5q-10 39 -23 84t-13 90q0 14 2 26t11 26q-18 -5 -31 -14.5t-37 -17.5q-26 -8 -52.5 -8.5t-53.5 -0.5zM466 44q3 4 5.5 8.5t4.5 8.5
q-20 18 -41.5 35t-46.5 29.5t-54.5 20.5t-65.5 8q-53 0 -105 -19.5t-91 -54.5q-17 -14 -32.5 -36t-15.5 -48q0 -7 1 -11q31 -51 74 -72t92 -21q39 0 78.5 12t76 32.5t67.5 48t53 59.5zM362 714q0 5 4 5q2 0 6 -2q1 -8 5.5 -17t10.5 -16.5t13 -12.5t14 -5q11 0 25.5 9.5
t28 21t24.5 21t15 9.5q5 0 5 -5q0 -1 -0.5 -1.5t-0.5 -2.5q-9 -8 -20 -20.5t-22.5 -23.5t-23.5 -19t-23 -8q-26 0 -43 20.5t-18 46.5z" />
    <glyph glyph-name="lcaron" unicode="&#x13e;" horiz-adv-x="115" 
d="M4 48q-5 0 -5 5q0 6 10.5 8.5t15.5 6.5l6 6q-9 45 -13 92.5t-4 85.5v15t1 14q0 8 1 33t3 53.5t6 54t11 35.5q7 9 16.5 22.5t15.5 13.5q7 0 18.5 -11t18.5 -18q18 -24 27.5 -61t9.5 -67q0 -34 -8.5 -68.5t-22 -68t-31 -65.5t-35.5 -62q9 -50 30 -93q8 -15 19 -27t22 -26
v-2q0 -5 -4 -5q-3 0 -10 6.5t-14 15.5t-13.5 18.5t-9.5 14.5q-11 16 -18.5 38.5t-13.5 49.5l-2 -2q-5 -4 -12 -6t-15 -6zM33 279q-1 -11 -1 -23v-24q0 -35 2 -72.5t9 -73.5q14 27 28.5 58t26.5 64t19.5 66.5t7.5 65.5q0 37 -13 70t-42 60q-14 -20 -21.5 -43.5t-10.5 -48.5
t-4 -50.5t-1 -48.5zM10 581q0 5 4 5q2 0 6 -2q1 -8 5.5 -17t10.5 -16.5t13 -12.5t14 -5q11 0 25.5 9.5t28 21t24.5 21t15 9.5q5 0 5 -5q0 -1 -0.5 -1.5t-0.5 -2.5q-9 -8 -20 -20.5t-22.5 -23.5t-23.5 -19t-23 -8q-26 0 -43 20.5t-18 46.5z" />
    <glyph glyph-name="Ldot" unicode="&#x13f;" horiz-adv-x="570" 
d="M309 561q-4 0 -4 5q0 3 4 5q26 0 51.5 1t49.5 9q23 7 42.5 19.5t42.5 15.5q5 0 5 -4v-3q-3 -8 -6 -12.5t-5 -9.5t-3.5 -13t-1.5 -22q0 -44 13.5 -89t22.5 -84q8 -38 14 -76t6 -76q0 -42 -8.5 -83t-31.5 -81q32 -30 64.5 -61t70.5 -54q55 -34 113.5 -48.5t119.5 -14.5
q40 0 80 5.5t79 14.5h2q6 0 6 -5t-5 -5q-90 -21 -166 -21q-59 0 -115.5 14.5t-119.5 46.5q-42 23 -74.5 52.5t-64.5 59.5q-25 -39 -58 -70.5t-71.5 -54.5t-79.5 -35.5t-81 -12.5q-33 0 -68 8t-63 23.5t-46 37.5t-18 49q0 25 16 50t36 50q12 15 37 30t55 26.5t62 18.5t58 7
q20 0 32 -4q24 -7 39 -10.5t27 -7t23.5 -9t28.5 -15.5q17 -11 33.5 -24.5t32.5 -27.5q20 39 29 79.5t9 82.5q0 34 -4.5 68.5t-12.5 69.5q-10 39 -23 84t-13 90q0 14 2 26t11 26q-18 -5 -31 -14.5t-37 -17.5q-26 -8 -52.5 -8.5t-53.5 -0.5zM466 44q3 4 5.5 8.5t4.5 8.5
q-20 18 -41.5 35t-46.5 29.5t-54.5 20.5t-65.5 8q-53 0 -105 -19.5t-91 -54.5q-17 -14 -32.5 -36t-15.5 -48q0 -7 1 -11q31 -51 74 -72t92 -21q39 0 78.5 12t76 32.5t67.5 48t53 59.5zM600 216l2 1q4 0 4 -5q1 0 2.5 2.5t3.5 2.5q4 0 5.5 -5t1.5 -7q0 -8 -5 -11.5t-10 -3.5
q-7 0 -13 4t-6 9q0 8 14 13h1z" />
    <glyph glyph-name="ldot" unicode="&#x140;" horiz-adv-x="147" 
d="M4 48q-5 0 -5 5q0 6 10.5 8.5t15.5 6.5l6 6q-9 45 -13 92.5t-4 85.5v15t1 14q0 8 1 33t3 53.5t6 54t11 35.5q7 9 16.5 22.5t15.5 13.5q7 0 18.5 -11t18.5 -18q18 -24 27.5 -61t9.5 -67q0 -34 -8.5 -68.5t-22 -68t-31 -65.5t-35.5 -62q9 -50 30 -93q8 -15 19 -27t22 -26
v-2q0 -5 -4 -5q-3 0 -10 6.5t-14 15.5t-13.5 18.5t-9.5 14.5q-11 16 -18.5 38.5t-13.5 49.5l-2 -2q-5 -4 -12 -6t-15 -6zM33 279q-1 -11 -1 -23v-24q0 -35 2 -72.5t9 -73.5q14 27 28.5 58t26.5 64t19.5 66.5t7.5 65.5q0 37 -13 70t-42 60q-14 -20 -21.5 -43.5t-10.5 -48.5
t-4 -50.5t-1 -48.5zM118.622 171.857l1.42383 0.713867q2.84668 0 2.84668 -3.57129q0.711914 0 1.7793 1.78613q1.06738 1.78516 2.49121 1.78516q2.84668 0 3.91406 -3.57129q1.06836 -3.57129 1.06836 -5q0 -5.71387 -3.55859 -8.21387t-7.11816 -2.5
q-4.98145 0 -9.25195 2.85645q-4.27051 2.85742 -4.27051 6.42871q0 5.71484 9.96387 9.28613h0.711914z" />
    <glyph glyph-name="Lslash" unicode="&#x141;" horiz-adv-x="570" 
d="M434 209q-6 0 -6 6q0 1 3 4q10 3 32.5 24t48 47t50 50t38.5 33h2q7 0 7 -5q0 -3 -3 -4q-4 -4 -15.5 -16.5t-27 -29.5t-33.5 -36t-36 -35t-33.5 -26.5t-26.5 -11.5zM309 561q-4 0 -4 5q0 3 4 5q26 0 51.5 1t49.5 9q23 7 42.5 19.5t42.5 15.5q5 0 5 -4v-3q-3 -8 -6 -12.5
t-5 -9.5t-3.5 -13t-1.5 -22q0 -44 13.5 -89t22.5 -84q8 -38 14 -76t6 -76q0 -42 -8.5 -83t-31.5 -81q32 -30 64.5 -61t70.5 -54q55 -34 113.5 -48.5t119.5 -14.5q40 0 80 5.5t79 14.5h2q6 0 6 -5t-5 -5q-90 -21 -166 -21q-59 0 -115.5 14.5t-119.5 46.5q-42 23 -74.5 52.5
t-64.5 59.5q-25 -39 -58 -70.5t-71.5 -54.5t-79.5 -35.5t-81 -12.5q-33 0 -68 8t-63 23.5t-46 37.5t-18 49q0 25 16 50t36 50q12 15 37 30t55 26.5t62 18.5t58 7q20 0 32 -4q24 -7 39 -10.5t27 -7t23.5 -9t28.5 -15.5q17 -11 33.5 -24.5t32.5 -27.5q20 39 29 79.5t9 82.5
q0 34 -4.5 68.5t-12.5 69.5q-10 39 -23 84t-13 90q0 14 2 26t11 26q-18 -5 -31 -14.5t-37 -17.5q-26 -8 -52.5 -8.5t-53.5 -0.5zM466 44q3 4 5.5 8.5t4.5 8.5q-20 18 -41.5 35t-46.5 29.5t-54.5 20.5t-65.5 8q-53 0 -105 -19.5t-91 -54.5q-17 -14 -32.5 -36t-15.5 -48
q0 -7 1 -11q31 -51 74 -72t92 -21q39 0 78.5 12t76 32.5t67.5 48t53 59.5z" />
    <glyph glyph-name="lslash" unicode="&#x142;" horiz-adv-x="115" 
d="M80 213q-3 -8 -18 -20.5t-33 -25.5t-33.5 -22t-17.5 -9q-4 0 -4 4q0 1 0.5 1.5t0.5 2.5q16 22 45.5 39t51.5 37q1 1 4 1q4 0 4 -5v-3zM4 48q-5 0 -5 5q0 6 10.5 8.5t15.5 6.5l6 6q-9 45 -13 92.5t-4 85.5v15t1 14q0 8 1 33t3 53.5t6 54t11 35.5q7 9 16.5 22.5t15.5 13.5
q7 0 18.5 -11t18.5 -18q18 -24 27.5 -61t9.5 -67q0 -34 -8.5 -68.5t-22 -68t-31 -65.5t-35.5 -62q9 -50 30 -93q8 -15 19 -27t22 -26v-2q0 -5 -4 -5q-3 0 -10 6.5t-14 15.5t-13.5 18.5t-9.5 14.5q-11 16 -18.5 38.5t-13.5 49.5l-2 -2q-5 -4 -12 -6t-15 -6zM33 279
q-1 -11 -1 -23v-24q0 -35 2 -72.5t9 -73.5q14 27 28.5 58t26.5 64t19.5 66.5t7.5 65.5q0 37 -13 70t-42 60q-14 -20 -21.5 -43.5t-10.5 -48.5t-4 -50.5t-1 -48.5z" />
    <glyph glyph-name="Nacute" unicode="&#x143;" horiz-adv-x="476" 
d="M-92 -92q-5 2 -5 6t10 4h9q10 0 21.5 7.5t22 18.5t19.5 22.5t15 19.5q16 23 35.5 61.5t39 84t38 92t32.5 85t22.5 63.5t9.5 28q0 10 -0.5 20t-0.5 20q0 12 -0.5 29t1 33.5t6 28t14.5 11.5q4 0 6.5 -3t2.5 -18q0 -26 -1.5 -43t-3.5 -29.5t-4 -22t-4 -19.5q1 -50 5.5 -98
t11.5 -96q3 -20 7 -44t10 -48.5t14 -48.5t18 -42q7 -11 17.5 -19.5t20.5 -18.5q11 2 23 3t23 7q23 12 44 39t32 49q14 29 20.5 58.5t6.5 61.5q0 71 -26.5 140t-60.5 129q-1 3 -8 16.5t-16 29.5t-17 30t-11 17q0 1 -0.5 1.5t-0.5 1.5q0 5 5 5q7 0 11.5 -12t7.5 -18
q23 -40 46.5 -79t42 -81t30.5 -89.5t12 -103.5q0 -32 -7 -62.5t-23 -55.5q-10 -17 -21.5 -35.5t-26.5 -34.5t-33.5 -26.5t-42.5 -10.5q-20 0 -37 11.5t-27 37.5q-8 20 -17.5 41t-13.5 43q-8 38 -13 61.5t-8.5 44t-6 44.5t-4.5 64l-2 35q-7 -21 -19 -52.5t-27 -68t-31.5 -75
t-33 -73t-31.5 -63t-26 -43.5q-4 -5 -12.5 -15.5t-19 -21.5t-21.5 -20t-20 -12q-7 -2 -14.5 -1.5t-14.5 -0.5zM329 663q-2 -8 -17.5 -21t-33.5 -25.5t-33 -21.5t-18 -9q-4 0 -4 4q0 2 1 3q8 12 20.5 21.5t26 18.5t26.5 18t24 19q2 1 4 1q5 0 5 -5q0 -1 -0.5 -1t-0.5 -1v-1z
" />
    <glyph glyph-name="nacute" unicode="&#x144;" horiz-adv-x="194" 
d="M13 107q-2 2 -2 3q0 6 5 6q9 0 15 -12.5t10 -28t6 -30.5t4 -21q9 7 15.5 18t13.5 21.5t14.5 18.5t19.5 8q25 0 35 -17.5t17 -35.5q2 -7 7 -18t5 -10q0 -4 -4 -4h-4q-8 7 -12.5 18t-9 21.5t-11.5 18t-20 7.5q-9 0 -16.5 -7.5t-14.5 -18.5t-15 -23t-18 -20h-5
q-12 0 -15.5 14t-5 32t-3.5 35.5t-11 24.5zM155 193q-2 -8 -17.5 -21t-33.5 -25.5t-33 -21.5t-18 -9q-4 0 -4 4q0 2 1 3q8 12 20.5 21.5t26 18.5t26.5 18t24 19q2 1 4 1q5 0 5 -5q0 -1 -0.5 -1t-0.5 -1v-1z" />
    <glyph glyph-name="Ncommaaccent" unicode="&#x145;" horiz-adv-x="476" 
d="M-92 -92q-5 2 -5 6t10 4h9q10 0 21.5 7.5t22 18.5t19.5 22.5t15 19.5q16 23 35.5 61.5t39 84t38 92t32.5 85t22.5 63.5t9.5 28q0 10 -0.5 20t-0.5 20q0 12 -0.5 29t1 33.5t6 28t14.5 11.5q4 0 6.5 -3t2.5 -18q0 -26 -1.5 -43t-3.5 -29.5t-4 -22t-4 -19.5q1 -50 5.5 -98
t11.5 -96q3 -20 7 -44t10 -48.5t14 -48.5t18 -42q7 -11 17.5 -19.5t20.5 -18.5q11 2 23 3t23 7q23 12 44 39t32 49q14 29 20.5 58.5t6.5 61.5q0 71 -26.5 140t-60.5 129q-1 3 -8 16.5t-16 29.5t-17 30t-11 17q0 1 -0.5 1.5t-0.5 1.5q0 5 5 5q7 0 11.5 -12t7.5 -18
q23 -40 46.5 -79t42 -81t30.5 -89.5t12 -103.5q0 -32 -7 -62.5t-23 -55.5q-10 -17 -21.5 -35.5t-26.5 -34.5t-33.5 -26.5t-42.5 -10.5q-20 0 -37 11.5t-27 37.5q-8 20 -17.5 41t-13.5 43q-8 38 -13 61.5t-8.5 44t-6 44.5t-4.5 64l-2 35q-7 -21 -19 -52.5t-27 -68t-31.5 -75
t-33 -73t-31.5 -63t-26 -43.5q-4 -5 -12.5 -15.5t-19 -21.5t-21.5 -20t-20 -12q-7 -2 -14.5 -1.5t-14.5 -0.5zM312 -67q-4 1 -4 5q0 5 4 5q16 0 22.5 -5.5t6.5 -13.5q0 -7 -4.5 -18.5t-10 -22t-10.5 -18t-6 -7.5q-5 0 -5 6q1 14 9 29t8 26q0 10 -10 14z" />
    <glyph glyph-name="ncommaaccent" unicode="&#x146;" horiz-adv-x="194" 
d="M13 107q-2 2 -2 3q0 6 5 6q9 0 15 -12.5t10 -28t6 -30.5t4 -21q9 7 15.5 18t13.5 21.5t14.5 18.5t19.5 8q25 0 35 -17.5t17 -35.5q2 -7 7 -18t5 -10q0 -4 -4 -4h-4q-8 7 -12.5 18t-9 21.5t-11.5 18t-20 7.5q-9 0 -16.5 -7.5t-14.5 -18.5t-15 -23t-18 -20h-5
q-12 0 -15.5 14t-5 32t-3.5 35.5t-11 24.5zM102 -14q-4 1 -4 5q0 5 4 5q16 0 22.5 -5.5t6.5 -13.5q0 -7 -4.5 -18.5t-10 -22t-10.5 -18t-6 -7.5q-5 0 -5 6q1 14 9 29t8 26q0 10 -10 14z" />
    <glyph glyph-name="Ncaron" unicode="&#x147;" horiz-adv-x="476" 
d="M-92 -92q-5 2 -5 6t10 4h9q10 0 21.5 7.5t22 18.5t19.5 22.5t15 19.5q16 23 35.5 61.5t39 84t38 92t32.5 85t22.5 63.5t9.5 28q0 10 -0.5 20t-0.5 20q0 12 -0.5 29t1 33.5t6 28t14.5 11.5q4 0 6.5 -3t2.5 -18q0 -26 -1.5 -43t-3.5 -29.5t-4 -22t-4 -19.5q1 -50 5.5 -98
t11.5 -96q3 -20 7 -44t10 -48.5t14 -48.5t18 -42q7 -11 17.5 -19.5t20.5 -18.5q11 2 23 3t23 7q23 12 44 39t32 49q14 29 20.5 58.5t6.5 61.5q0 71 -26.5 140t-60.5 129q-1 3 -8 16.5t-16 29.5t-17 30t-11 17q0 1 -0.5 1.5t-0.5 1.5q0 5 5 5q7 0 11.5 -12t7.5 -18
q23 -40 46.5 -79t42 -81t30.5 -89.5t12 -103.5q0 -32 -7 -62.5t-23 -55.5q-10 -17 -21.5 -35.5t-26.5 -34.5t-33.5 -26.5t-42.5 -10.5q-20 0 -37 11.5t-27 37.5q-8 20 -17.5 41t-13.5 43q-8 38 -13 61.5t-8.5 44t-6 44.5t-4.5 64l-2 35q-7 -21 -19 -52.5t-27 -68t-31.5 -75
t-33 -73t-31.5 -63t-26 -43.5q-4 -5 -12.5 -15.5t-19 -21.5t-21.5 -20t-20 -12q-7 -2 -14.5 -1.5t-14.5 -0.5zM180 651q0 5 4 5q2 0 6 -2q1 -8 5.5 -17t10.5 -16.5t13 -12.5t14 -5q11 0 25.5 9.5t28 21t24.5 21t15 9.5q5 0 5 -5q0 -1 -0.5 -1.5t-0.5 -2.5q-9 -8 -20 -20.5
t-22.5 -23.5t-23.5 -19t-23 -8q-26 0 -43 20.5t-18 46.5z" />
    <glyph glyph-name="ncaron" unicode="&#x148;" horiz-adv-x="194" 
d="M13 107q-2 2 -2 3q0 6 5 6q9 0 15 -12.5t10 -28t6 -30.5t4 -21q9 7 15.5 18t13.5 21.5t14.5 18.5t19.5 8q25 0 35 -17.5t17 -35.5q2 -7 7 -18t5 -10q0 -4 -4 -4h-4q-8 7 -12.5 18t-9 21.5t-11.5 18t-20 7.5q-9 0 -16.5 -7.5t-14.5 -18.5t-15 -23t-18 -20h-5
q-12 0 -15.5 14t-5 32t-3.5 35.5t-11 24.5zM33 180q0 5 4 5q2 0 6 -2q1 -8 5.5 -17t10.5 -16.5t13 -12.5t14 -5q11 0 25.5 9.5t28 21t24.5 21t15 9.5q5 0 5 -5q0 -1 -0.5 -1.5t-0.5 -2.5q-9 -8 -20 -20.5t-22.5 -23.5t-23.5 -19t-23 -8q-26 0 -43 20.5t-18 46.5z" />
    <glyph glyph-name="napostrophe" unicode="&#x149;" horiz-adv-x="194" 
d="M13 107q-2 2 -2 3q0 6 5 6q9 0 15 -12.5t10 -28t6 -30.5t4 -21q9 7 15.5 18t13.5 21.5t14.5 18.5t19.5 8q25 0 35 -17.5t17 -35.5q2 -7 7 -18t5 -10q0 -4 -4 -4h-4q-8 7 -12.5 18t-9 21.5t-11.5 18t-20 7.5q-9 0 -16.5 -7.5t-14.5 -18.5t-15 -23t-18 -20h-5
q-12 0 -15.5 14t-5 32t-3.5 35.5t-11 24.5zM0 208q-4 1 -4 5q0 5 4 5q16 0 22.5 -5.5t6.5 -13.5q0 -7 -4.5 -18.5t-10 -22t-10.5 -18t-6 -7.5q-5 0 -5 6q1 14 9 29t8 26q0 10 -10 14z" />
    <glyph glyph-name="Eng" unicode="&#x14a;" horiz-adv-x="476" 
d="M460 193q-1 -37 -3 -73.5t-8 -74.5q-6 -31 -18 -67.5t-30 -71t-42.5 -63.5t-55.5 -44q-29 -14 -54.5 -26.5t-59.5 -12.5q-21 0 -36 7.5t-15 17.5q0 6 4 9q11 -3 22 -9.5t23 -6.5q26 0 57.5 11.5t52.5 24.5q45 28 74 70.5t45.5 91t23.5 101t9 100.5v15zM-92 -92q-5 2 -5 6
t10 4h9q10 0 21.5 7.5t22 18.5t19.5 22.5t15 19.5q16 23 35.5 61.5t39 84t38 92t32.5 85t22.5 63.5t9.5 28q0 10 -0.5 20t-0.5 20q0 12 -0.5 29t1 33.5t6 28t14.5 11.5q4 0 6.5 -3t2.5 -18q0 -26 -1.5 -43t-3.5 -29.5t-4 -22t-4 -19.5q1 -50 5.5 -98t11.5 -96q3 -20 7 -44
t10 -48.5t14 -48.5t18 -42q7 -11 17.5 -19.5t20.5 -18.5q11 2 23 3t23 7q23 12 44 39t32 49q14 29 20.5 58.5t6.5 61.5q0 71 -26.5 140t-60.5 129q-1 3 -8 16.5t-16 29.5t-17 30t-11 17q0 1 -0.5 1.5t-0.5 1.5q0 5 5 5q7 0 11.5 -12t7.5 -18q23 -40 46.5 -79t42 -81
t30.5 -89.5t12 -103.5q0 -32 -7 -62.5t-23 -55.5q-10 -17 -21.5 -35.5t-26.5 -34.5t-33.5 -26.5t-42.5 -10.5q-20 0 -37 11.5t-27 37.5q-8 20 -17.5 41t-13.5 43q-8 38 -13 61.5t-8.5 44t-6 44.5t-4.5 64l-2 35q-7 -21 -19 -52.5t-27 -68t-31.5 -75t-33 -73t-31.5 -63
t-26 -43.5q-4 -5 -12.5 -15.5t-19 -21.5t-21.5 -20t-20 -12q-7 -2 -14.5 -1.5t-14.5 -0.5z" />
    <glyph glyph-name="eng" unicode="&#x14b;" horiz-adv-x="194" 
d="M13 107q-2 2 -2 3q0 6 5 6q9 0 15 -12.5t10 -28t6 -30.5t4 -21q9 7 15.5 18t13.5 21.5t14.5 18.5t19.5 8q25 0 35 -18t18 -37q1 -3 3.5 -11t5.5 -18.5t5 -21t2 -16.5q0 -18 -19 -26t-39 -8q-13 0 -28.5 3t-15.5 10q0 5 5 5q7 0 15 -2t18 -2q21 0 36 5.5t15 21.5
q0 9 -4 24.5t-10.5 31.5t-16.5 27.5t-22 11.5q-9 0 -16.5 -7.5t-14.5 -18.5t-15 -23t-18 -20h-5q-12 0 -15.5 14t-5 32t-3.5 35.5t-11 24.5z" />
    <glyph glyph-name="Omacron" unicode="&#x14c;" horiz-adv-x="759" 
d="M539 477q37 -26 75.5 -56.5t70 -66t51 -75t19.5 -84.5q0 -24 -8 -47t-27 -46q-33 -38 -75 -64.5t-89 -43t-97.5 -23.5t-99.5 -7q-62 0 -124.5 12.5t-112 41t-80.5 73.5t-31 111q0 15 2 31t5 34q6 24 26.5 49.5t47.5 48.5t55 41.5t49 29.5q35 19 73.5 33t76.5 21
q22 5 53.5 12t63.5 9q-18 6 -18 14q0 3 4 3q8 0 33 -16q7 0 18.5 -1t21.5 -3t17.5 -5t7.5 -8v-2zM691 321q-15 18 -37.5 40.5t-50.5 46.5t-59.5 48t-63.5 44q-35 -3 -82 -12t-97.5 -26t-100 -41.5t-89 -57.5t-63.5 -74.5t-24 -91.5q0 -51 29.5 -91.5t76.5 -68.5t106 -42.5
t118 -14.5q71 0 138.5 16.5t122.5 45.5q21 11 42.5 26.5t39.5 35t29 43t11 50.5q0 32 -12.5 65t-33.5 59zM529 480l6 13q-7 4 -16.5 5.5t-20.5 2.5zM361 576q-3 1 -3 4q0 5 4 5h2q9 -3 19 -3q17 0 37.5 3.5t44.5 3.5h6q5 -2 5 -5q0 -2 -7 -5t-18 -6t-24.5 -5t-26.5 -2
q-10 0 -20.5 2t-18.5 8z" />
    <glyph glyph-name="omacron" unicode="&#x14d;" 
d="M160 97q1 -1 1 -2q0 -6 -4 -6q-3 0 -6 3q-8 11 -32 11q-14 0 -31 -4.5t-32 -11.5t-25 -15.5t-10 -17.5t5.5 -15t14 -9t18 -4.5t18.5 -1.5q24 0 48.5 7.5t40.5 18.5q0 6 -12 12t-27 11.5t-27 10.5t-12 8q0 4 5 4q4 0 16.5 -3t26.5 -7.5t26 -10t16 -9.5q2 -3 2.5 -10.5
t0.5 -9.5q-2 -8 -13.5 -15.5t-28 -13t-36 -8.5t-38.5 -3q-28 0 -46 12.5t-18 29.5q0 19 13 32t31.5 20.5t38.5 11t35 3.5q13 0 23 -3.5t18 -14.5zM33 160q-3 1 -3 4q0 5 4 5h2q9 -3 19 -3q17 0 37.5 3.5t44.5 3.5h6q5 -2 5 -5q0 -2 -7 -5t-18 -6t-24.5 -5t-26.5 -2
q-10 0 -20.5 2t-18.5 8z" />
    <glyph glyph-name="Obreve" unicode="&#x14e;" horiz-adv-x="759" 
d="M539 477q37 -26 75.5 -56.5t70 -66t51 -75t19.5 -84.5q0 -24 -8 -47t-27 -46q-33 -38 -75 -64.5t-89 -43t-97.5 -23.5t-99.5 -7q-62 0 -124.5 12.5t-112 41t-80.5 73.5t-31 111q0 15 2 31t5 34q6 24 26.5 49.5t47.5 48.5t55 41.5t49 29.5q35 19 73.5 33t76.5 21
q22 5 53.5 12t63.5 9q-18 6 -18 14q0 3 4 3q8 0 33 -16q7 0 18.5 -1t21.5 -3t17.5 -5t7.5 -8v-2zM691 321q-15 18 -37.5 40.5t-50.5 46.5t-59.5 48t-63.5 44q-35 -3 -82 -12t-97.5 -26t-100 -41.5t-89 -57.5t-63.5 -74.5t-24 -91.5q0 -51 29.5 -91.5t76.5 -68.5t106 -42.5
t118 -14.5q71 0 138.5 16.5t122.5 45.5q21 11 42.5 26.5t39.5 35t29 43t11 50.5q0 32 -12.5 65t-33.5 59zM529 480l6 13q-7 4 -16.5 5.5t-20.5 2.5zM352 631q0 6 6 6q3 0 4 -4q0 -26 15 -39.5t35 -13.5q15 0 30 11t20 32q-2 4 -2 5q0 2 4 4q8 0 8 -6q0 -7 0.5 -15t-4.5 -14
q-10 -14 -28 -25t-36 -11q-14 0 -23.5 6.5t-15.5 16.5t-9 22.5t-4 24.5z" />
    <glyph glyph-name="obreve" unicode="&#x14f;" 
d="M160 97q1 -1 1 -2q0 -6 -4 -6q-3 0 -6 3q-8 11 -32 11q-14 0 -31 -4.5t-32 -11.5t-25 -15.5t-10 -17.5t5.5 -15t14 -9t18 -4.5t18.5 -1.5q24 0 48.5 7.5t40.5 18.5q0 6 -12 12t-27 11.5t-27 10.5t-12 8q0 4 5 4q4 0 16.5 -3t26.5 -7.5t26 -10t16 -9.5q2 -3 2.5 -10.5
t0.5 -9.5q-2 -8 -13.5 -15.5t-28 -13t-36 -8.5t-38.5 -3q-28 0 -46 12.5t-18 29.5q0 19 13 32t31.5 20.5t38.5 11t35 3.5q13 0 23 -3.5t18 -14.5zM31 217q0 6 6 6q3 0 4 -4q0 -26 15 -39.5t35 -13.5q15 0 30 11t20 32q-2 4 -2 5q0 2 4 4q8 0 8 -6q0 -7 0.5 -15t-4.5 -14
q-10 -14 -28 -25t-36 -11q-14 0 -23.5 6.5t-15.5 16.5t-9 22.5t-4 24.5z" />
    <glyph glyph-name="Ohungarumlaut" unicode="&#x150;" horiz-adv-x="759" 
d="M539 477l8 16v2q0 5 -7.5 8t-17.5 5t-21.5 3t-18.5 1q-25 16 -33 16q-4 0 -4 -3q0 -8 18 -14q-32 -2 -63.5 -9t-53.5 -12q-38 -7 -76.5 -21t-73.5 -33q-21 -11 -49 -29.5t-55 -41.5t-47.5 -48.5t-26.5 -49.5q-3 -18 -5 -34t-2 -31q0 -66 31 -111t80.5 -73.5t112 -41
t124.5 -12.5q49 0 99.5 7t97.5 23.5t89 43t75 64.5q19 23 27 46t8 47q0 45 -19.5 84.5t-51 75t-70 66t-75.5 56.5zM691 321q21 -26 33.5 -59t12.5 -65q0 -27 -11 -50.5t-29 -43t-39.5 -35t-42.5 -26.5q-55 -29 -122.5 -45.5t-138.5 -16.5q-59 0 -118 14.5t-106 42.5
t-76.5 68.5t-29.5 91.5q0 50 24 91.5t63.5 74.5t89 57.5t100 41.5t97.5 26t82 12q32 -20 63.5 -44t59.5 -48t50.5 -46.5t37.5 -40.5zM498 501q11 -1 20.5 -2.5t16.5 -5.5l-6 -13zM444 628q-2 -7 -13 -17t-25.5 -20t-29 -19.5t-23.5 -15.5l-5 -3q-2 -1 -6 -1t-4 3q0 2 1 3
q8 12 20.5 21.5t26 18.5t26.5 18t24 19q2 1 4 1q5 0 5 -5q0 -1 -0.5 -1t-0.5 -1v-1zM507 627q-2 -7 -13.5 -16.5t-25.5 -20t-28.5 -19.5t-23.5 -15l-6 -4q-1 -1 -4 -1q-6 0 -6 4l2 2q17 23 46 40t51 37q1 2 4 2q5 0 5 -6q0 -1 -0.5 -1.5t-0.5 -1.5z" />
    <glyph glyph-name="ohungarumlaut" unicode="&#x151;" 
d="M160 97q1 -1 1 -2q0 -6 -4 -6q-3 0 -6 3q-8 11 -32 11q-14 0 -31 -4.5t-32 -11.5t-25 -15.5t-10 -17.5t5.5 -15t14 -9t18 -4.5t18.5 -1.5q24 0 48.5 7.5t40.5 18.5q0 6 -12 12t-27 11.5t-27 10.5t-12 8q0 4 5 4q4 0 16.5 -3t26.5 -7.5t26 -10t16 -9.5q2 -3 2.5 -10.5
t0.5 -9.5q-2 -8 -13.5 -15.5t-28 -13t-36 -8.5t-38.5 -3q-28 0 -46 12.5t-18 29.5q0 19 13 32t31.5 20.5t38.5 11t35 3.5q13 0 23 -3.5t18 -14.5zM139 209q-2 -7 -13 -17t-25.5 -20t-29 -19.5t-23.5 -15.5l-5 -3q-2 -1 -6 -1t-4 3q0 2 1 3q8 12 20.5 21.5t26 18.5t26.5 18
t24 19q2 1 4 1q5 0 5 -5q0 -1 -0.5 -1t-0.5 -1v-1zM202 208q-2 -7 -13.5 -16.5t-25.5 -20t-28.5 -19.5t-23.5 -15l-6 -4q-1 -1 -4 -1q-6 0 -6 4l2 2q17 23 46 40t51 37q1 2 4 2q5 0 5 -6q0 -1 -0.5 -1.5t-0.5 -1.5z" />
    <glyph glyph-name="OE" unicode="&#x152;" horiz-adv-x="992" 
d="M490 434q34 -24 69 -52t63.5 -60t46.5 -68t18 -77q0 -22 -7.5 -43t-24.5 -41q-30 -35 -68 -59t-81 -39t-88.5 -21.5t-90.5 -6.5q-57 0 -113.5 11.5t-101.5 37.5t-73.5 67t-28.5 101q0 14 2 28t4 31q5 22 24 45t43.5 44t50 38t44.5 27q32 17 67 30t70 19q20 4 48.5 10.5
t57.5 8.5q-38 23 -74.5 37.5t-62.5 14.5q-5 0 -11 -0.5t-14 -0.5q-4 2 -4 5q0 5 4.5 4.5t8.5 -0.5q51 0 91 -16.5t80 -42.5q7 0 17 -1t19.5 -2.5t16 -5t6.5 -7.5v-1zM629 292q-14 16 -34.5 37t-46 42.5t-54 43.5t-57.5 40q-31 -2 -74 -10.5t-89.5 -24t-91.5 -38t-80.5 -52.5
t-57.5 -67.5t-22 -83.5q0 -47 26.5 -83.5t69.5 -61.5t96.5 -38.5t107.5 -13.5q65 0 126 15t112 41q19 10 39 24t36 32t26 39.5t10 45.5q0 29 -11.5 59.5t-30.5 53.5zM481 437l6 12q-11 5 -34 7zM972 568q-24 -5 -63.5 -10.5t-84.5 -15t-90.5 -24t-82 -37t-59.5 -53.5
t-23 -73q0 -27 11.5 -43t29.5 -24.5t41 -11.5t47 -3q48 0 94 7t91 7q14 0 28.5 -3t17.5 -11q-28 -33 -62 -62.5t-64 -57t-50 -55t-20 -55.5q0 -23 28 -32t64 -9q20 0 40.5 2t37 6t28 9t14.5 10q4 0 4 -4q0 -9 -10.5 -16t-29 -12.5t-42.5 -8.5t-51 -3q-19 0 -37 2.5t-31.5 9
t-21.5 17.5t-8 27q0 27 19.5 55t48 56.5t60.5 56.5t57 54q-23 6 -50 6q-41 0 -84 -7t-85 -7q-21 0 -44 3.5t-42.5 13t-32 27t-12.5 46.5q0 16 3.5 33t9 32.5t13 28t15.5 19.5q40 37 85.5 57.5t93.5 31.5t97.5 17t99.5 15q2 -2 2 -4v-7v0z" />
    <glyph glyph-name="oe" unicode="&#x153;" horiz-adv-x="269" 
d="M144 112q3 -1 3 -5q0 -2 -1 -4t-4 -4q-16 10 -37 10q-16 0 -32 -5t-28.5 -13t-20.5 -17t-8 -18q0 -14 19 -22.5t40 -8.5q8 0 15 1t19 3q6 -2 6 -5q0 -5 -16 -9.5t-29 -4.5q-5 0 -12 0.5t-17 1.5q-13 2 -25 18.5t-12 35.5q0 15 10 25.5t24 17.5t29 10t25 3q27 0 52 -10z
M125 70q14 29 33 47.5t38 18.5q6 0 13 -3.5t7 -12.5q0 -20 -24.5 -35t-56.5 -26l-4 -10t-2 -10q0 -20 28 -20q15 0 31.5 4t23.5 7l40 14h1q5 0 5 -5q0 -4 -12.5 -10t-29 -11.5t-33 -9.5t-25.5 -4q-26 0 -36 7.5t-10 21.5q0 5 1 10t3 11zM177 109q-6 -5 -13.5 -12.5
t-15.5 -16.5l19 9q13 8 16.5 12.5t12.5 16.5h-1q-1 0 -1 0.5t-1 0.5q-6 0 -16 -10zM199 116h-1h1z" />
    <glyph glyph-name="Racute" unicode="&#x154;" horiz-adv-x="357" 
d="M-96 506q1 -2 2 -3t1 -3q0 -4 -5 -4l-19 2q-5 0 -5 4q0 7 6.5 12t15 8t17.5 4.5t14 3.5q65 19 137.5 30.5t147.5 11.5q55 0 108.5 -7.5t104.5 -23.5q18 -6 41 -15t43 -22.5t34 -31.5t14 -42q0 -16 -7 -31t-17.5 -28.5t-23 -25.5t-23.5 -21q-51 -43 -105 -82.5t-109 -78.5
q-17 -12 -41 -28t-46 -32t-37.5 -30.5t-15.5 -21.5q0 -6 6 -12t14 -11t15.5 -9t10.5 -5q9 -5 18 -8.5t17 -7.5l45 -17q38 -16 77.5 -29t76.5 -33l2 -4q0 -5 -6 -5h-1q-23 12 -54 23.5t-63 22.5t-63 22t-55 22.5t-39 23.5t-15 26q0 10 7 20t18 19.5t24 19t26 18.5l182 131v1
l-2 -2q-3 -3 -5 -4q-4 -3 -7 -5q16 13 46 35t58.5 47t50 51.5t21.5 48.5q0 26 -23 45.5t-54 33t-62.5 21.5t-49.5 11q-45 8 -88.5 13.5t-88.5 5.5q-71 0 -141 -13t-139 -41h9zM67 496q-5 -23 -5 -37q0 -15 2.5 -31.5t5.5 -39.5q5 -59 10.5 -118t5.5 -138q0 -78 -6 -153.5
t-17 -152.5q-2 -5 -6 -5t-4 5q8 71 10.5 141.5t2.5 140.5v68.5t-2 68.5q-1 26 -3.5 54t-4.5 55t-4 51.5t-2 44.5q0 4 0.5 13.5t2.5 19t4.5 16.5t7.5 7q4 0 4 -6h1zM238 680q-2 -8 -17.5 -21t-33.5 -25.5t-33 -21.5t-18 -9q-4 0 -4 4q0 2 1 3q8 12 20.5 21.5t26 18.5t26.5 18
t24 19q2 1 4 1q5 0 5 -5q0 -1 -0.5 -1t-0.5 -1v-1z" />
    <glyph glyph-name="racute" unicode="&#x155;" horiz-adv-x="123" 
d="M5 112q0 5 4 5t8.5 -6t8 -14t6 -16t3.5 -13q15 46 67 82l2 1h1q4 0 4 -4q0 -3 -2 -5q-32 -27 -44.5 -56t-12.5 -59q0 -9 1.5 -19t1.5 -20q0 -11 -10 -11q-2 0 -5 1.5t-4 5.5q-6 34 -10 68.5t-19 57.5v2zM108 232q-2 -8 -17.5 -21t-33.5 -25.5t-33 -21.5t-18 -9q-4 0 -4 4
q0 2 1 3q8 12 20.5 21.5t26 18.5t26.5 18t24 19q2 1 4 1q5 0 5 -5q0 -1 -0.5 -1t-0.5 -1v-1z" />
    <glyph glyph-name="Rcommaaccent" unicode="&#x156;" horiz-adv-x="357" 
d="M-96 506q1 -2 2 -3t1 -3q0 -4 -5 -4l-19 2q-5 0 -5 4q0 7 6.5 12t15 8t17.5 4.5t14 3.5q65 19 137.5 30.5t147.5 11.5q55 0 108.5 -7.5t104.5 -23.5q18 -6 41 -15t43 -22.5t34 -31.5t14 -42q0 -16 -7 -31t-17.5 -28.5t-23 -25.5t-23.5 -21q-51 -43 -105 -82.5t-109 -78.5
q-17 -12 -41 -28t-46 -32t-37.5 -30.5t-15.5 -21.5q0 -6 6 -12t14 -11t15.5 -9t10.5 -5q9 -5 18 -8.5t17 -7.5l45 -17q38 -16 77.5 -29t76.5 -33l2 -4q0 -5 -6 -5h-1q-23 12 -54 23.5t-63 22.5t-63 22t-55 22.5t-39 23.5t-15 26q0 10 7 20t18 19.5t24 19t26 18.5l182 131v1
l-2 -2q-3 -3 -5 -4q-4 -3 -7 -5q16 13 46 35t58.5 47t50 51.5t21.5 48.5q0 26 -23 45.5t-54 33t-62.5 21.5t-49.5 11q-45 8 -88.5 13.5t-88.5 5.5q-71 0 -141 -13t-139 -41h9zM67 496q-5 -23 -5 -37q0 -15 2.5 -31.5t5.5 -39.5q5 -59 10.5 -118t5.5 -138q0 -78 -6 -153.5
t-17 -152.5q-2 -5 -6 -5t-4 5q8 71 10.5 141.5t2.5 140.5v68.5t-2 68.5q-1 26 -3.5 54t-4.5 55t-4 51.5t-2 44.5q0 4 0.5 13.5t2.5 19t4.5 16.5t7.5 7q4 0 4 -6h1zM164 -87q-4 1 -4 5q0 5 4 5q16 0 22.5 -5.5t6.5 -13.5q0 -7 -4.5 -18.5t-10 -22t-10.5 -18t-6 -7.5
q-5 0 -5 6q1 14 9 29t8 26q0 10 -10 14z" />
    <glyph glyph-name="rcommaaccent" unicode="&#x157;" horiz-adv-x="123" 
d="M5 112q0 5 4 5t8.5 -6t8 -14t6 -16t3.5 -13q15 46 67 82l2 1h1q4 0 4 -4q0 -3 -2 -5q-32 -27 -44.5 -56t-12.5 -59q0 -9 1.5 -19t1.5 -20q0 -11 -10 -11q-2 0 -5 1.5t-4 5.5q-6 34 -10 68.5t-19 57.5v2zM36 -52q-4 1 -4 5q0 5 4 5q16 0 22.5 -5.5t6.5 -13.5
q0 -7 -4.5 -18.5t-10 -22t-10.5 -18t-6 -7.5q-5 0 -5 6q1 14 9 29t8 26q0 10 -10 14z" />
    <glyph glyph-name="Rcaron" unicode="&#x158;" horiz-adv-x="357" 
d="M-96 506q1 -2 2 -3t1 -3q0 -4 -5 -4l-19 2q-5 0 -5 4q0 7 6.5 12t15 8t17.5 4.5t14 3.5q65 19 137.5 30.5t147.5 11.5q55 0 108.5 -7.5t104.5 -23.5q18 -6 41 -15t43 -22.5t34 -31.5t14 -42q0 -16 -7 -31t-17.5 -28.5t-23 -25.5t-23.5 -21q-51 -43 -105 -82.5t-109 -78.5
q-17 -12 -41 -28t-46 -32t-37.5 -30.5t-15.5 -21.5q0 -6 6 -12t14 -11t15.5 -9t10.5 -5q9 -5 18 -8.5t17 -7.5l45 -17q38 -16 77.5 -29t76.5 -33l2 -4q0 -5 -6 -5h-1q-23 12 -54 23.5t-63 22.5t-63 22t-55 22.5t-39 23.5t-15 26q0 10 7 20t18 19.5t24 19t26 18.5l182 131v1
l-2 -2q-3 -3 -5 -4q-4 -3 -7 -5q16 13 46 35t58.5 47t50 51.5t21.5 48.5q0 26 -23 45.5t-54 33t-62.5 21.5t-49.5 11q-45 8 -88.5 13.5t-88.5 5.5q-71 0 -141 -13t-139 -41h9zM67 496q-5 -23 -5 -37q0 -15 2.5 -31.5t5.5 -39.5q5 -59 10.5 -118t5.5 -138q0 -78 -6 -153.5
t-17 -152.5q-2 -5 -6 -5t-4 5q8 71 10.5 141.5t2.5 140.5v68.5t-2 68.5q-1 26 -3.5 54t-4.5 55t-4 51.5t-2 44.5q0 4 0.5 13.5t2.5 19t4.5 16.5t7.5 7q4 0 4 -6h1zM133 662q0 5 4 5q2 0 6 -2q1 -8 5.5 -17t10.5 -16.5t13 -12.5t14 -5q11 0 25.5 9.5t28 21t24.5 21t15 9.5
q5 0 5 -5q0 -1 -0.5 -1.5t-0.5 -2.5q-9 -8 -20 -20.5t-22.5 -23.5t-23.5 -19t-23 -8q-26 0 -43 20.5t-18 46.5z" />
    <glyph glyph-name="rcaron" unicode="&#x159;" horiz-adv-x="123" 
d="M5 112q0 5 4 5t8.5 -6t8 -14t6 -16t3.5 -13q15 46 67 82l2 1h1q4 0 4 -4q0 -3 -2 -5q-32 -27 -44.5 -56t-12.5 -59q0 -9 1.5 -19t1.5 -20q0 -11 -10 -11q-2 0 -5 1.5t-4 5.5q-6 34 -10 68.5t-19 57.5v2zM-15 223q0 5 4 5q2 0 6 -2q1 -8 5.5 -17t10.5 -16.5t13 -12.5
t14 -5q11 0 25.5 9.5t28 21t24.5 21t15 9.5q5 0 5 -5q0 -1 -0.5 -1.5t-0.5 -2.5q-9 -8 -20 -20.5t-22.5 -23.5t-23.5 -19t-23 -8q-26 0 -43 20.5t-18 46.5z" />
    <glyph glyph-name="Sacute" unicode="&#x15a;" horiz-adv-x="685" 
d="M602 506q-6 0 -6 5q0 1 3 4q36 12 36 17q0 3 -18.5 6t-42 5t-44.5 3t-27 1q-26 0 -71.5 -2t-99.5 -10t-109.5 -23t-101 -40t-74 -62.5t-28.5 -90.5q0 -35 16.5 -61t43 -45.5t59 -33t65.5 -22.5q38 -10 77 -16.5t78 -12.5t77.5 -12.5t76.5 -16.5q23 -6 47.5 -14.5
t47 -20.5t41 -29t29.5 -41q4 -9 4 -19q0 -17 -10 -34.5t-24 -34t-29.5 -29t-26.5 -18.5q-70 -40 -132 -61t-131 -21q-27 0 -54.5 3.5t-57.5 9.5q-25 9 -47.5 25t-22.5 39q0 16 11 30q6 6 21.5 10t33.5 6.5t35 4.5t27 3q66 6 133 6q51 0 101 -4t101 -12q1 0 3 -2
q18 16 33.5 37t15.5 42q0 24 -17.5 41.5t-42.5 30t-51 20.5t-42 13q-25 7 -50 11.5t-50 8.5q-30 5 -71.5 11t-86.5 15t-88.5 23t-78.5 36.5t-56.5 54.5t-21.5 78q0 50 23 87.5t61 64.5t87.5 44.5t103.5 27.5t108.5 14t101.5 4q12 0 38 -1.5t52 -4.5t46 -7t20 -9t-5.5 -10
t-13 -9.5t-15 -8t-10.5 -4.5zM581 -125q5 2 10 6t11 7q-46 8 -91 11t-91 3q-38 0 -76.5 -2t-77.5 -6q2 0 9.5 0.5t8.5 0.5q-12 -2 -33.5 -4t-42.5 -6t-36.5 -10.5t-15.5 -17.5q0 -16 18 -28t44 -19.5t55 -11t52 -3.5q43 0 85 8t76 21q26 10 49 23.5t46 27.5zM400 668
q-2 -8 -17.5 -21t-33.5 -25.5t-33 -21.5t-18 -9q-4 0 -4 4q0 2 1 3q8 12 20.5 21.5t26 18.5t26.5 18t24 19q2 1 4 1q5 0 5 -5q0 -1 -0.5 -1t-0.5 -1v-1z" />
    <glyph glyph-name="sacute" unicode="&#x15b;" horiz-adv-x="108" 
d="M88 122q0 -1 0.5 -1.5t0.5 -1.5q0 -4 -5 -4q-4 0 -4 1q-4 0 -12 -2t-15.5 -5t-13.5 -7.5t-6 -10.5q0 -9 9 -13.5t20 -9t20 -12.5t9 -24q0 -11 -8 -19.5t-20 -14.5t-26.5 -9t-28.5 -4q-4 1 -4 6q0 4 4 4q13 1 25 5.5t21 10t14.5 11.5t5.5 10q0 7 -9 13t-20.5 12t-20.5 13
t-9 16t5.5 16.5t14 13.5t18.5 9.5t18 3.5q12 0 17 -7zM110 219q-2 -8 -17.5 -21t-33.5 -25.5t-33 -21.5t-18 -9q-4 0 -4 4q0 2 1 3q8 12 20.5 21.5t26 18.5t26.5 18t24 19q2 1 4 1q5 0 5 -5q0 -1 -0.5 -1t-0.5 -1v-1z" />
    <glyph glyph-name="Scircumflex" unicode="&#x15c;" horiz-adv-x="685" 
d="M602 506q-6 0 -6 5q0 1 3 4q36 12 36 17q0 3 -18.5 6t-42 5t-44.5 3t-27 1q-26 0 -71.5 -2t-99.5 -10t-109.5 -23t-101 -40t-74 -62.5t-28.5 -90.5q0 -35 16.5 -61t43 -45.5t59 -33t65.5 -22.5q38 -10 77 -16.5t78 -12.5t77.5 -12.5t76.5 -16.5q23 -6 47.5 -14.5
t47 -20.5t41 -29t29.5 -41q4 -9 4 -19q0 -17 -10 -34.5t-24 -34t-29.5 -29t-26.5 -18.5q-70 -40 -132 -61t-131 -21q-27 0 -54.5 3.5t-57.5 9.5q-25 9 -47.5 25t-22.5 39q0 16 11 30q6 6 21.5 10t33.5 6.5t35 4.5t27 3q66 6 133 6q51 0 101 -4t101 -12q1 0 3 -2
q18 16 33.5 37t15.5 42q0 24 -17.5 41.5t-42.5 30t-51 20.5t-42 13q-25 7 -50 11.5t-50 8.5q-30 5 -71.5 11t-86.5 15t-88.5 23t-78.5 36.5t-56.5 54.5t-21.5 78q0 50 23 87.5t61 64.5t87.5 44.5t103.5 27.5t108.5 14t101.5 4q12 0 38 -1.5t52 -4.5t46 -7t20 -9t-5.5 -10
t-13 -9.5t-15 -8t-10.5 -4.5zM581 -125q5 2 10 6t11 7q-46 8 -91 11t-91 3q-38 0 -76.5 -2t-77.5 -6q2 0 9.5 0.5t8.5 0.5q-12 -2 -33.5 -4t-42.5 -6t-36.5 -10.5t-15.5 -17.5q0 -16 18 -28t44 -19.5t55 -11t52 -3.5q43 0 85 8t76 21q26 10 49 23.5t46 27.5zM369 668
q2 1 4 1q6 0 13 -9.5t13 -21.5t9.5 -23.5t3.5 -14.5q0 -4 -6 -4q-3 0 -4 3q-3 15 -11.5 25.5t-16.5 22.5q-17 -14 -31.5 -33.5t-35.5 -31.5q-1 -1 -4 -1q-5 0 -7 3t-2 6q0 5 2 7l21 18q11 11 21.5 25t30.5 28z" />
    <glyph glyph-name="scircumflex" unicode="&#x15d;" horiz-adv-x="108" 
d="M88 122q0 -1 0.5 -1.5t0.5 -1.5q0 -4 -5 -4q-4 0 -4 1q-4 0 -12 -2t-15.5 -5t-13.5 -7.5t-6 -10.5q0 -9 9 -13.5t20 -9t20 -12.5t9 -24q0 -11 -8 -19.5t-20 -14.5t-26.5 -9t-28.5 -4q-4 1 -4 6q0 4 4 4q13 1 25 5.5t21 10t14.5 11.5t5.5 10q0 7 -9 13t-20.5 12t-20.5 13
t-9 16t5.5 16.5t14 13.5t18.5 9.5t18 3.5q12 0 17 -7zM59 231q2 1 4 1q6 0 13 -9.5t13 -21.5t9.5 -23.5t3.5 -14.5q0 -4 -6 -4q-3 0 -4 3q-3 15 -11.5 25.5t-16.5 22.5q-17 -14 -31.5 -33.5t-35.5 -31.5q-1 -1 -4 -1q-5 0 -7 3t-2 6q0 5 2 7l21 18q11 11 21.5 25t30.5 28z
" />
    <glyph glyph-name="Scedilla" unicode="&#x15e;" horiz-adv-x="685" 
d="M602 506q-6 0 -6 5q0 1 3 4q36 12 36 17q0 3 -18.5 6t-42 5t-44.5 3t-27 1q-26 0 -71.5 -2t-99.5 -10t-109.5 -23t-101 -40t-74 -62.5t-28.5 -90.5q0 -35 16.5 -61t43 -45.5t59 -33t65.5 -22.5q38 -10 77 -16.5t78 -12.5t77.5 -12.5t76.5 -16.5q23 -6 47.5 -14.5
t47 -20.5t41 -29t29.5 -41q4 -9 4 -19q0 -17 -10 -34.5t-24 -34t-29.5 -29t-26.5 -18.5q-70 -40 -132 -61t-131 -21q-27 0 -54.5 3.5t-57.5 9.5q-25 9 -47.5 25t-22.5 39q0 16 11 30q6 6 21.5 10t33.5 6.5t35 4.5t27 3q66 6 133 6q51 0 101 -4t101 -12q1 0 3 -2
q18 16 33.5 37t15.5 42q0 24 -17.5 41.5t-42.5 30t-51 20.5t-42 13q-25 7 -50 11.5t-50 8.5q-30 5 -71.5 11t-86.5 15t-88.5 23t-78.5 36.5t-56.5 54.5t-21.5 78q0 50 23 87.5t61 64.5t87.5 44.5t103.5 27.5t108.5 14t101.5 4q12 0 38 -1.5t52 -4.5t46 -7t20 -9t-5.5 -10
t-13 -9.5t-15 -8t-10.5 -4.5zM581 -125q5 2 10 6t11 7q-46 8 -91 11t-91 3q-38 0 -76.5 -2t-77.5 -6q2 0 9.5 0.5t8.5 0.5q-12 -2 -33.5 -4t-42.5 -6t-36.5 -10.5t-15.5 -17.5q0 -16 18 -28t44 -19.5t55 -11t52 -3.5q43 0 85 8t76 21q26 10 49 23.5t46 27.5zM392 -217v-26
q13 -1 24.5 -4.5t11.5 -18.5q0 -11 -5 -16.5t-12.5 -8.5t-16 -5t-16.5 -4q-5 0 -5 5q0 4 5 6.5t12 5.5t12.5 7t7.5 9l-1 -2q-2 6 -7.5 7.5t-11.5 2t-11 3.5t-5 12q0 6 2.5 13.5l4.5 13.5h11z" />
    <glyph glyph-name="scedilla" unicode="&#x15f;" horiz-adv-x="108" 
d="M88 122q0 -1 0.5 -1.5t0.5 -1.5q0 -4 -5 -4q-4 0 -4 1q-4 0 -12 -2t-15.5 -5t-13.5 -7.5t-6 -10.5q0 -9 9 -13.5t20 -9t20 -12.5t9 -24q0 -11 -8 -19.5t-20 -14.5t-26.5 -9t-28.5 -4q-4 1 -4 6q0 4 4 4q13 1 25 5.5t21 10t14.5 11.5t5.5 10q0 7 -9 13t-20.5 12t-20.5 13
t-9 16t5.5 16.5t14 13.5t18.5 9.5t18 3.5q12 0 17 -7zM44 -3v-26q13 -1 24.5 -4.5t11.5 -18.5q0 -11 -5 -16.5t-12.5 -8.5t-16 -5t-16.5 -4q-5 0 -5 5q0 4 5 6.5t12 5.5t12.5 7t7.5 9l-1 -2q-2 6 -7.5 7.5t-11.5 2t-11 3.5t-5 12q0 6 2.5 13.5l4.5 13.5h11z" />
    <glyph glyph-name="Scaron" unicode="&#x160;" horiz-adv-x="685" 
d="M602 506q-6 0 -6 5q0 1 3 4q36 12 36 17q0 3 -18.5 6t-42 5t-44.5 3t-27 1q-26 0 -71.5 -2t-99.5 -10t-109.5 -23t-101 -40t-74 -62.5t-28.5 -90.5q0 -35 16.5 -61t43 -45.5t59 -33t65.5 -22.5q38 -10 77 -16.5t78 -12.5t77.5 -12.5t76.5 -16.5q23 -6 47.5 -14.5
t47 -20.5t41 -29t29.5 -41q4 -9 4 -19q0 -17 -10 -34.5t-24 -34t-29.5 -29t-26.5 -18.5q-24 -14 -48 -30t-52 -22q-52 -13 -84.5 -19.5t-66.5 -6.5q-24 0 -52 2.5t-68 10.5q-15 2 -31.5 8t-27.5 18q-5 6 -15 17t-10 16t8 15.5t13 15.5q6 6 21.5 10t33.5 6.5t35 4.5t27 3
q66 6 133 6q51 0 101 -4t101 -12q1 0 3 -2q18 16 33.5 37t15.5 42q0 24 -17.5 41.5t-42.5 30t-51 20.5t-42 13q-25 7 -50 11.5t-50 8.5q-30 5 -71.5 11t-86.5 15t-88.5 23t-78.5 36.5t-56.5 54.5t-21.5 78q0 50 23 87.5t61 64.5t87.5 44.5t103.5 27.5t108.5 14t101.5 4
q12 0 38 -1.5t52 -4.5t46 -7t20 -9t-5.5 -10t-13 -9.5t-15 -8t-10.5 -4.5zM581 -125q5 2 10 6t11 7q-46 8 -91 11t-91 3q-38 0 -76.5 -2t-77.5 -6q2 0 9.5 0.5t8.5 0.5q-32 -4 -59.5 -6.5t-57.5 -17.5q-5 -2 -7.5 -7.5t-5.5 -10.5q5 -5 8.5 -11.5t9.5 -9.5
q31 -20 70.5 -28.5t82.5 -8.5t85 8t76 21q26 10 49 23.5t46 27.5zM296 646q0 6 5 6q2 0 5 -4q4 -15 16.5 -32t26.5 -17q11 0 25.5 9.5t28 20.5t24.5 20.5t15 9.5q5 0 5 -5q0 -2 -1 -3q-9 -9 -20 -21t-22.5 -23t-23 -19t-22.5 -8q-26 0 -43 20t-19 46z" />
    <glyph glyph-name="scaron" unicode="&#x161;" horiz-adv-x="108" 
d="M88 122q0 -1 0.5 -1.5t0.5 -1.5q0 -4 -5 -4q-4 0 -4 1q-4 0 -12 -2t-15.5 -5t-13.5 -7.5t-6 -10.5q0 -9 9 -13.5t20 -9t20 -12.5t9 -24q0 -11 -8 -19.5t-20 -14.5t-26.5 -9t-28.5 -4q-4 1 -4 6q0 4 4 4q13 1 25 5.5t21 10t14.5 11.5t5.5 10q0 7 -9 13t-20.5 12t-20.5 13
t-9 16t5.5 16.5t14 13.5t18.5 9.5t18 3.5q12 0 17 -7zM-7 230q0 7 5 7q2 0 5 -4q2 -8 6 -16.5t10 -16t13 -12.5t14 -5q11 0 25.5 9.5t28.5 21t24.5 21t14.5 9.5q5 0 5 -5q0 -1 -1 -3q-9 -9 -20 -21t-22.5 -23t-23 -19t-22.5 -8q-26 0 -43 20t-19 45z" />
    <glyph glyph-name="Tcommaaccent" unicode="&#x162;" horiz-adv-x="742" 
d="M930 480q18 -3 26.5 -8t8.5 -9q0 -3 -7 -3q-9 0 -30 10l-84 16q-130 26 -265.5 47.5t-270.5 21.5h-28.5t-56.5 -3t-69.5 -11t-67.5 -25t-51.5 -44t-20.5 -67q0 -26 12 -41t30 -22.5t39.5 -10t41.5 -2.5q91 0 180.5 22.5t175.5 50.5q7 3 21.5 7t30.5 9.5t30 11t22 11.5
q0 7 3 10t6 3q6 0 8.5 -5t2.5 -8t-1 -4q5 -16 11.5 -33t9.5 -26q20 -62 35 -126t17 -133l96 14q-9 -10 -30.5 -14.5t-65.5 -11.5q0 -65 -15.5 -128t-53.5 -118q-17 -26 -45 -51.5t-60.5 -46.5t-67 -35t-65.5 -15q-10 -1 -18.5 -1.5t-18.5 -0.5q-32 0 -54.5 10.5t-37 27.5
t-21 38.5t-6.5 43.5q0 24 6.5 48t18.5 46t28.5 40t37.5 30q17 10 34.5 20.5t36.5 19.5q65 31 136.5 50.5t143.5 30.5q-1 51 -10 101t-24 101q-2 6 -6.5 17.5t-10 26t-10.5 30t-8 28.5q-12 -7 -28 -13.5t-31 -11t-26.5 -7.5t-14.5 -4q-10 -3 -20.5 -6.5t-20.5 -7.5l-63 -17
q-20 -5 -39.5 -9.5t-39.5 -9.5l-37.5 -7.5t-48 -8.5t-52 -7t-49.5 -3q-17 0 -30 1.5t-23 6.5q-16 7 -30.5 12t-25.5 14t-17.5 23.5t-6.5 41.5q0 41 19 69t49 46.5t67 28t73 14t67.5 5.5t49.5 1q78 0 156 -9t154.5 -22.5t151.5 -29.5t147 -30zM656 -12q13 56 13 117
q-72 -13 -141 -32t-133 -50q-29 -14 -57 -31t-50 -39t-35 -49t-13 -61q0 -33 9.5 -55t24.5 -35.5t35 -19t41 -5.5t41 4t39 10q42 15 79 39t66.5 55.5t50.5 69.5t30 82zM556 -257q-4 1 -4 5q0 5 4 5q16 0 22.5 -5.5t6.5 -13.5q0 -7 -4.5 -18.5t-10 -22t-10.5 -18t-6 -7.5
q-5 0 -5 6q1 14 9 29t8 26q0 10 -10 14z" />
    <glyph glyph-name="tcommaaccent" unicode="&#x163;" horiz-adv-x="126" 
d="M35 205q3 3 6 3q4 0 4 -4q0 -9 -2 -26t-5 -39q18 5 40 11t36 6q5 0 5 -5q0 -3 -10 -9t-24 -11t-28 -9t-21 -4q-1 -11 -1.5 -22t-0.5 -22q0 -31 6.5 -55t25.5 -29q4 -2 11 -2h14t11.5 -1t4.5 -5q0 -3 -5 -4t-12 -1.5t-14.5 -0.5h-11.5q-28 0 -38 25t-10 57q0 15 2 30.5
t4 29.5q-5 0 -8.5 -1t-7.5 -1h-2q-5 2 -5 6q0 3 7.5 6.5t18.5 7.5q3 19 5 29t2.5 16t1 10.5zM45 -56q-4 1 -4 5q0 5 4 5q16 0 22.5 -5.5t6.5 -13.5q0 -7 -4.5 -18.5t-10 -22t-10.5 -18t-6 -7.5q-5 0 -5 6q1 14 9 29t8 26q0 10 -10 14z" />
    <glyph glyph-name="Tcaron" unicode="&#x164;" horiz-adv-x="742" 
d="M930 480q18 -3 26.5 -8t8.5 -9q0 -3 -7 -3q-9 0 -30 10l-84 16q-130 26 -265.5 47.5t-270.5 21.5h-28.5t-56.5 -3t-69.5 -11t-67.5 -25t-51.5 -44t-20.5 -67q0 -26 12 -41t30 -22.5t39.5 -10t41.5 -2.5q91 0 180.5 22.5t175.5 50.5q7 3 21.5 7t30.5 9.5t30 11t22 11.5
q0 7 3 10t6 3q6 0 8.5 -5t2.5 -8t-1 -4q5 -16 11.5 -33t9.5 -26q20 -62 35 -126t17 -133l96 14q-9 -10 -30.5 -14.5t-65.5 -11.5q0 -65 -15.5 -128t-53.5 -118q-17 -26 -45 -51.5t-60.5 -46.5t-67 -35t-65.5 -15q-10 -1 -18.5 -1.5t-18.5 -0.5q-32 0 -54.5 10.5t-37 27.5
t-21 38.5t-6.5 43.5q0 24 6.5 48t18.5 46t28.5 40t37.5 30q17 10 34.5 20.5t36.5 19.5q65 31 136.5 50.5t143.5 30.5q-1 51 -10 101t-24 101q-2 6 -6.5 17.5t-10 26t-10.5 30t-8 28.5q-12 -7 -28 -13.5t-31 -11t-26.5 -7.5t-14.5 -4q-10 -3 -20.5 -6.5t-20.5 -7.5l-63 -17
q-20 -5 -39.5 -9.5t-39.5 -9.5l-37.5 -7.5t-48 -8.5t-52 -7t-49.5 -3q-17 0 -30 1.5t-23 6.5q-16 7 -30.5 12t-25.5 14t-17.5 23.5t-6.5 41.5q0 41 19 69t49 46.5t67 28t73 14t67.5 5.5t49.5 1q78 0 156 -9t154.5 -22.5t151.5 -29.5t147 -30zM656 -12q13 56 13 117
q-72 -13 -141 -32t-133 -50q-29 -14 -57 -31t-50 -39t-35 -49t-13 -61q0 -33 9.5 -55t24.5 -35.5t35 -19t41 -5.5t41 4t39 10q42 15 79 39t66.5 55.5t50.5 69.5t30 82zM455 674q0 5 4 5q2 0 6 -2q1 -8 5.5 -17t10.5 -16.5t13 -12.5t14 -5q11 0 25.5 9.5t28 21t24.5 21
t15 9.5q5 0 5 -5q0 -1 -0.5 -1.5t-0.5 -2.5q-9 -8 -20 -20.5t-22.5 -23.5t-23.5 -19t-23 -8q-26 0 -43 20.5t-18 46.5z" />
    <glyph glyph-name="tcaron" unicode="&#x165;" horiz-adv-x="126" 
d="M35 205q3 3 6 3q4 0 4 -4q0 -9 -2 -26t-5 -39q18 5 40 11t36 6q5 0 5 -5q0 -3 -10 -9t-24 -11t-28 -9t-21 -4q-1 -11 -1.5 -22t-0.5 -22q0 -31 6.5 -55t25.5 -29q4 -2 11 -2h14t11.5 -1t4.5 -5q0 -3 -5 -4t-12 -1.5t-14.5 -0.5h-11.5q-28 0 -38 25t-10 57q0 15 2 30.5
t4 29.5q-5 0 -8.5 -1t-7.5 -1h-2q-5 2 -5 6q0 3 7.5 6.5t18.5 7.5q3 19 5 29t2.5 16t1 10.5zM80 255q-4 1 -4 5q0 5 4 5q16 0 22.5 -5.5t6.5 -13.5q0 -7 -4.5 -18.5t-10 -22t-10.5 -18t-6 -7.5q-5 0 -5 6q1 14 9 29t8 26q0 10 -10 14z" />
    </font>
</defs>
</svg>
