<?xml version="1.0" standalone="no"?>
<!DOCTYPE svg PUBLIC "-//W3C//DTD SVG 1.1//EN" "http://www.w3.org/Graphics/SVG/1.1/DTD/svg11.dtd" >
<svg xmlns="http://www.w3.org/2000/svg" xmlns:xlink="http://www.w3.org/1999/xlink" version="1.1">
<metadata>
Created by FontForge 20161013 at Wed Jan 28 06:20:33 2015
 By ,,,
Copyright (c) 2011 by Brittney Murphy. All rights reserved.
</metadata>
<defs>
<font id="SweetlyBroken-Bold" horiz-adv-x="199" >
  <font-face 
    font-family="Sweetly Broken"
    font-weight="700"
    font-stretch="normal"
    units-per-em="1000"
    panose-1="0 0 0 0 0 0 0 0 0 0"
    ascent="750"
    descent="-250"
    x-height="125"
    cap-height="564"
    bbox="-365 -356 1029 743"
    underline-thickness="50"
    underline-position="-150"
    unicode-range="U+0020-2212"
  />
<missing-glyph horiz-adv-x="128" 
 />
    <glyph glyph-name=".notdef" horiz-adv-x="128" 
 />
    <glyph glyph-name=".null" horiz-adv-x="0" 
 />
    <glyph glyph-name="nonmarkingreturn" horiz-adv-x="333" 
 />
    <glyph glyph-name="space" unicode=" " horiz-adv-x="128" 
 />
    <glyph glyph-name="exclam" unicode="!" horiz-adv-x="79" 
d="M16 321q0 8 5 12t10 4q9 0 14 -24.5t7 -58t2.5 -67t0.5 -51.5q0 -23 -3 -44t-12 -21q-5 0 -9.5 23.5t-8 56.5t-5.5 68.5t-2 59.5v21.5t1 20.5zM43 51q6 0 10.5 -4t4.5 -11q0 -2 -1 -4t-4 -3q2 -4 2 -5q0 -9 -10 -14.5t-11 -5.5q-9 0 -14 6.5t-5 15.5q0 11 6 18t22 7z" />
    <glyph glyph-name="quotedbl" unicode="&#x22;" horiz-adv-x="86" 
d="M1 416q0 7 5 11t10 4q6 0 10.5 -8.5t7 -20.5t3.5 -23.5t1 -17.5q0 -5 -0.5 -12t-2 -13.5t-5 -11.5t-9.5 -5t-10.5 9t-7 20.5t-3.5 23t-1 16.5t0.5 12.5t1.5 13.5v2zM47 418q0 13 14 13q6 0 9.5 -6t5.5 -13.5t3 -16t1 -12.5q0 -5 -1 -13.5t-4 -17.5t-7.5 -15.5t-11.5 -6.5
q-4 0 -8.5 4t-4.5 10q0 3 0.5 5.5t0.5 4.5q1 8 1 14v12v19.5t2 18.5z" />
    <glyph glyph-name="numbersign" unicode="#" horiz-adv-x="251" 
d="M29 147q0 15 13 15q4 0 6 -2h1q3 1 5 -1q-1 9 -1 18v18q-7 -1 -15 -0.5t-14 0.5q-8 0 -17 2t-9 14q0 10 17.5 13t33.5 5l4 -3l-2 3q-1 17 -1.5 35.5t-0.5 35.5q0 10 2 19t13 9q5 0 9.5 -1.5t6.5 -7.5l7 -83h-1q18 2 34.5 5.5t34.5 5.5v9q1 17 3.5 34t15.5 17q5 0 9.5 -3
t5.5 -11l-2 -46l2 3q14 1 29 -1t15 -14q0 -10 -10 -12.5t-21 -3.5l-12 -3v-25h28q10 -4 10 -16q0 -7 -8 -11t-19 -6q-3 0 -11 -2h-1q0 -9 -0.5 -24.5t-3 -30.5t-6.5 -25.5t-10 -10.5q-5 0 -8.5 6.5t-5 16t-2 21.5t-0.5 24v17l-61 -15v-38q0 -12 -2.5 -22t-12.5 -10
q-13 0 -14 12l-5 54h-5q-8 0 -15 2t-9 10v4zM88 179l60 4l4 29q-18 -3 -32 -7l-22 -5.5t-10 -1.5v-19z" />
    <glyph glyph-name="dollar" unicode="$" horiz-adv-x="235" 
d="M78 344q7 10 13 10q10 0 11.5 -7t3.5 -16v-3q0 -1 1 -1q0 -4 1 -7v-3q5 1 12 1h12q12 0 26.5 -5t14.5 -19q0 -10 -4.5 -12t-9.5 -2q-2 -1 -6 -1q-6 0 -11 9h-3q-4 0 -10 -1t-15 -3q2 -17 2.5 -34.5t1.5 -28.5h1q13 -7 30 -16.5t31 -20.5t24 -22.5t10 -23.5
q0 -19 -23 -40.5t-69 -32.5v-9q0 -9 -0.5 -20t-2.5 -20t-5.5 -15t-9.5 -6q-9 0 -13 9q-4 4 -4 7q-1 6 -1.5 13.5t-0.5 11.5v20q-4 0 -11 -0.5t-12 -0.5q-26 0 -41 10t-15 27q0 13 13 13q3 3 8 -1q8 -10 14 -13t19 -3q4 0 11.5 0.5t13.5 2.5q0 5 -0.5 11.5t-0.5 11.5
q-1 7 -1 14.5v14.5v11q-1 12 -1.5 21t-0.5 20q-12 4 -26 10t-25.5 14t-19 18t-7.5 23q0 14 20.5 26t52.5 22v16q0 2 0.5 3t0.5 3v11zM175 131q0 11 -16 24.5t-39 24.5q1 -20 1.5 -41.5t0.5 -41.5q25 5 39 14t14 20zM43 257q6 -7 17 -13.5t20 -9.5v31q0 4 0.5 4.5t-0.5 5.5
q-5 -2 -10.5 -4t-8.5 -4q4 0 -2 -2v1z" />
    <glyph glyph-name="percent" unicode="%" horiz-adv-x="309" 
d="M70 355q8 0 14.5 -4t8.5 -12q16 -7 28.5 -18t12.5 -33q0 -12 -7.5 -22.5t-19.5 -18t-27 -11.5t-30 -4q-22 0 -38 9.5t-16 33.5q0 18 8 32.5t19.5 25t24 16.5t22.5 6zM239 418q0 2 2 2q4 8 12 8q5 0 10.5 -4t5.5 -11q0 -9 -7 -19.5t-15 -19.5q-3 -4 -7 -9t-6 -10
q-49 -83 -86.5 -183t-66.5 -203q-2 -6 -7.5 -7t-7.5 -1q-15 0 -15 16q26 106 61.5 207.5t98.5 192.5q0 2 3 5.5t6 7.5q4 7 10.5 13t8.5 15zM219 195q2 0 6 -1.5t6 -5.5q5 7 14 7l19 -12q14 -9 27 -20.5t13 -30.5q0 -13 -10 -22.5t-24.5 -16t-30.5 -9.5t-28 -3
q-29 0 -40.5 18.5t-11.5 38.5q0 16 8 33.5t27 19.5l23 4h2zM249 154q-13 10 -18 17q-1 -4 -7 -6q-14 -3 -22.5 -9t-8.5 -18q0 -8 5.5 -14.5t17.5 -6.5q4 0 13 1t17.5 3.5t15 6.5t6.5 9q0 4 -6 9t-13 8zM101 289q0 5 -8.5 12.5t-21.5 15.5q-5 2 -7 5q-11 -5 -20.5 -15.5
t-9.5 -28.5q0 -8 10 -8q30 0 43.5 7t13.5 12z" />
    <glyph glyph-name="ampersand" unicode="&#x26;" horiz-adv-x="243" 
d="M254 0q9 -5 9 -14q0 -2 -3 -8t-14 -6q-5 1 -15.5 8l-24 16t-27.5 18.5t-24 17.5q-2 0 -2.5 -0.5t-2.5 -0.5l-11 -4q-20 -7 -40.5 -13t-45.5 -6q-29 0 -40.5 7t-11.5 19q0 7 6 16.5t15.5 19t20.5 19t21 16.5q0 1 1 2t1.5 1t1.5 1l-2 2q-2 2 -5.5 6t-5.5 6
q-16 17 -31.5 46.5t-16.5 58.5q0 12 6.5 27.5t17.5 29.5t27 23.5t35 9.5q18 0 35.5 -9.5t32 -24.5t23 -33.5t8.5 -35.5t-6.5 -31.5t-17 -28t-24 -26t-26.5 -24.5q13 -11 22.5 -20t20.5 -18l8 3q8 3 18 6.5t18 3.5t12 -5t4 -10q0 -2 -6.5 -8.5t-14.5 -10.5l-5 -2l23 -16
q9 -8 19 -15.5t18 -12.5h-1zM56 183q8 -14 16 -26t22 -27q21 19 39.5 41.5t18.5 43.5q0 23 -16 43t-39 20q-14 0 -23.5 -6t-16 -14.5t-9.5 -18t-3 -16.5q0 -18 11 -40zM72 66q-8 -6 -15.5 -12.5t-12.5 -12.5q4 -1 11 -1q33 0 73 14q-3 3 -6.5 5.5t-6.5 4.5q-13 8 -21 18
q-7 -7 -22 -16z" />
    <glyph glyph-name="quotesingle" unicode="'" horiz-adv-x="45" 
d="M1 416q0 7 5 11t10 4q6 0 10.5 -8.5t7 -20.5t3.5 -23.5t1 -17.5q0 -5 -0.5 -12t-2 -13.5t-5 -11.5t-9.5 -5t-10.5 9t-7 20.5t-3.5 23t-1 16.5t0.5 12.5t1.5 13.5v2v0z" />
    <glyph glyph-name="parenleft" unicode="(" horiz-adv-x="185" 
d="M164 452q-1 -1 -3 -1q-31 -24 -52 -61t-34 -75t-18.5 -71t-5.5 -49q0 -37 8.5 -65.5t23.5 -51t35 -41t43 -34.5h-1q9 -5 9 -14q0 -11 -6 -12.5t-14 -1.5q-30 21 -55 43.5t-43.5 50t-28.5 63t-10 82.5q0 26 11 63.5t29 75t41.5 70t47.5 49.5q2 5 4.5 4.5t7.5 -0.5
q2 0 8 -4t6 -10q0 -7 -3 -10z" />
    <glyph glyph-name="parenright" unicode=")" horiz-adv-x="178" 
d="M129 195q0 16 -6 49.5t-19 72t-34.5 75.5t-52.5 60q-5 3 -5 10q0 6 4.5 10t9.5 4h4.5t4.5 -3q24 -17 48 -49.5t42.5 -70.5t30 -75.5t11.5 -63.5q0 -48 -10 -84t-28 -63.5t-43 -49t-55 -42.5q-9 0 -14.5 1.5t-5.5 12.5q0 8 6 14q22 16 42.5 34.5t36 41.5t24.5 51.5t9 64.5
z" />
    <glyph glyph-name="asterisk" unicode="*" horiz-adv-x="194" 
d="M83 -3q-14 8 -29.5 24t-29 34.5t-22 38t-8.5 34.5q0 4 3.5 12t10 15.5t16.5 13.5t23 6q25 0 41.5 -20t27.5 -42q10 11 21.5 19.5t23.5 8.5q10 0 20.5 -9.5t10.5 -28.5q0 -21 -15 -39t-32 -33h1l-5 -5q-7 -8 -13 -15.5t-9 -14.5l-6 -7l-3 -4v1q-2 -5 -5.5 -10t-9.5 -5
q-14 0 -14 17zM30 126q0 -12 6 -26.5t16 -28.5t21 -26.5t22 -20.5l1 1q6 8 11.5 13.5t11.5 10.5h-1l6 6v-1q11 12 20.5 25t9.5 22q-5 -2 -8.5 -6.5t-6.5 -9.5v1v-3q-6 -8 -13.5 -15.5t-15.5 -7.5q-7 0 -15 8q-4 5 -7 10.5t-5 10.5l-5 7q-6 15 -15 28t-25 13q-6 0 -7 -6z
M140 88l-1 -2q1 1 1 2z" />
    <glyph glyph-name="plus" unicode="+" horiz-adv-x="190" 
d="M21 160q2 -1 5 -1q1 0 2 -0.5t4 -0.5q4 0 7 0.5t6 0.5h9t9 1q0 12 0.5 28.5t2 31.5t4.5 25.5t8 10.5q8 0 11 -3t5 -8l7 -76q14 3 30 5t43 2q5 -2 8 -7.5t3 -7.5q0 -5 -25 -14.5t-57 -19.5q0 -6 -1 -20t-3 -28.5t-5.5 -25t-8.5 -10.5q-8 0 -12 6.5t-6.5 17t-3.5 23
t-1 23.5q0 4 -0.5 4.5t-0.5 4.5h-7q-7 0 -16 2t-17.5 5t-14 7.5t-5.5 10.5q0 5 3.5 9.5t13.5 4.5z" />
    <glyph glyph-name="comma" unicode="," horiz-adv-x="77" 
d="M21 10q-10 4 -10 15q0 5 3 9.5t11 4.5q20 0 28.5 -8t8.5 -20q0 -8 -5.5 -20.5t-12.5 -24.5t-13.5 -20.5t-7.5 -8.5q-15 0 -15 17q1 11 3.5 17.5t5.5 13.5t5.5 13t2.5 8q0 3 -4 4z" />
    <glyph glyph-name="hyphen" unicode="-" horiz-adv-x="148" 
d="M53 84q-23 0 -43 8q-6 2 -7 6.5t-1 6.5q0 5 2.5 10.5t10.5 5.5t14 -2q3 -1 6 -1q14 0 31 3q11 2 23 3t26 1q9 0 14.5 -2t5.5 -13q0 -2 -8 -6.5t-20 -9t-26.5 -7.5t-27.5 -3z" />
    <glyph glyph-name="period" unicode="." horiz-adv-x="73" 
d="M11 22q0 6 3 10.5t13 8.5q3 3 11 3h10q8 0 11.5 -8t3.5 -12q0 -14 -7.5 -19.5t-15.5 -5.5q-10 0 -19.5 6.5t-9.5 16.5z" />
    <glyph glyph-name="slash" unicode="/" horiz-adv-x="201" 
d="M187 418q0 3 1 4q2 2 5 4t9 2q5 0 8.5 -4t3.5 -11q0 -11 -5.5 -21.5t-13.5 -19.5q-4 -4 -6 -8l-4 -4q-51 -87 -88.5 -187.5t-68.5 -203.5q-2 -6 -5.5 -7t-8.5 -1q-15 0 -15 16q26 105 61.5 206.5t97.5 194.5l10 14l1 2v-1l10 12t7 11z" />
    <glyph glyph-name="zero" unicode="0" horiz-adv-x="294" 
d="M205 408q0 -10 -3 -12t-11 -2q-9 0 -13 4q-1 0 -1 3q-15 -1 -30 -9t-28 -20t-23.5 -25.5t-17.5 -26.5q-17 -34 -27.5 -73t-10.5 -77q0 -30 9 -55t23 -42t32.5 -26.5t37.5 -9.5q15 0 32.5 6.5t32.5 19t25 30t10 40.5q0 42 -20 85.5t-43 85.5q-2 3 -3 5.5t-4 7.5t-8.5 19
t-10.5 25q2 11 11 11q6 0 8 -2l4 -4q5 -11 12.5 -22t12.5 -22q23 -43 45.5 -88.5t31.5 -91.5q1 -5 1 -9.5v-10.5q0 -25 -12.5 -47.5t-32.5 -39t-45 -26.5t-50 -10q-37 0 -63 16t-42 41t-23.5 56t-7.5 60q0 27 5.5 55.5t15 54.5t22 49t27.5 40q6 7 18.5 17t27 20t29.5 17
t26 7t19 -5t12 -17v-2z" />
    <glyph glyph-name="one" unicode="1" horiz-adv-x="81" 
d="M15 403q0 8 5 12t10 4t8 -13t5.5 -33.5t3.5 -44t2 -44t1 -35.5v-17q0 -4 -0.5 -23t-1.5 -44t-2.5 -53t-4 -52t-6 -39.5t-8.5 -15.5q-10 0 -13 20.5t-3 47.5q0 48 0.5 88t1.5 81v9q1 34 1.5 70.5t0.5 81.5z" />
    <glyph glyph-name="two" unicode="2" horiz-adv-x="261" 
d="M110 398q-8 0 -15 -0.5t-18 -1.5q-8 0 -15 -1t-15 -2q-3 -4 -8 -5.5t-10.5 -0.5t-9.5 4.5t-4 9.5q0 10 9.5 15.5t23 8.5t28.5 4t26 1h10q20 0 41.5 -3.5t39 -13t28.5 -25.5t11 -41q0 -35 -23.5 -69t-52.5 -69q-31 -37 -55.5 -73.5t-24.5 -71.5q0 -14 7.5 -15.5t15.5 -1.5
h4q23 0 45.5 2.5t45.5 7.5l36 6q6 0 11 -4t5 -11q0 -6 -21 -12t-48 -11.5t-52 -9t-33 -3.5q-34 0 -47 16.5t-13 35.5t10 41.5t22.5 43.5t24.5 37.5t17 22.5q13 16 29 36t29.5 39.5t22.5 36t9 24.5q0 18 -8 28.5t-20.5 16t-28 7t-29.5 1.5z" />
    <glyph glyph-name="three" unicode="3" horiz-adv-x="251" 
d="M59 396q-5 0 -11 1.5t-6 12.5q0 6 6.5 11t16 8.5t21 5.5t21.5 2q28 0 48.5 -9.5t20.5 -34.5q0 -14 -11.5 -33t-27.5 -38t-33 -36.5t-28 -28.5q18 -2 45.5 -7.5t54 -15.5t45 -25.5t18.5 -37.5q0 -15 -11.5 -32t-30 -33.5t-41.5 -32t-46 -27t-44 -18.5t-34 -7q-7 0 -14.5 3
t-7.5 11t5 13q2 2 4 2h4q12 0 41.5 11.5t60 28.5t54 38t23.5 39q0 14 -15 23t-37 15t-47 9t-45 5t-32.5 6t-12.5 11q0 5 6 11.5t14 15.5l7 7q15 13 32.5 31t33.5 35.5t26.5 33t10.5 24.5q0 5 -12 8t-26 3q-12 0 -24 -2.5t-17 -5.5z" />
    <glyph glyph-name="four" unicode="4" horiz-adv-x="224" 
d="M159 425q0 7 4.5 11t9.5 4t8.5 -10.5t5.5 -26.5t2.5 -35t0.5 -37v-83q13 -2 26 -5.5t23.5 -8.5t17 -12t6.5 -15q0 -15 -14 -15h-6q-2 0 -4 2q-7 10 -19.5 14t-29.5 6v-6q0 -5 -0.5 -9.5t-0.5 -9.5v-21q0 -26 -1 -54.5t-2.5 -52.5t-5.5 -40t-10 -16q-5 0 -8 14.5t-4.5 37
t-2 49.5t-0.5 52v57q-34 -1 -67 -5t-50 -10q-17 0 -23 9t-6 23q0 18 2.5 34t5.5 31q4 20 7 40t3 46q0 13 -1.5 22.5t-4.5 12.5h2q-4 2 -8.5 6t-4.5 9q0 9 7 12t13 3q8 0 13.5 -8t9 -20.5t5 -26.5t1.5 -26q0 -21 -2 -44.5t-4 -43.5q0 -3 -1 -7.5t-1 -8.5q-1 -5 -1.5 -10.5
t-0.5 -10.5q34 8 87 8h19q1 44 1.5 86.5t2.5 88.5z" />
    <glyph glyph-name="five" unicode="5" horiz-adv-x="263" 
d="M214 454q9 -5 9 -15q0 -6 -17 -11.5t-40 -7.5l-39 -6q-2 0 -4.5 -0.5t-4.5 -0.5q-3 0 -5 -1q-2 0 -2.5 -0.5t-2.5 -0.5q-8 -2 -15.5 -3.5t-16.5 -3.5l-4 -16l-4 -16t-2 -9q-8 -43 -12 -79q32 8 63 8q29 0 52.5 -9.5t40.5 -25.5t26.5 -37t9.5 -44q0 -31 -15.5 -62
t-40.5 -56t-56.5 -40.5t-62.5 -15.5q-4 0 -15.5 2t-24 5.5t-22 10t-9.5 15.5q0 15 20 15q13 -11 23 -15t24 -4q26 0 51 13t45 33.5t32.5 46t12.5 50.5q0 21 -9.5 36.5t-24 26t-31.5 15.5t-33 5q-17 0 -33 -4.5t-30 -12.5q-5 -2 -6 -2.5t-3 -0.5q-8 0 -12 4.5t-6 11.5
t-2.5 14t-0.5 12q1 17 3.5 35t6.5 32q2 13 5 26.5t5 26.5l3 13q3 17 6.5 20.5t19.5 5.5h7q1 0 1 0.5t1 0.5q29 8 65.5 12t69.5 4z" />
    <glyph glyph-name="six" unicode="6" horiz-adv-x="277" 
d="M184 460q5 0 11.5 -4t6.5 -11q0 -3 -1 -5t-3 -5v1l-3 -5l-51 -91l-6 -9l1 1q-1 -2 -2 -3.5t-2 -3.5l-11 -18q-9 -15 -26 -48q28 -2 57.5 -11.5t54 -26t40 -39t15.5 -50.5q0 -29 -16 -53.5t-41 -42t-54.5 -27.5t-56.5 -10q-41 0 -68.5 20.5t-27.5 68.5q0 35 12.5 72.5
t26.5 69.5q-2 4 -2 8q0 8 5 11t13 6q1 0 0 -0.5t1 0.5l20 34t20 35l20 34v-1q2 4 11 19.5t19.5 33t20 32t12.5 16.5zM168 56q34 18 47 36t13 38q0 19 -12.5 37t-32 31.5t-44.5 21.5t-49 8q-9 0 -18 -18.5t-16 -43t-11.5 -48t-4.5 -33.5q0 -21 11 -35t38 -14q17 0 39 5t40 15
z" />
    <glyph glyph-name="seven" unicode="7" horiz-adv-x="243" 
d="M52 412q21 5 43.5 8t45.5 3q53 0 71.5 -20.5t18.5 -62.5q0 -22 -4.5 -45.5t-10.5 -45t-13 -40t-11 -29.5q-3 -7 -7 -16t-6 -15q-3 -7 -5.5 -13.5t-4.5 -12.5q-11 -28 -20 -51.5t-20 -55.5q-2 -4 -6.5 -6.5t-9 -2.5t-8 2t-3.5 7q8 35 17.5 66t20.5 61l4 10q1 3 2.5 7
t2.5 8q10 32 20.5 63t16.5 60q2 11 4.5 23.5t2.5 24.5q0 23 -13 38t-47 15q-20 0 -43 -3t-43 -7l-5 -2q-2 -2 -11 -2l-18 2q-10 0 -10 10q0 8 1 11.5t9 3.5z" />
    <glyph glyph-name="eight" unicode="8" horiz-adv-x="258" 
d="M220 394q-7 0 -11 4q-6 0 -9 -1q-3 0 -6.5 -0.5t-7.5 -0.5l-20 -2q-18 -3 -39.5 -8t-40 -12t-31.5 -17t-13 -24q0 -15 10 -31t25 -31t33 -28.5t34 -24.5q5 5 7 8t4 8q8 10 17.5 20.5t18 19t15 14t8.5 5.5q5 0 9 -5t4 -12q-6 -8 -14 -19.5t-16 -21.5l-12 -15l-17 -20
q9 -8 19.5 -17.5t20 -20.5t15.5 -22.5t6 -22.5q0 -13 -8.5 -27t-16.5 -21q-10 -8 -27 -20t-38 -23t-42.5 -19t-40.5 -8q-23 0 -34.5 10.5t-11.5 24.5q0 15 11.5 34.5t19.5 30.5q17 23 37 46.5t38 44.5l-3 3h1q-33 26 -60 51t-44 63q-2 5 -3 11.5t-1 12.5q0 22 14.5 39.5
t41 30.5t62.5 20t79 7q15 0 27 -3.5t12 -13.5t-5.5 -12.5t-13.5 -4.5h-3zM159 82q16 11 22.5 19t6.5 17q0 14 -13 26t-31 25l-10 -10q-26 -27 -50 -57t-35 -65q31 1 59.5 14.5t50.5 30.5z" />
    <glyph glyph-name="nine" unicode="9" horiz-adv-x="286" 
d="M247 415q2 -7 -0.5 -13.5t-12.5 -6.5q-8 0 -18 6q-5 2 -10 3.5t-10 1.5q-23 0 -47.5 -13t-46 -32.5t-37.5 -41.5t-22 -39q-2 -8 5.5 -10t14.5 -2q19 0 45 5.5t50 14t40.5 19t18.5 21.5q0 10 8.5 23t19 21t19.5 7t9 -18q0 -20 -4.5 -27.5t-13.5 -15.5h1l-3 -4
q-11 -34 -19 -70t-15 -69l-3 -14l-7 -31q-6 -29 -11 -59.5t-5 -61.5q0 -8 -2 -12.5t-13 -4.5t-13 7.5t-2 15.5q0 64 12 128.5t29 127.5q-29 -18 -68.5 -32.5t-71.5 -14.5q-26 0 -43 11t-17 37q0 12 18.5 39.5t47 56.5t63.5 51t69 22q15 0 25.5 -6t19.5 -20z" />
    <glyph glyph-name="colon" unicode=":" horiz-adv-x="72" 
d="M11 111q0 3 3.5 10t16.5 12q2 0 3.5 1t3.5 1h10q8 0 11.5 -9.5t3.5 -13.5q0 -14 -7.5 -18.5t-15.5 -4.5q-10 0 -19.5 5.5t-9.5 16.5zM11 22q0 6 3 10.5t13 8.5q3 3 11 3h10q8 0 11.5 -8t3.5 -12q0 -14 -7.5 -19.5t-15.5 -5.5q-10 0 -19.5 6.5t-9.5 16.5z" />
    <glyph glyph-name="semicolon" unicode=";" horiz-adv-x="71" 
d="M21 10q-10 4 -10 15q0 5 3 9.5t11 4.5q20 0 28.5 -8t8.5 -20q0 -8 -5.5 -20.5t-12.5 -24.5t-13.5 -20.5t-7.5 -8.5q-15 0 -15 17q1 11 3.5 17.5t5.5 13.5t5.5 13t2.5 8q0 3 -4 4zM11 111q0 3 3.5 10t16.5 12q2 0 3.5 1t3.5 1h10q8 0 11.5 -9.5t3.5 -13.5
q0 -14 -7.5 -18.5t-15.5 -4.5q-10 0 -19.5 5.5t-9.5 16.5z" />
    <glyph glyph-name="less" unicode="&#x3c;" horiz-adv-x="156" 
d="M85 198q1 1 4.5 2.5t7.5 1.5q5 0 10.5 -4t5.5 -11q0 -8 -13 -21v1l-11 -13q-12 -14 -23.5 -28t-16.5 -22q8 -8 25.5 -20.5t37.5 -24.5l33 -21q2 -2 2 -10q0 -14 -15 -14q-2 0 -5 0.5t-4 2.5q-3 3 -21.5 12.5t-39.5 21.5t-37.5 25.5t-16.5 25.5q0 14 17 33t37 37h-1l24 26
v0z" />
    <glyph glyph-name="equal" unicode="=" horiz-adv-x="175" 
d="M15 174q-5 1 -7 5.5t-2 9.5q0 6 13.5 10.5t31.5 7t35 3.5t24 1q6 0 14 -0.5t15.5 -2t12.5 -5t5 -9.5t-14 -10.5t-32 -7t-35 -3.5t-23 -1h-16.5t-18.5 1zM24 118q-5 2 -7.5 7.5t-2.5 7.5q0 4 8.5 7.5t22 6t28.5 4t29 1.5q5 0 10 0.5t10 0.5q13 0 17 1q5 0 11.5 -3t6.5 -11
q0 -7 -9.5 -12t-21.5 -8.5t-24.5 -5.5t-18.5 -2q-13 0 -25.5 1.5t-26.5 3.5q-1 0 -1.5 0.5t-1.5 0.5h-4z" />
    <glyph glyph-name="greater" unicode="&#x3e;" horiz-adv-x="156" 
d="M52 202q1 0 2 -0.5t3 -0.5h3q6 -9 13.5 -17t14.5 -14q20 -18 36 -36t16 -32q0 -9 -9.5 -18.5t-23.5 -19.5t-31.5 -19.5t-33.5 -17.5l-3 -1l-4 -2t-10 -7q-2 -2 -5 -2.5t-5 -0.5q-14 0 -14 14q0 5 14 16t32 24l11 7h-1q2 2 9 7.5t15 10.5q9 6 19 13q-6 8 -16.5 21.5
t-21.5 26.5v-1l-12 13q-13 13 -13 21q0 15 15 15z" />
    <glyph glyph-name="question" unicode="?" horiz-adv-x="183" 
d="M0 306q0 5 4 10t9 5q4 0 9 -3h1q1 0 1 0.5t1 0.5t1.5 0.5t1.5 0.5q14 2 31.5 4t34.5 2q11 0 25 -1.5t26 -5.5t20.5 -11t8.5 -17q-5 -29 -27.5 -51t-48.5 -39h-1q-18 -14 -32.5 -26.5t-14.5 -23.5q0 -2 4.5 -6t10.5 -9q3 -3 4.5 -5.5t1.5 -9.5q0 -15 -15 -15
q-11 0 -18.5 6t-12.5 14t-7 15.5t-2 10.5q0 12 7.5 25t19 25t24.5 23t25 21l9 6q8 6 12.5 9.5t7.5 6.5t5 7t7 10q-8 4 -22 4.5t-28 0.5h-17.5t-18.5 -1q-4 0 -7.5 -0.5t-6.5 -0.5h-9q-14 0 -18.5 3t-4.5 10zM56 56q5 0 9 -4q2 0 3.5 0.5t3.5 0.5q12 0 12 -15
q0 -11 -7.5 -19.5t-20.5 -8.5q-11 0 -17.5 6t-6.5 14q0 5 5 10q2 4 7 10t12 6z" />
    <glyph glyph-name="at" unicode="@" horiz-adv-x="379" 
d="M220 116q0 -9 -4 -12t-11 -3t-14 7q-3 2 -6 4.5t-5 2.5q-9 0 -19 -3.5t-19 -9.5t-15 -13t-6 -14q7 0 17 2t20 5q1 0 2 0.5t2 0.5q15 5 24 5q25 0 29 -10.5t5 -27.5q0 -6 2 -16q21 2 40.5 11t34.5 22t24.5 27.5t9.5 27.5q0 21 -17 38.5t-43.5 30.5t-58.5 20.5t-61 7.5
q-30 0 -51.5 -10t-35.5 -26.5t-20.5 -37t-6.5 -42.5q0 -36 16.5 -62.5t41.5 -43.5t53 -25t51 -8h14.5t17.5 1h7q2 0 4 0.5t4 0.5q7 0 11 -5t4 -10t-8 -8.5t-19 -5.5t-22.5 -3.5t-18.5 -1.5q-33 1 -67.5 11.5t-62 31t-45 51t-17.5 72.5q0 29 9.5 58t26.5 52.5t42 38t56 14.5
q46 0 88 -13t74 -33.5t51 -45.5t19 -50q0 -32 -32 -62.5t-109 -49.5q-1 -1 -4.5 -2.5t-8.5 -1.5q-13 0 -16.5 10t-5.5 21q0 1 -0.5 2.5t-0.5 2.5q-2 8 -2 10q-1 3 -1 5q-2 0 -7 -2t-13 -4l-8 -2h2q-11 -4 -22.5 -7t-22.5 -3q-14 0 -25 7.5t-11 27.5q0 13 9 27t23.5 25.5
t31.5 18.5t32 7q31 0 44 -29v-4z" />
    <glyph glyph-name="A" unicode="A" horiz-adv-x="473" 
d="M-35 -53q-5 2 -7 4.5t-2 8.5q0 5 3 9.5t13 4.5q5 -1 15 9.5t22.5 27t26.5 36.5t26 39.5t22 35t14 23.5l35 72q-35 18 -71 35.5t-70.5 32t-66.5 23t-58 8.5q-3 0 -8 -1.5t-10 -3.5l-17 -5q-18 0 -18 15q0 4 6.5 8.5t15.5 8t18 5.5t14 2q25 0 58.5 -8.5t70.5 -22t76 -31
t76 -35.5l66 138l10 21q14 30 29 59t37 61q1 1 3 2t8 1q12 0 21 -7.5t15.5 -18t11 -22.5t6.5 -22q2 -4 2 -6l4 -6q12 -32 21 -68t16.5 -73.5t13 -75t9.5 -71.5l15 -114l-1 1q6 -13 13 -36t12.5 -48.5t9 -49.5t3.5 -38q0 -9 -5.5 -14t-11.5 -5q-9 0 -18.5 23t-18 53.5
t-14.5 61t-8 45.5q-20 28 -50.5 51t-59.5 40l-21 12l-36 20h1q-18 11 -34.5 21t-34.5 21l-38 -74q-3 -5 -13 -21t-23.5 -36.5t-29.5 -43t-32.5 -41.5t-31.5 -31t-26 -12zM176 231q29 -14 56 -30.5t56 -31.5l6 -4q3 -2 10 -5t14 -8q21 -13 40 -24t33 -24q-11 83 -25 163.5
t-37 160.5v2q0 1 -1 2.5t-2 3.5l-2 3v2q-5 13 -9 26.5t-9 19.5q-11 -15 -19.5 -34.5t-17.5 -38.5l-8 -13v1l-15 -30z" />
    <glyph glyph-name="B" unicode="B" horiz-adv-x="407" 
d="M6 469q3 3 5 3.5t7 0.5q1 1 2 1v23q0 5 1 11t7 16h6q3 0 8.5 -2.5t7.5 -7.5l1 -5v-30q9 1 20 1.5t21 0.5q30 0 66 -5t67.5 -16t53 -28.5t21.5 -42.5v-6.5t-2 -7.5q-16 -33 -43 -54.5t-58 -37.5q9 1 16.5 1h17.5q33 0 61.5 -6.5t50 -19t33.5 -32t12 -45.5
q0 -20 -7.5 -44.5t-24.5 -50.5q-25 -38 -60 -67.5t-76 -51t-85.5 -36.5t-87.5 -24v-2q0 -12 -3 -24t-13 -12q-15 0 -15 16v16q-35 -6 -72 -6q-8 0 -31 2t-47 6t-43 9.5t-19 12.5q0 5 3 9.5t14 4.5q67 -14 118 -14q19 0 38 1.5t39 6.5v35t1 36q0 15 0.5 38.5t0.5 37.5
q0 66 0.5 131.5t2.5 119.5q0 23 -1 55t-1 57q-6 2 -11 6t-5 10q0 7 3 10zM58 327q0 -42 -0.5 -92t-2 -102t-3.5 -102.5t-4 -92.5q26 6 59.5 17t67.5 27t66.5 36.5t57.5 46.5t40.5 57t15.5 68q0 19 -17.5 30t-40 17t-45 7.5t-31.5 1.5q-20 0 -41.5 -2.5t-42.5 -6.5l-51 -7
q-20 0 -20 19q0 2 1.5 6.5t6.5 10.5q8 7 27.5 16t36.5 17l4 2h-1q21 10 43 20.5t39 21.5t28 22.5t11 22.5q0 15 -17 27t-42.5 19.5t-55.5 11.5t-55 4q-8 0 -13.5 -0.5t-12.5 -1.5h-7q-2 0 -1.5 0.5t-2.5 -0.5z" />
    <glyph glyph-name="C" unicode="C" horiz-adv-x="437" 
d="M444 463q-2 -6 -7 -4l-10 3q-4 1 -2 6q-12 0 -28 1q-14 0 -32 0.5t-38 0.5q-42 0 -92.5 -10t-94.5 -36.5t-74 -72.5t-30 -118q0 -50 11.5 -96t34.5 -81t58 -56t82 -21q51 0 100.5 17t87.5 38q9 0 12 -3.5t3 -10.5q0 -5 -3.5 -9.5t-7.5 -4.5q-42 -23 -96 -40.5t-106 -17.5
q-30 0 -58 7.5t-54 24.5q-22 18 -41 48.5t-33 66.5t-22 75t-8 76q0 41 10.5 73.5t28.5 58t40.5 44.5t46.5 33q51 29 103.5 39.5t99.5 10.5q38 0 68.5 -5.5t47.5 -13.5q6 -3 6 -11z" />
    <glyph glyph-name="D" unicode="D" horiz-adv-x="427" 
d="M73 430q-23 -51 -31 -107t-8 -113q0 -45 3 -87.5t7 -82.5l4 -36q1 -2 1 -6q0 -6 -4.5 -9.5t-9.5 -3.5q-2 0 -4.5 0.5t-11.5 5.5q-2 2 -2 6q-1 21 -3 44t-5 51q-3 37 -6.5 79t-3.5 84q0 36 4 71t12 66.5t21.5 57.5t32.5 45q42 42 102 42q45 0 89.5 -32.5t80.5 -81.5
t58 -106t22 -106q0 -54 -23.5 -99t-61 -81t-84 -61.5t-92.5 -40.5q-3 0 -5 -1q-14 -5 -27.5 -8.5t-30.5 -3.5h-31q-21 0 -29.5 2t-21.5 7l-35 16q-3 3 -3.5 7t-0.5 6q0 5 4 10t14 5l16 -7q15 -7 29.5 -11.5t31.5 -4.5q44 0 94 18t94 48t76.5 68t41.5 77q5 25 5 48
q0 45 -19 97t-49 96t-68 73t-77 29q-30 0 -56 -19.5t-40 -50.5z" />
    <glyph glyph-name="E" unicode="E" horiz-adv-x="395" 
d="M370 467q-30 -5 -67 -11.5t-74.5 -16.5t-73 -24t-63.5 -33.5t-44.5 -45t-16.5 -58.5q0 -23 10 -36t26 -20.5t37 -9.5t42 -2q23 0 46 2l46 4q21 2 42.5 4t44.5 2q17 0 34 -3.5t22 -14.5v-5.5t-2 -5.5v1q-17 -20 -35 -37.5t-38 -34.5l-15 -13q-19 -17 -37 -33.5t-32 -33
t-22.5 -33.5t-8.5 -33t24 -22.5t54 -6.5q18 0 36.5 2t34 5t26 7t12.5 8q1 1 3 2.5t4 1.5q14 0 14 -13q0 -11 -11 -20t-30 -16t-44.5 -10.5t-53.5 -3.5q-21 0 -39.5 3t-33 10.5t-23 20t-8.5 30.5q0 21 11 42t28 42t39 41.5t44 40.5q14 11 25 22l22 22q-6 1 -13.5 1.5
t-14.5 0.5q-15 0 -30 -1.5t-32 -3.5l-18 -2q-19 -3 -41 -5t-42 -2q-22 0 -46 4t-44.5 14.5t-33.5 29.5t-13 50q0 16 3.5 33.5t9.5 33t13.5 29t16.5 21.5q31 28 66.5 46.5t72.5 30t75 18.5t75 12l29 4q13 2 25 4t25 4h5t5 -2q3 -3 3.5 -7.5t0.5 -11.5q0 -8 -8 -10z" />
    <glyph glyph-name="F" unicode="F" horiz-adv-x="479" 
d="M-176 145q-3 3 -3 10t3 11t12 4q2 0 3.5 -0.5t9.5 -4.5l26 -21q17 -16 35 -30t33 -22q33 -20 69.5 -34t78.5 -19q-4 25 -5.5 48.5t-1.5 50.5q0 22 1.5 47t6.5 56q17 113 60 189.5t117 133.5q22 15 48.5 21.5t55.5 6.5q50 0 86.5 -16.5t60 -43.5t35 -61t11.5 -68
q0 -45 -13.5 -90t-31.5 -83q-29 -63 -78 -111t-112 -78q58 25 102 48q7 0 11.5 -3t4.5 -12q0 -2 -0.5 -2.5t-0.5 -1.5v-2q-36 -23 -69 -38.5t-65 -29.5l13 2q22 3 47 3q28 0 58.5 -3t56 -13t42.5 -28.5t17 -49.5q0 -45 -19.5 -81.5t-51 -61.5t-70.5 -38.5t-78 -13.5
q-78 0 -130 50t-88 158q-17 0 -17 15q0 2 1 8.5t9 8.5q-1 3 -1 6v1v-1v1q-2 11 -4 21t-4 21q-48 7 -93 21.5t-77 40.5l-31 25q-16 13 -32 25.5t-34 26.5zM234 2l34 14l34 14q-69 -27 -143 -27h-27v-4q1 -9 2 -14t3 -16q29 10 63 15l-1 -1zM162 360q-20 -51 -29.5 -112.5
t-9.5 -127.5q0 -20 0.5 -41.5t3.5 -43.5q7 -1 14.5 -1h15.5q76 0 148.5 29.5t124.5 89.5q16 18 33 46.5t31.5 62.5t23.5 71t9 72q0 33 -11 61t-30.5 48.5t-46 31.5t-58.5 11q-36 0 -70.5 -17t-63 -45t-51 -63t-34.5 -72zM205 -47q-11 -5 -26 -11t-32 -11q11 -35 28.5 -67.5
t40.5 -58t51 -41t61 -15.5t66 13t59 35t42 51t16 61q0 21 -14 33.5t-34.5 18.5t-43 7.5t-39.5 1.5q-40 0 -83.5 -2t-85.5 -12h1z" />
    <glyph glyph-name="G" unicode="G" horiz-adv-x="652" 
d="M601 433q0 -1 2 -3l1 1q2 -2 2.5 -5.5t0.5 -5.5q0 -6 -5 -10t-10 -4q-6 0 -11 6t-11 14q-4 6 -7 11.5t-7 7.5q-27 15 -65 22t-79 7q-67 0 -135 -15t-122.5 -47.5t-89 -83t-34.5 -121.5t24 -121.5t64 -83t90 -47.5t103 -15q37 0 85.5 7.5t92.5 26t74.5 50.5t31.5 80
q-11 20 -46.5 34.5t-95.5 14.5q-20 0 -41 -0.5t-39 -5.5q3 0 0.5 -1l-7.5 -3t-10.5 -4t-9.5 -3l-7 -1q-14 -8 -26 -12.5t-27 -4.5q-11 0 -15.5 5t-4.5 13q0 7 9 14t22.5 13t30.5 10.5t32 7.5l12 4l12 6q39 17 75.5 27t79.5 14q25 0 41.5 -9t26 -23.5t13.5 -32.5t5 -37
q4 -9 6.5 -20.5t2.5 -20.5q0 -16 -5 -32t-13 -30l1 1q-2 -12 -5 -24l-6 -24l-4 -16q-9 -36 -16.5 -72t-7.5 -73q0 -16 5 -29.5t25 -13.5q8 0 15 -1.5t7 -14.5q0 -11 -11 -13t-20 -2q-15 0 -24.5 8t-15.5 19.5t-8 25t-2 25.5q0 36 6.5 72.5t14.5 70.5q2 5 2 5.5t2 8.5
q-14 -11 -29 -17l-61 -28q-12 -5 -21 -8.5t-18 -6t-19.5 -4.5t-25.5 -5l-58 -7q-11 -2 -23 -3t-23 -1q-20 0 -40 3.5t-38 8.5l-38 16q-23 9 -43 17.5t-38.5 21.5t-34.5 31t-30 47q-22 40 -30.5 80.5t-8.5 75.5q0 68 28.5 124t83.5 95.5t134 61.5t181 22q41 0 81 -8t69 -28
h-1q8 -4 15 -13.5t13 -20.5zM586 165q0 2 2 0q-6 16 -19 25.5t-36 9.5q-24 0 -51 -9q30 -1 55 -6t41 -15h-1z" />
    <glyph glyph-name="H" unicode="H" horiz-adv-x="604" 
d="M676 544q0 -16 -17 -16h-3q-5 -10 -11.5 -31t-13 -45.5t-13 -50t-10.5 -44.5l-4 -15q-5 -21 -8.5 -39.5t-6.5 -35.5l-3 -15q-2 -13 -3.5 -22.5t-3.5 -21.5l38 10t36 10q7 0 13 -4t6 -10q0 -5 -4 -8.5t-9 -5.5l-84 -26l-5 -30q-8 -42 -13 -84.5t-4 -85.5q0 -12 1 -27
t3 -30q2 -5 2 -10t1 -8q2 -8 2.5 -10.5t1.5 -4.5q2 -5 4.5 -11t6.5 -20q0 -8 -4 -15.5t-15 -7.5q-2 0 -5.5 2t-8.5 4q-14 14 -16.5 21.5t-4.5 17.5l-5 20q-19 65 -53.5 126.5t-88.5 99.5q-2 1 -4 3l-3 3q-35 -7 -72.5 -11t-75.5 -4q-14 0 -30.5 0.5t-31.5 2.5v-22.5
t-1 -34.5q0 -14 -0.5 -35t-0.5 -36q-1 -42 -1.5 -82.5t-0.5 -62.5v-23q0 -16 -14 -16q-2 0 -4.5 16t-5 41t-5 55.5t-4 59t-2.5 51.5t-1 34v46q0 5 0.5 8t0.5 9q-1 0 -2 0.5t-2 0.5q-17 4 -32.5 9t-27.5 10.5t-19.5 13t-7.5 16.5q0 14 9 25.5t23 20.5t30 14.5t30 8.5
q-1 42 -1.5 94.5t-0.5 99.5v23.5t1 24.5q5 13 15 13q2 0 8 -5t6 -10q0 -24 0.5 -51.5t2.5 -56.5l2 -43l3 -87q53 -2 115.5 -24.5t117.5 -58.5q40 8 78.5 17.5t76.5 20.5l14 66l7 33q11 52 21.5 100t21.5 85t24 58.5t29 21.5q13 0 16 -17v-2zM536 164q-29 -8 -57.5 -15
t-58.5 -13q29 -27 54 -59.5t43 -67.5q2 38 7 76.5t12 78.5zM230 148q48 0 96 6q-35 18 -81 34t-89 20q1 -16 1 -28.5v-27.5q30 -3 46.5 -3.5t26.5 -0.5zM119 204q-14 -5 -29 -11t-23 -14q5 -7 19.5 -12.5t32.5 -8.5q1 11 0.5 21.5t-0.5 24.5zM65 176l2 3q-1 1 -1 2z" />
    <glyph glyph-name="I" unicode="I" horiz-adv-x="109" 
d="M-59 466q-1 1 -1 4q-2 4 -2 7q0 5 4 10.5t12 5.5q4 0 7.5 -1.5t6.5 -3.5q4 -2 9 -2q15 0 33 8.5t35 20.5t31 25.5t21 23.5h10q11 0 13 -6t2 -18q-4 -6 -7 -18.5t-5 -27.5t-4 -32t-4 -32q0 -2 -0.5 -5.5t-0.5 -5.5l-4 -36q-2 -17 -5 -33t-6 -33l-7 -37
q-12 -61 -21.5 -123.5t-9.5 -122.5q0 -14 1 -34t5 -40q2 2 7 2q8 0 11 -5.5t3 -10.5q0 -1 -0.5 -2t-0.5 -3v-4q0 -4 1 -9t3 -10l-1 1q2 -5 5 -11t3 -13q-2 -8 -4.5 -11t-11.5 -3q-12 0 -22.5 16t-18 39t-12 49.5t-4.5 47.5q0 62 9 123t20 124q2 13 4 25.5t4 26.5l9 57v5t1 5
v-1l3 19q2 20 4 38.5t6 38.5q-23 -17 -48 -27.5t-47 -10.5q-11 0 -20 2t-16 8z" />
    <glyph glyph-name="J" unicode="J" horiz-adv-x="611" 
d="M287 532q-10 4 -10 15q0 5 3 10t14 5q24 -4 54.5 -31.5t60 -63t53.5 -69.5t35 -50q18 -27 36.5 -61.5t33 -73t23.5 -78.5t9 -76q0 -69 -25 -119t-64 -83t-86 -49t-92 -16q-60 0 -125 24t-117 66q-15 12 -31 27.5t-29.5 34.5t-22 40.5t-8.5 46.5q0 30 15 51.5t41 35.5
t59.5 22.5t71 12.5t76 5.5t73.5 2.5l59 2q5 -3 9 -5.5t4 -7.5q0 -6 -5.5 -10t-10.5 -5l-49 -3q-47 -2 -101 -6t-100 -14t-76 -28.5t-30 -51.5q0 -40 29 -77t72.5 -65t94.5 -44.5t95 -16.5q56 0 101 21q74 37 103 91.5t29 119.5q0 43 -12.5 89.5t-33 92t-46 88t-50.5 77.5
q-9 11 -25 30t-34 38.5t-36.5 35t-32.5 20.5h-2z" />
    <glyph glyph-name="K" unicode="K" horiz-adv-x="518" 
d="M60 472v12v10t-1 11v5q-1 5 -1.5 11.5t-0.5 13.5q0 1 2 5q1 5 3 8.5t10 3.5q7 0 12 -19t7.5 -46t3.5 -57t1 -53v-30l4 -89h16q29 0 54.5 -1.5t51.5 -7.5q38 26 73.5 58.5t62.5 64.5q6 9 15.5 24t18 33t14.5 37.5t6 36.5q0 10 -3.5 17.5t-8.5 15.5q-11 0 -11 18v4t2 4t5 4
t9 2q9 0 15 -10.5t10 -24.5t6 -27t2 -17q0 -36 -18 -72.5t-44.5 -70.5t-56.5 -62.5t-55 -47.5q32 -9 65 -22t62 -31t53 -40.5t38 -48.5q31 -65 31 -125q0 -82 -58 -153q-2 -2 -12.5 3t-10.5 13l-1 2v1q0 11 5 12.5t13 0.5q16 23 25 55.5t9 66.5q0 51 -23 91t-60 69.5
t-83.5 49t-93.5 30.5l-25 -18l-10 -7q-22 -14 -43 -27.5t-39 -22.5l4 -40l4 -52q2 -34 5 -67.5t6 -66.5q0 -8 -5 -12.5t-10 -4.5q-8 0 -14 23t-11 55.5t-8.5 69t-5.5 63.5l-2 18q-4 -2 -6.5 -3t-5.5 -3q-32 -14 -64.5 -24.5t-69.5 -10.5q-32 0 -53 12.5t-21 49.5v10t1 8
q0 3 1 5v-1q3 18 17 32t33.5 24t43 17t46 11t41 5.5t29.5 2.5v5q0 5 -0.5 11.5t-0.5 13.5v134v52zM-80 115q17 0 37 4t40 10.5t38 14t32 14.5q0 2 -0.5 3.5t-0.5 4.5q-2 13 -2.5 24.5t-1.5 25.5h-5q-19 -1 -48 -4.5t-56 -11t-46.5 -20t-19.5 -33.5q0 -14 9 -23t24 -9z
M173 216q-19 1 -37.5 1.5t-33.5 0.5q0 -6 0.5 -13.5t1.5 -13.5q1 -4 1.5 -7t0.5 -8l7 4z" />
    <glyph glyph-name="L" unicode="L" horiz-adv-x="570" 
d="M307 543q-6 0 -10 5t-4 10q0 9 15 11.5t36 4.5q15 2 31.5 4t26.5 5q17 5 23 7.5t11 4.5l7 4q11 6 22.5 11t20.5 6q10 0 13 -4.5t3 -9.5q0 -11 -6 -19l-1 -2q-3 -5 -6 -12.5t-3 -24.5q0 -24 8 -58.5t16 -62.5q4 -12 7 -22.5t5 -21.5q8 -35 13 -74t5 -76q0 -41 -6.5 -79.5
t-29.5 -76.5l21 -19q22 -21 50 -45t54 -41q51 -30 108 -45t111 -15q38 0 76.5 5.5t76.5 13.5q5 0 12.5 -3t7.5 -11q0 -5 -11.5 -10t-29 -9t-39 -7t-41 -5t-35 -3t-21.5 -1q-54 0 -112 14.5t-119 46.5q-39 22 -69 46t-55 47l-6 6q-25 -36 -58 -65.5t-69.5 -50.5t-76 -32.5
t-77.5 -11.5q-34 0 -69.5 8.5t-64 24.5t-47 39t-18.5 52q0 28 20 60.5t55.5 60.5t84 46.5t106.5 18.5q22 0 33 -4h-1l14 -4l11 -3h-1q23 -6 40.5 -11.5t34 -13.5t34.5 -20t41 -33q17 35 23.5 68.5t6.5 72.5q0 62 -17 132l-7 24l-7 27q-6 29 -13 59.5t-7 59.5v5v13.5t2 12.5
l-4 -2v1l-7 -4q-7 -4 -16.5 -9t-16.5 -7q-23 -7 -46.5 -8t-49.5 -1h-9zM193 -85q36 0 73.5 11t71.5 30.5t63 45t50 55.5l1 3l6 6h1q-19 16 -39.5 31t-43.5 27t-50 19t-58 7q-35 0 -74.5 -11t-73.5 -30.5t-56 -45.5t-22 -57v-7v1q28 -45 68 -65t83 -20z" />
    <glyph glyph-name="M" unicode="M" horiz-adv-x="518" 
d="M-60 118q-16 0 -16 14t15.5 17t34.5 5q19 0 31 5q35 16 69.5 40t64.5 54t52 65t33 74q-2 54 -20 99t-47 92q-2 2 -2 6t2 6q3 3 6.5 5.5t8.5 2.5q3 0 5.5 -0.5t6.5 -4.5q46 -54 60 -118t14 -136q0 -40 -3 -77q-2 -23 -3 -54.5t-1 -67.5q0 -31 3 -58t17 -42q1 0 2 1
q6 2 8 5q8 8 16 21t15 27t12.5 27.5t8.5 24.5q35 97 52 172.5t27 127.5l3 14q4 21 9 41t11 36t13 25.5t16 9.5t15.5 -13t11.5 -35t7.5 -51t2.5 -60q0 -39 -2.5 -75.5t-5.5 -72.5q-3 -37 -5 -72.5t-2 -72.5q0 -20 0.5 -45t3.5 -51.5t9.5 -52.5t18.5 -48q0 1 5 -4t13 -11
q11 -9 19.5 -18t8.5 -16q0 -14 -20 -14l-10 7q-10 7 -10 9q-11 10 -22 20.5t-16 21.5q-18 45 -26.5 101t-8.5 107q0 80 6 149q3 37 5 75.5t2 80.5v78q-1 -6 -7 -34t-15 -68l-6 -23l-7 -29q-7 -29 -14 -60t-14.5 -60.5t-15 -56t-15.5 -47.5l-8 -19q-7 -17 -15.5 -36
t-20.5 -35.5t-27 -27.5t-36 -11q-14 0 -23.5 11.5t-15 29.5t-8 40.5t-2.5 44.5q0 38 1.5 69t3.5 58l3 33q-16 -29 -39 -55.5t-50 -48.5t-57 -38t-61 -25q-8 -2 -17.5 -2.5t-17.5 -0.5t-17 -0.5t-19 -4.5h-4z" />
    <glyph glyph-name="N" unicode="N" horiz-adv-x="476" 
d="M-90 -90q-11 5 -11 16q0 8 6 11t14 3q10 0 20.5 6t20.5 15t19 20t17 21q14 22 31.5 57.5t35 75.5t34 82.5t30.5 79t24 64t14 39.5v11q0 5 -0.5 9t-0.5 7q-1 8 -1 20v20q0 13 1 27t4.5 25t9.5 18t15 7q8 0 13.5 -4t5.5 -25q0 -41 -3 -61.5t-7 -36.5l-3 -16q2 -43 6 -91.5
t11 -91.5q3 -18 7 -46t10.5 -56t17 -53t27.5 -37l6 -4q21 -16 46 -2q25 13 43 35t29.5 49t17 55.5t5.5 54.5q0 67 -26.5 135t-59.5 127q-1 2 -7 13.5t-13.5 25t-15 26t-10.5 16.5v-1q-3 1 -3 11q0 15 14 15q10 0 16 -10t8 -20l-1 1l3 -7v1l24 -39q20 -34 39 -68t33.5 -71
t23.5 -78.5t9 -89.5q0 -34 -7 -63.5t-23 -54.5q-10 -17 -22 -36.5t-27.5 -36t-35 -27.5t-43.5 -11t-41.5 14t-29.5 34.5t-19.5 44.5t-12.5 44l-12 55q-3 18 -5.5 32.5t-4.5 29.5t-4 32.5t-3 42.5q-23 -61 -51 -126.5t-58.5 -121.5t-60.5 -95t-56 -46q-3 -1 -7.5 -1h-9.5
q-2 0 -3 -0.5t-3 -0.5h-10v0z" />
    <glyph glyph-name="O" unicode="O" horiz-adv-x="691" 
d="M494 432q33 -24 66 -51t60 -58.5t44 -66.5t17 -75q0 -22 -8 -44t-26 -44q-29 -32 -67 -55.5t-81 -38.5t-88 -22.5t-88 -7.5q-57 0 -113.5 11.5t-101.5 37.5t-73.5 68t-28.5 102q0 23 5 51v3q0 1 0.5 2t0.5 3q4 22 23 45t43.5 44t50.5 38.5t45 27.5q31 17 67 30.5t68 19.5
q4 1 7.5 1.5t8.5 2.5q1 0 2 0.5t3 0.5q14 3 25 5t28 4q-30 17 -56.5 26t-46.5 9h-15q-2 0 -5 -0.5t-5 -0.5q-5 2 -8.5 7.5t-3.5 7.5q0 12 16 12q52 0 93.5 -15t82.5 -42q8 0 19.5 -1.5t21.5 -4.5t16.5 -8.5t5.5 -13.5zM607 286q-13 16 -32.5 36t-43 40.5t-50 40.5t-54.5 38
q-32 -3 -73 -12.5t-84.5 -24.5t-85.5 -36t-75 -48.5t-53 -61.5t-20 -75q0 -43 25 -76.5t65 -57t90.5 -35.5t101.5 -12q61 0 119.5 14.5t106.5 37.5q18 9 36 22t32.5 29.5t23.5 36t9 41.5q0 26 -10.5 54.5t-27.5 48.5z" />
    <glyph glyph-name="P" unicode="P" horiz-adv-x="430" 
d="M32 302q-5 6 -13.5 17.5t-19 24t-22 25t-20.5 21.5h-2q-8 0 -11 2t-4 3l-5 12q0 9 3.5 15t15.5 6q11 -4 26 -18t30 -31t28 -33t19 -24v1q2 -2 5.5 -7t8.5 -13v1l3 -6l7 -9q15 49 39 99t56.5 90t72.5 65t88 25q38 0 71 -16.5t51 -49.5l11 -19l3 -6q14 -24 26 -49.5
t12 -51.5v-19.5t-1 -19.5q0 -4 -0.5 -10t-0.5 -10v-20q-2 -45 -31.5 -91t-71.5 -87.5t-88.5 -77.5t-82.5 -62q8 -29 9 -58.5t1 -60.5v-10t-1 -10q-1 -16 -6 -45t-14 -58t-23 -50.5t-32 -21.5h-10q-13 0 -25 16t-22 37t-17 42.5t-10 32.5q-16 57 -26.5 124t-10.5 137
q0 48 6.5 99.5t16.5 96.5q-5 7 -9.5 13t-9.5 12zM152 369q-14 -32 -25 -62.5t-19 -61.5q37 -56 69.5 -114t49.5 -121l7 6q39 29 82 64t79 75.5t59 86t23 96.5q0 30 -8 64.5t-24.5 63t-42 47.5t-59.5 19q-33 0 -62 -14.5t-53 -38t-43.5 -52.5t-32.5 -58zM193 -25q0 1 1 4.5
t2 5.5q-15 58 -40 112t-57 105q-7 -38 -9.5 -75t-2.5 -74q0 -46 6 -99.5t16 -98.5l3 -13q8 -35 18.5 -74t32.5 -65q10 4 18.5 20.5t14.5 41t9 56.5t3 67q0 16 -2 32t-4 33l-2 12q-7 4 -7 10z" />
    <glyph glyph-name="Q" unicode="Q" horiz-adv-x="658" 
d="M298 50q5 -4 5.5 -7t0.5 -7q0 -9 -4 -10.5t-14 -1.5q-55 0 -106.5 28.5t-91 70.5t-63.5 90t-24 87q0 21 5.5 40t19.5 38q29 38 72 67.5t93 50t103.5 31t104.5 10.5q63 0 123 -19.5t106.5 -53t75 -79t28.5 -96.5q0 -29 -12.5 -61t-34 -62.5t-52 -57t-66.5 -43.5q2 -5 3 -8
t2 -5l-1 1l8 -18l2 -6l9 -25q16 -47 44.5 -91t74.5 -64q6 -2 16 -3t22 -3q22 -2 39.5 -6.5t17.5 -14.5q0 -14 -15 -14l-36 4q-32 3 -59 10t-58 32q-14 12 -25.5 27.5t-20 32.5t-15.5 34t-12 32q-1 5 -3 12t-4 12q-4 11 -9 25.5t-9 23.5q-28 -11 -58.5 -18.5t-63.5 -7.5
q-23 0 -43 6t-34.5 14.5t-22.5 19t-8 19.5q0 16 16 30t38 24t44.5 15.5t35.5 5.5q37 0 61 -18t44 -45q28 16 55 37.5t48 46t34 52.5t13 57q0 52 -31.5 91t-77.5 65t-99.5 39.5t-96.5 13.5q-52 0 -106.5 -13t-105.5 -34q-24 -11 -50 -26.5t-47.5 -35t-35 -44.5t-13.5 -56
q0 -43 26 -85t65 -76t84.5 -55.5t84.5 -22.5zM435 126q-23 0 -48.5 -10.5t-39.5 -28.5q8 -14 25.5 -19t40.5 -5q30 0 59.5 7t48.5 15q-16 23 -36.5 32t-49.5 9z" />
    <glyph glyph-name="R" unicode="R" horiz-adv-x="357" 
d="M173 542q-127 0 -251 -45q0 -1 0.5 -1t0.5 -1v-1q0 -14 -15 -14l-17 2q-15 0 -15 14q0 13 36 27t88.5 25t110 18.5t101.5 7.5q54 0 107.5 -7t102.5 -24q18 -6 41.5 -15.5t44 -24t35 -33.5t14.5 -44q0 -16 -7.5 -31.5t-18.5 -30t-23.5 -27t-23.5 -21.5q-47 -39 -102.5 -80
t-105.5 -77l-22 -15q-1 -1 -2 -1t-2 -1l-2 -2l-13 -8q-15 -11 -31 -22t-29.5 -21t-22 -18t-8.5 -12q0 -6 8 -12.5t19.5 -11.5t23 -9.5t17.5 -6.5q1 0 2 -0.5t3 -0.5l88 -34l16 -6q18 -6 38.5 -14t53.5 -26q0 -1 1 -2l4 -6q0 -6 -4 -12t-12 -6q-11 7 -35 16t-52 19l-37 13
q-29 10 -58.5 21t-53.5 23.5t-39 26t-15 27.5q0 21 21.5 40t46.5 37h-1l4 3h2l181 132l11 8q19 15 43.5 34t46 39.5t36 40t14.5 34.5q0 22 -20.5 38.5t-49 28.5t-58 20t-47.5 11q-42 8 -85 13t-84 5zM413 -62l1 -1zM78 483q-2 -9 -3 -16t-1 -12q0 -7 1 -16t3 -20
q1 -14 3 -33l2 -16q0 -3 0.5 -6.5t0.5 -6.5q5 -48 8.5 -102t3.5 -117q0 -12 -1 -40t-3.5 -62.5t-5.5 -71.5t-7 -67.5t-9 -50t-11 -19.5q-14 0 -14 17q8 68 10.5 136t2.5 134v66.5t-2 66.5q-1 23 -3 47t-4 47v-1q-3 29 -5 56.5t-2 49.5q0 5 1 15.5t4 21.5t7.5 19t12.5 8
q5 0 9 -3t5 -11v-4.5t-2 -4.5v1z" />
    <glyph glyph-name="S" unicode="S" horiz-adv-x="685" 
d="M588 490q-16 0 -16 15q0 5 6 10t14 9q-12 1 -27.5 1.5t-30.5 1.5t-26.5 1.5t-14.5 0.5q-25 0 -68.5 -2t-94.5 -9t-104 -21t-96 -37t-70 -57.5t-27 -83.5q0 -31 15.5 -55t40.5 -42t55 -30.5t59 -20.5q37 -8 75.5 -14.5t74.5 -12.5l21 -3q31 -5 65 -11t65 -15
q23 -6 47.5 -15t47 -21.5t41 -30t30.5 -40.5q5 -11 5 -23q0 -17 -10 -35t-25 -34.5t-31 -30t-28 -20.5q-69 -40 -130 -60.5t-127 -20.5q-24 0 -56 3.5t-61 12.5t-49.5 25.5t-20.5 42.5q0 19 11 30.5t28 17.5t38 8t41 4l15 2q32 3 65.5 4.5t63.5 1.5q49 0 98.5 -4t99.5 -12
q16 14 27 31t11 34q0 19 -16 34t-38 26.5t-45.5 19.5t-39.5 13q-36 10 -72 15q-13 0 -26 3q-7 1 -14 2.5t-14 2.5l-21 3q-34 5 -72.5 11.5t-77 17t-74.5 26t-63.5 37.5t-44 52t-16.5 70q0 51 22.5 88.5t60 65t86.5 45t102.5 27.5t107 14t100.5 4q12 0 38.5 -2t53.5 -6.5
t47.5 -10.5t20.5 -13q0 -6 -6 -12.5t-14.5 -12.5t-16.5 -10t-12 -5h-3zM321 -179q74 0 131.5 22.5t108.5 52.5q-38 5 -76 7.5t-73 2.5q-64 0 -130 -6l-18 -3q-13 -2 -30 -4t-32 -5t-25.5 -7t-10.5 -10q0 -13 16.5 -22.5t40 -15.5t50.5 -9t48 -3z" />
    <glyph glyph-name="T" unicode="T" horiz-adv-x="742" 
d="M910 484q23 -5 32 -12.5t9 -12.5q0 -6 -3 -9.5t-12 -3.5q-5 0 -15 3t-19 7h1l-80 14q-66 13 -132.5 25t-134 22t-135 15.5t-134.5 4.5q-16 0 -41 -1.5t-53.5 -6t-57 -13t-52 -23.5t-38 -37.5t-14.5 -54.5q0 -21 10.5 -33.5t26.5 -19t35.5 -8t37.5 -1.5q85 0 171 21
t169 48l9 2h-1q8 3 20 6.5t24.5 7.5t23.5 8.5t19 8.5q1 10 6.5 14.5t11.5 4.5q12 0 16.5 -8.5t4.5 -14.5q0 -3 -1 -5q2 -5 5.5 -13t6.5 -16h-1l8 -16l1 -4q18 -60 33 -120.5t18 -126.5l37 6l43 7q8 2 11.5 -4t-1.5 -12q-11 -13 -30.5 -18t-59.5 -12q-1 -60 -17 -121
t-52 -113q-23 -32 -55.5 -59t-70 -47t-76 -31t-73.5 -11q-33 0 -57 11t-39 28.5t-22 40t-7 45.5q0 39 12.5 70t35 56t52 45t64.5 36v-1q60 30 129 48.5t135 29.5q-2 46 -10 92.5t-22 93.5v-1l-10 24q-6 15 -11 30t-10 32q-18 -9 -41.5 -15.5t-36.5 -10.5l1 1q-5 -3 -8 -3
q-1 0 -1.5 -0.5t-1.5 -0.5q-10 -3 -17 -5.5t-17 -6.5l-67 -19q-12 -3 -25 -5.5t-26 -5.5l-25 -6q-15 -3 -37 -7.5t-46.5 -8.5t-50.5 -7t-49 -3q-17 0 -31 1.5t-23 6.5q-1 0 -2.5 1t-2.5 1l-16 7v-1q-14 6 -25.5 11.5t-20 14.5t-13.5 24t-5 39q0 42 19 71.5t49 48.5t67 29
t73 14.5t67.5 5.5t49.5 1q55 0 117 -6t125 -16t124.5 -21.5t114.5 -22.5zM633 0q5 24 8 50t4 49q-40 -7 -84.5 -17t-88.5 -24.5t-84 -33.5t-71 -43.5t-49 -55.5t-18 -68q0 -28 8 -47.5t21.5 -31.5t31 -17t35.5 -5q50 0 97.5 20t86 54t65.5 78t38 92z" />
    <glyph glyph-name="U" unicode="U" horiz-adv-x="647" 
d="M-147 456q-2 -1 -5 -1h-1q-5 0 -9.5 3.5t-4.5 8.5q0 9 7 14q28 19 63.5 34.5t71.5 26t69.5 16t59.5 5.5q23 0 48.5 -6t46.5 -20.5t35 -37.5t14 -57q0 -45 -11.5 -85.5t-22.5 -69.5v1q-1 -3 -2 -5t-1 -5q-2 -3 -3.5 -6.5t-4 -10t-7 -17.5t-11.5 -28q-10 -21 -20.5 -44
t-18.5 -45.5t-13.5 -43.5t-5.5 -40q0 -35 23 -50t59 -15q41 0 92 16t98 41t83.5 54.5t49.5 56.5l-1 -1l9 78v-1q3 37 7.5 78.5t10.5 77t13.5 59t16.5 23.5q13 0 22.5 -14.5t15 -35t8 -43t2.5 -38.5q0 -41 -5 -69.5t-13 -49t-17.5 -35.5t-19.5 -27q-2 -2 -3 -4.5t-3 -4.5
q-8 -10 -12 -25t-5.5 -32.5t-2 -36.5t-0.5 -36q0 -45 6.5 -90.5t23.5 -87.5q0 -9 -1.5 -15t-10.5 -6q-6 0 -7.5 0.5t-3.5 2.5q-26 53 -34.5 97t-8.5 89q0 23 0.5 42t2.5 42q-32 -30 -71 -56t-80.5 -44.5t-83 -29.5t-79.5 -11q-50 0 -84.5 22t-34.5 75q0 29 10 59
q11 33 23.5 64t25.5 60q24 55 44 109.5t20 103.5q0 45 -25 70t-82 25q-25 0 -55.5 -4.5t-58.5 -12.5q-33 -11 -70 -24t-66 -33h-2zM582 303q-2 -17 -2.5 -32t-1.5 -32q0 -5 -0.5 -8.5t-0.5 -6.5q0 -9 -0.5 -10.5t0.5 -2.5q11 25 17 53t6 55t-6 54z" />
    <glyph glyph-name="V" unicode="V" horiz-adv-x="200" 
d="M-20 339q5 8 15 8q8 0 10.5 -3.5t2.5 -11.5q0 -1 3 -7l10 -20l12 -22v1l19 -33q14 -32 24 -64t21 -64l6 -19q13 87 39 160.5t63.5 138t86.5 122.5t109 114q1 0 3 0.5t3 0.5q14 0 14 -15q0 -1 -0.5 -1.5t-0.5 -1.5q0 -4 -4 -8q-53 -51 -95 -103.5t-74.5 -108.5t-56.5 -118
t-40 -133q-6 -30 -10.5 -61.5t-8.5 -60.5v-2v-4v-4v-7q0 -20 -21 -26q-16 5 -20 20t-6 26l-2 9l-7 26q-12 48 -27 98t-39 100l-7 16l1 -1q-8 14 -16 30.5t-8 24.5z" />
    <glyph glyph-name="W" unicode="W" horiz-adv-x="574" 
d="M78 358q2 3 4.5 5t7.5 2q7 0 11 -6t4 -15q-23 -73 -38 -134.5t-24 -121.5q-2 -16 -4 -34.5t-2 -32.5q0 -24 6 -45q3 -5 12 -12q20 1 39.5 12.5t36 29t28.5 39.5t15 45q-2 8 -2.5 25t-0.5 27q0 3 1 4l4 3q3 3 14 3q6 0 11 -2t7 -11l3 -40v1q5 -28 18.5 -58.5t32.5 -56
t43 -42.5t51 -17q37 0 67.5 23.5t52.5 57.5t34.5 72.5t12.5 69.5q0 40 -14 78.5t-37 74.5t-52.5 69.5t-59.5 63.5l-9 10q-15 14 -30.5 29.5t-33 29t-35.5 24t-37 16.5q-7 3 -7 15q0 5 3 9.5t14 4.5q26 -7 55.5 -26.5t58 -44t54 -51t43.5 -47.5q22 -24 44 -54t39.5 -62
t28 -66.5t10.5 -67.5q0 -20 -3 -38q0 -1 -0.5 -2t-0.5 -2q0 -4 -0.5 -7t-1.5 -7l-3 -19q-5 -30 -24 -63t-46 -61.5t-60 -47t-66 -18.5q-26 0 -49.5 12t-44 32t-38 44.5t-29.5 50.5q-13 -22 -29.5 -40.5t-33.5 -32t-34 -21.5t-30 -8q-26 0 -45.5 20t-19.5 66q0 11 1 19.5
t3 17.5q0 2 0.5 4t0.5 4v5.5t1 5.5q0 2 0.5 4t0.5 4q11 75 29 144.5t39 135.5z" />
    <glyph glyph-name="X" unicode="X" horiz-adv-x="530" 
d="M545 487q-3 -13 -9 -13h-4q-26 -17 -51 -33t-51 -32q-25 -14 -51.5 -31t-52.5 -37q46 -53 78.5 -104t55 -106t37 -115.5t25.5 -131.5q0 -13 -5 -15t-10 -2t-8.5 0.5t-5.5 5.5l-4 19q-11 57 -26 118t-39 115q-25 54 -57 103t-70 91q-47 -38 -93.5 -82t-83.5 -93t-60 -103
t-23 -112q0 -14 1.5 -29.5t6.5 -32.5q0 -11 -5.5 -14.5t-10.5 -3.5q-7 0 -11.5 12t-7.5 27.5t-4 30.5t-1 21q0 58 23.5 115.5t61 110t85.5 99t98 83.5q-20 23 -41.5 43.5t-43.5 40.5l-23 22l-12 9l-13 11q-17 16 -35 30.5t-35 22.5q-8 1 -10 5t-2 11q0 2 0.5 6.5t2.5 6.5
q5 5 12 1v1q32 -15 62.5 -36t59.5 -46t55.5 -52.5t51.5 -53.5q22 15 44 27t45 26q3 2 8 5t9 5l10 6h-1q29 17 58 35t58 37q3 0 5.5 -3.5t4 -7.5t2 -8t0.5 -5z" />
    <glyph glyph-name="Y" unicode="Y" horiz-adv-x="542" 
d="M-334 472q41 11 87.5 20.5t91.5 9.5q42 0 86.5 -8.5t81 -29.5t60 -56t23.5 -87q0 -23 -1 -42t-2.5 -36.5t-4 -35l-5.5 -38.5l-10 -33q-8 -27 -16 -58t-8 -58q0 -14 3.5 -23t20.5 -11q34 0 69.5 16t66.5 33l9 4l6 3q59 32 115.5 69.5t108.5 89.5q-3 11 -8 25t-10 29l-4 11
q-14 36 -24.5 75t-10.5 79q0 19 4 38.5t13 35.5t23.5 26t35.5 10q34 0 56 -13t35.5 -33.5t19 -44.5t5.5 -46q0 -61 -21.5 -109.5t-68.5 -96.5q8 -31 11.5 -62t3.5 -61v-16t-1 -14v-9q0 -3 -0.5 -4.5t-0.5 -4.5q4 -3 9.5 -9t10 -12t7.5 -11t3 -7q0 -12 -15 -12q-6 0 -11 3.5
t-11 9.5q-11 -30 -29 -61t-31 -50q-22 -30 -57 -66t-78.5 -66.5t-92.5 -51.5t-98 -21q-34 0 -63 12t-50.5 30t-34 39.5t-12.5 41.5q0 33 23.5 61.5t57.5 51.5t71.5 40t65.5 28q27 10 59 20t66.5 18.5t70.5 14t71 5.5h15.5t14.5 -1q2 12 3 26t1 27q0 22 -3 41.5t-9 40.5
q-25 -21 -54 -42t-58.5 -40.5t-57.5 -36t-51 -28.5l-1 -1q-14 -8 -34.5 -18t-43 -19.5t-45 -16t-41.5 -6.5q-26 0 -43.5 11t-17.5 43q0 22 6.5 54t14.5 69q11 45 21 91t10 80q0 51 -18 84t-47 52.5t-66.5 27.5t-77.5 8q-55 0 -107.5 -9.5t-94.5 -23.5q-19 0 -19 16v5t2 5
l16 5zM447 -44q0 2 2 2l12 36h-10q-19 0 -40.5 -2.5t-42 -6.5t-38 -8t-29.5 -7q-23 -5 -55 -14t-67 -21.5t-68.5 -27.5t-60.5 -33.5t-43.5 -39.5t-16.5 -45q0 -20 10 -36.5t26 -29t37 -19.5t42 -7q50 0 101.5 22t97.5 58.5t83.5 83t59.5 95.5zM432 401q3 -29 13 -63.5
t21 -66.5q5 -10 8.5 -21t6.5 -20q27 33 48 74.5t21 83.5q0 16 -5.5 34.5t-16.5 34t-26.5 25.5t-34.5 10q-22 0 -29 -22t-7 -46v-6q0 -2 0.5 -3t0.5 -3v-11z" />
    <glyph glyph-name="Z" unicode="Z" horiz-adv-x="490" 
d="M2 502q-15 0 -15 14q0 9 17.5 15t40 9t44 4.5t30.5 1.5q17 0 34 -1t36 -3h6q20 -2 51.5 -6t67 -11.5t72 -19t65.5 -28.5t47 -39.5t18 -51.5q0 -15 -7 -33.5t-18 -38t-25 -38.5t-28 -36t-33 -36t-39.5 -38t-40.5 -37.5t-37 -33.5q-50 -42 -97 -87.5t-85 -99.5l4 -1h-1
q4 0 7 -0.5t5 -0.5q23 0 47 5.5t48 12.5h-1l32 9q27 8 52 16.5t52 17.5l19 5q19 5 37.5 11.5t37.5 11.5q7 0 13 -4.5t6 -9.5q0 -9 -17 -16l-61 -23q-44 -16 -96 -32t-102 -28l-13 -3q-13 -4 -27 -7t-29 -3t-32 5.5t-17 22.5q0 12 12 32t31 43t42 47t44 45t38 36.5t24 22.5
h-1l4 3l31 28l46 42h-1l8 9q20 19 41.5 41t39.5 45t29.5 47t11.5 47q0 31 -31 55.5t-81 41t-112 25.5t-124 9q-32 0 -62 -3t-56 -11h-2z" />
    <glyph glyph-name="bracketleft" unicode="[" horiz-adv-x="143" 
d="M127 436q0 -18 -14 -18q-16 0 -36 5q-2 0 -5.5 1t-5.5 1q-5 2 -8 3t-8 1q-4 -20 -4.5 -41.5t-0.5 -43.5v-91.5t1 -88.5q0 -21 0.5 -40.5t0.5 -39.5v-75q11 0 23 3q2 0 3.5 0.5t3.5 0.5l22 2q14 -4 14 -16q0 -3 -8 -7.5t-19 -8t-22.5 -6t-18.5 -2.5q-9 0 -20 3t-11 18
q0 67 -3 133q-2 34 -3 68t-1 69v43q0 5 -0.5 10.5t-0.5 10.5q0 24 1.5 47.5t6 42.5t12.5 31t22 12q17 0 36 -7q1 0 1.5 -0.5t1.5 -0.5q15 -5 21 -5h1l2 1q7 0 9.5 -2.5t6.5 -9.5v-3v0z" />
    <glyph glyph-name="backslash" unicode="\" horiz-adv-x="230" 
d="M27 419q2 -6 6.5 -11.5t9.5 -9.5q3 -4 7.5 -9.5t6.5 -9.5q61 -91 98 -195.5t61 -206.5q0 -8 -4 -12t-9 -4q-2 0 -7.5 1t-7.5 7q-31 102 -68 203.5t-90 188.5q-9 15 -19.5 26.5t-10.5 25.5q0 15 16 15q3 0 6 -3t5 -6v0z" />
    <glyph glyph-name="bracketright" unicode="]" horiz-adv-x="134" 
d="M-6 442q4 9 12 9q1 0 1 -0.5t1 -0.5h1q6 0 23 5q3 0 11 5q9 3 28 3q15 0 22.5 -12.5t11.5 -31t4.5 -40t0.5 -40.5v-18.5t1 -14.5q1 -11 1 -21v-19q0 -35 -1 -69t-3 -68q-3 -66 -3 -133q0 -15 -11 -18t-21 -3q-6 0 -17.5 2.5t-22.5 6t-19 8t-8 7.5q0 11 11 16l26 -2
q2 0 4 -0.5t4 -0.5q9 -3 21 -3v107q0 11 -0.5 20.5t-0.5 19.5v46t1 45q1 22 1.5 48t0.5 49v43.5t-5 41.5q-5 -1 -10.5 -2t-11.5 -3q-2 0 -3 -0.5t-2 -0.5q-20 -5 -36 -5q-14 0 -14 19z" />
    <glyph glyph-name="asciicircum" unicode="^" horiz-adv-x="148" 
d="M34 491q8 10 17.5 21t25.5 22v1q3 3 11 3t16.5 -10.5t15 -23.5t11 -25t4.5 -16q0 -8 -5 -10.5t-7 -2.5q-5 0 -15.5 14.5t-18.5 28.5q-4 -5 -8 -9.5t-6 -6.5v1q-12 -15 -25.5 -29t-28.5 -14q-19 0 -19 19q0 7 5 12l21 18h-1l7 8v-1v0z" />
    <glyph glyph-name="underscore" unicode="_" horiz-adv-x="299" 
d="M23 -15q-5 2 -9 6.5t-4 9.5q0 4 25 10t59 11t68.5 8.5t52.5 3.5q9 0 22 -0.5t25 -2.5t20 -6.5t8 -11.5q0 -5 -4.5 -10t-13.5 -5q-15 3 -28 3q-12 0 -26.5 -2t-29.5 -4l-25 -3q-35 -4 -68.5 -5.5t-68.5 -1.5h-3z" />
    <glyph glyph-name="grave" unicode="`" horiz-adv-x="99" 
d="M75 450l-8.5 7t-20.5 17.5t-24.5 23.5t-21.5 26h-1q-3 2 -3 10q0 15 15 15q7 0 10 -4l20 -17q10 -8 22 -22t28 -42q0 -5 -5.5 -9.5t-10.5 -4.5z" />
    <glyph glyph-name="a" unicode="a" horiz-adv-x="146" 
d="M135 101q0 -10 -6 -13t-8 -3q-9 0 -15 8q-3 2 -6 4.5t-5 2.5q-9 0 -19 -4t-19 -10t-15 -13t-7 -13q11 0 20.5 2.5t19.5 5.5q8 2 15 4t14 2q23 0 27 -11.5t5 -28.5q0 -6 1 -12t3 -10v1q2 -2 2.5 -5.5t0.5 -5.5q0 -7 -4.5 -11.5t-9.5 -4.5q-13 0 -16 11t-5 25
q-1 2 -1.5 5.5t-1.5 5.5q-1 3 -1 6q-4 0 -12 -2.5t-16 -5.5q-22 -8 -45 -8q-14 0 -24 6t-10 27q0 15 9 28.5t23.5 24t31 17t31.5 6.5q14 0 25.5 -6t17.5 -21v-4z" />
    <glyph glyph-name="b" unicode="b" horiz-adv-x="193" 
d="M19 396q2 15 6.5 41t12 50.5t19 43t28.5 18.5q18 0 35 -22.5t30 -54.5t20.5 -68t7.5 -63q0 -69 -32.5 -125t-100.5 -95q0 -7 2 -13l2 -10q27 14 67 14q10 0 21.5 -2.5t21.5 -7t17 -10.5t7 -14q0 -2 -0.5 -3t-3.5 -6q-8 -12 -23.5 -24t-33.5 -21.5t-36.5 -16t-32.5 -6.5
q-4 0 -4.5 -0.5t-2.5 0.5q-5 -22 -22 -22q-13 0 -17 12t-4 25q0 10 0.5 20t1.5 18q0 3 0.5 7.5t0.5 6.5q2 7 2.5 16.5t0.5 19.5h-2q-2 0 -9 4.5t-7 12.5q0 5 7 10t10 5v2q0 2 -0.5 5t-0.5 6v25q0 54 3.5 110.5t8.5 111.5zM49 30q7 0 20 4.5t27.5 12t27.5 15.5t21 15
q-5 1 -10.5 1.5t-13.5 0.5q-32 0 -52.5 -6t-20.5 -20v-13q0 -2 0.5 -3.5t0.5 -3.5v-3zM46 159q51 34 75.5 86.5t24.5 110.5q0 44 -16 86t-42 74q-14 -20 -20 -45.5t-10 -51.5q0 -2 -0.5 -4.5t-0.5 -4.5t-0.5 -5.5t-0.5 -5.5q-1 -3 -1 -8q-6 -59 -8 -117t-2 -116z" />
    <glyph glyph-name="c" unicode="c" horiz-adv-x="154" 
d="M90 116q14 -4 14 -15q0 -8 -9 -12.5t-20 -7.5l-8 -2h1q-10 -3 -19.5 -7t-9.5 -11t13 -12t31 -5q12 0 27 3l24 3q5 -2 9 -5.5t4 -10.5q0 -8 -10 -12l-28 -7q-8 -2 -14.5 -3t-16.5 -1q-5 0 -18 0.5t-26.5 5t-24 14.5t-10.5 30q0 11 9 20q17 21 36 27t44 8h2z" />
    <glyph glyph-name="d" unicode="d" 
d="M74 121q2 0 5 1h1q-7 40 -10.5 81.5t-6.5 86.5v6.5t-1 8.5q-2 15 -3.5 36.5t-1.5 44.5q0 15 1.5 30.5t4.5 27.5t8.5 20t13.5 8q9 0 16 -6t12.5 -15.5t10 -20.5t8.5 -21q2 -11 4.5 -18.5t5.5 -12.5q21 -45 38 -92.5t17 -97.5q0 -36 -12.5 -71.5t-41.5 -65.5l-14 -16
q9 -52 30 -94.5t70 -77.5q2 -2 2 -4v-5q0 -11 -5.5 -13t-18.5 -2q-50 35 -72.5 79.5t-35.5 94.5q-8 -4 -20.5 -9t-22.5 -5q-21 0 -38 13t-17 33q0 15 6.5 27t16.5 22t23 16.5t25 10.5h2zM117 121q13 -4 19 -22q24 40 24 87q0 20 -5 43.5t-13 48t-18 48.5t-19 45q-7 8 -10 18
v-36q0 -44 4.5 -86t9.5 -85l4 -34zM95 391zM95 389v2v-2zM87 75q-2 7 -4 17q-17 -4 -32.5 -15t-15.5 -27q0 -8 6 -13t15 -5t19.5 5t18.5 12z" />
    <glyph glyph-name="e" unicode="e" horiz-adv-x="186" 
d="M10 38q-21 0 -37 10l-3 1q-2 2 -2.5 6t-0.5 6q0 7 3 10.5t12 3.5t12 -1q10 -4 12 -4q9 0 31 5q17 29 36 47t39 18q8 0 18.5 -5.5t10.5 -19.5q0 -23 -24.5 -40.5t-56.5 -28.5q-2 -4 -2 -10q0 -9 16 -9q12 0 27 4t22 6l40 14q11 0 14.5 -4t3.5 -11q0 -4 -13 -11.5
t-30.5 -14.5t-35 -12t-27.5 -5q-30 0 -42 10t-12 27q0 3 -0.5 3.5t0.5 4.5h-11zM87 88l5 2q3 2 4 3.5t3 3.5v1q-2 0 -5 -3z" />
    <glyph glyph-name="f" unicode="f" horiz-adv-x="230" 
d="M-54 108q0 5 1.5 11t12.5 6h5.5t5.5 -2h-1q12 -8 19.5 -8.5t9.5 0.5q14 0 27 4.5t27 11.5l3 32q1 13 2.5 28t2.5 29l3 51q1 28 3.5 62t6.5 63.5t11 49t18 19.5q15 0 26.5 -18t20.5 -33l4 -7l4 -8q18 -36 27.5 -64.5t9.5 -54.5q0 -40 -25 -79.5t-81 -83.5q0 -3 -0.5 -5.5
t-0.5 -4.5q-2 -11 -2.5 -21t-1.5 -21h4q5 1 11 2.5t20 6.5t26.5 11t22.5 12q6 6 32 18q5 0 10.5 -4.5t5.5 -9.5q0 -2 -0.5 -4t-0.5 -3v-2l-32 -17q-14 -8 -17.5 -11.5t-15.5 -7.5q52 -14 80.5 -53.5t28.5 -86.5q0 -24 -7.5 -51.5t-21.5 -51.5t-33 -39.5t-43 -15.5
q-6 0 -15.5 4.5t-20 12t-20.5 17t-15 18.5q-23 51 -30.5 94t-7.5 88q0 26 1 51t3 51q-11 -4 -23.5 -6.5t-23.5 -2.5q-6 0 -13.5 0.5t-15.5 2.5t-15 5.5t-11 10.5zM173 13q-21 11 -43.5 13.5t-46.5 2.5v-20q0 -33 2 -67t12 -67q11 -38 28.5 -58.5t32.5 -20.5q13 0 25 12
t21 30.5t14 40.5t5 41q0 27 -11.5 51.5t-39.5 41.5h1zM98 216l-6 -55q37 32 53.5 60t16.5 56q0 25 -10 50.5t-26 57.5l-7 16l-2 4q-4 3 -5 8v-16q0 -2 -0.5 -3.5t-0.5 -3.5v-6q-3 -25 -4.5 -49t-3.5 -50l-2 -34t-3 -33v-2z" />
    <glyph glyph-name="g" unicode="g" horiz-adv-x="190" 
d="M147 112q0 -10 -5 -13.5t-10 -3.5q-3 0 -7 3.5t-8 8.5q-2 2 -3.5 4.5t-3.5 2.5q-9 0 -20 -6.5t-20 -16.5t-15.5 -23t-6.5 -25q0 -10 4 -10q11 0 37 9q8 2 15.5 4.5t17.5 2.5q15 0 29.5 -11.5t27 -30.5t22 -43t14.5 -48h6q5 0 20 -2t31.5 -6.5t29 -12t12.5 -17.5
q-3 -8 -7 -14q-4 -5 -10 -9.5t-14 -4.5q-13 0 -13 15q0 6 1.5 8.5t5.5 5.5q-10 3 -26.5 4t-29.5 1q-2 0 -2 -2q0 -34 -18.5 -65t-48 -54.5t-65.5 -37.5t-71 -14q-15 0 -34 3.5t-35.5 11.5t-27.5 21t-11 33q0 12 8.5 24.5t20.5 23t24.5 18t20.5 11.5q45 24 96.5 39.5
t99.5 19.5q-3 16 -9 34t-13.5 32t-16 23.5t-15.5 9.5q-4 0 -11 -2t-16 -5q-11 -4 -22 -7t-25 -3q-16 0 -25 9t-9 32q0 18 8.5 36.5t22 33.5t30.5 24.5t33 9.5q15 0 23.5 -7t13.5 -21v-3zM152 -188q8 8 12.5 14t7.5 13t5 15t4 19v3q0 3 0.5 3t-0.5 4q-41 -4 -89 -16.5
t-93 -38.5l-6 -4q-6 -5 -14.5 -10.5t-16 -11.5t-12.5 -12t-5 -12q0 -14 19 -22t37 -8q20 0 42.5 6t43.5 15.5t38 20.5t27 22z" />
    <glyph glyph-name="h" unicode="h" horiz-adv-x="184" 
d="M-4 102q-5 0 -11 1.5t-6 12.5q0 8 7 12t16 8q1 0 2.5 1t3.5 2l4 2l4 2q1 46 4.5 89.5t11.5 85.5t22 83t35 82l14 22q15 24 30 32t27 9q25 0 41.5 -28t26.5 -63t14.5 -66t4.5 -37q-1 -42 -22 -77t-55 -69q-24 -22 -57.5 -45.5t-61.5 -35.5q0 -3 -0.5 -8t-0.5 -10
q0 -7 -0.5 -9.5t-0.5 -4.5v-5v-12q9 11 20 19.5t22 8.5q7 0 14.5 -5t14 -13t11.5 -17.5t9 -17.5l2 -4t3 -5q2 -4 4 -7l10 -8h-1q4 -2 7 -6t3 -10q0 -5 -4 -10t-11 -5q-6 0 -9 3q-8 6 -13 14.5t-10 16.5l-8 13q-7 11 -13 20.5t-10 9.5t-9.5 -6t-10.5 -14.5t-8.5 -18.5
t-3.5 -18v-11q0 -2 0.5 -3t0.5 -3v-4q0 -11 -3.5 -20t-16.5 -9q-8 0 -12.5 10.5t-7.5 26.5t-4 35.5t-1 37.5q0 11 -0.5 19t0.5 16q-4 -2 -7.5 -4t-6.5 -4zM102 425q-24 -61 -35 -131.5t-15 -132.5q25 13 53 31.5t52 42t39.5 51t16.5 59.5q0 21 -6 45t-13 45v-1l-3 11l-3 10
q-5 15 -11 31t-16 24q-20 -8 -30.5 -27t-18.5 -37q-8 -13 -10 -21z" />
    <glyph glyph-name="i" unicode="i" horiz-adv-x="63" 
d="M15 88q-6 15 -6 20q0 15 16 15q7 0 12 -5.5t8 -14t4.5 -17.5t1.5 -15q0 -15 -2.5 -32t-6.5 -31.5t-9 -24t-9 -9.5q-12 0 -14 8.5t-2 17.5q0 22 2 44t5 44zM49 158q0 -7 -6.5 -13.5t-14 -8.5t-14 2t-6.5 18q0 7 5.5 14t15.5 7q4 0 12 -6.5t8 -12.5z" />
    <glyph glyph-name="j" unicode="j" horiz-adv-x="120" 
d="M19 186q-9 1 -9 14q0 6 9 13.5t14 5.5l-1 1q6 0 11.5 -3t5.5 -11q0 -10 -7.5 -16t-10.5 -6q-5 0 -7.5 0.5t-4.5 1.5zM43 148q7 0 11 -5.5t4 -10.5q0 -2 -1 -3.5t-2 -3.5q4 -14 9.5 -24.5t11.5 -20.5l6 -10v1q8 -13 13.5 -23.5t7.5 -14.5q17 -42 27 -88.5t10 -94.5
q0 -11 -2 -30t-8 -41t-16 -43t-26 -35q-31 -27 -60.5 -42t-61.5 -15q-48 0 -99 32q-21 16 -32.5 49t-11.5 69q0 38 10.5 75t28.5 55t29.5 28.5t22.5 17.5t26 13t41 16q11 0 16 -6t5 -8q0 -4 -3 -8t-7 -6q-3 -1 -7 -3t-8 -3.5t-5.5 -2.5t0.5 0h-1l-7 -3q-23 -10 -41 -22
t-37 -36q-12 -20 -19.5 -47.5t-7.5 -53.5q0 -24 6.5 -45.5t19 -38.5t31.5 -27t43 -10q38 0 65.5 17t45.5 43.5t26.5 60t8.5 66.5q0 42 -9 81t-23 74l-18 37l-1 1q-10 18 -19.5 36.5t-11.5 34.5q0 9 1.5 13.5t12.5 4.5h6z" />
    <glyph glyph-name="k" unicode="k" horiz-adv-x="248" 
d="M-66 145q0 6 5 12t11.5 8.5t13.5 1t10 -8.5q11 2 21.5 4t25.5 7q3 34 10.5 77.5t19 86t28 80t37.5 60.5q4 3 10 3q18 0 34.5 -19t30 -44.5t21.5 -51t8 -37.5q0 -37 -16 -65.5t-40.5 -50t-54 -37.5t-56.5 -28q-1 -8 -1.5 -15.5t-0.5 -15.5q0 -18 2 -32.5t7 -28.5
q10 16 24 29.5t29 23.5t28 15.5t21 5.5q11 0 15.5 -4.5t4.5 -16.5q0 -6 -2.5 -14t-9.5 -17q11 -6 28.5 -17.5t27.5 -19.5l4 -2l24 -13q5 -2 10 -6.5t5 -8.5q0 -14 -18 -14q-14 2 -24.5 9.5t-23.5 15.5t-29 16.5t-35 8.5q-8 0 -13 3t-5 12q0 7 4 12.5t10 11.5l-1 -3
q0 1 1 1.5t1 1.5v1q-13 -8 -26 -22t-22 -28q-1 -1 -1.5 -4t-1.5 -5q0 -1 -0.5 -1t-0.5 -1v-1q-4 -12 -8.5 -21.5t-15.5 -9.5q-16 0 -24.5 17.5t-12.5 40t-5 44.5t-1 31l2 11q-13 -2 -28 -3.5t-26 -1.5q-31 0 -31 17zM93 335q0 -1 -0.5 -1t-0.5 -1l-1 -5q-10 -35 -19.5 -72.5
t-15.5 -75.5q24 9 46 23t39.5 31t28 38t10.5 44q0 12 -4 30.5t-10.5 37.5t-15 33.5t-17.5 19.5q-11 -15 -19.5 -38t-14.5 -44z" />
    <glyph glyph-name="l" unicode="l" horiz-adv-x="115" 
d="M6 46q-15 0 -15 15q0 9 5.5 12t10.5 5q3 1 5.5 2t6.5 2v2q-8 42 -10.5 87.5t-2.5 80.5v40q0 14 1.5 38t4.5 49.5t8 48.5t14 36q7 11 16.5 20t17.5 9q8 -1 22 -11.5t20 -19.5q9 -12 16.5 -28.5t12 -34t7 -35t2.5 -32.5q0 -33 -8 -66t-21 -65t-30 -63t-34 -61
q5 -28 17.5 -61t47.5 -71q5 -6 1 -14t-12 -8q-5 0 -12.5 7t-16 16t-15 18t-9.5 14q-10 17 -17 35t-15 41q-4 -2 -7.5 -3.5t-7.5 -3.5zM43 277q-1 -9 -1 -21v-24q0 -26 1 -55t5 -56q23 48 43 104.5t20 110.5q0 32 -9 59.5t-32 51.5q-19 -33 -22.5 -77t-4.5 -83v-10z" />
    <glyph glyph-name="m" unicode="m" horiz-adv-x="207" 
d="M-18 121q-2 2 -2 6q0 13 16 13q14 0 24 -18t17 -36q11 15 26.5 28.5t31.5 13.5q11 0 18 -5.5t10.5 -14t5 -18.5t2.5 -20l3 2q29 20 37 20t16 -14.5t8 -50.5q0 -8 -5 -10.5t-10 -2.5q-8 0 -12 10t-5 23q-1 1 -1 5l-14 -14l-4 -4q-7 -7 -12 -8.5t-13 -1.5q-15 0 -18 11.5
t-4 28.5q-1 8 -2 13.5t-3 9.5q-9 -3 -15.5 -13t-12 -22.5t-9 -25.5t-5.5 -22q-2 -7 -8 -7q-6 -3 -7 -4t-2 -1q-9 0 -12.5 3.5t-5.5 14.5q0 31 -5.5 58t-27.5 51v2z" />
    <glyph glyph-name="n" unicode="n" horiz-adv-x="194" 
d="M19 65q-1 12 -2.5 23.5t-7.5 16.5q-6 3 -6 11q0 7 5 11t10 4q9 0 15.5 -8t11 -20t7.5 -25.5t5 -24.5l6 9q0 1 1 2.5t1 2.5q8 14 18.5 26.5t28.5 12.5q29 0 40.5 -18.5t18.5 -38.5q0 -1 0.5 -4.5t0.5 -6.5q1 -5 1 -7v-4q3 -1 6 -2.5t3 -5.5q0 -14 -12 -14q-13 0 -18.5 7.5
t-10.5 18.5q-3 3 -3 5q-5 11 -11 21.5t-12 10.5t-13 -8.5t-14 -20.5q-6 -10 -13.5 -20t-17.5 -18q-14 0 -21 4.5t-11 13t-5 19t-1 22.5v5v0z" />
    <glyph glyph-name="o" unicode="o" 
d="M167 101q0 -6 -4 -10q5 -3 9 -6t7 -5q5 -5 5.5 -15t0.5 -13q-3 -10 -14.5 -18.5t-28.5 -14.5t-37.5 -9.5t-39.5 -3.5q-32 0 -52 14t-20 36q0 21 13.5 35.5t32.5 23t40.5 12t37.5 3.5q13 0 25 -4t23 -19zM103 77q-9 3 -16.5 6.5t-9.5 8.5q-17 -6 -31.5 -14t-14.5 -16
q0 -12 15.5 -16t28.5 -4q19 0 38 5t33 13q-6 4 -15 7.5t-17 6.5z" />
    <glyph glyph-name="p" unicode="p" horiz-adv-x="260" 
d="M1 90q-3 2 -4.5 5.5t-1.5 6.5q0 15 14 15q15 0 23.5 -15.5t14.5 -35.5q7 16 18.5 33.5t26.5 31t34.5 22.5t42.5 9q10 0 23.5 -3t24.5 -9t19 -16t8 -24q0 -19 -13.5 -35t-33.5 -28t-42.5 -21t-41.5 -15v1q-7 -4 -10 -5t-5 -1q-15 0 -15 15q0 5 9.5 10.5t22.5 10.5
q13 6 29.5 13.5t31 16t24.5 17.5t10 18q0 10 -9 14t-17 4q-22 0 -43 -10t-32 -21q-27 -26 -35 -66t-8 -83q0 -6 0.5 -12t0.5 -11v-64l1 -13q0 -8 -5 -9.5t-11.5 0.5t-12.5 6t-7 9q-1 26 -2 55t-2.5 56.5t-4 52t-6.5 40.5v-1l-3 8q-2 8 -4.5 16.5t-6.5 10.5z" />
    <glyph glyph-name="q" unicode="q" horiz-adv-x="217" 
d="M193 166q11 -5 11 -17q-2 -10 -16 -13t-28 -5l-22 -3q-12 -4 -29 -13t-32.5 -21t-26.5 -25.5t-11 -25.5q0 -9 11 -9q5 0 16 3t24 8.5t27 13t26 15.5q5 9 15 19t21 10q7 0 14 -5t7 -14q0 -8 -8 -17t-17 -14q-3 -13 -5 -27.5t-4 -26.5l-3 -25q-1 -5 -1.5 -9.5t-0.5 -9.5
q27 -1 53 -4.5t55 -9.5q32 -8 47 -26.5t15 -41.5q0 -28 -14 -55.5t-34.5 -49t-45 -35t-45.5 -13.5q-22 0 -36.5 10.5t-22.5 28t-11.5 40.5t-3.5 48q0 16 1 34t3 32v6t1 6q-47 -5 -97 -16t-88 -22q-17 0 -17 14q0 9 7 16q49 16 98 26t99 12q0 2 1 5.5t1 5.5v31.5t3 29.5
q-18 -9 -38.5 -18.5t-42.5 -9.5q-20 0 -33.5 9.5t-13.5 24.5t9.5 31.5t22.5 31.5t26.5 26t20.5 14v-1l25 12q10 4 16 7t11 4.5t11.5 2.5t17.5 2h-1l27 3h5zM257 -92q-23 10 -47.5 13.5t-51.5 3.5q-2 -18 -2 -35v-34q0 -50 8 -74t30 -24q9 0 21 5t20 10q5 4 15 14t19.5 22
t17 26t7.5 27q0 15 -10.5 27.5t-26.5 18.5z" />
    <glyph glyph-name="r" unicode="r" horiz-adv-x="123" 
d="M-3 116q0 10 1.5 13t10.5 3t16 -8.5t12 -20.5q10 17 25 32t39 30q5 0 9.5 -4.5t4.5 -9.5q1 -1 1 -4t-2 -5q-31 -26 -43.5 -52.5t-12.5 -54.5v-7.5t1 -9.5q2 -10 2 -20q0 -9 -5.5 -15t-12.5 -6q-5 0 -11.5 3t-7.5 11l-5 37q0 2 -0.5 2.5t-0.5 2.5q-4 23 -8.5 44.5
t-13.5 38.5h1z" />
    <glyph glyph-name="s" unicode="s" horiz-adv-x="108" 
d="M93 134q3 -2 3.5 -4.5t0.5 -4.5q0 -14 -15 -14q-4 0 -6 1q-8 0 -20.5 -4t-12.5 -11q0 -2 5 -5t10 -5q14 -6 27 -14.5t13 -32.5q0 -13 -8.5 -23t-22 -16.5t-30.5 -10.5t-33 -5q-5 2 -7 6.5t-2 9.5t2.5 9t8.5 5q23 3 39.5 11.5t16.5 13.5q0 2 -6 6t-12 9l-6 4
q-11 7 -22 14.5t-11 18.5t6.5 20.5t16.5 16t21 10.5t20 4q17 0 24 -9z" />
    <glyph glyph-name="t" unicode="t" horiz-adv-x="126" 
d="M26 211q0 3 1 4q5 5 14 5q5 0 9 -3t4 -11q0 -9 -1 -20.5t-3 -27.5q15 5 32 8.5t28 3.5q5 0 10 -5t5 -10q0 -4 -9 -10t-22 -12.5t-27 -11.5t-23 -7q-1 -8 -0.5 -17t0.5 -17q0 -26 4.5 -46t17.5 -24q4 -2 17 -2q11 0 20.5 -2t9.5 -14t-13.5 -14t-27.5 -2q-38 0 -52 24
t-14 66q0 24 3 47q-2 0 -3.5 -0.5t-3.5 -0.5q-11 5 -11 15q0 7 7.5 11.5t18.5 9.5q3 12 4 19.5t1.5 12t1 7.5t0.5 7v9q0 1 0.5 2t0.5 3z" />
    <glyph glyph-name="u" unicode="u" horiz-adv-x="106" 
d="M32 -6q-25 20 -30 43.5t-5 53.5q0 15 16 15q8 0 11 -8t5 -18l3 -12q2 -10 5 -18.5t8 -15.5q4 10 7 26t5 30q2 18 7 30t13 12q10 0 13 -11t3 -24q0 -15 -1 -31.5t-5 -31.5t-13 -27t-25 -18q-8 0 -10 0.5t-7 4.5z" />
    <glyph glyph-name="v" unicode="v" horiz-adv-x="102" 
d="M6 86q-1 8 -2 13t-3 10q-2 4 -3 9q0 6 3 10t12 4q14 0 21 -19t12 -39l2 -9v-2q8 14 18.5 27t15.5 13t9.5 -4t4.5 -11q0 -8 -7.5 -23t-16.5 -31t-18 -27.5t-12 -11.5q-9 0 -14.5 7t-9 18t-6 23.5t-3.5 24.5l-3 16v2z" />
    <glyph glyph-name="w" unicode="w" horiz-adv-x="207" 
d="M29 178q3 2 5 3t7 1t9.5 -5.5t4.5 -12.5q-11 -26 -16.5 -57.5t-3.5 -60.5l2 3q2 4 8.5 16t17.5 12q8 0 12.5 -8t7.5 -19q3 -8 7.5 -18t10 -18t11.5 -13.5t13 -5.5q14 0 26 18.5t12 39.5q0 25 -10.5 48t-21.5 43l-8 16q0 12 7 13.5t12 1.5q2 0 4 -2l8 -11q14 -23 29 -51.5
t15 -57.5q0 -24 -7.5 -41t-19 -28.5t-24 -17t-22.5 -5.5q-20 0 -38.5 14.5t-32.5 40.5q-7 -6 -15 -11t-13 -5q-23 0 -23 38q0 29 4.5 67t18.5 68z" />
    <glyph glyph-name="x" unicode="x" horiz-adv-x="146" 
d="M65 112q9 14 21 28t27 25v1q1 1 3.5 2.5t7.5 1.5q15 0 15 -15q0 -10 -8 -14q-13 -14 -24 -31t-20 -34q13 -20 21 -37t16 -33h-1l16 -29v2q3 -3 3 -10t-5 -11t-10 -4t-12.5 7.5t-15.5 19t-16 24t-15 23.5q-5 -14 -13 -28t-16 -14t-11 5.5t-3 12.5l5 17q0 2 1 3t1 3
q3 13 6 24.5t7 21.5q-8 15 -19 30.5t-25 28.5q-3 1 -3 8q0 15 13 15q14 0 29 -14t25 -29zM47 70l-1 1l1 -2v1z" />
    <glyph glyph-name="y" unicode="y" horiz-adv-x="162" 
d="M7 109q0 16 14 16q8 0 11 -4.5t3 -9.5q2 -29 5.5 -40t10.5 -11q5 0 15 5.5t22 12.5l23 13q17 -4 27.5 -20.5t16.5 -37t8 -41.5t2 -35q0 -32 -8 -65t-23 -59.5t-38 -43.5t-53 -17q-6 0 -19 2.5t-25.5 8t-22 14t-9.5 19.5q0 7 3 10.5t13 3.5q1 0 1.5 -0.5t1.5 -0.5
q5 0 10 -4t11.5 -8.5t14 -8t16.5 -3.5q22 0 39 13t28 34.5t16.5 50t5.5 59.5q0 26 -5 49t-17 42l-16 -11l-11 -8q-11 -8 -19 -13t-15 -5q-14 0 -21 10t-11 24.5t-4.5 30.5t-0.5 28z" />
    <glyph glyph-name="z" unicode="z" horiz-adv-x="112" 
d="M9 125q-5 2 -7.5 6t-2.5 8q0 2 4 8t9 6h11q51 -2 68.5 -6t17.5 -20q0 -2 -2 -8q0 -1 -0.5 -1t-0.5 -1v-2q-5 -16 -14 -29.5t-17 -21.5l-1 -2q-14 -14 -22 -29l2 -1l73 -18q5 -3 9 -7t4 -8q0 -15 -16 -15q-40 2 -65 8.5t-44 30.5q-3 2 -3 13q8 17 12 24t12 15l19 22
q2 2 5 7.5t5 8.5q-6 4 -16 6.5t-18 3.5h-10.5t-10.5 1z" />
    <glyph glyph-name="braceleft" unicode="{" horiz-adv-x="174" 
d="M117 480q17 0 17 -15q0 -5 -9.5 -11t-22.5 -12q-10 -4 -22 -9.5t-22 -12t-16.5 -13.5t-6.5 -15q0 -11 6.5 -21t15.5 -21v1q1 -1 2.5 -3t12.5 -20q12 -27 12 -44q0 -12 -4 -22.5t-12 -22.5l5 -4l2 -5q7 -8 14 -17.5t7 -27.5q0 -20 -6 -37.5t-13 -34.5l-4 -10
q-7 -15 -12.5 -30t-5.5 -26q0 -14 14 -27.5t46 -21.5q2 0 4 -0.5t4 -0.5q3 -1 7 -1q13 -2 25.5 -5.5t12.5 -14.5q0 -12 -15 -12q-11 0 -29.5 2t-38 7t-36 14t-21.5 23q-7 20 -7 41q0 20 5.5 37.5t12.5 32.5q0 2 1 3t1 3q6 15 11.5 31t5.5 31q0 5 -4 10t-9 9q-8 6 -14 12.5
t-6 18.5q0 10 3 15t8 10q4 4 7 8t3 9q0 9 -5.5 18.5t-11.5 20.5l-5 9v-1q-10 14 -17.5 28t-7.5 31q0 20 9 34t22.5 24t29.5 16t31 11l24 8h2z" />
    <glyph glyph-name="bar" unicode="|" horiz-adv-x="66" 
d="M15 505q0 8 5 12.5t10 4.5t8 -15t5.5 -39t3.5 -53.5t2 -58.5t1 -54v-40q0 -20 -0.5 -53.5t-1.5 -71.5t-2.5 -76.5t-4 -69.5t-6 -50.5t-8.5 -19.5q-10 0 -13 23.5t-3 53.5q0 54 0.5 115.5t1.5 124.5v28t0.5 32.5t0.5 31.5v26q1 42 1 79.5v69.5z" />
    <glyph glyph-name="braceright" unicode="}" horiz-adv-x="182" 
d="M74 472q16 -5 32.5 -12t30.5 -16.5t23 -23.5t9 -33q0 -17 -8.5 -32t-18.5 -28v1l-4 -7q-6 -11 -10.5 -21t-4.5 -19q0 -5 3 -9.5t7 -7.5l6 -10t3 -15q0 -12 -5.5 -18.5t-13.5 -12.5q-5 -4 -9 -9t-4 -10q0 -17 6 -34t13 -34q6 -16 11 -32.5t5 -37.5t-7 -41
q-5 -14 -20.5 -22.5t-35 -14t-38.5 -7.5t-30 -2q-5 0 -9.5 3.5t-4.5 8.5q0 11 12 14.5t26 5.5l16 2q29 8 44.5 21.5t15.5 27.5q0 13 -6.5 30t-14.5 34q-12 24 -20 54v-1q-2 10 -2 21q0 20 8 31t16 19l3 2q1 0 1.5 0.5t1.5 0.5q-8 11 -13 23t-5 23q0 10 3.5 21.5t12.5 27.5
l16 21q7 8 13 19t6 19t-7 15.5t-17 13.5t-21.5 11.5t-21.5 9.5q-14 6 -23 12t-9 11t3.5 10t16.5 5z" />
    <glyph glyph-name="asciitilde" unicode="~" horiz-adv-x="186" 
d="M63 133q-10 -3 -19.5 -9.5t-17.5 -13.5l1 -1q-2 -2 -5.5 -2.5t-5.5 -0.5q-3 0 -8 4t-5 11t8.5 16t19.5 16.5t20 12.5t11 5q11 0 18 -7t14 -15v1l2 -3q5 -9 10.5 -15.5t10.5 -6.5t10.5 3t10.5 7q5 5 10 7.5t8 4.5q7 0 13.5 -4t6.5 -11q0 -3 -8 -10t-19 -13.5t-23 -11.5
t-19 -5q-14 0 -20 6t-11 14v-1l-2 4q-2 5 -5.5 10.5t-5.5 7.5z" />
    <glyph glyph-name="exclamdown" unicode="&#xa1;" horiz-adv-x="75" 
d="M16 6q-1 11 -1 20.5v19.5q0 25 2 61t5.5 69t8 56.5t9.5 23.5q4 0 7 -6t5 -16t2.5 -21.5t0.5 -21.5q0 -20 -0.5 -53.5t-2.5 -66t-7 -56.5t-14 -24q-5 0 -10 4t-5 11zM43 276q-16 0 -22 6.5t-6 18.5q0 10 5 16.5t14 6.5q1 0 11 -7t10 -13v-4q3 -3 3 -11t-4.5 -10.5
t-10.5 -2.5z" />
    <glyph glyph-name="cent" unicode="&#xa2;" horiz-adv-x="183" 
d="M80 226q0 5 5 10.5t10 5.5t9.5 -4t5.5 -10q2 -9 3.5 -16.5l3.5 -17.5h9.5t9.5 1q2 0 4.5 0.5t4.5 0.5q11 -5 11 -15t-14 -14t-26 -6l6 -72q2 0 6 1t6 1l23 2q16 -3 16 -15q0 -3 -5.5 -6.5t-13 -7t-16 -6.5t-15.5 -5v-16q0 -3 0.5 -5t0.5 -7q0 -6 -0.5 -14t-2 -15t-5 -12
t-9.5 -5t-9 1.5t-5 6.5l-6 63q-14 0 -22.5 0.5t-14.5 2t-12 5.5l-15 10h1l-10 7v-1q-14 11 -14 28q0 21 9.5 36t22 25.5t26 17t22.5 9.5v36zM82 93q0 18 0.5 29.5t-0.5 29.5q-18 -9 -29.5 -21.5t-11.5 -20.5q0 -22 41 -24v7z" />
    <glyph glyph-name="sterling" unicode="&#xa3;" horiz-adv-x="332" 
d="M59 182q-5 2 -7.5 6.5t-2.5 9.5t6 8.5t15.5 5.5t20.5 3.5t20 1.5q-2 8 -2 16.5v16.5q0 14 8 31t23.5 32t38.5 25t52 10q12 0 25.5 -2.5t25 -6.5t19 -9t7.5 -9q0 -15 -15 -15l-10 2l-11 3h1q-11 3 -22 5.5t-20 2.5q-12 0 -27.5 -5t-28.5 -14.5t-22 -24t-9 -32.5
q0 -8 1 -16t3 -15v-2h22.5t26 -0.5t22 -2t9.5 -5.5q0 -5 -8.5 -9t-20 -6.5t-24 -3.5t-21.5 -1q1 -8 1 -16v-13q0 -34 -15 -61q13 3 29 3q11 0 20.5 -5.5t19.5 -13.5h-2q2 0 2.5 -0.5t1.5 -0.5q9 -7 18 -13l12 -9q11 -7 21.5 -12t19.5 -5q10 0 31 7q19 0 19 -12
q0 -7 -5.5 -12t-13.5 -8.5t-16 -5.5t-14 -2q-23 0 -42 8.5t-33 22.5q-5 1 -11 5.5t-29 21.5q-17 0 -33.5 -8.5t-30.5 -17.5q-2 -5 -18.5 -10.5t-33.5 -13.5l-15 -6h1l-17 -6l-13 2q-10 0 -10 10l-2 3q0 8 0.5 12t5.5 8q2 2 4 2h4l2 1q20 8 39 20.5t33.5 28.5t23.5 36.5
t9 45.5v8q0 2 0.5 2t-0.5 3h-27t-27 1h-4z" />
    <glyph glyph-name="currency" unicode="&#xa4;" horiz-adv-x="396" 
d="M283 41q-18 -8 -40 -15.5t-60 -7.5q-26 0 -48.5 4.5t-38.5 15.5q-9 -8 -22 -18t-26 -18.5t-22.5 -14t-11.5 -5.5q-15 0 -15 14q0 5 7 13.5t16.5 17.5t20 17t17.5 12l13 7l-12 19q-5 6 -6.5 16.5t-1.5 19.5q0 25 9 45.5t32 44.5l-6 7q-8 8 -15 18t-10 21q0 7 1.5 13.5
t11.5 6.5q7 0 21.5 -14.5t22.5 -28.5q14 11 31 21t29 17l8 5l5 2h-2q14 5 30.5 11.5t31.5 6.5q11 0 25.5 -6t14.5 -17q0 -9 -4.5 -12.5t-11.5 -4.5l14 -11q3 -2 3.5 -3t3.5 -3q7 2 13.5 6t11.5 8q10 6 18 10t15 7q7 0 12.5 -4t5.5 -11q0 -12 -15 -23t-30 -16q6 -6 10 -13
t10 -21h-1l3 -7l10 -21q2 -6 2 -8.5v-4.5q0 -20 -15.5 -42t-31.5 -36q8 -6 16.5 -14t15 -15.5t11 -13.5t4.5 -8q0 -15 -15 -15q-6 0 -9 3q-7 5 -15.5 12t-16.5 14q-4 2 -7.5 5t-7.5 5zM246 250q0 4 3 8t11 5v1h-2q-7 0 -16.5 -2.5t-18.5 -6t-17.5 -7t-12.5 -6.5
q-14 -9 -32 -23.5t-34.5 -32t-28 -36t-11.5 -35.5q0 -23 26.5 -39.5t73.5 -16.5q24 0 49 5t45 15t32.5 25.5t12.5 35.5q0 26 -17 46t-36 33q-8 5 -15.5 11t-9.5 8q-1 1 -1 3q-1 2 -1 9z" />
    <glyph glyph-name="yen" unicode="&#xa5;" horiz-adv-x="262" 
d="M73 88q-5 2 -8 4.5t-3 8.5q0 7 12 14l34 5q0 7 1 10l1 2q-8 0 -18.5 2t-21 5t-17.5 7.5t-7 11.5q0 8 3 10.5t8 4.5h12q2 0 3 -0.5t3 -0.5q4 -1 13 -1h19q1 0 2.5 6.5t2.5 8.5v1l-12 13l-3 3q-11 13 -30 36t-41 57q-6 9 -12 15.5t-13 12.5q-3 3 -4 8t3 7q2 2 4 2.5t13 0.5
q20 -7 33.5 -23.5t26.5 -34.5l7 -11q9 -17 19.5 -32.5t23.5 -23.5q11 19 21.5 35t23 30t28 27t37.5 27q16 0 16 -15q0 -8 -7 -15.5t-15 -15.5h1l-5 -5l-15 -13q-8 -9 -19.5 -22.5t-22 -27t-17.5 -23.5t-7 -12l-2 -12q13 2 26 2h25q17 0 28 -4t11 -15q0 -3 -4 -8t-11 -5
q-3 0 -4 1h-3q-4 -2 -7 -2l-12 -2l-12 -3q-8 -2 -15.5 -3.5t-18.5 -2.5q0 -6 1 -11q11 1 20 1h24q11 0 20 -3t9 -13q0 -5 -7.5 -8t-18 -5.5t-22.5 -4t-21 -2.5q1 -10 1 -21.5v-19.5q0 -5 -0.5 -14.5t-3 -19.5t-6.5 -17.5t-10 -7.5q-15 0 -15 21q1 3 1 7q0 6 -1 15.5t-3 20.5
q-2 7 -3 15t-2 19h-20t-18 2z" />
    <glyph glyph-name="dieresis" unicode="&#xa8;" horiz-adv-x="133" 
d="M40 525q5 -1 9 -5.5t4 -13.5t-4.5 -14.5t-17.5 -5.5q-11 0 -17 6.5t-6 15.5q0 18 21 18h6.5t5.5 -1h-1zM100 525q5 -1 9.5 -5.5t4.5 -13.5q0 -20 -22 -20q-11 0 -17 6.5t-6 15.5q0 18 21 18q8 0 11 -1h-1z" />
    <glyph glyph-name="copyright" unicode="&#xa9;" horiz-adv-x="453" 
d="M328 294q0 -9 -3 -12q4 -2 8 -2q11 -2 25.5 -7.5t28.5 -15.5l5 -5l4 -3h-1q17 -15 31 -31t14 -40t-9 -44t-23 -36t-30 -29.5t-31 -23.5q-57 -42 -179 -42q-48 0 -80.5 17.5t-52 39t-27.5 40.5t-8 21q0 19 15 40t35 39.5t40 33t30 20.5q25 16 47 24.5t43 16.5l23 7h-1
l10 4q1 0 7 2q9 2 20.5 4.5t25.5 2.5t23.5 -5.5t9.5 -15.5zM326 249q-11 5 -20 9t-9 13q-8 3 -11 10q-37 -4 -76 -21t-70 -36q-47 -29 -73.5 -59t-26.5 -53q0 -30 40 -51t106 -21q34 0 72.5 9.5t70.5 27.5t53.5 43t21.5 56q0 33 -37 57q-2 0 -10.5 2.5t-17.5 7.5q-3 1 -7 3z
M259 214q8 -6 8 -13q0 -13 -24 -20q-1 0 -1.5 -0.5t-1.5 -0.5q-12 -3 -24.5 -8.5t-12.5 -13.5q0 -5 12.5 -9.5t32.5 -4.5q11 0 25 3l24 3q9 -2 12 -6.5t3 -9.5q0 -10 -12 -14l-27 -7q-11 -4 -30 -3t-37 6.5t-31 16t-13 26.5q0 18 10 29t24 17t30 8t28 3z" />
    <glyph glyph-name="registered" unicode="&#xae;" horiz-adv-x="457" 
d="M329 294q0 -6 -4 -12q4 -2 7 -2q14 -2 28.5 -8t34.5 -23h-1q20 -17 34.5 -34t14.5 -44t-18.5 -52t-44.5 -45.5t-54 -35t-47 -20.5t-49 -10.5t-62 -4.5q-48 0 -80.5 17.5t-52 39t-27.5 40.5t-8 21q0 19 15 40t35 39.5t40 33t30 20.5q25 16 47 24.5t43 16.5l23 7h-1l10 4
q1 0 7 2q9 2 20.5 4.5t25.5 2.5t24 -5.5t10 -15.5zM326 249q-11 5 -20 9t-9 13q-8 3 -11 10q-37 -4 -76 -21t-70 -36q-47 -29 -73.5 -59t-26.5 -53q0 -30 40 -51t106 -21q34 0 72.5 9.5t70.5 27.5t53.5 43t21.5 56q0 33 -37 57q-2 0 -10.5 2.5t-17.5 7.5q-3 1 -7 3zM210 95
q0 -6 -4.5 -10t-9.5 -4q-6 0 -9.5 6.5t-5 16t-2 20.5t-0.5 21q0 33 13.5 55t48.5 22q15 0 25 -7.5t10 -23.5q0 -23 -20 -48q6 -5 6.5 -4.5t1.5 -0.5q13 -10 28.5 -22.5t15.5 -20.5q0 -5 -5.5 -9t-10.5 -4t-18.5 8.5t-27.5 19t-24.5 21t-10.5 14.5q2 7 6 11.5t10 10.5v-1
q4 4 7 9t4 10q-19 -1 -24 -19.5t-5 -47.5q0 -3 0.5 -6t0.5 -5v-12z" />
    <glyph glyph-name="macron" unicode="&#xaf;" horiz-adv-x="141" 
d="M9 465q-2 0 -2 2q-4 4 -4 10q0 15 19 15q9 -3 15 -3q15 0 30 3q11 2 23.5 3t26.5 1h9q5 -3 7.5 -5.5t2.5 -9.5q0 -2 -7.5 -6.5t-19.5 -9t-26.5 -7.5t-28.5 -3q-11 0 -22.5 1.5t-22.5 8.5z" />
    <glyph glyph-name="degree" unicode="&#xb0;" horiz-adv-x="155" 
d="M50 430q-31 0 -42 9.5t-11 25.5q0 14 12 33.5t31 29.5q4 6 9 8q11 0 28 -2t33 -7.5t27.5 -15.5t11.5 -25q0 -12 -10 -21.5t-25 -17t-32 -12t-32 -5.5zM65 502q-4 0 -5 1q-11 -5 -19.5 -14t-8.5 -20q0 -1 7 -1q13 0 26 2t23 5t16.5 7t6.5 8q0 2 -7.5 5.5t-17.5 6.5h-21z
" />
    <glyph glyph-name="plusminus" unicode="&#xb1;" horiz-adv-x="220" 
d="M33 171q3 0 7 -2h3l31 2q0 13 0.5 29.5t2 31.5t5 25.5t8.5 10.5q11 0 15 -13l7 -75q14 3 30.5 5.5t39.5 2.5q5 0 10 -5.5t5 -10.5q0 -2 -7 -5.5t-18.5 -8t-26.5 -9.5t-31 -8q0 -5 -1 -19t-3 -29t-5.5 -26.5t-8.5 -11.5t-9 8t-6 20t-3.5 26t-2.5 26h-9q-8 0 -17 1.5
t-17 4.5t-13.5 7.5t-5.5 9.5q0 14 17 14zM18 26q-10 4 -10 15q0 6 19.5 9.5t44.5 6t48 3t30 0.5h19q15 0 29.5 -3t14.5 -11q0 -6 -18.5 -10.5t-42 -7t-45.5 -3.5t-29 -1q-10 0 -20.5 0.5t-22.5 1.5h-17z" />
    <glyph glyph-name="acute" unicode="&#xb4;" horiz-adv-x="127" 
d="M120 537q0 -1 -2 -5q-2 -8 -18 -21.5t-35.5 -27t-36 -23t-19.5 -9.5q-8 0 -10.5 3.5t-2.5 8.5v4.5t2 4.5q10 14 25.5 25.5t31.5 22.5q10 6 20 13t18 14q8 4 9.5 4.5t2.5 0.5q5 0 10 -4t5 -11z" />
    <glyph glyph-name="mu" unicode="&#xb5;" horiz-adv-x="178" 
d="M6 110q0 15 16 15q4 -2 8 -7t8 -13t7 -21l2 -10q2 -8 3.5 -19t2.5 -11q9 0 18 9t17.5 22t14.5 27.5t9 26.5q3 4 8.5 8t10.5 4q6 0 11.5 -3.5t7.5 -12.5q-2 -10 -3 -20t-1 -21q0 -19 4.5 -38.5t13.5 -33.5v1q2 -2 2 -5.5v-5.5q0 -7 -5.5 -11.5t-7.5 -4.5q-15 0 -24 19.5
t-13 39.5q-10 -15 -22 -27.5t-28 -12.5t-29 10l-2 -21q0 -2 -0.5 -6t-0.5 -6q-2 -14 -3 -28t-1 -26q0 -17 2.5 -29t10.5 -16q0 -1 0.5 -2t0.5 -3q0 -14 -16 -14q-8 0 -13.5 10t-9 26t-5 35.5t-1.5 39.5q0 27 1.5 54.5t3.5 47.5q0 3 0.5 7.5t0.5 6.5q1 7 1 11.5v7.5z" />
    <glyph glyph-name="mu" unicode="&#x3bc;" horiz-adv-x="178" 
d="M6 110q0 15 16 15q4 -2 8 -7t8 -13t7 -21l2 -10q2 -8 3.5 -19t2.5 -11q9 0 18 9t17.5 22t14.5 27.5t9 26.5q3 4 8.5 8t10.5 4q6 0 11.5 -3.5t7.5 -12.5q-2 -10 -3 -20t-1 -21q0 -19 4.5 -38.5t13.5 -33.5v1q2 -2 2 -5.5v-5.5q0 -7 -5.5 -11.5t-7.5 -4.5q-15 0 -24 19.5
t-13 39.5q-10 -15 -22 -27.5t-28 -12.5t-29 10l-2 -21q0 -2 -0.5 -6t-0.5 -6q-2 -14 -3 -28t-1 -26q0 -17 2.5 -29t10.5 -16q0 -1 0.5 -2t0.5 -3q0 -14 -16 -14q-8 0 -13.5 10t-9 26t-5 35.5t-1.5 39.5q0 27 1.5 54.5t3.5 47.5q0 3 0.5 7.5t0.5 6.5q1 7 1 11.5v7.5z" />
    <glyph glyph-name="cedilla" unicode="&#xb8;" horiz-adv-x="66" 
d="M24 31q10 0 10 -10v-16q14 -1 24 -6.5t10 -25.5q0 -23 -13.5 -29.5t-30.5 -10.5l-12 -3q-11 0 -14 4t-3 11t6.5 11t17.5 10q3 0 6 3h-3q-9 0 -17.5 4.5t-8.5 20.5q0 7 1 12t3 10l1 3q6 12 12 12h11z" />
    <glyph glyph-name="questiondown" unicode="&#xbf;" horiz-adv-x="191" 
d="M1 39q0 5 4 9t19 4h23q5 0 9 -0.5t9 -0.5h18q15 0 28.5 0.5t21.5 4.5q-5 9 -15 19h1l-19 16q-12 9 -26.5 20.5t-27.5 24.5t-21.5 27t-8.5 28q0 3 2 10t7 14.5t12.5 13.5t18.5 6q7 0 11 -5.5t4 -10.5q0 -2 -0.5 -2t-0.5 -1v-1q-11 -8 -15.5 -13t-4.5 -10q0 -12 12.5 -23
t28.5 -22h-1l10 -7q26 -18 48 -38.5t26 -51.5q0 -10 -8.5 -16.5t-20.5 -10.5t-26 -5.5t-25 -1.5q-17 0 -34.5 2t-31.5 4q-1 0 -2.5 0.5t-3.5 0.5h-1q-3 -2 -8 -2t-9 5t-4 10zM67 288q-3 -3 -11 -3q-5 0 -9.5 4t-7.5 9.5t-5 10l-2 4.5q0 8 6.5 13.5t17.5 5.5q13 0 20.5 -8
t7.5 -21q0 -9 -2.5 -12t-9.5 -3h-5z" />
    <glyph glyph-name="Agrave" unicode="&#xc0;" horiz-adv-x="473" 
d="M-35 -53q-5 2 -7 4.5t-2 8.5q0 5 3 9.5t13 4.5q5 -1 15 9.5t22.5 27t26.5 36.5t26 39.5t22 35t14 23.5l35 72q-35 18 -71 35.5t-70.5 32t-66.5 23t-58 8.5q-3 0 -8 -1.5t-10 -3.5l-17 -5q-18 0 -18 15q0 4 6.5 8.5t15.5 8t18 5.5t14 2q25 0 58.5 -8.5t70.5 -22t76 -31
t76 -35.5l66 138l10 21q14 30 29 59t37 61q1 1 3 2t8 1q12 0 21 -7.5t15.5 -18t11 -22.5t6.5 -22q2 -4 2 -6q26 -69 41 -147t23 -147l15 -114l-1 1q6 -13 13 -36t12.5 -48.5t9 -49.5t3.5 -38q0 -9 -5.5 -14t-11.5 -5q-9 0 -18.5 23t-18 53.5t-14.5 61t-8 45.5
q-20 28 -50.5 51t-59.5 40l-21 12l-36 20h1q-18 11 -34.5 21t-34.5 21l-38 -74q-3 -5 -13 -21t-23.5 -36.5t-29.5 -43t-32.5 -41.5t-31.5 -31t-26 -12zM176 231q29 -14 56 -30.5t56 -31.5l6 -4q3 -2 8 -4.5t0 -0.5l16 -8q21 -13 40 -24t33 -24q-11 83 -25 163.5t-37 160.5v2
q0 1 -1 2.5t-2 3.5l-2 5q-5 13 -9 26.5t-9 19.5q-11 -15 -19.5 -34.5t-17.5 -38.5l-8 -13v1l-15 -30zM347 540l-8.5 7t-20.5 17.5t-24.5 24t-20.5 25.5q-5 2 -5 12q0 7 5 11t10 4q2 0 5 -0.5t6 -3.5l19 -19q11 -9 22 -21t25 -39q0 -5 -1.5 -11.5t-11.5 -6.5z" />
    <glyph glyph-name="Aacute" unicode="&#xc1;" horiz-adv-x="473" 
d="M365 615q-3 -9 -19 -22.5t-35 -27t-35.5 -23t-18.5 -9.5q-15 0 -15 14q0 7 15.5 21.5t35 29.5t37 26.5t20.5 11.5q9 0 12 -4.5t3 -12.5v-4zM-30 -50q11 0 26 12t31.5 31t32.5 41.5t29.5 43t23.5 36t13 21.5l38 74q18 -11 34.5 -21t34.5 -21h-1l36 -20l21 -12
q29 -17 59.5 -40t50.5 -51q2 -15 8 -45.5t14.5 -61t18 -53.5t18.5 -23q6 0 11.5 5t5.5 14q0 14 -3.5 38t-9 49.5t-12.5 48.5t-13 36l1 -1l-15 114q-4 34 -9.5 71.5t-13 75t-16.5 73.5t-21 68l-4 6q0 2 -2 6q-2 10 -6.5 22t-11 22.5t-15.5 18t-21 7.5q-6 0 -8 -1t-3 -2
q-22 -32 -37 -61t-29 -59l-10 -21l-66 -138q-37 18 -76 35.5t-76 31t-70.5 22t-58.5 8.5q-5 0 -14 -2t-18 -5.5t-15.5 -8t-6.5 -8.5q0 -15 18 -15l17 5q5 2 10 3.5t8 1.5q26 0 58 -8.5t66.5 -23t70.5 -32t71 -35.5l-35 -72q-4 -8 -14 -23.5t-22 -35t-26 -39.5t-26.5 -36.5
t-22.5 -27t-15 -9.5q-10 0 -13 -4.5t-3 -9.5q0 -6 2 -8.5t7 -4.5zM247 377l15 30v-1l8 13q9 19 17.5 38.5t19.5 34.5q5 -6 9 -19.5t9 -26.5v-2l2 -3q1 -2 2 -3.5t1 -2.5v-2q23 -80 37 -160.5t25 -163.5q-14 13 -33 24t-40 24q-7 5 -14 8t-10 5l-6 4q-29 15 -56 31.5
t-56 30.5z" />
    <glyph glyph-name="Acircumflex" unicode="&#xc2;" horiz-adv-x="473" 
d="M-35 -53q-5 2 -7 4.5t-2 8.5q0 5 3 9.5t13 4.5q5 -1 15 9.5t22.5 27t26.5 36.5t26 39.5t22 35t14 23.5l35 72q-35 18 -71 35.5t-70.5 32t-66.5 23t-58 8.5q-3 0 -8 -1.5t-10 -3.5l-17 -5q-18 0 -18 15q0 4 6.5 8.5t15.5 8t18 5.5t14 2q25 0 58.5 -8.5t70.5 -22t76 -31
t76 -35.5l66 138l10 21q14 30 29 59t37 61q1 1 3 2t8 1q12 0 21 -7.5t15.5 -18t11 -22.5t6.5 -22q2 -4 2 -6l4 -6q12 -32 21 -68t16.5 -73.5t13 -75t9.5 -71.5l15 -114l-1 1q6 -13 13 -36t12.5 -48.5t9 -49.5t3.5 -38q0 -9 -5.5 -14t-11.5 -5q-9 0 -18.5 23t-18 53.5
t-14.5 61t-8 45.5q-20 28 -50.5 51t-59.5 40l-21 12l-36 20h1q-18 11 -34.5 21t-34.5 21l-38 -74q-3 -5 -13 -21t-23.5 -36.5t-29.5 -43t-32.5 -41.5t-31.5 -31t-26 -12zM176 231q29 -14 56 -30.5t56 -31.5l6 -4q3 -2 8 -4.5t0 -0.5l16 -8q21 -13 40 -24t33 -24
q-11 83 -25 163.5t-37 160.5v2q0 1 -1 2.5t-2 3.5l-2 3v2q-5 13 -9 26.5t-9 19.5q-11 -15 -19.5 -34.5t-17.5 -38.5l-8 -13v1l-15 -30zM312 640q5 2 5.5 2.5t2.5 0.5q8 0 16.5 -10.5t15 -23.5t11 -25.5t4.5 -16.5q0 -8 -5.5 -11t-10.5 -3q-2 0 -5 3.5t-6 8t-6 8.5t-4 6l-2 5
l-6 9v-2l-2 4l-11 -10q-14 -16 -28.5 -31.5t-28.5 -15.5q-9 0 -14.5 5t-5.5 13q0 10 7 15l21 17h-1l15 16v-1q6 8 14.5 18t22.5 20z" />
    <glyph glyph-name="Atilde" unicode="&#xc3;" horiz-adv-x="473" 
d="M-35 -53q-5 2 -7 4.5t-2 8.5q0 5 3 9.5t13 4.5q5 -1 15 9.5t22.5 27t26.5 36.5t26 39.5t22 35t14 23.5l35 72q-35 18 -71 35.5t-70.5 32t-66.5 23t-58 8.5q-3 0 -8 -1.5t-10 -3.5l-17 -5q-18 0 -18 15q0 4 6.5 8.5t15.5 8t18 5.5t14 2q25 0 58.5 -8.5t70.5 -22t76 -31
t76 -35.5l66 138l10 21q14 30 29 59t37 61q1 1 3 2t8 1q12 0 21 -7.5t15.5 -18t11 -22.5t6.5 -22q2 -4 2 -6l4 -6q12 -32 21 -68t16.5 -73.5t13 -75t9.5 -71.5l15 -114l-1 1q6 -13 13 -36t12.5 -48.5t9 -49.5t3.5 -38q0 -9 -5.5 -14t-11.5 -5q-9 0 -18.5 23t-18 53.5
t-14.5 61t-8 45.5q-20 28 -50.5 51t-59.5 40l-21 12l-36 20h1q-18 11 -34.5 21t-34.5 21l-38 -74q-3 -5 -13 -21t-23.5 -36.5t-29.5 -43t-32.5 -41.5t-31.5 -31t-26 -12zM176 231q29 -14 56 -30.5t56 -31.5l6 -4q3 -2 8 -4.5t0 -0.5l16 -8q21 -13 40 -24t33 -24
q-11 83 -25 163.5t-37 160.5v2q0 1 -1 2.5t-2 3.5l-2 3v2q-5 13 -9 26.5t-9 19.5q-11 -15 -19.5 -34.5t-17.5 -38.5l-8 -13v1l-15 -30zM245 562q-5 0 -11 1.5t-6 12.5q0 6 9 15t19.5 16.5t20 13t10.5 5.5q12 0 21.5 -9.5t17.5 -20.5q4 -6 8.5 -11t8.5 -5q5 0 10 2.5t10 4.5
l4 2l-3 -1q11 9 18 12q7 0 13.5 -3t6.5 -11q0 -3 -8 -10t-19 -14t-22.5 -12.5t-18.5 -5.5q-13 0 -20.5 8.5t-14.5 18.5q-2 3 -5.5 7t-6.5 8q-8 -3 -16 -8t-16 -11h1l-3 -3z" />
    <glyph glyph-name="Adieresis" unicode="&#xc4;" horiz-adv-x="473" 
d="M-35 -53q-5 2 -7 4.5t-2 8.5q0 5 3 9.5t13 4.5q5 -1 15 9.5t22.5 27t26.5 36.5t26 39.5t22 35t14 23.5l35 72q-35 18 -71 35.5t-70.5 32t-66.5 23t-58 8.5q-3 0 -8 -1.5t-10 -3.5l-17 -5q-18 0 -18 15q0 4 6.5 8.5t15.5 8t18 5.5t14 2q25 0 58.5 -8.5t70.5 -22t76 -31
t76 -35.5l66 138l10 21q14 30 29 59t37 61q1 1 3 2t8 1q12 0 21 -7.5t15.5 -18t11 -22.5t6.5 -22q2 -4 2 -6l3 -7q12 -32 21.5 -67.5t17 -73t13 -75t9.5 -71.5l15 -114l-1 1q6 -13 13 -36t12.5 -48.5t9 -49.5t3.5 -38q0 -9 -5.5 -14t-11.5 -5q-9 0 -18.5 23t-18 53.5
t-14.5 61t-8 45.5q-20 28 -50.5 51t-59.5 40l-21 12l-36 20h1q-18 11 -34.5 21t-34.5 21l-38 -74q-3 -5 -13 -21t-23.5 -36.5t-29.5 -43t-32.5 -41.5t-31.5 -31t-26 -12zM176 231q29 -14 56 -30.5t56 -31.5l6 -4q3 -2 8 -4.5t0 -0.5l16 -8q21 -13 40 -24t33 -24
q-11 83 -25 163.5t-37 160.5v2q0 1 -1 2.5t-2 3.5l-2 3v2q-5 13 -9 26.5t-9 19.5q-11 -15 -19.5 -34.5t-17.5 -38.5l-8 -13v1l-15 -30zM272 579q4 0 9 -2q5 0 8.5 -4t3.5 -12l1 -5q0 -19 -20 -19q-11 0 -17 6.5t-6 15.5q0 7 5.5 13.5t15.5 6.5zM332 579q2 0 4.5 -0.5
t7.5 -2.5l-1 1q8 -3 11 -14l1 -7q0 -19 -20 -19q-11 0 -17.5 6.5t-6.5 15.5q0 7 5.5 13.5t15.5 6.5z" />
    <glyph glyph-name="Aring" unicode="&#xc5;" horiz-adv-x="473" 
d="M-35 -53q-5 2 -7 4.5t-2 8.5q0 5 3 9.5t13 4.5q5 -1 15 9.5t22.5 27t26.5 36.5t26 39.5t22 35t14 23.5l35 72q-35 18 -71 35.5t-70.5 32t-66.5 23t-58 8.5q-3 0 -8 -1.5t-10 -3.5l-17 -5q-18 0 -18 15q0 4 6.5 8.5t15.5 8t18 5.5t14 2q25 0 58.5 -8.5t70.5 -22t76 -31
t76 -35.5l66 138l10 21q14 30 29 59t37 61q1 1 3 2t8 1q12 0 21 -7.5t15.5 -18t11 -22.5t6.5 -22q2 -4 2 -6l4 -6q12 -32 21 -68t16.5 -73.5t13 -75t9.5 -71.5l15 -114l-1 1q6 -13 13 -36t12.5 -48.5t9 -49.5t3.5 -38q0 -9 -5.5 -14t-11.5 -5q-9 0 -18.5 23t-18 53.5
t-14.5 61t-8 45.5q-20 28 -50.5 51t-59.5 40l-21 12l-36 20h1q-18 11 -34.5 21t-34.5 21l-38 -74q-3 -5 -13 -21t-23.5 -36.5t-29.5 -43t-32.5 -41.5t-31.5 -31t-26 -12zM176 231q29 -14 56 -30.5t56 -31.5l6 -4q3 -2 8 -4.5t0 -0.5l16 -8q21 -13 40 -24t33 -24
q-11 83 -25 163.5t-37 160.5v2q0 1 -1 2.5t-2 3.5l-2 3v2q-5 13 -9 26.5t-9 19.5q-11 -15 -19.5 -34.5t-17.5 -38.5l-8 -13v1l-15 -30zM290 524q-26 0 -36.5 8t-10.5 25q0 14 11 28t27 24q0 5 8 9q10 0 25.5 -2t29.5 -7t24.5 -13.5t10.5 -21.5q0 -11 -8.5 -19.5t-22 -15
t-29 -10.5t-29.5 -5zM303 586q-8 -3 -16.5 -11t-8.5 -14q0 1 4 1q23 0 42 4.5t19 11.5q-3 1 -7 2q-6 1 -13 5z" />
    <glyph glyph-name="AE" unicode="&#xc6;" horiz-adv-x="633" 
d="M354 160q32 -24 44 -35.5t11 -14.5q-7 -13 -11 -13q-11 0 -34 13t-55 33l-31 17l-52 32l-37 -71q-3 -6 -14.5 -26.5t-26.5 -42.5t-32.5 -39.5t-32.5 -17.5q-17 0 -17 16q0 7 3 11t13 4q7 -2 19.5 12.5t25 33.5t22.5 37t13 25h-1l20 39l19 34q-35 17 -71.5 34.5
t-71.5 31.5t-67.5 23t-58.5 9q-7 0 -19 -5v1q-7 -4 -17 -6q-6 0 -11 4t-5 10q0 4 6.5 9t15 9t17.5 6.5t14 2.5q26 0 59 -9t69.5 -23t75.5 -32t76 -36l66 139l5 10v-1l6 15l3 3q14 29 28 56.5t31 50.5q5 11 16 11q8 0 13 -4.5t5 -17.5q0 -8 -3.5 -14t-10.5 -8
q-10 -14 -20.5 -35t-18.5 -40q-1 0 -2 -2.5t-1 -3.5l-11 -20l1 1q-2 -4 -2 -3t-2 -3l-75 -150q24 -11 45.5 -23.5t40.5 -22.5v1q7 -3 13 -7t13 -7h-2zM368 486h-3q-4 0 -5 3q-4 3 -4 13q0 5 7 11.5t12 6.5q3 0 7 -1t8 -5q6 0 10.5 1t10.5 1q22 2 46 3.5t44 1.5h5
q10 0 27 -0.5t34 -2t29.5 -5.5t12.5 -11q0 -5 -18.5 -9t-45.5 -7t-57.5 -4.5t-53.5 -1.5h-14q-10 0 -15.5 -0.5t-10.5 0.5q3 -26 6 -48t5 -43t3.5 -43t2.5 -49h3q23 2 45 3.5t44 1.5q2 0 4.5 -0.5t4.5 -0.5h26q3 0 7 -2q8 -4 8 -13q0 -6 -16 -10t-37.5 -7t-43 -4t-32.5 -1
h-14v-6q0 -3 0.5 -5.5t0.5 -4.5v-24q0 -39 -0.5 -74t-2.5 -73q0 -4 -0.5 -10t-0.5 -9v-10t-1 -9q0 -2 -0.5 -3.5t-0.5 -4.5l19 1l18 2q24 3 50 3q8 0 17 -0.5t17 -1.5q10 -1 19.5 -1.5t18.5 -0.5q2 0 6 0.5t6 1.5q3 2 8 2t10 -3.5t5 -12.5q0 -8 -13 -13t-33.5 -7t-46.5 -3
t-52 -1h-35.5t-31.5 -1q-10 0 -10 10v15z" />
    <glyph glyph-name="Ccedilla" unicode="&#xc7;" horiz-adv-x="427" 
d="M508 419v-2q-5 -11 -16 -11q-14 0 -14 16v6.5t1 5.5q2 6 2 5q0 10 -11 16.5t-27 9.5t-34 4t-33 1q-5 0 -9.5 -0.5t-9.5 -0.5h-14q-54 0 -108.5 -12t-98.5 -38.5t-71.5 -69.5t-27.5 -105q0 -49 15 -91t43 -73t68.5 -49t91.5 -18q35 0 71 7t73 15q18 0 18 -14
q0 -8 -17.5 -14.5t-41.5 -12.5t-49 -10t-40 -5v-2q0 -2 -0.5 -4t-0.5 -4l1 -8q3 1 10.5 2t12.5 1q11 0 19.5 -5.5t14 -12.5t8.5 -15t3 -12q0 -11 -12 -26t-28 -28.5t-32 -23t-25 -9.5q-7 0 -11 4.5t-4 10.5q0 5 7 11t16 12q14 10 30 23t16 24q0 9 -6 9t-8 -1q-8 -2 -16 -2
q-12 0 -20.5 6.5t-8.5 26.5v4v9t1 10q-35 2 -70 12.5t-66 31.5q-22 17 -41 43.5t-33 58t-22 65.5t-8 67q0 36 11 66t28.5 54.5t40 44t45.5 33.5q47 26 102 37.5t110 11.5q18 0 36.5 -0.5t35.5 -3.5q1 -1 2 -1h6q10 -2 26.5 -5t32.5 -9t27.5 -16t11.5 -26z" />
    <glyph glyph-name="Egrave" unicode="&#xc8;" horiz-adv-x="395" 
d="M370 467q-30 -5 -67 -11.5t-74.5 -16.5t-73 -24t-63.5 -33.5t-44.5 -45t-16.5 -58.5q0 -23 10 -36t26 -20.5t37 -9.5t42 -2q23 0 46 2l46 4q21 2 42.5 4t44.5 2q17 0 34 -3.5t22 -14.5v-5.5t-2 -5.5v1q-17 -20 -35 -37.5t-38 -34.5l-15 -13q-19 -17 -37 -33.5t-32 -33
t-22.5 -33.5t-8.5 -33t24 -22.5t54 -6.5q18 0 36.5 2t34 5t26 7t12.5 8q1 1 3 2.5t4 1.5q14 0 14 -13q0 -11 -11 -20t-30 -16t-44.5 -10.5t-53.5 -3.5q-21 0 -39.5 3t-33 10.5t-23 20t-8.5 30.5q0 21 11 42t28 42t39 41.5t44 40.5q14 11 25 22l22 22q-6 1 -13.5 1.5
t-14.5 0.5q-15 0 -30 -1.5t-32 -3.5l-18 -2q-19 -3 -41 -5t-42 -2q-22 0 -46 4t-44.5 14.5t-33.5 29.5t-13 50q0 16 3.5 33.5t9.5 33t13.5 29t16.5 21.5q31 28 66.5 46.5t72.5 30t75 18.5t75 12l29 4q13 2 25 4t25 4h5t5 -2q3 -3 3.5 -7.5t0.5 -11.5q0 -8 -8 -10zM271 505
q-1 0 -10 7t-21 17.5t-24.5 23.5t-20.5 26q-2 2 -2 10q0 15 13 15q2 0 5.5 -1.5t4.5 -2.5l20 -15q11 -10 22 -22t24 -37l3 -5q0 -7 -6 -11.5t-8 -4.5z" />
    <glyph glyph-name="Eacute" unicode="&#xc9;" horiz-adv-x="395" 
d="M288 594q-3 -8 -19 -21.5t-35 -26t-35.5 -22t-18.5 -9.5q-8 0 -12 3.5t-2 14.5q12 17 27 28.5t32 22.5q10 5 19 10.5t17 13.5q2 5 5 6.5t7 1.5q11 0 13 -6t2 -12v-4zM416 480q8 2 8 10q0 7 -0.5 11.5t-3.5 7.5q-2 2 -5 2h-5q-13 -2 -25 -4t-25 -4l-29 -4q-37 -5 -75 -12
t-75 -18.5t-72.5 -30t-66.5 -46.5q-9 -8 -16.5 -21.5t-13.5 -29t-9.5 -33t-3.5 -33.5q0 -31 13 -50t33.5 -29.5t44.5 -14.5t46 -4q20 0 42 2t41 5l18 2q17 2 32 3.5t30 1.5q7 0 14.5 -0.5t13.5 -1.5l-22 -22t-25 -22q-22 -20 -44 -40.5t-39 -41.5t-28 -42t-11 -42
q0 -18 8.5 -30.5t23 -20t33 -10.5t39.5 -3q28 0 53.5 3.5t44.5 10.5t30 16t11 20q0 13 -14 13q-2 0 -4 -1.5t-3 -2.5q-2 -4 -12.5 -8t-26 -7t-34 -5t-36.5 -2q-30 0 -54 6.5t-24 22.5t8.5 33t22.5 33.5t32 33t37 33.5l15 13q20 17 38 34.5t35 37.5v-1q2 2 2 5.5v5.5
q-5 11 -22 14.5t-34 3.5q-23 0 -44.5 -2t-42.5 -4l-46 -4t-46 -2q-21 0 -42 2t-37 9.5t-26 20.5t-10 36q0 33 16.5 58.5t44.5 45t63.5 33.5t73 24t74.5 16.5t67 11.5z" />
    <glyph glyph-name="Ecircumflex" unicode="&#xca;" horiz-adv-x="395" 
d="M370 467q-30 -5 -67 -11.5t-74.5 -16.5t-73 -24t-63.5 -33.5t-44.5 -45t-16.5 -58.5q0 -23 10 -36t26 -20.5t37 -9.5t42 -2q23 0 46 2l46 4q21 2 42.5 4t44.5 2q17 0 34 -3.5t22 -14.5v-5.5t-2 -5.5v1q-17 -20 -35 -37.5t-38 -34.5l-15 -13q-19 -17 -37 -33.5t-32 -33
t-22.5 -33.5t-8.5 -33t24 -22.5t54 -6.5q18 0 36.5 2t34 5t26 7t12.5 8q1 1 3 2.5t4 1.5q14 0 14 -13q0 -11 -11 -20t-30 -16t-44.5 -10.5t-53.5 -3.5q-21 0 -39.5 3t-33 10.5t-23 20t-8.5 30.5q0 21 11 42t28 42t39 41.5t44 40.5q14 11 25 22l22 22q-6 1 -13.5 1.5
t-14.5 0.5q-15 0 -30 -1.5t-32 -3.5l-18 -2q-19 -3 -41 -5t-42 -2q-22 0 -46 4t-44.5 14.5t-33.5 29.5t-13 50q0 16 3.5 33.5t9.5 33t13.5 29t16.5 21.5q31 28 66.5 46.5t72.5 30t75 18.5t75 12l29 4q13 2 25 4t25 4h5t5 -2q3 -3 3.5 -7.5t0.5 -11.5q0 -8 -8 -10zM204 567
q6 7 14 15t18 16v1q3 3 12 3q7 0 15.5 -10.5t15.5 -24t11.5 -26t4.5 -16.5t-6.5 -7t-12.5 -3q-6 8 -11 15q-5 6 -10 13t-8 13l-12 -14q-14 -15 -27.5 -29.5t-27.5 -14.5q-19 0 -19 19q0 8 1 9l21 18l9 9t7 8l-1 -3q0 1 1 1.5t1 1.5q0 3 1 4l3 3v-1z" />
    <glyph glyph-name="Edieresis" unicode="&#xcb;" horiz-adv-x="395" 
d="M370 467q-30 -5 -67 -11.5t-74.5 -16.5t-73 -24t-63.5 -33.5t-44.5 -45t-16.5 -58.5q0 -23 10 -36t26 -20.5t37 -9.5t42 -2q23 0 46 2l46 4q21 2 42.5 4t44.5 2q17 0 34 -3.5t22 -14.5v-5.5t-2 -5.5v1q-17 -20 -35 -37.5t-38 -34.5l-15 -13q-19 -17 -37 -33.5t-32 -33
t-22.5 -33.5t-8.5 -33t24 -22.5t54 -6.5q18 0 36.5 2t34 5t26 7t12.5 8q1 1 3 2.5t4 1.5q14 0 14 -13q0 -11 -11 -20t-30 -16t-44.5 -10.5t-53.5 -3.5q-21 0 -39.5 3t-33 10.5t-23 20t-8.5 30.5q0 21 11 42t28 42t39 41.5t44 40.5q14 11 25 22l22 22q-6 1 -13.5 1.5
t-14.5 0.5q-15 0 -30 -1.5t-32 -3.5l-18 -2q-19 -3 -41 -5t-42 -2q-22 0 -46 4t-44.5 14.5t-33.5 29.5t-13 50q0 16 3.5 33.5t9.5 33t13.5 29t16.5 21.5q31 28 66.5 46.5t72.5 30t75 18.5t75 12l29 4q13 2 25 4t25 4h5t5 -2q3 -3 3.5 -7.5t0.5 -11.5q0 -8 -8 -10zM228 557
q4 0 8 -1q5 0 9 -4t7 -8v-7q0 -1 0.5 -1.5t0.5 -1.5q0 -6 -4.5 -12t-17.5 -6q-11 0 -17.5 7t-6.5 14q0 20 21 20zM299 556q12 -3 13 -15q2 -6 -0.5 -15.5t-20.5 -9.5q-11 0 -17 7t-6 14q0 20 21 20h4.5t5.5 -1z" />
    <glyph glyph-name="Igrave" unicode="&#xcc;" horiz-adv-x="109" 
d="M-59 466q-1 1 -1 4q-2 4 -2 7q0 5 4 10.5t12 5.5q4 0 7.5 -1.5t6.5 -3.5q4 -2 9 -2q15 0 33 8.5t35 20.5t31 25.5t21 23.5h10q11 0 13 -6t2 -17q-4 -7 -7 -21t-5.5 -31t-4.5 -36t-4 -35l-4 -35q-2 -17 -5 -33t-6 -33l-7 -37q-12 -61 -21 -123.5t-9 -122.5q0 -14 0.5 -34
t4.5 -40q2 2 7 2q8 0 11 -5.5t3 -10.5q0 -1 -0.5 -2t-0.5 -3v-4q0 -4 1 -9t3 -10l-1 1q2 -5 5 -11t3 -13q-2 -8 -4.5 -11t-11.5 -3q-12 0 -22.5 16t-18 39t-12 49.5t-4.5 47.5q0 62 9 123t20 124q2 13 4 25.5t4 26.5l9 57v5t1 5v-1l3 19q2 20 4 38.5t6 38.5
q-23 -17 -48 -27.5t-47 -10.5q-11 0 -20 2t-16 8zM120 567q-1 0 -9.5 7t-20.5 17.5t-24.5 24t-20.5 26.5v-1q-3 1 -3 10q0 5 3.5 10t9.5 5q2 0 5.5 -1.5t4.5 -2.5l20 -15q11 -10 22.5 -23.5t26.5 -41.5q0 -6 -4.5 -10.5t-9.5 -4.5z" />
    <glyph glyph-name="Iacute" unicode="&#xcd;" horiz-adv-x="109" 
d="M142 627q-3 -8 -19 -22t-35 -27t-35 -22.5t-18 -9.5q-15 0 -15 16q0 1 0.5 2.5t0.5 2.5q11 14 25 25t31 22h-1l2 1q11 8 21.5 15t16.5 15q5 2 7.5 2.5t4.5 0.5q11 0 12.5 -4.5t1.5 -12.5v-4zM-59 471q7 -6 16 -8t20 -2q22 0 47 10.5t48 27.5q-4 -20 -6 -38.5t-4 -38.5
l-3 -19v1q-1 -2 -1 -5v-5l-9 -57q-2 -14 -4 -26.5t-4 -25.5q-11 -63 -20 -124t-9 -123q0 -21 4.5 -47.5t12 -49.5t18 -39t22.5 -16q9 0 11.5 3t4.5 11q0 7 -3 13t-5 11l1 -1q-2 5 -3 10t-1 9v4q0 2 0.5 3t0.5 2q0 5 -3 10.5t-11 5.5q-5 0 -7 -2q-4 20 -5 40t-1 34
q0 60 9.5 122.5t21.5 123.5l7 37q3 17 6 33t5 33l4 36q0 2 0.5 5.5t0.5 5.5q2 15 4 32t4 32t5 27.5t7 18.5q0 12 -2 18t-13 6h-10q-7 -10 -21 -23.5t-31 -25.5t-35 -20.5t-33 -8.5q-5 0 -9 2q-3 2 -6.5 3.5t-7.5 1.5q-8 0 -12 -5.5t-4 -10.5q0 -3 2 -7q0 -3 1 -4z" />
    <glyph glyph-name="Icircumflex" unicode="&#xce;" horiz-adv-x="109" 
d="M-59 466q-1 1 -1 4q-2 4 -2 7q0 5 4 10.5t12 5.5q4 0 7.5 -1.5t6.5 -3.5q4 -2 9 -2q15 0 33 8.5t35 20.5t31 25.5t21 23.5h10q11 0 13 -6t2 -17q-3 -7 -6 -21t-6 -31t-5 -36t-4 -35l-4 -35q-2 -17 -5 -33t-6 -33l-7 -37q-12 -61 -21 -123.5t-9 -122.5q0 -14 1 -34.5
t5 -39.5q2 2 6 2q8 0 11 -5.5t3 -10.5q0 -1 -0.5 -2t-0.5 -3v-4q0 -4 1 -9t3 -10l-1 1q2 -5 5 -11t3 -13q-2 -8 -4.5 -11t-11.5 -3q-12 0 -22.5 16t-18 39t-12 49.5t-4.5 47.5q0 64 8.5 122.5t20.5 124.5q5 26 9 52.5t8 56.5v-1q0 8 1 11v-1l3 19q2 20 4.5 38t6.5 39
q-22 -16 -48.5 -27t-47.5 -11q-11 0 -20 2t-16 8zM60 615q7 9 16 18.5t22 17.5v1q3 3 12 3q7 0 15.5 -10.5t15.5 -23t11.5 -24.5t4.5 -15q0 -8 -6.5 -11t-12.5 -3q-6 8 -11 15q-5 6 -10 13t-7 13l-11 -11v1q-1 -1 -2 -3q-1 -1 -1 -1.5t-1 -1.5l-1 -1v1l-27.5 -27.5
t-24.5 -13.5q-19 0 -19 19v6.5t2 5.5l24 18h-1l8 10l4 5v-1z" />
    <glyph glyph-name="Idieresis" unicode="&#xcf;" horiz-adv-x="109" 
d="M-59 466q-1 1 -1 4q-2 4 -2 7q0 5 4 10.5t12 5.5q4 0 7.5 -1.5t6.5 -3.5q4 -2 9 -2q15 0 33 8.5t35 20.5t31 25.5t21 23.5h10q11 0 13 -6t2 -17q-3 -7 -6 -21t-6 -31t-5 -36t-4 -35l-4 -35q-2 -17 -5 -33t-6 -33l-7 -37q-12 -61 -21 -123.5t-9 -122.5q0 -14 1 -34.5
t5 -39.5q2 2 6 2q8 0 11 -5.5t3 -10.5q0 -1 -0.5 -2t-0.5 -3v-4q0 -4 1 -9t3 -10l-1 1q2 -5 5 -11t3 -13q-2 -8 -4.5 -11t-11.5 -3q-12 0 -22.5 16t-18 39t-12 49.5t-4.5 47.5q0 64 8.5 122.5t20.5 124.5q5 26 9 52.5t8 56.5v-1q0 8 1 11v-1l3 19q2 20 4.5 38t6.5 39
q-22 -16 -48.5 -27t-47.5 -11q-11 0 -20 2t-16 8zM89 603q11 -2 11 -14v-4q0 -1 0.5 -1.5t0.5 -1.5q0 -5 -4.5 -11.5t-17.5 -6.5q-11 0 -17 8t-6 13q0 19 21 19h6.5t5.5 -1zM137 604q4 0 8 -1q12 0 16 -10v-8q0 -1 0.5 -1.5t0.5 -1.5q0 -5 -4.5 -11.5t-17.5 -6.5
q-11 0 -17 8t-6 13q0 19 20 19z" />
    <glyph glyph-name="Eth" unicode="&#xd0;" horiz-adv-x="489" 
d="M8 204q-7 0 -11 4.5t-4 9.5t5.5 8.5t14.5 5.5t19 3.5t19 2.5q5 1 3 1t0 0v13q0 52 10 104t31 91q1 1 1 2l6 9l6 10l10 16t8 11v-1q21 23 46 33t54 10q30 0 60.5 -15t58 -40.5t52 -58.5t42 -69.5t28 -73.5t10.5 -69q0 -54 -24 -99t-61.5 -81t-84.5 -62t-93 -40l-13 -4h1
l-24 -6t-25 -3h-32q-22 0 -29.5 2t-19.5 7l-37 16q-5 5 -5 13q0 7 6 11t14 4l3 -1l2 -1l12 -6v1q15 -7 28.5 -11.5t32.5 -4.5q41 0 88.5 19t91 49t77.5 67.5t48 75.5q6 24 6 48q0 45 -19 97t-49.5 96t-69 73t-78.5 29q-37 0 -62 -24t-40 -61.5t-22 -83.5t-9 -89l22 4
q26 5 47 7t52 2q11 0 21.5 -3t10.5 -13q0 -8 -19.5 -13.5t-45 -9.5t-51 -6.5t-37.5 -3.5q0 -54 3.5 -105t8.5 -96l2 -3l-1 4q2 -2 2 -4v-4q0 -6 -5 -9.5t-10 -3.5q-4 0 -13 6q-2 2 -2 6q-1 14 -2 27.5t-3 29.5l-2 21q-4 29 -7 61.5t-5 68.5q-14 -1 -24 -1h-24z" />
    <glyph glyph-name="Ntilde" unicode="&#xd1;" horiz-adv-x="476" 
d="M176 588q-2 -2 -5.5 -2h-5.5q-5 0 -10 3.5t-5 10.5q0 2 1 4t7 12l7 7q11 11 21 19t23 8q14 0 21.5 -8t14.5 -19l2 -4l-1 3q5 -7 9.5 -12.5t7.5 -5.5q5 0 11.5 3.5t11.5 6.5q3 2 8.5 6t10.5 6q3 0 10.5 -4.5t7.5 -9.5q0 -4 -8 -11t-19 -13.5t-23 -11.5t-19 -5
q-12 0 -18.5 6t-11.5 14v-1l-3 5q-1 1 -1 2t-1 3q-2 2 -5 6t-4 6q-8 -2 -15 -7.5t-12 -10.5zM-90 -90q-11 5 -11 16q0 8 6 11t14 3q10 0 20.5 6t20.5 15t19 20t17 21q14 22 31.5 57.5t35 75.5t34 82.5t30.5 79t24 64t14 39.5v11q0 5 -0.5 9t-0.5 7q-1 8 -1 20v20q0 13 1 27
t4.5 25t9.5 18t15 7q8 0 13.5 -4t5.5 -25q0 -41 -3 -61.5t-7 -36.5l-3 -16q2 -43 6 -91.5t11 -91.5q3 -18 7 -46t10.5 -56t17 -53t27.5 -37l6 -4q21 -16 46 -2q25 13 43 35t29.5 49t17 55.5t5.5 54.5q0 67 -26.5 135t-59.5 127q-1 2 -7 13.5t-13.5 25t-15 26t-10.5 16.5v-1
q-3 1 -3 11q0 15 14 15q10 0 16 -10t8 -20l-1 1l3 -7v1l24 -39q20 -34 39 -68t33.5 -71t23.5 -78.5t9 -89.5q0 -34 -7 -63.5t-23 -54.5q-10 -17 -22 -36.5t-27.5 -36t-35 -27.5t-43.5 -11t-41.5 14t-29.5 34.5t-19.5 44.5t-12.5 44l-12 55q-3 18 -5.5 32.5t-4.5 29.5
t-4 32.5t-3 42.5q-23 -61 -51 -126.5t-58.5 -121.5t-60.5 -95t-56 -46q-3 -1 -7.5 -1h-9.5q-2 0 -3 -0.5t-3 -0.5h-10z" />
    <glyph glyph-name="Ograve" unicode="&#xd2;" horiz-adv-x="759" 
d="M541 474q37 -26 74 -55.5t66 -63.5t47.5 -73t18.5 -83q0 -52 -35 -97q-33 -36 -75 -62t-89 -42.5t-97 -24t-98 -7.5q-62 0 -123.5 12.5t-111 41t-80.5 74.5t-31 112q0 31 7 65q6 24 26.5 48.5t47.5 47.5t55 42t49 31q33 19 73.5 32.5t74.5 21.5l30 7q25 7 58 12
q-1 3 -1 6q0 2 4 6.5t10 4.5q12 0 34 -14q10 0 23 -2.5t24.5 -6.5t18.5 -10t4 -14zM667 315q-14 17 -35 38t-47.5 43.5t-56 45t-60.5 42.5q-34 -4 -79 -13.5t-92.5 -25.5t-93.5 -39t-82.5 -53.5t-59 -68t-22.5 -83.5q0 -48 27.5 -85t71.5 -63t99 -39.5t111 -13.5
q69 0 133.5 16.5t115.5 41.5q19 10 39 25t36.5 33.5t27 39.5t10.5 45q0 29 -11.5 59.5t-31.5 54.5zM455 542q-8 4 -19 11.5t-22.5 16.5t-22.5 18.5t-17 19.5q-5 2 -5 11q0 8 5 11t10 3q2 0 3.5 -0.5t9.5 -4.5q7 -7 13 -11.5t13 -10.5l5 -4h-2l9 -5q11 -8 21 -16.5t24 -25.5
v1q1 -2 2 -3t1 -6q0 -8 -5 -11t-10 -3t-7.5 5t-5.5 4z" />
    <glyph glyph-name="Oacute" unicode="&#xd3;" horiz-adv-x="759" 
d="M444 617h1q-2 -9 -18.5 -23t-35.5 -27.5t-35 -23.5t-19 -10q-14 0 -14 14q0 2 0.5 3.5t3.5 6.5q9 15 24.5 25.5t31.5 21.5q11 7 20 14t16 13q8 4 9.5 4.5t3.5 0.5t8 -4t6 -11zM545 483q3 8 -4 14t-18.5 10t-24.5 6.5t-23 2.5q-22 14 -34 14q-6 0 -10 -4.5t-4 -6.5
q0 -3 1 -6q-33 -5 -58 -12l-30 -7q-34 -8 -74.5 -21.5t-73.5 -32.5q-21 -12 -49 -31t-55 -42t-47.5 -47.5t-26.5 -48.5q-7 -34 -7 -65q0 -66 31 -112t80.5 -74.5t111 -41t123.5 -12.5q48 0 98 7.5t97 24t89 42.5t75 62q35 45 35 97q0 44 -18.5 83t-47.5 73t-66 63.5
t-74 55.5zM667 315q20 -24 31.5 -54.5t11.5 -59.5q0 -24 -10.5 -45t-27 -39.5t-36.5 -33.5t-39 -25q-51 -25 -115.5 -41.5t-133.5 -16.5q-56 0 -111 13.5t-99 39.5t-71.5 63t-27.5 85q0 46 22.5 83.5t59 68t82.5 53.5t93.5 39t92.5 25.5t79 13.5q31 -20 60.5 -42.5t56 -45
t47.5 -43.5t35 -38z" />
    <glyph glyph-name="Ocircumflex" unicode="&#xd4;" horiz-adv-x="759" 
d="M541 474q37 -26 74 -55.5t66 -63.5t47.5 -73t18.5 -83q0 -52 -35 -97q-33 -36 -75 -62t-89 -42.5t-97 -24t-98 -7.5q-62 0 -123.5 12.5t-111 41t-80.5 74.5t-31 112q0 31 7 65q6 24 26.5 48.5t47.5 47.5t55 42t49 31q33 19 73.5 32.5t74.5 21.5l30 7q25 7 58 12
q-1 3 -1 6q0 2 4 6.5t10 4.5q12 0 34 -14q10 0 23 -2.5t24.5 -6.5t18.5 -10t4 -14zM667 315q-14 17 -35 38t-47.5 43.5t-56 45t-60.5 42.5q-34 -4 -79 -13.5t-92.5 -25.5t-93.5 -39t-82.5 -53.5t-59 -68t-22.5 -83.5q0 -48 27.5 -85t71.5 -63t99 -39.5t111 -13.5
q69 0 133.5 16.5t115.5 41.5q19 10 39 25t36.5 33.5t27 39.5t10.5 45q0 29 -11.5 59.5t-31.5 54.5zM415 640q2 1 3.5 2t2.5 1h1q8 0 16.5 -10.5t15.5 -23.5t11.5 -25.5t4.5 -16.5q0 -5 -4.5 -7t-9.5 -2l-6 6q-6 4 -12 12l-10 11l-6 8l-9 -9q-11 -16 -27 -32t-32 -16
q-6 0 -11.5 5t-5.5 13q0 10 5 15l21 17h-1l15 16l4 5v-1q7 8 14.5 16.5t18.5 16.5z" />
    <glyph glyph-name="Otilde" unicode="&#xd5;" horiz-adv-x="759" 
d="M541 474q37 -26 74 -55.5t66 -63.5t47.5 -73t18.5 -83q0 -52 -35 -97q-33 -36 -75 -62t-89 -42.5t-97 -24t-98 -7.5q-62 0 -123.5 12.5t-111 41t-80.5 74.5t-31 112q0 31 7 65q6 24 26.5 48.5t47.5 47.5t55 42t49 31q33 19 73.5 32.5t74.5 21.5l30 7q25 7 58 12
q-1 3 -1 6q0 2 4 6.5t10 4.5q12 0 34 -14q10 0 23 -2.5t24.5 -6.5t18.5 -10t4 -14zM667 315q-14 17 -35 38t-47.5 43.5t-56 45t-60.5 42.5q-34 -4 -79 -13.5t-92.5 -25.5t-93.5 -39t-82.5 -53.5t-59 -68t-22.5 -83.5q0 -48 27.5 -85t71.5 -63t99 -39.5t111 -13.5
q69 0 133.5 16.5t115.5 41.5q19 10 39 25t36.5 33.5t27 39.5t10.5 45q0 29 -11.5 59.5t-31.5 54.5zM325 552q-5 0 -11.5 1.5t-6.5 12.5q0 6 8.5 15t19.5 16.5t20 13t11 5.5q14 0 22.5 -9t16.5 -19l1 -4v2q3 -5 7 -10.5t9 -5.5q4 0 10 3t11 7l19 10q11 0 14.5 -2.5t3.5 -10.5
q0 -3 -8 -10.5t-18.5 -14.5t-22.5 -12.5t-19 -5.5q-14 0 -22 9.5t-14 21.5l-2 3l1 -3l-8 12q-8 -3 -16.5 -9t-17.5 -13l-5 -2h2z" />
    <glyph glyph-name="Odieresis" unicode="&#xd6;" horiz-adv-x="759" 
d="M541 474q37 -26 74 -55.5t66 -63.5t47.5 -73t18.5 -83q0 -52 -35 -97q-33 -36 -75 -62t-89 -42.5t-97 -24t-98 -7.5q-62 0 -123.5 12.5t-111 41t-80.5 74.5t-31 112q0 31 7 65q6 24 26.5 48.5t47.5 47.5t55 42t49 31q33 19 73.5 32.5t74.5 21.5l30 7q25 7 58 12
q-1 3 -1 6q0 2 4 6.5t10 4.5q12 0 34 -14q10 0 23 -2.5t24.5 -6.5t18.5 -10t4 -14zM667 315q-14 17 -35 38t-47.5 43.5t-56 45t-60.5 42.5q-34 -4 -79 -13.5t-92.5 -25.5t-93.5 -39t-82.5 -53.5t-59 -68t-22.5 -83.5q0 -48 27.5 -85t71.5 -63t99 -39.5t111 -13.5
q69 0 133.5 16.5t115.5 41.5q19 10 39 25t36.5 33.5t27 39.5t10.5 45q0 29 -11.5 59.5t-31.5 54.5zM393 589q4 0 10 -2q2 -1 5.5 -3t5.5 -10q0 -10 -2.5 -17.5t-17.5 -7.5q-11 0 -16.5 6.5t-5.5 15.5q0 7 4.5 12.5t16.5 5.5zM453 589q2 0 4 -0.5t7 -2.5v1q3 -1 5.5 -3.5
t4.5 -10.5l1 -5q0 -19 -20 -19q-11 0 -17 6.5t-6 15.5q0 7 5.5 12.5t15.5 5.5z" />
    <glyph glyph-name="multiply" unicode="&#xd7;" horiz-adv-x="197" 
d="M143 226q5 2 6 2.5t2 0.5q5 0 9.5 -2.5t4.5 -10.5q0 -6 -7 -13.5t-16 -15.5q-2 -1 -5.5 -5.5t-15.5 -17.5q11 -8 22.5 -17.5t21 -19t15.5 -18.5t6 -16q0 -5 -6.5 -7.5t-9.5 -2.5q-11 8 -24 17q-11 8 -25.5 18t-31.5 21q-12 -13 -24.5 -27.5t-23.5 -27.5q-12 -15 -24 -31
h-4q-7 0 -11 3t-4 14q6 24 23 47t37 41q-14 8 -26.5 13t-20.5 10v-1q-5 2 -8 7t-3 10q0 14 14 15q12 0 32 -8t40 -20q3 2 6 4.5t6 4.5q4 2 7.5 5t7.5 6q8 5 15.5 11t13.5 12z" />
    <glyph glyph-name="Oslash" unicode="&#xd8;" horiz-adv-x="763" 
d="M541 474q37 -26 74 -55.5t66 -63.5t47.5 -73t18.5 -83q0 -52 -35 -97q-33 -36 -75 -62t-89 -42.5t-97 -24t-98 -7.5q-62 0 -123.5 12.5t-111 41t-80.5 74.5t-31 112q0 31 7 65q6 24 26.5 48.5t47.5 47.5t55 42t49 31q33 19 73.5 32.5t74.5 21.5l30 7q25 7 58 12
q-1 3 -1 6q0 2 4 6.5t10 4.5q12 0 34 -14q10 0 23 -2.5t24.5 -6.5t18.5 -10t4 -14zM667 315q-14 17 -35 38t-47.5 43.5t-56 45t-60.5 42.5q-34 -4 -79 -13.5t-92.5 -25.5t-93.5 -39t-82.5 -53.5t-59 -68t-22.5 -83.5q0 -48 27.5 -85t71.5 -63t99 -39.5t111 -13.5
q69 0 133.5 16.5t115.5 41.5q19 10 39 25t36.5 33.5t27 39.5t10.5 45q0 29 -11.5 59.5t-31.5 54.5zM518 442q23 24 39 42t23 26q4 10 13 10q15 0 15 -19q-13 -16 -30.5 -36.5t-39.5 -44.5l-29 -32q-34 -38 -73 -82t-78 -89.5t-76 -91.5t-67.5 -88.5t-52 -79.5t-29.5 -64
q-8 -15 -16 -15q-16 0 -16 16q3 29 26 71t58.5 91.5t79.5 102.5t89.5 104.5t88 97.5t75.5 81z" />
    <glyph glyph-name="Ugrave" unicode="&#xd9;" horiz-adv-x="647" 
d="M-147 456q-2 -1 -5 -1h-1q-5 0 -9.5 3.5t-4.5 8.5q0 9 7 14q28 19 63.5 34.5t71.5 26t69.5 16t59.5 5.5q23 0 48.5 -6t46.5 -20.5t35 -37.5t14 -57q0 -45 -11.5 -85.5t-22.5 -69.5v1q-1 -3 -2 -5t-1 -5q-6 -10 -8 -24l-18 -38q-10 -21 -20.5 -44t-18.5 -45.5t-13.5 -43.5
t-5.5 -40q0 -35 23 -50t59 -15q41 0 92 16t98 41t83.5 54.5t49.5 56.5l-1 -1l9 78v-1q3 37 7.5 78.5t10.5 77t13.5 59t16.5 23.5q13 0 22.5 -14.5t15 -35t8 -43t2.5 -38.5q0 -41 -5 -69.5t-13 -49t-17.5 -35.5t-19.5 -27q-2 -2 -3 -4.5t-3 -4.5q-8 -10 -12 -25t-5.5 -32.5
t-2 -36.5t-0.5 -36q0 -45 6.5 -90.5t23.5 -87.5q0 -9 -1.5 -15t-10.5 -6q-6 0 -7.5 0.5t-3.5 2.5q-26 53 -34.5 97t-8.5 89q0 23 0.5 42t2.5 42q-32 -30 -71 -56t-80.5 -44.5t-83 -29.5t-79.5 -11q-50 0 -84.5 22t-34.5 75q0 29 10 59q11 33 23.5 64t25.5 60q24 55 44 109.5
t20 103.5q0 45 -25 70t-82 25q-25 0 -55.5 -4.5t-58.5 -12.5q-33 -11 -70 -24t-66 -33h-2zM582 303q-2 -17 -2.5 -32t-1.5 -32q0 -5 -0.5 -8.5t-0.5 -6.5q0 -5 0.5 -5h0.5v-1t-1 -7q11 25 17 53t6 55t-6 54zM403 540q-1 0 -9.5 7t-20 17.5t-23.5 24t-21 25.5h-1q-3 1 -3 12
q0 15 14 15q5 0 9 -4l21 -18q11 -10 22 -22t24 -35q2 -5 2.5 -5.5t0.5 -1.5q0 -5 -5 -10t-10 -5z" />
    <glyph glyph-name="Uacute" unicode="&#xda;" horiz-adv-x="647" 
d="M471 615q-3 -9 -19 -22.5t-35 -27t-35 -23t-19 -9.5q-14 0 -14 14q0 7 16 22t35.5 30t36.5 26t20 11q5 0 9.5 -4.5t4.5 -12.5v-4zM-143 461q29 20 66 33t70 24q28 8 58.5 12.5t55.5 4.5q57 0 82 -25t25 -70q0 -49 -20 -103.5t-44 -109.5q-13 -29 -25.5 -60t-23.5 -64
q-10 -30 -10 -59q0 -53 34.5 -75t84.5 -22q38 0 79.5 11t83 29.5t80.5 44.5t71 56q-2 -23 -2.5 -42t-0.5 -42q0 -45 8.5 -89t34.5 -97q2 -2 3.5 -2.5t7.5 -0.5q9 0 10.5 6t1.5 15q-17 42 -23.5 87.5t-6.5 90.5q0 17 0.5 36t2 36.5t5.5 32.5t12 25q2 2 3 4.5t3 4.5
q10 12 19.5 27t17.5 35.5t13 49t5 69.5q0 16 -2.5 38.5t-8 43t-15 35t-22.5 14.5q-9 0 -16.5 -23.5t-13.5 -59t-10.5 -77t-7.5 -78.5v1l-9 -78l1 1q-13 -27 -49.5 -56.5t-83.5 -54.5t-98 -41t-92 -16q-36 0 -59 15t-23 50q0 19 5.5 40t13.5 43.5t18.5 45.5t20.5 44
q7 17 11.5 28t7 17.5t4 10t3.5 6.5q0 3 1 5t2 5v-1q11 29 22.5 69.5t11.5 85.5q0 34 -14 57t-35 37.5t-46.5 20.5t-48.5 6q-26 0 -59.5 -5.5t-69.5 -16t-71.5 -26t-63.5 -34.5q-7 -5 -7 -14q0 -5 4.5 -8.5t9.5 -3.5h1q3 0 5 1h2zM584 308l12 70q6 -27 6 -54t-6 -55t-17 -53
q-1 1 -0.5 2.5t0.5 10.5q0 3 0.5 6.5t0.5 8.5q1 17 1.5 32t2.5 32z" />
    <glyph glyph-name="Ucircumflex" unicode="&#xdb;" horiz-adv-x="647" 
d="M-147 456q-2 -1 -5 -1h-1q-5 0 -9.5 3.5t-4.5 8.5q0 9 7 14q28 19 63.5 34.5t71.5 26t69.5 16t59.5 5.5q23 0 48.5 -6t46.5 -20.5t35 -37.5t14 -57q0 -45 -11.5 -85.5t-22.5 -69.5v1q-1 -3 -2 -5t-1 -5q-6 -10 -8 -24l-18 -38q-10 -21 -20.5 -44t-18.5 -45.5t-13.5 -43.5
t-5.5 -40q0 -35 23 -50t59 -15q41 0 92 16t98 41t83.5 54.5t49.5 56.5l-1 -1l9 78v-1q3 37 7.5 78.5t10.5 77t13.5 59t16.5 23.5q13 0 22.5 -14.5t15 -35t8 -43t2.5 -38.5q0 -41 -5 -69.5t-13 -49t-17.5 -35.5t-19.5 -27q-2 -2 -3 -4.5t-3 -4.5q-8 -10 -12 -25t-5.5 -32.5
t-2 -36.5t-0.5 -36q0 -45 6.5 -90.5t23.5 -87.5q0 -9 -1.5 -15t-10.5 -6q-6 0 -7.5 0.5t-3.5 2.5q-26 53 -34.5 97t-8.5 89q0 23 0.5 42t2.5 42q-32 -30 -71 -56t-80.5 -44.5t-83 -29.5t-79.5 -11q-50 0 -84.5 22t-34.5 75q0 29 10 59q11 33 23.5 64t25.5 60q24 55 44 109.5
t20 103.5q0 45 -25 70t-82 25q-25 0 -55.5 -4.5t-58.5 -12.5q-33 -11 -70 -24t-66 -33h-2zM582 303q-2 -17 -2.5 -32t-1.5 -32q0 -5 -0.5 -8.5t-0.5 -6.5q0 -5 0.5 -5h0.5v-1t-1 -7q11 25 17 53t6 55t-6 54zM424 640q5 2 5.5 2.5t1.5 0.5q8 0 16.5 -10.5t15 -23.5t11 -25.5
t4.5 -16.5q0 -12 -19 -12q-6 7 -11 14q-5 6 -10 13t-8 12l-12 -13l-3 -4v1q-13 -14 -25.5 -27t-26.5 -13q-8 0 -13.5 5t-5.5 13q0 10 5 15l20 17l12 13v-1q7 11 17 21t25 20z" />
    <glyph glyph-name="Udieresis" unicode="&#xdc;" horiz-adv-x="647" 
d="M-147 456q-2 -1 -5 -1h-1q-5 0 -9.5 3.5t-4.5 8.5q0 9 7 14q28 19 63.5 34.5t71.5 26t69.5 16t59.5 5.5q23 0 48.5 -6t46.5 -20.5t35 -37.5t14 -57q0 -45 -11.5 -85.5t-22.5 -69.5v1q-1 -3 -2 -5t-1 -5q-6 -10 -8 -24l-18 -38q-10 -21 -20.5 -44t-18.5 -45.5t-13.5 -43.5
t-5.5 -40q0 -35 23 -50t59 -15q41 0 92 16t98 41t83.5 54.5t49.5 56.5l-1 -1l9 78v-1q3 37 7.5 78.5t10.5 77t13.5 59t16.5 23.5q13 0 22.5 -14.5t15 -35t8 -43t2.5 -38.5q0 -41 -5 -69.5t-13 -49t-17.5 -35.5t-19.5 -27q-2 -2 -3 -4.5t-3 -4.5q-8 -10 -12 -25t-5.5 -32.5
t-2 -36.5t-0.5 -36q0 -45 6.5 -90.5t23.5 -87.5q0 -9 -1.5 -15t-10.5 -6q-6 0 -7.5 0.5t-3.5 2.5q-26 53 -34.5 97t-8.5 89q0 23 0.5 42t2.5 42q-32 -30 -71 -56t-80.5 -44.5t-83 -29.5t-79.5 -11q-50 0 -84.5 22t-34.5 75q0 29 10 59q11 33 23.5 64t25.5 60q24 55 44 109.5
t20 103.5q0 45 -25 70t-82 25q-25 0 -55.5 -4.5t-58.5 -12.5q-33 -11 -70 -24t-66 -33h-2zM582 303q-2 -17 -2.5 -32t-1.5 -32q0 -5 -0.5 -8.5t-0.5 -6.5q0 -5 0.5 -5h0.5v-1t-1 -7q11 25 17 53t6 55t-6 54zM380 579q3 0 9 -2q8 -3 11 -14l1 -7q0 -8 -4 -13.5t-16 -5.5
q-11 0 -17 6.5t-6 15.5q0 7 5.5 13.5t16.5 6.5zM440 579q4 0 10 -2q10 -2 11 -14l1 -7q0 -8 -4.5 -13.5t-16.5 -5.5q-11 0 -16.5 6.5t-5.5 15.5q0 7 4.5 13.5t16.5 6.5z" />
    <glyph glyph-name="Yacute" unicode="&#xdd;" horiz-adv-x="606" 
d="M272 563l-1 -2q-4 -9 -20 -23t-34.5 -26.5t-34 -21.5t-18.5 -9q-6 0 -10 4.5t-4 8.5q0 5 1 6.5t3 3.5q9 12 21 21.5t25 17.5l10 7h-1l22 16t22 17q7 0 13.5 -1.5t6.5 -12.5q0 -1 -0.5 -2t-0.5 -2v-2zM-346 473l-16 -5q-2 -2 -2 -5v-5q0 -16 19 -16q42 14 94.5 23.5
t107.5 9.5q40 0 77.5 -8t66.5 -27.5t47 -52.5t18 -84q0 -34 -10 -80t-21 -91q-8 -37 -14.5 -69t-6.5 -54q0 -32 17.5 -43t43.5 -11q19 0 41.5 6.5t45 16t43 19.5t34.5 18l1 1q23 12 51 28.5t57.5 36t58.5 40.5t54 42q6 -21 9 -40.5t3 -41.5q0 -13 -1 -27t-3 -26
q-7 1 -14.5 1h-15.5q-35 0 -71 -5.5t-70.5 -14t-66.5 -18.5t-59 -20q-28 -11 -65.5 -28t-71.5 -40t-57.5 -51.5t-23.5 -61.5q0 -20 12.5 -41.5t34 -39.5t50.5 -30t63 -12q49 0 98 21t92.5 51.5t78.5 66.5t57 66q13 19 31 50t29 61q6 -6 11 -9.5t11 -3.5q15 0 15 12q0 2 -3 7
t-7.5 11t-10 12t-9.5 9q0 3 0.5 4.5t0.5 4.5v9q1 5 1 14v16q0 30 -3.5 61t-11.5 62q47 48 68.5 96.5t21.5 109.5q0 22 -5.5 46t-19 44.5t-35.5 33.5t-56 13q-21 0 -35.5 -10t-23.5 -26t-13 -35.5t-4 -38.5q0 -40 10.5 -79t24.5 -75l4 -11q5 -15 10 -29t8 -25
q-52 -52 -108.5 -89.5t-115.5 -69.5l-6 -3l-9 -4q-31 -17 -66.5 -33t-69.5 -16q-17 2 -20.5 11t-3.5 23q0 27 8 58t16 58l10 33l5.5 38.5t4 35t2.5 36.5t1 42q0 52 -23.5 87t-60 56t-81 29.5t-86.5 8.5q-45 0 -91.5 -9.5t-87.5 -20.5zM448 -39q-22 -49 -59.5 -95.5
t-83.5 -83t-97.5 -58.5t-101.5 -22q-21 0 -42 7t-37 19.5t-26 29t-10 36.5q0 24 16.5 45t43.5 39.5t60.5 33.5t68.5 27.5t67 21.5t55 14q12 3 29.5 7t38 8t42 6.5t40.5 2.5h10l-12 -36q-2 0 -2 -2zM433 406v11q0 2 -0.5 3t-0.5 3v6q0 24 7 46t29 22q19 0 34.5 -10
t26.5 -25.5t16.5 -34t5.5 -34.5q0 -42 -21 -83.5t-48 -74.5q-3 9 -6.5 20t-8.5 21q-11 32 -21 66.5t-13 63.5z" />
    <glyph glyph-name="Thorn" unicode="&#xde;" horiz-adv-x="195" 
d="M16 457q0 6 4.5 10t9.5 4q8 0 12 -20.5t6 -50t2.5 -60.5t0.5 -52q75 -2 106.5 -20t31.5 -39q0 -14 -12.5 -29t-31.5 -29t-41 -27.5t-41 -25.5l-14 -8q-1 -28 -2.5 -53t-4 -44.5t-6.5 -31t-9 -11.5q-8 0 -11 22.5t-3 49.5q0 63 0.5 127t1.5 127q1 41 1 80.5v80.5zM49 143
l15 10h-1q13 8 28 18t28.5 20.5t22.5 20t9 17.5q0 4 -8.5 8t-22 8t-31.5 7l-36 6h-2v-16z" />
    <glyph glyph-name="germandbls" unicode="&#xdf;" horiz-adv-x="291" 
d="M68 -159q0 -14 -15 -14q-3 0 -8.5 16.5t-11 38t-10.5 42.5t-7 30q-5 25 -7 51.5t-2 52.5q0 27 2.5 61t8.5 69t16 68.5t26 59.5t38.5 42t52.5 16q11 0 23.5 -4.5t23.5 -13t18.5 -20.5t7.5 -27q0 -14 -9 -31t-18 -35q0 -2 -1.5 -4t-2.5 -4q-8 -11 -14.5 -21.5t-8.5 -18.5
q17 -12 29 -18l28 -16t25.5 -18.5t19 -23t7.5 -27.5q0 -30 -24.5 -58t-55 -49.5t-58 -35t-33.5 -13.5t-13.5 3.5t-7.5 14.5q0 5 4 10t9 5q7 0 9 -1q14 4 33 16t38 27t34.5 30.5t22.5 25.5v-1q3 6 5 11.5t2 11.5q0 22 -20.5 35.5t-42.5 25.5q-6 3 -14 6.5t-16 8t-13.5 11
t-5.5 15.5q2 16 9.5 29.5t17.5 29.5q10 15 17.5 29t7.5 29q0 14 -10 19t-24 5q-24 0 -40 -14t-26.5 -34.5t-16.5 -44t-10 -42.5q-8 -38 -11 -78t-3 -78q0 -14 0.5 -32t2.5 -33q1 -13 4 -30t6 -28q5 -19 8 -37t4 -40z" />
    <glyph glyph-name="agrave" unicode="&#xe0;" horiz-adv-x="146" 
d="M135 101q0 -10 -6 -13t-8 -3q-10 0 -15 10v-2q-3 2 -6 4.5t-5 2.5q-9 0 -19 -4t-19 -10t-15 -13t-7 -13q11 0 20.5 2.5t19.5 5.5q8 2 15 4t14 2q23 0 27 -11.5t5 -28.5q0 -6 1 -12t3 -10v1q2 -2 2.5 -5.5t0.5 -5.5q0 -7 -4.5 -11.5t-9.5 -4.5q-13 0 -16 11t-5 25
q-1 2 -1.5 5.5t-1.5 5.5q-1 3 -1 6q-4 0 -12 -2.5t-16 -5.5q-22 -8 -45 -8q-14 0 -24 6t-10 27q0 15 9 28.5t23.5 24t31 17t31.5 6.5q14 0 25.5 -6t17.5 -21v-4zM35 221q0 5 2 9.5t13 4.5q2 0 6 -1.5t4 -2.5l16 -13q14 -11 24 -22t24 -34q2 -2 2.5 -5.5t0.5 -5.5
q0 -5 -5 -10t-10 -5l-9 7t-21 18.5t-24.5 25t-21.5 27.5z" />
    <glyph glyph-name="aacute" unicode="&#xe1;" horiz-adv-x="146" 
d="M142 215q-3 -8 -19 -22t-35 -27t-35 -22.5t-19 -9.5q-15 0 -15 14q0 8 6 11q10 13 20.5 21.5t22.5 16.5l11 6h-1q12 8 22 15t15 12q8 4 9.5 4.5t3.5 0.5q8 0 11 -5.5t3 -10.5v-4zM136 110q-6 15 -17.5 21t-25.5 6q-15 0 -31.5 -6.5t-31 -17t-23.5 -24t-9 -28.5
q0 -21 10 -27t24 -6q23 0 45 8q8 3 16 5.5t12 2.5q0 -3 1 -6q1 -2 1.5 -5.5t1.5 -5.5q2 -14 5 -25t16 -11q5 0 9.5 4.5t4.5 11.5q0 2 -0.5 5.5t-2.5 5.5v-1q-2 4 -3 10t-1 12q-1 17 -5 28.5t-27 11.5q-7 0 -14 -2t-15 -4q-10 -3 -19.5 -5.5t-20.5 -2.5q1 6 7 13t15 13t19 10
t19 4q2 0 5 -2.5t6 -4.5q6 -8 15 -8q2 0 8 3t6 13v4z" />
    <glyph glyph-name="acircumflex" unicode="&#xe2;" horiz-adv-x="146" 
d="M135 101q0 -10 -6 -13t-8 -3q-10 0 -15 10v-2q-3 2 -6 4.5t-5 2.5q-9 0 -19 -4t-19 -10t-15 -13t-7 -13q11 0 20.5 2.5t19.5 5.5q8 2 15 4t14 2q23 0 27 -11.5t5 -28.5q0 -6 1 -12t3 -10v1q2 -2 2.5 -5.5t0.5 -5.5q0 -7 -4.5 -11.5t-9.5 -4.5q-13 0 -16 11t-5 25
q-1 2 -1.5 5.5t-1.5 5.5q-1 3 -1 6q-4 0 -12 -2.5t-16 -5.5q-22 -8 -45 -8q-14 0 -24 6t-10 27q0 15 9 28.5t23.5 24t31 17t31.5 6.5q14 0 25.5 -6t17.5 -21v-4zM92 242q8 0 16.5 -9.5t16 -22t12.5 -24.5t5 -17q0 -14 -17 -14q-2 0 -4 2q-2 3 -5 6q-5 4 -9 12l-10 17l-3 7
l-6.5 -6.5t-5.5 -6.5v1l-6 -8q-14 -14 -27 -26t-26 -12q-16 0 -16 16q0 4 0.5 6.5t5.5 8.5l21 16h-1l12 13l7 8v-1q6 8 14 15.5t22 17.5z" />
    <glyph glyph-name="atilde" unicode="&#xe3;" horiz-adv-x="175" 
d="M135 101q0 -10 -6 -13t-8 -3q-7 0 -13 8q-4 2 -7 4.5t-6 2.5q-9 0 -19 -4t-19 -10t-15 -13t-7 -13q10 0 20.5 2.5t18.5 5.5q8 2 15 4t15 2q23 0 27 -11.5t5 -28.5q0 -6 1 -12t3 -10v1q2 -2 2.5 -5.5t0.5 -5.5q0 -7 -4.5 -11.5t-9.5 -4.5q-11 0 -14.5 10.5t-5.5 23.5
q-2 6 -3 12.5t-2 6.5q-3 0 -12 -3t-16 -5q-19 -8 -45 -8q-13 0 -23.5 6t-10.5 27q0 15 9 28.5t23.5 24t31 17t31.5 6.5q14 0 25.5 -6t17.5 -21v-4zM21 161q-4 -4 -5 -4q-2 -1 -3 0q-16 0 -16 14q0 7 9 15.5t19.5 16.5t20 13.5t10.5 5.5q13 0 21 -9t17 -21q10 -17 17 -17
q5 0 11 3l11 6h-1l18 11q19 0 19 -15q0 -3 -8 -9t-19 -13t-22 -12t-18 -5q-16 0 -23.5 8t-12.5 18q-5 7 -11 14q-8 -2 -13.5 -6t-12.5 -9z" />
    <glyph glyph-name="adieresis" unicode="&#xe4;" horiz-adv-x="146" 
d="M135 101q0 -10 -6 -13t-8 -3q-10 0 -15 10v-2q-3 2 -6 4.5t-5 2.5q-9 0 -19 -4t-19 -10t-15 -13t-7 -13q11 0 20.5 2.5t19.5 5.5q8 2 15 4t14 2q23 0 27 -11.5t5 -28.5q0 -6 1 -12t3 -10v1q2 -2 2.5 -5.5t0.5 -5.5q0 -7 -4.5 -11.5t-9.5 -4.5q-13 0 -16 11t-5 25
q-1 2 -1.5 5.5t-1.5 5.5q-1 3 -1 6q-4 0 -12 -2.5t-16 -5.5q-22 -8 -45 -8q-14 0 -24 6t-10 27q0 15 9 28.5t23.5 24t31 17t31.5 6.5q14 0 25.5 -6t17.5 -21v-4zM45 185q4 0 9 -2q5 0 8 -4t5 -8v-3q1 -1 1 -4q0 -19 -20 -19q-11 0 -17 6.5t-6 15.5q0 6 4.5 12t15.5 6z
M106 185q2 0 3.5 -0.5t5.5 -2.5l-1 1q5 -1 8.5 -3t5.5 -10q0 -10 -2.5 -17.5t-17.5 -7.5q-11 0 -17 6.5t-6 15.5q0 6 5.5 12t15.5 6z" />
    <glyph glyph-name="aring" unicode="&#xe5;" horiz-adv-x="161" 
d="M135 101q0 -10 -6 -13t-8 -3q-10 0 -15 10v-2q-3 2 -6 4.5t-5 2.5q-9 0 -19 -4t-19 -10t-15 -13t-7 -13q11 0 20.5 2.5t19.5 5.5q8 2 15 4t14 2q23 0 27 -11.5t5 -28.5q0 -6 1 -12t3 -10v1q2 -2 2.5 -5.5t0.5 -5.5q0 -7 -4.5 -11.5t-9.5 -4.5q-13 0 -16 11t-5 25
q-1 2 -1.5 5.5t-1.5 5.5q-1 3 -1 6q-4 0 -12 -2.5t-16 -5.5q-22 -8 -45 -8q-14 0 -24 6t-10 27q0 15 9 28.5t23.5 24t31 17t31.5 6.5q14 0 25.5 -6t17.5 -21v-4zM61 128q-27 0 -38 8.5t-11 24.5q0 6 4 14.5t11 17t15.5 16t17.5 11.5q9 0 24 -2t29.5 -7t24.5 -13.5t10 -21.5
q0 -10 -8.5 -18.5t-21.5 -15t-28.5 -10t-28.5 -4.5zM73 189q-8 -4 -17 -11t-9 -15q1 1 7 1q21 0 39 5t18 10q0 2 -6 3.5t-14 4.5z" />
    <glyph glyph-name="ae" unicode="&#xe6;" horiz-adv-x="260" 
d="M140 96q0 -9 -4.5 -12t-9.5 -3h-6q-2 0 -4 2q-11 17 -27 17q-18 0 -34.5 -13.5t-18.5 -26.5q3 0 11 2.5t17 5.5l9 2h-1q6 2 11 3t10 1q25 0 29 -11.5t5 -28.5q0 -6 1 -12.5t6 -14.5q0 -5 -1.5 -13t-12.5 -8q-14 0 -17 11t-5 25q-2 5 -3 11t-2 6q-2 0 -7 -2t-11 -4l-8 -2
h2q-9 -4 -20.5 -6t-20.5 -2q-13 0 -22.5 6t-9.5 27q0 13 8.5 26.5t22 24.5t29.5 17.5t32 6.5t30 -7t22 -24v-4zM103 75q18 35 40 56.5t43 21.5q8 0 18 -5.5t10 -19.5q0 -23 -23.5 -39.5t-55.5 -25.5q-2 -5 -2.5 -7.5t-0.5 -4.5q0 -10 15 -10q12 0 27.5 4t21.5 6l41 14
q4 0 10.5 -3t6.5 -11q0 -5 -13 -12.5t-30.5 -14.5t-35 -12.5t-27.5 -5.5q-31 0 -42.5 10.5t-11.5 26.5q0 17 1 19zM164 105l5 2q3 2 4 3.5t3 3.5v1q-2 0 -5 -3z" />
    <glyph glyph-name="ccedilla" unicode="&#xe7;" horiz-adv-x="154" 
d="M90 116q14 -4 14 -15q0 -8 -9 -12.5t-20 -7.5l-8 -2h1q-10 -3 -19.5 -7t-9.5 -11t13 -12t31 -5q12 0 27 3l24 3q5 -2 9 -5.5t4 -10.5q0 -8 -10 -12l-26 -6q-1 0 -2 -0.5t-3 -0.5h1q-8 -2 -12.5 -3t-9.5 -1v-6q15 -1 25.5 -7.5t10.5 -23.5q0 -23 -13.5 -30.5t-30.5 -10.5
l-12 -3q-16 0 -16 15q0 7 6.5 11.5t15.5 9.5q1 0 1 0.5t1 0.5q2 1 2 0.5t2 1.5q-1 0 -1 0.5t-1 0.5q-9 1 -16.5 5.5t-7.5 18.5q0 5 0.5 8.5t1.5 8.5q-1 0 -1.5 0.5t-1.5 0.5q-16 1 -33.5 15.5t-17.5 33.5q0 11 9 20q17 21 36 27t44 8h2z" />
    <glyph glyph-name="egrave" unicode="&#xe8;" horiz-adv-x="186" 
d="M35 221q0 5 2 9.5t13 4.5q2 0 6 -1.5t5 -2.5h-1l16 -13q14 -11 24 -22t24 -36v2q2 -2 2.5 -5.5t0.5 -5.5q0 -5 -5 -10t-10 -5q-15 12 -29 25q-12 11 -25.5 25t-21.5 28zM11 43q-21 0 -37 10l-3 1q-2 2 -2.5 6t-0.5 6q0 7 3 10.5t12 3.5t12 -1q10 -4 12 -4q9 0 31 5
q17 29 36 47t39 18q8 0 18.5 -5.5t10.5 -19.5q0 -23 -24.5 -40.5t-56.5 -28.5q-2 -4 -2 -10q0 -9 16 -9q12 0 27 4t22 6l40 14q11 0 14.5 -4t3.5 -11q0 -4 -13 -11.5t-30.5 -14.5t-35 -12t-27.5 -5q-30 0 -42 10t-12 27q0 3 -0.5 3.5t0.5 4.5h-11zM88 93l5 2q3 2 4 3.5
t3 3.5v1q-2 0 -5 -3z" />
    <glyph glyph-name="eacute" unicode="&#xe9;" horiz-adv-x="186" 
d="M147 222q0 -2 -2 -6h1q-2 -6 -12 -15t-23.5 -19.5t-28.5 -20t-28 -15.5t-21.5 -6t-8.5 8q0 5 7 13t16.5 16t19 15.5t15.5 10.5l37 27q8 4 9.5 4.5t3.5 0.5q15 0 15 -13zM11 43h11q-1 -4 -0.5 -4.5t0.5 -3.5q0 -17 12 -27t42 -10q10 0 27.5 5t35 12t30.5 14.5t13 11.5
q0 7 -3.5 11t-14.5 4l-40 -14q-7 -2 -22 -6t-27 -4q-16 0 -16 9q0 6 2 10q32 11 56.5 28.5t24.5 40.5q0 14 -10.5 19.5t-18.5 5.5q-20 0 -39 -18t-36 -47q-22 -5 -31 -5q-2 0 -12 4q-3 1 -12 1t-12 -3.5t-3 -10.5q0 -2 0.5 -6t2.5 -6l3 -1q16 -10 37 -10zM95 100q3 3 5 3v-1
q-2 -2 -3 -3.5t-4 -3.5l-5 -2z" />
    <glyph glyph-name="ecircumflex" unicode="&#xea;" horiz-adv-x="186" 
d="M107 242q7 0 16 -9.5t16.5 -21.5t12.5 -24t5 -18q0 -8 -6 -10.5t-12 -2.5q-7 7 -13 15q-5 6 -10 13.5t-8 13.5l-11 -12v1l-6 -8q-14 -14 -27 -26t-26 -12q-16 0 -16 16v2l7 14l20 15h-1l9 10v-1q7 11 17.5 22t28.5 22zM11 43q-21 0 -37 10l-3 1q-2 2 -2.5 6t-0.5 6
q0 7 3 10.5t12 3.5t12 -1q10 -4 12 -4q9 0 31 5q17 29 36 47t39 18q8 0 18.5 -5.5t10.5 -19.5q0 -23 -24.5 -40.5t-56.5 -28.5q-2 -4 -2 -10q0 -9 16 -9q12 0 27 4t22 6l40 14q11 0 14.5 -4t3.5 -11q0 -4 -13 -11.5t-30.5 -14.5t-35 -12t-27.5 -5q-30 0 -42 10t-12 27
q0 3 -0.5 3.5t0.5 4.5h-11zM88 93l5 2q3 2 4 3.5t3 3.5v1q-2 0 -5 -3z" />
    <glyph glyph-name="edieresis" unicode="&#xeb;" horiz-adv-x="186" 
d="M62 185q4 0 10 -2q3 -2 7 -5.5t6 -6.5v-4q0 -9 -2.5 -15.5t-18.5 -6.5q-10 0 -15.5 6.5t-5.5 15.5q0 6 4 12t15 6zM122 185q2 0 4 -0.5t7 -2.5l-1 1q5 -1 9 -5t4 -7v-3q1 -1 1 -4q0 -8 -4.5 -13.5t-17.5 -5.5q-11 0 -16 6.5t-5 15.5q0 6 5 12t14 6zM11 43q-21 0 -37 10
l-3 1q-2 2 -2.5 6t-0.5 6q0 7 3 10.5t12 3.5t12 -1q10 -4 12 -4q9 0 31 5q17 29 36 47t39 18q8 0 18.5 -5.5t10.5 -19.5q0 -23 -24.5 -40.5t-56.5 -28.5q-2 -4 -2 -10q0 -9 16 -9q12 0 27 4t22 6l40 14q11 0 14.5 -4t3.5 -11q0 -4 -13 -11.5t-30.5 -14.5t-35 -12t-27.5 -5
q-30 0 -42 10t-12 27q0 3 -0.5 3.5t0.5 4.5h-11zM88 93l5 2q3 2 4 3.5t3 3.5v1q-2 0 -5 -3z" />
    <glyph glyph-name="igrave" unicode="&#xec;" horiz-adv-x="78" 
d="M15 93v8.5t-1 4.5h-1q-1 1 -2 3t-1 9q0 13 15 13q7 0 12 -5.5t8 -14t4.5 -18t1.5 -17.5q0 -16 -2.5 -34t-6.5 -33t-8.5 -25t-8.5 -10q-12 0 -14 8.5t-2 18.5q0 20 1 44.5t5 44.5v3zM-6 192q0 1 -0.5 1t-0.5 2q0 14 15 14q2 0 6 -0.5t6 -2.5q12 -12 19 -14q5 -2 10.5 -9
t19.5 -32q0 -7 -5 -11.5t-10 -4.5q-11 6 -22 14q-9 7 -19 16.5t-18 21.5z" />
    <glyph glyph-name="iacute" unicode="&#xed;" horiz-adv-x="96" 
d="M85 198q-2 -6 -11 -15.5t-20.5 -19t-22.5 -16t-17 -6.5q-16 0 -16 14q0 5 1 6.5t3 3.5q8 9 17 17.5t16 12.5q8 5 15 12t15 12q13 0 16.5 -2t3.5 -15v-4zM31 93q-3 -22 -5 -44t-2 -44q0 -9 2 -17.5t14 -8.5q4 0 9 9.5t9 24t6.5 31.5t2.5 32q0 6 -1.5 15t-4.5 17.5t-8 14
t-12 5.5q-16 0 -16 -15q0 -5 6 -20z" />
    <glyph glyph-name="icircumflex" unicode="&#xee;" horiz-adv-x="86" 
d="M23 104q0 2 -1 5t-2 5q-4 3 -4 10q0 14 16 14q7 0 12 -6t8 -14.5t4.5 -19t1.5 -19.5q0 -17 -2.5 -35t-6.5 -34t-9 -26t-9 -10q-12 0 -14 12t-2 23q0 21 2 45.5t5 42.5q1 2 1 7zM45 223q7 0 14 -8t13 -18.5t9.5 -21t3.5 -14.5q0 -13 -17 -13q-3 0 -4 1t-2 3l-3.5 3.5
t-3.5 5.5v-1l-5 5q-2 2 -8 10q-1 -2 -4.5 -6t-22.5 -17q-1 0 -2.5 -0.5t-3.5 -0.5q-14 0 -14 17q0 5 2.5 8.5l7.5 10.5q11 11 15.5 16t6.5 9l1.5 1.5t14.5 8.5z" />
    <glyph glyph-name="idieresis" unicode="&#xef;" horiz-adv-x="83" 
d="M18 123q0 1 -1 2q0 15 16 15q7 0 11.5 -6t7.5 -14.5t4.5 -19t1.5 -19.5q0 -17 -2.5 -36t-6.5 -34.5t-8.5 -26t-8.5 -10.5q-12 0 -14 8.5t-2 18.5q0 22 1.5 50.5t5.5 48.5v12zM14 192q4 0 10 -2q6 0 8.5 -2.5t4.5 -7.5v-5q1 -1 1 -4q0 -8 -4.5 -13.5t-17.5 -5.5
q-11 0 -17 7.5t-6 14.5q0 8 4.5 13t16.5 5zM56 192q2 0 4 -0.5t7 -2.5l-1 1q9 -2 14 -12v-3q1 -1 1 -4q0 -8 -4.5 -13.5t-18.5 -5.5q-11 0 -16 7.5t-5 14.5q0 8 4.5 13t14.5 5z" />
    <glyph glyph-name="eth" unicode="&#xf0;" horiz-adv-x="203" 
d="M118 25q-15 -11 -30 -18.5t-32 -7.5q-21 0 -38 13t-17 33q0 16 8.5 30t22 24.5t29 17t30.5 7.5l18 -1q5 -1 14 -7t13 -17q24 40 24 86q0 41 -14.5 84t-31.5 84l1 -1q-3 5 -4 8t-1 5q0 8 3.5 9t15.5 1q5 0 5 -0.5t2 -2.5q22 -48 40 -96t18 -98q0 -33 -11 -66t-40 -62
l-24 -25h-1zM118 75q-3 1 -4 4q3 -3 2.5 -2t-3 4t-5 6.5t-2.5 5.5h-13q-9 0 -19 -3.5t-18.5 -9.5t-14.5 -14t-6 -16t6 -13t15 -5q11 0 21.5 6.5t19.5 14.5h-1zM94 174q-5 4 -5 12t3 11t12 3q1 0 2 -0.5t3 -0.5h8q3 -1 7 -1q13 0 31 3q11 2 21.5 3t24.5 1q10 0 16 -2t6 -13
q0 -2 -7.5 -6t-19.5 -8.5t-27 -8t-30 -3.5q-9 0 -20.5 2.5t-20.5 6.5z" />
    <glyph glyph-name="ntilde" unicode="&#xf1;" horiz-adv-x="194" 
d="M19 65q-1 12 -2.5 23.5t-7.5 16.5q-6 3 -6 11q0 7 5 11t10 4q9 0 15.5 -8t11 -20t7.5 -25.5t5 -24.5l6 9q0 1 1 2.5t1 2.5q8 14 18.5 26.5t28.5 12.5q29 0 40.5 -18.5t18.5 -38.5q0 -1 0.5 -4.5t0.5 -6.5q1 -5 1 -7v-4q3 -1 6 -2.5t3 -5.5q0 -14 -12 -14q-13 0 -18.5 7.5
t-10.5 18.5q-3 3 -3 5q-5 11 -11 21.5t-12 10.5t-13 -8.5t-14 -20.5q-6 -10 -13.5 -20t-17.5 -18q-14 0 -21 4.5t-11 13t-5 19t-1 22.5v5zM31 163l1 -1q-3 -3 -6 -3h-4q-6 0 -10.5 4t-4.5 10t8.5 15t19 17t20 13.5t11.5 5.5q11 0 20.5 -9.5t17.5 -20.5q4 -6 8.5 -11.5
t8.5 -5.5q5 0 9.5 2.5t9.5 5.5l18 10l4 3q8 -1 12 -6t4 -9q0 -3 -8 -10t-18.5 -13.5t-21.5 -12t-18 -5.5q-14 0 -21.5 7t-12.5 16l-7 11v-1l-3 4.5t-3 3.5q-8 -2 -13.5 -6t-12.5 -9z" />
    <glyph glyph-name="ograve" unicode="&#xf2;" 
d="M167 101q0 -6 -4 -10q5 -3 9 -6t7 -5q5 -5 5.5 -15t0.5 -13q-3 -10 -14.5 -18.5t-28.5 -14.5t-37.5 -9.5t-39.5 -3.5q-32 0 -52 14t-20 36q0 21 13.5 35.5t32.5 23t40.5 12t37.5 3.5q13 0 25 -4t23 -19zM103 77q-9 3 -16.5 6.5t-9.5 8.5q-17 -6 -31.5 -14t-14.5 -16
q0 -12 15.5 -16t28.5 -4q19 0 38 5t33 13q-6 4 -15 7.5t-17 6.5zM119 136l-8.5 6.5t-20 17t-24 23.5t-20.5 26q-6 3 -6 13q0 13 16 13q2 0 4 -1t11 -7l12 -11q13 -11 24 -22.5t25 -40.5q0 -3 -1.5 -10t-11.5 -7z" />
    <glyph glyph-name="oacute" unicode="&#xf3;" 
d="M152 222q0 -2 -2 -6l1 -1q-3 -8 -19 -22t-35 -27t-35 -22.5t-19 -9.5q-5 0 -10 4t-5 10q0 8 6 11q10 13 20.5 21.5t22.5 16.5l11 6h-1q12 8 22 15t15 12q8 4 9.5 4.5t3.5 0.5q15 0 15 -13zM166 112q-11 15 -23 19t-25 4q-16 0 -37.5 -3.5t-40.5 -12t-32.5 -23
t-13.5 -35.5q0 -22 20 -36t52 -14q19 0 39.5 3.5t37.5 9.5t28.5 14.5t14.5 18.5q0 3 -0.5 13t-5.5 15q-3 2 -7 5t-9 6q4 4 4 10zM115 79q8 -3 17 -6.5t15 -7.5q-14 -8 -33 -13t-38 -5q-13 0 -28.5 4t-15.5 16q0 8 14.5 16t31.5 14q2 -5 9.5 -8.5t16.5 -6.5z" />
    <glyph glyph-name="ocircumflex" unicode="&#xf4;" 
d="M167 101q0 -6 -4 -10q5 -3 9 -6t7 -5q5 -5 5.5 -15t0.5 -13q-3 -10 -14.5 -18.5t-28.5 -14.5t-37.5 -9.5t-39.5 -3.5q-32 0 -52 14t-20 36q0 21 13.5 35.5t32.5 23t40.5 12t37.5 3.5q13 0 25 -4t23 -19zM103 77q-9 3 -16.5 6.5t-9.5 8.5q-17 -6 -31.5 -14t-14.5 -16
q0 -12 15.5 -16t28.5 -4q19 0 38 5t33 13q-6 4 -15 7.5t-17 6.5zM102 242q8 0 17 -9.5t16.5 -22t12.5 -24.5t5 -17q0 -8 -6.5 -10.5t-13.5 -2.5l-5 5q-5 5 -8 11q-3 4 -6 8.5t-11 17.5l-11 -12v1l-6 -8q-14 -14 -27 -26t-26 -12q-16 0 -16 16q0 4 0.5 6.5t5.5 8.5l21 16h-1
l12 13l7 8v-1q6 8 14 15.5t22 17.5z" />
    <glyph glyph-name="otilde" unicode="&#xf5;" 
d="M167 101q0 -6 -4 -10q5 -3 9 -6t7 -5q5 -5 5.5 -15t0.5 -13q-3 -10 -14.5 -18.5t-28.5 -14.5t-37.5 -9.5t-39.5 -3.5q-32 0 -52 14t-20 36q0 21 13.5 35.5t32.5 23t40.5 12t37.5 3.5q13 0 25 -4t23 -19zM103 77q-9 3 -16.5 6.5t-9.5 8.5q-17 -6 -31.5 -14t-14.5 -16
q0 -12 15.5 -16t28.5 -4q19 0 38 5t33 13q-6 4 -15 7.5t-17 6.5zM31 163l1 -1q-3 -3 -7 -3h-4q-5 0 -9.5 4t-4.5 10t8.5 15t19 17t20 13.5t11.5 5.5q11 0 20.5 -9.5t17.5 -20.5q4 -6 8.5 -11.5t7.5 -5.5q6 0 10.5 2.5t9.5 5.5l18 10l4 3q8 -1 12 -6t4 -9q0 -3 -8 -10
t-18.5 -13.5t-21.5 -12t-18 -5.5q-14 0 -22 8t-15 19l-6 8l-5 6q-8 -2 -13 -6t-12 -9z" />
    <glyph glyph-name="odieresis" unicode="&#xf6;" 
d="M167 101q0 -6 -4 -10q5 -3 9 -6t7 -5q5 -5 5.5 -15t0.5 -13q-3 -10 -14.5 -18.5t-28.5 -14.5t-37.5 -9.5t-39.5 -3.5q-32 0 -52 14t-20 36q0 21 13.5 35.5t32.5 23t40.5 12t37.5 3.5q13 0 25 -4t23 -19zM103 77q-9 3 -16.5 6.5t-9.5 8.5q-17 -6 -31.5 -14t-14.5 -16
q0 -12 15.5 -16t28.5 -4q19 0 38 5t33 13q-6 4 -15 7.5t-17 6.5zM56 185q5 0 11 -2q3 -1 6 -3.5t5 -9.5q0 -10 -2.5 -17.5t-17.5 -7.5q-11 0 -17 6.5t-6 15.5q0 6 5.5 12t15.5 6zM117 185q2 0 5.5 -0.5t6.5 -2.5t6 -5t3 -6v-3q1 -1 1 -4q0 -19 -20 -19q-11 0 -17.5 6.5
t-6.5 15.5q0 6 6 12t16 6z" />
    <glyph glyph-name="divide" unicode="&#xf7;" horiz-adv-x="248" 
d="M17 129q-10 4 -10 15q0 6 21.5 9.5t50 6t55.5 3t38 0.5h22q16 0 30.5 -3t14.5 -11q0 -7 -20.5 -11t-47 -6.5t-52.5 -3.5t-36 -1q-16 0 -31.5 0.5t-30.5 1.5h-4zM156 102q1 -1 1 -4q0 -5 -3 -9.5t-11 -5.5q-6 -11 -20 -11q-8 0 -18 4.5t-10 16.5q0 11 10.5 18t21.5 7
q7 0 15 -3.5t13 -9.5zM96 209q0 7 8 12v2q6 6 18 6q8 0 16.5 -6.5t8.5 -11.5q0 -12 -7 -16.5t-18 -4.5t-18.5 5t-7.5 14z" />
    <glyph glyph-name="oslash" unicode="&#xf8;" 
d="M167 101q0 -6 -4 -10q5 -3 9 -6t7 -5q5 -5 5.5 -15t0.5 -13q-3 -10 -14.5 -18.5t-28.5 -14.5t-37.5 -9.5t-39.5 -3.5q-32 0 -52 14t-20 36q0 21 13.5 35.5t32.5 23t40.5 12t37.5 3.5q13 0 25 -4t23 -19zM103 77q-9 3 -16.5 6.5t-9.5 8.5q-17 -6 -31.5 -14t-14.5 -16
q0 -12 15.5 -16t28.5 -4q19 0 38 5t33 13q-6 4 -15 7.5t-17 6.5zM134 174q0 1 2 1q5 5 11 5q9 0 12 -4t3 -13q-9 -13 -17 -30.5t-15.5 -37t-14 -39.5t-12.5 -39l-3 -10q-11 -30 -19.5 -50.5t-18.5 -20.5q-7 0 -11 3t-4 14q4 29 14 62.5t22.5 64t26 56t24.5 38.5z" />
    <glyph glyph-name="ugrave" unicode="&#xf9;" horiz-adv-x="106" 
d="M32 -6q-25 20 -30 43.5t-5 53.5q0 15 16 15q8 0 11 -8t5 -18l3 -12q2 -10 5 -18.5t8 -15.5q4 10 7 26t5 30q2 18 7 30t13 12q10 0 13 -11t3 -24q0 -15 -1 -31.5t-5 -31.5t-13 -27t-25 -18q-8 0 -10 0.5t-7 4.5zM74 136q-1 0 -9.5 7t-20.5 17.5t-24.5 24t-21.5 26.5h-1
q-1 0 -1 2q-1 2 -1 9q0 13 14 13h1q5 -2 13.5 -6t15.5 -12q9 -11 21 -23t28 -39q0 -3 -3 -11t-11 -8z" />
    <glyph glyph-name="uacute" unicode="&#xfa;" horiz-adv-x="106" 
d="M99 208q0 -4 -1 -6l1 -1q-2 -7 -13.5 -18.5t-26 -22t-27.5 -18.5t-18 -8q-15 0 -15 14q0 10 6 13q18 15 29.5 24.5t18 15t10.5 8.5t8 7q9 5 11 5.5t3 0.5q7 0 10.5 -4.5t3.5 -9.5zM32 -1q5 -4 7 -4.5t10 -0.5q16 6 25 18t13 27t5 31.5t1 31.5q0 13 -3 24t-13 11
q-8 0 -13 -12t-7 -30q-2 -14 -5 -30t-7 -26q-5 7 -8 15.5t-5 18.5l-3 12q-2 10 -5 18t-11 8q-16 0 -16 -15q0 -30 5 -53.5t30 -43.5z" />
    <glyph glyph-name="ucircumflex" unicode="&#xfb;" horiz-adv-x="106" 
d="M32 -6q-25 20 -30 43.5t-5 53.5q0 15 16 15q8 0 11 -8t5 -18l3 -12q2 -10 5 -18.5t8 -15.5q4 10 7 26t5 30q2 18 7 30t13 12q10 0 13 -11t3 -24q0 -15 -1 -31.5t-5 -31.5t-13 -27t-25 -18q-8 0 -10 0.5t-7 4.5zM60 242q8 0 17 -9t16.5 -21.5t12.5 -24.5t5 -18
q0 -5 -6.5 -7t-14.5 0q-2 1 -14 16l-7 10q-2 3 -2.5 5.5t-3.5 5.5l-17 -20l-3 -3q-13 -12 -26 -23.5t-24 -11.5q-16 0 -16 16q0 3 1 6t5 8l19 17h-1l12 13l6 7v-1q7 8 16 16t21 18z" />
    <glyph glyph-name="udieresis" unicode="&#xfc;" horiz-adv-x="106" 
d="M32 -6q-25 20 -30 43.5t-5 53.5q0 15 16 15q8 0 11 -8t5 -18l3 -12q2 -10 5 -18.5t8 -15.5q4 10 7 26t5 30q2 18 7 30t13 12q10 0 13 -11t3 -24q0 -15 -1 -31.5t-5 -31.5t-13 -27t-25 -18q-8 0 -10 0.5t-7 4.5zM11 185q5 0 14 -4t10 -10v-4q0 -9 -2.5 -15.5t-18.5 -6.5
q-11 0 -16.5 6.5t-5.5 15.5q0 6 4.5 12t14.5 6zM72 185q4 0 10 -2q3 -2 7 -6t6 -10q0 -9 -2.5 -15.5t-18.5 -6.5q-11 0 -17 6.5t-6 15.5q0 6 4.5 12t16.5 6z" />
    <glyph glyph-name="yacute" unicode="&#xfd;" horiz-adv-x="183" 
d="M145 223q-2 -8 -18 -22t-35 -27.5t-35 -23t-19 -9.5q-15 0 -15 13q0 2 0.5 3.5t3.5 6.5q8 11 20 20.5t24 17.5l12 7h-1q11 8 21 14.5t18 14.5q2 3 11 3q6 0 10.5 -4.5t2.5 -12.5v-1zM8 114q0 -12 0.5 -28t4.5 -30.5t11 -24.5t21 -10q7 0 15 5t19 13l11 8l16 11
q12 -19 17 -42t5 -49q0 -31 -5.5 -59.5t-16.5 -50t-28 -34.5t-39 -13q-9 0 -16.5 3.5t-14 8t-11.5 8.5t-10 4q-1 0 -1.5 0.5t-1.5 0.5q-10 0 -13 -3.5t-3 -10.5q0 -11 9.5 -19.5t22 -14t25.5 -8t19 -2.5q30 0 53 17t38 43.5t23 59.5t8 65q0 14 -2 35t-8 41.5t-16.5 37
t-27.5 20.5l-23 -13q-12 -7 -22 -12.5t-15 -5.5q-7 0 -10.5 11t-5.5 40q0 5 -3 9.5t-11 4.5q-14 0 -14 -16z" />
    <glyph glyph-name="thorn" unicode="&#xfe;" horiz-adv-x="161" 
d="M16 371q0 6 4.5 10t9.5 4q7 0 11 -18.5t6.5 -44t3 -53t0.5 -44.5h8q19 0 36.5 -13t30 -33t20 -44t7.5 -46q0 -21 -7.5 -36t-19.5 -24.5t-27.5 -13.5t-31.5 -4h-3q-5 0 -8 -0.5t-8 1.5q-1 -27 -3 -51t-4.5 -42t-6 -29t-7.5 -11q-10 0 -12 22.5t-2 49.5v129.5t1 131.5
q1 41 1.5 81t0.5 78zM63 40q4 0 12 1.5t16.5 6t15 14t6.5 24.5q0 19 -5 38.5t-13 35.5t-18 26t-20 10q-4 0 -6 -1v-147z" />
    <glyph glyph-name="ydieresis" unicode="&#xff;" horiz-adv-x="178" 
d="M7 109q0 16 14 16q8 0 11 -4.5t3 -9.5q2 -29 5.5 -40t10.5 -11q5 0 15 5.5t22 12.5l23 13q17 -4 27.5 -20.5t16.5 -37t8 -41.5t2 -35q0 -32 -8 -65t-23 -59.5t-38 -43.5t-53 -17q-6 0 -19 2.5t-25.5 8t-22 14t-9.5 19.5q0 10 5.5 11.5t13.5 1.5q5 0 10 -4t11.5 -8.5
t14 -8t16.5 -3.5q22 0 39 13t28 34.5t16.5 50t5.5 59.5q0 26 -5 49t-17 42l-16 -11l-11 -8q-11 -8 -19 -13t-15 -5q-14 0 -21 10t-11 24.5t-4.5 30.5t-0.5 28zM56 180q4 -2 7 -4.5t3 -11.5q0 -1 0.5 -1.5t0.5 -1.5q0 -20 -20 -20q-11 0 -17 7.5t-6 13.5q0 19 21 19h6.5
t5.5 -1h-1zM115 180q3 -1 6.5 -4t5.5 -11q0 -1 0.5 -2t0.5 -2q0 -9 -4.5 -14.5t-16.5 -5.5q-11 0 -17 7.5t-6 13.5q0 19 21 19q5 0 9 -1h1z" />
    <glyph glyph-name="Amacron" unicode="&#x100;" horiz-adv-x="473" 
d="M245 564q-2 2 -2.5 6t-0.5 6q0 5 3 9.5t12 4.5q5 -2 9.5 -2.5t9.5 -0.5q12 0 30 3q11 2 23 3t25 1h10q11 -5 11 -13q0 -2 -7.5 -7t-20 -9.5t-27.5 -8t-30 -3.5q-7 0 -17 2t-22 8zM-33 -43q-5 2 -7 4.5t-2 8.5q0 5 3 9.5t13 4.5q5 -1 15 9.5t22.5 27t26.5 36.5t26 39.5
t22 35t14 23.5l35 72q-35 18 -71 35.5t-70.5 32t-66.5 23t-58 8.5q-3 0 -8 -1.5t-10 -3.5l-17 -5q-18 0 -18 15q0 4 6.5 8.5t15.5 8t18 5.5t14 2q25 0 58.5 -8.5t70.5 -22t76 -31t76 -35.5l66 138l10 21q14 30 29 59t37 61q1 1 3 2t8 1q12 0 21 -7.5t15.5 -18t11 -22.5
t6.5 -22q2 -4 2 -6l4 -6q12 -32 21 -68t16.5 -73.5t13 -75t9.5 -71.5l15 -114l-1 1q6 -13 13 -36t12.5 -48.5t9 -49.5t3.5 -38q0 -9 -5.5 -14t-11.5 -5q-9 0 -18.5 23t-18 53.5t-14.5 61t-8 45.5q-20 28 -50.5 51t-59.5 40l-21 12l-36 20h1q-18 11 -34.5 21t-34.5 21
l-38 -74q-3 -6 -13 -21.5t-23.5 -36t-29.5 -43t-32.5 -41.5t-31.5 -31t-26 -12zM178 241q29 -14 56 -30.5t56 -31.5l6 -4q3 -2 10 -5t14 -8q21 -13 40 -24t33 -24q-11 83 -25 163.5t-37 160.5v2q0 1 -1 2.5t-2 3.5l-2 3v2q-5 13 -9 26.5t-9 19.5q-11 -15 -19.5 -34.5
t-17.5 -38.5l-8 -13v1l-15 -30z" />
    <glyph glyph-name="amacron" unicode="&#x101;" horiz-adv-x="146" 
d="M135 101q0 -10 -6 -13t-8 -3q-9 0 -15 8q-3 2 -6 4.5t-5 2.5q-9 0 -19 -4t-19 -10t-15 -13t-7 -13q11 0 20.5 2.5t19.5 5.5q8 2 15 4t14 2q23 0 27 -11.5t5 -28.5q0 -6 1 -12t3 -10v1q2 -2 2.5 -5.5t0.5 -5.5q0 -7 -4.5 -11.5t-9.5 -4.5q-13 0 -16 11t-5 25
q-1 2 -1.5 5.5t-1.5 5.5q-1 3 -1 6q-4 0 -12 -2.5t-16 -5.5q-22 -8 -45 -8q-14 0 -24 6t-10 27q0 15 9 28.5t23.5 24t31 17t31.5 6.5q14 0 25.5 -6t17.5 -21v-4zM4 149q-2 0 -2 2q-4 4 -4 10q0 15 19 15q9 -3 15 -3q15 0 30 3q11 2 23.5 3t26.5 1h9q5 -3 7.5 -5.5t2.5 -9.5
q0 -2 -7.5 -6.5t-19.5 -9t-26.5 -7.5t-28.5 -3q-11 0 -22.5 1.5t-22.5 8.5z" />
    <glyph glyph-name="Abreve" unicode="&#x102;" horiz-adv-x="473" 
d="M-35 -53q-5 2 -7 4.5t-2 8.5q0 5 3 9.5t13 4.5q5 -1 15 9.5t22.5 27t26.5 36.5t26 39.5t22 35t14 23.5l35 72q-35 18 -71 35.5t-70.5 32t-66.5 23t-58 8.5q-3 0 -8 -1.5t-10 -3.5l-17 -5q-18 0 -18 15q0 4 6.5 8.5t15.5 8t18 5.5t14 2q25 0 58.5 -8.5t70.5 -22t76 -31
t76 -35.5l66 138l10 21q14 30 29 59t37 61q1 1 3 2t8 1q12 0 21 -7.5t15.5 -18t11 -22.5t6.5 -22q2 -4 2 -6l4 -6q12 -32 21 -68t16.5 -73.5t13 -75t9.5 -71.5l15 -114l-1 1q6 -13 13 -36t12.5 -48.5t9 -49.5t3.5 -38q0 -9 -5.5 -14t-11.5 -5q-9 0 -18.5 23t-18 53.5
t-14.5 61t-8 45.5q-20 28 -50.5 51t-59.5 40l-21 12l-36 20h1q-18 11 -34.5 21t-34.5 21l-38 -74q-3 -5 -13 -21t-23.5 -36.5t-29.5 -43t-32.5 -41.5t-31.5 -31t-26 -12zM176 231q29 -14 56 -30.5t56 -31.5l6 -4q3 -2 10 -5t14 -8q21 -13 40 -24t33 -24q-11 83 -25 163.5
t-37 160.5v2q0 1 -1 2.5t-2 3.5l-2 3v2q-5 13 -9 26.5t-9 19.5q-11 -15 -19.5 -34.5t-17.5 -38.5l-8 -13v1l-15 -30zM238 639q0 16 14 16q10 0 14 -10q0 -21 12 -33t26 -12q11 0 22.5 8.5t16.5 22.5q-1 3 -1 5q0 6 3.5 7.5t8.5 6.5q14 0 16 -7t2 -19t-7 -23.5t-18 -20
t-24 -13.5t-25 -5q-17 0 -28 7t-18 18.5t-10 25t-4 26.5z" />
    <glyph glyph-name="abreve" unicode="&#x103;" horiz-adv-x="146" 
d="M135 101q0 -10 -6 -13t-8 -3q-9 0 -15 8q-3 2 -6 4.5t-5 2.5q-9 0 -19 -4t-19 -10t-15 -13t-7 -13q11 0 20.5 2.5t19.5 5.5q8 2 15 4t14 2q23 0 27 -11.5t5 -28.5q0 -6 1 -12t3 -10v1q2 -2 2.5 -5.5t0.5 -5.5q0 -7 -4.5 -11.5t-9.5 -4.5q-13 0 -16 11t-5 25
q-1 2 -1.5 5.5t-1.5 5.5q-1 3 -1 6q-4 0 -12 -2.5t-16 -5.5q-22 -8 -45 -8q-14 0 -24 6t-10 27q0 15 9 28.5t23.5 24t31 17t31.5 6.5q14 0 25.5 -6t17.5 -21v-4zM5 213q0 16 14 16q10 0 14 -10q0 -21 12 -33t26 -12q11 0 22.5 8.5t16.5 22.5q-1 3 -1 5q0 6 3.5 7.5t8.5 6.5
q14 0 16 -7t2 -19t-7 -23.5t-18 -20t-24 -13.5t-25 -5q-17 0 -28 7t-18 18.5t-10 25t-4 26.5z" />
    <glyph glyph-name="Aogonek" unicode="&#x104;" horiz-adv-x="473" 
d="M-35 -53q-5 2 -7 4.5t-2 8.5q0 5 3 9.5t13 4.5q5 -1 15 9.5t22.5 27t26.5 36.5t26 39.5t22 35t14 23.5l35 72q-35 18 -71 35.5t-70.5 32t-66.5 23t-58 8.5q-3 0 -8 -1.5t-10 -3.5l-17 -5q-18 0 -18 15q0 4 6.5 8.5t15.5 8t18 5.5t14 2q25 0 58.5 -8.5t70.5 -22t76 -31
t76 -35.5l66 138l10 21q14 30 29 59t37 61q1 1 3 2t8 1q12 0 21 -7.5t15.5 -18t11 -22.5t6.5 -22q2 -4 2 -6l4 -6q12 -32 21 -68t16.5 -73.5t13 -75t9.5 -71.5l15 -114l-1 1q6 -13 13 -36t12.5 -48.5t9 -49.5t3.5 -38q0 -9 -5.5 -14t-11.5 -5q-9 0 -18.5 23t-18 53.5
t-14.5 61t-8 45.5q-20 28 -50.5 51t-59.5 40l-21 12l-36 20h1q-18 11 -34.5 21t-34.5 21l-38 -74q-3 -5 -13 -21t-23.5 -36.5t-29.5 -43t-32.5 -41.5t-31.5 -31t-26 -12zM176 231q29 -14 56 -30.5t56 -31.5l6 -4q3 -2 10 -5t14 -8q21 -13 40 -24t33 -24q-11 83 -25 163.5
t-37 160.5v2q0 1 -1 2.5t-2 3.5l-2 3v2q-5 13 -9 26.5t-9 19.5q-11 -15 -19.5 -34.5t-17.5 -38.5l-8 -13v1l-15 -30zM446 -118q1 3 4 6.5t10 3.5q5 0 8 -4.5t5 -9.5q0 -11 -4 -22t-4 -24q0 -10 11 -13t28 -3q3 0 8.5 0.5t10.5 1.5h-1q2 1 6 1h6q8 0 12 -5t4 -10t-6.5 -9.5
t-16 -7.5t-21 -4.5t-20.5 -1.5q-10 0 -20.5 2t-19.5 7.5t-14.5 14t-5.5 21.5q0 10 3.5 19t6.5 16l2 4l4 8l3.5 7t0.5 2z" />
    <glyph glyph-name="aogonek" unicode="&#x105;" horiz-adv-x="146" 
d="M135 101q0 -10 -6 -13t-8 -3q-9 0 -15 8q-3 2 -6 4.5t-5 2.5q-9 0 -19 -4t-19 -10t-15 -13t-7 -13q11 0 20.5 2.5t19.5 5.5q8 2 15 4t14 2q23 0 27 -11.5t5 -28.5q0 -6 1 -12t3 -10v1q2 -2 2.5 -5.5t0.5 -5.5q0 -7 -4.5 -11.5t-9.5 -4.5q-13 0 -16 11t-5 25
q-1 2 -1.5 5.5t-1.5 5.5q-1 3 -1 6q-4 0 -12 -2.5t-16 -5.5q-22 -8 -45 -8q-14 0 -24 6t-10 27q0 15 9 28.5t23.5 24t31 17t31.5 6.5q14 0 25.5 -6t17.5 -21v-4zM121.412 9.86426q0.794922 2.57422 3.17676 5.57715q2.38281 3.00293 7.94141 3.00293
q3.9707 0 6.35254 -3.86133q2.38281 -3.86035 3.9707 -8.15137q0 -9.4375 -3.17578 -18.876q-3.17676 -9.43848 -3.17676 -20.5928q0 -8.58008 8.73535 -11.1543t22.2354 -2.57422q2.38281 0 6.75 0.428711q4.36816 0.428711 8.33887 1.28711h-0.793945
q1.58789 0.858398 4.76465 0.858398h4.76465q6.35254 0 9.5293 -4.29102q3.17676 -4.29004 3.17676 -8.58008t-5.16211 -8.15137q-5.16211 -3.86035 -12.7061 -6.43457t-16.6768 -3.86133q-9.13184 -1.28711 -16.2793 -1.28711q-7.94141 0 -16.2793 1.71582
q-8.33887 1.71582 -15.4863 6.43555q-7.14648 4.71875 -11.5146 12.0127q-4.36719 7.29297 -4.36719 18.4473q0 8.58008 2.7793 16.3027t5.16113 13.7285l1.58887 3.43164q1.58789 3.43262 3.17676 6.86426q1.58789 3.43262 2.7793 6.00684t0.396484 1.71582z" />
    <glyph glyph-name="Cacute" unicode="&#x106;" horiz-adv-x="437" 
d="M444 463q-2 -6 -7 -4l-10 3q-4 1 -2 6q-12 0 -28 1q-14 0 -32 0.5t-38 0.5q-42 0 -92.5 -10t-94.5 -36.5t-74 -72.5t-30 -118q0 -50 11.5 -96t34.5 -81t58 -56t82 -21q51 0 100.5 17t87.5 38q9 0 12 -3.5t3 -10.5q0 -5 -3.5 -9.5t-7.5 -4.5q-42 -23 -96 -40.5t-106 -17.5
q-30 0 -58 7.5t-54 24.5q-22 18 -41 48.5t-33 66.5t-22 75t-8 76q0 41 10.5 73.5t28.5 58t40.5 44.5t46.5 33q51 29 103.5 39.5t99.5 10.5q38 0 68.5 -5.5t47.5 -13.5q6 -3 6 -11zM350 604q0 -1 -2 -5q-2 -8 -18 -21.5t-35.5 -27t-36 -23t-19.5 -9.5q-8 0 -10.5 3.5
t-2.5 8.5v4.5t2 4.5q10 14 25.5 25.5t31.5 22.5q10 6 20 13t18 14q8 4 9.5 4.5t2.5 0.5q5 0 10 -4t5 -11z" />
    <glyph glyph-name="cacute" unicode="&#x107;" horiz-adv-x="154" 
d="M90 116q14 -4 14 -15q0 -8 -9 -12.5t-20 -7.5l-8 -2h1q-10 -3 -19.5 -7t-9.5 -11t13 -12t31 -5q12 0 27 3l24 3q5 -2 9 -5.5t4 -10.5q0 -8 -10 -12l-28 -7q-8 -2 -14.5 -3t-16.5 -1q-5 0 -18 0.5t-26.5 5t-24 14.5t-10.5 30q0 11 9 20q17 21 36 27t44 8h2zM124 191
q0 -1 -2 -5q-2 -8 -18 -21.5t-35.5 -27t-36 -23t-19.5 -9.5q-8 0 -10.5 3.5t-2.5 8.5v4.5t2 4.5q10 14 25.5 25.5t31.5 22.5q10 6 20 13t18 14q8 4 9.5 4.5t2.5 0.5q5 0 10 -4t5 -11z" />
    <glyph glyph-name="Ccircumflex" unicode="&#x108;" horiz-adv-x="437" 
d="M444 463q-2 -6 -7 -4l-10 3q-4 1 -2 6q-12 0 -28 1q-14 0 -32 0.5t-38 0.5q-42 0 -92.5 -10t-94.5 -36.5t-74 -72.5t-30 -118q0 -50 11.5 -96t34.5 -81t58 -56t82 -21q51 0 100.5 17t87.5 38q9 0 12 -3.5t3 -10.5q0 -5 -3.5 -9.5t-7.5 -4.5q-42 -23 -96 -40.5t-106 -17.5
q-30 0 -58 7.5t-54 24.5q-22 18 -41 48.5t-33 66.5t-22 75t-8 76q0 41 10.5 73.5t28.5 58t40.5 44.5t46.5 33q51 29 103.5 39.5t99.5 10.5q38 0 68.5 -5.5t47.5 -13.5q6 -3 6 -11zM264 620q5 2 5.5 2h2.5q8 0 16.5 -10.5t15 -24t11 -26t4.5 -16.5q0 -5 -5 -8.5t-9 -3.5
q-6 0 -13.5 11t-10.5 16l-10 16l-9 -11q-12 -17 -28 -32t-30 -15q-9 0 -13.5 6.5t-4.5 12.5q0 3 0.5 6.5t2.5 6.5l22 18l9 9t6 7q7 9 15.5 17.5t22.5 18.5z" />
    <glyph glyph-name="ccircumflex" unicode="&#x109;" horiz-adv-x="154" 
d="M90 116q14 -4 14 -15q0 -8 -9 -12.5t-20 -7.5l-8 -2h1q-10 -3 -19.5 -7t-9.5 -11t13 -12t31 -5q12 0 27 3l24 3q5 -2 9 -5.5t4 -10.5q0 -8 -10 -12l-28 -7q-8 -2 -14.5 -3t-16.5 -1q-5 0 -18 0.5t-26.5 5t-24 14.5t-10.5 30q0 11 9 20q17 21 36 27t44 8h2zM73 214
q5 2 5.5 2h2.5q8 0 16.5 -10.5t15 -24t11 -26t4.5 -16.5q0 -5 -5 -8.5t-9 -3.5q-6 0 -13.5 11t-10.5 16l-10 16l-9 -11q-12 -17 -28 -32t-30 -15q-9 0 -13.5 6.5t-4.5 12.5q0 3 0.5 6.5t2.5 6.5l22 18l9 9t6 7q7 9 15.5 17.5t22.5 18.5z" />
    <glyph glyph-name="Cdotaccent" unicode="&#x10a;" horiz-adv-x="437" 
d="M444 463q-2 -6 -7 -4l-10 3q-4 1 -2 6q-12 0 -28 1q-14 0 -32 0.5t-38 0.5q-42 0 -92.5 -10t-94.5 -36.5t-74 -72.5t-30 -118q0 -50 11.5 -96t34.5 -81t58 -56t82 -21q51 0 100.5 17t87.5 38q9 0 12 -3.5t3 -10.5q0 -5 -3.5 -9.5t-7.5 -4.5q-42 -23 -96 -40.5t-106 -17.5
q-30 0 -58 7.5t-54 24.5q-22 18 -41 48.5t-33 66.5t-22 75t-8 76q0 41 10.5 73.5t28.5 58t40.5 44.5t46.5 33q51 29 103.5 39.5t99.5 10.5q38 0 68.5 -5.5t47.5 -13.5q6 -3 6 -11zM277 566q11 -2 11 -19q0 -9 -4 -14.5t-16 -5.5q-11 0 -17 6.5t-6 15.5q0 18 21 18h6.5
t5.5 -1h-1z" />
    <glyph glyph-name="cdotaccent" unicode="&#x10b;" horiz-adv-x="154" 
d="M90 116q14 -4 14 -15q0 -8 -9 -12.5t-20 -7.5l-8 -2h1q-10 -3 -19.5 -7t-9.5 -11t13 -12t31 -5q12 0 27 3l24 3q5 -2 9 -5.5t4 -10.5q0 -8 -10 -12l-28 -7q-8 -2 -14.5 -3t-16.5 -1q-5 0 -18 0.5t-26.5 5t-24 14.5t-10.5 30q0 11 9 20q17 21 36 27t44 8h2zM81 166
q11 -2 11 -19q0 -9 -4 -14.5t-16 -5.5q-11 0 -17 6.5t-6 15.5q0 18 21 18h6.5t5.5 -1h-1z" />
    <glyph glyph-name="Ccaron" unicode="&#x10c;" horiz-adv-x="437" 
d="M444 463q-2 -6 -7 -4l-10 3q-4 1 -2 6q-12 0 -28 1q-14 0 -32 0.5t-38 0.5q-42 0 -92.5 -10t-94.5 -36.5t-74 -72.5t-30 -118q0 -50 11.5 -96t34.5 -81t58 -56t82 -21q51 0 100.5 17t87.5 38q9 0 12 -3.5t3 -10.5q0 -5 -3.5 -9.5t-7.5 -4.5q-42 -23 -96 -40.5t-106 -17.5
q-30 0 -58 7.5t-54 24.5q-22 18 -41 48.5t-33 66.5t-22 75t-8 76q0 41 10.5 73.5t28.5 58t40.5 44.5t46.5 33q51 29 103.5 39.5t99.5 10.5q38 0 68.5 -5.5t47.5 -13.5q6 -3 6 -11zM200 606q0 6 3.5 10t8.5 4t9 -5l8 -10q7 -11 15.5 -23.5t16.5 -12.5q9 0 23 11t28 23l7 6
q9 7 17.5 13t13.5 6q12 0 13.5 -5.5t-2.5 -13t-10 -14.5t-9 -11q-16 -19 -34.5 -35.5t-38.5 -16.5q-30 0 -49 22t-20 52z" />
    <glyph glyph-name="ccaron" unicode="&#x10d;" horiz-adv-x="154" 
d="M90 116q14 -4 14 -15q0 -8 -9 -12.5t-20 -7.5l-8 -2h1q-10 -3 -19.5 -7t-9.5 -11t13 -12t31 -5q12 0 27 3l24 3q5 -2 9 -5.5t4 -10.5q0 -8 -10 -12l-28 -7q-8 -2 -14.5 -3t-16.5 -1q-5 0 -18 0.5t-26.5 5t-24 14.5t-10.5 30q0 11 9 20q17 21 36 27t44 8h2zM-7 198
q0 6 3.5 10t8.5 4t9 -5l8 -10q7 -11 15.5 -23.5t16.5 -12.5q9 0 23 11t28 23l7 6q9 7 17.5 13t13.5 6q12 0 13.5 -5.5t-2.5 -13t-10 -14.5t-9 -11q-16 -19 -34.5 -35.5t-38.5 -16.5q-30 0 -49 22t-20 52z" />
    <glyph glyph-name="Dcaron" unicode="&#x10e;" horiz-adv-x="427" 
d="M73 430q-23 -51 -31 -107t-8 -113q0 -45 3 -87.5t7 -82.5l4 -36q1 -2 1 -6q0 -6 -4.5 -9.5t-9.5 -3.5q-2 0 -4.5 0.5t-11.5 5.5q-2 2 -2 6q-1 21 -3 44t-5 51q-3 37 -6.5 79t-3.5 84q0 36 4 71t12 66.5t21.5 57.5t32.5 45q42 42 102 42q45 0 89.5 -32.5t80.5 -81.5
t58 -106t22 -106q0 -54 -23.5 -99t-61 -81t-84 -61.5t-92.5 -40.5q-3 0 -5 -1q-14 -5 -27.5 -8.5t-30.5 -3.5h-31q-21 0 -29.5 2t-21.5 7l-35 16q-3 3 -3.5 7t-0.5 6q0 5 4 10t14 5l16 -7q15 -7 29.5 -11.5t31.5 -4.5q44 0 94 18t94 48t76.5 68t41.5 77q5 25 5 48
q0 45 -19 97t-49 96t-68 73t-77 29q-30 0 -56 -19.5t-40 -50.5zM99 639q0 6 3.5 10t8.5 4t9 -5l8 -10q7 -11 15.5 -23.5t16.5 -12.5q9 0 23 11t28 23l7 6q9 7 17.5 13t13.5 6q12 0 13.5 -5.5t-2.5 -13t-10 -14.5t-9 -11q-16 -19 -34.5 -35.5t-38.5 -16.5q-30 0 -49 22
t-20 52z" />
    <glyph glyph-name="dcaron" unicode="&#x10f;" 
d="M74 121q2 0 5 1h1q-7 40 -10.5 81.5t-6.5 86.5v6.5t-1 8.5q-2 15 -3.5 36.5t-1.5 44.5q0 15 1.5 30.5t4.5 27.5t8.5 20t13.5 8q9 0 16 -6t12.5 -15.5t10 -20.5t8.5 -21q2 -11 4.5 -18.5t5.5 -12.5q21 -45 38 -92.5t17 -97.5q0 -36 -12.5 -71.5t-41.5 -65.5l-14 -16
q9 -52 30 -94.5t70 -77.5q2 -2 2 -4v-5q0 -11 -5.5 -13t-18.5 -2q-50 35 -72.5 79.5t-35.5 94.5q-8 -4 -20.5 -9t-22.5 -5q-21 0 -38 13t-17 33q0 15 6.5 27t16.5 22t23 16.5t25 10.5h2zM117 121q13 -4 19 -22q24 40 24 87q0 20 -5 43.5t-13 48t-18 48.5t-19 45q-7 8 -10 18
v-36q0 -44 4.5 -86t9.5 -85l4 -34zM95 391zM95 389v2v-2zM87 75q-2 7 -4 17q-17 -4 -32.5 -15t-15.5 -27q0 -8 6 -13t15 -5t19.5 5t18.5 12zM176 409q-10 4 -10 15q0 5 3 9.5t11 4.5q20 0 28.5 -8t8.5 -20q0 -8 -5.5 -20.5t-12.5 -24.5t-13.5 -20.5t-7.5 -8.5q-15 0 -15 17
q1 11 3.5 17.5t5.5 13.5t5.5 13t2.5 8q0 3 -4 4z" />
    <glyph glyph-name="Dcroat" unicode="&#x110;" horiz-adv-x="427" 
d="M73 430q-23 -51 -31 -107t-8 -113q0 -45 3 -87.5t7 -82.5l4 -36q1 -2 1 -6q0 -6 -4.5 -9.5t-9.5 -3.5q-2 0 -4.5 0.5t-11.5 5.5q-2 2 -2 6q-1 21 -3 44t-5 51q-3 37 -6.5 79t-3.5 84q0 36 4 71t12 66.5t21.5 57.5t32.5 45q42 42 102 42q45 0 89.5 -32.5t80.5 -81.5
t58 -106t22 -106q0 -54 -23.5 -99t-61 -81t-84 -61.5t-92.5 -40.5q-3 0 -5 -1q-14 -5 -27.5 -8.5t-30.5 -3.5h-31q-21 0 -29.5 2t-21.5 7l-35 16q-3 3 -3.5 7t-0.5 6q0 5 4 10t14 5l16 -7q15 -7 29.5 -11.5t31.5 -4.5q44 0 94 18t94 48t76.5 68t41.5 77q5 25 5 48
q0 45 -19 97t-49 96t-68 73t-77 29q-30 0 -56 -19.5t-40 -50.5zM-41 143q-2 0 -2 2q-4 4 -4 10q0 15 19 15q9 -3 15 -3q15 0 30 3q11 2 23.5 3t26.5 1h9q5 -3 7.5 -5.5t2.5 -9.5q0 -2 -7.5 -6.5t-19.5 -9t-26.5 -7.5t-28.5 -3q-11 0 -22.5 1.5t-22.5 8.5z" />
    <glyph glyph-name="dcroat" unicode="&#x111;" 
d="M71 166q-23 0 -43 8q-6 2 -7 6.5t-1 6.5q0 5 2.5 10.5t10.5 5.5t14 -2q3 -1 6 -1q14 0 31 3q11 2 23 3t26 1q9 0 14.5 -2t5.5 -13q0 -2 -8 -6.5t-20 -9t-26.5 -7.5t-27.5 -3zM74 121q2 0 5 1h1q-7 40 -10.5 81.5t-6.5 86.5v6.5t-1 8.5q-2 15 -3.5 36.5t-1.5 44.5
q0 15 1.5 30.5t4.5 27.5t8.5 20t13.5 8q9 0 16 -6t12.5 -15.5t10 -20.5t8.5 -21q2 -11 4.5 -18.5t5.5 -12.5q21 -45 38 -92.5t17 -97.5q0 -36 -12.5 -71.5t-41.5 -65.5l-14 -16q9 -52 30 -94.5t70 -77.5q2 -2 2 -4v-5q0 -11 -5.5 -13t-18.5 -2q-50 35 -72.5 79.5t-35.5 94.5
q-8 -4 -20.5 -9t-22.5 -5q-21 0 -38 13t-17 33q0 15 6.5 27t16.5 22t23 16.5t25 10.5h2zM117 121q13 -4 19 -22q24 40 24 87q0 20 -5 43.5t-13 48t-18 48.5t-19 45q-7 8 -10 18v-36q0 -44 4.5 -86t9.5 -85l4 -34zM95 391zM95 389v2v-2zM87 75q-2 7 -4 17q-17 -4 -32.5 -15
t-15.5 -27q0 -8 6 -13t15 -5t19.5 5t18.5 12z" />
    <glyph glyph-name="Emacron" unicode="&#x112;" horiz-adv-x="395" 
d="M370 467q-30 -5 -67 -11.5t-74.5 -16.5t-73 -24t-63.5 -33.5t-44.5 -45t-16.5 -58.5q0 -23 10 -36t26 -20.5t37 -9.5t42 -2q23 0 46 2l46 4q21 2 42.5 4t44.5 2q17 0 34 -3.5t22 -14.5v-5.5t-2 -5.5v1q-17 -20 -35 -37.5t-38 -34.5l-15 -13q-19 -17 -37 -33.5t-32 -33
t-22.5 -33.5t-8.5 -33t24 -22.5t54 -6.5q18 0 36.5 2t34 5t26 7t12.5 8q1 1 3 2.5t4 1.5q14 0 14 -13q0 -11 -11 -20t-30 -16t-44.5 -10.5t-53.5 -3.5q-21 0 -39.5 3t-33 10.5t-23 20t-8.5 30.5q0 21 11 42t28 42t39 41.5t44 40.5q14 11 25 22l22 22q-6 1 -13.5 1.5
t-14.5 0.5q-15 0 -30 -1.5t-32 -3.5l-18 -2q-19 -3 -41 -5t-42 -2q-22 0 -46 4t-44.5 14.5t-33.5 29.5t-13 50q0 16 3.5 33.5t9.5 33t13.5 29t16.5 21.5q31 28 66.5 46.5t72.5 30t75 18.5t75 12l29 4q13 2 25 4t25 4h5t5 -2q3 -3 3.5 -7.5t0.5 -11.5q0 -8 -8 -10zM170 545
q-2 0 -2 2q-4 4 -4 10q0 15 19 15q9 -3 15 -3q15 0 30 3q11 2 23.5 3t26.5 1h9q5 -3 7.5 -5.5t2.5 -9.5q0 -2 -7.5 -6.5t-19.5 -9t-26.5 -7.5t-28.5 -3q-11 0 -22.5 1.5t-22.5 8.5z" />
    <glyph glyph-name="emacron" unicode="&#x113;" horiz-adv-x="186" 
d="M10 38q-21 0 -37 10l-3 1q-2 2 -2.5 6t-0.5 6q0 7 3 10.5t12 3.5t12 -1q10 -4 12 -4q9 0 31 5q17 29 36 47t39 18q8 0 18.5 -5.5t10.5 -19.5q0 -23 -24.5 -40.5t-56.5 -28.5q-2 -4 -2 -10q0 -9 16 -9q12 0 27 4t22 6l40 14q11 0 14.5 -4t3.5 -11q0 -4 -13 -11.5
t-30.5 -14.5t-35 -12t-27.5 -5q-30 0 -42 10t-12 27q0 3 -0.5 3.5t0.5 4.5h-11zM87 88l5 2q3 2 4 3.5t3 3.5v1q-2 0 -5 -3zM155.001 180.028q1.99902 0 1.99902 -2q4 -4 4 -9.99902q0 -14.999 -18.999 -14.999q-8.99902 3 -14.999 3q-14.999 0 -29.998 -3
q-10.999 -2 -23.498 -3q-12.5 -1 -26.499 -1h-8.99902q-5 3 -7.5 5.5q-2.5 2.49902 -2.5 9.49902q0 2 7.5 6.5q7.5 4.49902 19.499 8.99902t26.498 7.5q14.499 2.99902 28.498 2.99902q11 0 22.499 -1.49902q11.499 -1.5 22.499 -8.5z" />
    <glyph glyph-name="Ebreve" unicode="&#x114;" horiz-adv-x="395" 
d="M370 467q-30 -5 -67 -11.5t-74.5 -16.5t-73 -24t-63.5 -33.5t-44.5 -45t-16.5 -58.5q0 -23 10 -36t26 -20.5t37 -9.5t42 -2q23 0 46 2l46 4q21 2 42.5 4t44.5 2q17 0 34 -3.5t22 -14.5v-5.5t-2 -5.5v1q-17 -20 -35 -37.5t-38 -34.5l-15 -13q-19 -17 -37 -33.5t-32 -33
t-22.5 -33.5t-8.5 -33t24 -22.5t54 -6.5q18 0 36.5 2t34 5t26 7t12.5 8q1 1 3 2.5t4 1.5q14 0 14 -13q0 -11 -11 -20t-30 -16t-44.5 -10.5t-53.5 -3.5q-21 0 -39.5 3t-33 10.5t-23 20t-8.5 30.5q0 21 11 42t28 42t39 41.5t44 40.5q14 11 25 22l22 22q-6 1 -13.5 1.5
t-14.5 0.5q-15 0 -30 -1.5t-32 -3.5l-18 -2q-19 -3 -41 -5t-42 -2q-22 0 -46 4t-44.5 14.5t-33.5 29.5t-13 50q0 16 3.5 33.5t9.5 33t13.5 29t16.5 21.5q31 28 66.5 46.5t72.5 30t75 18.5t75 12l29 4q13 2 25 4t25 4h5t5 -2q3 -3 3.5 -7.5t0.5 -11.5q0 -8 -8 -10zM176 592
q0 16 14 16q10 0 14 -10q0 -21 12 -33t26 -12q11 0 22.5 8.5t16.5 22.5q-1 3 -1 5q0 6 3.5 7.5t8.5 6.5q14 0 16 -7t2 -19t-7 -23.5t-18 -20t-24 -13.5t-25 -5q-17 0 -28 7t-18 18.5t-10 25t-4 26.5z" />
    <glyph glyph-name="ebreve" unicode="&#x115;" horiz-adv-x="186" 
d="M10 38q-21 0 -37 10l-3 1q-2 2 -2.5 6t-0.5 6q0 7 3 10.5t12 3.5t12 -1q10 -4 12 -4q9 0 31 5q17 29 36 47t39 18q8 0 18.5 -5.5t10.5 -19.5q0 -23 -24.5 -40.5t-56.5 -28.5q-2 -4 -2 -10q0 -9 16 -9q12 0 27 4t22 6l40 14q11 0 14.5 -4t3.5 -11q0 -4 -13 -11.5
t-30.5 -14.5t-35 -12t-27.5 -5q-30 0 -42 10t-12 27q0 3 -0.5 3.5t0.5 4.5h-11zM87 88l5 2q3 2 4 3.5t3 3.5v1q-2 0 -5 -3zM19 220q0 16 14 16q10 0 14 -10q0 -21 12 -33t26 -12q11 0 22.5 8.5t16.5 22.5q-1 3 -1 5q0 6 3.5 7.5t8.5 6.5q14 0 16 -7t2 -19t-7 -23.5t-18 -20
t-24 -13.5t-25 -5q-17 0 -28 7t-18 18.5t-10 25t-4 26.5z" />
    <glyph glyph-name="Edotaccent" unicode="&#x116;" horiz-adv-x="395" 
d="M370 467q-30 -5 -67 -11.5t-74.5 -16.5t-73 -24t-63.5 -33.5t-44.5 -45t-16.5 -58.5q0 -23 10 -36t26 -20.5t37 -9.5t42 -2q23 0 46 2l46 4q21 2 42.5 4t44.5 2q17 0 34 -3.5t22 -14.5v-5.5t-2 -5.5v1q-17 -20 -35 -37.5t-38 -34.5l-15 -13q-19 -17 -37 -33.5t-32 -33
t-22.5 -33.5t-8.5 -33t24 -22.5t54 -6.5q18 0 36.5 2t34 5t26 7t12.5 8q1 1 3 2.5t4 1.5q14 0 14 -13q0 -11 -11 -20t-30 -16t-44.5 -10.5t-53.5 -3.5q-21 0 -39.5 3t-33 10.5t-23 20t-8.5 30.5q0 21 11 42t28 42t39 41.5t44 40.5q14 11 25 22l22 22q-6 1 -13.5 1.5
t-14.5 0.5q-15 0 -30 -1.5t-32 -3.5l-18 -2q-19 -3 -41 -5t-42 -2q-22 0 -46 4t-44.5 14.5t-33.5 29.5t-13 50q0 16 3.5 33.5t9.5 33t13.5 29t16.5 21.5q31 28 66.5 46.5t72.5 30t75 18.5t75 12l29 4q13 2 25 4t25 4h5t5 -2q3 -3 3.5 -7.5t0.5 -11.5q0 -8 -8 -10zM246 556
q11 -2 11 -19q0 -9 -4 -14.5t-16 -5.5q-11 0 -17 6.5t-6 15.5q0 18 21 18h6.5t5.5 -1h-1z" />
    <glyph glyph-name="edotaccent" unicode="&#x117;" horiz-adv-x="186" 
d="M10 38q-21 0 -37 10l-3 1q-2 2 -2.5 6t-0.5 6q0 7 3 10.5t12 3.5t12 -1q10 -4 12 -4q9 0 31 5q17 29 36 47t39 18q8 0 18.5 -5.5t10.5 -19.5q0 -23 -24.5 -40.5t-56.5 -28.5q-2 -4 -2 -10q0 -9 16 -9q12 0 27 4t22 6l40 14q11 0 14.5 -4t3.5 -11q0 -4 -13 -11.5
t-30.5 -14.5t-35 -12t-27.5 -5q-30 0 -42 10t-12 27q0 3 -0.5 3.5t0.5 4.5h-11zM87 88l5 2q3 2 4 3.5t3 3.5v1q-2 0 -5 -3zM96 185q11 -2 11 -19q0 -9 -4 -14.5t-16 -5.5q-11 0 -17 6.5t-6 15.5q0 18 21 18h6.5t5.5 -1h-1z" />
    <glyph glyph-name="Eogonek" unicode="&#x118;" horiz-adv-x="395" 
d="M370 467q-30 -5 -67 -11.5t-74.5 -16.5t-73 -24t-63.5 -33.5t-44.5 -45t-16.5 -58.5q0 -23 10 -36t26 -20.5t37 -9.5t42 -2q23 0 46 2l46 4q21 2 42.5 4t44.5 2q17 0 34 -3.5t22 -14.5v-5.5t-2 -5.5v1q-17 -20 -35 -37.5t-38 -34.5l-15 -13q-19 -17 -37 -33.5t-32 -33
t-22.5 -33.5t-8.5 -33t24 -22.5t54 -6.5q18 0 36.5 2t34 5t26 7t12.5 8q1 1 3 2.5t4 1.5q14 0 14 -13q0 -11 -11 -20t-30 -16t-44.5 -10.5t-53.5 -3.5q-21 0 -39.5 3t-33 10.5t-23 20t-8.5 30.5q0 21 11 42t28 42t39 41.5t44 40.5q14 11 25 22l22 22q-6 1 -13.5 1.5
t-14.5 0.5q-15 0 -30 -1.5t-32 -3.5l-18 -2q-19 -3 -41 -5t-42 -2q-22 0 -46 4t-44.5 14.5t-33.5 29.5t-13 50q0 16 3.5 33.5t9.5 33t13.5 29t16.5 21.5q31 28 66.5 46.5t72.5 30t75 18.5t75 12l29 4q13 2 25 4t25 4h5t5 -2q3 -3 3.5 -7.5t0.5 -11.5q0 -8 -8 -10zM302 -65
q1 3 4 6.5t10 3.5q5 0 8 -4.5t5 -9.5q0 -11 -4 -22t-4 -24q0 -10 11 -13t28 -3q3 0 8.5 0.5t10.5 1.5h-1q2 1 6 1h6q8 0 12 -5t4 -10t-6.5 -9.5t-16 -7.5t-21 -4.5t-20.5 -1.5q-10 0 -20.5 2t-19.5 7.5t-14.5 14t-5.5 21.5q0 10 3.5 19t6.5 16l2 4l4 8l3.5 7t0.5 2z" />
    <glyph glyph-name="eogonek" unicode="&#x119;" horiz-adv-x="186" 
d="M10 38q-21 0 -37 10l-3 1q-2 2 -2.5 6t-0.5 6q0 7 3 10.5t12 3.5t12 -1q10 -4 12 -4q9 0 31 5q17 29 36 47t39 18q8 0 18.5 -5.5t10.5 -19.5q0 -23 -24.5 -40.5t-56.5 -28.5q-2 -4 -2 -10q0 -9 16 -9q12 0 27 4t22 6l40 14q11 0 14.5 -4t3.5 -11q0 -4 -13 -11.5
t-30.5 -14.5t-35 -12t-27.5 -5q-30 0 -42 10t-12 27q0 3 -0.5 3.5t0.5 4.5h-11zM87 88l5 2q3 2 4 3.5t3 3.5v1q-2 0 -5 -3zM86 16q1 3 4 6.5t10 3.5q5 0 8 -4.5t5 -9.5q0 -11 -4 -22t-4 -24q0 -10 11 -13t28 -3q3 0 8.5 0.5t10.5 1.5h-1q2 1 6 1h6q8 0 12 -5t4 -10
t-6.5 -9.5t-16 -7.5t-21 -4.5t-20.5 -1.5q-10 0 -20.5 2t-19.5 7.5t-14.5 14t-5.5 21.5q0 10 3.5 19t6.5 16l2 4l4 8l3.5 7t0.5 2z" />
    <glyph glyph-name="Ecaron" unicode="&#x11a;" horiz-adv-x="395" 
d="M370 467q-30 -5 -67 -11.5t-74.5 -16.5t-73 -24t-63.5 -33.5t-44.5 -45t-16.5 -58.5q0 -23 10 -36t26 -20.5t37 -9.5t42 -2q23 0 46 2l46 4q21 2 42.5 4t44.5 2q17 0 34 -3.5t22 -14.5v-5.5t-2 -5.5v1q-17 -20 -35 -37.5t-38 -34.5l-15 -13q-19 -17 -37 -33.5t-32 -33
t-22.5 -33.5t-8.5 -33t24 -22.5t54 -6.5q18 0 36.5 2t34 5t26 7t12.5 8q1 1 3 2.5t4 1.5q14 0 14 -13q0 -11 -11 -20t-30 -16t-44.5 -10.5t-53.5 -3.5q-21 0 -39.5 3t-33 10.5t-23 20t-8.5 30.5q0 21 11 42t28 42t39 41.5t44 40.5q14 11 25 22l22 22q-6 1 -13.5 1.5
t-14.5 0.5q-15 0 -30 -1.5t-32 -3.5l-18 -2q-19 -3 -41 -5t-42 -2q-22 0 -46 4t-44.5 14.5t-33.5 29.5t-13 50q0 16 3.5 33.5t9.5 33t13.5 29t16.5 21.5q31 28 66.5 46.5t72.5 30t75 18.5t75 12l29 4q13 2 25 4t25 4h5t5 -2q3 -3 3.5 -7.5t0.5 -11.5q0 -8 -8 -10zM153 594
q0 6 3.5 10t8.5 4t9 -5l8 -10q7 -11 15.5 -23.5t16.5 -12.5q9 0 23 11t28 23l7 6q9 7 17.5 13t13.5 6q12 0 13.5 -5.5t-2.5 -13t-10 -14.5t-9 -11q-16 -19 -34.5 -35.5t-38.5 -16.5q-30 0 -49 22t-20 52z" />
    <glyph glyph-name="ecaron" unicode="&#x11b;" horiz-adv-x="186" 
d="M10 38q-21 0 -37 10l-3 1q-2 2 -2.5 6t-0.5 6q0 7 3 10.5t12 3.5t12 -1q10 -4 12 -4q9 0 31 5q17 29 36 47t39 18q8 0 18.5 -5.5t10.5 -19.5q0 -23 -24.5 -40.5t-56.5 -28.5q-2 -4 -2 -10q0 -9 16 -9q12 0 27 4t22 6l40 14q11 0 14.5 -4t3.5 -11q0 -4 -13 -11.5
t-30.5 -14.5t-35 -12t-27.5 -5q-30 0 -42 10t-12 27q0 3 -0.5 3.5t0.5 4.5h-11zM87 88l5 2q3 2 4 3.5t3 3.5v1q-2 0 -5 -3zM16 222q0 6 3.5 10t8.5 4t9 -5l8 -10q7 -11 15.5 -23.5t16.5 -12.5q9 0 23 11t28 23l7 6q9 7 17.5 13t13.5 6q12 0 13.5 -5.5t-2.5 -13t-10 -14.5
t-9 -11q-16 -19 -34.5 -35.5t-38.5 -16.5q-30 0 -49 22t-20 52z" />
    <glyph glyph-name="Gcircumflex" unicode="&#x11c;" horiz-adv-x="652" 
d="M601 433q0 -1 2 -3l1 1q2 -2 2.5 -5.5t0.5 -5.5q0 -6 -5 -10t-10 -4q-6 0 -11 6t-11 14q-4 6 -7 11.5t-7 7.5q-27 15 -65 22t-79 7q-67 0 -135 -15t-122.5 -47.5t-89 -83t-34.5 -121.5t24 -121.5t64 -83t90 -47.5t103 -15q37 0 85.5 7.5t92.5 26t74.5 50.5t31.5 80
q-11 20 -46.5 34.5t-95.5 14.5q-20 0 -41 -0.5t-39 -5.5q3 0 0.5 -1l-7.5 -3t-10.5 -4t-9.5 -3l-7 -1q-14 -8 -26 -12.5t-27 -4.5q-11 0 -15.5 5t-4.5 13q0 7 9 14t22.5 13t30.5 10.5t32 7.5l12 4l12 6q39 17 75.5 27t79.5 14q25 0 41.5 -9t26 -23.5t13.5 -32.5t5 -37
q4 -9 6.5 -20.5t2.5 -20.5q0 -16 -5 -32t-13 -30l1 1q-2 -12 -5 -24l-6 -24l-4 -16q-9 -36 -16.5 -72t-7.5 -73q0 -16 5 -29.5t25 -13.5q8 0 15 -1.5t7 -14.5q0 -11 -11 -13t-20 -2q-15 0 -24.5 8t-15.5 19.5t-8 25t-2 25.5q0 36 6.5 72.5t14.5 70.5q2 5 2 5.5t2 8.5
q-14 -11 -29 -17l-61 -28q-12 -5 -21 -8.5t-18 -6t-19.5 -4.5t-25.5 -5l-58 -7q-11 -2 -23 -3t-23 -1q-20 0 -40 3.5t-38 8.5l-38 16q-23 9 -43 17.5t-38.5 21.5t-34.5 31t-30 47q-22 40 -30.5 80.5t-8.5 75.5q0 68 28.5 124t83.5 95.5t134 61.5t181 22q41 0 81 -8t69 -28
h-1q8 -4 15 -13.5t13 -20.5zM586 165q0 2 2 0q-6 16 -19 25.5t-36 9.5q-24 0 -51 -9q30 -1 55 -6t41 -15h-1zM372 631q5 2 5.5 2h2.5q8 0 16.5 -10.5t15 -24t11 -26t4.5 -16.5q0 -5 -5 -8.5t-9 -3.5q-6 0 -13.5 11t-10.5 16l-10 16l-9 -11q-12 -17 -28 -32t-30 -15
q-9 0 -13.5 6.5t-4.5 12.5q0 3 0.5 6.5t2.5 6.5l22 18l9 9t6 7q7 9 15.5 17.5t22.5 18.5z" />
    <glyph glyph-name="gcircumflex" unicode="&#x11d;" horiz-adv-x="190" 
d="M147 112q0 -10 -5 -13.5t-10 -3.5q-3 0 -7 3.5t-8 8.5q-2 2 -3.5 4.5t-3.5 2.5q-9 0 -20 -6.5t-20 -16.5t-15.5 -23t-6.5 -25q0 -10 4 -10q11 0 37 9q8 2 15.5 4.5t17.5 2.5q15 0 29.5 -11.5t27 -30.5t22 -43t14.5 -48h6q5 0 20 -2t31.5 -6.5t29 -12t12.5 -17.5
q-3 -8 -7 -14q-4 -5 -10 -9.5t-14 -4.5q-13 0 -13 15q0 6 1.5 8.5t5.5 5.5q-10 3 -26.5 4t-29.5 1q-2 0 -2 -2q0 -34 -18.5 -65t-48 -54.5t-65.5 -37.5t-71 -14q-15 0 -34 3.5t-35.5 11.5t-27.5 21t-11 33q0 12 8.5 24.5t20.5 23t24.5 18t20.5 11.5q45 24 96.5 39.5
t99.5 19.5q-3 16 -9 34t-13.5 32t-16 23.5t-15.5 9.5q-4 0 -11 -2t-16 -5q-11 -4 -22 -7t-25 -3q-16 0 -25 9t-9 32q0 18 8.5 36.5t22 33.5t30.5 24.5t33 9.5q15 0 23.5 -7t13.5 -21v-3zM152 -188q8 8 12.5 14t7.5 13t5 15t4 19v3q0 3 0.5 3t-0.5 4q-41 -4 -89 -16.5
t-93 -38.5l-6 -4q-6 -5 -14.5 -10.5t-16 -11.5t-12.5 -12t-5 -12q0 -14 19 -22t37 -8q20 0 42.5 6t43.5 15.5t38 20.5t27 22zM102 248q5 2 5.5 2h2.5q8 0 16.5 -10.5t15 -24t11 -26t4.5 -16.5q0 -5 -5 -8.5t-9 -3.5q-6 0 -13.5 11t-10.5 16l-10 16l-9 -11q-12 -17 -28 -32
t-30 -15q-9 0 -13.5 6.5t-4.5 12.5q0 3 0.5 6.5t2.5 6.5l22 18l9 9t6 7q7 9 15.5 17.5t22.5 18.5z" />
    <glyph glyph-name="Gbreve" unicode="&#x11e;" horiz-adv-x="652" 
d="M601 433q0 -1 2 -3l1 1q2 -2 2.5 -5.5t0.5 -5.5q0 -6 -5 -10t-10 -4q-6 0 -11 6t-11 14q-4 6 -7 11.5t-7 7.5q-27 15 -65 22t-79 7q-67 0 -135 -15t-122.5 -47.5t-89 -83t-34.5 -121.5t24 -121.5t64 -83t90 -47.5t103 -15q37 0 85.5 7.5t92.5 26t74.5 50.5t31.5 80
q-11 20 -46.5 34.5t-95.5 14.5q-20 0 -41 -0.5t-39 -5.5q3 0 0.5 -1l-7.5 -3t-10.5 -4t-9.5 -3l-7 -1q-14 -8 -26 -12.5t-27 -4.5q-11 0 -15.5 5t-4.5 13q0 7 9 14t22.5 13t30.5 10.5t32 7.5l12 4l12 6q39 17 75.5 27t79.5 14q25 0 41.5 -9t26 -23.5t13.5 -32.5t5 -37
q4 -9 6.5 -20.5t2.5 -20.5q0 -16 -5 -32t-13 -30l1 1q-2 -12 -5 -24l-6 -24l-4 -16q-9 -36 -16.5 -72t-7.5 -73q0 -16 5 -29.5t25 -13.5q8 0 15 -1.5t7 -14.5q0 -11 -11 -13t-20 -2q-15 0 -24.5 8t-15.5 19.5t-8 25t-2 25.5q0 36 6.5 72.5t14.5 70.5q2 5 2 5.5t2 8.5
q-14 -11 -29 -17l-61 -28q-12 -5 -21 -8.5t-18 -6t-19.5 -4.5t-25.5 -5l-58 -7q-11 -2 -23 -3t-23 -1q-20 0 -40 3.5t-38 8.5l-38 16q-23 9 -43 17.5t-38.5 21.5t-34.5 31t-30 47q-22 40 -30.5 80.5t-8.5 75.5q0 68 28.5 124t83.5 95.5t134 61.5t181 22q41 0 81 -8t69 -28
h-1q8 -4 15 -13.5t13 -20.5zM586 165q0 2 2 0q-6 16 -19 25.5t-36 9.5q-24 0 -51 -9q30 -1 55 -6t41 -15h-1zM261 622q0 16 14 16q10 0 14 -10q0 -21 12 -33t26 -12q11 0 22.5 8.5t16.5 22.5q-1 3 -1 5q0 6 3.5 7.5t8.5 6.5q14 0 16 -7t2 -19t-7 -23.5t-18 -20t-24 -13.5
t-25 -5q-17 0 -28 7t-18 18.5t-10 25t-4 26.5z" />
    <glyph glyph-name="gbreve" unicode="&#x11f;" horiz-adv-x="190" 
d="M147 112q0 -10 -5 -13.5t-10 -3.5q-3 0 -7 3.5t-8 8.5q-2 2 -3.5 4.5t-3.5 2.5q-9 0 -20 -6.5t-20 -16.5t-15.5 -23t-6.5 -25q0 -10 4 -10q11 0 37 9q8 2 15.5 4.5t17.5 2.5q15 0 29.5 -11.5t27 -30.5t22 -43t14.5 -48h6q5 0 20 -2t31.5 -6.5t29 -12t12.5 -17.5
q-3 -8 -7 -14q-4 -5 -10 -9.5t-14 -4.5q-13 0 -13 15q0 6 1.5 8.5t5.5 5.5q-10 3 -26.5 4t-29.5 1q-2 0 -2 -2q0 -34 -18.5 -65t-48 -54.5t-65.5 -37.5t-71 -14q-15 0 -34 3.5t-35.5 11.5t-27.5 21t-11 33q0 12 8.5 24.5t20.5 23t24.5 18t20.5 11.5q45 24 96.5 39.5
t99.5 19.5q-3 16 -9 34t-13.5 32t-16 23.5t-15.5 9.5q-4 0 -11 -2t-16 -5q-11 -4 -22 -7t-25 -3q-16 0 -25 9t-9 32q0 18 8.5 36.5t22 33.5t30.5 24.5t33 9.5q15 0 23.5 -7t13.5 -21v-3zM152 -188q8 8 12.5 14t7.5 13t5 15t4 19v3q0 3 0.5 3t-0.5 4q-41 -4 -89 -16.5
t-93 -38.5l-6 -4q-6 -5 -14.5 -10.5t-16 -11.5t-12.5 -12t-5 -12q0 -14 19 -22t37 -8q20 0 42.5 6t43.5 15.5t38 20.5t27 22zM31 235q0 16 14 16q10 0 14 -10q0 -21 12 -33t26 -12q11 0 22.5 8.5t16.5 22.5q-1 3 -1 5q0 6 3.5 7.5t8.5 6.5q14 0 16 -7t2 -19t-7 -23.5
t-18 -20t-24 -13.5t-25 -5q-17 0 -28 7t-18 18.5t-10 25t-4 26.5z" />
    <glyph glyph-name="Gdotaccent" unicode="&#x120;" horiz-adv-x="652" 
d="M601 433q0 -1 2 -3l1 1q2 -2 2.5 -5.5t0.5 -5.5q0 -6 -5 -10t-10 -4q-6 0 -11 6t-11 14q-4 6 -7 11.5t-7 7.5q-27 15 -65 22t-79 7q-67 0 -135 -15t-122.5 -47.5t-89 -83t-34.5 -121.5t24 -121.5t64 -83t90 -47.5t103 -15q37 0 85.5 7.5t92.5 26t74.5 50.5t31.5 80
q-11 20 -46.5 34.5t-95.5 14.5q-20 0 -41 -0.5t-39 -5.5q3 0 0.5 -1l-7.5 -3t-10.5 -4t-9.5 -3l-7 -1q-14 -8 -26 -12.5t-27 -4.5q-11 0 -15.5 5t-4.5 13q0 7 9 14t22.5 13t30.5 10.5t32 7.5l12 4l12 6q39 17 75.5 27t79.5 14q25 0 41.5 -9t26 -23.5t13.5 -32.5t5 -37
q4 -9 6.5 -20.5t2.5 -20.5q0 -16 -5 -32t-13 -30l1 1q-2 -12 -5 -24l-6 -24l-4 -16q-9 -36 -16.5 -72t-7.5 -73q0 -16 5 -29.5t25 -13.5q8 0 15 -1.5t7 -14.5q0 -11 -11 -13t-20 -2q-15 0 -24.5 8t-15.5 19.5t-8 25t-2 25.5q0 36 6.5 72.5t14.5 70.5q2 5 2 5.5t2 8.5
q-14 -11 -29 -17l-61 -28q-12 -5 -21 -8.5t-18 -6t-19.5 -4.5t-25.5 -5l-58 -7q-11 -2 -23 -3t-23 -1q-20 0 -40 3.5t-38 8.5l-38 16q-23 9 -43 17.5t-38.5 21.5t-34.5 31t-30 47q-22 40 -30.5 80.5t-8.5 75.5q0 68 28.5 124t83.5 95.5t134 61.5t181 22q41 0 81 -8t69 -28
h-1q8 -4 15 -13.5t13 -20.5zM586 165q0 2 2 0q-6 16 -19 25.5t-36 9.5q-24 0 -51 -9q30 -1 55 -6t41 -15h-1zM338 597q11 -2 11 -19q0 -9 -4 -14.5t-16 -5.5q-11 0 -17 6.5t-6 15.5q0 18 21 18h6.5t5.5 -1h-1z" />
    <glyph glyph-name="gdotaccent" unicode="&#x121;" horiz-adv-x="190" 
d="M147 112q0 -10 -5 -13.5t-10 -3.5q-3 0 -7 3.5t-8 8.5q-2 2 -3.5 4.5t-3.5 2.5q-9 0 -20 -6.5t-20 -16.5t-15.5 -23t-6.5 -25q0 -10 4 -10q11 0 37 9q8 2 15.5 4.5t17.5 2.5q15 0 29.5 -11.5t27 -30.5t22 -43t14.5 -48h6q5 0 20 -2t31.5 -6.5t29 -12t12.5 -17.5
q-3 -8 -7 -14q-4 -5 -10 -9.5t-14 -4.5q-13 0 -13 15q0 6 1.5 8.5t5.5 5.5q-10 3 -26.5 4t-29.5 1q-2 0 -2 -2q0 -34 -18.5 -65t-48 -54.5t-65.5 -37.5t-71 -14q-15 0 -34 3.5t-35.5 11.5t-27.5 21t-11 33q0 12 8.5 24.5t20.5 23t24.5 18t20.5 11.5q45 24 96.5 39.5
t99.5 19.5q-3 16 -9 34t-13.5 32t-16 23.5t-15.5 9.5q-4 0 -11 -2t-16 -5q-11 -4 -22 -7t-25 -3q-16 0 -25 9t-9 32q0 18 8.5 36.5t22 33.5t30.5 24.5t33 9.5q15 0 23.5 -7t13.5 -21v-3zM152 -188q8 8 12.5 14t7.5 13t5 15t4 19v3q0 3 0.5 3t-0.5 4q-41 -4 -89 -16.5
t-93 -38.5l-6 -4q-6 -5 -14.5 -10.5t-16 -11.5t-12.5 -12t-5 -12q0 -14 19 -22t37 -8q20 0 42.5 6t43.5 15.5t38 20.5t27 22zM106 198q11 -2 11 -19q0 -9 -4 -14.5t-16 -5.5q-11 0 -17 6.5t-6 15.5q0 18 21 18h6.5t5.5 -1h-1z" />
    <glyph glyph-name="Gcommaaccent" unicode="&#x122;" horiz-adv-x="652" 
d="M601 433q0 -1 2 -3l1 1q2 -2 2.5 -5.5t0.5 -5.5q0 -6 -5 -10t-10 -4q-6 0 -11 6t-11 14q-4 6 -7 11.5t-7 7.5q-27 15 -65 22t-79 7q-67 0 -135 -15t-122.5 -47.5t-89 -83t-34.5 -121.5t24 -121.5t64 -83t90 -47.5t103 -15q37 0 85.5 7.5t92.5 26t74.5 50.5t31.5 80
q-11 20 -46.5 34.5t-95.5 14.5q-20 0 -41 -0.5t-39 -5.5q3 0 0.5 -1l-7.5 -3t-10.5 -4t-9.5 -3l-7 -1q-14 -8 -26 -12.5t-27 -4.5q-11 0 -15.5 5t-4.5 13q0 7 9 14t22.5 13t30.5 10.5t32 7.5l12 4l12 6q39 17 75.5 27t79.5 14q25 0 41.5 -9t26 -23.5t13.5 -32.5t5 -37
q4 -9 6.5 -20.5t2.5 -20.5q0 -16 -5 -32t-13 -30l1 1q-2 -12 -5 -24l-6 -24l-4 -16q-9 -36 -16.5 -72t-7.5 -73q0 -16 5 -29.5t25 -13.5q8 0 15 -1.5t7 -14.5q0 -11 -11 -13t-20 -2q-15 0 -24.5 8t-15.5 19.5t-8 25t-2 25.5q0 36 6.5 72.5t14.5 70.5q2 5 2 5.5t2 8.5
q-14 -11 -29 -17l-61 -28q-12 -5 -21 -8.5t-18 -6t-19.5 -4.5t-25.5 -5l-58 -7q-11 -2 -23 -3t-23 -1q-20 0 -40 3.5t-38 8.5l-38 16q-23 9 -43 17.5t-38.5 21.5t-34.5 31t-30 47q-22 40 -30.5 80.5t-8.5 75.5q0 68 28.5 124t83.5 95.5t134 61.5t181 22q41 0 81 -8t69 -28
h-1q8 -4 15 -13.5t13 -20.5zM586 165q0 2 2 0q-6 16 -19 25.5t-36 9.5q-24 0 -51 -9q30 -1 55 -6t41 -15h-1zM346 -147q-10 4 -10 15q0 5 3 9.5t11 4.5q20 0 28.5 -8t8.5 -20q0 -8 -5.5 -20.5t-12.5 -24.5t-13.5 -20.5t-7.5 -8.5q-15 0 -15 17q1 11 3.5 17.5t5.5 13.5
t5.5 13t2.5 8q0 3 -4 4z" />
    <glyph glyph-name="gcommaaccent" unicode="&#x123;" horiz-adv-x="190" 
d="M147 112q0 -10 -5 -13.5t-10 -3.5q-3 0 -7 3.5t-8 8.5q-2 2 -3.5 4.5t-3.5 2.5q-9 0 -20 -6.5t-20 -16.5t-15.5 -23t-6.5 -25q0 -10 4 -10q11 0 37 9q8 2 15.5 4.5t17.5 2.5q15 0 29.5 -11.5t27 -30.5t22 -43t14.5 -48h6q5 0 20 -2t31.5 -6.5t29 -12t12.5 -17.5
q-3 -8 -7 -14q-4 -5 -10 -9.5t-14 -4.5q-13 0 -13 15q0 6 1.5 8.5t5.5 5.5q-10 3 -26.5 4t-29.5 1q-2 0 -2 -2q0 -34 -18.5 -65t-48 -54.5t-65.5 -37.5t-71 -14q-15 0 -34 3.5t-35.5 11.5t-27.5 21t-11 33q0 12 8.5 24.5t20.5 23t24.5 18t20.5 11.5q45 24 96.5 39.5
t99.5 19.5q-3 16 -9 34t-13.5 32t-16 23.5t-15.5 9.5q-4 0 -11 -2t-16 -5q-11 -4 -22 -7t-25 -3q-16 0 -25 9t-9 32q0 18 8.5 36.5t22 33.5t30.5 24.5t33 9.5q15 0 23.5 -7t13.5 -21v-3zM152 -188q8 8 12.5 14t7.5 13t5 15t4 19v3q0 3 0.5 3t-0.5 4q-41 -4 -89 -16.5
t-93 -38.5l-6 -4q-6 -5 -14.5 -10.5t-16 -11.5t-12.5 -12t-5 -12q0 -14 19 -22t37 -8q20 0 42.5 6t43.5 15.5t38 20.5t27 22zM106.001 183.001q10 -4 10 -14.999q0 -5 -3 -9.5t-10.999 -4.5q-19.999 0 -28.499 8q-8.49902 7.99902 -8.49902 19.999q0 7.99902 5.5 20.498
q5.49902 12.5 12.499 24.499q6.99902 11.999 13.499 20.499q6.5 8.49902 7.49902 8.49902q14.999 0 14.999 -16.999q-0.999023 -10.999 -3.49902 -17.499q-2.5 -6.49902 -5.5 -13.499q-3 -6.99902 -5.5 -12.999q-2.49902 -6 -2.49902 -8q0 -2.99902 3.99902 -3.99902z" />
    <glyph glyph-name="Hcircumflex" unicode="&#x124;" horiz-adv-x="604" 
d="M676 544q0 -16 -17 -16h-3q-5 -10 -11.5 -31t-13 -45.5t-13 -50t-10.5 -44.5l-4 -15q-5 -21 -8.5 -39.5t-6.5 -35.5l-3 -15q-2 -13 -3.5 -22.5t-3.5 -21.5l38 10t36 10q7 0 13 -4t6 -10q0 -5 -4 -8.5t-9 -5.5l-84 -26l-5 -30q-8 -42 -13 -84.5t-4 -85.5q0 -12 1 -27
t3 -30q2 -5 2 -10t1 -8q2 -8 2.5 -10.5t1.5 -4.5q2 -5 4.5 -11t6.5 -20q0 -8 -4 -15.5t-15 -7.5q-2 0 -5.5 2t-8.5 4q-14 14 -16.5 21.5t-4.5 17.5l-5 20q-19 65 -53.5 126.5t-88.5 99.5q-2 1 -4 3l-3 3q-35 -7 -72.5 -11t-75.5 -4q-14 0 -30.5 0.5t-31.5 2.5v-22.5
t-1 -34.5q0 -14 -0.5 -35t-0.5 -36q-1 -42 -1.5 -82.5t-0.5 -62.5v-23q0 -16 -14 -16q-2 0 -4.5 16t-5 41t-5 55.5t-4 59t-2.5 51.5t-1 34v46q0 5 0.5 8t0.5 9q-1 0 -2 0.5t-2 0.5q-17 4 -32.5 9t-27.5 10.5t-19.5 13t-7.5 16.5q0 14 9 25.5t23 20.5t30 14.5t30 8.5
q-1 42 -1.5 94.5t-0.5 99.5v23.5t1 24.5q5 13 15 13q2 0 8 -5t6 -10q0 -24 0.5 -51.5t2.5 -56.5l2 -43l3 -87q53 -2 115.5 -24.5t117.5 -58.5q40 8 78.5 17.5t76.5 20.5l14 66l7 33q11 52 21.5 100t21.5 85t24 58.5t29 21.5q13 0 16 -17v-2zM536 164q-29 -8 -57.5 -15
t-58.5 -13q29 -27 54 -59.5t43 -67.5q2 38 7 76.5t12 78.5zM230 148q48 0 96 6q-35 18 -81 34t-89 20q1 -16 1 -28.5v-27.5q30 -3 46.5 -3.5t26.5 -0.5zM119 204q-14 -5 -29 -11t-23 -14q5 -7 19.5 -12.5t32.5 -8.5q1 11 0.5 21.5t-0.5 24.5zM65 176l2 3q-1 1 -1 2zM394 627
q5 2 5.5 2h2.5q8 0 16.5 -10.5t15 -24t11 -26t4.5 -16.5q0 -5 -5 -8.5t-9 -3.5q-6 0 -13.5 11t-10.5 16l-10 16l-9 -11q-12 -17 -28 -32t-30 -15q-9 0 -13.5 6.5t-4.5 12.5q0 3 0.5 6.5t2.5 6.5l22 18l9 9t6 7q7 9 15.5 17.5t22.5 18.5z" />
    <glyph glyph-name="hcircumflex" unicode="&#x125;" horiz-adv-x="184" 
d="M-4 102q-5 0 -11 1.5t-6 12.5q0 8 7 12t16 8q1 0 2.5 1t3.5 2l4 2l4 2q1 46 4.5 89.5t11.5 85.5t22 83t35 82l14 22q15 24 30 32t27 9q25 0 41.5 -28t26.5 -63t14.5 -66t4.5 -37q-1 -42 -22 -77t-55 -69q-24 -22 -57.5 -45.5t-61.5 -35.5q0 -3 -0.5 -8t-0.5 -10
q0 -7 -0.5 -9.5t-0.5 -4.5v-5v-12q9 11 20 19.5t22 8.5q7 0 14.5 -5t14 -13t11.5 -17.5t9 -17.5l2 -4t3 -5q2 -4 4 -7l10 -8h-1q4 -2 7 -6t3 -10q0 -5 -4 -10t-11 -5q-6 0 -9 3q-8 6 -13 14.5t-10 16.5l-8 13q-7 11 -13 20.5t-10 9.5t-9.5 -6t-10.5 -14.5t-8.5 -18.5
t-3.5 -18v-11q0 -2 0.5 -3t0.5 -3v-4q0 -11 -3.5 -20t-16.5 -9q-8 0 -12.5 10.5t-7.5 26.5t-4 35.5t-1 37.5q0 11 -0.5 19t0.5 16q-4 -2 -7.5 -4t-6.5 -4zM102 425q-24 -61 -35 -131.5t-15 -132.5q25 13 53 31.5t52 42t39.5 51t16.5 59.5q0 21 -6 45t-13 45v-1l-3 11l-3 10
q-5 15 -11 31t-16 24q-20 -8 -30.5 -27t-18.5 -37q-8 -13 -10 -21zM161 638q5 2 5.5 2h2.5q8 0 16.5 -10.5t15 -24t11 -26t4.5 -16.5q0 -5 -5 -8.5t-9 -3.5q-6 0 -13.5 11t-10.5 16l-10 16l-9 -11q-12 -17 -28 -32t-30 -15q-9 0 -13.5 6.5t-4.5 12.5q0 3 0.5 6.5t2.5 6.5
l22 18l9 9t6 7q7 9 15.5 17.5t22.5 18.5z" />
    <glyph glyph-name="Hbar" unicode="&#x126;" horiz-adv-x="604" 
d="M81 258q-3 0 -12.5 0.5t-20 1.5t-19 3.5t-8.5 7.5q-1 11 34 13l8 1q54 1 113.5 5.5t128.5 9.5l51 4q61 5 130 10t144 10l33 2q23 1 32.5 -1t7.5 -5.5t-15 -7t-35 -6.5q-43 -6 -112.5 -14.5t-149 -16t-161.5 -12.5t-149 -5zM682 554q0 -16 -17 -16h-3q-5 -10 -11.5 -31
t-13 -45.5t-13 -50t-10.5 -44.5l-4 -15q-5 -21 -8.5 -39.5t-6.5 -35.5l-3 -15q-2 -13 -3.5 -22.5t-3.5 -21.5l38 10t36 10q7 0 13 -4t6 -10q0 -5 -4 -8.5t-9 -5.5l-84 -26l-5 -30q-8 -42 -13 -84.5t-4 -85.5q0 -12 1 -27t3 -30q2 -5 2 -10t1 -8q2 -8 2.5 -10.5t1.5 -4.5
q2 -5 4.5 -11t6.5 -20q0 -8 -4 -15.5t-15 -7.5q-2 0 -5.5 2t-8.5 4q-14 14 -16.5 21.5t-4.5 17.5l-5 20q-19 65 -53.5 126.5t-88.5 99.5q-2 1 -4 3l-3 3q-35 -7 -72.5 -11t-75.5 -4q-14 0 -30.5 0.5t-31.5 2.5v-22.5t-1 -34.5q0 -14 -0.5 -35t-0.5 -36q-1 -42 -1.5 -82.5
t-0.5 -62.5v-23q0 -16 -14 -16q-2 0 -4.5 16t-5 41t-5 55.5t-4 59t-2.5 51.5t-1 34v46q0 5 0.5 8t0.5 9q-1 0 -2 0.5t-2 0.5q-17 4 -32.5 9t-27.5 10.5t-19.5 13t-7.5 16.5q0 14 9 25.5t23 20.5t30 14.5t30 8.5q-1 42 -1.5 94.5t-0.5 99.5v23.5t1 24.5q5 13 15 13q2 0 8 -5
t6 -10q0 -24 0.5 -51.5t2.5 -56.5l2 -43l3 -87q53 -2 115.5 -24.5t117.5 -58.5q40 8 78.5 17.5t76.5 20.5l14 66l7 33q11 52 21.5 100t21.5 85t24 58.5t29 21.5q13 0 16 -17v-2zM542 174q-29 -8 -57.5 -15t-58.5 -13q29 -27 54 -59.5t43 -67.5q2 38 7 76.5t12 78.5zM236 158
q48 0 96 6q-35 18 -81 34t-89 20q1 -16 1 -28.5v-27.5q30 -3 46.5 -3.5t26.5 -0.5zM125 214q-14 -5 -29 -11t-23 -14q5 -7 19.5 -12.5t32.5 -8.5q1 11 0.5 21.5t-0.5 24.5zM71 186l2 3q-1 1 -1 2z" />
    <glyph glyph-name="hbar" unicode="&#x127;" horiz-adv-x="184" 
d="M-4 102q-5 0 -11 1.5t-6 12.5q0 8 7 12t16 8q1 0 2.5 1t3.5 2l4 2l4 2q1 46 4.5 89.5t11.5 85.5t22 83t35 82l14 22q15 24 30 32t27 9q25 0 41.5 -28t26.5 -63t14.5 -66t4.5 -37q-1 -42 -22 -77t-55 -69q-24 -22 -57.5 -45.5t-61.5 -35.5q0 -3 -0.5 -8t-0.5 -10
q0 -7 -0.5 -9.5t-0.5 -4.5v-5v-12q9 11 20 19.5t22 8.5q7 0 14.5 -5t14 -13t11.5 -17.5t9 -17.5l2 -4t3 -5q2 -4 4 -7l10 -8h-1q4 -2 7 -6t3 -10q0 -5 -4 -10t-11 -5q-6 0 -9 3q-8 6 -13 14.5t-10 16.5l-8 13q-7 11 -13 20.5t-10 9.5t-9.5 -6t-10.5 -14.5t-8.5 -18.5
t-3.5 -18v-11q0 -2 0.5 -3t0.5 -3v-4q0 -11 -3.5 -20t-16.5 -9q-8 0 -12.5 10.5t-7.5 26.5t-4 35.5t-1 37.5q0 11 -0.5 19t0.5 16q-4 -2 -7.5 -4t-6.5 -4zM102 425q-24 -61 -35 -131.5t-15 -132.5q25 13 53 31.5t52 42t39.5 51t16.5 59.5q0 21 -6 45t-13 45v-1l-3 11l-3 10
q-5 15 -11 31t-16 24q-20 -8 -30.5 -27t-18.5 -37q-8 -13 -10 -21zM96.001 223.028q1.99902 0 1.99902 -2q4 -4 4 -9.99902q0 -14.999 -18.999 -14.999q-8.99902 3 -14.999 3q-14.999 0 -29.998 -3q-10.999 -2 -23.498 -3q-12.5 -1 -26.499 -1h-8.99902q-5 3 -7.5 5.5
q-2.5 2.49902 -2.5 9.49902q0 2 7.5 6.5q7.5 4.49902 19.499 8.99902t26.498 7.5q14.499 2.99902 28.498 2.99902q11 0 22.499 -1.49902q11.499 -1.5 22.499 -8.5z" />
    <glyph glyph-name="Itilde" unicode="&#x128;" horiz-adv-x="109" 
d="M6 549q-3 -3 -5 -4t-7 -1q-4 0 -8.5 3.5t-4.5 9.5q0 3 2 7q2 2 2 4q0 1 0.5 3t0.5 3q11 26 21 44.5t26 18.5q8 0 14 -5l12 -10q7 -9 10 -9q2 2 4 5q2 2 4 5t4 7v-1q0 2 1.5 3t2.5 2q0 1 1 2t1 2q8 11 13.5 17.5t11.5 6.5h4t4 -2q1 -1 2 -3q2 -4 2 -7q0 -8 -7.5 -20.5
t-17.5 -25t-20.5 -21.5t-16.5 -9q-9 0 -14 3t-9 8l-3 6q-1 2 -2 3q-8 -8 -12.5 -15.5t-8.5 -13.5l-6 -10zM-59 476q-1 1 -1 4q-2 4 -2 7q0 5 4 10.5t12 5.5q4 0 7.5 -1.5t6.5 -3.5q4 -2 9 -2q15 0 33 8.5t35 20.5t31 25.5t21 23.5h10q11 0 13 -6t2 -18q-4 -6 -7 -18.5
t-5 -27.5t-4 -32t-4 -32q0 -2 -0.5 -5.5t-0.5 -5.5l-4 -36q-2 -17 -5 -33t-6 -33l-7 -37q-12 -61 -21.5 -123.5t-9.5 -122.5q0 -14 1 -34t5 -40q2 2 7 2q8 0 11 -5.5t3 -10.5q0 -1 -0.5 -2t-0.5 -3v-4q0 -4 1 -9t3 -10l-1 1q2 -5 5 -11t3 -13q-2 -8 -4.5 -11t-11.5 -3
q-12 0 -22.5 16t-18 39t-12 49.5t-4.5 47.5q0 62 9 123t20 124q2 13 4 25.5t4 26.5l9 57v5t1 5v-1l3 19q2 20 4 38.5t6 38.5q-23 -17 -48 -27.5t-47 -10.5q-11 0 -20 2t-16 8z" />
    <glyph glyph-name="itilde" unicode="&#x129;" horiz-adv-x="63" 
d="M15 88q-6 15 -6 20q0 15 16 15q7 0 12 -5.5t8 -14t4.5 -17.5t1.5 -15q0 -15 -2.5 -32t-6.5 -31.5t-9 -24t-9 -9.5q-12 0 -14 8.5t-2 17.5q0 22 2 44t5 44zM-10.4492 147.771q-8.85742 0 -8.85742 19.3486q6.95898 16.293 17.7139 31.5674t18.9785 15.2744
q8.22461 0 13.6016 -9.16504q5.37793 -9.16504 10.4385 -18.3291l0.632812 -2.03711q2.53027 -6.10938 5.69336 -12.2197q3.16406 -6.10938 5.06152 -6.10938q3.16309 0 6.32617 3.05469t5.69336 7.12793q3.7959 5.0918 6.95898 7.6377t5.06152 4.58203
q5.69336 0 9.48926 -3.05469t3.7959 -11.2012q0 -4.07324 -5.06152 -11.2021q-5.06055 -7.12793 -11.7031 -14.2559t-14.2344 -12.2197t-12.0195 -5.0918q-10.1221 0 -14.8672 8.65625q-4.74512 8.65527 -7.9082 19.8564l-0.631836 1.01855q-1.89844 5.0918 -3.47949 7.6377
q-1.58203 2.54492 -3.47949 5.60059q-5.06152 -2.03711 -9.49023 -7.6377q-4.42773 -5.60059 -8.85645 -11.7109l-3.16309 -5.09082z" />
    <glyph glyph-name="Imacron" unicode="&#x12a;" horiz-adv-x="109" 
d="M-59 466q-1 1 -1 4q-2 4 -2 7q0 5 4 10.5t12 5.5q4 0 7.5 -1.5t6.5 -3.5q4 -2 9 -2q15 0 33 8.5t35 20.5t31 25.5t21 23.5h10q11 0 13 -6t2 -18q-4 -6 -7 -18.5t-5 -27.5t-4 -32t-4 -32q0 -2 -0.5 -5.5t-0.5 -5.5l-4 -36q-2 -17 -5 -33t-6 -33l-7 -37
q-12 -61 -21.5 -123.5t-9.5 -122.5q0 -14 1 -34t5 -40q2 2 7 2q8 0 11 -5.5t3 -10.5q0 -1 -0.5 -2t-0.5 -3v-4q0 -4 1 -9t3 -10l-1 1q2 -5 5 -11t3 -13q-2 -8 -4.5 -11t-11.5 -3q-12 0 -22.5 16t-18 39t-12 49.5t-4.5 47.5q0 62 9 123t20 124q2 13 4 25.5t4 26.5l9 57v5t1 5
v-1l3 19q2 20 4 38.5t6 38.5q-23 -17 -48 -27.5t-47 -10.5q-11 0 -20 2t-16 8zM-8 582q-2 0 -2 2q-4 4 -4 10q0 15 19 15q9 -3 15 -3q15 0 30 3q11 2 23.5 3t26.5 1h9q5 -3 7.5 -5.5t2.5 -9.5q0 -2 -7.5 -6.5t-19.5 -9t-26.5 -7.5t-28.5 -3q-11 0 -22.5 1.5t-22.5 8.5z" />
    <glyph glyph-name="imacron" unicode="&#x12b;" horiz-adv-x="63" 
d="M15 88q-6 15 -6 20q0 15 16 15q7 0 12 -5.5t8 -14t4.5 -17.5t1.5 -15q0 -15 -2.5 -32t-6.5 -31.5t-9 -24t-9 -9.5q-12 0 -14 8.5t-2 17.5q0 22 2 44t5 44zM-31 156q-2 0 -2 2q-4 4 -4 10q0 15 19 15q9 -3 15 -3q15 0 30 3q11 2 23.5 3t26.5 1h9q5 -3 7.5 -5.5t2.5 -9.5
q0 -2 -7.5 -6.5t-19.5 -9t-26.5 -7.5t-28.5 -3q-11 0 -22.5 1.5t-22.5 8.5z" />
    <glyph glyph-name="Ibreve" unicode="&#x12c;" horiz-adv-x="109" 
d="M-59 466q-1 1 -1 4q-2 4 -2 7q0 5 4 10.5t12 5.5q4 0 7.5 -1.5t6.5 -3.5q4 -2 9 -2q15 0 33 8.5t35 20.5t31 25.5t21 23.5h10q11 0 13 -6t2 -18q-4 -6 -7 -18.5t-5 -27.5t-4 -32t-4 -32q0 -2 -0.5 -5.5t-0.5 -5.5l-4 -36q-2 -17 -5 -33t-6 -33l-7 -37
q-12 -61 -21.5 -123.5t-9.5 -122.5q0 -14 1 -34t5 -40q2 2 7 2q8 0 11 -5.5t3 -10.5q0 -1 -0.5 -2t-0.5 -3v-4q0 -4 1 -9t3 -10l-1 1q2 -5 5 -11t3 -13q-2 -8 -4.5 -11t-11.5 -3q-12 0 -22.5 16t-18 39t-12 49.5t-4.5 47.5q0 62 9 123t20 124q2 13 4 25.5t4 26.5l9 57v5t1 5
v-1l3 19q2 20 4 38.5t6 38.5q-23 -17 -48 -27.5t-47 -10.5q-11 0 -20 2t-16 8zM-19 638q0 16 14 16q10 0 14 -10q0 -21 12 -33t26 -12q11 0 22.5 8.5t16.5 22.5q-1 3 -1 5q0 6 3.5 7.5t8.5 6.5q14 0 16 -7t2 -19t-7 -23.5t-18 -20t-24 -13.5t-25 -5q-17 0 -28 7t-18 18.5
t-10 25t-4 26.5z" />
    <glyph glyph-name="ibreve" unicode="&#x12d;" horiz-adv-x="63" 
d="M15 88q-6 15 -6 20q0 15 16 15q7 0 12 -5.5t8 -14t4.5 -17.5t1.5 -15q0 -15 -2.5 -32t-6.5 -31.5t-9 -24t-9 -9.5q-12 0 -14 8.5t-2 17.5q0 22 2 44t5 44zM-31 224q0 16 14 16q10 0 14 -10q0 -21 12 -33t26 -12q11 0 22.5 8.5t16.5 22.5q-1 3 -1 5q0 6 3.5 7.5t8.5 6.5
q14 0 16 -7t2 -19t-7 -23.5t-18 -20t-24 -13.5t-25 -5q-17 0 -28 7t-18 18.5t-10 25t-4 26.5z" />
    <glyph glyph-name="Iogonek" unicode="&#x12e;" horiz-adv-x="109" 
d="M-59 466q-1 1 -1 4q-2 4 -2 7q0 5 4 10.5t12 5.5q4 0 7.5 -1.5t6.5 -3.5q4 -2 9 -2q15 0 33 8.5t35 20.5t31 25.5t21 23.5h10q11 0 13 -6t2 -18q-4 -6 -7 -18.5t-5 -27.5t-4 -32t-4 -32q0 -2 -0.5 -5.5t-0.5 -5.5l-4 -36q-2 -17 -5 -33t-6 -33l-7 -37
q-12 -61 -21.5 -123.5t-9.5 -122.5q0 -14 1 -34t5 -40q2 2 7 2q8 0 11 -5.5t3 -10.5q0 -1 -0.5 -2t-0.5 -3v-4q0 -4 1 -9t3 -10l-1 1q2 -5 5 -11t3 -13q-2 -8 -4.5 -11t-11.5 -3q-12 0 -22.5 16t-18 39t-12 49.5t-4.5 47.5q0 62 9 123t20 124q2 13 4 25.5t4 26.5l9 57v5t1 5
v-1l3 19q2 20 4 38.5t6 38.5q-23 -17 -48 -27.5t-47 -10.5q-11 0 -20 2t-16 8zM44 -104q1 3 4 6.5t10 3.5q5 0 8 -4.5t5 -9.5q0 -11 -4 -22t-4 -24q0 -10 11 -13t28 -3q3 0 8.5 0.5t10.5 1.5h-1q2 1 6 1h6q8 0 12 -5t4 -10t-6.5 -9.5t-16 -7.5t-21 -4.5t-20.5 -1.5
q-10 0 -20.5 2t-19.5 7.5t-14.5 14t-5.5 21.5q0 10 3.5 19t6.5 16l2 4l4 8l3.5 7t0.5 2z" />
    <glyph glyph-name="iogonek" unicode="&#x12f;" horiz-adv-x="63" 
d="M15 88q-6 15 -6 20q0 15 16 15q7 0 12 -5.5t8 -14t4.5 -17.5t1.5 -15q0 -15 -2.5 -32t-6.5 -31.5t-9 -24t-9 -9.5q-12 0 -14 8.5t-2 17.5q0 22 2 44t5 44zM49 158q0 -7 -6.5 -13.5t-14 -8.5t-14 2t-6.5 18q0 7 5.5 14t15.5 7q4 0 12 -6.5t8 -12.5zM10 -7q1 3 4 6.5
t10 3.5q5 0 8 -4.5t5 -9.5q0 -11 -4 -22t-4 -24q0 -10 11 -13t28 -3q3 0 8.5 0.5t10.5 1.5h-1q2 1 6 1h6q8 0 12 -5t4 -10t-6.5 -9.5t-16 -7.5t-21 -4.5t-20.5 -1.5q-10 0 -20.5 2t-19.5 7.5t-14.5 14t-5.5 21.5q0 10 3.5 19t6.5 16l2 4l4 8l3.5 7t0.5 2z" />
    <glyph glyph-name="Idotaccent" unicode="&#x130;" horiz-adv-x="109" 
d="M-59 466q-1 1 -1 4q-2 4 -2 7q0 5 4 10.5t12 5.5q4 0 7.5 -1.5t6.5 -3.5q4 -2 9 -2q15 0 33 8.5t35 20.5t31 25.5t21 23.5h10q11 0 13 -6t2 -18q-4 -6 -7 -18.5t-5 -27.5t-4 -32t-4 -32q0 -2 -0.5 -5.5t-0.5 -5.5l-4 -36q-2 -17 -5 -33t-6 -33l-7 -37
q-12 -61 -21.5 -123.5t-9.5 -122.5q0 -14 1 -34t5 -40q2 2 7 2q8 0 11 -5.5t3 -10.5q0 -1 -0.5 -2t-0.5 -3v-4q0 -4 1 -9t3 -10l-1 1q2 -5 5 -11t3 -13q-2 -8 -4.5 -11t-11.5 -3q-12 0 -22.5 16t-18 39t-12 49.5t-4.5 47.5q0 62 9 123t20 124q2 13 4 25.5t4 26.5l9 57v5t1 5
v-1l3 19q2 20 4 38.5t6 38.5q-23 -17 -48 -27.5t-47 -10.5q-11 0 -20 2t-16 8zM64 609q11 -2 11 -19q0 -9 -4 -14.5t-16 -5.5q-11 0 -17 6.5t-6 15.5q0 18 21 18h6.5t5.5 -1h-1z" />
    <glyph glyph-name="dotlessi" unicode="&#x131;" horiz-adv-x="63" 
d="M15 88q-6 15 -6 20q0 15 16 15q7 0 12 -5.5t8 -14t4.5 -17.5t1.5 -15q0 -15 -2.5 -32t-6.5 -31.5t-9 -24t-9 -9.5q-12 0 -14 8.5t-2 17.5q0 22 2 44t5 44z" />
    <glyph glyph-name="Jcircumflex" unicode="&#x134;" horiz-adv-x="611" 
d="M287 532q-10 4 -10 15q0 5 3 10t14 5q24 -4 54.5 -31.5t60 -63t53.5 -69.5t35 -50q18 -27 36.5 -61.5t33 -73t23.5 -78.5t9 -76q0 -69 -25 -119t-64 -83t-86 -49t-92 -16q-60 0 -125 24t-117 66q-15 12 -31 27.5t-29.5 34.5t-22 40.5t-8.5 46.5q0 30 15 51.5t41 35.5
t59.5 22.5t71 12.5t76 5.5t73.5 2.5l59 2q5 -3 9 -5.5t4 -7.5q0 -6 -5.5 -10t-10.5 -5l-49 -3q-47 -2 -101 -6t-100 -14t-76 -28.5t-30 -51.5q0 -40 29 -77t72.5 -65t94.5 -44.5t95 -16.5q56 0 101 21q74 37 103 91.5t29 119.5q0 43 -12.5 89.5t-33 92t-46 88t-50.5 77.5
q-9 11 -25 30t-34 38.5t-36.5 35t-32.5 20.5h-2zM294 697q5 2 5.5 2h2.5q8 0 16.5 -10.5t15 -24t11 -26t4.5 -16.5q0 -5 -5 -8.5t-9 -3.5q-6 0 -13.5 11t-10.5 16l-10 16l-9 -11q-12 -17 -28 -32t-30 -15q-9 0 -13.5 6.5t-4.5 12.5q0 3 0.5 6.5t2.5 6.5l22 18l9 9t6 7
q7 9 15.5 17.5t22.5 18.5z" />
    <glyph glyph-name="jcircumflex" unicode="&#x135;" horiz-adv-x="120" 
d="M43 148q7 0 11 -5.5t4 -10.5q0 -2 -1 -3.5t-2 -3.5q4 -14 9.5 -24.5t11.5 -20.5l6 -10v1q8 -13 13.5 -23.5t7.5 -14.5q17 -42 27 -88.5t10 -94.5q0 -11 -2 -30t-8 -41t-16 -43t-26 -35q-31 -27 -60.5 -42t-61.5 -15q-48 0 -99 32q-21 16 -32.5 49t-11.5 69q0 38 10.5 75
t28.5 55t29.5 28.5t22.5 17.5t26 13t41 16q11 0 16 -6t5 -8q0 -4 -3 -8t-7 -6q-3 -1 -7 -3t-8 -3.5t-5.5 -2.5t0.5 0h-1l-7 -3q-23 -10 -41 -22t-37 -36q-12 -20 -19.5 -47.5t-7.5 -53.5q0 -24 6.5 -45.5t19 -38.5t31.5 -27t43 -10q38 0 65.5 17t45.5 43.5t26.5 60t8.5 66.5
q0 42 -9 81t-23 74l-18 37l-1 1q-10 18 -19.5 36.5t-11.5 34.5q0 9 1.5 13.5t12.5 4.5h6v0zM26 257q5 2 5.5 2h2.5q8 0 16.5 -10.5t15 -24t11 -26t4.5 -16.5q0 -5 -5 -8.5t-9 -3.5q-6 0 -13.5 11t-10.5 16l-10 16l-9 -11q-12 -17 -28 -32t-30 -15q-9 0 -13.5 6.5t-4.5 12.5
q0 3 0.5 6.5t2.5 6.5l22 18l9 9t6 7q7 9 15.5 17.5t22.5 18.5z" />
    <glyph glyph-name="Kcommaaccent" unicode="&#x136;" horiz-adv-x="518" 
d="M60 472v12v10t-1 11v5q-1 5 -1.5 11.5t-0.5 13.5q0 1 2 5q1 5 3 8.5t10 3.5q7 0 12 -19t7.5 -46t3.5 -57t1 -53v-30l4 -89h16q29 0 54.5 -1.5t51.5 -7.5q38 26 73.5 58.5t62.5 64.5q6 9 15.5 24t18 33t14.5 37.5t6 36.5q0 10 -3.5 17.5t-8.5 15.5q-11 0 -11 18v4t2 4t5 4
t9 2q9 0 15 -10.5t10 -24.5t6 -27t2 -17q0 -36 -18 -72.5t-44.5 -70.5t-56.5 -62.5t-55 -47.5q32 -9 65 -22t62 -31t53 -40.5t38 -48.5q31 -65 31 -125q0 -82 -58 -153q-2 -2 -12.5 3t-10.5 13l-1 2v1q0 11 5 12.5t13 0.5q16 23 25 55.5t9 66.5q0 51 -23 91t-60 69.5
t-83.5 49t-93.5 30.5l-25 -18l-10 -7q-22 -14 -43 -27.5t-39 -22.5l4 -40l4 -52q2 -34 5 -67.5t6 -66.5q0 -8 -5 -12.5t-10 -4.5q-8 0 -14 23t-11 55.5t-8.5 69t-5.5 63.5l-2 18q-4 -2 -6.5 -3t-5.5 -3q-32 -14 -64.5 -24.5t-69.5 -10.5q-32 0 -53 12.5t-21 49.5v10t1 8
q0 3 1 5v-1q3 18 17 32t33.5 24t43 17t46 11t41 5.5t29.5 2.5v5q0 5 -0.5 11.5t-0.5 13.5v134v52zM-80 115q17 0 37 4t40 10.5t38 14t32 14.5q0 2 -0.5 3.5t-0.5 4.5q-2 13 -2.5 24.5t-1.5 25.5h-5q-19 -1 -48 -4.5t-56 -11t-46.5 -20t-19.5 -33.5q0 -14 9 -23t24 -9z
M173 216q-19 1 -37.5 1.5t-33.5 0.5q0 -6 0.5 -13.5t1.5 -13.5q1 -4 1.5 -7t0.5 -8l7 4zM274 -111q-10 4 -10 15q0 5 3 9.5t11 4.5q20 0 28.5 -8t8.5 -20q0 -8 -5.5 -20.5t-12.5 -24.5t-13.5 -20.5t-7.5 -8.5q-15 0 -15 17q1 11 3.5 17.5t5.5 13.5t5.5 13t2.5 8q0 3 -4 4z
" />
    <glyph glyph-name="kcommaaccent" unicode="&#x137;" horiz-adv-x="248" 
d="M-66 145q0 6 5 12t11.5 8.5t13.5 1t10 -8.5q11 2 21.5 4t25.5 7q3 34 10.5 77.5t19 86t28 80t37.5 60.5q4 3 10 3q18 0 34.5 -19t30 -44.5t21.5 -51t8 -37.5q0 -37 -16 -65.5t-40.5 -50t-54 -37.5t-56.5 -28q-1 -8 -1.5 -15.5t-0.5 -15.5q0 -18 2 -32.5t7 -28.5
q10 16 24 29.5t29 23.5t28 15.5t21 5.5q11 0 15.5 -4.5t4.5 -16.5q0 -6 -2.5 -14t-9.5 -17q11 -6 28.5 -17.5t27.5 -19.5l4 -2l24 -13q5 -2 10 -6.5t5 -8.5q0 -14 -18 -14q-14 2 -24.5 9.5t-23.5 15.5t-29 16.5t-35 8.5q-8 0 -13 3t-5 12q0 7 4 12.5t10 11.5l-1 -3
q0 1 1 1.5t1 1.5v1q-13 -8 -26 -22t-22 -28q-1 -1 -1.5 -4t-1.5 -5q0 -1 -0.5 -1t-0.5 -1v-1q-4 -12 -8.5 -21.5t-15.5 -9.5q-16 0 -24.5 17.5t-12.5 40t-5 44.5t-1 31l2 11q-13 -2 -28 -3.5t-26 -1.5q-31 0 -31 17zM93 335q0 -1 -0.5 -1t-0.5 -1l-1 -5q-10 -35 -19.5 -72.5
t-15.5 -75.5q24 9 46 23t39.5 31t28 38t10.5 44q0 12 -4 30.5t-10.5 37.5t-15 33.5t-17.5 19.5q-11 -15 -19.5 -38t-14.5 -44zM118 -15q-10 4 -10 15q0 5 3 9.5t11 4.5q20 0 28.5 -8t8.5 -20q0 -8 -5.5 -20.5t-12.5 -24.5t-13.5 -20.5t-7.5 -8.5q-15 0 -15 17q1 11 3.5 17.5
t5.5 13.5t5.5 13t2.5 8q0 3 -4 4z" />
    <glyph glyph-name="kgreenlandic" unicode="&#x138;" horiz-adv-x="248" 
d="M48 26v-1q0 4 4 6l2 9v-1q0 1 0.5 1.5t0.5 1.5q9 18 24 33t31 26.5t30 17.5t22 6q11 0 16 -4.5t5 -16.5q0 -6 -2.5 -14t-10.5 -17q10 -5 26 -15t25 -17l3 -2l7 -5l23 -13q5 -2 10 -6.5t5 -8.5q0 -14 -18 -14q-14 2 -24.5 9.5t-23.5 15.5t-29 16.5t-35 8.5q-8 0 -12.5 3
t-4.5 12q0 7 4.5 13t9.5 13q-13 -8 -25.5 -22.5t-22.5 -28.5l1 1q-1 -1 -1 -3q-1 -2 -1 -5q-1 -1 -1 -2v-2q-3 -12 -8 -22t-18 -10q-5 0 -8 0.5t-6 3.5q-2 2 -2 5v5zM61 21h1q-2 -2 -5 -6.5t-5.5 -8.5t-4.5 -5.5t-3 1.5q-1 6 -1 15v19v18.5v12.5v17l1 10q-28 -5 -53 -5
q-14 0 -22 4t-8 12q0 7 4 12t10 7t12.5 1t10.5 -7q11 2 24 4.5t25 6.5q8 69 28.5 128.5t65.5 100.5q17 14 33 14q24 0 40 -26.5t16 -62.5q0 -30 -13.5 -56.5t-35 -49.5t-48 -41.5t-51.5 -31.5q-2 -1 -3 -2t1 -1q-1 -10 -1.5 -19.5t1.5 -19.5v-19q0 -4 -4 -8zM104 245
q-6 -18 -9.5 -30.5t-5.5 -23.5t-3.5 -22.5t-2.5 -27.5q23 11 43.5 28.5t35.5 37t24 40t9 38.5q0 19 -7.5 33t-15.5 14l-8 -4.5t-19 -14.5t-22.5 -26.5t-18.5 -41.5z" />
    <glyph glyph-name="Lacute" unicode="&#x139;" horiz-adv-x="570" 
d="M307 543q-6 0 -10 5t-4 10q0 9 15 11.5t36 4.5q15 2 31.5 4t26.5 5q17 5 23 7.5t11 4.5l7 4q11 6 22.5 11t20.5 6q10 0 13 -4.5t3 -9.5q0 -11 -6 -19l-1 -2q-3 -5 -6 -12.5t-3 -24.5q0 -24 8 -58.5t16 -62.5q4 -12 7 -22.5t5 -21.5q8 -35 13 -74t5 -76q0 -41 -6.5 -79.5
t-29.5 -76.5l21 -19q22 -21 50 -45t54 -41q51 -30 108 -45t111 -15q38 0 76.5 5.5t76.5 13.5q5 0 12.5 -3t7.5 -11q0 -5 -11.5 -10t-29 -9t-39 -7t-41 -5t-35 -3t-21.5 -1q-54 0 -112 14.5t-119 46.5q-39 22 -69 46t-55 47l-6 6q-25 -36 -58 -65.5t-69.5 -50.5t-76 -32.5
t-77.5 -11.5q-34 0 -69.5 8.5t-64 24.5t-47 39t-18.5 52q0 28 20 60.5t55.5 60.5t84 46.5t106.5 18.5q22 0 33 -4h-1l14 -4l11 -3h-1q23 -6 40.5 -11.5t34 -13.5t34.5 -20t41 -33q17 35 23.5 68.5t6.5 72.5q0 62 -17 132l-7 24l-7 27q-6 29 -13 59.5t-7 59.5v5v13.5t2 12.5
l-4 -2v1l-7 -4q-7 -4 -16.5 -9t-16.5 -7q-23 -7 -46.5 -8t-49.5 -1h-9zM193 -85q36 0 73.5 11t71.5 30.5t63 45t50 55.5l1 3l6 6h1q-19 16 -39.5 31t-43.5 27t-50 19t-58 7q-35 0 -74.5 -11t-73.5 -30.5t-56 -45.5t-22 -57v-7v1q28 -45 68 -65t83 -20zM475 728q0 -1 -2 -5
q-2 -8 -18 -21.5t-35.5 -27t-36 -23t-19.5 -9.5q-8 0 -10.5 3.5t-2.5 8.5v4.5t2 4.5q10 14 25.5 25.5t31.5 22.5q10 6 20 13t18 14q8 4 9.5 4.5t2.5 0.5q5 0 10 -4t5 -11z" />
    <glyph glyph-name="lacute" unicode="&#x13a;" horiz-adv-x="115" 
d="M6 46q-15 0 -15 15q0 9 5.5 12t10.5 5q3 1 5.5 2t6.5 2v2q-8 42 -10.5 87.5t-2.5 80.5v40q0 14 1.5 38t4.5 49.5t8 48.5t14 36q7 11 16.5 20t17.5 9q8 -1 22 -11.5t20 -19.5q9 -12 16.5 -28.5t12 -34t7 -35t2.5 -32.5q0 -33 -8 -66t-21 -65t-30 -63t-34 -61
q5 -28 17.5 -61t47.5 -71q5 -6 1 -14t-12 -8q-5 0 -12.5 7t-16 16t-15 18t-9.5 14q-10 17 -17 35t-15 41q-4 -2 -7.5 -3.5t-7.5 -3.5zM43 277q-1 -9 -1 -21v-24q0 -26 1 -55t5 -56q23 48 43 104.5t20 110.5q0 32 -9 59.5t-32 51.5q-19 -33 -22.5 -77t-4.5 -83v-10zM131 561
q0 -1 -2 -5q-2 -8 -18 -21.5t-35.5 -27t-36 -23t-19.5 -9.5q-8 0 -10.5 3.5t-2.5 8.5v4.5t2 4.5q10 14 25.5 25.5t31.5 22.5q10 6 20 13t18 14q8 4 9.5 4.5t2.5 0.5q5 0 10 -4t5 -11z" />
    <glyph glyph-name="Lcommaaccent" unicode="&#x13b;" horiz-adv-x="570" 
d="M307 543q-6 0 -10 5t-4 10q0 9 15 11.5t36 4.5q15 2 31.5 4t26.5 5q17 5 23 7.5t11 4.5l7 4q11 6 22.5 11t20.5 6q10 0 13 -4.5t3 -9.5q0 -11 -6 -19l-1 -2q-3 -5 -6 -12.5t-3 -24.5q0 -24 8 -58.5t16 -62.5q4 -12 7 -22.5t5 -21.5q8 -35 13 -74t5 -76q0 -41 -6.5 -79.5
t-29.5 -76.5l21 -19q22 -21 50 -45t54 -41q51 -30 108 -45t111 -15q38 0 76.5 5.5t76.5 13.5q5 0 12.5 -3t7.5 -11q0 -5 -11.5 -10t-29 -9t-39 -7t-41 -5t-35 -3t-21.5 -1q-54 0 -112 14.5t-119 46.5q-39 22 -69 46t-55 47l-6 6q-25 -36 -58 -65.5t-69.5 -50.5t-76 -32.5
t-77.5 -11.5q-34 0 -69.5 8.5t-64 24.5t-47 39t-18.5 52q0 28 20 60.5t55.5 60.5t84 46.5t106.5 18.5q22 0 33 -4h-1l14 -4l11 -3h-1q23 -6 40.5 -11.5t34 -13.5t34.5 -20t41 -33q17 35 23.5 68.5t6.5 72.5q0 62 -17 132l-7 24l-7 27q-6 29 -13 59.5t-7 59.5v5v13.5t2 12.5
l-4 -2v1l-7 -4q-7 -4 -16.5 -9t-16.5 -7q-23 -7 -46.5 -8t-49.5 -1h-9zM193 -85q36 0 73.5 11t71.5 30.5t63 45t50 55.5l1 3l6 6h1q-19 16 -39.5 31t-43.5 27t-50 19t-58 7q-35 0 -74.5 -11t-73.5 -30.5t-56 -45.5t-22 -57v-7v1q28 -45 68 -65t83 -20zM442 -122
q-10 4 -10 15q0 5 3 9.5t11 4.5q20 0 28.5 -8t8.5 -20q0 -8 -5.5 -20.5t-12.5 -24.5t-13.5 -20.5t-7.5 -8.5q-15 0 -15 17q1 11 3.5 17.5t5.5 13.5t5.5 13t2.5 8q0 3 -4 4z" />
    <glyph glyph-name="lcommaaccent" unicode="&#x13c;" horiz-adv-x="115" 
d="M6 46q-15 0 -15 15q0 9 5.5 12t10.5 5q3 1 5.5 2t6.5 2v2q-8 42 -10.5 87.5t-2.5 80.5v40q0 14 1.5 38t4.5 49.5t8 48.5t14 36q7 11 16.5 20t17.5 9q8 -1 22 -11.5t20 -19.5q9 -12 16.5 -28.5t12 -34t7 -35t2.5 -32.5q0 -33 -8 -66t-21 -65t-30 -63t-34 -61
q5 -28 17.5 -61t47.5 -71q5 -6 1 -14t-12 -8q-5 0 -12.5 7t-16 16t-15 18t-9.5 14q-10 17 -17 35t-15 41q-4 -2 -7.5 -3.5t-7.5 -3.5zM43 277q-1 -9 -1 -21v-24q0 -26 1 -55t5 -56q23 48 43 104.5t20 110.5q0 32 -9 59.5t-32 51.5q-19 -33 -22.5 -77t-4.5 -83v-10zM36 -80
q-10 4 -10 15q0 5 3 9.5t11 4.5q20 0 28.5 -8t8.5 -20q0 -8 -5.5 -20.5t-12.5 -24.5t-13.5 -20.5t-7.5 -8.5q-15 0 -15 17q1 11 3.5 17.5t5.5 13.5t5.5 13t2.5 8q0 3 -4 4z" />
    <glyph glyph-name="Lcaron" unicode="&#x13d;" horiz-adv-x="570" 
d="M307 543q-6 0 -10 5t-4 10q0 9 15 11.5t36 4.5q15 2 31.5 4t26.5 5q17 5 23 7.5t11 4.5l7 4q11 6 22.5 11t20.5 6q10 0 13 -4.5t3 -9.5q0 -11 -6 -19l-1 -2q-3 -5 -6 -12.5t-3 -24.5q0 -24 8 -58.5t16 -62.5q4 -12 7 -22.5t5 -21.5q8 -35 13 -74t5 -76q0 -41 -6.5 -79.5
t-29.5 -76.5l21 -19q22 -21 50 -45t54 -41q51 -30 108 -45t111 -15q38 0 76.5 5.5t76.5 13.5q5 0 12.5 -3t7.5 -11q0 -5 -11.5 -10t-29 -9t-39 -7t-41 -5t-35 -3t-21.5 -1q-54 0 -112 14.5t-119 46.5q-39 22 -69 46t-55 47l-6 6q-25 -36 -58 -65.5t-69.5 -50.5t-76 -32.5
t-77.5 -11.5q-34 0 -69.5 8.5t-64 24.5t-47 39t-18.5 52q0 28 20 60.5t55.5 60.5t84 46.5t106.5 18.5q22 0 33 -4h-1l14 -4l11 -3h-1q23 -6 40.5 -11.5t34 -13.5t34.5 -20t41 -33q17 35 23.5 68.5t6.5 72.5q0 62 -17 132l-7 24l-7 27q-6 29 -13 59.5t-7 59.5v5v13.5t2 12.5
l-4 -2v1l-7 -4q-7 -4 -16.5 -9t-16.5 -7q-23 -7 -46.5 -8t-49.5 -1h-9zM193 -85q36 0 73.5 11t71.5 30.5t63 45t50 55.5l1 3l6 6h1q-19 16 -39.5 31t-43.5 27t-50 19t-58 7q-35 0 -74.5 -11t-73.5 -30.5t-56 -45.5t-22 -57v-7v1q28 -45 68 -65t83 -20zM334 707q0 6 3.5 10
t8.5 4t9 -5l8 -10q7 -11 15.5 -23.5t16.5 -12.5q9 0 23 11t28 23l7 6q9 7 17.5 13t13.5 6q12 0 13.5 -5.5t-2.5 -13t-10 -14.5t-9 -11q-16 -19 -34.5 -35.5t-38.5 -16.5q-30 0 -49 22t-20 52z" />
    <glyph glyph-name="lcaron" unicode="&#x13e;" horiz-adv-x="115" 
d="M6 46q-15 0 -15 15q0 9 5.5 12t10.5 5q3 1 5.5 2t6.5 2v2q-8 42 -10.5 87.5t-2.5 80.5v40q0 14 1.5 38t4.5 49.5t8 48.5t14 36q7 11 16.5 20t17.5 9q8 -1 22 -11.5t20 -19.5q9 -12 16.5 -28.5t12 -34t7 -35t2.5 -32.5q0 -33 -8 -66t-21 -65t-30 -63t-34 -61
q5 -28 17.5 -61t47.5 -71q5 -6 1 -14t-12 -8q-5 0 -12.5 7t-16 16t-15 18t-9.5 14q-10 17 -17 35t-15 41q-4 -2 -7.5 -3.5t-7.5 -3.5zM43 277q-1 -9 -1 -21v-24q0 -26 1 -55t5 -56q23 48 43 104.5t20 110.5q0 32 -9 59.5t-32 51.5q-19 -33 -22.5 -77t-4.5 -83v-10zM2 574
q0 6 3.5 10t8.5 4t9 -5l8 -10q7 -11 15.5 -23.5t16.5 -12.5q9 0 23 11t28 23l7 6q9 7 17.5 13t13.5 6q12 0 13.5 -5.5t-2.5 -13t-10 -14.5t-9 -11q-16 -19 -34.5 -35.5t-38.5 -16.5q-30 0 -49 22t-20 52z" />
    <glyph glyph-name="Ldot" unicode="&#x13f;" horiz-adv-x="570" 
d="M307 543q-6 0 -10 5t-4 10q0 9 15 11.5t36 4.5q15 2 31.5 4t26.5 5q17 5 23 7.5t11 4.5l7 4q11 6 22.5 11t20.5 6q10 0 13 -4.5t3 -9.5q0 -11 -6 -19l-1 -2q-3 -5 -6 -12.5t-3 -24.5q0 -24 8 -58.5t16 -62.5q4 -12 7 -22.5t5 -21.5q8 -35 13 -74t5 -76q0 -41 -6.5 -79.5
t-29.5 -76.5l21 -19q22 -21 50 -45t54 -41q51 -30 108 -45t111 -15q38 0 76.5 5.5t76.5 13.5q5 0 12.5 -3t7.5 -11q0 -5 -11.5 -10t-29 -9t-39 -7t-41 -5t-35 -3t-21.5 -1q-54 0 -112 14.5t-119 46.5q-39 22 -69 46t-55 47l-6 6q-25 -36 -58 -65.5t-69.5 -50.5t-76 -32.5
t-77.5 -11.5q-34 0 -69.5 8.5t-64 24.5t-47 39t-18.5 52q0 28 20 60.5t55.5 60.5t84 46.5t106.5 18.5q22 0 33 -4h-1l14 -4l11 -3h-1q23 -6 40.5 -11.5t34 -13.5t34.5 -20t41 -33q17 35 23.5 68.5t6.5 72.5q0 62 -17 132l-7 24l-7 27q-6 29 -13 59.5t-7 59.5v5v13.5t2 12.5
l-4 -2v1l-7 -4q-7 -4 -16.5 -9t-16.5 -7q-23 -7 -46.5 -8t-49.5 -1h-9zM193 -85q36 0 73.5 11t71.5 30.5t63 45t50 55.5l1 3l6 6h1q-19 16 -39.5 31t-43.5 27t-50 19t-58 7q-35 0 -74.5 -11t-73.5 -30.5t-56 -45.5t-22 -57v-7v1q28 -45 68 -65t83 -20zM575 213q0 6 3 10.5
t13 8.5q3 3 11 3h10q8 0 11.5 -8t3.5 -12q0 -14 -7.5 -19.5t-15.5 -5.5q-10 0 -19.5 6.5t-9.5 16.5z" />
    <glyph glyph-name="ldot" unicode="&#x140;" horiz-adv-x="147" 
d="M6 46q-15 0 -15 15q0 9 5.5 12t10.5 5q3 1 5.5 2t6.5 2v2q-8 42 -10.5 87.5t-2.5 80.5v40q0 14 1.5 38t4.5 49.5t8 48.5t14 36q7 11 16.5 20t17.5 9q8 -1 22 -11.5t20 -19.5q9 -12 16.5 -28.5t12 -34t7 -35t2.5 -32.5q0 -33 -8 -66t-21 -65t-30 -63t-34 -61
q5 -28 17.5 -61t47.5 -71q5 -6 1 -14t-12 -8q-5 0 -12.5 7t-16 16t-15 18t-9.5 14q-10 17 -17 35t-15 41q-4 -2 -7.5 -3.5t-7.5 -3.5zM43 277q-1 -9 -1 -21v-24q0 -26 1 -55t5 -56q23 48 43 104.5t20 110.5q0 32 -9 59.5t-32 51.5q-19 -33 -22.5 -77t-4.5 -83v-10z
M98.8291 136.715q0 4.28516 2.13477 7.5q2.13574 3.21387 9.25293 6.07129q2.13477 2.14258 7.8291 2.14258h7.11719q5.69434 0 8.18457 -5.71387q2.49121 -5.71484 2.49121 -8.57227q0 -10 -5.33789 -13.9287q-5.33789 -3.92773 -11.0322 -3.92773
q-7.11719 0 -13.8779 4.64258q-6.76172 4.64258 -6.76172 11.7861z" />
    <glyph glyph-name="Lslash" unicode="&#x141;" horiz-adv-x="570" 
d="M428 203q-8 0 -12 4.5t-4 9.5q0 8 1 8.5t4 3.5q11 3 31 22t43 42l13 13v-1q22 23 45.5 44.5t38.5 31.5q7 0 13 -4t6 -11q0 -2 -1.5 -5t-3.5 -5l-18 -20q-15 -17 -36 -39.5t-43 -43t-42.5 -35t-34.5 -15.5zM315 553q-6 0 -10 5t-4 10q0 9 15 11.5t36 4.5q15 2 31.5 4
t26.5 5q17 5 23 7.5t11 4.5l7 4q11 6 22.5 11t20.5 6q10 0 13 -4.5t3 -9.5q0 -11 -6 -19l-1 -2q-3 -5 -6 -12.5t-3 -24.5q0 -24 8 -58.5t16 -62.5q4 -12 7 -22.5t5 -21.5q8 -35 13 -74t5 -76q0 -41 -6.5 -79.5t-29.5 -76.5l21 -19q22 -21 50 -45t54 -41q51 -30 108 -45
t111 -15q38 0 76.5 5.5t76.5 13.5q5 0 12.5 -3t7.5 -11q0 -6 -11.5 -10.5t-29 -8.5t-39 -7t-41 -5t-35 -3t-21.5 -1q-54 0 -112 14.5t-119 46.5q-39 22 -69 46t-55 47l-6 6q-25 -36 -58 -65.5t-69.5 -50.5t-76 -32.5t-77.5 -11.5q-34 0 -69.5 8.5t-64 24.5t-47 39t-18.5 52
q0 28 20 60.5t55.5 60.5t84 46.5t106.5 18.5q22 0 33 -4h-1l14 -4l11 -3h-1q23 -6 40.5 -11.5t34 -13.5t34.5 -20t41 -33q17 35 23.5 68.5t6.5 72.5q0 62 -17 132l-7 24l-7 27q-6 29 -13 59.5t-7 59.5v5v13.5t2 12.5l-4 -2v1l-7 -4q-7 -4 -16.5 -9t-16.5 -7q-23 -7 -46.5 -8
t-49.5 -1h-9zM201 -75q36 0 73.5 11t71.5 30.5t63 45t50 55.5l1 3l6 6h1q-19 16 -39.5 31t-43.5 27t-50 19t-58 7q-35 0 -74.5 -11t-73.5 -30.5t-56 -45.5t-22 -57v-7v1q28 -45 68 -65t83 -20z" />
    <glyph glyph-name="lslash" unicode="&#x142;" horiz-adv-x="115" 
d="M88 211q-3 -8 -19 -22t-35 -27t-35.5 -22.5t-18.5 -9.5q-14 0 -14 14q0 16 20.5 31t43.5 30q9 5 16 10t14 12q6 3 9 3.5t5 0.5q14 0 14 -16v-4zM8 56q-15 0 -15 15q0 9 5.5 12t10.5 5q3 1 5.5 2t6.5 2v2q-8 42 -10.5 87.5t-2.5 80.5v40q0 14 1.5 38t4.5 49.5t8 48.5
t14 36q7 11 16.5 20t17.5 9q8 -1 22 -11.5t20 -19.5q9 -12 16.5 -28.5t12 -34t7 -35t2.5 -32.5q0 -33 -8 -66t-21 -65t-30 -63t-34 -61q5 -28 17.5 -61t47.5 -71q5 -6 1 -14t-12 -8q-5 0 -12.5 7t-16 16t-15 18t-9.5 14q-10 17 -17 35t-15 41q-4 -2 -7.5 -3.5t-7.5 -3.5z
M45 287q-1 -9 -1 -21v-24q0 -26 1 -55t5 -56q23 48 43 104.5t20 110.5q0 32 -9 59.5t-32 51.5q-19 -33 -22.5 -77t-4.5 -83v-10z" />
    <glyph glyph-name="Nacute" unicode="&#x143;" horiz-adv-x="476" 
d="M-90 -90q-11 5 -11 16q0 8 6 11t14 3q10 0 20.5 6t20.5 15t19 20t17 21q14 22 31.5 57.5t35 75.5t34 82.5t30.5 79t24 64t14 39.5v11q0 5 -0.5 9t-0.5 7q-1 8 -1 20v20q0 13 1 27t4.5 25t9.5 18t15 7q8 0 13.5 -4t5.5 -25q0 -41 -3 -61.5t-7 -36.5l-3 -16q2 -43 6 -91.5
t11 -91.5q3 -18 7 -46t10.5 -56t17 -53t27.5 -37l6 -4q21 -16 46 -2q25 13 43 35t29.5 49t17 55.5t5.5 54.5q0 67 -26.5 135t-59.5 127q-1 2 -7 13.5t-13.5 25t-15 26t-10.5 16.5v-1q-3 1 -3 11q0 15 14 15q10 0 16 -10t8 -20l-1 1l3 -7v1l24 -39q20 -34 39 -68t33.5 -71
t23.5 -78.5t9 -89.5q0 -34 -7 -63.5t-23 -54.5q-10 -17 -22 -36.5t-27.5 -36t-35 -27.5t-43.5 -11t-41.5 14t-29.5 34.5t-19.5 44.5t-12.5 44l-12 55q-3 18 -5.5 32.5t-4.5 29.5t-4 32.5t-3 42.5q-23 -61 -51 -126.5t-58.5 -121.5t-60.5 -95t-56 -46q-3 -1 -7.5 -1h-9.5
q-2 0 -3 -0.5t-3 -0.5h-10v0zM313 664q0 -1 -2 -5q-2 -8 -18 -21.5t-35.5 -27t-36 -23t-19.5 -9.5q-8 0 -10.5 3.5t-2.5 8.5v4.5t2 4.5q10 14 25.5 25.5t31.5 22.5q10 6 20 13t18 14q8 4 9.5 4.5t2.5 0.5q5 0 10 -4t5 -11z" />
    <glyph glyph-name="nacute" unicode="&#x144;" horiz-adv-x="194" 
d="M19 65q-1 12 -2.5 23.5t-7.5 16.5q-6 3 -6 11q0 7 5 11t10 4q9 0 15.5 -8t11 -20t7.5 -25.5t5 -24.5l6 9q0 1 1 2.5t1 2.5q8 14 18.5 26.5t28.5 12.5q29 0 40.5 -18.5t18.5 -38.5q0 -1 0.5 -4.5t0.5 -6.5q1 -5 1 -7v-4q3 -1 6 -2.5t3 -5.5q0 -14 -12 -14q-13 0 -18.5 7.5
t-10.5 18.5q-3 3 -3 5q-5 11 -11 21.5t-12 10.5t-13 -8.5t-14 -20.5q-6 -10 -13.5 -20t-17.5 -18q-14 0 -21 4.5t-11 13t-5 19t-1 22.5v5v0zM164 188q0 -1 -2 -5q-2 -8 -18 -21.5t-35.5 -27t-36 -23t-19.5 -9.5q-8 0 -10.5 3.5t-2.5 8.5v4.5t2 4.5q10 14 25.5 25.5
t31.5 22.5q10 6 20 13t18 14q8 4 9.5 4.5t2.5 0.5q5 0 10 -4t5 -11z" />
    <glyph glyph-name="Ncommaaccent" unicode="&#x145;" horiz-adv-x="476" 
d="M-90 -90q-11 5 -11 16q0 8 6 11t14 3q10 0 20.5 6t20.5 15t19 20t17 21q14 22 31.5 57.5t35 75.5t34 82.5t30.5 79t24 64t14 39.5v11q0 5 -0.5 9t-0.5 7q-1 8 -1 20v20q0 13 1 27t4.5 25t9.5 18t15 7q8 0 13.5 -4t5.5 -25q0 -41 -3 -61.5t-7 -36.5l-3 -16q2 -43 6 -91.5
t11 -91.5q3 -18 7 -46t10.5 -56t17 -53t27.5 -37l6 -4q21 -16 46 -2q25 13 43 35t29.5 49t17 55.5t5.5 54.5q0 67 -26.5 135t-59.5 127q-1 2 -7 13.5t-13.5 25t-15 26t-10.5 16.5v-1q-3 1 -3 11q0 15 14 15q10 0 16 -10t8 -20l-1 1l3 -7v1l24 -39q20 -34 39 -68t33.5 -71
t23.5 -78.5t9 -89.5q0 -34 -7 -63.5t-23 -54.5q-10 -17 -22 -36.5t-27.5 -36t-35 -27.5t-43.5 -11t-41.5 14t-29.5 34.5t-19.5 44.5t-12.5 44l-12 55q-3 18 -5.5 32.5t-4.5 29.5t-4 32.5t-3 42.5q-23 -61 -51 -126.5t-58.5 -121.5t-60.5 -95t-56 -46q-3 -1 -7.5 -1h-9.5
q-2 0 -3 -0.5t-3 -0.5h-10v0zM298 -85q-10 4 -10 15q0 5 3 9.5t11 4.5q20 0 28.5 -8t8.5 -20q0 -8 -5.5 -20.5t-12.5 -24.5t-13.5 -20.5t-7.5 -8.5q-15 0 -15 17q1 11 3.5 17.5t5.5 13.5t5.5 13t2.5 8q0 3 -4 4z" />
    <glyph glyph-name="ncommaaccent" unicode="&#x146;" horiz-adv-x="194" 
d="M19 65q-1 12 -2.5 23.5t-7.5 16.5q-6 3 -6 11q0 7 5 11t10 4q9 0 15.5 -8t11 -20t7.5 -25.5t5 -24.5l6 9q0 1 1 2.5t1 2.5q8 14 18.5 26.5t28.5 12.5q29 0 40.5 -18.5t18.5 -38.5q0 -1 0.5 -4.5t0.5 -6.5q1 -5 1 -7v-4q3 -1 6 -2.5t3 -5.5q0 -14 -12 -14q-13 0 -18.5 7.5
t-10.5 18.5q-3 3 -3 5q-5 11 -11 21.5t-12 10.5t-13 -8.5t-14 -20.5q-6 -10 -13.5 -20t-17.5 -18q-14 0 -21 4.5t-11 13t-5 19t-1 22.5v5v0zM98 -14q-10 4 -10 15q0 5 3 9.5t11 4.5q20 0 28.5 -8t8.5 -20q0 -8 -5.5 -20.5t-12.5 -24.5t-13.5 -20.5t-7.5 -8.5q-15 0 -15 17
q1 11 3.5 17.5t5.5 13.5t5.5 13t2.5 8q0 3 -4 4z" />
    <glyph glyph-name="Ncaron" unicode="&#x147;" horiz-adv-x="476" 
d="M-90 -90q-11 5 -11 16q0 8 6 11t14 3q10 0 20.5 6t20.5 15t19 20t17 21q14 22 31.5 57.5t35 75.5t34 82.5t30.5 79t24 64t14 39.5v11q0 5 -0.5 9t-0.5 7q-1 8 -1 20v20q0 13 1 27t4.5 25t9.5 18t15 7q8 0 13.5 -4t5.5 -25q0 -41 -3 -61.5t-7 -36.5l-3 -16q2 -43 6 -91.5
t11 -91.5q3 -18 7 -46t10.5 -56t17 -53t27.5 -37l6 -4q21 -16 46 -2q25 13 43 35t29.5 49t17 55.5t5.5 54.5q0 67 -26.5 135t-59.5 127q-1 2 -7 13.5t-13.5 25t-15 26t-10.5 16.5v-1q-3 1 -3 11q0 15 14 15q10 0 16 -10t8 -20l-1 1l3 -7v1l24 -39q20 -34 39 -68t33.5 -71
t23.5 -78.5t9 -89.5q0 -34 -7 -63.5t-23 -54.5q-10 -17 -22 -36.5t-27.5 -36t-35 -27.5t-43.5 -11t-41.5 14t-29.5 34.5t-19.5 44.5t-12.5 44l-12 55q-3 18 -5.5 32.5t-4.5 29.5t-4 32.5t-3 42.5q-23 -61 -51 -126.5t-58.5 -121.5t-60.5 -95t-56 -46q-3 -1 -7.5 -1h-9.5
q-2 0 -3 -0.5t-3 -0.5h-10v0zM166 657q0 6 3.5 10t8.5 4t9 -5l8 -10q7 -11 15.5 -23.5t16.5 -12.5q9 0 23 11t28 23l7 6q9 7 17.5 13t13.5 6q12 0 13.5 -5.5t-2.5 -13t-10 -14.5t-9 -11q-16 -19 -34.5 -35.5t-38.5 -16.5q-30 0 -49 22t-20 52z" />
    <glyph glyph-name="ncaron" unicode="&#x148;" horiz-adv-x="194" 
d="M19 65q-1 12 -2.5 23.5t-7.5 16.5q-6 3 -6 11q0 7 5 11t10 4q9 0 15.5 -8t11 -20t7.5 -25.5t5 -24.5l6 9q0 1 1 2.5t1 2.5q8 14 18.5 26.5t28.5 12.5q29 0 40.5 -18.5t18.5 -38.5q0 -1 0.5 -4.5t0.5 -6.5q1 -5 1 -7v-4q3 -1 6 -2.5t3 -5.5q0 -14 -12 -14q-13 0 -18.5 7.5
t-10.5 18.5q-3 3 -3 5q-5 11 -11 21.5t-12 10.5t-13 -8.5t-14 -20.5q-6 -10 -13.5 -20t-17.5 -18q-14 0 -21 4.5t-11 13t-5 19t-1 22.5v5v0zM25 193q0 6 3.5 10t8.5 4t9 -5l8 -10q7 -11 15.5 -23.5t16.5 -12.5q9 0 23 11t28 23l7 6q9 7 17.5 13t13.5 6q12 0 13.5 -5.5
t-2.5 -13t-10 -14.5t-9 -11q-16 -19 -34.5 -35.5t-38.5 -16.5q-30 0 -49 22t-20 52z" />
    <glyph glyph-name="napostrophe" unicode="&#x149;" horiz-adv-x="194" 
d="M19 65q-1 12 -2.5 23.5t-7.5 16.5q-6 3 -6 11q0 7 5 11t10 4q9 0 15.5 -8t11 -20t7.5 -25.5t5 -24.5l6 9q0 1 1 2.5t1 2.5q8 14 18.5 26.5t28.5 12.5q29 0 40.5 -18.5t18.5 -38.5q0 -1 0.5 -4.5t0.5 -6.5q1 -5 1 -7v-4q3 -1 6 -2.5t3 -5.5q0 -14 -12 -14q-13 0 -18.5 7.5
t-10.5 18.5q-3 3 -3 5q-5 11 -11 21.5t-12 10.5t-13 -8.5t-14 -20.5q-6 -10 -13.5 -20t-17.5 -18q-14 0 -21 4.5t-11 13t-5 19t-1 22.5v5v0zM-4 208q-10 4 -10 15q0 5 3 9.5t11 4.5q20 0 28.5 -8t8.5 -20q0 -8 -5.5 -20.5t-12.5 -24.5t-13.5 -20.5t-7.5 -8.5q-15 0 -15 17
q1 11 3.5 17.5t5.5 13.5t5.5 13t2.5 8q0 3 -4 4z" />
    <glyph glyph-name="Eng" unicode="&#x14a;" horiz-adv-x="476" 
d="M448 207q10 0 10 -10q0 -4 -0.5 -7.5t-0.5 -6.5v-13q-1 -30 -3 -59t-7 -60q-6 -30 -18.5 -66.5t-32 -71.5t-46 -64.5t-59.5 -46.5l-6 -3q-25 -12 -48 -21.5t-52 -9.5q-24 0 -41.5 10t-17.5 23q0 4 2 9t6 8h-1q2 2 5.5 2h5.5l18 -8l6 -3v1q5 -2 9.5 -4t6.5 -2
q23 0 52 10.5t49 23.5q44 27 72 69t43.5 90.5t21.5 100t6 98.5q0 5 3 7.5t6 2.5zM-88 -80q-11 5 -11 16q0 8 6 11t14 3q10 0 20.5 6t20.5 15t19 20t17 21q14 22 31.5 57.5t35 75.5t34 82.5t30.5 79t24 64t14 39.5v11q0 5 -0.5 9t-0.5 7q-1 8 -1 20v20q0 13 1 27t4.5 25
t9.5 18t15 7q8 0 13.5 -4t5.5 -25q0 -41 -3 -61.5t-7 -36.5l-3 -16q2 -43 6 -91.5t11 -91.5q3 -18 7 -46t10.5 -56t17 -53t27.5 -37l6 -4q21 -16 46 -2q25 13 43 35t29.5 49t17 55.5t5.5 54.5q0 67 -26.5 135t-59.5 127q-1 2 -7 13.5t-13.5 25t-15 26t-10.5 16.5v-1
q-3 1 -3 11q0 15 14 15q10 0 16 -10t8 -20l-1 1l3 -7v1l24 -39q20 -34 39 -68t33.5 -71t23.5 -78.5t9 -89.5q0 -34 -7 -63.5t-23 -54.5q-10 -17 -22 -36.5t-27.5 -36t-35 -27.5t-43.5 -11t-41.5 14t-29.5 34.5t-19.5 44.5t-12.5 44l-12 55q-3 18 -5.5 32.5t-4.5 29.5
t-4 32.5t-3 42.5q-23 -61 -51 -126.5t-58.5 -121.5t-60.5 -95t-56 -46q-3 -1 -7.5 -1h-9.5q-2 0 -3 -0.5t-3 -0.5h-10z" />
    <glyph glyph-name="eng" unicode="&#x14b;" horiz-adv-x="194" 
d="M19 60q0 14 -1 26.5t-9 18.5q-6 3 -6 11q0 7 5 11t10 4q9 0 15.5 -8t11 -20t7.5 -25.5t5 -24.5l6 9q0 1 1 2.5t1 2.5q8 14 18.5 26.5t28.5 12.5q26 0 38 -18t21 -37l2 -6v2q1 -3 3 -11t4.5 -18.5t4.5 -21t2 -17.5q0 -23 -21.5 -33t-43.5 -10q-15 0 -33.5 6t-18.5 17
q0 5 3.5 10t10.5 5q5 0 7.5 -0.5l7.5 -1.5t9.5 -1.5t8.5 -0.5q15 0 27 3.5t12 11.5t-3 22t-8.5 27.5t-13 23.5t-16.5 10q-6 0 -13 -8.5t-14 -20.5q-6 -10 -13.5 -20t-17.5 -18q-14 0 -21 4.5t-11 13t-5 19t-1 22.5z" />
    <glyph glyph-name="Omacron" unicode="&#x14c;" horiz-adv-x="759" 
d="M541 474q37 -26 74 -55.5t66 -63.5t47.5 -73t18.5 -83q0 -52 -35 -97q-33 -36 -75 -62t-89 -42.5t-97 -24t-98 -7.5q-62 0 -123.5 12.5t-111 41t-80.5 74.5t-31 112q0 31 7 65q6 24 26.5 48.5t47.5 47.5t55 42t49 31q33 19 73.5 32.5t74.5 21.5l30 7q25 7 58 12
q-1 3 -1 6q0 2 4 6.5t10 4.5q12 0 34 -14q10 0 23 -2.5t24.5 -6.5t18.5 -10t4 -14zM667 315q-14 17 -35 38t-47.5 43.5t-56 45t-60.5 42.5q-34 -4 -79 -13.5t-92.5 -25.5t-93.5 -39t-82.5 -53.5t-59 -68t-22.5 -83.5q0 -48 27.5 -85t71.5 -63t99 -39.5t111 -13.5
q69 0 133.5 16.5t115.5 41.5q19 10 39 25t36.5 33.5t27 39.5t10.5 45q0 29 -11.5 59.5t-31.5 54.5zM351 568q-2 0 -2 2q-4 4 -4 10q0 15 19 15q9 -3 15 -3q15 0 30 3q11 2 23.5 3t26.5 1h9q5 -3 7.5 -5.5t2.5 -9.5q0 -2 -7.5 -6.5t-19.5 -9t-26.5 -7.5t-28.5 -3
q-11 0 -22.5 1.5t-22.5 8.5z" />
    <glyph glyph-name="omacron" unicode="&#x14d;" 
d="M167 101q0 -6 -4 -10q5 -3 9 -6t7 -5q5 -5 5.5 -15t0.5 -13q-3 -10 -14.5 -18.5t-28.5 -14.5t-37.5 -9.5t-39.5 -3.5q-32 0 -52 14t-20 36q0 21 13.5 35.5t32.5 23t40.5 12t37.5 3.5q13 0 25 -4t23 -19zM103 77q-9 3 -16.5 6.5t-9.5 8.5q-17 -6 -31.5 -14t-14.5 -16
q0 -12 15.5 -16t28.5 -4q19 0 38 5t33 13q-6 4 -15 7.5t-17 6.5zM27 166q-2 0 -2 2q-4 4 -4 10q0 15 19 15q9 -3 15 -3q15 0 30 3q11 2 23.5 3t26.5 1h9q5 -3 7.5 -5.5t2.5 -9.5q0 -2 -7.5 -6.5t-19.5 -9t-26.5 -7.5t-28.5 -3q-11 0 -22.5 1.5t-22.5 8.5z" />
    <glyph glyph-name="Obreve" unicode="&#x14e;" horiz-adv-x="759" 
d="M541 474q37 -26 74 -55.5t66 -63.5t47.5 -73t18.5 -83q0 -52 -35 -97q-33 -36 -75 -62t-89 -42.5t-97 -24t-98 -7.5q-62 0 -123.5 12.5t-111 41t-80.5 74.5t-31 112q0 31 7 65q6 24 26.5 48.5t47.5 47.5t55 42t49 31q33 19 73.5 32.5t74.5 21.5l30 7q25 7 58 12
q-1 3 -1 6q0 2 4 6.5t10 4.5q12 0 34 -14q10 0 23 -2.5t24.5 -6.5t18.5 -10t4 -14zM667 315q-14 17 -35 38t-47.5 43.5t-56 45t-60.5 42.5q-34 -4 -79 -13.5t-92.5 -25.5t-93.5 -39t-82.5 -53.5t-59 -68t-22.5 -83.5q0 -48 27.5 -85t71.5 -63t99 -39.5t111 -13.5
q69 0 133.5 16.5t115.5 41.5q19 10 39 25t36.5 33.5t27 39.5t10.5 45q0 29 -11.5 59.5t-31.5 54.5zM340 629q0 16 14 16q10 0 14 -10q0 -21 12 -33t26 -12q11 0 22.5 8.5t16.5 22.5q-1 3 -1 5q0 6 3.5 7.5t8.5 6.5q14 0 16 -7t2 -19t-7 -23.5t-18 -20t-24 -13.5t-25 -5
q-17 0 -28 7t-18 18.5t-10 25t-4 26.5z" />
    <glyph glyph-name="obreve" unicode="&#x14f;" 
d="M167 101q0 -6 -4 -10q5 -3 9 -6t7 -5q5 -5 5.5 -15t0.5 -13q-3 -10 -14.5 -18.5t-28.5 -14.5t-37.5 -9.5t-39.5 -3.5q-32 0 -52 14t-20 36q0 21 13.5 35.5t32.5 23t40.5 12t37.5 3.5q13 0 25 -4t23 -19zM103 77q-9 3 -16.5 6.5t-9.5 8.5q-17 -6 -31.5 -14t-14.5 -16
q0 -12 15.5 -16t28.5 -4q19 0 38 5t33 13q-6 4 -15 7.5t-17 6.5zM23 219q0 16 14 16q10 0 14 -10q0 -21 12 -33t26 -12q11 0 22.5 8.5t16.5 22.5q-1 3 -1 5q0 6 3.5 7.5t8.5 6.5q14 0 16 -7t2 -19t-7 -23.5t-18 -20t-24 -13.5t-25 -5q-17 0 -28 7t-18 18.5t-10 25t-4 26.5z
" />
    <glyph glyph-name="Ohungarumlaut" unicode="&#x150;" horiz-adv-x="759" 
d="M545 483q3 8 -4 14t-18.5 10t-24.5 6.5t-23 2.5q-22 14 -34 14q-6 0 -10 -4.5t-4 -6.5q0 -3 1 -6q-33 -5 -58 -12l-30 -7q-34 -8 -74.5 -21.5t-73.5 -32.5q-21 -12 -49 -31t-55 -42t-47.5 -47.5t-26.5 -48.5q-7 -34 -7 -65q0 -66 31 -112t80.5 -74.5t111 -41t123.5 -12.5
q48 0 98 7.5t97 24t89 42.5t75 62q35 45 35 97q0 44 -18.5 83t-47.5 73t-66 63.5t-74 55.5zM667 315q20 -24 31.5 -54.5t11.5 -59.5q0 -24 -10.5 -45t-27 -39.5t-36.5 -33.5t-39 -25q-51 -25 -115.5 -41.5t-133.5 -16.5q-56 0 -111 13.5t-99 39.5t-71.5 63t-27.5 85
q0 46 22.5 83.5t59 68t82.5 53.5t93.5 39t92.5 25.5t79 13.5q31 -20 60.5 -42.5t56 -45t47.5 -43.5t35 -38zM449 630q0 -2 -2 -6q-2 -8 -11 -17t-21 -18t-24.5 -17t-21.5 -14q-4 -2 -11.5 -5.5t-14.5 -5.5t-12.5 -0.5t-4.5 9.5q1 7 13 19t28 24t31.5 23t23.5 18q8 4 9.5 4.5
t2.5 0.5q5 0 10 -4t5 -11zM508 645q16 0 14 -20v-3q-2 -6 -11.5 -15t-21.5 -18t-24.5 -17.5t-22.5 -14.5q-15 -10 -20 -11.5t-7 -1.5q-16 0 -16 16q22 30 59 52q11 6 20.5 13t18.5 15q4 5 11 5z" />
    <glyph glyph-name="ohungarumlaut" unicode="&#x151;" 
d="M167 101q0 -6 -4 -10q5 -3 9 -6t7 -5q5 -5 5.5 -15t0.5 -13q-3 -10 -14.5 -18.5t-28.5 -14.5t-37.5 -9.5t-39.5 -3.5q-32 0 -52 14t-20 36q0 21 13.5 35.5t32.5 23t40.5 12t37.5 3.5q13 0 25 -4t23 -19zM103 77q-9 3 -16.5 6.5t-9.5 8.5q-17 -6 -31.5 -14t-14.5 -16
q0 -12 15.5 -16t28.5 -4q19 0 38 5t33 13q-6 4 -15 7.5t-17 6.5zM128 224q0 -2 -2 -6q-2 -8 -11 -17t-21 -18t-24.5 -17t-21.5 -14q-4 -2 -11.5 -5.5t-14.5 -5.5t-12.5 -0.5t-4.5 9.5q1 7 13 19t28 24t31.5 23t23.5 18q8 4 9.5 4.5t2.5 0.5q5 0 10 -4t5 -11zM187 239
q16 0 14 -20v-3q-2 -6 -11.5 -15t-21.5 -18t-24.5 -17.5t-22.5 -14.5q-15 -10 -20 -11.5t-7 -1.5q-16 0 -16 16q22 30 59 52q11 6 20.5 13t18.5 15q4 5 11 5z" />
    <glyph glyph-name="OE" unicode="&#x152;" horiz-adv-x="992" 
d="M494 432q33 -24 66 -51t60 -58.5t44 -66.5t17 -75q0 -22 -8 -44t-26 -44q-29 -32 -67 -55.5t-81 -38.5t-88 -22.5t-88 -7.5q-57 0 -113.5 11.5t-101.5 37.5t-73.5 68t-28.5 102q0 23 5 51v3q0 1 0.5 2t0.5 3q4 22 23 45t43.5 44t50.5 38.5t45 27.5q31 17 67 30.5t68 19.5
q4 1 7.5 1.5t8.5 2.5q1 0 2 0.5t3 0.5q14 3 25 5t28 4q-30 17 -56.5 26t-46.5 9h-15q-2 0 -5 -0.5t-5 -0.5q-5 2 -8.5 7.5t-3.5 7.5q0 12 16 12q52 0 93.5 -15t82.5 -42q8 0 19.5 -1.5t21.5 -4.5t16.5 -8.5t5.5 -13.5zM607 286q-13 16 -32.5 36t-43 40.5t-50 40.5t-54.5 38
q-32 -3 -73 -12.5t-84.5 -24.5t-85.5 -36t-75 -48.5t-53 -61.5t-20 -75q0 -43 25 -76.5t65 -57t90.5 -35.5t101.5 -12q61 0 119.5 14.5t106.5 37.5q18 9 36 22t32.5 29.5t23.5 36t9 41.5q0 26 -10.5 54.5t-27.5 48.5zM920 544q-30 -5 -67 -11.5t-74.5 -16.5t-73 -24
t-63.5 -33.5t-44.5 -45t-16.5 -58.5q0 -23 10 -36t26 -20.5t37 -9.5t42 -2q23 0 46 2l46 4q21 2 42.5 4t44.5 2q17 0 34 -3.5t22 -14.5v-5.5t-2 -5.5v1q-17 -20 -35 -37.5t-38 -34.5l-15 -13q-19 -17 -37 -33.5t-32 -33t-22.5 -33.5t-8.5 -33t24 -22.5t54 -6.5q18 0 36.5 2
t34 5t26 7t12.5 8q1 1 3 2.5t4 1.5q14 0 14 -13q0 -11 -11 -20t-30 -16t-44.5 -10.5t-53.5 -3.5q-21 0 -39.5 3t-33 10.5t-23 20t-8.5 30.5q0 21 11 42t28 42t39 41.5t44 40.5q14 11 25 22l22 22q-6 1 -13.5 1.5t-14.5 0.5q-15 0 -30 -1.5t-32 -3.5l-18 -2q-19 -3 -41 -5
t-42 -2q-22 0 -46 4t-44.5 14.5t-33.5 29.5t-13 50q0 16 3.5 33.5t9.5 33t13.5 29t16.5 21.5q31 28 66.5 46.5t72.5 30t75 18.5t75 12l29 4q13 2 25 4t25 4h5t5 -2q3 -3 3.5 -7.5t0.5 -11.5q0 -8 -8 -10z" />
    <glyph glyph-name="oe" unicode="&#x153;" horiz-adv-x="269" 
d="M144 127q7 -2 8 -5.5t1 -8.5q0 -3 -2 -8.5t-9 -8.5q-5 -3 -9 1h1q-14 8 -31 8q-14 0 -27.5 -4t-24 -10t-17 -13.5t-6.5 -13.5q0 -9 14.5 -15t32.5 -6l16 2l18 2q14 -4 14 -15q0 -4 -5.5 -8t-13.5 -7t-17.5 -5t-16.5 -2t-19.5 1t-24.5 7t-21 19t-9 37q0 17 11 29t26 19.5
t31 10.5t26 3q16 0 30 -2.5t24 -6.5zM102 60l1 1l12 20v-1q16 32 35.5 51t39.5 19q9 0 19.5 -5.5t10.5 -19.5q0 -23 -24.5 -40t-56.5 -28q-2 -4 -2 -10q0 -10 16 -10q14 0 30 4.5t24 8.5l34 12q12 0 15.5 -5t3.5 -10t-13 -12t-30.5 -14t-35 -12t-27.5 -5q-30 0 -42 10
t-12 27v8.5t2 8.5v1v1zM167 101l5 2q3 2 4 3.5t3 3.5v1q-2 0 -5 -3z" />
    <glyph glyph-name="Racute" unicode="&#x154;" horiz-adv-x="357" 
d="M173 542q-127 0 -251 -45q0 -1 0.5 -1t0.5 -1v-1q0 -14 -15 -14l-17 2q-15 0 -15 14q0 13 36 27t88.5 25t110 18.5t101.5 7.5q54 0 107.5 -7t102.5 -24q18 -6 41.5 -15.5t44 -24t35 -33.5t14.5 -44q0 -16 -7.5 -31.5t-18.5 -30t-23.5 -27t-23.5 -21.5q-47 -39 -102.5 -80
t-105.5 -77l-22 -15q-1 -1 -2 -1t-2 -1l-2 -2l-13 -8q-15 -11 -31 -22t-29.5 -21t-22 -18t-8.5 -12q0 -6 8 -12.5t19.5 -11.5t23 -9.5t17.5 -6.5q1 0 2 -0.5t3 -0.5l88 -34l16 -6q18 -6 38.5 -14t53.5 -26q0 -1 1 -2l4 -6q0 -6 -4 -12t-12 -6q-11 7 -35 16t-52 19l-37 13
q-29 10 -58.5 21t-53.5 23.5t-39 26t-15 27.5q0 21 21.5 40t46.5 37h-1l4 3h2l181 132l11 8q19 15 43.5 34t46 39.5t36 40t14.5 34.5q0 22 -20.5 38.5t-49 28.5t-58 20t-47.5 11q-42 8 -85 13t-84 5zM413 -62l1 -1zM78 483q-2 -9 -3 -16t-1 -12q0 -7 1 -16t3 -20
q1 -14 3 -33l2 -16q0 -3 0.5 -6.5t0.5 -6.5q5 -48 8.5 -102t3.5 -117q0 -12 -1 -40t-3.5 -62.5t-5.5 -71.5t-7 -67.5t-9 -50t-11 -19.5q-14 0 -14 17q8 68 10.5 136t2.5 134v66.5t-2 66.5q-1 23 -3 47t-4 47v-1q-3 29 -5 56.5t-2 49.5q0 5 1 15.5t4 21.5t7.5 19t12.5 8
q5 0 9 -3t5 -11v-4.5t-2 -4.5v1zM247 675q0 -1 -2 -5q-2 -8 -18 -21.5t-35.5 -27t-36 -23t-19.5 -9.5q-8 0 -10.5 3.5t-2.5 8.5v4.5t2 4.5q10 14 25.5 25.5t31.5 22.5q10 6 20 13t18 14q8 4 9.5 4.5t2.5 0.5q5 0 10 -4t5 -11z" />
    <glyph glyph-name="racute" unicode="&#x155;" horiz-adv-x="123" 
d="M-3 116q0 10 1.5 13t10.5 3t16 -8.5t12 -20.5q10 17 25 32t39 30q5 0 9.5 -4.5t4.5 -9.5q1 -1 1 -4t-2 -5q-31 -26 -43.5 -52.5t-12.5 -54.5v-7.5t1 -9.5q2 -10 2 -20q0 -9 -5.5 -15t-12.5 -6q-5 0 -11.5 3t-7.5 11l-5 37q0 2 -0.5 2.5t-0.5 2.5q-4 23 -8.5 44.5
t-13.5 38.5h1zM117 227q0 -1 -2 -5q-2 -8 -18 -21.5t-35.5 -27t-36 -23t-19.5 -9.5q-8 0 -10.5 3.5t-2.5 8.5v4.5t2 4.5q10 14 25.5 25.5t31.5 22.5q10 6 20 13t18 14q8 4 9.5 4.5t2.5 0.5q5 0 10 -4t5 -11z" />
    <glyph glyph-name="Rcommaaccent" unicode="&#x156;" horiz-adv-x="357" 
d="M173 542q-127 0 -251 -45q0 -1 0.5 -1t0.5 -1v-1q0 -14 -15 -14l-17 2q-15 0 -15 14q0 13 36 27t88.5 25t110 18.5t101.5 7.5q54 0 107.5 -7t102.5 -24q18 -6 41.5 -15.5t44 -24t35 -33.5t14.5 -44q0 -16 -7.5 -31.5t-18.5 -30t-23.5 -27t-23.5 -21.5q-47 -39 -102.5 -80
t-105.5 -77l-22 -15q-1 -1 -2 -1t-2 -1l-2 -2l-13 -8q-15 -11 -31 -22t-29.5 -21t-22 -18t-8.5 -12q0 -6 8 -12.5t19.5 -11.5t23 -9.5t17.5 -6.5q1 0 2 -0.5t3 -0.5l88 -34l16 -6q18 -6 38.5 -14t53.5 -26q0 -1 1 -2l4 -6q0 -6 -4 -12t-12 -6q-11 7 -35 16t-52 19l-37 13
q-29 10 -58.5 21t-53.5 23.5t-39 26t-15 27.5q0 21 21.5 40t46.5 37h-1l4 3h2l181 132l11 8q19 15 43.5 34t46 39.5t36 40t14.5 34.5q0 22 -20.5 38.5t-49 28.5t-58 20t-47.5 11q-42 8 -85 13t-84 5zM413 -62l1 -1zM78 483q-2 -9 -3 -16t-1 -12q0 -7 1 -16t3 -20
q1 -14 3 -33l2 -16q0 -3 0.5 -6.5t0.5 -6.5q5 -48 8.5 -102t3.5 -117q0 -12 -1 -40t-3.5 -62.5t-5.5 -71.5t-7 -67.5t-9 -50t-11 -19.5q-14 0 -14 17q8 68 10.5 136t2.5 134v66.5t-2 66.5q-1 23 -3 47t-4 47v-1q-3 29 -5 56.5t-2 49.5q0 5 1 15.5t4 21.5t7.5 19t12.5 8
q5 0 9 -3t5 -11v-4.5t-2 -4.5v1zM180 -128q-10 4 -10 15q0 5 3 9.5t11 4.5q20 0 28.5 -8t8.5 -20q0 -8 -5.5 -20.5t-12.5 -24.5t-13.5 -20.5t-7.5 -8.5q-15 0 -15 17q1 11 3.5 17.5t5.5 13.5t5.5 13t2.5 8q0 3 -4 4z" />
    <glyph glyph-name="rcommaaccent" unicode="&#x157;" horiz-adv-x="123" 
d="M-3 116q0 10 1.5 13t10.5 3t16 -8.5t12 -20.5q10 17 25 32t39 30q5 0 9.5 -4.5t4.5 -9.5q1 -1 1 -4t-2 -5q-31 -26 -43.5 -52.5t-12.5 -54.5v-7.5t1 -9.5q2 -10 2 -20q0 -9 -5.5 -15t-12.5 -6q-5 0 -11.5 3t-7.5 11l-5 37q0 2 -0.5 2.5t-0.5 2.5q-4 23 -8.5 44.5
t-13.5 38.5h1zM32 -72q-10 4 -10 15q0 5 3 9.5t11 4.5q20 0 28.5 -8t8.5 -20q0 -8 -5.5 -20.5t-12.5 -24.5t-13.5 -20.5t-7.5 -8.5q-15 0 -15 17q1 11 3.5 17.5t5.5 13.5t5.5 13t2.5 8q0 3 -4 4z" />
    <glyph glyph-name="Rcaron" unicode="&#x158;" horiz-adv-x="357" 
d="M173 542q-127 0 -251 -45q0 -1 0.5 -1t0.5 -1v-1q0 -14 -15 -14l-17 2q-15 0 -15 14q0 13 36 27t88.5 25t110 18.5t101.5 7.5q54 0 107.5 -7t102.5 -24q18 -6 41.5 -15.5t44 -24t35 -33.5t14.5 -44q0 -16 -7.5 -31.5t-18.5 -30t-23.5 -27t-23.5 -21.5q-47 -39 -102.5 -80
t-105.5 -77l-22 -15q-1 -1 -2 -1t-2 -1l-2 -2l-13 -8q-15 -11 -31 -22t-29.5 -21t-22 -18t-8.5 -12q0 -6 8 -12.5t19.5 -11.5t23 -9.5t17.5 -6.5q1 0 2 -0.5t3 -0.5l88 -34l16 -6q18 -6 38.5 -14t53.5 -26q0 -1 1 -2l4 -6q0 -6 -4 -12t-12 -6q-11 7 -35 16t-52 19l-37 13
q-29 10 -58.5 21t-53.5 23.5t-39 26t-15 27.5q0 21 21.5 40t46.5 37h-1l4 3h2l181 132l11 8q19 15 43.5 34t46 39.5t36 40t14.5 34.5q0 22 -20.5 38.5t-49 28.5t-58 20t-47.5 11q-42 8 -85 13t-84 5zM413 -62l1 -1zM78 483q-2 -9 -3 -16t-1 -12q0 -7 1 -16t3 -20
q1 -14 3 -33l2 -16q0 -3 0.5 -6.5t0.5 -6.5q5 -48 8.5 -102t3.5 -117q0 -12 -1 -40t-3.5 -62.5t-5.5 -71.5t-7 -67.5t-9 -50t-11 -19.5q-14 0 -14 17q8 68 10.5 136t2.5 134v66.5t-2 66.5q-1 23 -3 47t-4 47v-1q-3 29 -5 56.5t-2 49.5q0 5 1 15.5t4 21.5t7.5 19t12.5 8
q5 0 9 -3t5 -11v-4.5t-2 -4.5v1zM125 655q0 6 3.5 10t8.5 4t9 -5l8 -10q7 -11 15.5 -23.5t16.5 -12.5q9 0 23 11t28 23l7 6q9 7 17.5 13t13.5 6q12 0 13.5 -5.5t-2.5 -13t-10 -14.5t-9 -11q-16 -19 -34.5 -35.5t-38.5 -16.5q-30 0 -49 22t-20 52z" />
    <glyph glyph-name="rcaron" unicode="&#x159;" horiz-adv-x="123" 
d="M-3 116q0 10 1.5 13t10.5 3t16 -8.5t12 -20.5q10 17 25 32t39 30q5 0 9.5 -4.5t4.5 -9.5q1 -1 1 -4t-2 -5q-31 -26 -43.5 -52.5t-12.5 -54.5v-7.5t1 -9.5q2 -10 2 -20q0 -9 -5.5 -15t-12.5 -6q-5 0 -11.5 3t-7.5 11l-5 37q0 2 -0.5 2.5t-0.5 2.5q-4 23 -8.5 44.5
t-13.5 38.5h1zM-23 236q0 6 3.5 10t8.5 4t9 -5l8 -10q7 -11 15.5 -23.5t16.5 -12.5q9 0 23 11t28 23l7 6q9 7 17.5 13t13.5 6q12 0 13.5 -5.5t-2.5 -13t-10 -14.5t-9 -11q-16 -19 -34.5 -35.5t-38.5 -16.5q-30 0 -49 22t-20 52z" />
    <glyph glyph-name="Sacute" unicode="&#x15a;" horiz-adv-x="685" 
d="M588 490q-16 0 -16 15q0 5 6 10t14 9q-12 1 -27.5 1.5t-30.5 1.5t-26.5 1.5t-14.5 0.5q-25 0 -68.5 -2t-94.5 -9t-104 -21t-96 -37t-70 -57.5t-27 -83.5q0 -31 15.5 -55t40.5 -42t55 -30.5t59 -20.5q37 -8 75.5 -14.5t74.5 -12.5l21 -3q31 -5 65 -11t65 -15
q23 -6 47.5 -15t47 -21.5t41 -30t30.5 -40.5q5 -11 5 -23q0 -17 -10 -35t-25 -34.5t-31 -30t-28 -20.5q-69 -40 -130 -60.5t-127 -20.5q-24 0 -56 3.5t-61 12.5t-49.5 25.5t-20.5 42.5q0 19 11 30.5t28 17.5t38 8t41 4l15 2q32 3 65.5 4.5t63.5 1.5q49 0 98.5 -4t99.5 -12
q16 14 27 31t11 34q0 19 -16 34t-38 26.5t-45.5 19.5t-39.5 13q-36 10 -72 15q-13 0 -26 3q-7 1 -14 2.5t-14 2.5l-21 3q-34 5 -72.5 11.5t-77 17t-74.5 26t-63.5 37.5t-44 52t-16.5 70q0 51 22.5 88.5t60 65t86.5 45t102.5 27.5t107 14t100.5 4q12 0 38.5 -2t53.5 -6.5
t47.5 -10.5t20.5 -13q0 -6 -6 -12.5t-14.5 -12.5t-16.5 -10t-12 -5h-3zM321 -179q74 0 131.5 22.5t108.5 52.5q-38 5 -76 7.5t-73 2.5q-64 0 -130 -6l-18 -3q-13 -2 -30 -4t-32 -5t-25.5 -7t-10.5 -10q0 -13 16.5 -22.5t40 -15.5t50.5 -9t48 -3zM409 663q0 -1 -2 -5
q-2 -8 -18 -21.5t-35.5 -27t-36 -23t-19.5 -9.5q-8 0 -10.5 3.5t-2.5 8.5v4.5t2 4.5q10 14 25.5 25.5t31.5 22.5q10 6 20 13t18 14q8 4 9.5 4.5t2.5 0.5q5 0 10 -4t5 -11z" />
    <glyph glyph-name="sacute" unicode="&#x15b;" horiz-adv-x="108" 
d="M93 134q3 -2 3.5 -4.5t0.5 -4.5q0 -14 -15 -14q-4 0 -6 1q-8 0 -20.5 -4t-12.5 -11q0 -2 5 -5t10 -5q14 -6 27 -14.5t13 -32.5q0 -13 -8.5 -23t-22 -16.5t-30.5 -10.5t-33 -5q-5 2 -7 6.5t-2 9.5t2.5 9t8.5 5q23 3 39.5 11.5t16.5 13.5q0 2 -6 6t-12 9l-6 4
q-11 7 -22 14.5t-11 18.5t6.5 20.5t16.5 16t21 10.5t20 4q17 0 24 -9zM119 214q0 -1 -2 -5q-2 -8 -18 -21.5t-35.5 -27t-36 -23t-19.5 -9.5q-8 0 -10.5 3.5t-2.5 8.5v4.5t2 4.5q10 14 25.5 25.5t31.5 22.5q10 6 20 13t18 14q8 4 9.5 4.5t2.5 0.5q5 0 10 -4t5 -11z" />
    </font>
</defs>
</svg>
