<?xml version="1.0" standalone="no"?>
<!DOCTYPE svg PUBLIC "-//W3C//DTD SVG 1.1//EN" "http://www.w3.org/Graphics/SVG/1.1/DTD/svg11.dtd" >
<svg xmlns="http://www.w3.org/2000/svg" xmlns:xlink="http://www.w3.org/1999/xlink" version="1.1">
<metadata>
Created by FontForge 20161013 at Fri Mar 30 19:56:51 2012
 By ,,,
Copyright (c) 2012 by vernon adams. All rights reserved.
</metadata>
<defs>
<font id="Oxygen-Italic" horiz-adv-x="203" >
  <font-face 
    font-family="Oxygen"
    font-weight="400"
    font-style="italic"
    font-stretch="normal"
    units-per-em="1000"
    panose-1="2 0 5 3 0 0 0 9 0 4"
    ascent="800"
    descent="-200"
    x-height="509"
    cap-height="730"
    bbox="-60 -328 1372 1230"
    underline-thickness="49"
    underline-position="-195"
    unicode-range="U+000D-FB03"
  />
<missing-glyph horiz-adv-x="142" 
 />
    <glyph glyph-name=".notdef" horiz-adv-x="142" 
 />
    <glyph glyph-name=".null" horiz-adv-x="0" 
 />
    <glyph glyph-name="uni000D" unicode="&#xd;" horiz-adv-x="142" 
 />
    <glyph glyph-name="space" unicode=" " horiz-adv-x="192" 
 />
    <glyph glyph-name="exclam" unicode="!" horiz-adv-x="270" 
d="M286 730l-10 -69l-89 -449h-37l34 449l9 69h93zM83 59q3 26 23 45t49 19q30 0 43 -19t10 -45t-22 -45.5t-49 -19.5q-29 0 -43 19.5t-11 45.5z" />
    <glyph glyph-name="quotedbl" unicode="&#x22;" horiz-adv-x="329" 
d="M145 496l24 241h71l-48 -241h-47zM279 496l24 241h71l-48 -241h-47z" />
    <glyph glyph-name="numbersign" unicode="#" horiz-adv-x="522" 
d="M405 455h-109l-65 -193h111zM550 515l-15 -60h-68l-58 -193h68l-13 -62h-72l-69 -211h-71l69 211h-109l-66 -211h-61l64 211h-78l13 62h84l56 192h-82l12 61h90l65 199h72l-65 -199h109l60 199h60l-59 -199h64z" />
    <glyph glyph-name="dollar" unicode="$" horiz-adv-x="605" 
d="M51 49l34 70q86 -48 187 -55l40 284l-62 18q-149 41 -129 176q13 95 77.5 145t169.5 57l12 83h44l-12 -82q117 -3 186 -53l-34 -68q-68 42 -162 46l-35 -248l50 -13q79 -21 115 -67t24 -131q-15 -106 -80.5 -161t-168.5 -60l-12 -85h-45l12 85q-136 5 -211 59zM472 208
q6 47 -13.5 76.5t-78.5 45.5l-25 6l-38 -273q135 8 155 145zM206 547q-11 -79 87 -105l31 -9l33 236q-135 -11 -151 -122z" />
    <glyph glyph-name="percent" unicode="%" horiz-adv-x="860" 
d="M289 673q-41 0 -69 -39t-36 -95t9.5 -91.5t58.5 -35.5t68.5 36.5t35.5 90.5q8 56 -9.5 95t-57.5 39zM185 -2l465 716h74l-477 -716h-62zM296 727q67 0 99.5 -53t21.5 -135q-11 -80 -59 -132t-114 -52t-98.5 52t-21.5 132q12 81 59 134.5t113 53.5zM701 312
q-49 0 -81 -38.5t-40 -93.5q-8 -56 14 -94t70 -38q49 0 81 38.5t40 93.5q8 56 -14 94t-70 38zM708 368q77 0 112.5 -52t23.5 -136q-12 -82 -62 -134.5t-126 -52.5q-77 0 -112 52.5t-23 134.5t61.5 135t125.5 53z" />
    <glyph glyph-name="ampersand" unicode="&#x26;" horiz-adv-x="679" 
d="M264 410q-36 48 -50 81.5t-8 77.5q10 73 64.5 115.5t136.5 42.5q75 0 121.5 -39t36.5 -111q-15 -107 -182 -184l155 -210q43 41 80 109l49 -44q-37 -67 -89 -123l67 -105q-37 -14 -75 -25l-51 75q-106 -81 -233 -81q-117 0 -170.5 54t-39.5 150q11 75 58.5 126t129.5 91z
M304 354q-63 -32 -100 -68.5t-44 -87.5q-9 -63 28.5 -98.5t112.5 -35.5q91 0 173 62zM398 657q-42 0 -70.5 -23.5t-34.5 -64.5q-5 -33 8 -60.5t43 -64.5q40 20 63.5 34.5t44.5 39.5t25 54q6 41 -17.5 63t-61.5 22z" />
    <glyph glyph-name="quotesingle" unicode="'" horiz-adv-x="181" 
d="M186 496h-49l24 241h72z" />
    <glyph glyph-name="parenleft" unicode="(" horiz-adv-x="281" 
d="M102 311q30 209 174 426h67q-133 -205 -163 -424q-15 -105 -2.5 -215.5t48.5 -203.5h-67q-87 207 -57 417z" />
    <glyph glyph-name="parenright" unicode=")" horiz-adv-x="280" 
d="M94 -106h-65q130 198 162 419q30 218 -44 424h67q84 -221 55 -426q-29 -207 -175 -417z" />
    <glyph glyph-name="asterisk" unicode="*" horiz-adv-x="491" 
d="M389 727l-42 -208l158 93l23 -78l-170 -66q64 -112 93 -167q-11 -9 -33.5 -23t-34.5 -23l-77 178l-123 -178l-56 46l139 167l-149 66l43 78l133 -93l15 208h81z" />
    <glyph glyph-name="plus" unicode="+" horiz-adv-x="491" 
d="M83 250l9 65h175l29 205h60l-28 -205h167l-9 -65h-168l-30 -211h-61l29 211h-173z" />
    <glyph glyph-name="comma" unicode="," horiz-adv-x="234" 
d="M188 112l-95 -255h-50l45 255h100z" />
    <glyph glyph-name="hyphen" unicode="-" horiz-adv-x="319" 
d="M78 254l9 70h238l-10 -70h-237z" />
    <glyph glyph-name="period" unicode="." horiz-adv-x="229" 
d="M122 -6q-29 0 -43 19.5t-11 45.5t22.5 45t49.5 19t43 -19t10 -45t-22 -45.5t-49 -19.5z" />
    <glyph glyph-name="slash" unicode="/" horiz-adv-x="432" 
d="M74 -106h-66l423 822h66z" />
    <glyph glyph-name="zero" unicode="0" horiz-adv-x="569" 
d="M381 670q-69 0 -119.5 -83t-68.5 -217q-19 -136 7.5 -221.5t95.5 -85.5t119 85t69 222q19 134 -7.5 217t-95.5 83zM285 -11q-119 0 -162.5 103.5t-19.5 274.5q25 174 99 276t190 102t161 -102t20 -276q-24 -171 -96.5 -274.5t-191.5 -103.5z" />
    <glyph glyph-name="one" unicode="1" horiz-adv-x="285" 
d="M241 730h74l-103 -730h-83l90 640q-55 -34 -119 -55l11 82q9 4 31.5 13.5t35.5 15.5t31 15.5t32 18.5z" />
    <glyph glyph-name="two" unicode="2" horiz-adv-x="509" 
d="M163 681q72 64 193 64q93 0 141 -54.5t35 -144.5v-3q-10 -65 -48 -121t-110 -127l-223 -220h317l-15 -75h-400v80l275 280q100 102 112 176l1 5q8 61 -18.5 94t-84.5 33q-96 0 -159 -60z" />
    <glyph glyph-name="three" unicode="3" horiz-adv-x="504" 
d="M405 201q7 47 -5.5 78.5t-44 47t-68 21t-89.5 5.5l10 72q45 0 77 4t65.5 16.5t53 39.5t25.5 68q16 117 -108 117q-92 0 -159 -52l-16 71q76 56 204 56q81 0 132 -48.5t39 -132.5q-19 -136 -147 -175q63 -15 93.5 -64t19.5 -125q-14 -96 -86.5 -153.5t-173.5 -57.5
q-62 0 -107 17t-64 39l35 72q56 -54 145 -54q68 0 113.5 36t55.5 102z" />
    <glyph glyph-name="four" unicode="4" horiz-adv-x="553" 
d="M445 620l-279 -368h227zM539 181h-77l-25 -181h-80l26 181h-307l10 75l366 474h87l-67 -478h83z" />
    <glyph glyph-name="five" unicode="5" horiz-adv-x="540" 
d="M565 730l-18 -80h-279l-39 -230q58 36 117 36q100 0 145.5 -63t31.5 -160q-16 -111 -92 -177.5t-191 -66.5q-117 0 -176 67l40 69q62 -57 149 -57q75 0 124.5 45.5t60.5 118.5q9 65 -22 106t-98 41q-68 0 -115 -48l-63 9l72 390h353z" />
    <glyph glyph-name="six" unicode="6" horiz-adv-x="553" 
d="M168 221q-10 -67 21 -112.5t99 -45.5t113 44.5t54 110.5q10 69 -22.5 113.5t-100.5 44.5q-72 0 -113 -43.5t-51 -111.5zM358 450q90 0 144.5 -66t40.5 -165q-15 -100 -87 -165t-176 -65q-108 0 -161 69t-38 172q12 80 48 143.5t120 158.5l179 195h108l-286 -307
q56 30 108 30z" />
    <glyph glyph-name="seven" unicode="7" horiz-adv-x="478" 
d="M120 0l325 655h-306l15 75h394l-9 -66l-336 -664h-83z" />
    <glyph glyph-name="eight" unicode="8" horiz-adv-x="542" 
d="M369 670q-53 0 -95 -29t-49 -79q-16 -114 108 -145q131 30 147 145q7 50 -25.5 79t-85.5 29zM323 343q-67 -16 -112 -53.5t-53 -95.5q-8 -60 27 -95.5t98 -35.5t107.5 35.5t52.5 95.5q8 58 -25 95.5t-95 53.5zM273 -11q-97 0 -154 52.5t-44 146.5q10 70 55 122t117 75
q-124 49 -105 176q12 87 77.5 135.5t159.5 48.5t144.5 -48.5t38.5 -135.5q-19 -127 -144 -176q60 -23 88 -75t18 -122q-13 -94 -83.5 -146.5t-167.5 -52.5z" />
    <glyph glyph-name="nine" unicode="9" horiz-adv-x="537" 
d="M489 518q10 67 -20 109.5t-98 42.5t-114.5 -44t-55.5 -110q-10 -69 23 -110t102 -41q72 0 112.5 42.5t50.5 110.5zM298 292q-90 0 -144.5 61.5t-40.5 160.5q15 100 88 165.5t178 65.5q108 0 160 -66.5t37 -169.5q-10 -70 -40.5 -127t-97.5 -136l-218 -246h-103l290 321
q-55 -29 -109 -29z" />
    <glyph glyph-name="colon" unicode=":" horiz-adv-x="228" 
d="M67 -12l16 114h96l-16 -114h-96zM130 436l16 113h96l-16 -113h-96z" />
    <glyph glyph-name="semicolon" unicode=";" horiz-adv-x="238" 
d="M189 96l-93 -247h-53l61 247h85zM142 436l16 113h97l-16 -113h-97z" />
    <glyph glyph-name="less" unicode="&#x3c;" horiz-adv-x="535" 
d="M551 479l-375 -188l320 -186l-11 -81l-399 243l6 46l470 248z" />
    <glyph glyph-name="equal" unicode="=" horiz-adv-x="584" 
d="M99 221h455l-11 -72h-454zM128 435h455l-10 -73h-455z" />
    <glyph glyph-name="greater" unicode="&#x3e;" horiz-adv-x="537" 
d="M75 112l372 180l-318 195l12 79l398 -254l-7 -46l-469 -236z" />
    <glyph glyph-name="question" unicode="?" horiz-adv-x="398" 
d="M119 59q3 26 22.5 45t48.5 19q30 0 43.5 -19t10.5 -45t-22.5 -45.5t-49.5 -19.5q-29 0 -42.5 19.5t-10.5 45.5zM217 212h-41q7 48 50 119.5t85.5 140t48.5 107.5q11 91 -91 91q-63 0 -125 -39l-12 66q62 47 160 47q75 0 115 -41.5t30 -116.5q-8 -59 -41 -113t-89 -127
t-90 -134z" />
    <glyph glyph-name="at" unicode="@" horiz-adv-x="817" 
d="M405 216q27 0 50.5 20.5t42 60t32 77t30.5 90.5q5 15 7 23q-17 11 -60 11q-65 0 -103.5 -57.5t-49.5 -137.5q-5 -41 8 -64t43 -23zM577 145q-74 0 -74 77q-54 -68 -118 -68q-50 0 -76 41.5t-16 112.5q15 104 72 175.5t149 71.5q55 0 132 -30q-82 -243 -85 -269
q-7 -52 33 -52q48 0 107 63t70 144q18 127 -54 201t-202 74q-129 0 -234 -97t-124 -237q-21 -150 52.5 -240t201.5 -90q129 0 217 68l26 -43q-98 -84 -253 -84t-241.5 107t-62.5 282q23 164 147.5 278.5t280.5 114.5q151 0 239 -92.5t67 -242.5q-17 -118 -96 -191.5
t-158 -73.5z" />
    <glyph glyph-name="A" unicode="A" horiz-adv-x="596" 
d="M233 298h217l-54 348zM510 0l-42 231h-270l-113 -231h-82l356 730h96l139 -730h-84z" />
    <glyph glyph-name="B" unicode="B" horiz-adv-x="591" 
d="M201 350l-39 -282h142q180 0 200 141q10 69 -25 105t-112 36h-166zM245 660l-35 -245h161q131 0 148 120q11 76 -31 100.5t-137 24.5h-106zM69 0l102 730h201q129 0 189 -42t47 -136q-8 -57 -38.5 -100.5t-83.5 -60.5q60 -14 85.5 -66.5t16.5 -116.5q-29 -208 -278 -208
h-241z" />
    <glyph glyph-name="C" unicode="C" horiz-adv-x="588" 
d="M478 745q122 0 189 -67l-38 -66q-62 58 -159 58q-117 0 -191 -87.5t-93 -218.5q-11 -58 -2.5 -112.5t29.5 -96.5t66.5 -67t110.5 -25q92 0 171 60l16 -71q-75 -63 -205 -63q-104 0 -172 51t-92.5 135t-9.5 189q23 167 125 274t255 107z" />
    <glyph glyph-name="D" unicode="D" horiz-adv-x="692" 
d="M244 655l-81 -579h143q127 0 206 71.5t98 210.5q12 84 -1.5 143t-51 92t-90 47.5t-125.5 14.5h-98zM69 0l102 730h171q93 0 162 -18.5t119.5 -60t70.5 -115t5 -176.5q-25 -177 -135.5 -268.5t-277.5 -91.5h-217z" />
    <glyph glyph-name="E" unicode="E" horiz-adv-x="524" 
d="M511 413l-11 -75h-301l-36 -262h333l-17 -76h-410l102 730h404l-17 -75h-314l-34 -242h301z" />
    <glyph glyph-name="F" unicode="F" horiz-adv-x="469" 
d="M489 409l-10 -70h-279l-48 -339h-83l102 730h379l-17 -75h-289l-35 -246h280z" />
    <glyph glyph-name="G" unicode="G" horiz-adv-x="653" 
d="M370 -11q-104 0 -171.5 53t-90.5 136t-9 186q23 164 123 272.5t257 108.5q126 0 199 -71l-39 -67q-26 26 -71 44.5t-92 18.5q-122 0 -196.5 -87.5t-92.5 -218.5q-19 -131 31 -216t172 -85q40 0 85.5 13.5t73.5 30.5l27 193h-168l16 73h233l-44 -313q-66 -39 -121.5 -55
t-121.5 -16z" />
    <glyph glyph-name="H" unicode="H" horiz-adv-x="670" 
d="M571 340h-371l-48 -340h-83l102 730h83l-44 -316h371l44 316h83l-102 -730h-83z" />
    <glyph glyph-name="I" unicode="I" horiz-adv-x="234" 
d="M262 730l-103 -730h-83l103 730h83z" />
    <glyph glyph-name="J" unicode="J" horiz-adv-x="250" 
d="M114 88l91 642h83l-86 -612q-9 -63 -19.5 -99t-32.5 -67t-60 -43.5t-98 -12.5h-16v69h34q57 0 76 29t28 94z" />
    <glyph glyph-name="K" unicode="K" horiz-adv-x="566" 
d="M324 390l259 -390h-105l-225 343l-60 -49l-42 -294h-83l103 730h83l-50 -354l340 354h109z" />
    <glyph glyph-name="L" unicode="L" horiz-adv-x="449" 
d="M172 730h83l-92 -654h298l-16 -76h-376z" />
    <glyph glyph-name="M" unicode="M" horiz-adv-x="815" 
d="M229 577l-81 -577h-78l102 730h90l175 -561l330 561h86l-103 -730h-78l81 574l-283 -485h-91z" />
    <glyph glyph-name="N" unicode="N" horiz-adv-x="681" 
d="M616 0h-92l-292 605l-85 -605h-78l102 730h91l295 -606l85 606h77z" />
    <glyph glyph-name="O" unicode="O" horiz-adv-x="758" 
d="M475 670q-120 0 -194.5 -82t-94.5 -224q-18 -134 32 -217.5t172 -83.5t195.5 83.5t91.5 217.5q19 141 -31.5 223.5t-170.5 82.5zM379 -11q-160 0 -232 104t-49 271q24 173 127 277t260 104t231 -104t50 -277q-23 -166 -125.5 -270.5t-261.5 -104.5z" />
    <glyph glyph-name="P" unicode="P" horiz-adv-x="533" 
d="M323 380q55 0 92.5 12.5t56 37t26.5 47t13 55.5q9 62 -26 91.5t-102 29.5h-140l-38 -272q87 -1 118 -1zM151 0h-83l103 730h222q105 0 161 -48t42 -148q-8 -54 -25.5 -93.5t-50 -71.5t-86.5 -48t-128 -16q-32 0 -111 7z" />
    <glyph glyph-name="Q" unicode="Q" horiz-adv-x="809" 
d="M379 -11q-160 0 -232 104t-49 271q24 173 127 277t260 104t231 -104t50 -277q-18 -129 -85 -223t-173 -131q14 -46 48 -104.5t50 -76.5l-62 -58q-19 24 -59 95t-58 126q-24 -3 -48 -3zM475 670q-120 0 -194.5 -82t-94.5 -224q-18 -134 32 -217.5t172 -83.5t195.5 83.5
t91.5 217.5q19 141 -31.5 223.5t-170.5 82.5z" />
    <glyph glyph-name="R" unicode="R" horiz-adv-x="614" 
d="M244 655l-35 -244l162 -2q89 -1 128 30t48 99q9 59 -19 88t-104 29h-180zM585 0h-93l-61 227q-26 93 -33 109q-26 -2 -79 -2l-120 4l-47 -338h-83l102 730h218q68 0 111 -6.5t78 -26t47 -58.5t4 -99q-10 -70 -49.5 -119t-107.5 -67l6 -16q7 -17 16.5 -42t14.5 -41z" />
    <glyph glyph-name="S" unicode="S" horiz-adv-x="562" 
d="M51 49l34 70q100 -56 218 -56q148 0 169 145q6 47 -13.5 76.5t-78.5 45.5l-130 36q-149 41 -129 176q14 103 88 153t191 50q126 0 198 -53l-34 -68q-28 18 -76.5 32t-99.5 14q-164 0 -182 -123q-11 -79 87 -105l124 -33q79 -21 115 -67t24 -131q-15 -111 -86 -166.5
t-181 -55.5q-154 0 -238 60z" />
    <glyph glyph-name="T" unicode="T" horiz-adv-x="486" 
d="M91 655l10 75h490l-11 -75h-204l-91 -655h-83l91 655h-202z" />
    <glyph glyph-name="U" unicode="U" horiz-adv-x="634" 
d="M315 -11q-141 0 -189.5 69t-30.5 197l67 475h83l-66 -472q-15 -106 19.5 -151.5t127.5 -45.5q92 0 139.5 45.5t62.5 151.5l66 472h83l-67 -475q-18 -128 -85.5 -197t-209.5 -69z" />
    <glyph glyph-name="V" unicode="V" horiz-adv-x="574" 
d="M300 95q194 418 297 635h85l-351 -730h-88l-145 730h87z" />
    <glyph glyph-name="W" unicode="W" horiz-adv-x="972" 
d="M715 95l287 635h85l-337 -730h-96l-75 598l-266 -598h-95l-128 730h86l106 -634l262 608h96z" />
    <glyph glyph-name="X" unicode="X" horiz-adv-x="596" 
d="M5 0l296 381l-178 349h100l142 -294l237 294h88l-278 -349l180 -381h-96l-149 332l-250 -332h-92z" />
    <glyph glyph-name="Y" unicode="Y" horiz-adv-x="569" 
d="M672 730l-316 -430l-42 -300h-83l43 300l-172 430h86l144 -350l251 350h89z" />
    <glyph glyph-name="Z" unicode="Z" horiz-adv-x="545" 
d="M629 730l-8 -60l-466 -594h379l-16 -76h-476l10 68l460 587h-362l11 75h468z" />
    <glyph glyph-name="bracketleft" unicode="[" horiz-adv-x="314" 
d="M258 -68l-8 -59h-211l121 862h211l-9 -61h-127l-104 -742h127z" />
    <glyph glyph-name="backslash" unicode="\" horiz-adv-x="424" 
d="M393 -59h-66l-188 775h67z" />
    <glyph glyph-name="bracketright" unicode="]" horiz-adv-x="314" 
d="M42 -68h126l105 742h-127l8 61h211l-121 -862h-211z" />
    <glyph glyph-name="asciicircum" unicode="^" horiz-adv-x="546" 
d="M147 306h-62l271 455h48l146 -455h-61l-123 365z" />
    <glyph glyph-name="underscore" unicode="_" horiz-adv-x="568" 
d="M492 -76l-10 -67h-432l10 67h432z" />
    <glyph glyph-name="grave" unicode="`" horiz-adv-x="298" 
d="M277 611l-125 189h118l60 -189h-53z" />
    <glyph glyph-name="a" unicode="a" horiz-adv-x="444" 
d="M193 52q34 0 76 20.5t68 52.5l17 124q-41 -7 -42 -7q-101 -14 -139.5 -37t-45.5 -75q-11 -78 66 -78zM330 58q-63 -70 -154 -70q-61 0 -95 35t-24 104q4 28 14.5 51t23 38.5t34.5 28.5t39 20.5t47 14.5t48 10.5t52 8.5l47 6l9 57q12 91 -78 91q-78 0 -148 -34l-11 62
q71 41 167 41q161 0 140 -147l-52 -375h-57z" />
    <glyph glyph-name="b" unicode="b" horiz-adv-x="497" 
d="M264 -12q-47 0 -81 23.5t-49 66.5l-11 -78h-70l102 726l72 11l-43 -308q32 47 74 70t83 23q91 0 131.5 -76t25.5 -185q-17 -117 -79 -195t-155 -78zM269 55q35 0 64 18t47 48.5t29 63.5t16 70q5 47 2.5 91.5t-28.5 76.5t-72 32q-61 -1 -108 -56t-60 -144
q-12 -87 14.5 -143.5t95.5 -56.5z" />
    <glyph glyph-name="c" unicode="c" horiz-adv-x="402" 
d="M375 93l10 -56q-52 -49 -131 -49q-103 0 -151.5 77.5t-32.5 189.5q16 111 87.5 189t170.5 78q83 0 118 -46l-25 -56q-43 35 -103 35q-63 0 -113.5 -57.5t-62.5 -144.5t22.5 -142.5t102.5 -55.5q55 0 108 38z" />
    <glyph glyph-name="d" unicode="d" horiz-adv-x="496" 
d="M244 61q68 0 111 54.5t55 140.5t-15 140t-97 54q-65 0 -104.5 -57t-50.5 -135q-12 -84 11.5 -140.5t89.5 -56.5zM229 -12q-91 0 -133 75.5t-25 197.5q16 111 80.5 186t150.5 75q47 0 83.5 -24.5t48.5 -65.5l41 294l71 11l-103 -737h-62l3 83q-27 -42 -68 -68.5t-87 -26.5
z" />
    <glyph glyph-name="e" unicode="e" horiz-adv-x="459" 
d="M244 -12q-98 0 -144 72t-29 195q16 114 83 189t157 78q85 0 125 -66.5t24 -179.5l-5 -35h-314q-12 -83 20.5 -133t94.5 -50q78 0 153 50l14 -56q-72 -64 -179 -64zM151 294h245q11 78 -15.5 120t-79.5 42q-52 0 -93 -44t-57 -118z" />
    <glyph glyph-name="f" unicode="f" horiz-adv-x="269" 
d="M81 452l8 57h67l3 18q20 132 58.5 177.5t122.5 45.5h30v-62h-39q-52 0 -70 -32t-32 -128l-2 -19h104l-8 -57h-104l-64 -452h-70l63 452h-67z" />
    <glyph glyph-name="g" unicode="g" horiz-adv-x="493" 
d="M104 -245v74h86q53 0 88 13t55 43.5t29.5 64t17.5 90.5l7 47q-64 -87 -154 -87q-64 0 -105 39.5t-53.5 95.5t-3.5 118q17 117 79 193t162 76q85 0 126 -84l10 71h68l-68 -480q-9 -60 -21 -101t-40 -84.5t-80.5 -66t-128.5 -22.5h-74zM253 70q69 0 108 47.5t50 122.5l5 37
q11 77 -15.5 126.5t-93.5 49.5q-68 0 -110 -60t-53 -136q-10 -73 17 -130t92 -57z" />
    <glyph glyph-name="h" unicode="h" horiz-adv-x="473" 
d="M170 345l-49 -345h-70l102 726l72 11l-42 -299q72 84 175 84q140 0 110 -213l-44 -309h-70l41 284q15 86 1 127t-70 41q-51 0 -96 -34t-60 -73z" />
    <glyph glyph-name="i" unicode="i" horiz-adv-x="206" 
d="M244 730l-14 -96h-70l14 96h70zM217 536l-76 -536h-70l75 536h71z" />
    <glyph glyph-name="j" unicode="j" horiz-adv-x="185" 
d="M239 730l-14 -96h-70l13 96h71zM211 536l-85 -604q-15 -101 -48 -139t-116 -38h-22l1 74h22q53 0 69 22.5t25 89.5l84 595h70z" />
    <glyph glyph-name="k" unicode="k" horiz-adv-x="425" 
d="M153 728l72 9l-60 -428l236 227h96l-228 -223l166 -313h-90l-136 275l-56 -50l-32 -225h-70z" />
    <glyph glyph-name="l" unicode="l" horiz-adv-x="237" 
d="M238 737l-74 -527q-14 -88 -9.5 -120.5t38.5 -32.5q5 0 38 3l-4 -64q-29 -6 -49 -6q-28 0 -47 4.5t-30 19t-16 28.5t-4 47t4 60t11 80l71 499z" />
    <glyph glyph-name="m" unicode="m" horiz-adv-x="749" 
d="M121 0h-70l53 380l17 129h61l-5 -78q72 91 168 91q101 0 116 -98q69 98 172 98q141 0 113 -198l-45 -324h-70l37 264q5 34 7 54t3 44.5t-2.5 38t-10.5 26.5t-20.5 18.5t-32.5 5.5q-44 0 -83 -31t-63 -83l-48 -337h-69l39 280q14 77 1 124t-62 47q-51 0 -95 -32t-62 -74z
" />
    <glyph glyph-name="n" unicode="n" horiz-adv-x="472" 
d="M353 522q75 0 102 -54t12 -163l-43 -305h-70l36 254q19 98 8.5 148t-69.5 50q-53 0 -98.5 -34t-60.5 -72l-49 -346h-70l54 385l16 124h61l-5 -78q32 42 80 66.5t96 24.5z" />
    <glyph glyph-name="o" unicode="o" horiz-adv-x="498" 
d="M426 254q12 88 -13 144.5t-98 56.5q-70 0 -115 -59t-57 -144q-11 -83 17.5 -140t99.5 -57q70 0 112 57t54 142zM499 255q-16 -112 -83.5 -189.5t-166.5 -77.5q-101 0 -148 76t-31 190t85 191t170 77q102 0 146.5 -75.5t27.5 -191.5z" />
    <glyph glyph-name="p" unicode="p" horiz-adv-x="495" 
d="M160 254q-12 -87 12.5 -141.5t92.5 -54.5q66 0 106.5 58.5t51.5 137.5t-13 139t-90 60q-68 0 -108 -55.5t-52 -143.5zM23 -224l103 733h67l-6 -71q66 84 153 84q96 0 133.5 -77t20.5 -196q-16 -108 -79 -184.5t-150 -76.5q-95 0 -129 89l-41 -290z" />
    <glyph glyph-name="q" unicode="q" horiz-adv-x="496" 
d="M409 255q12 86 -14.5 140.5t-95.5 54.5q-68 0 -106 -57.5t-50 -137.5q-5 -49 -1.5 -92.5t30 -73t73.5 -29.5q70 0 111 54t53 141zM226 -12q-91 0 -131.5 76t-25.5 186q17 117 79 194.5t158 77.5q92 0 128 -89l11 76h68l-101 -723l-72 -10l43 306q-60 -94 -157 -94z" />
    <glyph glyph-name="r" unicode="r" horiz-adv-x="279" 
d="M125 0h-70l55 392l15 117h60l-7 -92q57 92 146 92h13l-5 -74h-17q-61 0 -100 -39.5t-48 -99.5z" />
    <glyph glyph-name="s" unicode="s" horiz-adv-x="398" 
d="M379 138v-2q-13 -71 -59 -109.5t-113 -38.5q-49 0 -90.5 15t-61.5 35l26 60q56 -42 125 -42h7q39 0 65.5 20.5t35.5 59.5q0 1 0.5 3t0.5 3q7 55 -59 77l-57 19q-63 20 -85 54.5t-16 84.5q8 59 54 101.5t119 43.5q82 0 135 -35l-25 -57q-56 27 -113 27q-39 0 -67 -21.5
t-33 -59.5q-7 -50 56 -69l60 -19q112 -34 95 -150z" />
    <glyph glyph-name="t" unicode="t" horiz-adv-x="290" 
d="M214 452l-39 -281q-10 -71 -1 -92t51 -21q13 0 57 4l-3 -65q-74 -7 -80 -7q-79 0 -95 50t5 165l35 247h-70l13 57h65l46 200l53 5l-29 -205h122l-9 -57h-121z" />
    <glyph glyph-name="u" unicode="u" horiz-adv-x="466" 
d="M72 169l48 340h70l-47 -338q-9 -64 17.5 -90t80.5 -26q113 0 130 116l47 338h70l-48 -340q-13 -94 -71 -137.5t-138 -43.5t-126 44t-33 137z" />
    <glyph glyph-name="v" unicode="v" horiz-adv-x="433" 
d="M181 0l-110 509h75l85 -424l197 424h75l-251 -509h-71z" />
    <glyph glyph-name="w" unicode="w" horiz-adv-x="677" 
d="M78 509h73l45 -405l178 405h82l60 -404l156 404h71l-210 -509h-69l-61 431l-189 -431h-70z" />
    <glyph glyph-name="x" unicode="x" horiz-adv-x="437" 
d="M417 509h81l-200 -253l129 -256h-76l-101 204l-158 -204h-81l204 258l-129 251h81l97 -193z" />
    <glyph glyph-name="y" unicode="y" horiz-adv-x="423" 
d="M73 509h74l86 -418l180 418h74l-243 -540q-49 -109 -100 -161.5t-141 -52.5h-23l3 74h12q74 0 103.5 28t82.5 147z" />
    <glyph glyph-name="z" unicode="z" horiz-adv-x="364" 
d="M38 0l9 64l273 383h-221l8 62h302l-9 -62l-275 -384h229l-8 -63h-308z" />
    <glyph glyph-name="braceleft" unicode="{" horiz-adv-x="318" 
d="M181 336q62 -35 48 -146l-15 -114q-13 -74 -5.5 -99.5t53.5 -25.5l-10 -67q-75 0 -103 33t-18 109l19 138q11 47 5 91.5t-43 44.5h-28l10 73h28q20 0 34 11.5t22 34t12.5 41.5t8.5 49l19 138q10 76 48.5 109t113.5 33l-10 -67q-46 0 -59 -22.5t-24 -102.5l-16 -115
q-6 -43 -27.5 -84.5t-62.5 -61.5z" />
    <glyph glyph-name="bar" unicode="|" horiz-adv-x="216" 
d="M255 783l-130 -931h-71l131 931h70z" />
    <glyph glyph-name="braceright" unicode="}" horiz-adv-x="323" 
d="M238 336q-62 35 -48 146l17 115q13 73 4.5 99t-54.5 26l9 67q75 0 104 -33t19 -109l-19 -138q-11 -47 -4.5 -91.5t43.5 -44.5h27l-10 -73h-28q-20 0 -34 -11.5t-22 -34t-12.5 -41.5t-8.5 -49l-19 -138q-10 -76 -48.5 -109t-114.5 -33l9 67q46 0 60 23t25 102l16 114
q6 44 27 85t62 61z" />
    <glyph glyph-name="asciitilde" unicode="~" horiz-adv-x="612" 
d="M252 371q39 0 114 -42t94 -42q30 0 55.5 27.5t39.5 65.5l50 -20q-20 -66 -60 -105t-94 -39q-28 0 -102.5 42t-104.5 42q-34 0 -61.5 -28t-41.5 -69l-44 28q18 59 58.5 99.5t96.5 40.5z" />
    <glyph glyph-name="uni00A0" unicode="&#xa0;" horiz-adv-x="142" 
 />
    <glyph glyph-name="exclamdown" unicode="&#xa1;" horiz-adv-x="229" 
d="M207 365l-80 -568h-64l80 568h64zM137 465l15 108h88l-15 -108h-88z" />
    <glyph glyph-name="cent" unicode="&#xa2;" horiz-adv-x="504" 
d="M83 349q-16 -110 30.5 -187t146.5 -80l10 67q-64 4 -95.5 59t-19.5 139q11 85 60 142.5t111 59.5l10 67q-98 -2 -167.5 -80t-85.5 -187zM331 549q17 0 39 -5l-56 -391q-15 -4 -34 -4h-10l56 400h5zM398 131l-10 56q-34 -25 -74 -34l-9 -68q56 11 93 46zM459 570
q-28 34 -80 43l-9 -69q37 -8 64 -30zM352 730h44l-17 -117q-18 3 -38 3h-5zM293 0h-44l11 82h7q19 0 38 3z" />
    <glyph glyph-name="sterling" unicode="&#xa3;" horiz-adv-x="500" 
d="M94 345l10 70h79l5 42q7 51 16 88.5t27 77.5t43 65t64.5 41t91.5 16q106 0 150 -86l-51 -53q-42 64 -109 64q-118 0 -144 -178l-11 -77h181l-10 -70h-181l-12 -86q-20 -133 -75 -185q38 5 41 5h281l-11 -79h-419v67q47 25 67.5 62t29.5 99l16 117h-79z" />
    <glyph glyph-name="currency" unicode="&#xa4;" horiz-adv-x="467" 
d="M153 362q-10 -70 29 -119.5t104 -49.5t117.5 49.5t62.5 119.5t-29 119t-104 49t-117.5 -49t-62.5 -119zM199 520q64 54 140 54q78 0 126 -56l124 107l17 -27l-122 -106q35 -56 24 -130q-10 -73 -61 -130l93 -106l-24 -27l-95 107q-65 -57 -142 -57q-76 0 -125 56
l-122 -106l-20 25l124 106q-36 59 -26 132q10 71 63 131l-94 107l27 25z" />
    <glyph glyph-name="yen" unicode="&#xa5;" horiz-adv-x="500" 
d="M309 161l-23 -161h-71l23 161h-178l8 60h178l13 94h-176l8 60h160l-140 355h82l118 -303l208 303h77l-246 -355h159l-9 -60h-170l-13 -94h172l-9 -60h-171z" />
    <glyph glyph-name="brokenbar" unicode="&#xa6;" horiz-adv-x="206" 
d="M121 -147h-71l44 313h71zM207 471h-70l44 312h70z" />
    <glyph glyph-name="section" unicode="&#xa7;" horiz-adv-x="449" 
d="M289 288q74 46 81 92q3 17 -2.5 31t-18.5 24t-25 17t-29 14.5t-25 12.5q-68 -42 -75 -89q-5 -35 17 -55.5t77 -46.5zM465 763l-11 -77q-39 27 -96 27q-103 0 -113 -71q-5 -32 14.5 -54.5t75.5 -50.5q60 -32 88 -65t21 -84q-11 -77 -96 -136q30 -22 43.5 -49t7.5 -70
q-10 -74 -68 -115.5t-138 -41.5q-70 0 -114 26l11 79q55 -35 111 -35q52 0 86 23.5t39 58.5q4 31 -14.5 48t-72.5 44l-37 19q-93 51 -80 144q11 82 96 130q-29 26 -40.5 54.5t-5.5 72.5q10 71 62.5 108t130.5 37q51 0 100 -22z" />
    <glyph glyph-name="dieresis" unicode="&#xa8;" horiz-adv-x="354" 
d="M213 612h-71l14 104h72zM394 612h-73l14 104h73z" />
    <glyph glyph-name="copyright" unicode="&#xa9;" horiz-adv-x="841" 
d="M578 224l10 -52q-64 -40 -152 -40q-95 0 -146.5 71t-35.5 180q16 110 87 181t170 71q82 0 135 -44l-34 -47q-39 33 -112 33q-76 0 -123.5 -55t-58.5 -137q-13 -87 21 -141.5t115 -54.5q31 0 67 10.5t57 24.5zM418 33q149 0 245 98.5t117 248.5t-48 249.5t-218 99.5
q-141 0 -236.5 -100t-115.5 -247q-21 -150 46 -249.5t210 -99.5zM833 381q-11 -77 -40 -142t-69.5 -111t-91.5 -78t-106.5 -47.5t-113.5 -15.5q-69 0 -128.5 25t-104.5 72.5t-64.5 124.5t-6.5 172t54.5 171.5t99 124t124 72.5t135.5 25q153 0 245.5 -103.5t66.5 -289.5z" />
    <glyph glyph-name="ordfeminine" unicode="&#xaa;" horiz-adv-x="347" 
d="M223 458q35 0 58 32t31 80l1 13q-13 -3 -41 -7t-43.5 -7.5t-30.5 -17t-19 -37.5q-7 -56 44 -56zM207 403q-40 0 -62.5 30t-15.5 80q6 44 35 74t71 39q16 3 46 6l40 4q7 48 -2 65.5t-41 17.5q-56 0 -84 -48l-21 38q36 67 115 67q44 0 68 -31.5t15 -95.5l-25 -170
q-2 -14 -7 -65h-48l4 38q-35 -49 -88 -49z" />
    <glyph glyph-name="guillemotleft" unicode="&#xab;" horiz-adv-x="449" 
d="M253 285l148 194h63l-132 -194l74 -196h-61zM96 285l138 194h78l-147 -194l87 -196h-76z" />
    <glyph glyph-name="logicalnot" unicode="&#xac;" horiz-adv-x="583" 
d="M537 125h-62l31 221h-403l10 74h466z" />
    <glyph glyph-name="uni00AD" unicode="&#xad;" horiz-adv-x="561" 
d="M506 0h-444l10 72h445z" />
    <glyph glyph-name="registered" unicode="&#xae;" horiz-adv-x="835" 
d="M470 350h-84l-28 -203h-62l67 477h119q103 0 148.5 -33.5t36.5 -98.5q-17 -117 -139 -133q13 -13 25 -34t20.5 -42t24.5 -62.5t30 -73.5h-70l-41 109q-29 77 -47 94zM452 412q67 0 100.5 16t39.5 60q6 46 -20.5 59.5t-102.5 13.5h-53l-21 -149h57zM419 33
q149 0 245.5 98.5t117.5 248.5t-48.5 249.5t-218.5 99.5q-142 0 -237.5 -100t-115.5 -247q-21 -150 46.5 -249.5t210.5 -99.5zM835 381q-18 -126 -83.5 -217.5t-153 -134t-185.5 -42.5q-69 0 -129 25t-104.5 72.5t-64.5 124.5t-7 172t54.5 171.5t99 124t124 72.5t135.5 25
q73 0 135 -25t107 -73t65 -124t7 -171z" />
    <glyph glyph-name="uni00AF" unicode="&#xaf;" horiz-adv-x="482" 
d="M537 793l-9 -67h-363l9 67h363z" />
    <glyph glyph-name="degree" unicode="&#xb0;" horiz-adv-x="374" 
d="M252 449q-53 0 -84.5 46t-22.5 110q9 63 53.5 108.5t97.5 45.5t84.5 -45.5t22.5 -108.5q-9 -64 -53.5 -110t-97.5 -46zM287 698q-32 0 -58.5 -27t-31.5 -66q-5 -40 13.5 -67t50.5 -27t59.5 27.5t32.5 66.5t-14.5 66t-51.5 27z" />
    <glyph glyph-name="plusminus" unicode="&#xb1;" horiz-adv-x="562" 
d="M117 385h189l27 198h63l-28 -198h193l-10 -72h-191l-27 -196h-63l27 196h-191zM508 0h-446l10 72h447z" />
    <glyph glyph-name="twosuperior" unicode="&#xb2;" horiz-adv-x="348" 
d="M328 317h-221l9 58q74 77 106 111t63 78t35 72q4 27 -8.5 43t-39.5 16q-49 0 -84 -69l-27 41q19 42 52 66t72 24q46 0 71 -33t18 -87q-9 -60 -53 -117t-131 -140h146z" />
    <glyph glyph-name="threesuperior" unicode="&#xb3;" horiz-adv-x="345" 
d="M259 695q-37 0 -81 -41l-17 50q51 54 109 54q44 0 72 -33t20 -88q-9 -63 -57 -94q49 -32 39 -104q-8 -59 -48 -95t-91 -36q-61 0 -93 51l33 50q30 -41 66 -41q29 0 52.5 20t27.5 53q5 37 -14.5 53.5t-62.5 16.5h-22l9 62h20q79 0 88 63q4 29 -10 44t-40 15z" />
    <glyph glyph-name="acute" unicode="&#xb4;" horiz-adv-x="297" 
d="M378 800l-179 -190h-53l114 190h118z" />
    <glyph glyph-name="paragraph" unicode="&#xb6;" horiz-adv-x="492" 
d="M232 -77h-59l69 491q-57 1 -90.5 51.5t-22.5 129.5q24 167 239 167h169l-9 -64h-34l-109 -775h-53l108 775h-99z" />
    <glyph glyph-name="periodcentered" unicode="&#xb7;" horiz-adv-x="216" 
d="M166 389q30 0 43 -19.5t10 -45.5t-22.5 -45t-49.5 -19q-29 0 -42.5 19t-10.5 45t23 45.5t49 19.5z" />
    <glyph glyph-name="cedilla" unicode="&#xb8;" horiz-adv-x="273" 
d="M26 -197l10 45q41 -13 60 -13q46 0 51 38q3 20 -8 29.5t-32 9.5h-3q-2 0 -5.5 -0.5t-6.5 -0.5l-13 -1l26 98h41l-15 -55h4q35 0 55.5 -20t15.5 -58q-6 -40 -36 -61.5t-74 -21.5q-26 0 -70 11z" />
    <glyph glyph-name="onesuperior" unicode="&#xb9;" horiz-adv-x="280" 
d="M280 751l-52 -373h48l-8 -61h-147l8 63h49l40 288q-30 -18 -66 -36l10 69q44 18 74 41z" />
    <glyph glyph-name="ordmasculine" unicode="&#xba;" horiz-adv-x="385" 
d="M194 589q-8 -57 8 -93.5t56 -36.5q37 0 63.5 37t34.5 91q8 57 -8.5 94.5t-54.5 37.5t-64.5 -37.5t-34.5 -92.5zM301 776q62 0 90.5 -53.5t16.5 -134.5q-12 -80 -54.5 -132.5t-103.5 -52.5q-64 0 -92 53t-16 135q12 81 54.5 133t104.5 52z" />
    <glyph glyph-name="guillemotright" unicode="&#xbb;" horiz-adv-x="457" 
d="M282 286l-148 -197h-63l133 197l-76 193h62zM448 286l-137 -197h-74l143 197l-83 193h72z" />
    <glyph glyph-name="onequarter" unicode="&#xbc;" horiz-adv-x="734" 
d="M652 20h-49l13 97h-177l7 49l210 273h56l-37 -264h43l-4 -58h-48zM660 755h66l-530 -755h-61zM145 632l10 69q42 17 73 41l45 9l-53 -373h51l-8 -61h-150l9 63h49l39 288q-35 -21 -65 -36zM512 175h112l17 122q2 15 5 33t3 20z" />
    <glyph glyph-name="onehalf" unicode="&#xbd;" horiz-adv-x="726" 
d="M665 -15h-239l8 60q63 56 93.5 84t68 66.5t54 64t19.5 46.5q4 27 -11.5 42.5t-46.5 15.5q-59 0 -98 -69l-34 41q22 43 60 66.5t84 23.5q52 0 79 -32.5t20 -86.5q-5 -32 -20.5 -63t-48.5 -67.5t-57 -59.5t-75 -69h152zM639 755h70l-533 -755h-63zM146 632l10 69
q40 16 73 41l45 9l-52 -373h56l-8 -61h-156l9 63h49l40 288q-30 -18 -66 -36z" />
    <glyph glyph-name="threequarters" unicode="&#xbe;" horiz-adv-x="744" 
d="M521 176h112q20 143 26 176zM663 21h-50l13 99h-177l6 47l211 274h56l-37 -265h44l-4 -56h-48zM677 755h67l-531 -755h-61zM169 654l-16 50q51 54 110 54q46 0 78.5 -33.5t24.5 -87.5q-9 -63 -67 -94q58 -31 48 -104q-8 -58 -53 -94.5t-97 -36.5q-60 0 -92 51l30 50
q30 -41 68 -41q30 0 53.5 20t27.5 53q5 37 -15 53.5t-62 16.5h-23l9 62h20q79 0 88 63q4 29 -9.5 44t-39.5 15q-39 0 -83 -41z" />
    <glyph glyph-name="questiondown" unicode="&#xbf;" horiz-adv-x="399" 
d="M380 715l-16 -112h-103l15 112h104zM350 101l11 -61q-71 -52 -147 -52q-79 0 -121 42.5t-31 120.5q6 43 27.5 78t48 58.5t53 46t47 51.5t25.5 63l7 54h63l-3 -32q-2 -29 -5 -53q-5 -34 -33.5 -67.5t-60.5 -56.5t-61 -60t-35 -78q-6 -46 22 -71t77 -25q10 0 20 1.5t17.5 3
t17 5t15 5.5t14 7t11.5 7t11.5 7t9.5 6z" />
    <glyph glyph-name="Agrave" unicode="&#xc0;" horiz-adv-x="635" 
d="M233 298h217l-54 348zM510 0l-42 231h-270l-113 -231h-82l356 730h96l139 -730h-84zM482 802l-125 189h118l60 -189h-53z" />
    <glyph glyph-name="Aacute" unicode="&#xc1;" horiz-adv-x="635" 
d="M233 298h217l-54 348zM510 0l-42 231h-270l-113 -231h-82l356 730h96l139 -730h-84zM561 991l-179 -190h-53l114 190h118z" />
    <glyph glyph-name="Acircumflex" unicode="&#xc2;" horiz-adv-x="635" 
d="M233 298h217l-54 348zM510 0l-42 231h-270l-113 -231h-82l356 730h96l139 -730h-84zM292 802l115 189h100l61 -189h-63l-57 133l-94 -133h-62z" />
    <glyph glyph-name="Atilde" unicode="&#xc3;" horiz-adv-x="635" 
d="M233 298h217l-54 348zM510 0l-42 231h-270l-113 -231h-82l356 730h96l139 -730h-84zM337 821h-50q15 107 93 107q34 0 79 -23t49 -23h1q19 1 28 46h50q-14 -107 -83 -107q-21 0 -69.5 24t-65.5 24h-1q-22 0 -31 -48z" />
    <glyph glyph-name="Adieresis" unicode="&#xc4;" horiz-adv-x="635" 
d="M233 298h217l-54 348zM510 0l-42 231h-270l-113 -231h-82l356 730h96l139 -730h-84zM375 803h-71l14 104h72zM556 803h-73l14 104h73z" />
    <glyph glyph-name="Aring" unicode="&#xc5;" horiz-adv-x="635" 
d="M233 298h217l-54 348zM510 0l-42 231h-270l-113 -231h-82l356 730h96l139 -730h-84zM457 991q37 0 59.5 -27.5t16.5 -68.5q-6 -40 -35.5 -65t-65.5 -25q-38 0 -61 24.5t-17 65.5q6 42 36.5 69t66.5 27zM436 840q17 0 32.5 16.5t18.5 38.5q3 23 -7.5 39.5t-28.5 16.5
q-17 0 -33 -17t-19 -39q-3 -25 6.5 -40t30.5 -15z" />
    <glyph glyph-name="AE" unicode="&#xc6;" horiz-adv-x="949" 
d="M40 0l480 766h473l-12 -78h-319l-19 -257h287l-11 -77h-278l-19 -277h283l-11 -77h-355l15 208h-305l-131 -208h-78zM583 688h-23l-262 -400h257z" />
    <glyph glyph-name="Ccedilla" unicode="&#xc7;" horiz-adv-x="626" 
d="M194 -197l10 45q41 -13 60 -13q46 0 51 38q3 20 -8 29.5t-32 9.5h-3q-2 0 -5.5 -0.5t-6.5 -0.5l-13 -1l25 93q-104 33 -148.5 131t-25.5 230q23 167 125 274t255 107q122 0 189 -67l-38 -66q-62 58 -159 58q-117 0 -191 -87.5t-93 -218.5q-11 -58 -2.5 -112.5t29.5 -96.5
t66.5 -67t110.5 -25q92 0 171 60l16 -71q-75 -63 -205 -63q-30 0 -62 5l-11 -41h4q35 0 55.5 -20t15.5 -58q-6 -40 -36 -61.5t-74 -21.5q-26 0 -70 11z" />
    <glyph glyph-name="Egrave" unicode="&#xc8;" horiz-adv-x="556" 
d="M511 413l-11 -75h-301l-36 -262h333l-17 -76h-410l102 730h404l-17 -75h-314l-34 -242h301zM434 802l-125 189h118l60 -189h-53z" />
    <glyph glyph-name="Eacute" unicode="&#xc9;" horiz-adv-x="556" 
d="M511 413l-11 -75h-301l-36 -262h333l-17 -76h-410l102 730h404l-17 -75h-314l-34 -242h301zM513 991l-179 -190h-53l114 190h118z" />
    <glyph glyph-name="Ecircumflex" unicode="&#xca;" horiz-adv-x="556" 
d="M511 413l-11 -75h-301l-36 -262h333l-17 -76h-410l102 730h404l-17 -75h-314l-34 -242h301zM245 802l115 189h100l61 -189h-63l-57 133l-94 -133h-62z" />
    <glyph glyph-name="Edieresis" unicode="&#xcb;" horiz-adv-x="556" 
d="M511 413l-11 -75h-301l-36 -262h333l-17 -76h-410l102 730h404l-17 -75h-314l-34 -242h301zM327 803h-71l14 104h72zM508 803h-73l14 104h73z" />
    <glyph glyph-name="Igrave" unicode="&#xcc;" horiz-adv-x="248" 
d="M262 730l-103 -730h-83l103 730h83zM280 802l-125 189h118l60 -189h-53z" />
    <glyph glyph-name="Iacute" unicode="&#xcd;" horiz-adv-x="248" 
d="M262 730l-103 -730h-83l103 730h83zM359 991l-179 -190h-53l114 190h118z" />
    <glyph glyph-name="Icircumflex" unicode="&#xce;" horiz-adv-x="248" 
d="M262 730l-103 -730h-83l103 730h83zM91 802l115 189h100l61 -189h-63l-57 133l-94 -133h-62z" />
    <glyph glyph-name="Idieresis" unicode="&#xcf;" horiz-adv-x="248" 
d="M262 730l-103 -730h-83l103 730h83zM173 803h-71l14 104h72zM354 803h-73l14 104h73z" />
    <glyph glyph-name="Eth" unicode="&#xd0;" horiz-adv-x="743" 
d="M61 340l9 66h55l46 324h171q93 0 162 -18.5t119.5 -60t70.5 -115t5 -176.5q-25 -177 -135.5 -268.5t-277.5 -91.5h-217l47 340h-55zM244 655l-35 -249h105l-9 -66h-105l-37 -264h143q127 0 206 71.5t98 210.5q12 84 -1.5 143t-51 92t-90 47.5t-125.5 14.5h-98z" />
    <glyph glyph-name="Ntilde" unicode="&#xd1;" horiz-adv-x="726" 
d="M616 0h-92l-292 605l-85 -605h-78l102 730h91l295 -606l85 606h77zM375 821h-50q15 107 93 107q34 0 79 -23t49 -23h1q19 1 28 46h50q-14 -107 -83 -107q-21 0 -69.5 24t-65.5 24h-1q-22 0 -31 -48z" />
    <glyph glyph-name="Ograve" unicode="&#xd2;" horiz-adv-x="811" 
d="M475 670q-120 0 -194.5 -82t-94.5 -224q-18 -134 32 -217.5t172 -83.5t195.5 83.5t91.5 217.5q19 141 -31.5 223.5t-170.5 82.5zM379 -11q-160 0 -232 104t-49 271q24 173 127 277t260 104t231 -104t50 -277q-23 -166 -125.5 -270.5t-261.5 -104.5zM562 802l-125 189h118
l60 -189h-53z" />
    <glyph glyph-name="Oacute" unicode="&#xd3;" horiz-adv-x="811" 
d="M475 670q-120 0 -194.5 -82t-94.5 -224q-18 -134 32 -217.5t172 -83.5t195.5 83.5t91.5 217.5q19 141 -31.5 223.5t-170.5 82.5zM379 -11q-160 0 -232 104t-49 271q24 173 127 277t260 104t231 -104t50 -277q-23 -166 -125.5 -270.5t-261.5 -104.5zM641 991l-179 -190
h-53l114 190h118z" />
    <glyph glyph-name="Ocircumflex" unicode="&#xd4;" horiz-adv-x="811" 
d="M475 670q-120 0 -194.5 -82t-94.5 -224q-18 -134 32 -217.5t172 -83.5t195.5 83.5t91.5 217.5q19 141 -31.5 223.5t-170.5 82.5zM379 -11q-160 0 -232 104t-49 271q24 173 127 277t260 104t231 -104t50 -277q-23 -166 -125.5 -270.5t-261.5 -104.5zM372 802l115 189h100
l61 -189h-63l-57 133l-94 -133h-62z" />
    <glyph glyph-name="Otilde" unicode="&#xd5;" horiz-adv-x="811" 
d="M475 670q-120 0 -194.5 -82t-94.5 -224q-18 -134 32 -217.5t172 -83.5t195.5 83.5t91.5 217.5q19 141 -31.5 223.5t-170.5 82.5zM379 -11q-160 0 -232 104t-49 271q24 173 127 277t260 104t231 -104t50 -277q-23 -166 -125.5 -270.5t-261.5 -104.5zM417 821h-50
q15 107 93 107q34 0 79 -23t49 -23h1q19 1 28 46h50q-14 -107 -83 -107q-21 0 -69.5 24t-65.5 24h-1q-22 0 -31 -48z" />
    <glyph glyph-name="Odieresis" unicode="&#xd6;" horiz-adv-x="811" 
d="M475 670q-120 0 -194.5 -82t-94.5 -224q-18 -134 32 -217.5t172 -83.5t195.5 83.5t91.5 217.5q19 141 -31.5 223.5t-170.5 82.5zM379 -11q-160 0 -232 104t-49 271q24 173 127 277t260 104t231 -104t50 -277q-23 -166 -125.5 -270.5t-261.5 -104.5zM455 803h-71l14 104
h72zM636 803h-73l14 104h73z" />
    <glyph glyph-name="multiply" unicode="&#xd7;" horiz-adv-x="451" 
d="M455 447l-142 -155l98 -156l-50 -55l-104 156l-151 -156l-33 54l143 157l-99 156l49 53l106 -156l148 156z" />
    <glyph glyph-name="Oslash" unicode="&#xd8;" horiz-adv-x="785" 
d="M329 84q30 -10 72 -10q120 0 194.5 86t93.5 223q26 184 -69 263zM659 852l56 -22l-50 -99q149 -95 114 -351q-25 -176 -127 -284t-262 -108q-61 0 -104 14l-47 -90l-53 21l47 93q-78 45 -109 138t-14 216q26 182 129 288t260 106q60 0 111 -17zM488 688
q-118 0 -193.5 -85.5t-94.5 -219.5q-13 -92 6.5 -163.5t70.5 -108.5l291 564q-33 13 -80 13z" />
    <glyph glyph-name="Ugrave" unicode="&#xd9;" horiz-adv-x="676" 
d="M315 -11q-141 0 -189.5 69t-30.5 197l67 475h83l-66 -472q-15 -106 19.5 -151.5t127.5 -45.5q92 0 139.5 45.5t62.5 151.5l66 472h83l-67 -475q-18 -128 -85.5 -197t-209.5 -69zM494 802l-125 189h118l60 -189h-53z" />
    <glyph glyph-name="Uacute" unicode="&#xda;" horiz-adv-x="676" 
d="M315 -11q-141 0 -189.5 69t-30.5 197l67 475h83l-66 -472q-15 -106 19.5 -151.5t127.5 -45.5q92 0 139.5 45.5t62.5 151.5l66 472h83l-67 -475q-18 -128 -85.5 -197t-209.5 -69zM573 991l-179 -190h-53l114 190h118z" />
    <glyph glyph-name="Ucircumflex" unicode="&#xdb;" horiz-adv-x="676" 
d="M315 -11q-141 0 -189.5 69t-30.5 197l67 475h83l-66 -472q-15 -106 19.5 -151.5t127.5 -45.5q92 0 139.5 45.5t62.5 151.5l66 472h83l-67 -475q-18 -128 -85.5 -197t-209.5 -69zM305 802l115 189h100l61 -189h-63l-57 133l-94 -133h-62z" />
    <glyph glyph-name="Udieresis" unicode="&#xdc;" horiz-adv-x="676" 
d="M315 -11q-141 0 -189.5 69t-30.5 197l67 475h83l-66 -472q-15 -106 19.5 -151.5t127.5 -45.5q92 0 139.5 45.5t62.5 151.5l66 472h83l-67 -475q-18 -128 -85.5 -197t-209.5 -69zM387 803h-71l14 104h72zM568 803h-73l14 104h73z" />
    <glyph glyph-name="Yacute" unicode="&#xdd;" horiz-adv-x="606" 
d="M672 730l-316 -430l-42 -300h-83l43 300l-172 430h86l144 -350l251 350h89zM538 991l-179 -190h-53l114 190h118z" />
    <glyph glyph-name="Thorn" unicode="&#xde;" horiz-adv-x="592" 
d="M225 521l-39 -280h174q152 0 171 141q11 73 -24 106t-127 33h-155zM69 0l102 730h83l-19 -136h148q129 0 185.5 -48t41.5 -160q-14 -102 -76.5 -160.5t-177.5 -58.5l-180 3l-24 -170h-83z" />
    <glyph glyph-name="germandbls" unicode="&#xdf;" horiz-adv-x="518" 
d="M336 72q41 0 68 25.5t33 69.5q4 30 -11 58.5t-33.5 45t-51 40.5t-42.5 33q-31 27 -27 57q3 27 36 55q11 9 44 31t48 41t19 49q6 43 -18.5 68t-65.5 25q-117 0 -139 -154l-73 -516h-70l72 511q16 112 71.5 173t149.5 61q80 0 122 -45t31 -123q-3 -22 -11.5 -42t-17 -32.5
t-27 -28t-28 -22t-35 -22t-34.5 -21.5q15 -14 45 -37t50.5 -40.5t41 -41.5t29 -54t3.5 -66q-13 -88 -61.5 -129t-121.5 -41h-144l18 72h130z" />
    <glyph glyph-name="agrave" unicode="&#xe0;" horiz-adv-x="501" 
d="M193 52q34 0 76 20.5t68 52.5l17 124q-41 -7 -42 -7q-101 -14 -139.5 -37t-45.5 -75q-11 -78 66 -78zM330 58q-63 -70 -154 -70q-61 0 -95 35t-24 104q4 28 14.5 51t23 38.5t34.5 28.5t39 20.5t47 14.5t48 10.5t52 8.5l47 6l9 57q12 91 -78 91q-78 0 -148 -34l-11 62
q71 41 167 41q161 0 140 -147l-52 -375h-57zM387 611l-125 189h118l60 -189h-53z" />
    <glyph glyph-name="aacute" unicode="&#xe1;" horiz-adv-x="501" 
d="M193 52q34 0 76 20.5t68 52.5l17 124q-41 -7 -42 -7q-101 -14 -139.5 -37t-45.5 -75q-11 -78 66 -78zM330 58q-63 -70 -154 -70q-61 0 -95 35t-24 104q4 28 14.5 51t23 38.5t34.5 28.5t39 20.5t47 14.5t48 10.5t52 8.5l47 6l9 57q12 91 -78 91q-78 0 -148 -34l-11 62
q71 41 167 41q161 0 140 -147l-52 -375h-57zM466 800l-179 -190h-53l114 190h118z" />
    <glyph glyph-name="acircumflex" unicode="&#xe2;" horiz-adv-x="501" 
d="M193 52q34 0 76 20.5t68 52.5l17 124q-41 -7 -42 -7q-101 -14 -139.5 -37t-45.5 -75q-11 -78 66 -78zM330 58q-63 -70 -154 -70q-61 0 -95 35t-24 104q4 28 14.5 51t23 38.5t34.5 28.5t39 20.5t47 14.5t48 10.5t52 8.5l47 6l9 57q12 91 -78 91q-78 0 -148 -34l-11 62
q71 41 167 41q161 0 140 -147l-52 -375h-57zM198 611l115 189h100l61 -189h-63l-57 133l-94 -133h-62z" />
    <glyph glyph-name="atilde" unicode="&#xe3;" horiz-adv-x="501" 
d="M193 52q34 0 76 20.5t68 52.5l17 124q-41 -7 -42 -7q-101 -14 -139.5 -37t-45.5 -75q-11 -78 66 -78zM330 58q-63 -70 -154 -70q-61 0 -95 35t-24 104q4 28 14.5 51t23 38.5t34.5 28.5t39 20.5t47 14.5t48 10.5t52 8.5l47 6l9 57q12 91 -78 91q-78 0 -148 -34l-11 62
q71 41 167 41q161 0 140 -147l-52 -375h-57zM243 630h-50q15 107 93 107q34 0 79 -23t49 -23h1q19 1 28 46h50q-14 -107 -83 -107q-21 0 -69.5 24t-65.5 24h-1q-22 0 -31 -48z" />
    <glyph glyph-name="adieresis" unicode="&#xe4;" horiz-adv-x="501" 
d="M193 52q34 0 76 20.5t68 52.5l17 124q-41 -7 -42 -7q-101 -14 -139.5 -37t-45.5 -75q-11 -78 66 -78zM330 58q-63 -70 -154 -70q-61 0 -95 35t-24 104q4 28 14.5 51t23 38.5t34.5 28.5t39 20.5t47 14.5t48 10.5t52 8.5l47 6l9 57q12 91 -78 91q-78 0 -148 -34l-11 62
q71 41 167 41q161 0 140 -147l-52 -375h-57zM280 612h-71l14 104h72zM461 612h-73l14 104h73z" />
    <glyph glyph-name="aring" unicode="&#xe5;" horiz-adv-x="501" 
d="M193 52q34 0 76 20.5t68 52.5l17 124q-41 -7 -42 -7q-101 -14 -139.5 -37t-45.5 -75q-11 -78 66 -78zM330 58q-63 -70 -154 -70q-61 0 -95 35t-24 104q4 28 14.5 51t23 38.5t34.5 28.5t39 20.5t47 14.5t48 10.5t52 8.5l47 6l9 57q12 91 -78 91q-78 0 -148 -34l-11 62
q71 41 167 41q161 0 140 -147l-52 -375h-57zM363 800q37 0 59.5 -27.5t16.5 -68.5q-6 -40 -35.5 -65t-65.5 -25q-38 0 -61 24.5t-17 65.5q6 42 36.5 69t66.5 27zM342 649q17 0 32.5 16.5t18.5 38.5q3 23 -7.5 39.5t-28.5 16.5q-17 0 -33 -17t-19 -39q-3 -25 6.5 -40
t30.5 -15z" />
    <glyph glyph-name="ae" unicode="&#xe6;" horiz-adv-x="706" 
d="M56 146q5 37 22.5 64.5t39.5 43t58 25.5t66 13.5t75 6.5q5 0 14 1t13 1l11 80q7 50 -8 73t-58 23q-83 0 -155 -40l-6 67q76 45 169 45q52 0 85 -24t35 -70q59 94 161 94q80 0 109.5 -62t16.5 -153q-5 -38 -22.5 -54t-65.5 -19l-210 -12q-15 -191 104 -191q69 0 143 54
l13 -59q-75 -65 -170 -65q-85 0 -127 67q-104 -68 -199 -68q-60 0 -93 38t-21 121zM184 55q13 0 28 2.5t35.5 9t31.5 10.5t36.5 13.5t30.5 11.5q-19 60 -12 142q-9 0 -27 -2q-98 -9 -136.5 -31.5t-44.5 -68.5q-12 -87 58 -87zM568 480q-60 0 -98.5 -49.5t-53.5 -130.5
l219 14v5q11 84 -5 122.5t-62 38.5z" />
    <glyph glyph-name="ccedilla" unicode="&#xe7;" horiz-adv-x="469" 
d="M116 -197l10 45q41 -13 60 -13q46 0 51 38q3 20 -8 29.5t-32 9.5h-3q-2 0 -5.5 -0.5t-6.5 -0.5l-13 -1l23 87q-72 23 -103.5 94t-18.5 164q16 111 87.5 189t170.5 78q83 0 118 -46l-25 -56q-43 35 -103 35q-63 0 -113.5 -57.5t-62.5 -144.5t22.5 -142.5t102.5 -55.5
q55 0 108 38l10 -56q-52 -49 -131 -49q-4 0 -12 0.5t-11 0.5l-10 -36h4q35 0 55.5 -20t15.5 -58q-6 -40 -36 -61.5t-74 -21.5q-26 0 -70 11z" />
    <glyph glyph-name="egrave" unicode="&#xe8;" horiz-adv-x="531" 
d="M244 -12q107 0 179 64l-14 56q-75 -50 -153 -50q-62 0 -94.5 50t-20.5 133h314l5 35q16 113 -24 179.5t-125 66.5q-90 -3 -157 -78t-83 -189q-17 -123 29 -195t144 -72zM151 294q16 74 57 118t93 44q53 0 79.5 -42t15.5 -120h-245zM396 611l-125 189h118l60 -189h-53z
" />
    <glyph glyph-name="eacute" unicode="&#xe9;" horiz-adv-x="531" 
d="M244 -12q107 0 179 64l-14 56q-75 -50 -153 -50q-62 0 -94.5 50t-20.5 133h314l5 35q16 113 -24 179.5t-125 66.5q-90 -3 -157 -78t-83 -189q-17 -123 29 -195t144 -72zM151 294q16 74 57 118t93 44q53 0 79.5 -42t15.5 -120h-245zM475 800l-179 -190h-53l114 190h118z
" />
    <glyph glyph-name="ecircumflex" unicode="&#xea;" horiz-adv-x="531" 
d="M244 -12q107 0 179 64l-14 56q-75 -50 -153 -50q-62 0 -94.5 50t-20.5 133h314l5 35q16 113 -24 179.5t-125 66.5q-90 -3 -157 -78t-83 -189q-17 -123 29 -195t144 -72zM151 294q16 74 57 118t93 44q53 0 79.5 -42t15.5 -120h-245zM206 611l115 189h100l61 -189h-63
l-57 133l-94 -133h-62z" />
    <glyph glyph-name="edieresis" unicode="&#xeb;" horiz-adv-x="531" 
d="M244 -12q107 0 179 64l-14 56q-75 -50 -153 -50q-62 0 -94.5 50t-20.5 133h314l5 35q16 113 -24 179.5t-125 66.5q-90 -3 -157 -78t-83 -189q-17 -123 29 -195t144 -72zM151 294q16 74 57 118t93 44q53 0 79.5 -42t15.5 -120h-245zM470 612h-73l14 104h73zM289 612h-71
l14 104h72z" />
    <glyph glyph-name="igrave" unicode="&#xec;" horiz-adv-x="209" 
d="M203 509l-72 -509h-70l71 509h71zM234 611l-125 189h118l60 -189h-53z" />
    <glyph glyph-name="iacute" unicode="&#xed;" horiz-adv-x="209" 
d="M203 509l-72 -509h-70l71 509h71zM314 800l-179 -190h-53l114 190h118z" />
    <glyph glyph-name="icircumflex" unicode="&#xee;" horiz-adv-x="209" 
d="M203 509l-72 -509h-70l71 509h71zM45 611l115 189h100l61 -189h-63l-57 133l-94 -133h-62z" />
    <glyph glyph-name="idieresis" unicode="&#xef;" horiz-adv-x="209" 
d="M203 509l-72 -509h-70l71 509h71zM127 612h-71l14 104h72zM308 612h-73l14 104h73z" />
    <glyph glyph-name="eth" unicode="&#xf0;" horiz-adv-x="509" 
d="M307 475q62 0 109 -47q-23 74 -101 186l-121 -55l-9 65l98 42l-83 109h93l60 -76l119 54l10 -63l-98 -44q76 -127 104 -214q30 -95 16 -192q-16 -112 -82 -182t-169 -70q-100 0 -148 72t-33 177q15 107 79.5 172.5t155.5 65.5zM312 407q-65 0 -109.5 -49t-54.5 -121
q-10 -75 20 -128t98 -53q66 0 110 49t55 125q10 71 -21.5 124t-97.5 53z" />
    <glyph glyph-name="ntilde" unicode="&#xf1;" horiz-adv-x="544" 
d="M353 522q75 0 102 -54t12 -163l-43 -305h-70l36 254q19 98 8.5 148t-69.5 50q-53 0 -98.5 -34t-60.5 -72l-49 -346h-70l54 385l16 124h61l-5 -78q32 42 80 66.5t96 24.5zM257 630h-50q15 107 93 107q34 0 79 -23t49 -23h1q19 1 28 46h50q-14 -107 -83 -107
q-21 0 -69.5 24t-65.5 24h-1q-22 0 -31 -48z" />
    <glyph glyph-name="ograve" unicode="&#xf2;" horiz-adv-x="577" 
d="M419 611l-125 189h118l60 -189h-53zM426 254q12 88 -13 144.5t-98 56.5q-70 0 -115 -59t-57 -144q-11 -83 17.5 -140t99.5 -57q70 0 112 57t54 142zM499 255q-16 -112 -83.5 -189.5t-166.5 -77.5q-101 0 -148 76t-31 190t85 191t170 77q102 0 146.5 -75.5t27.5 -191.5z
" />
    <glyph glyph-name="oacute" unicode="&#xf3;" horiz-adv-x="577" 
d="M497 800l-179 -190h-53l114 190h118zM426 254q12 88 -13 144.5t-98 56.5q-70 0 -115 -59t-57 -144q-11 -83 17.5 -140t99.5 -57q70 0 112 57t54 142zM499 255q-16 -112 -83.5 -189.5t-166.5 -77.5q-101 0 -148 76t-31 190t85 191t170 77q102 0 146.5 -75.5t27.5 -191.5z
" />
    <glyph glyph-name="ocircumflex" unicode="&#xf4;" horiz-adv-x="577" 
d="M229 611l115 189h100l61 -189h-63l-57 133l-94 -133h-62zM426 254q12 88 -13 144.5t-98 56.5q-70 0 -115 -59t-57 -144q-11 -83 17.5 -140t99.5 -57q70 0 112 57t54 142zM499 255q-16 -112 -83.5 -189.5t-166.5 -77.5q-101 0 -148 76t-31 190t85 191t170 77
q102 0 146.5 -75.5t27.5 -191.5z" />
    <glyph glyph-name="otilde" unicode="&#xf5;" horiz-adv-x="577" 
d="M274 630h-50q15 107 93 107q33 0 79 -23t49 -23h1q19 1 28 46h50q-14 -107 -83 -107q-21 0 -69.5 24t-65.5 24h-1q-22 0 -31 -48zM426 254q12 88 -13 144.5t-98 56.5q-70 0 -115 -59t-57 -144q-11 -83 17.5 -140t99.5 -57q70 0 112 57t54 142zM499 255
q-16 -112 -83.5 -189.5t-166.5 -77.5q-101 0 -148 76t-31 190t85 191t170 77q102 0 146.5 -75.5t27.5 -191.5z" />
    <glyph glyph-name="odieresis" unicode="&#xf6;" horiz-adv-x="575" 
d="M312 612h-71l14 104h72zM493 612h-73l14 104h73zM426 254q12 88 -13 144.5t-98 56.5q-70 0 -115 -59t-57 -144q-11 -83 17.5 -140t99.5 -57q70 0 112 57t54 142zM499 255q-16 -112 -83.5 -189.5t-166.5 -77.5q-101 0 -148 76t-31 190t85 191t170 77q102 0 146.5 -75.5
t27.5 -191.5z" />
    <glyph glyph-name="divide" unicode="&#xf7;" horiz-adv-x="553" 
d="M331 122l-16 -111h-89l16 111h89zM410 569l-15 -111h-106l15 111h106zM539 255h-457l10 73h457z" />
    <glyph glyph-name="oslash" unicode="&#xf8;" horiz-adv-x="498" 
d="M470 667l30 -18l-78 -153q50 -31 69.5 -95t7.5 -146q-16 -112 -83.5 -189.5t-166.5 -77.5q-43 0 -77 14l-69 -136l-27 18l68 135q-47 33 -66 95t-8 140q16 114 85 191t170 77q36 0 67 -11zM426 254q18 128 -37 176l-184 -363q22 -12 55 -12q70 0 112 57t54 142zM143 252
q-15 -113 35 -165l182 360q-21 8 -45 8q-70 0 -115 -59t-57 -144z" />
    <glyph glyph-name="ugrave" unicode="&#xf9;" horiz-adv-x="536" 
d="M398 611l-125 189h118l60 -189h-53zM72 169l48 340h70l-47 -338q-9 -64 17.5 -90t80.5 -26q113 0 130 116l47 338h70l-48 -340q-13 -94 -71 -137.5t-138 -43.5t-126 44t-33 137z" />
    <glyph glyph-name="uacute" unicode="&#xfa;" horiz-adv-x="536" 
d="M477 800l-179 -190h-53l114 190h118zM72 169l48 340h70l-47 -338q-9 -64 17.5 -90t80.5 -26q113 0 130 116l47 338h70l-48 -340q-13 -94 -71 -137.5t-138 -43.5t-126 44t-33 137z" />
    <glyph glyph-name="ucircumflex" unicode="&#xfb;" horiz-adv-x="536" 
d="M208 611l115 189h100l61 -189h-63l-57 133l-94 -133h-62zM72 169l48 340h70l-47 -338q-9 -64 17.5 -90t80.5 -26q113 0 130 116l47 338h70l-48 -340q-13 -94 -71 -137.5t-138 -43.5t-126 44t-33 137z" />
    <glyph glyph-name="udieresis" unicode="&#xfc;" horiz-adv-x="536" 
d="M291 612h-71l14 104h72zM472 612h-73l14 104h73zM72 169l48 340h70l-47 -338q-9 -64 17.5 -90t80.5 -26q113 0 130 116l47 338h70l-48 -340q-13 -94 -71 -137.5t-138 -43.5t-126 44t-33 137z" />
    <glyph glyph-name="yacute" unicode="&#xfd;" horiz-adv-x="483" 
d="M450 800l-179 -190h-53l114 190h118zM147 509h-74l108 -505q-53 -119 -82.5 -147t-103.5 -28h-12l-3 -74h23q90 0 141 52.5t100 161.5l243 540h-74q-126 -294 -180 -418z" />
    <glyph glyph-name="thorn" unicode="&#xfe;" horiz-adv-x="512" 
d="M272 55q46 0 80.5 33t51 75.5t23.5 91.5q4 47 2 91t-27 76.5t-70 32.5q-68 0 -113.5 -58t-57.5 -142q-12 -86 14.5 -143t96.5 -57zM137 78l-43 -302h-70l135 961h70l-43 -307q66 92 160 92q85 -1 127.5 -75t26.5 -187q-16 -111 -77 -191.5t-152 -80.5q-101 0 -134 90z
" />
    <glyph glyph-name="ydieresis" unicode="&#xff;" horiz-adv-x="483" 
d="M147 509h-74l108 -505q-53 -119 -82.5 -147t-103.5 -28h-12l-3 -74h23q90 0 141 52.5t100 161.5l243 540h-74q-126 -294 -180 -418zM265 612h-71l14 104h72zM446 612h-73l14 104h73z" />
    <glyph glyph-name="Amacron" unicode="&#x100;" horiz-adv-x="635" 
d="M467 813h-245v70h245v-70zM232 298h217l-54 348zM509 0l-42 231h-270l-113 -231h-82l356 730h96l139 -730h-84z" />
    <glyph glyph-name="amacron" unicode="&#x101;" horiz-adv-x="501" 
d="M193 52q34 0 76 20.5t68 52.5l17 124q-41 -7 -42 -7q-101 -14 -139.5 -37t-45.5 -75q-11 -78 66 -78zM330 58q-63 -70 -154 -70q-61 0 -95 35t-24 104q4 28 14.5 51t23 38.5t34.5 28.5t39 20.5t47 14.5t48 10.5t52 8.5l47 6l9 57q12 91 -78 91q-78 0 -148 -34l-11 62
q71 41 167 41q161 0 140 -147l-52 -375h-57zM373 622h-245v70h245v-70z" />
    <glyph glyph-name="Abreve" unicode="&#x102;" horiz-adv-x="635" 
d="M424 825q-46 0 -75.5 33.5t-21.5 92.5h54q-4 -34 10.5 -51.5t40.5 -17.5q27 0 47 18t24 51h55q-8 -59 -47.5 -92.5t-86.5 -33.5zM233 298h217l-54 348zM510 0l-42 231h-270l-113 -231h-82l356 730h96l139 -730h-84z" />
    <glyph glyph-name="abreve" unicode="&#x103;" horiz-adv-x="501" 
d="M330 634q-46 0 -75.5 33.5t-21.5 92.5h54q-4 -34 10.5 -51.5t40.5 -17.5q27 0 47 18t24 51h55q-8 -59 -47.5 -92.5t-86.5 -33.5zM193 52q34 0 76 20.5t68 52.5l17 124q-41 -7 -42 -7q-101 -14 -139.5 -37t-45.5 -75q-11 -78 66 -78zM330 58q-63 -70 -154 -70
q-61 0 -95 35t-24 104q4 28 14.5 51t23 38.5t34.5 28.5t39 20.5t47 14.5t48 10.5t52 8.5l47 6l9 57q12 91 -78 91q-78 0 -148 -34l-11 62q71 41 167 41q161 0 140 -147l-52 -375h-57z" />
    <glyph glyph-name="Aogonek" unicode="&#x104;" horiz-adv-x="635" 
d="M476 -148q27 0 65 16l-9 -57q-38 -16 -74 -16q-39 0 -60.5 22.5t-15.5 63.5q9 67 105 121h22l-41 229h-270l-113 -231h-82l356 730h96l139 -730h-58q-88 -62 -94 -104q-2 -19 8.5 -31.5t25.5 -12.5zM233 298h217l-54 348z" />
    <glyph glyph-name="aogonek" unicode="&#x105;" horiz-adv-x="501" 
d="M330 58q-63 -70 -154 -70q-61 0 -95 35t-24 104q4 28 14.5 51t23 38.5t34.5 28.5t39 20.5t47 14.5t48 10.5t52 8.5l47 6l9 57q12 91 -78 91q-78 0 -148 -34l-11 62q71 41 167 41q161 0 140 -147l-52 -373h30q-91 -65 -97 -106q-2 -19 8.5 -31.5t25.5 -12.5q27 0 65 16
l-9 -57q-38 -16 -74 -16q-39 0 -60.5 22.5t-15.5 63.5q9 66 101 119h-31zM193 52q34 0 76 20.5t68 52.5l17 124q-41 -7 -42 -7q-101 -14 -139.5 -37t-45.5 -75q-11 -78 66 -78z" />
    <glyph glyph-name="Cacute" unicode="&#x106;" horiz-adv-x="626" 
d="M548 991l-179 -190h-53l114 190h118zM478 745q122 0 189 -67l-38 -66q-62 58 -159 58q-117 0 -191 -87.5t-93 -218.5q-11 -58 -2.5 -112.5t29.5 -96.5t66.5 -67t110.5 -25q92 0 171 60l16 -71q-75 -63 -205 -63q-104 0 -172 51t-92.5 135t-9.5 189q23 167 125 274
t255 107z" />
    <glyph glyph-name="cacute" unicode="&#x107;" horiz-adv-x="469" 
d="M443 800l-179 -190h-53l114 190h118zM385 37l-10 56q-53 -38 -108 -38q-68 0 -102.5 55.5t-22.5 142.5t62.5 144.5t113.5 57.5q60 0 103 -35l25 56q-35 46 -118 46q-99 0 -170.5 -78t-87.5 -189q-16 -112 32.5 -189.5t151.5 -77.5q79 0 131 49z" />
    <glyph glyph-name="Ccircumflex" unicode="&#x108;" horiz-adv-x="626" 
d="M280 802l115 189h100l61 -189h-63l-57 133l-94 -133h-62zM478 745q122 0 189 -67l-38 -66q-62 58 -159 58q-117 0 -191 -87.5t-93 -218.5q-11 -58 -2.5 -112.5t29.5 -96.5t66.5 -67t110.5 -25q92 0 171 60l16 -71q-75 -63 -205 -63q-104 0 -172 51t-92.5 135t-9.5 189
q23 167 125 274t255 107z" />
    <glyph glyph-name="ccircumflex" unicode="&#x109;" horiz-adv-x="469" 
d="M175 611l115 189h100l61 -189h-63l-57 133l-94 -133h-62zM385 37l-10 56q-53 -38 -108 -38q-68 0 -102.5 55.5t-22.5 142.5t62.5 144.5t113.5 57.5q60 0 103 -35l25 56q-35 46 -118 46q-99 0 -170.5 -78t-87.5 -189q-16 -112 32.5 -189.5t151.5 -77.5q79 0 131 49z" />
    <glyph glyph-name="Cdotaccent" unicode="&#x10a;" horiz-adv-x="626" 
d="M456 923q30 0 43 -19t10 -45t-22 -45.5t-49 -19.5q-29 0 -42.5 19.5t-10.5 45.5t22.5 45t48.5 19zM478 745q122 0 189 -67l-38 -66q-62 58 -159 58q-117 0 -191 -87.5t-93 -218.5q-11 -58 -2.5 -112.5t29.5 -96.5t66.5 -67t110.5 -25q92 0 171 60l16 -71
q-75 -63 -205 -63q-104 0 -172 51t-92.5 135t-9.5 189q23 167 125 274t255 107z" />
    <glyph glyph-name="cdotaccent" unicode="&#x10b;" horiz-adv-x="469" 
d="M343 727q30 0 43 -19t10 -45t-22 -45.5t-49 -19.5q-29 0 -42.5 19.5t-10.5 45.5t22.5 45t48.5 19zM385 37l-10 56q-53 -38 -108 -38q-68 0 -102.5 55.5t-22.5 142.5t62.5 144.5t113.5 57.5q60 0 103 -35l25 56q-35 46 -118 46q-99 0 -170.5 -78t-87.5 -189
q-16 -112 32.5 -189.5t151.5 -77.5q79 0 131 49z" />
    <glyph glyph-name="Ccaron" unicode="&#x10c;" horiz-adv-x="626" 
d="M307 991h62l53 -152l97 152h63l-114 -189h-100zM478 745q122 0 189 -67l-38 -66q-62 58 -159 58q-117 0 -191 -87.5t-93 -218.5q-11 -58 -2.5 -112.5t29.5 -96.5t66.5 -67t110.5 -25q92 0 171 60l16 -71q-75 -63 -205 -63q-104 0 -172 51t-92.5 135t-9.5 189
q23 167 125 274t255 107z" />
    <glyph glyph-name="ccaron" unicode="&#x10d;" horiz-adv-x="469" 
d="M202 800h62l53 -152l97 152h63l-114 -189h-100zM385 37l-10 56q-53 -38 -108 -38q-68 0 -102.5 55.5t-22.5 142.5t62.5 144.5t113.5 57.5q60 0 103 -35l25 56q-35 46 -118 46q-99 0 -170.5 -78t-87.5 -189q-16 -112 32.5 -189.5t151.5 -77.5q79 0 131 49z" />
    <glyph glyph-name="Dcaron" unicode="&#x10e;" horiz-adv-x="743" 
d="M365 991h62l53 -152l97 152h63l-114 -189h-100zM244 655l-81 -579h143q127 0 206 71.5t98 210.5q12 84 -1.5 143t-51 92t-90 47.5t-125.5 14.5h-98zM69 0l102 730h171q93 0 162 -18.5t119.5 -60t70.5 -115t5 -176.5q-25 -177 -135.5 -268.5t-277.5 -91.5h-217z" />
    <glyph glyph-name="dcaron" unicode="&#x10f;" horiz-adv-x="573" 
d="M820 737l-95 -255h-50l45 255h100zM244 61q-66 0 -89.5 56.5t-11.5 140.5q11 78 50.5 135t104.5 57q70 0 97 -54t15 -140t-55 -140.5t-111 -54.5zM229 -12q46 0 87 26.5t68 68.5l-3 -83h62l103 737l-71 -11l-41 -294q-12 41 -48.5 65.5t-83.5 24.5q-86 0 -150.5 -75
t-80.5 -186q-17 -122 25 -197.5t133 -75.5z" />
    <glyph glyph-name="Dcroat" unicode="&#x110;" horiz-adv-x="743" 
d="M61 340l9 66h55l46 324h171q93 0 162 -18.5t119.5 -60t70.5 -115t5 -176.5q-25 -177 -135.5 -268.5t-277.5 -91.5h-217l47 340h-55zM244 655l-35 -249h105l-9 -66h-105l-37 -264h143q127 0 206 71.5t98 210.5q12 84 -1.5 143t-51 92t-90 47.5t-125.5 14.5h-98z" />
    <glyph glyph-name="dcroat" unicode="&#x111;" horiz-adv-x="573" 
d="M402 585l9 70h54l10 71l71 11l-12 -82h115l-10 -70h-115l-81 -585h-62l3 83q-27 -42 -68 -68.5t-87 -26.5q-91 0 -133 75.5t-25 197.5q16 111 80.5 186t150.5 75q47 0 83.5 -24.5t48.5 -65.5l21 153h-53zM244 61q68 0 111 54.5t55 140.5t-15 140t-97 54q-65 0 -104.5 -57
t-50.5 -135q-12 -84 11.5 -140.5t89.5 -56.5z" />
    <glyph glyph-name="Emacron" unicode="&#x112;" horiz-adv-x="556" 
d="M427 813h-245v70h245v-70zM510 413l-11 -75h-301l-36 -262h333l-17 -76h-410l102 730h404l-17 -75h-314l-34 -242h301z" />
    <glyph glyph-name="emacron" unicode="&#x113;" horiz-adv-x="531" 
d="M243 -12q107 0 179 64l-14 56q-75 -50 -153 -50q-62 0 -94.5 50t-20.5 133h314l5 35q16 113 -24 179.5t-125 66.5q-90 -3 -157 -78t-83 -189q-17 -123 29 -195t144 -72zM150 294q16 74 57 118t93 44q53 0 79.5 -42t15.5 -120h-245zM388 622h-245v70h245v-70z" />
    <glyph glyph-name="Edotaccent" unicode="&#x116;" horiz-adv-x="556" 
d="M420 923q30 0 43 -19t10 -45t-22 -45.5t-49 -19.5q-29 0 -42.5 19.5t-10.5 45.5t22.5 45t48.5 19zM511 413l-11 -75h-301l-36 -262h333l-17 -76h-410l102 730h404l-17 -75h-314l-34 -242h301z" />
    <glyph glyph-name="edotaccent" unicode="&#x117;" horiz-adv-x="531" 
d="M244 -12q107 0 179 64l-14 56q-75 -50 -153 -50q-62 0 -94.5 50t-20.5 133h314l5 35q16 113 -24 179.5t-125 66.5q-90 -3 -157 -78t-83 -189q-17 -123 29 -195t144 -72zM151 294q16 74 57 118t93 44q53 0 79.5 -42t15.5 -120h-245zM365 727q30 0 43 -19t10 -45t-22 -45.5
t-49 -19.5q-29 0 -42.5 19.5t-10.5 45.5t22.5 45t48.5 19z" />
    <glyph glyph-name="Eogonek" unicode="&#x118;" horiz-adv-x="556" 
d="M405 -148q27 0 65 16l-9 -57q-38 -16 -74 -16q-39 0 -60.5 22.5t-15.5 63.5q9 66 101 119h-343l102 730h404l-17 -75h-314l-34 -242h301l-11 -75h-301l-36 -262h333l-17 -76h-14q-88 -62 -94 -104q-2 -19 8.5 -31.5t25.5 -12.5z" />
    <glyph glyph-name="eogonek" unicode="&#x119;" horiz-adv-x="531" 
d="M244 -12q-98 0 -144 72t-29 195q16 114 83 189t157 78q85 0 125 -66.5t24 -179.5l-5 -35h-314q-12 -83 20.5 -133t94.5 -50q78 0 153 50l14 -56q-72 -64 -179 -64zM151 294h245q11 78 -15.5 120t-79.5 42q-52 0 -93 -44t-57 -118zM384 -148q27 0 65 16l-9 -57
q-38 -16 -74 -16q-39 0 -60.5 22.5t-15.5 63.5q9 67 105 121h52q-91 -65 -97 -106q-2 -19 8.5 -31.5t25.5 -12.5z" />
    <glyph glyph-name="Ecaron" unicode="&#x11a;" horiz-adv-x="556" 
d="M511 413l-11 -75h-301l-36 -262h333l-17 -76h-410l102 730h404l-17 -75h-314l-34 -242h301zM272 991h62l53 -152l97 152h63l-114 -189h-100z" />
    <glyph glyph-name="ecaron" unicode="&#x11b;" horiz-adv-x="531" 
d="M244 -12q107 0 179 64l-14 56q-75 -50 -153 -50q-62 0 -94.5 50t-20.5 133h314l5 35q16 113 -24 179.5t-125 66.5q-90 -3 -157 -78t-83 -189q-17 -123 29 -195t144 -72zM151 294q16 74 57 118t93 44q53 0 79.5 -42t15.5 -120h-245zM233 800h62l53 -152l97 152h63
l-114 -189h-100z" />
    <glyph glyph-name="Gcircumflex" unicode="&#x11c;" horiz-adv-x="699" 
d="M316 802l115 189h100l61 -189h-63l-57 133l-94 -133h-62zM370 -11q66 0 121.5 16t121.5 55l44 313h-233l-16 -73h168l-27 -193q-28 -17 -73.5 -30.5t-85.5 -13.5q-122 0 -172 85t-31 216q18 131 92.5 218.5t196.5 87.5q47 0 92 -18.5t71 -44.5l39 67q-73 71 -199 71
q-157 0 -257 -108.5t-123 -272.5q-14 -103 9 -186t90.5 -136t171.5 -53z" />
    <glyph glyph-name="gcircumflex" unicode="&#x11d;" horiz-adv-x="569" 
d="M225 611l115 189h100l61 -189h-63l-57 133l-94 -133h-62zM104 -245v74h86q53 0 88 13t55 43.5t29.5 64t17.5 90.5l7 47q-64 -87 -154 -87q-64 0 -105 39.5t-53.5 95.5t-3.5 118q17 117 79 193t162 76q85 0 126 -84l10 71h68l-68 -480q-9 -60 -21 -101t-40 -84.5
t-80.5 -66t-128.5 -22.5h-74zM253 70q69 0 108 47.5t50 122.5l5 37q11 77 -15.5 126.5t-93.5 49.5q-68 0 -110 -60t-53 -136q-10 -73 17 -130t92 -57z" />
    <glyph glyph-name="Gbreve" unicode="&#x11e;" horiz-adv-x="699" 
d="M455 825q-46 0 -75.5 33.5t-21.5 92.5h54q-4 -34 10.5 -51.5t40.5 -17.5q27 0 47 18t24 51h55q-8 -59 -47.5 -92.5t-86.5 -33.5zM370 -11q66 0 121.5 16t121.5 55l44 313h-233l-16 -73h168l-27 -193q-28 -17 -73.5 -30.5t-85.5 -13.5q-122 0 -172 85t-31 216
q18 131 92.5 218.5t196.5 87.5q47 0 92 -18.5t71 -44.5l39 67q-73 71 -199 71q-157 0 -257 -108.5t-123 -272.5q-14 -103 9 -186t90.5 -136t171.5 -53z" />
    <glyph glyph-name="gbreve" unicode="&#x11f;" horiz-adv-x="569" 
d="M364 634q-46 0 -75.5 33.5t-21.5 92.5h54q-4 -34 10.5 -51.5t40.5 -17.5q27 0 47 18t24 51h55q-8 -59 -47.5 -92.5t-86.5 -33.5zM104 -245v74h86q53 0 88 13t55 43.5t29.5 64t17.5 90.5l7 47q-64 -87 -154 -87q-64 0 -105 39.5t-53.5 95.5t-3.5 118q17 117 79 193t162 76
q85 0 126 -84l10 71h68l-68 -480q-9 -60 -21 -101t-40 -84.5t-80.5 -66t-128.5 -22.5h-74zM253 70q69 0 108 47.5t50 122.5l5 37q11 77 -15.5 126.5t-93.5 49.5q-68 0 -110 -60t-53 -136q-10 -73 17 -130t92 -57z" />
    <glyph glyph-name="Gdotaccent" unicode="&#x120;" horiz-adv-x="699" 
d="M473 923q30 0 43 -19t10 -45t-22 -45.5t-49 -19.5q-29 0 -42.5 19.5t-10.5 45.5t22.5 45t48.5 19zM370 -11q66 0 121.5 16t121.5 55l44 313h-233l-16 -73h168l-27 -193q-28 -17 -73.5 -30.5t-85.5 -13.5q-122 0 -172 85t-31 216q18 131 92.5 218.5t196.5 87.5
q47 0 92 -18.5t71 -44.5l39 67q-73 71 -199 71q-157 0 -257 -108.5t-123 -272.5q-14 -103 9 -186t90.5 -136t171.5 -53z" />
    <glyph glyph-name="gdotaccent" unicode="&#x121;" horiz-adv-x="569" 
d="M376 727q30 0 43 -19t10 -45t-22 -45.5t-49 -19.5q-29 0 -42.5 19.5t-10.5 45.5t22.5 45t48.5 19zM104 -245v74h86q53 0 88 13t55 43.5t29.5 64t17.5 90.5l7 47q-64 -87 -154 -87q-64 0 -105 39.5t-53.5 95.5t-3.5 118q17 117 79 193t162 76q85 0 126 -84l10 71h68
l-68 -480q-9 -60 -21 -101t-40 -84.5t-80.5 -66t-128.5 -22.5h-74zM253 70q69 0 108 47.5t50 122.5l5 37q11 77 -15.5 126.5t-93.5 49.5q-68 0 -110 -60t-53 -136q-10 -73 17 -130t92 -57z" />
    <glyph glyph-name="Gcedilla" unicode="&#x122;" horiz-adv-x="699" 
d="M370 -11q-104 0 -171.5 53t-90.5 136t-9 186q23 164 123 272.5t257 108.5q126 0 199 -71l-39 -67q-26 26 -71 44.5t-92 18.5q-122 0 -196.5 -87.5t-92.5 -218.5q-19 -131 31 -216t172 -85q40 0 85.5 13.5t73.5 30.5l27 193h-168l16 73h233l-44 -313q-66 -39 -121.5 -55
t-121.5 -16zM286 -304l46 243h81l-70 -243h-57z" />
    <glyph glyph-name="gcedilla" unicode="&#x123;" horiz-adv-x="598" 
d="M451 854l-80 -244h-81l103 244h58zM104 -245v74h86q53 0 88 13t55 43.5t29.5 64t17.5 90.5l7 47q-64 -87 -154 -87q-64 0 -105 39.5t-53.5 95.5t-3.5 118q17 117 79 193t162 76q85 0 126 -84l10 71h68l-68 -480q-9 -60 -21 -101t-40 -84.5t-80.5 -66t-128.5 -22.5h-74z
M253 70q69 0 108 47.5t50 122.5l5 37q11 77 -15.5 126.5t-93.5 49.5q-68 0 -110 -60t-53 -136q-10 -73 17 -130t92 -57z" />
    <glyph glyph-name="Hcircumflex" unicode="&#x124;" horiz-adv-x="715" 
d="M571 340h-371l-48 -340h-83l102 730h83l-44 -316h371l44 316h83l-102 -730h-83zM324 802l115 189h100l61 -189h-63l-57 133l-94 -133h-62z" />
    <glyph glyph-name="hcircumflex" unicode="&#x125;" horiz-adv-x="543" 
d="M121 0l49 345q15 39 60 73t96 34q56 0 70 -41t-1 -127l-41 -284h70l44 309q30 213 -110 213q-103 0 -175 -84l42 299l-72 -11l-102 -726h70zM212 611l115 189h100l61 -189h-63l-57 133l-94 -133h-62z" />
    <glyph glyph-name="Hbar" unicode="&#x126;" horiz-adv-x="669" 
d="M569 340h-371l-48 -340h-83l79 560h-41l8 51h40l17 119h83l-17 -119h371l17 119h83l-17 -119h41l-7 -51h-41l-79 -560h-83zM229 560l-20 -146h371l20 146h-371z" />
    <glyph glyph-name="hbar" unicode="&#x127;" horiz-adv-x="526" 
d="M170 345l-49 -345h-70l87 620h-42l8 57h42l7 49l72 11l-9 -60h111l-8 -57h-111l-25 -182q72 84 175 84q140 0 110 -213l-44 -309h-70l41 284q15 86 1 127t-70 41q-51 0 -96 -34t-60 -73z" />
    <glyph glyph-name="Itilde" unicode="&#x128;" horiz-adv-x="248" 
d="M262 730l-103 -730h-83l103 730h83zM136 821h-50q15 107 93 107q34 0 79.5 -23t48.5 -23h1q19 1 28 46h50q-14 -107 -83 -107q-21 0 -69.5 24t-65.5 24h-1q-22 0 -31 -48z" />
    <glyph glyph-name="itilde" unicode="&#x129;" horiz-adv-x="209" 
d="M203 509l-72 -509h-70l71 509h71zM89 630h-50q15 107 93 107q34 0 79.5 -23t48.5 -23h1q19 1 28 46h50q-14 -107 -83 -107q-21 0 -69.5 24t-65.5 24h-1q-22 0 -31 -48z" />
    <glyph glyph-name="Imacron" unicode="&#x12a;" horiz-adv-x="248" 
d="M262 730l-103 -730h-83l103 730h83zM273 813h-245v70h245v-70z" />
    <glyph glyph-name="imacron" unicode="&#x12b;" horiz-adv-x="209" 
d="M203 509l-72 -509h-70l71 509h71zM227 622h-245v70h245v-70z" />
    <glyph glyph-name="Ibreve" unicode="&#x12c;" horiz-adv-x="248" 
d="M230 825q-46 0 -75.5 33.5t-21.5 92.5h54q-4 -34 10.5 -51.5t40.5 -17.5q27 0 47 18t24 51h55q-8 -59 -47.5 -92.5t-86.5 -33.5zM262 730l-103 -730h-83l103 730h83z" />
    <glyph glyph-name="ibreve" unicode="&#x12d;" horiz-adv-x="209" 
d="M184 634q-46 0 -75.5 33.5t-21.5 92.5h54q-4 -34 10.5 -51.5t40.5 -17.5q27 0 47 18t24 51h55q-8 -59 -47.5 -92.5t-86.5 -33.5zM203 509l-72 -509h-70l71 509h71z" />
    <glyph glyph-name="Iogonek" unicode="&#x12e;" horiz-adv-x="248" 
d="M128 -148q27 0 65 16l-9 -57q-38 -16 -74 -16q-39 0 -60.5 22.5t-15.5 63.5q9 66 101 119h-59l103 730h83l-103 -728h32q-91 -65 -97 -106q-2 -19 8.5 -31.5t25.5 -12.5z" />
    <glyph glyph-name="iogonek" unicode="&#x12f;" horiz-adv-x="216" 
d="M53 -147q27 0 65 16l-9 -57q-38 -16 -74 -16q-39 0 -60.5 22.5t-15.5 63.5q9 67 105 121h7l75 533h71l-76 -536h-30q-86 -62 -92 -103q-2 -19 8.5 -31.5t25.5 -12.5zM244 730l-14 -96h-70l14 96h70z" />
    <glyph glyph-name="Idotaccent" unicode="&#x130;" horiz-adv-x="248" 
d="M262 730l-103 -730h-83l103 730h83zM241 902q30 0 43 -19t10 -45t-22 -45.5t-49 -19.5q-29 0 -42.5 19.5t-10.5 45.5t22.5 45t48.5 19z" />
    <glyph glyph-name="dotlessi" unicode="&#x131;" horiz-adv-x="189" 
d="M203 509l-72 -509h-70l71 509h71z" />
    <glyph glyph-name="IJ" unicode="&#x132;" horiz-adv-x="670" 
d="M547 200l79 560h82l-75 -535q-7 -54 -15 -87t-23 -65.5t-38 -49t-60.5 -27t-90.5 -10.5h-15l11 82h24q36 1 58.5 10t35 29t17.5 39t10 54zM263 760l-106 -760h-84l107 760h83z" />
    <glyph glyph-name="ij" unicode="&#x133;" horiz-adv-x="419" 
d="M421 536l-63 -448q-9 -68 -18 -103t-29 -66.5t-53 -46t-89 -22.5l-3 -1l12 82h3q31 4 50 13.5t29.5 29t14.5 36.5t9 52l67 474h70zM216 536l-75 -536h-72l76 536h71zM247 760l-13 -96h-71l13 96h71zM453 760l-14 -96h-70l13 96h71z" />
    <glyph glyph-name="Jcircumflex" unicode="&#x134;" horiz-adv-x="268" 
d="M114 88l91 642h83l-86 -612q-9 -63 -19.5 -99t-32.5 -67t-60 -43.5t-98 -12.5h-16v69h34q57 0 76 29t28 94zM101 802l115 189h100l61 -189h-63l-57 133l-94 -133h-62z" />
    <glyph glyph-name="jcircumflex" unicode="&#x135;" horiz-adv-x="216" 
d="M208 509l-83 -583q-14 -98 -47 -134.5t-116 -36.5h-22l1 74h22q53 0 69 21.5t25 86.5l80 572h71zM48 611l115 189h100l61 -189h-63l-57 133l-94 -133h-62z" />
    <glyph glyph-name="Kcommaaccent" unicode="&#x136;" horiz-adv-x="599" 
d="M324 390l259 -390h-105l-225 343l-60 -49l-42 -294h-83l103 730h83l-50 -354l340 354h109zM285 -293l46 243h81l-70 -243h-57z" />
    <glyph glyph-name="kcommaaccent" unicode="&#x137;" horiz-adv-x="491" 
d="M153 728l72 9l-60 -428l236 227h96l-228 -223l166 -313h-90l-136 275l-56 -50l-32 -225h-70zM221 -293l46 243h81l-70 -243h-57z" />
    <glyph glyph-name="kgreenlandic" unicode="&#x138;" horiz-adv-x="470" 
d="M349 0l-187 247l-35 -247h-61l76 540h61l-35 -247l237 247h86l-258 -271q122 -156 195 -269h-79z" />
    <glyph glyph-name="Lacute" unicode="&#x139;" horiz-adv-x="468" 
d="M469 991l-179 -190h-53l114 190h118zM172 730h83l-92 -654h298l-16 -76h-376z" />
    <glyph glyph-name="lacute" unicode="&#x13a;" horiz-adv-x="269" 
d="M343 800l-113 -120l-66 -470q-14 -88 -9.5 -120.5t38.5 -32.5q5 0 38 3l-4 -64q-29 -6 -49 -6q-28 0 -47 4.5t-30 19t-16 28.5t-4 47t4 60t11 80l54 381h-39l51 85l5 33l16 2l42 70h118z" />
    <glyph glyph-name="Lcommaaccent" unicode="&#x13b;" horiz-adv-x="468" 
d="M172 730h83l-92 -654h298l-16 -76h-376zM214 -293l46 243h81l-70 -243h-57z" />
    <glyph glyph-name="lcommaaccent" unicode="&#x13c;" horiz-adv-x="269" 
d="M238 737l-74 -527q-14 -88 -9.5 -120.5t38.5 -32.5q5 0 38 3l-4 -64q-29 -6 -49 -6q-28 0 -47 4.5t-30 19t-16 28.5t-4 47t4 60t11 80l71 499zM122 -293l46 243h81l-70 -243h-57z" />
    <glyph glyph-name="Lcaron" unicode="&#x13d;" horiz-adv-x="468" 
d="M172 730h83l-92 -654h298l-16 -76h-376zM536 744l-95 -255h-50l45 255h100z" />
    <glyph glyph-name="lcaron" unicode="&#x13e;" horiz-adv-x="269" 
d="M238 737l-74 -527q-14 -88 -9.5 -120.5t38.5 -32.5q5 0 38 3l-4 -64q-29 -6 -49 -6q-28 0 -47 4.5t-30 19t-16 28.5t-4 47t4 60t11 80l71 499zM432 715l-95 -255h-50l45 255h100z" />
    <glyph glyph-name="Ldotaccent" unicode="&#x13f;" horiz-adv-x="468" 
d="M172 730h83l-92 -654h298l-16 -76h-376zM349 435q30 0 47 -19t17 -45t-17 -45t-47 -19q-31 0 -48 19t-17 45t17 45t48 19z" />
    <glyph glyph-name="ldot" unicode="&#x140;" horiz-adv-x="269" 
d="M238 737l-74 -527q-14 -88 -9.5 -120.5t38.5 -32.5q5 0 38 3l-4 -64q-29 -6 -49 -6q-28 0 -47 4.5t-30 19t-16 28.5t-4 47t4 60t11 80l71 499zM403 387q30 0 47 -19t17 -45t-17 -45t-47 -19q-31 0 -48 19t-17 45t17 45t48 19z" />
    <glyph glyph-name="Lslash" unicode="&#x141;" horiz-adv-x="468" 
d="M172 730h83l-44 -312l170 92l-10 -76l-171 -90l-37 -268h298l-16 -76h-376l42 296l-75 -39l10 73l75 40z" />
    <glyph glyph-name="lslash" unicode="&#x142;" horiz-adv-x="274" 
d="M238 737l-45 -318l77 62l-10 -71l-77 -62l-19 -138q-14 -88 -9.5 -120.5t38.5 -32.5q5 0 38 3l-4 -64q-29 -6 -49 -6q-28 0 -47 4.5t-30 19t-16 28.5t-4 47t4 60t11 80l8 54l-58 -46l10 71l58 47l53 373z" />
    <glyph glyph-name="Nacute" unicode="&#x143;" horiz-adv-x="726" 
d="M598 991l-179 -190h-53l114 190h118zM616 0h-92l-292 605l-85 -605h-78l102 730h91l295 -606l85 606h77z" />
    <glyph glyph-name="nacute" unicode="&#x144;" horiz-adv-x="544" 
d="M481 800l-179 -190h-53l114 190h118zM353 522q75 0 102 -54t12 -163l-43 -305h-70l36 254q19 98 8.5 148t-69.5 50q-53 0 -98.5 -34t-60.5 -72l-49 -346h-70l54 385l16 124h61l-5 -78q32 42 80 66.5t96 24.5z" />
    <glyph glyph-name="Ncommaaccent" unicode="&#x145;" horiz-adv-x="726" 
d="M304 -293l46 243h81l-70 -243h-57zM616 0h-92l-292 605l-85 -605h-78l102 730h91l295 -606l85 606h77z" />
    <glyph glyph-name="ncommaaccent" unicode="&#x146;" horiz-adv-x="544" 
d="M216 -293l46 243h81l-70 -243h-57zM353 522q75 0 102 -54t12 -163l-43 -305h-70l36 254q19 98 8.5 148t-69.5 50q-53 0 -98.5 -34t-60.5 -72l-49 -346h-70l54 385l16 124h61l-5 -78q32 42 80 66.5t96 24.5z" />
    <glyph glyph-name="Ncaron" unicode="&#x147;" horiz-adv-x="726" 
d="M357 991h62l53 -152l97 152h63l-114 -189h-100zM616 0h-92l-292 605l-85 -605h-78l102 730h91l295 -606l85 606h77z" />
    <glyph glyph-name="ncaron" unicode="&#x148;" horiz-adv-x="544" 
d="M239 800h62l53 -152l97 152h63l-114 -189h-100zM353 522q75 0 102 -54t12 -163l-43 -305h-70l36 254q19 98 8.5 148t-69.5 50q-53 0 -98.5 -34t-60.5 -72l-49 -346h-70l54 385l16 124h61l-5 -78q32 42 80 66.5t96 24.5z" />
    <glyph glyph-name="Eng" unicode="&#x14a;" horiz-adv-x="650" 
d="M364 -160q-27 0 -91 7v72q61 -4 80 -4q48 0 75.5 6.5t44.5 28.5t24.5 49.5t15.5 83.5l57 407q13 97 -10 135t-97 38q-70 0 -132 -37t-105 -94l-75 -532h-83l102 730h75l-6 -103q66 66 129 90.5t132 24.5q93 0 131.5 -63.5t21.5 -185.5l-58 -412q-17 -124 -65.5 -182.5
t-165.5 -58.5z" />
    <glyph glyph-name="eng" unicode="&#x14b;" horiz-adv-x="475" 
d="M243 -138l5 69h18q54 0 70 19t27 95l29 207q19 99 8 149.5t-70 50.5q-54 0 -99 -34t-60 -73l-48 -348h-71l55 388l16 124h61l-5 -78q32 42 79 66.5t95 24.5q148 0 116 -219l-33 -234q-8 -61 -16.5 -94t-26 -62t-46.5 -40t-75 -11h-29z" />
    <glyph glyph-name="Omacron" unicode="&#x14c;" horiz-adv-x="811" 
d="M555 813h-245v70h245v-70zM474 670q-120 0 -194.5 -82t-94.5 -224q-18 -134 32 -217.5t172 -83.5t195.5 83.5t91.5 217.5q19 141 -31.5 223.5t-170.5 82.5zM378 -11q-160 0 -232 104t-49 271q24 173 127 277t260 104t231 -104t50 -277q-23 -166 -125.5 -270.5
t-261.5 -104.5z" />
    <glyph glyph-name="omacron" unicode="&#x14d;" horiz-adv-x="577" 
d="M412 622h-245v70h245v-70zM425 254q12 88 -13 144.5t-98 56.5q-70 0 -115 -59t-57 -144q-11 -83 17.5 -140t99.5 -57q70 0 112 57t54 142zM498 255q-16 -112 -83.5 -189.5t-166.5 -77.5q-101 0 -148 76t-31 190t85 191t170 77q102 0 146.5 -75.5t27.5 -191.5z" />
    <glyph glyph-name="Obreve" unicode="&#x14e;" horiz-adv-x="811" 
d="M512 825q-46 0 -75.5 33.5t-21.5 92.5h54q-4 -34 10.5 -51.5t40.5 -17.5q27 0 47 18t24 51h55q-8 -59 -47.5 -92.5t-86.5 -33.5zM475 670q-120 0 -194.5 -82t-94.5 -224q-18 -134 32 -217.5t172 -83.5t195.5 83.5t91.5 217.5q19 141 -31.5 223.5t-170.5 82.5zM379 -11
q-160 0 -232 104t-49 271q24 173 127 277t260 104t231 -104t50 -277q-23 -166 -125.5 -270.5t-261.5 -104.5z" />
    <glyph glyph-name="obreve" unicode="&#x14f;" horiz-adv-x="577" 
d="M368 634q-46 0 -75.5 33.5t-21.5 92.5h54q-4 -34 10.5 -51.5t40.5 -17.5q27 0 47 18t24 51h55q-8 -59 -47.5 -92.5t-86.5 -33.5zM426 254q12 88 -13 144.5t-98 56.5q-70 0 -115 -59t-57 -144q-11 -83 17.5 -140t99.5 -57q70 0 112 57t54 142zM499 255
q-16 -112 -83.5 -189.5t-166.5 -77.5q-101 0 -148 76t-31 190t85 191t170 77q102 0 146.5 -75.5t27.5 -191.5z" />
    <glyph glyph-name="Ohungarumlaut" unicode="&#x150;" horiz-adv-x="811" 
d="M671 969l-141 -163h-47l118 163h70zM561 969l-141 -163h-47l116 163h72zM475 670q-120 0 -194.5 -82t-94.5 -224q-18 -134 32 -217.5t172 -83.5t195.5 83.5t91.5 217.5q19 141 -31.5 223.5t-170.5 82.5zM379 -11q-160 0 -232 104t-49 271q24 173 127 277t260 104
t231 -104t50 -277q-23 -166 -125.5 -270.5t-261.5 -104.5z" />
    <glyph glyph-name="ohungarumlaut" unicode="&#x151;" horiz-adv-x="577" 
d="M528 778l-141 -163h-47l118 163h70zM418 778l-141 -163h-47l116 163h72zM426 254q12 88 -13 144.5t-98 56.5q-70 0 -115 -59t-57 -144q-11 -83 17.5 -140t99.5 -57q70 0 112 57t54 142zM499 255q-16 -112 -83.5 -189.5t-166.5 -77.5q-101 0 -148 76t-31 190t85 191
t170 77q102 0 146.5 -75.5t27.5 -191.5z" />
    <glyph glyph-name="OE" unicode="&#x152;" horiz-adv-x="904" 
d="M612 615q-55 55 -143 55q-108 0 -183.5 -81.5t-96.5 -211.5q-11 -65 -4 -122t27.5 -99.5t65.5 -67t109 -25.5q39 0 84 15t70 30zM471 744q101 0 152 -54l5 40h332l-18 -75h-241l-34 -242h225l-11 -75h-225l-37 -262h260l-17 -76h-337l6 40q-18 -17 -68 -34t-88 -17
q-159 0 -229.5 105t-45.5 282q26 161 130 264.5t241 103.5z" />
    <glyph glyph-name="oe" unicode="&#x153;" horiz-adv-x="806" 
d="M597 -12q-123 0 -161 112q-72 -112 -189 -112q-100 0 -145.5 75.5t-29.5 190.5q17 115 84 191.5t167 76.5q120 0 158 -112q32 50 82 80.5t104 31.5q84 0 120.5 -66t20.5 -180q0 -2 -2.5 -16t-3.5 -19h-309q-12 -83 21 -133t95 -50q73 0 148 50l13 -56q-72 -64 -173 -64z
M503 293h241q11 79 -13.5 121t-76.5 42t-93 -44.5t-58 -118.5zM257 55q70 0 112.5 57t54.5 142q12 88 -13.5 144.5t-98.5 56.5q-69 0 -112 -58.5t-55 -144.5q-7 -54 0 -96.5t35.5 -71.5t76.5 -29z" />
    <glyph glyph-name="Racute" unicode="&#x154;" horiz-adv-x="625" 
d="M244 655l-35 -244l162 -2q89 -1 128 30t48 99q9 59 -19 88t-104 29h-180zM585 0h-93l-61 227q-26 93 -33 109q-26 -2 -79 -2l-120 4l-47 -338h-83l102 730h218q68 0 111 -6.5t78 -26t47 -58.5t4 -99q-10 -70 -49.5 -119t-107.5 -67l6 -16q7 -17 16.5 -42t14.5 -41z
M548 991l-179 -190h-53l114 190h118z" />
    <glyph glyph-name="racute" unicode="&#x155;" horiz-adv-x="323" 
d="M55 0h70l42 296q9 60 48 99.5t100 39.5h17l5 74h-13q-89 0 -146 -92l7 92h-60l-15 -117zM370 800l-179 -190h-53l114 190h118z" />
    <glyph glyph-name="Rcommaaccent" unicode="&#x156;" horiz-adv-x="625" 
d="M244 655l-35 -244l162 -2q89 -1 128 30t48 99q9 59 -19 88t-104 29h-180zM585 0h-93l-61 227q-26 93 -33 109q-26 -2 -79 -2l-120 4l-47 -338h-83l102 730h218q68 0 111 -6.5t78 -26t47 -58.5t4 -99q-10 -70 -49.5 -119t-107.5 -67l6 -16q7 -17 16.5 -42t14.5 -41z
M286 -293l46 243h81l-70 -243h-57z" />
    <glyph glyph-name="rcommaaccent" unicode="&#x157;" horiz-adv-x="323" 
d="M125 0h-70l55 392l15 117h60l-7 -92q57 92 146 92h13l-5 -74h-17q-61 0 -100 -39.5t-48 -99.5zM130 -293l46 243h81l-70 -243h-57z" />
    <glyph glyph-name="Rcaron" unicode="&#x158;" horiz-adv-x="625" 
d="M307 991h62l53 -152l97 152h63l-114 -189h-100zM244 655l-35 -244l162 -2q89 -1 128 30t48 99q9 59 -19 88t-104 29h-180zM585 0h-93l-61 227q-26 93 -33 109q-26 -2 -79 -2l-120 4l-47 -338h-83l102 730h218q68 0 111 -6.5t78 -26t47 -58.5t4 -99q-10 -70 -49.5 -119
t-107.5 -67l6 -16q7 -17 16.5 -42t14.5 -41z" />
    <glyph glyph-name="rcaron" unicode="&#x159;" horiz-adv-x="323" 
d="M129 800h62l53 -152l97 152h63l-114 -189h-100zM55 0h70l42 296q9 60 48 99.5t100 39.5h17l5 74h-13q-89 0 -146 -92l7 92h-60l-15 -117z" />
    <glyph glyph-name="Sacute" unicode="&#x15a;" horiz-adv-x="605" 
d="M538 991l-179 -190h-53l114 190h118zM85 119l-34 -70q84 -60 238 -60q110 0 181 55.5t86 166.5q12 85 -24 131t-115 67l-124 33q-98 26 -87 105q18 123 182 123q51 0 99.5 -14t76.5 -32l34 68q-72 53 -198 53q-117 0 -191 -50t-88 -153q-20 -135 129 -176l130 -36
q59 -16 78.5 -45.5t13.5 -76.5q-21 -145 -169 -145q-118 0 -218 56z" />
    <glyph glyph-name="sacute" unicode="&#x15b;" horiz-adv-x="443" 
d="M431 800l-179 -190h-53l114 190h118zM379 136v2q17 116 -95 150l-60 19q-63 19 -56 69q5 38 33 59.5t67 21.5q57 0 113 -27l25 57q-53 35 -135 35q-73 -1 -119 -43.5t-54 -101.5q-6 -50 16 -84.5t85 -54.5l57 -19q66 -22 59 -77q0 -1 -0.5 -3t-0.5 -3q-9 -39 -35.5 -59.5
t-65.5 -20.5h-7q-69 0 -125 42l-26 -60q20 -20 61.5 -35t90.5 -15q67 0 113 38.5t59 109.5z" />
    <glyph glyph-name="Scircumflex" unicode="&#x15c;" horiz-adv-x="605" 
d="M270 802l115 189h100l61 -189h-63l-57 133l-94 -133h-62zM85 119l-34 -70q84 -60 238 -60q110 0 181 55.5t86 166.5q12 85 -24 131t-115 67l-124 33q-98 26 -87 105q18 123 182 123q51 0 99.5 -14t76.5 -32l34 68q-72 53 -198 53q-117 0 -191 -50t-88 -153
q-20 -135 129 -176l130 -36q59 -16 78.5 -45.5t13.5 -76.5q-21 -145 -169 -145q-118 0 -218 56z" />
    <glyph glyph-name="scircumflex" unicode="&#x15d;" horiz-adv-x="443" 
d="M162 611l115 189h100l61 -189h-63l-57 133l-94 -133h-62zM379 136v2q17 116 -95 150l-60 19q-63 19 -56 69q5 38 33 59.5t67 21.5q57 0 113 -27l25 57q-53 35 -135 35q-73 -1 -119 -43.5t-54 -101.5q-6 -50 16 -84.5t85 -54.5l57 -19q66 -22 59 -77q0 -1 -0.5 -3t-0.5 -3
q-9 -39 -35.5 -59.5t-65.5 -20.5h-7q-69 0 -125 42l-26 -60q20 -20 61.5 -35t90.5 -15q67 0 113 38.5t59 109.5z" />
    <glyph glyph-name="Scedilla" unicode="&#x15e;" horiz-adv-x="605" 
d="M51 49l34 70q100 -56 218 -56q148 0 169 145q6 47 -13.5 76.5t-78.5 45.5l-130 36q-149 41 -129 176q14 103 88 153t191 50q126 0 198 -53l-34 -68q-28 18 -76.5 32t-99.5 14q-164 0 -182 -123q-11 -79 87 -105l124 -33q79 -21 115 -67t24 -131q-15 -108 -83 -163.5
t-174 -58.5l5 19h-41l-5 -18q-136 7 -207 59zM184 -197l10 45q41 -13 60 -13q46 0 51 38q3 20 -8 29.5t-32 9.5h-3q-2 0 -5.5 -0.5t-6.5 -0.5l-13 -1l21 80q5 0 15 -0.5t16 -0.5h10l-10 -36h4q35 0 55.5 -20t15.5 -58q-6 -40 -36 -61.5t-74 -21.5q-26 0 -70 11z" />
    <glyph glyph-name="scedilla" unicode="&#x15f;" horiz-adv-x="443" 
d="M379 138v-2q-13 -68 -56 -106t-106 -41l6 19h-41l-5 -18q-85 9 -122 48l26 60q56 -42 125 -42h7q39 0 65.5 20.5t35.5 59.5q0 1 0.5 3t0.5 3q7 55 -59 77l-57 19q-63 20 -85 54.5t-16 84.5q8 59 54 101.5t119 43.5q82 0 135 -35l-25 -57q-56 27 -113 27q-39 0 -67 -21.5
t-33 -59.5q-7 -50 56 -69l60 -19q112 -34 95 -150zM103 -197l10 45q41 -13 60 -13q46 0 51 38q3 20 -8 29.5t-32 9.5h-2q-3 0 -6.5 -0.5t-6.5 -0.5l-13 -1l21 80q18 -2 30 -2q1 0 5 0.5t5 0.5l-9 -36h4q35 0 55.5 -20t15.5 -58q-6 -40 -36 -61.5t-74 -21.5q-26 0 -70 11z
" />
    <glyph glyph-name="Scaron" unicode="&#x160;" horiz-adv-x="605" 
d="M297 991h62l53 -152l97 152h63l-114 -189h-100zM85 119l-34 -70q84 -60 238 -60q110 0 181 55.5t86 166.5q12 85 -24 131t-115 67l-124 33q-98 26 -87 105q18 123 182 123q51 0 99.5 -14t76.5 -32l34 68q-72 53 -198 53q-117 0 -191 -50t-88 -153q-20 -135 129 -176
l130 -36q59 -16 78.5 -45.5t13.5 -76.5q-21 -145 -169 -145q-118 0 -218 56z" />
    <glyph glyph-name="scaron" unicode="&#x161;" horiz-adv-x="443" 
d="M189 800h62l53 -152l97 152h63l-114 -189h-100zM379 136v2q17 116 -95 150l-60 19q-63 19 -56 69q5 38 33 59.5t67 21.5q57 0 113 -27l25 57q-53 35 -135 35q-73 -1 -119 -43.5t-54 -101.5q-6 -50 16 -84.5t85 -54.5l57 -19q66 -22 59 -77q0 -1 -0.5 -3t-0.5 -3
q-9 -39 -35.5 -59.5t-65.5 -20.5h-7q-69 0 -125 42l-26 -60q20 -20 61.5 -35t90.5 -15q67 0 113 38.5t59 109.5z" />
    <glyph glyph-name="Tcaron" unicode="&#x164;" horiz-adv-x="500" 
d="M91 655l10 75h490l-11 -75h-204l-91 -655h-83l91 655h-202zM244 991h62l53 -152l97 152h63l-114 -189h-100z" />
    <glyph glyph-name="tcaron" unicode="&#x165;" horiz-adv-x="327" 
d="M214 452l-39 -281q-10 -71 -1 -92t51 -21q13 0 57 4l-3 -65q-74 -7 -80 -7q-79 0 -95 50t5 165l35 247h-70l13 57h65l46 200l53 5l-29 -205h122l-9 -57h-121zM607 715l-95 -255h-50l45 255h100z" />
    <glyph glyph-name="Tbar" unicode="&#x166;" horiz-adv-x="512" 
d="M91 655l10 75h490l-11 -75h-204l-47 -336h66l-9 -60h-65l-36 -259h-83l36 259h-85l8 60h85l47 336h-202z" />
    <glyph glyph-name="tbar" unicode="&#x167;" horiz-adv-x="317" 
d="M214 452l-11 -79h87l-9 -61h-87l-19 -141q-10 -71 -1 -92t51 -21q13 0 57 4l-3 -65q-74 -7 -80 -7q-79 0 -95 50t5 165l15 107h-64l8 61h64l12 79h-70l13 57h65l46 200l53 5l-29 -205h122l-9 -57h-121z" />
    <glyph glyph-name="Utilde" unicode="&#x168;" horiz-adv-x="676" 
d="M350 821h-50q15 107 93 107q33 0 79 -23t49 -23h1q19 1 28 46h50q-14 -107 -83 -107q-21 0 -69.5 24t-65.5 24h-1q-22 0 -31 -48zM315 -11q-141 0 -189.5 69t-30.5 197l67 475h83l-66 -472q-15 -106 19.5 -151.5t127.5 -45.5q92 0 139.5 45.5t62.5 151.5l66 472h83
l-67 -475q-18 -128 -85.5 -197t-209.5 -69z" />
    <glyph glyph-name="utilde" unicode="&#x169;" horiz-adv-x="536" 
d="M254 630h-50q15 107 93 107q33 0 79 -23t49 -23h1q19 1 28 46h50q-14 -107 -83 -107q-21 0 -69.5 24t-65.5 24h-1q-22 0 -31 -48zM72 169l48 340h70l-47 -338q-9 -64 17.5 -90t80.5 -26q113 0 130 116l47 338h70l-48 -340q-13 -94 -71 -137.5t-138 -43.5t-126 44t-33 137
z" />
    <glyph glyph-name="Umacron" unicode="&#x16a;" horiz-adv-x="676" 
d="M487 813h-245v70h245v-70zM314 -11q-141 0 -189.5 69t-30.5 197l67 475h83l-66 -472q-15 -106 19.5 -151.5t127.5 -45.5q92 0 139.5 45.5t62.5 151.5l66 472h83l-67 -475q-18 -128 -85.5 -197t-209.5 -69z" />
    <glyph glyph-name="umacron" unicode="&#x16b;" horiz-adv-x="536" 
d="M391 622h-245v70h245v-70zM71 169l48 340h70l-47 -338q-9 -64 17.5 -90t80.5 -26q113 0 130 116l47 338h70l-48 -340q-13 -94 -71 -137.5t-138 -43.5t-126 44t-33 137z" />
    <glyph glyph-name="Ubreve" unicode="&#x16c;" horiz-adv-x="676" 
d="M444 825q-46 0 -75.5 33.5t-21.5 92.5h54q-4 -34 10.5 -51.5t40.5 -17.5q27 0 47 18t24 51h55q-8 -59 -47.5 -92.5t-86.5 -33.5zM315 -11q-141 0 -189.5 69t-30.5 197l67 475h83l-66 -472q-15 -106 19.5 -151.5t127.5 -45.5q92 0 139.5 45.5t62.5 151.5l66 472h83
l-67 -475q-18 -128 -85.5 -197t-209.5 -69z" />
    <glyph glyph-name="ubreve" unicode="&#x16d;" horiz-adv-x="536" 
d="M347 634q-46 0 -75.5 33.5t-21.5 92.5h54q-4 -34 10.5 -51.5t40.5 -17.5q27 0 47 18t24 51h55q-8 -59 -47.5 -92.5t-86.5 -33.5zM72 169l48 340h70l-47 -338q-9 -64 17.5 -90t80.5 -26q113 0 130 116l47 338h70l-48 -340q-13 -94 -71 -137.5t-138 -43.5t-126 44t-33 137z
" />
    <glyph glyph-name="Uring" unicode="&#x16e;" horiz-adv-x="676" 
d="M470 991q37 0 59.5 -27.5t16.5 -68.5q-6 -40 -35.5 -65t-65.5 -25q-38 0 -61 24.5t-17 65.5q6 42 36.5 69t66.5 27zM449 840q17 0 32.5 16.5t18.5 38.5q3 23 -7.5 39.5t-28.5 16.5q-17 0 -33 -17t-19 -39q-3 -25 6.5 -40t30.5 -15zM315 -11q-141 0 -189.5 69t-30.5 197
l67 475h83l-66 -472q-15 -106 19.5 -151.5t127.5 -45.5q92 0 139.5 45.5t62.5 151.5l66 472h83l-67 -475q-18 -128 -85.5 -197t-209.5 -69z" />
    <glyph glyph-name="uring" unicode="&#x16f;" horiz-adv-x="536" 
d="M373 800q37 0 59.5 -27.5t16.5 -68.5q-6 -40 -35.5 -65t-65.5 -25q-38 0 -61 24.5t-17 65.5q6 42 36.5 69t66.5 27zM352 649q17 0 32.5 16.5t18.5 38.5q3 23 -7.5 39.5t-28.5 16.5q-17 0 -33 -17t-19 -39q-3 -25 6.5 -40t30.5 -15zM72 169l48 340h70l-47 -338
q-9 -64 17.5 -90t80.5 -26q113 0 130 116l47 338h70l-48 -340q-13 -94 -71 -137.5t-138 -43.5t-126 44t-33 137z" />
    <glyph glyph-name="Uhungarumlaut" unicode="&#x170;" horiz-adv-x="676" 
d="M604 969l-141 -163h-47l118 163h70zM494 969l-141 -163h-47l116 163h72zM315 -11q-141 0 -189.5 69t-30.5 197l67 475h83l-66 -472q-15 -106 19.5 -151.5t127.5 -45.5q92 0 139.5 45.5t62.5 151.5l66 472h83l-67 -475q-18 -128 -85.5 -197t-209.5 -69z" />
    <glyph glyph-name="uhungarumlaut" unicode="&#x171;" horiz-adv-x="536" 
d="M507 778l-141 -163h-47l118 163h70zM397 778l-141 -163h-47l116 163h72zM72 169l48 340h70l-47 -338q-9 -64 17.5 -90t80.5 -26q113 0 130 116l47 338h70l-48 -340q-13 -94 -71 -137.5t-138 -43.5t-126 44t-33 137z" />
    <glyph glyph-name="Uogonek" unicode="&#x172;" horiz-adv-x="676" 
d="M513 -148q27 0 65 16l-9 -57q-38 -16 -74 -16q-39 0 -60.5 22.5t-15.5 63.5q9 67 105 121h52q-91 -65 -97 -106q-2 -19 8.5 -31.5t25.5 -12.5zM315 -11q-141 0 -189.5 69t-30.5 197l67 475h83l-66 -472q-15 -106 19.5 -151.5t127.5 -45.5q92 0 139.5 45.5t62.5 151.5
l66 472h83l-67 -475q-18 -128 -85.5 -197t-209.5 -69z" />
    <glyph glyph-name="uogonek" unicode="&#x173;" horiz-adv-x="536" 
d="M387 -148q27 0 65 16l-9 -57q-38 -16 -74 -16q-39 0 -60.5 22.5t-15.5 63.5q9 67 105 121h52q-91 -65 -97 -106q-2 -19 8.5 -31.5t25.5 -12.5zM72 169l48 340h70l-47 -338q-9 -64 17.5 -90t80.5 -26q113 0 130 116l47 338h70l-48 -340q-13 -94 -71 -137.5t-138 -43.5
t-126 44t-33 137z" />
    <glyph glyph-name="Wcircumflex" unicode="&#x174;" horiz-adv-x="1040" 
d="M487 802l115 189h100l61 -189h-63l-57 133l-94 -133h-62zM715 95l287 635h85l-337 -730h-96l-75 598l-266 -598h-95l-128 730h86l106 -634l262 608h96z" />
    <glyph glyph-name="wcircumflex" unicode="&#x175;" horiz-adv-x="780" 
d="M330 611l115 189h100l61 -189h-63l-57 133l-94 -133h-62zM78 509h73l45 -405l178 405h82l60 -404l156 404h71l-210 -509h-69l-61 431l-189 -431h-70z" />
    <glyph glyph-name="Ycircumflex" unicode="&#x176;" horiz-adv-x="606" 
d="M270 802l115 189h100l61 -189h-63l-57 133l-94 -133h-62zM672 730l-316 -430l-42 -300h-83l43 300l-172 430h86l144 -350l251 350h89z" />
    <glyph glyph-name="ycircumflex" unicode="&#x177;" horiz-adv-x="483" 
d="M182 611l115 189h100l61 -189h-63l-57 133l-94 -133h-62zM147 509h-74l108 -505q-53 -119 -82.5 -147t-103.5 -28h-12l-3 -74h23q90 0 141 52.5t100 161.5l243 540h-74q-126 -294 -180 -418z" />
    <glyph glyph-name="Ydieresis" unicode="&#x178;" horiz-adv-x="606" 
d="M352 803h-71l14 104h72zM533 803h-73l14 104h73zM672 730l-316 -430l-42 -300h-83l43 300l-172 430h86l144 -350l251 350h89z" />
    <glyph glyph-name="Zacute" unicode="&#x179;" horiz-adv-x="585" 
d="M528 991l-179 -190h-53l114 190h118zM629 730l-8 -60l-466 -594h379l-16 -76h-476l10 68l460 587h-362l11 75h468z" />
    <glyph glyph-name="zacute" unicode="&#x17a;" horiz-adv-x="432" 
d="M425 800l-179 -190h-53l114 190h118zM47 64l-9 -64h308l8 63h-229l275 384l9 62h-302l-8 -62h221z" />
    <glyph glyph-name="Zdotaccent" unicode="&#x17b;" horiz-adv-x="585" 
d="M430 923q30 0 43 -19t10 -45t-22 -45.5t-49 -19.5q-29 0 -42.5 19.5t-10.5 45.5t22.5 45t48.5 19zM629 730l-8 -60l-466 -594h379l-16 -76h-476l10 68l460 587h-362l11 75h468z" />
    <glyph glyph-name="zdotaccent" unicode="&#x17c;" horiz-adv-x="432" 
d="M318 727q30 0 43 -19t10 -45t-22 -45.5t-49 -19.5q-29 0 -42.5 19.5t-10.5 45.5t22.5 45t48.5 19zM47 64l-9 -64h308l8 63h-229l275 384l9 62h-302l-8 -62h221z" />
    <glyph glyph-name="Zcaron" unicode="&#x17d;" horiz-adv-x="585" 
d="M287 991h62l53 -152l97 152h63l-114 -189h-100zM629 730l-8 -60l-466 -594h379l-16 -76h-476l10 68l460 587h-362l11 75h468z" />
    <glyph glyph-name="zcaron" unicode="&#x17e;" horiz-adv-x="432" 
d="M184 800h62l53 -152l97 152h63l-114 -189h-100zM47 64l-9 -64h308l8 63h-229l275 384l9 62h-302l-8 -62h221z" />
    <glyph glyph-name="uni018F" unicode="&#x18f;" horiz-adv-x="652" 
d="M301 -11q-59 0 -105 19.5t-72 52t-43.5 74.5t-19.5 87.5t0 90.5l13 66h494q9 57 0.5 109.5t-30 93t-66.5 64.5t-108 24q-84 0 -178 -60l-22 66q51 36 100 52.5t117 16.5q155 0 226.5 -106.5t48.5 -268.5q-23 -166 -122.5 -273.5t-232.5 -107.5zM555 308h-412
q-19 -245 169 -245q87 0 151.5 69t91.5 176z" />
    <glyph glyph-name="florin" unicode="&#x192;" horiz-adv-x="411" 
d="M232 422h-66l15 74h72l20 79q46 180 161 180q24 0 52 -10l-14 -77q-21 12 -39 12q-31 0 -47.5 -19.5t-27.5 -61.5l-31 -103h78l-15 -74h-82l-106 -359q-13 -43 -24 -73t-27 -64t-33 -54t-40.5 -33.5t-51.5 -13.5q-12 0 -37 9l15 72q20 -9 27 -9q43 0 76 106q26 78 70 230
t55 189z" />
    <glyph glyph-name="uni01C4" unicode="&#x1c4;" horiz-adv-x="1329" 
d="M1030 991h62l53 -152l97 152h63l-114 -189h-100zM1372 730l-8 -60l-466 -594h379l-16 -76h-476l10 68l460 587h-362l11 75h468zM244 655l-81 -579h143q127 0 206 71.5t98 210.5q12 84 -1.5 143t-51 92t-90 47.5t-125.5 14.5h-98zM69 0l102 730h171q93 0 162 -18.5
t119.5 -60t70.5 -115t5 -176.5q-25 -177 -135.5 -268.5t-277.5 -91.5h-217z" />
    <glyph glyph-name="uni01C5" unicode="&#x1c5;" horiz-adv-x="1175" 
d="M927 800h62l53 -152l97 152h63l-114 -189h-100zM790 64l-9 -64h308l8 63h-229l275 384l9 62h-302l-8 -62h221zM244 655l-81 -579h143q127 0 206 71.5t98 210.5q12 84 -1.5 143t-51 92t-90 47.5t-125.5 14.5h-98zM69 0l102 730h171q93 0 162 -18.5t119.5 -60t70.5 -115
t5 -176.5q-25 -177 -135.5 -268.5t-277.5 -91.5h-217z" />
    <glyph glyph-name="uni01c7" unicode="&#x1c7;" horiz-adv-x="737" 
d="M583 88l91 642h83l-86 -612q-9 -63 -19.5 -99t-32.5 -67t-60 -43.5t-98 -12.5h-16v69h34q57 0 76 29t28 94zM172 730h83l-92 -654h298l-16 -76h-376z" />
    <glyph glyph-name="uni01c8" unicode="&#x1c8;" horiz-adv-x="686" 
d="M708 730l-14 -96h-70l13 96h71zM680 536l-85 -604q-15 -101 -48 -139t-116 -38h-22l1 74h22q53 0 69 22.5t25 89.5l84 595h70zM172 730h83l-92 -654h298l-16 -76h-376z" />
    <glyph glyph-name="uni01ca" unicode="&#x1ca;" horiz-adv-x="995" 
d="M841 88l91 642h83l-86 -612q-9 -63 -19.5 -99t-32.5 -67t-60 -43.5t-98 -12.5h-16v69h34q57 0 76 29t28 94zM616 0h-92l-292 605l-85 -605h-78l102 730h91l295 -606l85 606h77z" />
    <glyph glyph-name="uni01cb" unicode="&#x1cb;" horiz-adv-x="943" 
d="M966 730l-14 -96h-70l13 96h71zM938 536l-85 -604q-15 -101 -48 -139t-116 -38h-22l1 74h22q53 0 69 22.5t25 89.5l84 595h70zM616 0h-92l-292 605l-85 -605h-78l102 730h91l295 -606l85 606h77z" />
    <glyph glyph-name="Gacute" unicode="&#x1f4;" horiz-adv-x="699" 
d="M585 991l-179 -190h-53l114 190h118zM370 -11q66 0 121.5 16t121.5 55l44 313h-233l-16 -73h168l-27 -193q-28 -17 -73.5 -30.5t-85.5 -13.5q-122 0 -172 85t-31 216q18 131 92.5 218.5t196.5 87.5q47 0 92 -18.5t71 -44.5l39 67q-73 71 -199 71q-157 0 -257 -108.5
t-123 -272.5q-14 -103 9 -186t90.5 -136t171.5 -53z" />
    <glyph glyph-name="gacute" unicode="&#x1f5;" horiz-adv-x="569" 
d="M493 800l-179 -190h-53l114 190h118zM104 -245v74h86q53 0 88 13t55 43.5t29.5 64t17.5 90.5l7 47q-64 -87 -154 -87q-64 0 -105 39.5t-53.5 95.5t-3.5 118q17 117 79 193t162 76q85 0 126 -84l10 71h68l-68 -480q-9 -60 -21 -101t-40 -84.5t-80.5 -66t-128.5 -22.5h-74z
M253 70q69 0 108 47.5t50 122.5l5 37q11 77 -15.5 126.5t-93.5 49.5q-68 0 -110 -60t-53 -136q-10 -73 17 -130t92 -57z" />
    <glyph glyph-name="uni01FA" unicode="&#x1fa;" horiz-adv-x="635" 
d="M673 1230l-179 -190h-53l114 190h118zM233 298h217l-54 348zM510 0l-42 231h-270l-113 -231h-82l356 730h96l139 -730h-84zM457 991q-36 0 -66.5 -27t-36.5 -69q-6 -41 17 -65.5t61 -24.5q36 0 65.5 25t35.5 65q6 41 -16.5 68.5t-59.5 27.5zM436 840q-21 0 -30.5 15
t-6.5 40q3 22 19 39t33 17q18 0 28.5 -16.5t7.5 -39.5q-3 -22 -18.5 -38.5t-32.5 -16.5z" />
    <glyph glyph-name="uni01FB" unicode="&#x1fb;" horiz-adv-x="501" 
d="M564 1039l-179 -190h-53l114 190h118zM193 52q34 0 76 20.5t68 52.5l17 124q-41 -7 -42 -7q-101 -14 -139.5 -37t-45.5 -75q-11 -78 66 -78zM330 58q-63 -70 -154 -70q-61 0 -95 35t-24 104q4 28 14.5 51t23 38.5t34.5 28.5t39 20.5t47 14.5t48 10.5t52 8.5l47 6l9 57
q12 91 -78 91q-78 0 -148 -34l-11 62q71 41 167 41q161 0 140 -147l-52 -375h-57zM363 800q-36 0 -66.5 -27t-36.5 -69q-6 -41 17 -65.5t61 -24.5q36 0 65.5 25t35.5 65q6 41 -16.5 68.5t-59.5 27.5zM342 649q-21 0 -30.5 15t-6.5 40q3 22 19 39t33 17q18 0 28.5 -16.5
t7.5 -39.5q-3 -22 -18.5 -38.5t-32.5 -16.5z" />
    <glyph glyph-name="uni01FC" unicode="&#x1fc;" horiz-adv-x="1021" 
d="M746 991l-179 -190h-53l114 190h118zM40 0l480 766h473l-12 -78h-319l-19 -257h287l-11 -77h-278l-19 -277h283l-11 -77h-355l15 208h-305l-131 -208h-78zM583 688h-23l-262 -400h257z" />
    <glyph glyph-name="uni01FD" unicode="&#x1fd;" horiz-adv-x="817" 
d="M617 800l-179 -190h-53l114 190h118zM56 146q5 37 22.5 64.5t39.5 43t58 25.5t66 13.5t75 6.5q5 0 14 1t13 1l11 80q7 50 -8 73t-58 23q-83 0 -155 -40l-6 67q76 45 169 45q52 0 85 -24t35 -70q59 94 161 94q80 0 109.5 -62t16.5 -153q-5 -38 -22.5 -54t-65.5 -19
l-210 -12q-15 -191 104 -191q69 0 143 54l13 -59q-75 -65 -170 -65q-85 0 -127 67q-104 -68 -199 -68q-60 0 -93 38t-21 121zM184 55q13 0 28 2.5t35.5 9t31.5 10.5t36.5 13.5t30.5 11.5q-19 60 -12 142q-9 0 -27 -2q-98 -9 -136.5 -31.5t-44.5 -68.5q-12 -87 58 -87z
M568 480q-60 0 -98.5 -49.5t-53.5 -130.5l219 14v5q11 84 -5 122.5t-62 38.5z" />
    <glyph glyph-name="uni01FE" unicode="&#x1fe;" horiz-adv-x="838" 
d="M654 991l-179 -190h-53l114 190h118zM329 84q30 -10 72 -10q120 0 194.5 86t93.5 223q26 184 -69 263zM659 852l56 -22l-50 -99q149 -95 114 -351q-25 -176 -127 -284t-262 -108q-61 0 -104 14l-47 -90l-53 21l47 93q-78 45 -109 138t-14 216q26 182 129 288t260 106
q60 0 111 -17zM488 688q-118 0 -193.5 -85.5t-94.5 -219.5q-13 -92 6.5 -163.5t70.5 -108.5l291 564q-33 13 -80 13z" />
    <glyph glyph-name="uni01FF" unicode="&#x1ff;" horiz-adv-x="585" 
d="M470 667l30 -18l-78 -153q50 -31 69.5 -95t7.5 -146q-16 -112 -83.5 -189.5t-166.5 -77.5q-43 0 -77 14l-69 -136l-27 18l68 135q-47 33 -66 95t-8 140q16 114 85 191t170 77q36 0 67 -11zM426 254q18 128 -37 176l-184 -363q22 -12 55 -12q70 0 112 57t54 142zM143 252
q-15 -113 35 -165l182 360q-21 8 -45 8q-70 0 -115 -59t-57 -144zM501 800l-179 -190h-53l114 190h118z" />
    <glyph glyph-name="uni0200" unicode="&#x200;" horiz-adv-x="635" 
d="M465 795l-92 163h70l70 -163h-48zM340 795l-94 163h70l72 -163h-48zM233 298h217l-54 348zM510 0l-42 231h-270l-113 -231h-82l356 730h96l139 -730h-84z" />
    <glyph glyph-name="uni0201" unicode="&#x201;" horiz-adv-x="501" 
d="M355 599l-92 163h70l70 -163h-48zM230 599l-94 163h70l72 -163h-48zM193 52q34 0 76 20.5t68 52.5l17 124q-41 -7 -42 -7q-101 -14 -139.5 -37t-45.5 -75q-11 -78 66 -78zM330 58q-63 -70 -154 -70q-61 0 -95 35t-24 104q4 28 14.5 51t23 38.5t34.5 28.5t39 20.5t47 14.5
t48 10.5t52 8.5l47 6l9 57q12 91 -78 91q-78 0 -148 -34l-11 62q71 41 167 41q161 0 140 -147l-52 -375h-57z" />
    <glyph glyph-name="uni0202" unicode="&#x202;" horiz-adv-x="635" 
d="M444 920q47 0 77 -33.5t22 -92.5h-54q4 34 -11.5 51.5t-41.5 17.5t-45.5 -17.5t-23.5 -51.5h-55q8 59 47 92.5t85 33.5zM233 298h217l-54 348zM510 0l-42 231h-270l-113 -231h-82l356 730h96l139 -730h-84z" />
    <glyph glyph-name="uni0203" unicode="&#x203;" horiz-adv-x="501" 
d="M334 724q47 0 77 -33.5t22 -92.5h-54q4 34 -11.5 51.5t-41.5 17.5t-45.5 -17.5t-23.5 -51.5h-55q8 59 47 92.5t85 33.5zM193 52q34 0 76 20.5t68 52.5l17 124q-41 -7 -42 -7q-101 -14 -139.5 -37t-45.5 -75q-11 -78 66 -78zM330 58q-63 -70 -154 -70q-61 0 -95 35
t-24 104q4 28 14.5 51t23 38.5t34.5 28.5t39 20.5t47 14.5t48 10.5t52 8.5l47 6l9 57q12 91 -78 91q-78 0 -148 -34l-11 62q71 41 167 41q161 0 140 -147l-52 -375h-57z" />
    <glyph glyph-name="uni0204" unicode="&#x204;" horiz-adv-x="556" 
d="M434 795l-92 163h70l70 -163h-48zM309 795l-94 163h70l72 -163h-48zM511 413l-11 -75h-301l-36 -262h333l-17 -76h-410l102 730h404l-17 -75h-314l-34 -242h301z" />
    <glyph glyph-name="uni0205" unicode="&#x205;" horiz-adv-x="531" 
d="M244 -12q107 0 179 64l-14 56q-75 -50 -153 -50q-62 0 -94.5 50t-20.5 133h314l5 35q16 113 -24 179.5t-125 66.5q-90 -3 -157 -78t-83 -189q-17 -123 29 -195t144 -72zM151 294q16 74 57 118t93 44q53 0 79.5 -42t15.5 -120h-245zM379 599l-92 163h70l70 -163h-48z
M254 599l-94 163h70l72 -163h-48z" />
    <glyph glyph-name="uni0206" unicode="&#x206;" horiz-adv-x="556" 
d="M413 920q47 0 77 -33.5t22 -92.5h-54q4 34 -11.5 51.5t-41.5 17.5t-45.5 -17.5t-23.5 -51.5h-55q9 59 47.5 92.5t84.5 33.5zM511 413l-11 -75h-301l-36 -262h333l-17 -76h-410l102 730h404l-17 -75h-314l-34 -242h301z" />
    <glyph glyph-name="uni0207" unicode="&#x207;" horiz-adv-x="531" 
d="M244 -12q107 0 179 64l-14 56q-75 -50 -153 -50q-62 0 -94.5 50t-20.5 133h314l5 35q16 113 -24 179.5t-125 66.5q-90 -3 -157 -78t-83 -189q-17 -123 29 -195t144 -72zM151 294q16 74 57 118t93 44q53 0 79.5 -42t15.5 -120h-245zM358 724q47 0 77 -33.5t22 -92.5h-54
q4 34 -11.5 51.5t-41.5 17.5t-45.5 -17.5t-23.5 -51.5h-55q9 59 47.5 92.5t84.5 33.5z" />
    <glyph glyph-name="uni0208" unicode="&#x208;" horiz-adv-x="248" 
d="M262 795l-92 163h70l70 -163h-48zM137 795l-94 163h70l72 -163h-48zM262 730l-103 -730h-83l103 730h83z" />
    <glyph glyph-name="uni0209" unicode="&#x209;" horiz-adv-x="209" 
d="M219 599l-92 163h70l70 -163h-48zM94 599l-94 163h70l72 -163h-48zM203 509l-72 -509h-70l71 509h71z" />
    <glyph glyph-name="uni020A" unicode="&#x20a;" horiz-adv-x="248" 
d="M242 920q47 0 77 -33.5t22 -92.5h-54q4 34 -11.5 51.5t-41.5 17.5t-45.5 -17.5t-23.5 -51.5h-55q8 59 47 92.5t85 33.5zM262 730l-103 -730h-83l103 730h83z" />
    <glyph glyph-name="uni020B" unicode="&#x20b;" horiz-adv-x="209" 
d="M198 724q47 0 77 -33.5t22 -92.5h-54q4 34 -11.5 51.5t-41.5 17.5t-45.5 -17.5t-23.5 -51.5h-55q9 59 47.5 92.5t84.5 33.5zM203 509l-72 -509h-70l71 509h71z" />
    <glyph glyph-name="uni020C" unicode="&#x20c;" horiz-adv-x="811" 
d="M545 795l-92 163h70l70 -163h-48zM420 795l-94 163h70l72 -163h-48zM475 670q-120 0 -194.5 -82t-94.5 -224q-18 -134 32 -217.5t172 -83.5t195.5 83.5t91.5 217.5q19 141 -31.5 223.5t-170.5 82.5zM379 -11q-160 0 -232 104t-49 271q24 173 127 277t260 104t231 -104
t50 -277q-23 -166 -125.5 -270.5t-261.5 -104.5z" />
    <glyph glyph-name="uni020D" unicode="&#x20d;" horiz-adv-x="577" 
d="M402 599l-92 163h70l70 -163h-48zM277 599l-94 163h70l72 -163h-48zM426 254q12 88 -13 144.5t-98 56.5q-70 0 -115 -59t-57 -144q-11 -83 17.5 -140t99.5 -57q70 0 112 57t54 142zM499 255q-16 -112 -83.5 -189.5t-166.5 -77.5q-101 0 -148 76t-31 190t85 191t170 77
q102 0 146.5 -75.5t27.5 -191.5z" />
    <glyph glyph-name="uni020E" unicode="&#x20e;" horiz-adv-x="811" 
d="M524 920q47 0 77 -33.5t22 -92.5h-54q4 34 -11.5 51.5t-41.5 17.5t-45.5 -17.5t-23.5 -51.5h-55q8 59 47 92.5t85 33.5zM475 670q-120 0 -194.5 -82t-94.5 -224q-18 -134 32 -217.5t172 -83.5t195.5 83.5t91.5 217.5q19 141 -31.5 223.5t-170.5 82.5zM379 -11
q-160 0 -232 104t-49 271q24 173 127 277t260 104t231 -104t50 -277q-23 -166 -125.5 -270.5t-261.5 -104.5z" />
    <glyph glyph-name="uni020F" unicode="&#x20f;" horiz-adv-x="577" 
d="M381 724q47 0 77 -33.5t22 -92.5h-54q4 34 -11.5 51.5t-41.5 17.5t-45.5 -17.5t-23.5 -51.5h-55q9 59 47.5 92.5t84.5 33.5zM426 254q12 88 -13 144.5t-98 56.5q-70 0 -115 -59t-57 -144q-11 -83 17.5 -140t99.5 -57q70 0 112 57t54 142zM499 255q-16 -112 -83.5 -189.5
t-166.5 -77.5q-101 0 -148 76t-31 190t85 191t170 77q102 0 146.5 -75.5t27.5 -191.5z" />
    <glyph glyph-name="uni0210" unicode="&#x210;" horiz-adv-x="625" 
d="M485 795l-92 163h70l70 -163h-48zM360 795l-94 163h70l72 -163h-48zM244 655l-35 -244l162 -2q89 -1 128 30t48 99q9 59 -19 88t-104 29h-180zM585 0h-93l-61 227q-26 93 -33 109q-26 -2 -79 -2l-120 4l-47 -338h-83l102 730h218q68 0 111 -6.5t78 -26t47 -58.5t4 -99
q-10 -70 -49.5 -119t-107.5 -67l6 -16q7 -17 16.5 -42t14.5 -41z" />
    <glyph glyph-name="uni0211" unicode="&#x211;" horiz-adv-x="323" 
d="M299 599l-92 163h70l70 -163h-48zM174 599l-94 163h70l72 -163h-48zM55 0h70l42 296q9 60 48 99.5t100 39.5h17l5 74h-13q-89 0 -146 -92l7 92h-60l-15 -117z" />
    <glyph glyph-name="uni0212" unicode="&#x212;" horiz-adv-x="625" 
d="M465 920q47 0 77 -33.5t22 -92.5h-54q4 34 -11.5 51.5t-41.5 17.5t-45.5 -17.5t-23.5 -51.5h-55q9 59 47.5 92.5t84.5 33.5zM244 655l-35 -244l162 -2q89 -1 128 30t48 99q9 59 -19 88t-104 29h-180zM585 0h-93l-61 227q-26 93 -33 109q-26 -2 -79 -2l-120 4l-47 -338
h-83l102 730h218q68 0 111 -6.5t78 -26t47 -58.5t4 -99q-10 -70 -49.5 -119t-107.5 -67l6 -16q7 -17 16.5 -42t14.5 -41z" />
    <glyph glyph-name="uni0213" unicode="&#x213;" horiz-adv-x="323" 
d="M278 724q47 0 77 -33.5t22 -92.5h-54q4 34 -11.5 51.5t-41.5 17.5t-45.5 -17.5t-23.5 -51.5h-55q8 59 47 92.5t85 33.5zM55 0h70l42 296q9 60 48 99.5t100 39.5h17l5 74h-13q-89 0 -146 -92l7 92h-60l-15 -117z" />
    <glyph glyph-name="uni0214" unicode="&#x214;" horiz-adv-x="676" 
d="M476 795l-92 163h70l70 -163h-48zM351 795l-94 163h70l72 -163h-48zM315 -11q-141 0 -189.5 69t-30.5 197l67 475h83l-66 -472q-15 -106 19.5 -151.5t127.5 -45.5q92 0 139.5 45.5t62.5 151.5l66 472h83l-67 -475q-18 -128 -85.5 -197t-209.5 -69z" />
    <glyph glyph-name="uni0215" unicode="&#x215;" horiz-adv-x="536" 
d="M380 599l-92 163h70l70 -163h-48zM255 599l-94 163h70l72 -163h-48zM72 169l48 340h70l-47 -338q-9 -64 17.5 -90t80.5 -26q113 0 130 116l47 338h70l-48 -340q-13 -94 -71 -137.5t-138 -43.5t-126 44t-33 137z" />
    <glyph glyph-name="uni0216" unicode="&#x216;" horiz-adv-x="676" 
d="M455 920q47 0 77 -33.5t22 -92.5h-54q4 34 -11.5 51.5t-41.5 17.5t-45.5 -17.5t-23.5 -51.5h-55q9 59 47.5 92.5t84.5 33.5zM315 -11q-141 0 -189.5 69t-30.5 197l67 475h83l-66 -472q-15 -106 19.5 -151.5t127.5 -45.5q92 0 139.5 45.5t62.5 151.5l66 472h83l-67 -475
q-18 -128 -85.5 -197t-209.5 -69z" />
    <glyph glyph-name="uni0217" unicode="&#x217;" horiz-adv-x="536" 
d="M359 724q47 0 77 -33.5t22 -92.5h-54q4 34 -11.5 51.5t-41.5 17.5t-45.5 -17.5t-23.5 -51.5h-55q9 59 47.5 92.5t84.5 33.5zM72 169l48 340h70l-47 -338q-9 -64 17.5 -90t80.5 -26q113 0 130 116l47 338h70l-48 -340q-13 -94 -71 -137.5t-138 -43.5t-126 44t-33 137z" />
    <glyph glyph-name="uni0218" unicode="&#x218;" horiz-adv-x="605" 
d="M245 -304l46 243h81l-70 -243h-57zM51 49l34 70q100 -56 218 -56q148 0 169 145q6 47 -13.5 76.5t-78.5 45.5l-130 36q-149 41 -129 176q14 103 88 153t191 50q126 0 198 -53l-34 -68q-28 18 -76.5 32t-99.5 14q-164 0 -182 -123q-11 -79 87 -105l124 -33q79 -21 115 -67
t24 -131q-15 -111 -86 -166.5t-181 -55.5q-154 0 -238 60z" />
    <glyph glyph-name="uni0219" unicode="&#x219;" horiz-adv-x="443" 
d="M158 -305l46 243h81l-70 -243h-57zM379 138v-2q-13 -71 -59 -109.5t-113 -38.5q-49 0 -90.5 15t-61.5 35l26 60q56 -42 125 -42h7q39 0 65.5 20.5t35.5 59.5q0 1 0.5 3t0.5 3q7 55 -59 77l-57 19q-63 20 -85 54.5t-16 84.5q8 59 54 101.5t119 43.5q82 0 135 -35l-25 -57
q-56 27 -113 27q-39 0 -67 -21.5t-33 -59.5q-7 -50 56 -69l60 -19q112 -34 95 -150z" />
    <glyph glyph-name="uni021A" unicode="&#x21a;" horiz-adv-x="500" 
d="M191 -293l46 243h81l-70 -243h-57zM91 655l10 75h490l-11 -75h-204l-91 -655h-83l91 655h-202z" />
    <glyph glyph-name="uni021B" unicode="&#x21b;" horiz-adv-x="327" 
d="M102 -297l46 243h81l-70 -243h-57zM214 452l-39 -281q-10 -71 -1 -92t51 -21q13 0 57 4l-3 -65q-74 -7 -80 -7q-79 0 -95 50t5 165l35 247h-70l13 57h65l46 200l53 5l-29 -205h122l-9 -57h-121z" />
    <glyph glyph-name="dotlessj" unicode="&#x237;" horiz-adv-x="184" 
d="M208 509l-83 -583q-14 -98 -47 -134.5t-116 -36.5h-22l1 74h22q53 0 69 21.5t25 86.5l80 572h71z" />
    <glyph glyph-name="uni0259" unicode="&#x259;" horiz-adv-x="462" 
d="M287 522q98 0 144 -72.5t29 -195.5q-16 -114 -81.5 -188.5t-155.5 -77.5h-7q-85 0 -123 66.5t-22 180.5l6 36h314q12 82 -21 131.5t-95 49.5q-77 0 -152 -50l-15 56q72 64 179 64zM230 54q52 0 93 43.5t57 116.5h-244q-11 -77 15 -118.5t79 -41.5z" />
    <glyph glyph-name="afii57929" unicode="&#x2bc;" horiz-adv-x="232" 
d="M138 538l76 231h74l-96 -231h-54z" />
    <glyph glyph-name="circumflex" unicode="&#x2c6;" horiz-adv-x="372" 
d="M136 611l115 189h100l61 -189h-63l-57 133l-94 -133h-62z" />
    <glyph glyph-name="caron" unicode="&#x2c7;" horiz-adv-x="372" 
d="M163 800h62l53 -152l97 152h63l-114 -189h-100z" />
    <glyph glyph-name="breve" unicode="&#x2d8;" horiz-adv-x="346" 
d="M264 634q-46 0 -75.5 33.5t-21.5 92.5h54q-4 -34 10.5 -51.5t40.5 -17.5q27 0 47 18t24 51h55q-8 -59 -47.5 -92.5t-86.5 -33.5z" />
    <glyph glyph-name="dotaccent" unicode="&#x2d9;" horiz-adv-x="190" 
d="M203 751q30 0 43 -19t10 -45t-22 -45t-49 -19q-29 0 -42.5 19t-10.5 45t22.5 45t48.5 19z" />
    <glyph glyph-name="ring" unicode="&#x2da;" horiz-adv-x="291" 
d="M261 800q37 0 59.5 -27.5t16.5 -68.5q-6 -40 -35.5 -65t-65.5 -25q-38 0 -61 24.5t-17 65.5q6 42 36.5 69t66.5 27zM240 649q17 0 32.5 16.5t18.5 38.5q3 23 -7.5 39.5t-28.5 16.5q-17 0 -33 -17t-19 -39q-3 -25 6.5 -40t30.5 -15z" />
    <glyph glyph-name="ogonek" unicode="&#x2db;" horiz-adv-x="270" 
d="M133 -148q27 0 65 16l-9 -57q-38 -16 -74 -16q-39 0 -60.5 22.5t-15.5 63.5q9 67 105 121h52q-91 -65 -97 -106q-2 -19 8.5 -31.5t25.5 -12.5z" />
    <glyph glyph-name="tilde" unicode="&#x2dc;" horiz-adv-x="405" 
d="M193 630h-50q15 107 93 107q34 0 79 -23t49 -23h1q19 1 28 46h50q-14 -107 -83 -107q-21 0 -69.5 24t-65.5 24h-1q-22 0 -31 -48z" />
    <glyph glyph-name="hungarumlaut" unicode="&#x2dd;" horiz-adv-x="380" 
d="M444 778l-141 -163h-47l118 163h70zM334 778l-141 -163h-47l116 163h72z" />
    <glyph glyph-name="dotaccentcmb" unicode="&#x307;" horiz-adv-x="190" 
d="M205 762q30 0 43 -19t10 -45t-22 -45.5t-49 -19.5q-29 0 -42.5 19.5t-10.5 45.5t22.5 45t48.5 19z" />
    <glyph glyph-name="uni030F" unicode="&#x30f;" horiz-adv-x="397" 
d="M380 615l-92 163h70l70 -163h-48zM255 615l-94 163h70l72 -163h-48z" />
    <glyph glyph-name="uni0311" unicode="&#x311;" horiz-adv-x="352" 
d="M284 760q47 0 77 -33.5t22 -92.5h-54q4 34 -11.5 51.5t-41.5 17.5t-45.5 -17.5t-23.5 -51.5h-55q8 60 47 93t85 33z" />
    <glyph glyph-name="uni0326" unicode="&#x326;" horiz-adv-x="256" 
d="M21 -328l79 243h77l-101 -243h-55z" />
    <glyph glyph-name="tonos" unicode="&#x384;" horiz-adv-x="216" 
d="M166 389q30 0 43 -19.5t10 -45.5t-22.5 -45t-49.5 -19q-29 0 -42.5 19t-10.5 45t23 45.5t49 19.5z" />
    <glyph glyph-name="dieresistonos" unicode="&#x385;" horiz-adv-x="216" 
d="M166 389q30 0 43 -19.5t10 -45.5t-22.5 -45t-49.5 -19q-29 0 -42.5 19t-10.5 45t23 45.5t49 19.5z" />
    <glyph glyph-name="Alphatonos" unicode="&#x386;" horiz-adv-x="216" 
d="M166 389q30 0 43 -19.5t10 -45.5t-22.5 -45t-49.5 -19q-29 0 -42.5 19t-10.5 45t23 45.5t49 19.5z" />
    <glyph glyph-name="Epsilontonos" unicode="&#x388;" horiz-adv-x="216" 
d="M166 389q30 0 43 -19.5t10 -45.5t-22.5 -45t-49.5 -19q-29 0 -42.5 19t-10.5 45t23 45.5t49 19.5z" />
    <glyph glyph-name="Etatonos" unicode="&#x389;" horiz-adv-x="216" 
d="M166 389q30 0 43 -19.5t10 -45.5t-22.5 -45t-49.5 -19q-29 0 -42.5 19t-10.5 45t23 45.5t49 19.5z" />
    <glyph glyph-name="Iotatonos" unicode="&#x38a;" horiz-adv-x="216" 
d="M166 389q30 0 43 -19.5t10 -45.5t-22.5 -45t-49.5 -19q-29 0 -42.5 19t-10.5 45t23 45.5t49 19.5z" />
    <glyph glyph-name="Omicrontonos" unicode="&#x38c;" horiz-adv-x="216" 
d="M166 389q30 0 43 -19.5t10 -45.5t-22.5 -45t-49.5 -19q-29 0 -42.5 19t-10.5 45t23 45.5t49 19.5z" />
    <glyph glyph-name="Upsilontonos" unicode="&#x38e;" horiz-adv-x="216" 
d="M166 389q30 0 43 -19.5t10 -45.5t-22.5 -45t-49.5 -19q-29 0 -42.5 19t-10.5 45t23 45.5t49 19.5z" />
    <glyph glyph-name="Omegatonos" unicode="&#x38f;" horiz-adv-x="216" 
d="M166 389q30 0 43 -19.5t10 -45.5t-22.5 -45t-49.5 -19q-29 0 -42.5 19t-10.5 45t23 45.5t49 19.5z" />
    <glyph glyph-name="iotadieresistonos" unicode="&#x390;" 
d="M157 389q26 0 38 -19.5t9 -45.5t-21 -45t-44 -19t-38 19t-9 45t21 45.5t44 19.5z" />
    <glyph glyph-name="Alpha" unicode="&#x391;" horiz-adv-x="650" 
d="M233 298h217l-54 348zM510 0l-42 231h-270l-113 -231h-82l356 730h96l139 -730h-84z" />
    <glyph glyph-name="Beta" unicode="&#x392;" horiz-adv-x="628" 
d="M201 350l-39 -282h142q180 0 200 141q10 69 -25 105t-112 36h-166zM245 660l-35 -245h161q131 0 148 120q11 76 -31 100.5t-137 24.5h-106zM69 0l102 730h201q129 0 189 -42t47 -136q-8 -57 -38.5 -100.5t-83.5 -60.5q60 -14 85.5 -66.5t16.5 -116.5q-29 -208 -278 -208
h-241z" />
    <glyph glyph-name="Gamma" unicode="&#x393;" horiz-adv-x="534" 
d="M552 655h-308l-93 -655h-83l103 730h399z" />
    <glyph glyph-name="Epsilon" unicode="&#x395;" horiz-adv-x="556" 
d="M511 413l-11 -75h-301l-36 -262h333l-17 -76h-410l102 730h404l-17 -75h-314l-34 -242h301z" />
    <glyph glyph-name="Zeta" unicode="&#x396;" horiz-adv-x="585" 
d="M629 730l-8 -60l-466 -594h379l-16 -76h-476l10 68l460 587h-362l11 75h468z" />
    <glyph glyph-name="Eta" unicode="&#x397;" horiz-adv-x="715" 
d="M571 340h-371l-48 -340h-83l102 730h83l-44 -316h371l44 316h83l-102 -730h-83z" />
    <glyph glyph-name="Theta" unicode="&#x398;" horiz-adv-x="216" 
d="M166 389q30 0 43 -19.5t10 -45.5t-22.5 -45t-49.5 -19q-29 0 -42.5 19t-10.5 45t23 45.5t49 19.5z" />
    <glyph glyph-name="Iota" unicode="&#x399;" horiz-adv-x="248" 
d="M262 730l-103 -730h-83l103 730h83z" />
    <glyph glyph-name="Kappa" unicode="&#x39a;" horiz-adv-x="599" 
d="M324 390l259 -390h-105l-225 343l-60 -49l-42 -294h-83l103 730h83l-50 -354l340 354h109z" />
    <glyph glyph-name="Lambda" unicode="&#x39b;" horiz-adv-x="574" 
d="M376 638l-296 -638h-85l352 730h84l148 -730h-83z" />
    <glyph glyph-name="Mu" unicode="&#x39c;" horiz-adv-x="871" 
d="M229 577l-81 -577h-78l102 730h90l175 -561l330 561h86l-103 -730h-78l81 574l-283 -485h-91z" />
    <glyph glyph-name="Nu" unicode="&#x39d;" horiz-adv-x="726" 
d="M616 0h-92l-292 605l-85 -605h-78l102 730h91l295 -606l85 606h77z" />
    <glyph glyph-name="Xi" unicode="&#x39e;" horiz-adv-x="216" 
d="M166 389q30 0 43 -19.5t10 -45.5t-22.5 -45t-49.5 -19q-29 0 -42.5 19t-10.5 45t23 45.5t49 19.5z" />
    <glyph glyph-name="Omicron" unicode="&#x39f;" horiz-adv-x="811" 
d="M475 670q-120 0 -194.5 -82t-94.5 -224q-18 -134 32 -217.5t172 -83.5t195.5 83.5t91.5 217.5q19 141 -31.5 223.5t-170.5 82.5zM379 -11q-160 0 -232 104t-49 271q24 173 127 277t260 104t231 -104t50 -277q-23 -166 -125.5 -270.5t-261.5 -104.5z" />
    <glyph glyph-name="Pi" unicode="&#x3a0;" horiz-adv-x="670" 
d="M615 656h-371l-92 -656h-83l102 730h537l-102 -730h-83z" />
    <glyph glyph-name="Rho" unicode="&#x3a1;" horiz-adv-x="557" 
d="M323 380q55 0 92.5 12.5t56 37t26.5 47t13 55.5q9 62 -26 91.5t-102 29.5h-140l-38 -272q87 -1 118 -1zM151 0h-83l103 730h222q105 0 161 -48t42 -148q-8 -54 -25.5 -93.5t-50 -71.5t-86.5 -48t-128 -16q-32 0 -111 7z" />
    <glyph glyph-name="Sigma" unicode="&#x3a3;" horiz-adv-x="556" 
d="M511 413l-11 -75h-301l-36 -262h333l-17 -76h-410l102 730h404l-17 -75h-314l-34 -242h301z" />
    <glyph glyph-name="Tau" unicode="&#x3a4;" horiz-adv-x="500" 
d="M91 655l10 75h490l-11 -75h-204l-91 -655h-83l91 655h-202z" />
    <glyph glyph-name="Upsilon" unicode="&#x3a5;" horiz-adv-x="606" 
d="M672 730l-316 -430l-42 -300h-83l43 300l-172 430h86l144 -350l251 350h89z" />
    <glyph glyph-name="Phi" unicode="&#x3a6;" horiz-adv-x="762" 
d="M100 377q-17 -122 48 -202t204 -92l10 75q-100 11 -143 70.5t-30 148.5q12 89 72 145t162 66l10 75q-140 -10 -228 -87t-105 -199zM771 377q17 122 -50 199t-205 87l-10 -75q100 -10 144.5 -66t32.5 -145q-13 -90 -73 -149.5t-165 -69.5l-10 -75q143 11 231 91.5
t105 202.5zM466 590q14 0 40 -2l-61 -430q-13 -2 -40 -2q-29 0 -43 2l61 430q26 2 43 2zM423 0h-83l12 83q14 -1 43 -1q27 0 40 1zM526 730l-10 -67q-26 2 -40 2q-15 0 -43 -2l10 67h83z" />
    <glyph glyph-name="Chi" unicode="&#x3a7;" horiz-adv-x="634" 
d="M5 0l296 381l-178 349h100l142 -294l237 294h88l-278 -349l180 -381h-96l-149 332l-250 -332h-92z" />
    <glyph glyph-name="Psi" unicode="&#x3a8;" horiz-adv-x="216" 
d="M166 389q30 0 43 -19.5t10 -45.5t-22.5 -45t-49.5 -19q-29 0 -42.5 19t-10.5 45t23 45.5t49 19.5z" />
    <glyph glyph-name="Iotadieresis" unicode="&#x3aa;" horiz-adv-x="248" 
d="M262 730l-103 -730h-83l103 730h83zM171 794h-71l14 104h72zM352 794h-73l14 104h73z" />
    <glyph glyph-name="Upsilondieresis" unicode="&#x3ab;" horiz-adv-x="606" 
d="M672 730l-316 -430l-42 -300h-83l43 300l-172 430h86l144 -350l251 350h89zM351 794h-71l14 104h72zM532 794h-73l14 104h73z" />
    <glyph glyph-name="alphatonos" unicode="&#x3ac;" 
d="M157 389q26 0 38 -19.5t9 -45.5t-21 -45t-44 -19t-38 19t-9 45t21 45.5t44 19.5z" />
    <glyph glyph-name="epsilontonos" unicode="&#x3ad;" 
d="M157 389q26 0 38 -19.5t9 -45.5t-21 -45t-44 -19t-38 19t-9 45t21 45.5t44 19.5z" />
    <glyph glyph-name="etatonos" unicode="&#x3ae;" 
d="M157 389q26 0 38 -19.5t9 -45.5t-21 -45t-44 -19t-38 19t-9 45t21 45.5t44 19.5z" />
    <glyph glyph-name="iotatonos" unicode="&#x3af;" 
d="M157 389q26 0 38 -19.5t9 -45.5t-21 -45t-44 -19t-38 19t-9 45t21 45.5t44 19.5z" />
    <glyph glyph-name="upsilondieresistonos" unicode="&#x3b0;" 
d="M157 389q26 0 38 -19.5t9 -45.5t-21 -45t-44 -19t-38 19t-9 45t21 45.5t44 19.5z" />
    <glyph glyph-name="alpha" unicode="&#x3b1;" 
d="M157 389q26 0 38 -19.5t9 -45.5t-21 -45t-44 -19t-38 19t-9 45t21 45.5t44 19.5z" />
    <glyph glyph-name="beta" unicode="&#x3b2;" 
d="M157 389q26 0 38 -19.5t9 -45.5t-21 -45t-44 -19t-38 19t-9 45t21 45.5t44 19.5z" />
    <glyph glyph-name="gamma" unicode="&#x3b3;" 
d="M157 389q26 0 38 -19.5t9 -45.5t-21 -45t-44 -19t-38 19t-9 45t21 45.5t44 19.5z" />
    <glyph glyph-name="delta" unicode="&#x3b4;" 
d="M157 389q26 0 38 -19.5t9 -45.5t-21 -45t-44 -19t-38 19t-9 45t21 45.5t44 19.5z" />
    <glyph glyph-name="epsilon" unicode="&#x3b5;" 
d="M157 389q26 0 38 -19.5t9 -45.5t-21 -45t-44 -19t-38 19t-9 45t21 45.5t44 19.5z" />
    <glyph glyph-name="zeta" unicode="&#x3b6;" 
d="M157 389q26 0 38 -19.5t9 -45.5t-21 -45t-44 -19t-38 19t-9 45t21 45.5t44 19.5z" />
    <glyph glyph-name="eta" unicode="&#x3b7;" 
d="M157 389q26 0 38 -19.5t9 -45.5t-21 -45t-44 -19t-38 19t-9 45t21 45.5t44 19.5z" />
    <glyph glyph-name="theta" unicode="&#x3b8;" 
d="M157 389q26 0 38 -19.5t9 -45.5t-21 -45t-44 -19t-38 19t-9 45t21 45.5t44 19.5z" />
    <glyph glyph-name="iota" unicode="&#x3b9;" 
d="M157 389q26 0 38 -19.5t9 -45.5t-21 -45t-44 -19t-38 19t-9 45t21 45.5t44 19.5z" />
    <glyph glyph-name="kappa" unicode="&#x3ba;" horiz-adv-x="539" 
d="M349 0l-187 247l-35 -247h-61l76 540h61l-35 -247l237 247h86l-258 -271q122 -156 195 -269h-79z" />
    <glyph glyph-name="lambda" unicode="&#x3bb;" 
d="M157 389q26 0 38 -19.5t9 -45.5t-21 -45t-44 -19t-38 19t-9 45t21 45.5t44 19.5z" />
    <glyph glyph-name="nu" unicode="&#x3bd;" 
d="M157 389q26 0 38 -19.5t9 -45.5t-21 -45t-44 -19t-38 19t-9 45t21 45.5t44 19.5z" />
    <glyph glyph-name="xi" unicode="&#x3be;" 
d="M157 389q26 0 38 -19.5t9 -45.5t-21 -45t-44 -19t-38 19t-9 45t21 45.5t44 19.5z" />
    <glyph glyph-name="omicron" unicode="&#x3bf;" horiz-adv-x="555" 
d="M426 254q12 88 -13 144.5t-98 56.5q-70 0 -115 -59t-57 -144q-11 -83 17.5 -140t99.5 -57q70 0 112 57t54 142zM499 255q-16 -112 -83.5 -189.5t-166.5 -77.5q-101 0 -148 76t-31 190t85 191t170 77q102 0 146.5 -75.5t27.5 -191.5z" />
    <glyph glyph-name="pi" unicode="&#x3c0;" horiz-adv-x="620" 
d="M619 520l-10 -70h-76l-42 -303q-10 -70 27 -70q5 0 31 6q-1 -5 -4 -15.5t-3 -15.5q-3 -21 -1 -49q-33 -7 -52 -7q-43 0 -55 32t-1 111l44 311h-171q-15 -89 -38 -194q-44 -202 -77 -256h-62q60 107 115 450q-64 -1 -107 -30l3 67q34 33 134 33h345z" />
    <glyph glyph-name="rho" unicode="&#x3c1;" horiz-adv-x="570" 
d="M160 254q-12 -87 12.5 -141.5t92.5 -54.5q66 0 106.5 58.5t51.5 137.5t-13 139t-90 60q-68 0 -108 -55.5t-52 -143.5zM23 -224l103 733h67l-6 -71q66 84 153 84q96 0 133.5 -77t20.5 -196q-16 -108 -79 -184.5t-150 -76.5q-95 0 -129 89l-41 -290z" />
    <glyph glyph-name="sigma1" unicode="&#x3c2;" 
d="M157 389q26 0 38 -19.5t9 -45.5t-21 -45t-44 -19t-38 19t-9 45t21 45.5t44 19.5z" />
    <glyph glyph-name="sigma" unicode="&#x3c3;" 
d="M157 389q26 0 38 -19.5t9 -45.5t-21 -45t-44 -19t-38 19t-9 45t21 45.5t44 19.5z" />
    <glyph glyph-name="tau" unicode="&#x3c4;" 
d="M157 389q26 0 38 -19.5t9 -45.5t-21 -45t-44 -19t-38 19t-9 45t21 45.5t44 19.5z" />
    <glyph glyph-name="upsilon" unicode="&#x3c5;" 
d="M157 389q26 0 38 -19.5t9 -45.5t-21 -45t-44 -19t-38 19t-9 45t21 45.5t44 19.5z" />
    <glyph glyph-name="phi" unicode="&#x3c6;" 
d="M157 389q26 0 38 -19.5t9 -45.5t-21 -45t-44 -19t-38 19t-9 45t21 45.5t44 19.5z" />
    <glyph glyph-name="chi" unicode="&#x3c7;" horiz-adv-x="502" 
d="M417 509h81l-200 -253l129 -256h-76l-101 204l-158 -204h-81l204 258l-129 251h81l97 -193z" />
    <glyph glyph-name="psi" unicode="&#x3c8;" 
d="M157 389q26 0 38 -19.5t9 -45.5t-21 -45t-44 -19t-38 19t-9 45t21 45.5t44 19.5z" />
    <glyph glyph-name="omega" unicode="&#x3c9;" 
d="M157 389q26 0 38 -19.5t9 -45.5t-21 -45t-44 -19t-38 19t-9 45t21 45.5t44 19.5z" />
    <glyph glyph-name="iotadieresis" unicode="&#x3ca;" horiz-adv-x="228" 
d="M157 389q26 0 38 -19.5t9 -45.5t-21 -45t-44 -19t-38 19t-9 45t21 45.5t44 19.5zM137 612h-71l14 104h72zM318 612h-73l14 104h73z" />
    <glyph glyph-name="upsilondieresis" unicode="&#x3cb;" 
d="M157 389q26 0 38 -19.5t9 -45.5t-21 -45t-44 -19t-38 19t-9 45t21 45.5t44 19.5z" />
    <glyph glyph-name="omicrontonos" unicode="&#x3cc;" 
d="M157 389q26 0 38 -19.5t9 -45.5t-21 -45t-44 -19t-38 19t-9 45t21 45.5t44 19.5z" />
    <glyph glyph-name="upsilontonos" unicode="&#x3cd;" 
d="M157 389q26 0 38 -19.5t9 -45.5t-21 -45t-44 -19t-38 19t-9 45t21 45.5t44 19.5z" />
    <glyph glyph-name="omegatonos" unicode="&#x3ce;" 
d="M157 389q26 0 38 -19.5t9 -45.5t-21 -45t-44 -19t-38 19t-9 45t21 45.5t44 19.5z" />
    <glyph glyph-name="uni0400" unicode="&#x400;" horiz-adv-x="535" 
d="M444 795l-125 189h118l60 -189h-53zM511 413l-11 -75h-301l-36 -262h333l-17 -76h-410l102 730h404l-17 -75h-314l-34 -242h301z" />
    <glyph glyph-name="afii10023" unicode="&#x401;" horiz-adv-x="535" 
d="M337 794h-71l14 104h72zM518 794h-73l14 104h73zM511 413l-11 -75h-301l-36 -262h333l-17 -76h-410l102 730h404l-17 -75h-314l-34 -242h301z" />
    <glyph glyph-name="afii10051" unicode="&#x402;" horiz-adv-x="468" 
d="M81 655l11 75h489l-10 -75h-204l-92 -655h-83l92 655h-203z" />
    <glyph glyph-name="uni0403" unicode="&#x403;" horiz-adv-x="462" 
d="M552 656h-308l-92 -656h-83l102 730h392z" />
    <glyph glyph-name="afii10053" unicode="&#x404;" horiz-adv-x="604" 
d="M170 324q-6 -115 44.5 -188t154.5 -73q100 0 179 58l19 -66q-85 -66 -213 -66q-153 0 -222 106.5t-46 274.5q23 163 122.5 269t253.5 106q133 0 191 -64l-36 -71q-62 60 -158 60q-117 0 -187 -76.5t-93 -194.5h314l-11 -75h-312z" />
    <glyph glyph-name="uni0405" unicode="&#x405;" horiz-adv-x="605" 
d="M51 49l34 70q100 -56 218 -56q148 0 169 145q6 47 -13.5 76.5t-78.5 45.5l-130 36q-149 41 -129 176q14 103 88 153t191 50q126 0 198 -53l-34 -68q-28 18 -76.5 32t-99.5 14q-164 0 -182 -123q-11 -79 87 -105l124 -33q79 -21 115 -67t24 -131q-15 -111 -86 -166.5
t-181 -55.5q-154 0 -238 60z" />
    <glyph glyph-name="uni0406" unicode="&#x406;" horiz-adv-x="225" 
d="M258 731l-103 -731h-82l102 731h83z" />
    <glyph glyph-name="afii10056" unicode="&#x407;" horiz-adv-x="239" 
d="M166 784h-71l14 104h72zM347 784h-73l14 104h73zM258 731l-103 -731h-82l102 731h83z" />
    <glyph glyph-name="uni0408" unicode="&#x408;" horiz-adv-x="268" 
d="M114 88l91 642h83l-86 -612q-9 -63 -19.5 -99t-32.5 -67t-60 -43.5t-98 -12.5h-16v69h34q57 0 76 29t28 94z" />
    <glyph glyph-name="uni0409" unicode="&#x409;" horiz-adv-x="836" 
d="M635 350h-118l-38 -274h117q58 0 99 35.5t50 98.5q9 64 -21.5 102t-88.5 38zM571 730l-43 -305h118q100 0 149.5 -52.5t34.5 -163.5q-15 -103 -79.5 -156t-165.5 -53h-200l92 655h-174l-62 -444q-7 -50 -14.5 -81.5t-21.5 -61.5t-35.5 -46t-55.5 -25.5t-82 -9.5h-13
l11 77h20q56 0 76 30t29 94l76 542h340z" />
    <glyph glyph-name="uni040A" unicode="&#x40a;" horiz-adv-x="772" 
d="M576 350h-99l-38 -272h99q58 0 99 34.5t50 97.5q9 64 -22 102t-89 38zM488 425h99q100 0 149.5 -52.5t34.5 -163.5q-15 -103 -79 -156t-165 -53h-182l49 350h-193l-49 -350h-83l102 730h83l-43 -305h194l43 305h82z" />
    <glyph glyph-name="afii10060" unicode="&#x40b;" horiz-adv-x="468" 
d="M81 655l11 75h489l-10 -75h-204l-92 -655h-83l92 655h-203z" />
    <glyph glyph-name="afii10061" unicode="&#x40c;" horiz-adv-x="599" 
d="M324 390l259 -390h-105l-225 343l-60 -49l-42 -294h-83l103 730h83l-50 -354l340 354h109zM657 984l-179 -190h-53l114 190h118z" />
    <glyph glyph-name="afii10062" unicode="&#x40e;" horiz-adv-x="591" 
d="M244 0h-89l117 228l-170 502h91l140 -419l230 419h90zM397 794q-46 0 -75.5 33.5t-21.5 92.5h54q-4 -34 10.5 -51.5t40.5 -17.5q27 0 47 18t24 51h55q-8 -59 -47.5 -92.5t-86.5 -33.5z" />
    <glyph glyph-name="afii10145" unicode="&#x40f;" horiz-adv-x="669" 
d="M533 75l92 655h83l-103 -730h-536l102 730h83l-91 -655h370z" />
    <glyph glyph-name="uni0410" unicode="&#x410;" horiz-adv-x="635" 
d="M233 298h217l-54 348zM510 0l-42 231h-270l-113 -231h-82l356 730h96l139 -730h-84z" />
    <glyph glyph-name="uni0411" unicode="&#x411;" horiz-adv-x="546" 
d="M454 209q9 66 -19 103.5t-91 37.5h-143l-38 -274h142q63 0 101.5 34.5t47.5 98.5zM171 730h407l-11 -75h-323l-33 -230h144q99 0 149 -53t35 -164q-15 -103 -79.5 -155.5t-165.5 -52.5h-225z" />
    <glyph glyph-name="uni0412" unicode="&#x412;" horiz-adv-x="576" 
d="M201 346l-39 -277h129q180 0 200 140q10 68 -25.5 102.5t-112.5 34.5h-152zM245 659l-35 -246h143q134 0 152 122q11 76 -31 100t-137 24h-92zM69 0l102 730h187q129 0 189.5 -42t47.5 -136q-8 -57 -38.5 -100.5t-83.5 -60.5q60 -14 85.5 -66.5t16.5 -116.5
q-29 -208 -279 -208h-227z" />
    <glyph glyph-name="uni0413" unicode="&#x413;" horiz-adv-x="462" 
d="M552 655h-308l-93 -655h-83l103 730h399z" />
    <glyph glyph-name="uni0414" unicode="&#x414;" horiz-adv-x="635" 
d="M475 74l82 587h-159l-218 -587h295zM343 730h307l-92 -656h54l-29 -203h-83l19 129h-430l-18 -129h-83l29 203h74z" />
    <glyph glyph-name="uni0415" unicode="&#x415;" horiz-adv-x="521" 
d="M511 413l-11 -75h-301l-36 -262h333l-17 -76h-410l102 730h404l-17 -75h-314l-34 -242h301z" />
    <glyph glyph-name="afii10024" unicode="&#x416;" horiz-adv-x="803" 
d="M546 731l-49 -346l293 346h100l-277 -324l210 -407h-104l-175 354l-61 -72l-40 -282h-83l40 282l-38 68l-278 -350h-104l329 402l-190 329h99l197 -346l48 346h83z" />
    <glyph glyph-name="afii10025" unicode="&#x417;" horiz-adv-x="524" 
d="M292 331h-53l11 78h58q67 0 106.5 37.5t47.5 89.5l1 7q5 59 -28 93t-87 34q-87 0 -174 -50l-21 65q80 59 212 59q51 0 89.5 -18.5t59 -47t28.5 -61t4 -63.5q-9 -64 -48 -114t-87 -65q49 -13 79.5 -63.5t21.5 -115.5q-14 -96 -83 -151.5t-185 -55.5q-123 0 -197 61l38 70
q28 -25 73 -41t94 -16q69 0 119 33.5t59 100.5q8 56 -25.5 95t-112.5 39z" />
    <glyph glyph-name="afii10026" unicode="&#x418;" horiz-adv-x="681" 
d="M69 0l103 731h76l-85 -604q88 118 254 331t212 273h90l-103 -731h-75l84 601l-51 -70l-412 -531h-93z" />
    <glyph glyph-name="afii10027" unicode="&#x419;" horiz-adv-x="727" 
d="M69 0l103 731h76l-85 -604q88 118 254 331t212 273h90l-103 -731h-75l84 601l-51 -70l-412 -531h-93zM465 794q-46 0 -75.5 33.5t-21.5 92.5h54q-4 -34 10.5 -51.5t40.5 -17.5q27 0 47 18t24 51h55q-8 -59 -47.5 -92.5t-86.5 -33.5z" />
    <glyph glyph-name="afii10028" unicode="&#x41a;" horiz-adv-x="599" 
d="M324 390l259 -390h-105l-225 343l-60 -49l-42 -294h-83l103 730h83l-50 -354l340 354h109z" />
    <glyph glyph-name="uni041B" unicode="&#x41b;" horiz-adv-x="559" 
d="M13 0l276 730h308l-103 -730h-83l92 655h-157l-246 -655h-87z" />
    <glyph glyph-name="uni041C" unicode="&#x41c;" horiz-adv-x="871" 
d="M229 577l-81 -577h-78l102 730h90l175 -561l330 561h86l-103 -730h-78l81 574l-283 -485h-91z" />
    <glyph glyph-name="uni041D" unicode="&#x41d;" horiz-adv-x="715" 
d="M571 340h-371l-48 -340h-83l102 730h83l-44 -316h371l44 316h83l-102 -730h-83z" />
    <glyph glyph-name="uni041E" unicode="&#x41e;" horiz-adv-x="811" 
d="M475 670q-120 0 -194.5 -82t-94.5 -224q-18 -134 32 -217.5t172 -83.5t195.5 83.5t91.5 217.5q19 141 -31.5 223.5t-170.5 82.5zM379 -11q-160 0 -232 104t-49 271q24 173 127 277t260 104t231 -104t50 -277q-23 -166 -125.5 -270.5t-261.5 -104.5z" />
    <glyph glyph-name="uni041F" unicode="&#x41f;" horiz-adv-x="669" 
d="M614 655h-370l-92 -655h-83l102 730h537l-103 -730h-83z" />
    <glyph glyph-name="uni0420" unicode="&#x420;" horiz-adv-x="524" 
d="M351 380q64 0 102 37.5t47 103.5q9 65 -19 99.5t-91 34.5h-146l-38 -275h145zM195 306l-43 -306h-83l102 730h227q101 0 151 -52.5t35 -155.5q-15 -111 -79.5 -163.5t-164.5 -52.5h-145z" />
    <glyph glyph-name="uni0421" unicode="&#x421;" horiz-adv-x="626" 
d="M478 745q122 0 189 -67l-38 -66q-62 58 -159 58q-117 0 -191 -87.5t-93 -218.5q-11 -58 -2.5 -112.5t29.5 -96.5t66.5 -67t110.5 -25q92 0 171 60l16 -71q-75 -63 -205 -63q-104 0 -172 51t-92.5 135t-9.5 189q23 167 125 274t255 107z" />
    <glyph glyph-name="uni0422" unicode="&#x422;" horiz-adv-x="500" 
d="M91 655l10 75h490l-11 -75h-204l-91 -655h-83l91 655h-202z" />
    <glyph glyph-name="afii10037" unicode="&#x423;" horiz-adv-x="549" 
d="M244 0h-89l117 228l-170 502h91l140 -419l230 419h90z" />
    <glyph glyph-name="uni0424" unicode="&#x424;" horiz-adv-x="792" 
d="M438 588q-222 -25 -251 -224q-14 -96 32.5 -154.5t155.5 -70.5zM515 589l-63 -450q229 23 258 225q14 97 -34 155t-161 70zM535 730l-9 -64q147 -11 219.5 -89t53.5 -213t-113.5 -213t-244.5 -89l-9 -62h-76l9 62q-146 13 -215 92.5t-51 209.5t109 209t241 92l9 65h77z
" />
    <glyph glyph-name="uni0425" unicode="&#x425;" horiz-adv-x="634" 
d="M5 0l296 381l-178 349h100l142 -294l237 294h88l-278 -349l180 -381h-96l-149 332l-250 -332h-92z" />
    <glyph glyph-name="afii10040" unicode="&#x426;" horiz-adv-x="684" 
d="M533 76l92 654h83l-92 -654h54l-29 -205h-82l18 129h-508l102 730h83l-91 -654h370z" />
    <glyph glyph-name="afii10041" unicode="&#x427;" horiz-adv-x="567" 
d="M480 426l42 304h83l-102 -730h-83l47 333q-32 -41 -83 -63t-102 -22q-88 0 -131 52t-30 147l39 283h83l-33 -235q-13 -87 12.5 -127t89.5 -40q47 0 106 36t62 62z" />
    <glyph glyph-name="uni0428" unicode="&#x428;" horiz-adv-x="767" 
d="M163 76h191l92 654h83l-92 -654h193l92 654h83l-103 -730h-633l102 730h83z" />
    <glyph glyph-name="afii10043" unicode="&#x429;" horiz-adv-x="798" 
d="M655 -129l18 129h-604l102 730h83l-91 -654h191l93 654h83l-92 -654h192l92 654h83l-92 -654h54l-29 -205h-83z" />
    <glyph glyph-name="uni042A" unicode="&#x42a;" horiz-adv-x="651" 
d="M569 210q9 62 -25 96t-117 34h-105l-37 -264h105q160 0 179 134zM191 0l92 655h-175l11 75h258l-44 -315h96q246 0 217 -206q-30 -209 -277 -209h-178z" />
    <glyph glyph-name="uni042B" unicode="&#x42b;" horiz-adv-x="772" 
d="M760 730l-103 -730h-83l103 730h83zM200 340l-37 -264h73q169 0 188 134q9 64 -28 97t-125 33h-71zM254 730l-44 -315h62q119 0 181.5 -53t48.5 -150q-14 -99 -87 -155.5t-199 -56.5h-147l102 730h83z" />
    <glyph glyph-name="uni042C" unicode="&#x42c;" horiz-adv-x="525" 
d="M200 340l-37 -264h73q169 0 188 134q9 64 -28 97t-125 33h-71zM254 730l-44 -315h62q119 0 181.5 -53t48.5 -150q-14 -99 -87 -155.5t-199 -56.5h-147l102 730h83z" />
    <glyph glyph-name="afii10047" unicode="&#x42d;" horiz-adv-x="604" 
d="M237 -11q-127 0 -195 66l38 66q62 -58 162 -58q105 0 176 73t97 188h-313l10 75h314q10 118 -38.5 194.5t-165.5 76.5q-95 0 -174 -60l-16 71q77 64 212 64q103 0 169.5 -51t90 -134.5t8.5 -189.5q-23 -168 -122.5 -274.5t-252.5 -106.5z" />
    <glyph glyph-name="uni042E" unicode="&#x42e;" horiz-adv-x="936" 
d="M684 670q-100 0 -166.5 -89t-84.5 -217q-11 -82 2.5 -149t56.5 -109.5t111 -42.5q100 0 166.5 86t84.5 216q11 81 -1.5 148.5t-56 112t-112.5 44.5zM591 -11q-131 0 -196 98t-54 248h-142l-47 -335h-83l102 730h83l-45 -321h144q32 152 121.5 244t218.5 92
q141 0 207 -107.5t42 -275.5q-23 -160 -117.5 -266.5t-233.5 -106.5z" />
    <glyph glyph-name="uni042F" unicode="&#x42f;" horiz-adv-x="596" 
d="M344 387h159l38 268h-159q-164 0 -182 -132q-10 -67 22 -101.5t122 -34.5zM449 0l43 312h-84q-37 0 -109 4l-187 -316h-94l203 333q-119 50 -100 191q29 206 290 206h223l-103 -730h-82z" />
    <glyph glyph-name="uni0430" unicode="&#x430;" horiz-adv-x="501" 
d="M193 52q34 0 76 20.5t68 52.5l17 124q-41 -7 -42 -7q-101 -14 -139.5 -37t-45.5 -75q-11 -78 66 -78zM330 58q-63 -70 -154 -70q-61 0 -95 35t-24 104q4 28 14.5 51t23 38.5t34.5 28.5t39 20.5t47 14.5t48 10.5t52 8.5l47 6l9 57q12 91 -78 91q-78 0 -148 -34l-11 62
q71 41 167 41q161 0 140 -147l-52 -375h-57z" />
    <glyph glyph-name="afii10066" unicode="&#x431;" horiz-adv-x="431" 
d="M123 509h305l-9 -69h-235l-16 -108h118q79 0 115 -47t26 -114q-10 -69 -59 -120t-128 -51h-189zM285 265h-126l-28 -200h126q39 0 68 34.5t34 72.5q5 36 -14.5 64.5t-59.5 28.5z" />
    <glyph glyph-name="afii10067" unicode="&#x432;" horiz-adv-x="438" 
d="M164 297h122q39 0 64 21t29 50q5 32 -13.5 52t-59.5 20h-122zM277 230h-123l-23 -165h123q46 0 75 24t34 63q2 31 -20 54.5t-66 23.5zM429 147q-9 -62 -57.5 -104.5t-130.5 -42.5h-190l72 509h189q76 0 109.5 -38.5t25.5 -95.5q-11 -75 -76 -108q32 -16 46.5 -50
t11.5 -70z" />
    <glyph glyph-name="uni0433" unicode="&#x433;" horiz-adv-x="283" 
d="M336 440h-152l-62 -440h-71l72 509h223z" />
    <glyph glyph-name="uni0434" unicode="&#x434;" horiz-adv-x="463" 
d="M132 59h203l54 381h-156l-26 -149q-34 -118 -75 -232zM70 -6l-18 -125h-66l27 191h40q48 54 78 208l47 241h291l-63 -450h36l-26 -190h-68l17 125h-295z" />
    <glyph glyph-name="uni0435" unicode="&#x435;" horiz-adv-x="531" 
d="M244 -12q-98 0 -144 72t-29 195q16 114 83 189t157 78q85 0 125 -66.5t24 -179.5l-5 -35h-314q-12 -83 20.5 -133t94.5 -50q78 0 153 50l14 -56q-72 -64 -179 -64zM151 294h245q11 78 -15.5 120t-79.5 42q-52 0 -93 -44t-57 -118z" />
    <glyph glyph-name="afii10072" unicode="&#x436;" horiz-adv-x="630" 
d="M320 275l33 234h69l-33 -234l219 234h83l-240 -248l173 -261h-84l-156 236l-33 -236h-69l33 236l-222 -236h-85l246 261l-171 248h84z" />
    <glyph glyph-name="afii10073" unicode="&#x437;" horiz-adv-x="404" 
d="M177 -12q-103 0 -140 54q5 9 15.5 25t16.5 28q37 -39 123 -39q54 0 87.5 25.5t38.5 65.5q5 34 -16.5 59t-67.5 25h-81l9 64h81q40 0 64.5 23.5t28.5 54.5q5 37 -17.5 59.5t-75.5 22.5q-35 0 -73.5 -13.5t-56.5 -30.5q-12 41 -16 57q53 54 157 54q87 0 123 -41t28 -101
q-12 -84 -86 -114q77 -26 67 -121q-10 -68 -62.5 -112.5t-146.5 -44.5z" />
    <glyph glyph-name="uni0438" unicode="&#x438;" horiz-adv-x="466" 
d="M72 169l48 340h70l-47 -338q-9 -64 17.5 -90t80.5 -26q113 0 130 116l47 338h70l-48 -340q-13 -94 -71 -137.5t-138 -43.5t-126 44t-33 137z" />
    <glyph glyph-name="uni0439" unicode="&#x439;" horiz-adv-x="545" 
d="M72 169l48 340h70l-47 -338q-9 -64 17.5 -90t80.5 -26q113 0 130 116l47 338h70l-48 -340q-13 -94 -71 -137.5t-138 -43.5t-126 44t-33 137zM347 598q-46 0 -75.5 33.5t-21.5 92.5h54q-4 -34 10.5 -51.5t40.5 -17.5q27 0 47 18t24 51h55q-8 -59 -47.5 -92.5t-86.5 -33.5z
" />
    <glyph glyph-name="afii10076" unicode="&#x43a;" horiz-adv-x="422" 
d="M161 278l100 108q10 11 29 31.5t25.5 28t20.5 21.5t20.5 18.5t17.5 12.5t19.5 10.5t19.5 4.5t23 2q2 0 32 -6l-11 -73q-22 4 -29 4q-18 0 -39 -17.5t-59.5 -59.5t-65.5 -68l-49 -45l202 -250h-94l-171 218l-30 -218h-71l72 509h70z" />
    <glyph glyph-name="uni043B" unicode="&#x43b;" horiz-adv-x="493" 
d="M157 509h357l-72 -509h-69l62 440h-218l-35 -248q-6 -40 -9 -59.5t-9 -46.5t-13 -38.5t-17.5 -26t-25.5 -20t-35.5 -9.5t-48.5 -4h-15l6 74h20q41 0 53 23t24 107z" />
    <glyph glyph-name="uni043C" unicode="&#x43c;" horiz-adv-x="500" 
d="M299 179h-45l-80 197l-53 -376h-70l72 509h62l102 -238l171 238h62l-72 -509h-70l53 376z" />
    <glyph glyph-name="uni043D" unicode="&#x43d;" horiz-adv-x="475" 
d="M123 509h70l-28 -205h231l28 205h70l-72 -509h-69l33 238h-231l-33 -238h-71z" />
    <glyph glyph-name="uni043E" unicode="&#x43e;" horiz-adv-x="577" 
d="M426 254q12 88 -13 144.5t-98 56.5q-70 0 -115 -59t-57 -144q-11 -83 17.5 -140t99.5 -57q70 0 112 57t54 142zM499 255q-16 -112 -83.5 -189.5t-166.5 -77.5q-101 0 -148 76t-31 190t85 191t170 77q102 0 146.5 -75.5t27.5 -191.5z" />
    <glyph glyph-name="uni043F" unicode="&#x43f;" horiz-adv-x="472" 
d="M353 522q75 0 102 -54t12 -163l-43 -305h-70l36 254q19 98 8.5 148t-69.5 50q-53 0 -98.5 -34t-60.5 -72l-49 -346h-70l54 385l16 124h61l-5 -78q32 42 80 66.5t96 24.5z" />
    <glyph glyph-name="uni0440" unicode="&#x440;" horiz-adv-x="570" 
d="M160 254q-12 -87 12.5 -141.5t92.5 -54.5q66 0 106.5 58.5t51.5 137.5t-13 139t-90 60q-68 0 -108 -55.5t-52 -143.5zM23 -224l103 733h67l-6 -71q66 84 153 84q96 0 133.5 -77t20.5 -196q-16 -108 -79 -184.5t-150 -76.5q-95 0 -129 89l-41 -290z" />
    <glyph glyph-name="uni0441" unicode="&#x441;" horiz-adv-x="469" 
d="M375 93l10 -56q-52 -49 -131 -49q-103 0 -151.5 77.5t-32.5 189.5q16 111 87.5 189t170.5 78q83 0 118 -46l-25 -56q-43 35 -103 35q-63 0 -113.5 -57.5t-62.5 -144.5t22.5 -142.5t102.5 -55.5q55 0 108 38z" />
    <glyph glyph-name="uni0442" unicode="&#x442;" horiz-adv-x="749" 
d="M121 0h-70l53 380l17 129h61l-5 -78q72 91 168 91q101 0 116 -98q69 98 172 98q141 0 113 -198l-45 -324h-70l37 264q5 34 7 54t3 44.5t-2.5 38t-10.5 26.5t-20.5 18.5t-32.5 5.5q-44 0 -83 -31t-63 -83l-48 -337h-69l39 280q14 77 1 124t-62 47q-51 0 -95 -32t-62 -74z
" />
    <glyph glyph-name="uni0443" unicode="&#x443;" horiz-adv-x="460" 
d="M244 90l187 419h76l-234 -506q-7 -16 -23 -51t-21 -45t-18 -33.5t-21 -29.5t-23 -18.5t-31 -15.5t-38.5 -6.5t-50.5 -3.5h-24v80h31q60 0 79.5 18.5t52.5 95.5l6 15l-101 500h78z" />
    <glyph glyph-name="uni0444" unicode="&#x444;" horiz-adv-x="595" 
d="M216 82q33 0 60 14l48 346q-23 14 -56 14q-43 0 -75.5 -54t-43.5 -131q-11 -76 6.5 -132.5t60.5 -56.5zM455 456q-30 0 -61 -16l-48 -343q24 -15 55 -15q42 0 76 56.5t45 132.5t-6.5 130.5t-60.5 54.5zM352 641h70l-19 -134q35 15 61 15q73 0 109 -71.5t21 -178.5
t-72 -181.5t-129 -74.5q-32 0 -57 12l-17 -123h-70l17 123q-28 -12 -61 -12q-72 0 -107.5 74.5t-20.5 181.5t70.5 178.5t129.5 71.5q24 0 56 -15z" />
    <glyph glyph-name="uni0445" unicode="&#x445;" horiz-adv-x="502" 
d="M417 509h81l-200 -253l129 -256h-76l-101 204l-158 -204h-81l204 258l-129 251h81l97 -193z" />
    <glyph glyph-name="afii10088" unicode="&#x446;" horiz-adv-x="470" 
d="M385 -6h-328l72 515h70l-63 -449h207l63 449h70l-63 -448h41l-27 -192h-55z" />
    <glyph glyph-name="uni0447" unicode="&#x447;" horiz-adv-x="437" 
d="M160 401q-12 -81 8.5 -115.5t73.5 -34.5q37 0 71 26.5t51 73.5l23 158h70l-72 -509h-70l36 256q-19 -35 -54.5 -54.5t-77.5 -19.5q-78 0 -111.5 55.5t-19.5 153.5l16 118h71z" />
    <glyph glyph-name="uni0448" unicode="&#x448;" horiz-adv-x="749" 
d="M704 536h70l-53 -380l-17 -129h-61l5 78q-72 -91 -168 -91q-101 0 -116 98q-69 -98 -172 -98q-141 0 -113 198l45 324h70l-37 -264q-5 -34 -7 -54t-3 -44.5t2.5 -38t10.5 -26.5t20.5 -18.5t32.5 -5.5q44 0 83 31t63 83l48 337h69l-39 -280q-14 -77 -1 -124t62 -47
q51 0 95 32t62 74z" />
    <glyph glyph-name="afii10091" unicode="&#x449;" horiz-adv-x="581" 
d="M478 -116l15 111h-442l72 514h70l-63 -449h123l63 449h71l-63 -449h123l63 449h71l-63 -449h41l-25 -176h-56z" />
    <glyph glyph-name="uni044A" unicode="&#x44a;" horiz-adv-x="483" 
d="M344 239h-130l-25 -174h133q39 0 64 28t30 64q4 32 -14.5 57t-57.5 25zM252 509l-29 -204h121q79 0 113.5 -43t25.5 -105q-9 -66 -54.5 -111.5t-124.5 -45.5h-194l62 440h-98l9 69h169z" />
    <glyph glyph-name="afii10093" unicode="&#x44b;" horiz-adv-x="628" 
d="M577 509l-72 -509h-69l71 509h70zM263 261h-105l-27 -196h107q38 0 63 32.5t30 71.5q5 37 -12 64.5t-56 27.5zM193 509l-26 -182h95q79 0 112.5 -45.5t23.5 -114.5q-10 -70 -55.5 -118.5t-123.5 -48.5h-168l72 509h70z" />
    <glyph glyph-name="afii10094" unicode="&#x44c;" horiz-adv-x="405" 
d="M263 261h-105l-27 -196h107q38 0 63 32.5t30 71.5q5 37 -12 64.5t-56 27.5zM193 509l-26 -182h95q79 0 112.5 -45.5t23.5 -114.5q-10 -70 -55.5 -118.5t-123.5 -48.5h-168l72 509h70z" />
    <glyph glyph-name="afii10095" unicode="&#x44d;" horiz-adv-x="423" 
d="M159 -12q-92 0 -130 46l28 58q52 -37 107 -37q65 0 112.5 45t64.5 120h-194l10 69h194q4 78 -29 122t-102 44q-59 0 -118 -38l-12 56q55 49 142 49q108 0 155.5 -77t31.5 -192q-16 -111 -85 -188t-175 -77z" />
    <glyph glyph-name="uni044E" unicode="&#x44e;" horiz-adv-x="621" 
d="M399 55q116 0 145 199q28 201 -90 201q-63 0 -101 -58.5t-51 -144.5q-12 -85 10.5 -141t86.5 -56zM617 255q-16 -116 -74 -191.5t-155 -75.5q-91 0 -130.5 63.5t-31.5 168.5h-73l-31 -220h-71l72 509h70l-31 -220h74q22 105 79.5 169t148.5 64q68 0 107 -36.5t47 -96
t-1 -134.5z" />
    <glyph glyph-name="afii10097" unicode="&#x44f;" horiz-adv-x="443" 
d="M226 268h133l24 172h-133q-40 0 -67 -27t-32 -61q-4 -32 16 -58t59 -26zM321 0l29 200h-121l-112 -200h-84l125 209q-44 16 -62.5 55.5t-12.5 87.5q9 66 55.5 111.5t125.5 45.5h199l-72 -509h-70z" />
    <glyph glyph-name="uni0450" unicode="&#x450;" horiz-adv-x="529" 
d="M244 -12q107 0 179 64l-14 56q-75 -50 -153 -50q-62 0 -94.5 50t-20.5 133h314l5 35q16 113 -24 179.5t-125 66.5q-90 -3 -157 -78t-83 -189q-17 -123 29 -195t144 -72zM151 294q16 74 57 118t93 44q53 0 79.5 -42t15.5 -120h-245zM395 599l-125 189h118l60 -189h-53z
" />
    <glyph glyph-name="afii10071" unicode="&#x451;" horiz-adv-x="529" 
d="M244 -12q107 0 179 64l-14 56q-75 -50 -153 -50q-62 0 -94.5 50t-20.5 133h314l5 35q16 113 -24 179.5t-125 66.5q-90 -3 -157 -78t-83 -189q-17 -123 29 -195t144 -72zM151 294q16 74 57 118t93 44q53 0 79.5 -42t15.5 -120h-245zM469 598h-73l14 104h73zM288 598h-71
l14 104h72z" />
    <glyph glyph-name="afii10099" unicode="&#x452;" horiz-adv-x="303" 
d="M58 0l15 62h303l-15 -62h-303z" />
    <glyph glyph-name="uni0453" unicode="&#x453;" horiz-adv-x="325" 
d="M336 440h-152l-62 -440h-71l72 509h223zM393 788l-179 -190h-53l114 190h118z" />
    <glyph glyph-name="afii10101" unicode="&#x454;" horiz-adv-x="422" 
d="M246 -12q-106 0 -154 77t-32 188q16 115 85 192t177 77q86 0 128 -49l-27 -56q-47 38 -107 38q-69 0 -114 -44t-63 -122h193l-9 -69h-194q-3 -75 32 -120t99 -45q55 0 117 37l11 -58q-51 -46 -142 -46z" />
    <glyph glyph-name="uni0455" unicode="&#x455;" horiz-adv-x="443" 
d="M379 138v-2q-13 -71 -59 -109.5t-113 -38.5q-49 0 -90.5 15t-61.5 35l26 60q56 -42 125 -42h7q39 0 65.5 20.5t35.5 59.5q0 1 0.5 3t0.5 3q7 55 -59 77l-57 19q-63 20 -85 54.5t-16 84.5q8 59 54 101.5t119 43.5q82 0 135 -35l-25 -57q-56 27 -113 27q-39 0 -67 -21.5
t-33 -59.5q-7 -50 56 -69l60 -19q112 -34 95 -150z" />
    <glyph glyph-name="uni0456" unicode="&#x456;" horiz-adv-x="216" 
d="M245 728l-14 -97h-71l14 97h71zM218 536l-76 -536h-70l75 536h71z" />
    <glyph glyph-name="afii10104" unicode="&#x457;" horiz-adv-x="209" 
d="M203 509l-72 -509h-70l71 509h71zM127 612h-71l14 104h72zM308 612h-73l14 104h73z" />
    <glyph glyph-name="afii10105" unicode="&#x458;" horiz-adv-x="217" 
d="M239 730l-14 -96h-70l13 96h71zM211 536l-85 -604q-15 -101 -48 -139t-116 -38h-22l1 74h22q53 0 69 22.5t25 89.5l84 595h70z" />
    <glyph glyph-name="afii10106" unicode="&#x459;" horiz-adv-x="384" 
d="M163 192l45 317h337l-26 -185h88q79 0 112.5 -45t23.5 -113q-10 -69 -55.5 -117.5t-123.5 -48.5h-161l62 440h-197l-35 -248q-6 -40 -9 -59.5t-9 -46.5t-13 -38.5t-17.5 -26t-25.5 -20t-35.5 -9.5t-48.5 -4h-15l6 74h19q42 0 54 23t24 107zM509 258l-27 -193h102
q39 0 63.5 32t29.5 70q5 37 -12.5 64t-56.5 27h-99z" />
    <glyph glyph-name="afii10107" unicode="&#x45a;" horiz-adv-x="685" 
d="M123 509h70l-28 -203h202l29 203h69l-26 -181h87q79 0 112.5 -45.5t23.5 -114.5q-10 -70 -55.5 -119t-123.5 -49h-159l33 240h-202l-33 -240h-71zM430 261l-27 -196h100q39 0 63.5 32.5t29.5 71.5q5 37 -12.5 64.5t-56.5 27.5h-97z" />
    <glyph glyph-name="afii10108" unicode="&#x45b;" horiz-adv-x="468" 
d="M151 228l-32 -228h-70l72 510h-40l8 56h39l24 171h71l-24 -171h173l-8 -56h-173l-26 -182q71 87 160 87q155 0 126 -208l-29 -207h-69l23 169q15 85 1 128t-69 43q-50 0 -96 -36t-61 -76z" />
    <glyph glyph-name="afii10109" unicode="&#x45c;" horiz-adv-x="486" 
d="M161 278l100 108q10 11 29 31.5t25.5 28t20.5 21.5t20.5 18.5t17.5 12.5t19.5 10.5t19.5 4.5t23 2q2 0 32 -6l-11 -73q-22 4 -29 4q-18 0 -39 -17.5t-59.5 -59.5t-65.5 -68l-49 -45l202 -250h-94l-171 218l-30 -218h-71l72 509h70zM556 788l-179 -190h-53l114 190h118z
" />
    <glyph glyph-name="afii10110" unicode="&#x45e;" horiz-adv-x="534" 
d="M244 90l187 419h76l-234 -506q-7 -16 -23 -51t-21 -45t-18 -33.5t-21 -29.5t-23 -18.5t-31 -15.5t-38.5 -6.5t-50.5 -3.5h-24v80h31q60 0 79.5 18.5t52.5 95.5l6 15l-101 500h78zM338 598q-46 0 -75.5 33.5t-21.5 92.5h54q-4 -34 10.5 -51.5t40.5 -17.5q27 0 47 18t24 51
h55q-8 -59 -47.5 -92.5t-86.5 -33.5z" />
    <glyph glyph-name="afii10193" unicode="&#x45f;" horiz-adv-x="466" 
d="M72 169l48 340h70l-47 -338q-9 -64 17.5 -90t80.5 -26q113 0 130 116l47 338h70l-48 -340q-13 -94 -71 -137.5t-138 -43.5t-126 44t-33 137z" />
    <glyph glyph-name="uni1E02" unicode="&#x1e02;" horiz-adv-x="628" 
d="M457 923q30 0 43 -19t10 -45t-22 -45.5t-49 -19.5q-29 0 -42.5 19.5t-10.5 45.5t22.5 45t48.5 19zM201 350l-39 -282h142q180 0 200 141q10 69 -25 105t-112 36h-166zM245 660l-35 -245h161q131 0 148 120q11 76 -31 100.5t-137 24.5h-106zM69 0l102 730h201
q129 0 189 -42t47 -136q-8 -57 -38.5 -100.5t-83.5 -60.5q60 -14 85.5 -66.5t16.5 -116.5q-29 -208 -278 -208h-241z" />
    <glyph glyph-name="uni1E03" unicode="&#x1e03;" horiz-adv-x="572" 
d="M421 916q30 0 43 -19t10 -45t-22 -45.5t-49 -19.5q-29 0 -42.5 19.5t-10.5 45.5t22.5 45t48.5 19zM264 -12q93 0 155 78t79 195q15 109 -25.5 185t-131.5 76q-41 0 -83 -23t-74 -70l43 308l-72 -11l-102 -726h70l11 78q15 -43 49 -66.5t81 -23.5zM269 55
q-69 0 -95.5 56.5t-14.5 143.5q13 89 60 144t108 56q46 0 72 -32t28.5 -76.5t-2.5 -91.5q-5 -37 -16 -70t-29 -63.5t-47 -48.5t-64 -18z" />
    <glyph glyph-name="uni1E0A" unicode="&#x1e0a;" horiz-adv-x="743" 
d="M508 923q30 0 43 -19t10 -45t-22 -45.5t-49 -19.5q-29 0 -42.5 19.5t-10.5 45.5t22.5 45t48.5 19zM244 655l-81 -579h143q127 0 206 71.5t98 210.5q12 84 -1.5 143t-51 92t-90 47.5t-125.5 14.5h-98zM69 0l102 730h171q93 0 162 -18.5t119.5 -60t70.5 -115t5 -176.5
q-25 -177 -135.5 -268.5t-277.5 -91.5h-217z" />
    <glyph glyph-name="uni1E0B" unicode="&#x1e0b;" horiz-adv-x="573" 
d="M402 916q30 0 43 -19t10 -45t-22 -45.5t-49 -19.5q-29 0 -42.5 19.5t-10.5 45.5t22.5 45t48.5 19zM244 61q-66 0 -89.5 56.5t-11.5 140.5q11 78 50.5 135t104.5 57q70 0 97 -54t15 -140t-55 -140.5t-111 -54.5zM229 -12q46 0 87 26.5t68 68.5l-3 -83h62l103 737l-71 -11
l-41 -294q-12 41 -48.5 65.5t-83.5 24.5q-86 0 -150.5 -75t-80.5 -186q-17 -122 25 -197.5t133 -75.5z" />
    <glyph glyph-name="uni1E1E" unicode="&#x1e1e;" horiz-adv-x="500" 
d="M399 923q30 0 43 -19t10 -45t-22 -45.5t-49 -19.5q-29 0 -42.5 19.5t-10.5 45.5t22.5 45t48.5 19zM489 409l-10 -70h-279l-48 -339h-83l102 730h379l-17 -75h-289l-35 -246h280z" />
    <glyph glyph-name="uni1E1F" unicode="&#x1e1f;" horiz-adv-x="303" 
d="M81 452l8 57h67l3 18q20 132 58.5 177.5t122.5 45.5h30v-62h-39q-52 0 -70 -32t-32 -128l-2 -19h104l-8 -57h-104l-64 -452h-70l63 452h-67zM295 929q30 0 43 -19t10 -45t-22 -45.5t-49 -19.5q-29 0 -42.5 19.5t-10.5 45.5t22.5 45t48.5 19z" />
    <glyph glyph-name="uni1E40" unicode="&#x1e40;" horiz-adv-x="871" 
d="M561 923q30 0 43 -19t10 -45t-22 -45.5t-49 -19.5q-29 0 -42.5 19.5t-10.5 45.5t22.5 45t48.5 19zM229 577l-81 -577h-78l102 730h90l175 -561l330 561h86l-103 -730h-78l81 574l-283 -485h-91z" />
    <glyph glyph-name="uni1E41" unicode="&#x1e41;" horiz-adv-x="867" 
d="M51 0h70l49 345q18 42 62 74t95 32q49 0 62 -47t-1 -124l-39 -280h69l48 337q24 52 63 83t83 31q19 0 32.5 -5.5t20.5 -18.5t10.5 -26.5t2.5 -38t-3 -44.5t-7 -54l-37 -264h70l45 324q28 198 -113 198q-103 0 -172 -98q-15 98 -116 98q-96 0 -168 -91l5 78h-61l-17 -129z
M535 727q30 0 43 -19t10 -45t-22 -45.5t-49 -19.5q-29 0 -42.5 19.5t-10.5 45.5t22.5 45t48.5 19z" />
    <glyph glyph-name="uni1E56" unicode="&#x1e56;" horiz-adv-x="557" 
d="M434 923q30 0 43 -19t10 -45t-22 -45.5t-49 -19.5q-29 0 -42.5 19.5t-10.5 45.5t22.5 45t48.5 19zM323 380q55 0 92.5 12.5t56 37t26.5 47t13 55.5q9 62 -26 91.5t-102 29.5h-140l-38 -272q87 -1 118 -1zM151 0h-83l103 730h222q105 0 161 -48t42 -148
q-8 -54 -25.5 -93.5t-50 -71.5t-86.5 -48t-128 -16q-32 0 -111 7z" />
    <glyph glyph-name="uni1E57" unicode="&#x1e57;" horiz-adv-x="570" 
d="M394 727q30 0 43 -19t10 -45t-22 -45.5t-49 -19.5q-29 0 -42.5 19.5t-10.5 45.5t22.5 45t48.5 19zM160 254q-12 -87 12.5 -141.5t92.5 -54.5q66 0 106.5 58.5t51.5 137.5t-13 139t-90 60q-68 0 -108 -55.5t-52 -143.5zM23 -224l103 733h67l-6 -71q66 84 153 84
q96 0 133.5 -77t20.5 -196q-16 -108 -79 -184.5t-150 -76.5q-95 0 -129 89l-41 -290z" />
    <glyph glyph-name="uni1E60" unicode="&#x1e60;" horiz-adv-x="605" 
d="M431 923q30 0 43 -19t10 -45t-22 -45.5t-49 -19.5q-29 0 -42.5 19.5t-10.5 45.5t22.5 45t48.5 19zM85 119l-34 -70q84 -60 238 -60q110 0 181 55.5t86 166.5q12 85 -24 131t-115 67l-124 33q-98 26 -87 105q18 123 182 123q51 0 99.5 -14t76.5 -32l34 68q-72 53 -198 53
q-117 0 -191 -50t-88 -153q-20 -135 129 -176l130 -36q59 -16 78.5 -45.5t13.5 -76.5q-21 -145 -169 -145q-118 0 -218 56z" />
    <glyph glyph-name="uni1E61" unicode="&#x1e61;" horiz-adv-x="443" 
d="M317 727q30 0 43 -19t10 -45t-22 -45.5t-49 -19.5q-29 0 -42.5 19.5t-10.5 45.5t22.5 45t48.5 19zM379 136v2q17 116 -95 150l-60 19q-63 19 -56 69q5 38 33 59.5t67 21.5q57 0 113 -27l25 57q-53 35 -135 35q-73 -1 -119 -43.5t-54 -101.5q-6 -50 16 -84.5t85 -54.5
l57 -19q66 -22 59 -77q0 -1 -0.5 -3t-0.5 -3q-9 -39 -35.5 -59.5t-65.5 -20.5h-7q-69 0 -125 42l-26 -60q20 -20 61.5 -35t90.5 -15q67 0 113 38.5t59 109.5z" />
    <glyph glyph-name="uni1E6A" unicode="&#x1e6a;" horiz-adv-x="500" 
d="M376 923q30 0 43 -19t10 -45t-22 -45.5t-49 -19.5q-29 0 -42.5 19.5t-10.5 45.5t22.5 45t48.5 19zM91 655l10 75h490l-11 -75h-204l-91 -655h-83l91 655h-202z" />
    <glyph glyph-name="uni1E6B" unicode="&#x1e6b;" horiz-adv-x="327" 
d="M284 892q30 0 43 -19t10 -45t-22 -45.5t-49 -19.5q-29 0 -42.5 19.5t-10.5 45.5t22.5 45t48.5 19zM214 452l-39 -281q-10 -71 -1 -92t51 -21q13 0 57 4l-3 -65q-74 -7 -80 -7q-79 0 -95 50t5 165l35 247h-70l13 57h65l46 200l53 5l-29 -205h122l-9 -57h-121z" />
    <glyph glyph-name="Wgrave" unicode="&#x1e80;" horiz-adv-x="1040" 
d="M676 802l-125 189h118l60 -189h-53zM715 95l287 635h85l-337 -730h-96l-75 598l-266 -598h-95l-128 730h86l106 -634l262 608h96z" />
    <glyph glyph-name="wgrave" unicode="&#x1e81;" horiz-adv-x="780" 
d="M520 611l-125 189h118l60 -189h-53zM78 509h73l45 -405l178 405h82l60 -404l156 404h71l-210 -509h-69l-61 431l-189 -431h-70z" />
    <glyph glyph-name="Wacute" unicode="&#x1e82;" horiz-adv-x="1040" 
d="M755 991l-179 -190h-53l114 190h118zM715 95l287 635h85l-337 -730h-96l-75 598l-266 -598h-95l-128 730h86l106 -634l262 608h96z" />
    <glyph glyph-name="wacute" unicode="&#x1e83;" horiz-adv-x="780" 
d="M599 800l-179 -190h-53l114 190h118zM78 509h73l45 -405l178 405h82l60 -404l156 404h71l-210 -509h-69l-61 431l-189 -431h-70z" />
    <glyph glyph-name="Wdieresis" unicode="&#x1e84;" horiz-adv-x="1040" 
d="M569 803h-71l14 104h72zM750 803h-73l14 104h73zM715 95l287 635h85l-337 -730h-96l-75 598l-266 -598h-95l-128 730h86l106 -634l262 608h96z" />
    <glyph glyph-name="wdieresis" unicode="&#x1e85;" horiz-adv-x="780" 
d="M413 612h-71l14 104h72zM594 612h-73l14 104h73zM78 509h73l45 -405l178 405h82l60 -404l156 404h71l-210 -509h-69l-61 431l-189 -431h-70z" />
    <glyph glyph-name="uni1ebc" unicode="&#x1ebc;" horiz-adv-x="556" 
d="M290 821h-50q15 107 93 107q33 0 79 -23t49 -23h1q19 1 28 46h50q-14 -107 -83 -107q-21 0 -69.5 24t-65.5 24h-1q-22 0 -31 -48zM511 413l-11 -75h-301l-36 -262h333l-17 -76h-410l102 730h404l-17 -75h-314l-34 -242h301z" />
    <glyph glyph-name="uni1ebd" unicode="&#x1ebd;" horiz-adv-x="531" 
d="M244 -12q107 0 179 64l-14 56q-75 -50 -153 -50q-62 0 -94.5 50t-20.5 133h314l5 35q16 113 -24 179.5t-125 66.5q-90 -3 -157 -78t-83 -189q-17 -123 29 -195t144 -72zM151 294q16 74 57 118t93 44q53 0 79.5 -42t15.5 -120h-245zM251 630h-50q15 107 93 107
q34 0 79 -23t49 -23h1q19 1 28 46h50q-14 -107 -83 -107q-21 0 -69.5 24t-65.5 24h-1q-22 0 -31 -48z" />
    <glyph glyph-name="Ygrave" unicode="&#x1ef2;" horiz-adv-x="606" 
d="M459 802l-125 189h118l60 -189h-53zM672 730l-316 -430l-42 -300h-83l43 300l-172 430h86l144 -350l251 350h89z" />
    <glyph glyph-name="ygrave" unicode="&#x1ef3;" horiz-adv-x="483" 
d="M372 611l-125 189h118l60 -189h-53zM147 509h-74l108 -505q-53 -119 -82.5 -147t-103.5 -28h-12l-3 -74h23q90 0 141 52.5t100 161.5l243 540h-74q-126 -294 -180 -418z" />
    <glyph glyph-name="uni1ef8" unicode="&#x1ef8;" horiz-adv-x="606" 
d="M315 821h-50q15 107 93 107q34 0 79 -23t49 -23h1q19 1 28 46h50q-14 -107 -83 -107q-21 0 -69.5 24t-65.5 24h-1q-22 0 -31 -48zM672 730l-316 -430l-42 -300h-83l43 300l-172 430h86l144 -350l251 350h89z" />
    <glyph glyph-name="uni1ef9" unicode="&#x1ef9;" horiz-adv-x="483" 
d="M227 630h-50q15 107 93 107q34 0 79 -23t49 -23h1q19 1 28 46h50q-14 -107 -83 -107q-21 0 -69.5 24t-65.5 24h-1q-22 0 -31 -48zM147 509h-74l108 -505q-53 -119 -82.5 -147t-103.5 -28h-12l-3 -74h23q90 0 141 52.5t100 161.5l243 540h-74q-126 -294 -180 -418z" />
    <glyph glyph-name="endash" unicode="&#x2013;" horiz-adv-x="598" 
d="M587 330l-10 -73h-475l9 73h476z" />
    <glyph glyph-name="emdash" unicode="&#x2014;" horiz-adv-x="1102" 
d="M1091 330l-10 -73h-979l9 73h980z" />
    <glyph glyph-name="quoteleft" unicode="&#x2018;" horiz-adv-x="235" 
d="M287 769l-75 -231h-76l96 231h55z" />
    <glyph glyph-name="quoteright" unicode="&#x2019;" horiz-adv-x="232" 
d="M192 538h-54l76 231h74z" />
    <glyph glyph-name="quotesinglbase" unicode="&#x201a;" horiz-adv-x="232" 
d="M42 -125l75 230h75l-95 -230h-55z" />
    <glyph glyph-name="quotedblleft" unicode="&#x201c;" horiz-adv-x="379" 
d="M136 538l95 231h57l-77 -231h-75zM281 538l95 231h56l-75 -231h-76z" />
    <glyph glyph-name="quotedblright" unicode="&#x201d;" horiz-adv-x="369" 
d="M272 538l76 231h76l-97 -231h-55zM138 538l76 231h75l-96 -231h-55z" />
    <glyph glyph-name="quotedblbase" unicode="&#x201e;" horiz-adv-x="380" 
d="M189 -125l75 230h76l-95 -230h-56zM42 -125l74 230h75l-94 -230h-55z" />
    <glyph glyph-name="dagger" unicode="&#x2020;" horiz-adv-x="399" 
d="M176 59l60 433h-133l9 69h134l28 201h61l-28 -201h141l-10 -69h-149l-61 -433h-52z" />
    <glyph glyph-name="daggerdbl" unicode="&#x2021;" horiz-adv-x="433" 
d="M234 295l32 222h-141l10 68h144l12 177h64l-25 -177h142l-10 -68h-145l-31 -222h142l-10 -67h-142l-12 -169h-74l35 169h-143l10 67h142z" />
    <glyph glyph-name="bullet" unicode="&#x2022;" horiz-adv-x="402" 
d="M395 368q-10 -67 -58.5 -116t-105.5 -49q-58 0 -91 47.5t-24 114.5q10 67 58.5 116t104.5 49q57 0 91 -48t25 -114z" />
    <glyph glyph-name="ellipsis" unicode="&#x2026;" horiz-adv-x="723" 
d="M604 -6q-29 0 -43 19.5t-11 45.5t22.5 45t49.5 19t43 -19t10 -45t-22 -45.5t-49 -19.5zM363 -6q-29 0 -43 19.5t-11 45.5t22.5 45t49.5 19t43 -19t10 -45t-22 -45.5t-49 -19.5zM122 -6q-29 0 -43 19.5t-11 45.5t22.5 45t49.5 19t43 -19t10 -45t-22 -45.5t-49 -19.5z" />
    <glyph glyph-name="perthousand" unicode="&#x2030;" horiz-adv-x="1057" 
d="M181 -11h-61l500 766h71zM286 702q-36 0 -61 -36t-33 -90q-8 -57 7 -92t53 -35q36 0 60.5 36t32.5 90q8 57 -6.5 92t-52.5 35zM551 298q-44 0 -71.5 -35.5t-35.5 -89.5q-8 -57 10 -92.5t62 -35.5q43 0 72 37t36 91q8 56 -10 90.5t-63 34.5zM506 -15q-74 0 -105 50.5
t-19 137.5q12 83 58.5 134.5t120.5 51.5q75 0 105.5 -49.5t18.5 -137.5q-12 -83 -58.5 -135t-120.5 -52zM242 389q-64 0 -93 51t-17 136q12 82 55.5 133.5t107.5 51.5q66 0 94 -50t16 -137q-12 -81 -55.5 -133t-107.5 -52zM861 -15q-73 0 -104.5 51t-19.5 137
q12 83 58.5 134.5t120.5 51.5t104.5 -49.5t18.5 -137.5q-12 -83 -58 -135t-120 -52zM906 298q-44 0 -72.5 -35.5t-36.5 -89.5q-8 -57 11 -92.5t64 -35.5q43 0 71.5 36.5t36.5 91.5t-11 90t-63 35z" />
    <glyph glyph-name="guilsinglleft" unicode="&#x2039;" horiz-adv-x="284" 
d="M233 479h66l-135 -194l77 -196h-65l-80 196z" />
    <glyph glyph-name="guilsinglright" unicode="&#x203a;" horiz-adv-x="286" 
d="M277 286l-141 -197h-65l136 197l-79 193h65z" />
    <glyph glyph-name="fraction" unicode="&#x2044;" horiz-adv-x="515" 
d="M532 755h59l-504 -755h-59z" />
    <glyph glyph-name="foursuperior" unicode="&#x2074;" horiz-adv-x="344" 
d="M165 478h95l17 123q2 15 5 33t3 20zM289 323h-50l14 99h-150l6 49l184 271h56l-37 -264h42l-3 -56h-48z" />
    <glyph glyph-name="Euro" unicode="&#x20ac;" horiz-adv-x="552" 
d="M89 283l15 50h42q0 8 2 24q1 11 5.5 30.5t5.5 25.5h-52l17 54h50q36 127 112 202t184 75q83 0 126 -46l-13 -88q-40 58 -113 58q-75 0 -127 -53.5t-80 -147.5h254l-16 -54h-254q-3 -10 -6 -30.5t-5 -34.5l-2 -15h249l-12 -50h-237q-2 -94 33 -155.5t110 -61.5
q68 0 138 53l-13 -85q-64 -45 -146 -45q-57 0 -99.5 25.5t-66 68.5t-34.5 93t-11 107h-56z" />
    <glyph glyph-name="afii61352" unicode="&#x2116;" horiz-adv-x="1304" 
d="M1194 0h-92l-292 605l-85 -605h-78l102 730h91l295 -606l85 606h77zM426 254q12 88 -13 144.5t-98 56.5q-70 0 -115 -59t-57 -144q-11 -83 17.5 -140t99.5 -57q70 0 112 57t54 142zM499 255q-16 -112 -83.5 -189.5t-166.5 -77.5q-101 0 -148 76t-31 190t85 191t170 77
q102 0 146.5 -75.5t27.5 -191.5z" />
    <glyph glyph-name="trademark" unicode="&#x2122;" horiz-adv-x="827" 
d="M145 730h291l-7 -49h-120l-54 -384h-53l53 384h-117zM491 730h73l76 -328l173 328h70l-61 -433h-53l50 362l-173 -327h-39l-74 327l-51 -362h-52z" />
    <glyph glyph-name="partialdiff" unicode="&#x2202;" horiz-adv-x="553" 
d="M237 686l4 72q73 49 154 49q210 0 159 -359q-12 -88 -38.5 -168.5t-65.5 -147.5t-95.5 -106.5t-121.5 -39.5q-90 0 -127 65t-22 170q18 131 94 218t174 87q94 0 130 -86l6 39q17 121 -12.5 189t-102.5 68q-62 0 -136 -50zM244 58q72 0 131 81.5t88 204.5q-7 48 -35 80.5
t-74 32.5q-70 0 -128.5 -70.5t-72.5 -166.5q-10 -73 14.5 -117.5t76.5 -44.5z" />
    <glyph glyph-name="uni2206" unicode="&#x2206;" horiz-adv-x="608" 
d="M142 85h354l-93 498l-8 58l-23 -58zM581 42l-6 -42h-536l6 42l325 710h86z" />
    <glyph glyph-name="product" unicode="&#x220f;" horiz-adv-x="669" 
d="M614 655h-370l-92 -655h-83l102 730h537l-103 -730h-83z" />
    <glyph glyph-name="summation" unicode="&#x2211;" horiz-adv-x="583" 
d="M534 -95l-11 -79h-509l7 49l340 416l-215 407l7 50h481l-10 -75h-384l217 -378l-336 -390h413z" />
    <glyph glyph-name="minus" unicode="&#x2212;" horiz-adv-x="579" 
d="M112 333h455l-10 -72h-455z" />
    <glyph glyph-name="radical" unicode="&#x221a;" horiz-adv-x="553" 
d="M589 839h53l-331 -920h-63l-89 444l-71 -15l1 59l122 27l64 -322l14 -91z" />
    <glyph glyph-name="infinity" unicode="&#x221e;" horiz-adv-x="826" 
d="M812 313q-12 -83 -66 -136t-123 -53q-51 0 -91.5 32t-78.5 100q-111 -132 -209 -132q-75 0 -111.5 57t-24.5 141q11 73 65 124t121 51q55 0 96 -34t78 -99q109 133 209 133q76 0 111.5 -51t23.5 -133zM160 312q-7 -49 19.5 -87.5t74.5 -38.5q78 0 174 125
q-56 125 -142 125q-49 0 -84 -36t-42 -88zM755 325q6 47 -19 79t-71 32q-77 0 -172 -124q35 -66 66.5 -96t72.5 -30q51 0 82.5 39t40.5 100z" />
    <glyph glyph-name="integral" unicode="&#x222b;" horiz-adv-x="318" 
d="M123 -24l96 684q28 197 149 197q21 0 54 -11l-9 -68q-16 8 -43 8q-39 0 -56 -26.5t-25 -86.5l-97 -685q-28 -197 -147 -197q-27 0 -54 9l9 68q14 -7 42 -7q39 0 56 27.5t25 87.5z" />
    <glyph glyph-name="approxequal" unicode="&#x2248;" horiz-adv-x="600" 
d="M561 482l43 -14q-43 -134 -147 -134q-53 0 -121 50q-48 36 -81 36q-62 0 -96 -86l-46 14q20 63 59 98.5t92 35.5q47 0 113 -46q56 -40 89 -40q55 0 95 86zM534 288l44 -16q-43 -134 -148 -134q-49 0 -120 50q-48 36 -81 36q-62 0 -98 -87l-45 15q44 136 151 136
q45 0 111 -43.5t91 -43.5q54 0 95 87z" />
    <glyph glyph-name="notequal" unicode="&#x2260;" horiz-adv-x="541" 
d="M447 589l51 -7l-72 -135h126l-5 -65h-157l-92 -148h225l-5 -62h-256l-86 -149l-50 10l73 139h-118l5 62h151l90 148h-217l5 65h248z" />
    <glyph glyph-name="lessequal" unicode="&#x2264;" horiz-adv-x="537" 
d="M495 69l-9 -65h-438l9 65h438zM500 187l-10 -74l-380 237l6 44l448 247l-10 -74l-370 -193z" />
    <glyph glyph-name="greaterequal" unicode="&#x2265;" horiz-adv-x="537" 
d="M150 568l10 74l380 -248l-6 -43l-450 -237l10 74l372 184zM502 69l-9 -65h-436l9 65h436z" />
    <glyph glyph-name="lozenge" unicode="&#x25ca;" horiz-adv-x="518" 
d="M396 773l137 -398l-253 -398h-50l-137 397l253 399h50zM265 52l208 322q-11 32 -51 145.5t-61 175.5q-70 -106 -208 -320q107 -309 112 -323z" />
    <glyph glyph-name="ff" unicode="&#xfb00;" horiz-adv-x="496" 
d="M76 0l64 452h-68l9 57h67q20 143 58.5 192t125.5 49h30l-1 -62h-39q-54 0 -71 -34.5t-33 -144.5h175q20 143 58 192t125 49h30v-62h-39q-54 0 -71 -34.5t-33 -144.5h104l-8 -57h-104l-64 -452h-70l64 452h-175l-64 -452h-70z" />
    <glyph glyph-name="fi" unicode="&#xfb01;" horiz-adv-x="459" 
d="M76 0l64 452h-68l9 57h67q20 143 58.5 192t125.5 49h30l-1 -62h-39q-54 0 -71 -34.5t-33 -144.5h254l-72 -509h-69l63 452h-184l-64 -452h-70zM433 730h70l-13 -96h-71z" />
    <glyph glyph-name="fl" unicode="&#xfb02;" horiz-adv-x="518" 
d="M458 -6q-80 0 -94.5 55t9.5 188l60 434q-56 5 -84 5h-10.5t-6.5 -0.5t-3 -0.5q-50 0 -74 -36t-37 -130h104l-8 -57h-104l-64 -452h-70l64 452h-68l9 57h67q18 129 63 179t123 50q32 0 177 -10l-71 -508q-16 -88 -9.5 -123t52.5 -35q9 0 31 2l-4 -64q-49 -6 -52 -6z" />
    <glyph glyph-name="ffi" unicode="&#xfb03;" horiz-adv-x="666" 
d="M210 452l-64 -452h-70l64 452h-68l9 57h67q20 143 58.5 192t125.5 49h30l-1 -62h-39q-54 0 -71 -34.5t-33 -144.5h163q20 146 54 193.5t119 47.5h32l-5 -62h-36q-45 0 -60.5 -24.5t-25.5 -95.5l-8 -59h229l-72 -509h-69l63 452h-159l-64 -452h-69l63 452h-163zM642 730
h69l-14 -96h-69z" />
    <glyph glyph-name="fj" horiz-adv-x="473" 
d="M446 730h79l-13 -96h-79zM211 -245v74h24q58 0 74.5 22t25.5 90l76 538h-183l-67 -479h-79l67 479h-72l8 57h72q18 127 59 170.5t136 43.5h34v-62h-43q-59 0 -76.5 -29t-30.5 -123h262l-85 -604q-15 -101 -51 -139t-127 -38h-24z" />
    </font>
</defs>
</svg>
