<svg xmlns="http://www.w3.org/2000/svg" id="Capa_1" width="35" height="35" viewBox="0 0 35.3 35.3"><path d="M23.7 34.7c-0.2 0.1-0.3 0.1-0.5 0.2 -0.7 0.1-1.1-0.2-1.1-0.9 0-1.3 0-2.6 0-3.9 0-1.5 0-2.9-1.1-4.2 0.7-0.1 1.3-0.2 1.8-0.3 3.9-0.9 5.9-3.3 6.1-7.4 0.1-2.1-0.2-3.9-1.6-5.6 -0.1-0.1-0.1-0.4-0.1-0.5 0.4-1.3 0.3-2.6-0.2-4 -0.1-0.3-0.3-0.4-0.6-0.4 -1.1 0.1-2.2 0.5-3.1 1.1 -0.9 0.6-1.7 0.7-2.8 0.5 -2.3-0.5-4.6-0.4-6.9 0.2 -0.3 0.1-0.6 0-0.9-0.2 -1.1-0.6-2.2-1.2-3.4-1.5 -1-0.2-1-0.1-1.3 0.8C7.8 9.8 7.8 10.9 8.1 12.1c0 0.2 0 0.4-0.1 0.6 -2.6 2.9-1.6 8.2 0.1 10.3 1.3 1.6 3.1 2.3 5.1 2.7 0.3 0.1 0.7 0.1 1 0.2 -0.3 0.8-0.6 1.5-0.9 2.2 -0.1 0.1-0.2 0.3-0.4 0.3 -1.9 0.8-3.6 0.2-4.7-1.6 -0.6-0.9-1.4-1.6-2.5-1.8 0 0-0.1 0-0.1 0 -0.3 0.1-0.6 0.2-0.9 0.2 0.2 0.2 0.3 0.6 0.5 0.7 1 0.6 1.6 1.5 2 2.5 0.6 1.6 1.9 2.3 3.5 2.5 0.8 0.1 1.6 0 2.5 0 0 1 0 2.1 0 3.3 0 0.6-0.6 0.9-1.4 0.6 -1.9-0.7-3.8-1.6-5.3-3C1 27-1.2 20.8 0.7 13.7 2.5 6.5 7.4 2.1 14.7 0.7 24.7-1.2 34.2 6.2 35.2 16.4 36 24.4 31.3 31.9 23.7 34.7zM14.2 25.9c0 0 0 0 0 0 0 0 0 0 0.1 0C14.3 25.9 14.3 25.9 14.2 25.9zM9.7 29c0.2 0.1 0.3 0.2 0.5 0.3 0.1 0 0.2-0.1 0.4-0.3 -0.3-0.1-0.4-0.2-0.6-0.2C9.8 28.8 9.8 29 9.7 29zM11.1 29.3c0 0.1 0.2 0.2 0.4 0.2 0.1 0 0.2-0.2 0.4-0.2 -0.1-0.1-0.2-0.2-0.5-0.5C11.2 29 11.1 29.1 11.1 29.3zM12.9 28.9c-0.1 0-0.3 0.2-0.4 0.3 0.1 0.1 0.2 0.2 0.3 0.4 0.2-0.2 0.3-0.3 0.4-0.4C13.1 29 12.9 28.8 12.9 28.9zM8.5 28.3c0.1 0.2 0.2 0.3 0.4 0.5 0.1-0.2 0.2-0.3 0.2-0.4 -0.1-0.1-0.3-0.3-0.4-0.4C8.7 28 8.5 28.2 8.5 28.3z"/></svg>