<svg xmlns="http://www.w3.org/2000/svg" width="50" height="50" viewBox="0 0 49.7 49.7"><path d="M29.4 21.3c-2.1 0-3.1 1.2-3.6 2v-1.7h-4c0.1 1.1 0 12 0 12h4v-6.7c0-0.4 0-0.7 0.1-1 0.3-0.7 0.9-1.5 2.1-1.5 1.4 0 2 1.1 2 2.7v6.4h4 0v-6.9C34 23 32 21.3 29.4 21.3zM25.7 23.3h0c0 0 0 0 0 0V23.3z"/><rect x="15.5" y="21.6" width="4" height="12"/><path d="M24.8 0C11.1 0 0 11.1 0 24.8c0 13.7 11.1 24.8 24.8 24.8 13.7 0 24.8-11.1 24.8-24.8C49.7 11.1 38.5 0 24.8 0zM38 36.1c0 1.1-0.9 1.9-2 1.9H13.5c-1.1 0-2-0.9-2-1.9V13.2c0-1.1 0.9-1.9 2-1.9h22.6c1.1 0 2 0.9 2 1.9V36.1z"/><path d="M17.6 15.8c-1.4 0-2.3 0.9-2.3 2.1 0 1.2 0.9 2.1 2.2 2.1h0c1.4 0 2.3-0.9 2.3-2.1C19.8 16.7 18.9 15.8 17.6 15.8z"/></svg>